<svg xmlns="http://www.w3.org/2000/svg" width="62.387" height="81.911" viewBox="0 0 62.387 81.911">
  <path id="Path_168" data-name="Path 168" d="M86.449,52.719c-1.157-3.471-3.286-4.647-6.755-4.222-1.809.221-.775-.933-.486-1.212a.923.923,0,0,0,.129-.156,20.7,20.7,0,0,0,1.084-1.77c.1-.275,1.008-3.27,1.128-3.662a.694.694,0,0,1,.029-.081,14.864,14.864,0,0,0,.813-2.827,17.4,17.4,0,0,0,.8-4.789c-.056-1.083.121-5.967-.728-9.524a28.5,28.5,0,0,0-3.033-9.18c-1.348-2.356-4.745-8.147-7.765-10.9C69.119,2.073,65.828.349,65.593,1.334c-.265,1.112,3.15,5.155,3.15,5.155l.035.048L72.6,12.3l1.233,2.527.023.043a35.661,35.661,0,0,1,3.458,11.961c.25,2.471-.311,7.354-1.763,12.158s-5.234,2.8-6.894,2.263a11.491,11.491,0,0,1-6.692-5.7c-1.3-2.781-1.523-4.021-3.7-5.394s-1.649-1.162-3.7.344a13.713,13.713,0,0,0-3.944,4.3c-.55.875-2.161,1.506-2.941,2.211-5.491,4.961-7.871,2.314-9.868,1.971C35.581,38.6,32.932,29.928,35.7,22.5l.054-.143.906-3.237.025-.075c.211-.552,1.954-5.443,2.785-7.316a72.966,72.966,0,0,1,5.16-10.042c.161-.342.8-2.079-.169-1.6a14.778,14.778,0,0,0-5.608,5.39,9.325,9.325,0,0,1-1.171,1.476c-.184.244-3.079,5.033-3.418,5.568l-.05.094c-.217.493-2.371,4.559-2.481,4.731s-1.686,5.251-1.885,5.891l-.03.137-.607,4.377-.007.077-.269,5.627c0,.022,0,.042,0,.064.009.315.089,2.965.271,4.381A14.261,14.261,0,0,0,31.832,44c.8.86,1.865,1.463,2.488,2.155,1.915,2.13-4.146,2.144-4.146,2.144s-2.292-.1-4.51,3.493c-1.953,3.163-1.672,2.868,1.089,2.9s4.9-2.353,5.6-2.464a8.99,8.99,0,0,1,3.421.515,11.607,11.607,0,0,1,2.484.8,8.121,8.121,0,0,1,2.03,2.8c.593,1.492.788,3.05,1.41,4.631s.4,3.714.442,4.817,1.633,3.934,1.788,4.56a12,12,0,0,1,.544,3.089,2,2,0,0,0,.142.78,2.134,2.134,0,0,1-.038,1.822c-2.383.588-3.709.15-4.817.231a4.661,4.661,0,0,0-2.166.621,3.2,3.2,0,0,0-1.029,2.422,1.84,1.84,0,0,0,.53,1.163,4.4,4.4,0,0,0,3.323,1.421h1.742c.179,0,.488-.013.841-.029l.212-.049c.593-.134,1.217-.265,1.866-.389a42.846,42.846,0,0,1,9.577-.827c2.3.092,3.852.134,5.131.187.37.015.718.031,1.055.049,1.562.085,2.9.219,5.186.545a8.676,8.676,0,0,0,1.793.044,7.638,7.638,0,0,0,2.393-.912,3.2,3.2,0,0,0,1.029-2.422c0-1.373-2.385-2.059-2.385-2.059S66.784,75.8,65.54,75.8c-.242,0-.54-.021-.862-.04a5.759,5.759,0,0,0-.7.036,1.016,1.016,0,0,1-.415-.013.921.921,0,0,1-.738-.974c.037-.371.067-.728.067-.915,0-.49.726-2.353.726-3.138A67.456,67.456,0,0,1,65.9,63.989l1.244-3.334s.758-1.217,2.9-4.412c4.331-6.45,9.3-4.074,9.473-3.977a12.935,12.935,0,0,0,5.536,2.057C87.015,54.426,87.046,54.512,86.449,52.719ZM69.564,48.852a4.442,4.442,0,0,1-1.825,1.715c-2.023.948-3.14,1.224-3.569,1.945a18.282,18.282,0,0,0-1.143,2.476,5.4,5.4,0,0,1-.667,1.486,10.263,10.263,0,0,0-1.143,2.432c-.048.45-1,4.728-1.191,5.539a11.466,11.466,0,0,1-.619,1.756s-.619,1.306-.714,1.531a16.2,16.2,0,0,0-.476,2.072c0,.225-.216,4.344-3.355,4.86-4.36.717-4.425-1.969-4.6-2.388a15.6,15.6,0,0,1-.572-2.112c-.048-.27-1.347-2.432-1.347-3.242s-.572-1.982-.572-2.477a13.391,13.391,0,0,0-.19-1.576s-.1-1.621-.1-1.756-.19-2.026-.238-2.207-.541-3.107-.826-3.963a8.432,8.432,0,0,0-.857-1.711s-.619-1.666-.81-2.071a2.656,2.656,0,0,0-.952-1.441,7.542,7.542,0,0,1-1.255-.99s-1.179-1.1-.429-1.036a7.115,7.115,0,0,0,2.285-.344c.171-.064,1.225-.394,2.035-.646a8.292,8.292,0,0,0,1.825-.82s.247-.152.33-.2c3.32-1.915,6.385-7.181,7.294-7.409.743-.186,1.972,1.062,2.558,2.745a8.814,8.814,0,0,0,1.121,2.04l.39.569a9.847,9.847,0,0,0,1.528,1.747,5.519,5.519,0,0,0,2.221,1.281c1.86.641,3.913,2.134,5.784,2.088A.072.072,0,0,1,69.564,48.852Z" transform="translate(-24.402 0)" fill="#d59e00"/>
</svg>
