<svg xmlns="http://www.w3.org/2000/svg" width="60.713" height="60.718" viewBox="0 0 60.713 60.718">
  <g id="Group_207" data-name="Group 207" transform="translate(406.091 -8569.424)">
    <g id="chat" transform="translate(-406.091 8569.424)">
      <g id="Group_206" data-name="Group 206">
        <path id="Path_178" data-name="Path 178" d="M51.823,8.9A30.352,30.352,0,0,0,6.984,49.717a11.615,11.615,0,0,1-4.865,5.391,2.848,2.848,0,0,0,.822,5.366,15.689,15.689,0,0,0,2.4.18,18.123,18.123,0,0,0,10.68-3.543A30.349,30.349,0,0,0,51.823,8.9ZM49.371,49.37A26.886,26.886,0,0,1,16.74,53.555a1.726,1.726,0,0,0-2.105.27.57.57,0,0,0-.141.1,14.82,14.82,0,0,1-9.153,3.261H5.328a17,17,0,0,0,5.212-6.919,1.773,1.773,0,0,0,.09-1.117,1.8,1.8,0,0,0-.424-.976A26.889,26.889,0,1,1,49.371,49.37Z" transform="translate(-0.019)" fill="#d59e00"/>
        <circle id="Ellipse_3" data-name="Ellipse 3" cx="1.264" cy="1.264" r="1.264" transform="translate(29.077 29.095)" fill="#d59e00"/>
        <circle id="Ellipse_4" data-name="Ellipse 4" cx="1.264" cy="1.264" r="1.264" transform="translate(40.403 29.095)" fill="#d59e00"/>
        <circle id="Ellipse_5" data-name="Ellipse 5" cx="1.264" cy="1.264" r="1.264" transform="translate(17.751 29.095)" fill="#d59e00"/>
      </g>
    </g>
  </g>
</svg>
