<svg id="instagram-logo" xmlns="http://www.w3.org/2000/svg" width="25.097" height="25.174" viewBox="0 0 25.097 25.174">
  <g id="Group_23" data-name="Group 23" transform="translate(0)">
    <g id="Group_22" data-name="Group 22">
      <path id="Path_18" data-name="Path 18" d="M22.368,24.9a2.517,2.517,0,1,0-2.511-2.52A2.52,2.52,0,0,0,22.368,24.9Z" transform="translate(-9.82 -9.789)" fill="#32342d"/>
      <path id="Path_19" data-name="Path 19" d="M33.311,16.387V13.96H33l-2.1.007.008,2.427Z" transform="translate(-15.277 -6.882)" fill="#32342d"/>
      <path id="Path_20" data-name="Path 20" d="M12.548,0A12.587,12.587,0,1,0,25.1,12.587,12.582,12.582,0,0,0,12.548,0Zm7.137,11.118v5.861a2.765,2.765,0,0,1-2.758,2.767H8.17a2.765,2.765,0,0,1-2.758-2.767V8.2A2.765,2.765,0,0,1,8.17,5.429h8.756A2.765,2.765,0,0,1,19.685,8.2Z" transform="translate(0)" fill="#32342d"/>
      <path id="Path_21" data-name="Path 21" d="M23.107,23.4a3.9,3.9,0,1,1-7.52-1.469H13.457V27.79a1.37,1.37,0,0,0,1.368,1.371h8.756a1.37,1.37,0,0,0,1.368-1.371V21.929H22.817A3.872,3.872,0,0,1,23.107,23.4Z" transform="translate(-6.655 -10.811)" fill="#32342d"/>
    </g>
  </g>
</svg>
