<svg xmlns="http://www.w3.org/2000/svg" width="447.098" height="442.514" viewBox="0 0 447.098 442.514">
  <g id="Group_171" data-name="Group 171" transform="translate(-157.902 -433.101)">
    <g id="Group_125" data-name="Group 125" transform="translate(157.902 433.102)">
      <path id="Path_158" data-name="Path 158" d="M345.546,284.807C339.56,266.054,328.54,259.7,310.582,262c-9.361,1.2-4.01-5.04-2.517-6.547a4.943,4.943,0,0,0,.665-.843c1.167-1.848,5.15-8.205,5.608-9.562.5-1.485,5.22-17.666,5.836-19.781a3.815,3.815,0,0,1,.152-.435,82.989,82.989,0,0,0,4.207-15.273c.392-2.827,4.707-14.809,4.164-25.871-.289-5.852.628-32.235-3.768-51.451-.872-3.811-3.577-27.483-15.7-49.592-6.976-12.727-24.562-44.015-40.192-58.89C255.85,11.2,238.815,1.885,237.6,7.2c-1.374,6.008,16.306,27.85,16.306,27.85l.18.258,19.759,31.124,6.381,13.65.117.23c.679,1.237,14.444,28.982,17.9,64.615,1.294,13.349-1.61,39.728-9.123,65.683s-27.093,15.115-35.681,12.225-26.158-11.878-34.637-30.779c-6.738-15.025-7.883-21.724-19.153-29.142s-8.535-6.276-19.155,1.86c-9.48,7.261-14.35,13.181-20.411,23.247-2.845,4.728-11.183,8.133-15.224,11.942-28.42,26.8-40.739,12.5-51.075,10.647-11.519-2.067-25.231-48.934-10.926-89.07.078-.219.2-.558.281-.775l4.689-17.486.127-.4c1.091-2.98,10.116-29.4,14.415-39.525,18.7-44.021,22.938-45.88,26.706-54.248C129.9,7.261,133.2-2.125,128.2.441c-12.067,6.194-22.029,17.605-29.024,29.12a50.023,50.023,0,0,1-6.063,7.975c-.952,1.317-15.935,27.192-17.689,30.078-.088.172-.172.336-.258.505C74.038,70.786,62.888,92.748,62.32,93.681s-8.726,28.367-9.755,31.823l-.156.738L49.268,149.89l-.037.418-1.391,30.4c0,.119,0,.226,0,.345.047,1.7.459,16.017,1.4,23.668,1,8.145,6.99,25.52,13.617,32.994,4.121,4.648,9.655,7.9,12.875,11.642,9.911,11.507-21.461,11.581-21.461,11.581s-11.862-.539-23.344,18.872C20.819,296.9,22.275,295.3,36.562,295.5s25.356-12.713,28.978-13.31,8.451.2,17.709,2.783c4.166,1.161,10.691,2.759,12.856,4.348,5.573,4.086,10.18,14.272,10.506,15.127,3.069,8.059,4.08,16.479,7.3,25.02S116,349.533,116.2,355.493s8.451,21.254,9.255,24.632,2.818,9.733,2.818,16.686a11.24,11.24,0,0,0,.734,4.215,11.987,11.987,0,0,1-.2,9.845c-12.336,3.175-19.2.808-24.932,1.249-4.933.379-9.8,2.041-11.211,3.352a17.618,17.618,0,0,0-5.327,13.082,10.143,10.143,0,0,0,2.746,6.285,22.339,22.339,0,0,0,17.2,7.675H116.3c.927,0,2.525-.068,4.355-.156.365-.09.726-.176,1.1-.263,3.068-.724,6.3-1.432,9.659-2.1,14.891-2.976,32.318-5.187,49.568-4.469,11.929.5,19.937.726,26.558,1.009,1.914.082,3.715.17,5.46.267,8.084.459,15,1.182,26.841,2.947,4.266.353,7.677.589,9.283.236,4.832-1.058,10.976-3.614,12.385-4.925a17.632,17.632,0,0,0,5.325-13.084c0-7.415-12.342-11.125-12.342-11.125s-10.723-1.362-17.162-1.362c-1.253,0-2.794-.113-4.461-.217a28.581,28.581,0,0,0-3.6.2,5.043,5.043,0,0,1-2.146-.068,4.945,4.945,0,0,1-3.821-5.261c.193-2,.349-3.932.349-4.941,0-2.648,3.756-12.713,3.756-16.951s11.806-36.549,11.806-36.549l6.44-18.011s3.922-6.576,15.025-23.836c22.415-34.847,48.14-22.011,49.032-21.484,2.349,1.393,15.295,10.379,28.652,11.111C348.479,294.029,348.637,294.493,345.546,284.807Zm-87.4-20.889a23.487,23.487,0,0,1-9.445,9.267c-10.469,5.12-16.255,6.615-18.474,10.508a100.9,100.9,0,0,0-5.915,13.379c-.494,1.7-.494,2.433-3.45,8.028s-5.669,10.705-5.915,13.137-5.177,25.543-6.162,29.922a63.724,63.724,0,0,1-3.2,9.488s-3.2,7.056-3.7,8.272a90.791,90.791,0,0,0-2.465,11.191c0,1.216-1.116,23.465-17.367,26.256-22.567,3.873-22.9-10.635-23.785-12.9a87.219,87.219,0,0,1-2.962-11.408c-.246-1.46-6.97-13.137-6.97-17.515s-2.958-10.705-2.958-13.38a75.359,75.359,0,0,0-.985-8.514s-.494-8.758-.494-9.488-.985-10.947-1.231-11.921-2.8-16.786-4.277-21.408a46.3,46.3,0,0,0-4.435-9.244s-3.2-9-4.192-11.189-1.725-5.838-4.927-7.786a39.4,39.4,0,0,1-6.5-5.351s-6.1-5.946-2.219-5.6a35.385,35.385,0,0,0,11.829-1.86c.886-.343,6.338-2.127,10.535-3.491a42.06,42.06,0,0,0,9.445-4.43s1.276-.82,1.709-1.079c17.186-10.348,33.048-38.793,37.753-40.026,3.846-1.007,10.206,5.735,13.24,14.83a48.277,48.277,0,0,0,5.8,11.019l2.018,3.071a52.7,52.7,0,0,0,7.907,9.437,28.24,28.24,0,0,0,11.5,6.92c9.626,3.466,20.251,11.527,29.936,11.279A.388.388,0,0,1,258.151,263.917Z" transform="translate(23.215 0)" fill="#d59e00"/>
      <g id="Group_80" data-name="Group 80" transform="translate(0 80.286)">
        <path id="Path_159" data-name="Path 159" d="M193.78,49.555c-37.478,44.836-75.553,90.561-102.39,142.5-3,7.1-5.7,14.206-8.094,21.457-.747,5.179-1.348,10.358-1.947,15.539a2.349,2.349,0,0,1-3.9,1.625L74.9,228.16a2.172,2.172,0,0,1-2.1-.443,3.6,3.6,0,0,1-1.5-2.072,1.135,1.135,0,0,1-1.05-.591c-4.047-5.033-4.5-10.8-3.6-17.018l.9-4.734c-.3-17.461,4.2-34.479,8.844-51.5-24.735,25.6-63.411,62.592-64.908,65.552-1.35,2.371-5.249,2.371-6.449,0-2.246-4.291-2.4-5.475-4.644-9.913a3.748,3.748,0,0,1,1.048-4.588c8.7-18.2,44.073-96.776,44.073-96.776l15.143-35.96c4.047-10.208-9.745,2.219-16.19,6.66-12.592,8.73-16.791,26.341-9.595,39.509a4.817,4.817,0,0,1-2.4,6.66c-.15,1.924-3.146,3.255-4.047,1.034l-.749-1.479a3.488,3.488,0,0,1-1.2-1.333,38.309,38.309,0,0,1-3.3-8.287c-1.8-3.994-3.6-7.841-5.095-11.837-.451-.148-.751-.589-1.05-1.183-7.2-22.05,22.786-36.4,39.125-42.323a3.423,3.423,0,0,1,1.2-.144,3.964,3.964,0,0,1,4.5.886c6.445,1.922,11.093,6.215,12.292,13.17a21.91,21.91,0,0,1-3,14.058c-4.047,11.246-10.2,22.493-14.842,33.294L23.332,196.5c19.789-16.871,39.876-42.026,58.166-63.482,1.35-5.772,2.7-11.693,3.6-17.461a2.154,2.154,0,0,1,.9-1.333,7.114,7.114,0,0,1-.15-1.776,2.4,2.4,0,0,1,2.25-2.221,2.192,2.192,0,0,1,2.248,2.221v.738c.3,0,.451.148.749.148a1.864,1.864,0,0,1,2.847.148l4.5,5.772a5.184,5.184,0,0,1,2.4,5.327c-4.346,17.906-8.543,35.809-12.74,53.715,26.983-48.981,62.963-92.485,98.938-135.547C190.933,38.012,197.678,44.819,193.78,49.555Z" transform="translate(0 -41.144)" fill="#32342d"/>
        <path id="Path_160" data-name="Path 160" d="M160.213,133.436c-2.7,4.882-21.886,33.44-35.378,44.243a2.524,2.524,0,0,1-.9.888c-2.1,1.182-4.346,2.96-6.6,3.7a6.831,6.831,0,0,1-4.2.146,2.907,2.907,0,0,1-2.7-1.034.516.516,0,0,1-.15-.3.983.983,0,0,1-.6-.74c-2.548-3.108-2.7-3.846-5.546-6.658-3.749-3.7-.15-9.915-.3-10.358,1.2-3.257,21.436-46.317,21.287-46.169-4.348.888-37.177,33-41.224,38.621a2.346,2.346,0,0,1-.6,1.034c-3.149,5.624-9.144,15.984-11.993,21.162a1.854,1.854,0,0,1-2.4-.148c-7.5-5.476-9-7.694-5.7-16.573,1.8-4.882,46.021-90.266,54.866-106.394a.965.965,0,0,1,.9,0c5.1.3,17.24-14.571,17.391-10.725a19.279,19.279,0,0,1-1.947,9.324c-2.8,5.089-34.781,67.841-43.625,84.859,16.788-17.757,30.281-25.007,41.074-33.591a2.169,2.169,0,0,1,2.1-.445,2.546,2.546,0,0,1,2.548.89,74.78,74.78,0,0,1,4.648,6.658,5.5,5.5,0,0,1,1.5,3.7,7.735,7.735,0,0,1-.3,5.475c-1.5,3.846-5.1,7.249-7.195,10.8a103.147,103.147,0,0,0-6.746,13.466,230.052,230.052,0,0,1-8.547,24.119,1.125,1.125,0,0,0,.3.742C121.537,172.649,163.363,128.109,160.213,133.436Z" transform="translate(58.573 -38.902)" fill="#32342d"/>
        <path id="Path_161" data-name="Path 161" d="M158.219,127.622a39.345,39.345,0,0,1-9.595,13.172c-6.147,6.067-16.641,14.206-24.585,13.761-.751.74-17.839-5.918-19.338-15.24-1.5-9.767,4.794-21.162,8.7-29.743A211.889,211.889,0,0,1,123.438,89.3c2.4-4.145,4.8-10.951,8.846-13.763,4.5-3.257,9.144,0,13.341,3.109a19.513,19.513,0,0,1,1.651,5.768c.148.593.747,1.481,1.5,1.038a12.557,12.557,0,0,1,4.5-.593,25.3,25.3,0,0,1,3.146.888,11.108,11.108,0,0,1,6.149,6.512c.15.295,1.048,12.135.447,17.018-.3,2.367-2.1,9.915-.447,9.47a150.319,150.319,0,0,0,17.839-6.363c.447.295.447.74-.3,1.481C174.558,120.521,166.764,126.291,158.219,127.622Zm-9.745-.148c-.3,0-1.2-.886-1.5-.886-10.194-3.551-14.842-12.578-14.093-22.64a68.225,68.225,0,0,0-9.294,17.164c-1.649,4.291-5.546,13.909-2.4,17.164a1.166,1.166,0,0,0,.6.593c2.7,3.55,5.844,6.955,10.793,5.327,7.345-2.515,12.143-9.027,16.641-14.945A1.212,1.212,0,0,0,148.474,127.474Zm-4.947-29.889c-3,6.808-4.348,14.651,1.05,20.273,1.2,1.333,3.148,2.812,5.095,2.367,2.548-.593,3-3.551,3.3-5.77,0-.3.6-6.66.9-9.472C154.321,99.064,148.775,85.451,143.528,97.585Z" transform="translate(99.393 -9.711)" fill="#32342d"/>
        <path id="Path_162" data-name="Path 162" d="M181.455,188.462c4.5,3.253,18.14-8.732,20.837-11.841-.3.445-7.5,9.47-14.091,14.356a5.04,5.04,0,0,1-.9.886c-20.238,11.4-22.934-19.088-15.141-31.516.3-1.038,5.1-11.841,11.394-25.6-3.9,4.884-27.284,34.33-27.735,34.627-2.1,1.184-4.348,2.96-6.746,3.7a6.751,6.751,0,0,1-4.2.148c-.9.148-6.3-2.812-5.245-2.367l2.4,1.034-.6-.738c-5.247-6.808-5.247-21.162,3.9-40.253,1.2-3.253,27.136-56.377,26.985-56.23-.751.148,4.5-10.5,6.746-12.43a2.316,2.316,0,0,1,2.1-.445,2.451,2.451,0,0,1,2.548.89c1.5,2.219,3.3,4.293,4.648,6.66a6.486,6.486,0,0,1,1.649,3.7,8.7,8.7,0,0,1-.451,5.476c-1.5,3.846-24.735,47.352-26.833,50.9-33.731,70.733,16.938,5.624,31.481-18.5,10.492-23.233,20.538-45.576,20.538-45.576-.751.148,4.5-10.506,6.746-12.43a2.316,2.316,0,0,1,2.1-.445,2.457,2.457,0,0,1,2.55.89c1.5,2.219,3.3,4.289,4.644,6.658a6.481,6.481,0,0,1,1.651,3.7,8.7,8.7,0,0,1-.451,5.476c-1.5,3.846-27.735,56.673-29.832,60.225C181.605,166.709,177.108,185.206,181.455,188.462Z" transform="translate(131.174 -30.447)" fill="#32342d"/>
        <path id="Path_163" data-name="Path 163" d="M252.059,85.788a4.34,4.34,0,0,1,.15,3.4c-5.548,14.5-14.241,38.475-20.538,52.683-5.1,11.689-10.042,24.119-18.737,33.589-4.047,7.546-11.993,18.2-19.64,15.685-13.79-4.291-17.837-19.236-22.634-30.779a2.335,2.335,0,0,1,2.849-2.96l2.847.888a52.34,52.34,0,0,1,6.145,9.915c1.2,2.515,2.248,6.66,4.648,8.287,4.646,3.257,7.645-4.291,9.144-7.694a278.861,278.861,0,0,0,27.735-52.384c-5.7,5.918-12.444,12.282-20.538,19.533a1.223,1.223,0,0,1-.751.74,42.552,42.552,0,0,1-6.6,3.848,6.286,6.286,0,0,1-4.348,0,2.552,2.552,0,0,1-2.548-.89c0-.148-.15-.148-.3-.295l-.6-.74c-2.4-3.257-2.548-3.848-5.4-6.658-3.747-3.7-.15-10.065-.3-10.358,1.2-3.257,12.444-34.184,12.294-34.036-.749.148,4.348-10.654,6.746-12.43a2.171,2.171,0,0,1,2.1-.445,2.548,2.548,0,0,1,2.548.89,74.74,74.74,0,0,1,4.644,6.658,5.487,5.487,0,0,1,1.5,3.7,8.625,8.625,0,0,1-.3,5.475c-1.5,3.846-4.947,7.249-7.195,10.8a102.9,102.9,0,0,0-6.746,13.466c-2.4,8.139-4.047,10.358.449,11.985,0,.3,0,.888.15.742,21.438-11.248,30.131-29.3,35.528-39.806,2.4-5.327,4.8-9.768,6.6-10.8,3.9-2.219,6.6,4.588,9.893,6.065A2.308,2.308,0,0,1,252.059,85.788Z" transform="translate(162.209 -9.308)" fill="#32342d"/>
        <path id="Path_164" data-name="Path 164" d="M165.737,268.3,145.8,280.736a3.555,3.555,0,0,1-2.7.441,2.958,2.958,0,0,1-2.548-.738.547.547,0,0,1-.447-.148c-37.929-9.175-57.715-45.576-72.555-78.724-7.5,18.94-15.293,37.882-23.088,56.673-1.05,2.223-3.148,3.405-5.548,2.223-8.244-4.145-6.6-12.136-4.945-19.387,2.847-14.945,18.887-50.755,20.536-53.418h.3a7.815,7.815,0,0,1,.749-1.627c0-.148.15-.3.15-.445l4.047-9.025c2.548-8.436,8.245-20.569,11.845-30.632a3.214,3.214,0,0,1,0-2.367c1.048-3.4,3-13.911,6.9-19.238v-.146h.146c2.25-2.96,5.1-4.291,8.7-1.333,10.344,7.993,3.448,21.012-.3,30.188-.15,0-.15,0-.15.148l-3,6.955c-1.949,5.179-7.2,18.054-9.146,23.233,6.746-10.36,11.394-11.248,15.441-12.727,9.144-3.551,17.99-7.249,26.983-11.248a554.245,554.245,0,0,0,50.969-26.634,3.726,3.726,0,0,1,5.1,1.331l.3.593c-2.548,7.694-5.7,14.8-12.143,20.124-33.856,13.576-54.23,22.757-84.548,37.882,6.3.3,9.595,1.185,12.143,8.879,3.6,11.246,26.535,51.494,38.526,55.787,12.294,4.291,14.241,7.548,26.983,9.025h.3l7.2-4.437C166.037,259.428,169.784,265.789,165.737,268.3Z" transform="translate(31.032 35.002)" fill="#32342d"/>
        <path id="Path_165" data-name="Path 165" d="M182.152,172.443c-3.6,6.215-34.627,52.679-45.57,47.943a2.64,2.64,0,0,1-2.1-1.034c-3.9-5.476-8.244-7.4-6.894-14.651,1.05-6.363,3.749-12.43,6.746-18.2a186.241,186.241,0,0,0-25.785,23.826,2.074,2.074,0,0,1-1.348.74,2.434,2.434,0,0,1-1.35.445c-2.7.148-5.4-2.664-7.044-4.441-2.849-2.812-7.5-8.137-6.147-13.464,2.7-9.027,7.046-17.164,11.542-25.748,2.849-5.624,5.848-12.134,9.745-17.609a46.923,46.923,0,0,1,29.083-7.1l.3.295,2.1.445.749.443a35.385,35.385,0,0,1,6.445,7.7c1.2,2.515,2.1,5.031,3.45,7.249-5.249-1.627-12.893-10.654-18.44-8.432-.3,0-.451,0-.6.144-2.847,1.333-3.9,4.738-5.095,7.7l-.9,1.479a235.712,235.712,0,0,0-17.24,33.442l-1.5,3.994c3.149-2.664,7.046-6.361,8.7-7.694,3.148-2.515,10.643-9.322,16.94-15.094a22.564,22.564,0,0,1,2.4-3.7h.15l1.649-3.257a10.733,10.733,0,0,1,3-3.848c2.548-1.776,5.245-.591,7.643,1.036l1.5,1.183c.15.3.3.3.3.445a1.833,1.833,0,0,1,.747,1.922,5.134,5.134,0,0,1-.451,2.96,192.5,192.5,0,0,0-11.54,29.6c-.451,1.924-2.4,5.918-1.2,7.989C143.478,211.51,185.3,166.968,182.152,172.443Z" transform="translate(87.922 55.692)" fill="#32342d"/>
        <path id="Path_166" data-name="Path 166" d="M196.419,221.414c0,.3-.3.593-.6.886-1.8,1.185-3.448,2.96-5.7,3.7a6.7,6.7,0,0,1-4.2.146,3.592,3.592,0,0,1-2.849-1.036l-.3-.3a1.769,1.769,0,0,1-.747-.738c-3.45-3.108-3.6-3.848-7.347-6.66-4.648-3.7-2.849-9.915-3-10.358l2.548-14.5c-4.646,8.288-10.793,17.757-18.438,28.857a1.063,1.063,0,0,1-.6.886c-1.651,1.185-3.448,2.96-5.548,3.7a6.752,6.752,0,0,1-4.2.146,3.3,3.3,0,0,1-2.849-1.036.319.319,0,0,1-.3-.3c-.451-.146-.6-.441-.9-.738-3.3-3.108-3.6-3.848-7.345-6.66-4.648-3.7-2.847-9.915-3-10.358.3-3.255,8.992-46.315,8.7-46.167-.751.148,1.647-10.654,3.446-12.432a1.835,1.835,0,0,1,1.949-.443,2.8,2.8,0,0,1,2.7.888,90.762,90.762,0,0,1,6.445,6.66,7.256,7.256,0,0,1,2.7,3.7,10.124,10.124,0,0,1,1.2,5.475c-.6,3.846-3.148,7.249-4.348,10.8a76.662,76.662,0,0,0-3.146,13.464,212.659,212.659,0,0,1-1.949,24.121c0,.3.3,1.034.449.741,40.776-47.059,26.983-62.6,33.128-62.6a8.261,8.261,0,0,1,1.35-2.812,2.175,2.175,0,0,1,2.1-.443,3.009,3.009,0,0,1,2.7.888,90.4,90.4,0,0,1,6.445,6.66,8.2,8.2,0,0,1,2.7,3.7,8.816,8.816,0,0,1,1.052,5.475c-.451,3.846-3,7.249-4.2,10.8a65.386,65.386,0,0,0-3.15,13.464,182.219,182.219,0,0,1-2.1,24.121c.15.3.3,1.034.6.741,40.776-47.059,52.917-76.06,59.214-76.06C259.98,137.808,231.947,169.769,196.419,221.414Z" transform="translate(124.474 50.819)" fill="#32342d"/>
      </g>
    </g>
    <text id="_" data-name="®" transform="translate(573 576.764)" fill="#232d29" font-size="40" font-family="Montserrat-SemiBold, Montserrat" font-weight="600"><tspan x="0" y="0">®</tspan></text>
  </g>
</svg>
