<svg xmlns="http://www.w3.org/2000/svg" width="84.28" height="24.099" viewBox="0 0 84.28 24.099">
  <path id="paypal" d="M1498.643,4468.583a3.813,3.813,0,0,0-1.382-1.521,6.39,6.39,0,0,0-2.2-.826,17.619,17.619,0,0,0-2.984-.24l-5.282,0a1.327,1.327,0,0,0-1.216.985l-3.553,15.823a.759.759,0,0,0,.764.981h2.53a1.3,1.3,0,0,0,1.212-.981l.869-3.843a1.3,1.3,0,0,1,1.211-.98h.725c3.093,0,5.487-.65,7.209-1.943a6.1,6.1,0,0,0,2.582-5.128A4.915,4.915,0,0,0,1498.643,4468.583Zm-5.454,5.171a5.246,5.246,0,0,1-3.2.858h-.619a.767.767,0,0,1-.768-.986l.761-3.359a1.285,1.285,0,0,1,1.2-.982l.83-.006a3.965,3.965,0,0,1,2.2.5,1.718,1.718,0,0,1,.731,1.54A2.829,2.829,0,0,1,1493.188,4473.754Zm34.767-2.068-10.075,17.424a2.113,2.113,0,0,1-1.586.98l-2.62,0c-.543,0-.721-.441-.39-.984l2.239-3.988s.18-.232.021-1.532c-.344-2.354-2.066-12.364-2.066-12.364a.759.759,0,0,1,.757-.984l2.268,0a1.4,1.4,0,0,1,1.377,1.013l1.126,6.944.421,0c.351-.638,3.974-6.99,3.974-6.99a2.184,2.184,0,0,1,1.59-.988s2.435.009,3.033,0C1528.925,4470.2,1527.955,4471.686,1527.955,4471.686Zm16.613-3.044a3.947,3.947,0,0,0-1.391-1.528,6.156,6.156,0,0,0-2.2-.826,16.868,16.868,0,0,0-2.974-.236l-5.29,0a1.322,1.322,0,0,0-1.209.982l-3.555,15.828a.761.761,0,0,0,.762.981l2.532,0a1.323,1.323,0,0,0,1.217-.982l.856-3.842a1.317,1.317,0,0,1,1.215-.98h.725a11.84,11.84,0,0,0,7.224-1.942,6.161,6.161,0,0,0,2.574-5.134A5.091,5.091,0,0,0,1544.568,4468.642Zm-5.454,5.176a5.285,5.285,0,0,1-3.188.85h-.631a.77.77,0,0,1-.773-.985l.765-3.353a1.292,1.292,0,0,1,1.207-.983l.82,0a4.027,4.027,0,0,1,2.2.5,1.737,1.737,0,0,1,.735,1.541A2.854,2.854,0,0,1,1539.114,4473.818Zm-28.277-2.973a9.42,9.42,0,0,0-4.521-.824,19.55,19.55,0,0,0-3.059.243c-.757.118-.831.142-1.3.245a1.507,1.507,0,0,0-1.111,1.194l-.31,1.3c-.175.83.293.8.488.728a13.115,13.115,0,0,1,1.512-.455,10.655,10.655,0,0,1,2.37-.324,6.107,6.107,0,0,1,2.3.332,1.188,1.188,0,0,1,.763,1.176l-.045.365-.365.229c-1.434.092-2.472.229-3.73.414a11.376,11.376,0,0,0-3.207.9,4.98,4.98,0,0,0-2.177,1.756,4.85,4.85,0,0,0-.724,2.7,3.236,3.236,0,0,0,1.03,2.456,3.809,3.809,0,0,0,2.664.929,7.291,7.291,0,0,0,1.589-.149l1.226-.433,1.036-.588.955-.643.012.018-.095.418-.006.016v0a.765.765,0,0,0,.677.968l.01.011h2.347l.034-.017a1.317,1.317,0,0,0,1.088-.965l1.845-8.161.095-.663.045-.623A2.745,2.745,0,0,0,1510.837,4470.845Zm-4.078,9.176-.394.529-.994.525a3.454,3.454,0,0,1-1.322.294,2.962,2.962,0,0,1-1.442-.284l-.488-.967a1.973,1.973,0,0,1,.371-1.263l1.071-.745a9.07,9.07,0,0,1,1.668-.384c.578-.074,1.72-.207,1.87-.21l.176.313C1507.239,4478.007,1506.915,4479.394,1506.759,4480.021Zm50.013-9.164a9.427,9.427,0,0,0-4.516-.826,18.917,18.917,0,0,0-3.059.248c-.758.114-.834.138-1.3.237a1.507,1.507,0,0,0-1.111,1.2l-.31,1.3c-.173.83.285.793.5.729a14.578,14.578,0,0,1,1.5-.457,11.208,11.208,0,0,1,2.376-.326,6.1,6.1,0,0,1,2.293.334,1.188,1.188,0,0,1,.763,1.174l-.036.364-.362.236c-1.451.087-2.491.224-3.737.41a11.393,11.393,0,0,0-3.207.9,5,5,0,0,0-2.178,1.761,4.816,4.816,0,0,0-.724,2.691,3.2,3.2,0,0,0,1.034,2.46,3.819,3.819,0,0,0,2.661.936,6.7,6.7,0,0,0,1.586-.154l1.22-.423,1.045-.587.947-.653.019.02-.087.421-.011,0,.006.009a.754.754,0,0,0,.672.968l0,.012h2.348l.039-.018a1.3,1.3,0,0,0,1.075-.972l1.849-8.148.1-.67.052-.626A2.73,2.73,0,0,0,1556.772,4470.857Zm-4.069,9.176-.409.534-.988.524a3.536,3.536,0,0,1-1.317.289,2.866,2.866,0,0,1-1.438-.283l-.494-.964a2.041,2.041,0,0,1,.362-1.265,2.567,2.567,0,0,1,1.083-.745,9.28,9.28,0,0,1,1.663-.381c.576-.074,1.715-.213,1.863-.214l.178.314C1553.183,4478.022,1552.854,4479.4,1552.7,4480.033Zm13.553-12.867h.008l-3.385,15.689-.124.189a1.283,1.283,0,0,1-1.088.8h-2.352l-.038-.056a.732.732,0,0,1-.636-.921l0-.012.1-.451,3.166-14.714.115-.512.124-.2a1.289,1.289,0,0,1,1.089-.785h2.266A.75.75,0,0,1,1566.256,4467.166Z" transform="translate(-1482 -4465.996)" fill="#232d29"/>
</svg>
