<svg xmlns="http://www.w3.org/2000/svg" width="19.032" height="18.948" viewBox="0 0 19.032 18.948">
  <g id="attract-customers" transform="translate(0.25 -0.25)">
    <path id="Path_193" data-name="Path 193" d="M280.5,4.875a1.863,1.863,0,0,0-1.577-2.838,1.832,1.832,0,0,0-.756.163,2.134,2.134,0,1,0-3.8,1.717A2.31,2.31,0,0,0,273,6.012V8.3a.543.543,0,0,0,.543.543h7.564a.543.543,0,0,0,.543-.543c0-2.476-.473-3.113-1.159-3.422Zm-4.42-3.289a1.058,1.058,0,1,1-1.047,1.058,1.054,1.054,0,0,1,1.047-1.058ZM274.09,6.012a1.24,1.24,0,0,1,1.253-1.223h1.466a1.28,1.28,0,0,1,.5.1,1.868,1.868,0,0,0-1.127,1.665v1.2H274.09Z" transform="translate(-263.122)" fill="none" stroke="#32342d" stroke-width="0.5"/>
    <path id="Path_194" data-name="Path 194" d="M10.594,173.4a.543.543,0,0,0-.771,0l-4.346,4.377a1.3,1.3,0,0,1-1.849,0,1.333,1.333,0,0,1,0-1.873l4.336-4.366a.543.543,0,0,0,0-.765l-1.527-1.538a.543.543,0,0,0-.771,0L1.331,173.6a4.609,4.609,0,0,0,0,6.479,4.539,4.539,0,0,0,6.444,0L12.12,175.7a.543.543,0,0,0,0-.765Zm-4.542-3.012.762.767-.958.965-.762-.767ZM10,176.292l-.762-.767.969-.976.762.767Zm0,0" transform="translate(0 -162.469)" fill="none" stroke="#32342d" stroke-width="0.5"/>
    <path id="Path_195" data-name="Path 195" d="M196.547,82.186a.542.542,0,0,0,.728-.243l.534-1.07a.543.543,0,1,0-.972-.485l-.534,1.07A.543.543,0,0,0,196.547,82.186Zm0,0" transform="translate(-189.142 -76.706)" fill="none" stroke="#32342d" stroke-width="0.5"/>
    <path id="Path_196" data-name="Path 196" d="M368.513,268.856l-1.077.508a.543.543,0,1,0,.464.982l1.077-.508a.543.543,0,1,0-.463-.982Zm0,0" transform="translate(-353.836 -258.593)" fill="none" stroke="#32342d" stroke-width="0.5"/>
  </g>
</svg>
