<svg xmlns="http://www.w3.org/2000/svg" width="18.756" height="17.853" viewBox="0 0 18.756 17.853">
  <g id="buffalo" transform="translate(0.25 -0.073)">
    <path id="Path_198" data-name="Path 198" d="M87.857,107.008H77.816a.456.456,0,0,0-.443.346,9.519,9.519,0,0,0,.643,7.038c.1.19.2.381.3.579a7.357,7.357,0,0,1,.563,1.806c.334,1.548.65,3.01,3.953,3.01s3.619-1.462,3.953-3.01a7.344,7.344,0,0,1,.563-1.806c.1-.2.2-.39.3-.579a9.519,9.519,0,0,0,.643-7.038.456.456,0,0,0-.443-.346Zm-7.925,4.274a.993.993,0,0,1,0-1.4.455.455,0,0,1,.323-.134h0a.457.457,0,0,1,.323.134l.756.756a.456.456,0,0,1,0,.646.994.994,0,0,1-1.4,0Zm2.2,5.718a.457.457,0,0,1-.612-.2l-.456-.913a.456.456,0,1,1,.816-.408l.456.913A.456.456,0,0,1,82.128,117Zm2.486-1.117-.456.913a.456.456,0,1,1-.816-.408l.456-.913a.456.456,0,1,1,.816.408Zm1.128-4.6a.994.994,0,0,1-1.4,0,.456.456,0,0,1,0-.646l.756-.756a.457.457,0,0,1,.323-.134h0a.455.455,0,0,1,.323.134A.993.993,0,0,1,85.742,111.281Zm0,0" transform="translate(-73.709 -102.111)" fill="none" stroke="#32342d" stroke-width="0.5"/>
    <path id="Path_199" data-name="Path 199" d="M361.895,110.813a9.989,9.989,0,0,1,.3,3.941,3.254,3.254,0,0,0,1.976.46.456.456,0,0,0,.456-.456C364.627,112.886,364.19,111.792,361.895,110.813Zm0,0" transform="translate(-346.411 -105.753)" fill="none" stroke="#32342d" stroke-width="0.5"/>
    <path id="Path_200" data-name="Path 200" d="M17.974.368a.454.454,0,0,0-.5.1,2.922,2.922,0,0,1-2.416.779H12.323c-1.441,0-2.593.022-3.195.976-.6-.954-1.754-.976-3.195-.976H3.195A2.923,2.923,0,0,1,.779.467.456.456,0,0,0,0,.79V1.7C0,2.8,1,3.985,3.195,3.985H15.061c2.2,0,3.195-1.183,3.195-2.282V.79a.456.456,0,0,0-.282-.422Zm0,0" fill="none" stroke="#32342d" stroke-width="0.5"/>
    <path id="Path_201" data-name="Path 201" d="M.918,114.762a.456.456,0,0,0,.456.456,3.254,3.254,0,0,0,1.976-.46,9.983,9.983,0,0,1,.3-3.941c-2.3.979-2.732,2.073-2.732,3.945Zm0,0" transform="translate(-0.879 -105.756)" fill="none" stroke="#32342d" stroke-width="0.5"/>
  </g>
</svg>
