<svg xmlns="http://www.w3.org/2000/svg" width="15.802" height="18.506" viewBox="0 0 15.802 18.506">
  <g id="cow-face-front" transform="translate(-41.307 0.877)">
    <g id="Group_208" data-name="Group 208" transform="translate(41.558)">
      <path id="Path_197" data-name="Path 197" d="M56.85,4.635h-2.5a5.861,5.861,0,0,0,.413-1.155,8.105,8.105,0,0,0,.233-2.093L54.935,0l-.688,1.206a5.771,5.771,0,0,1-1.3,1.578,5.127,5.127,0,0,1-1.341.812,5.008,5.008,0,0,1-.824.259H47.629a5.285,5.285,0,0,1-3.463-2.649L43.479,0l-.06,1.387a8.116,8.116,0,0,0,.233,2.093,5.864,5.864,0,0,0,.413,1.155h-2.5l-.008.392a3.26,3.26,0,0,0,.868,2.16,3.369,3.369,0,0,0,2.22.954,5.336,5.336,0,0,0,.537,2.691c.655,1.105.817,4.389.824,5.562v.1l.048.088a1.211,1.211,0,0,0,.681.476,7.4,7.4,0,0,0,2.471.319,7.4,7.4,0,0,0,2.471-.319,1.211,1.211,0,0,0,.681-.476l.048-.088v-.1c.007-1.172.169-4.455.824-5.561a5.334,5.334,0,0,0,.537-2.691,3.369,3.369,0,0,0,2.22-.954,3.26,3.26,0,0,0,.868-2.16Zm-11.869,0a5.12,5.12,0,0,1-.654-1.84,6.184,6.184,0,0,0,.645.62,5.94,5.94,0,0,0,1.089.718,3.816,3.816,0,0,0-.754.5h-.326Zm.884,5.246a.712.712,0,0,1-.19-.976.637.637,0,1,1,.19.976Zm5.745,6.329a2.263,2.263,0,0,1-.71.235,1.883,1.883,0,0,0-1.676-.744h-.018a1.881,1.881,0,0,0-1.678.747,2.293,2.293,0,0,1-.725-.238c0-.163-.01-.428-.024-.759.58-.508,4.272-.532,4.855-.015C51.621,15.775,51.614,16.045,51.611,16.21Zm.957-6.329a.712.712,0,0,1-.912-.4.638.638,0,1,1,1.1-.579A.712.712,0,0,1,52.568,9.881Zm.864-5.246h-.324a3.834,3.834,0,0,0-.755-.5,5.936,5.936,0,0,0,1.088-.718,6.16,6.16,0,0,0,.645-.62A5.117,5.117,0,0,1,53.432,4.635Z" transform="translate(-41.558)" fill="none" stroke="#32342d" stroke-width="0.5"/>
    </g>
  </g>
</svg>
