<svg xmlns="http://www.w3.org/2000/svg" width="14.378" height="18.474" viewBox="0 0 14.378 18.474">
  <g id="donkey" transform="translate(-58.437 0.25)">
    <path id="Path_187" data-name="Path 187" d="M232.939,91.04a.523.523,0,0,0-.416.21,1.913,1.913,0,0,0,.088,2.39,5.9,5.9,0,0,1,.775-1.786.526.526,0,0,0-.434-.814h-.013Z" transform="translate(-167.358 -87.844)" fill="none" stroke="#32342d" stroke-width="0.5"/>
    <path id="Path_188" data-name="Path 188" d="M171.081,468.43a3.185,3.185,0,0,0,3.05-1.585,9.007,9.007,0,0,1-6.1,0A3.185,3.185,0,0,0,171.081,468.43Z" transform="translate(-105.493 -450.456)" fill="none" stroke="#32342d" stroke-width="0.5"/>
    <path id="Path_189" data-name="Path 189" d="M318.357,4.247A5.377,5.377,0,0,0,319.535.486L319.5.015,319.026,0a5.406,5.406,0,0,0-3.721,1.341,3.8,3.8,0,0,0-.627.926A4.734,4.734,0,0,1,317.817,4.7,3.645,3.645,0,0,0,318.357,4.247Z" transform="translate(-246.993 -0.001)" fill="none" stroke="#32342d" stroke-width="0.5"/>
    <path id="Path_190" data-name="Path 190" d="M59.888,4.246a3.609,3.609,0,0,0,.479.414,4.7,4.7,0,0,1,3.193-2.406,3.788,3.788,0,0,0-.621-.913A5.4,5.4,0,0,0,59.219,0l-.472.014-.038.471A5.378,5.378,0,0,0,59.888,4.246Z" transform="translate(0 0)" fill="none" stroke="#32342d" stroke-width="0.5"/>
    <path id="Path_191" data-name="Path 191" d="M129.387,97.078V95.919a3.679,3.679,0,0,0-3.243-3.641,1.559,1.559,0,0,1,.083.482,1.575,1.575,0,0,1-.259.867,5.244,5.244,0,0,0-.774,2.179l-.17,1.235-1.367-1.367a2.972,2.972,0,0,1-.562-3.39,3.663,3.663,0,0,0-3.188,3.635v1.159a7.957,7.957,0,0,0,1.134,4.067,3.82,3.82,0,0,1,7.211,0A7.956,7.956,0,0,0,129.387,97.078Zm-6.846-.632h-1.053V95.393h1.053Zm5.266,0h-1.053V95.393h1.053Z" transform="translate(-59.06 -89.038)" fill="none" stroke="#32342d" stroke-width="0.5"/>
    <path id="Path_192" data-name="Path 192" d="M168.069,302c-1.744,0-3.16,2.23-3.16,3.686,0,1.321,1.159,1.58,3.16,1.58s3.16-.259,3.16-1.58C171.228,304.231,169.813,302,168.069,302Zm-.527,3.16h-1.053v-1.053h1.053Zm2.106,0H168.6v-1.053h1.053Z" transform="translate(-102.481 -291.399)" fill="none" stroke="#32342d" stroke-width="0.5"/>
  </g>
</svg>
