<svg xmlns="http://www.w3.org/2000/svg" width="16.589" height="16.821" viewBox="0 0 16.589 16.821">
  <g id="herbal-spa-treatment-leaves" transform="translate(-6.357 0.257)">
    <path id="Path_179" data-name="Path 179" d="M7.569,3.567a6.133,6.133,0,0,0,3,3.332,3.211,3.211,0,0,0,.528.158A5.452,5.452,0,0,1,12.4,5.68a6.545,6.545,0,0,1,1.348-.76,3.8,3.8,0,0,0-.42-.255c-.583-.3-1.214-.573-1.829-.861.578.157,1.241.215,1.794.416a4.172,4.172,0,0,1,.96.51,13.3,13.3,0,0,1,2.732-.556,7.467,7.467,0,0,0-3.547-2.692A16.542,16.542,0,0,0,9.357.807,6.948,6.948,0,0,1,6.888.026a.186.186,0,0,0-.267.228A34.287,34.287,0,0,0,7.569,3.567Z" transform="translate(0 0)" fill="none" stroke="#32342d" stroke-width="0.5"/>
    <path id="Path_180" data-name="Path 180" d="M207.388,202.446a13.816,13.816,0,0,1-5.154,1.164,14.488,14.488,0,0,0-2.535.47c-.177.053-.353.113-.526.18a6.2,6.2,0,0,0-1.479.8,5.015,5.015,0,0,0-1.1,1.128,8.639,8.639,0,0,0-1.1,2.252A12.844,12.844,0,0,0,194.8,213a8.764,8.764,0,0,0,.183,1.889.848.848,0,0,0,.173.406.2.2,0,0,0,.327-.195,6.512,6.512,0,0,1,.4-4.221,5.344,5.344,0,0,1,3.332-2.905c.395-.143.8-.268,1.208-.386a.065.065,0,0,1,.025,0,.083.083,0,0,1,.032.158c-.483.218-.963.438-1.419.676-2.236,1.166-3.212,3.881-2.374,3.881a.635.635,0,0,0,.24-.057,21.5,21.5,0,0,1,4.25-.8,7.06,7.06,0,0,0,1.443-.406,7.393,7.393,0,0,0,3.88-4.015,44.377,44.377,0,0,0,1.233-4.275.242.242,0,0,0-.222-.328A.229.229,0,0,0,207.388,202.446Z" transform="translate(-185.051 -199.042)" fill="none" stroke="#32342d" stroke-width="0.5"/>
  </g>
</svg>
