<svg xmlns="http://www.w3.org/2000/svg" width="12.673" height="18.343" viewBox="0 0 12.673 18.343">
  <g id="perfume" transform="translate(-94.291 -33.766)">
    <path id="Path_181" data-name="Path 181" d="M197.353,66.56h.837V66h-.837a.28.28,0,1,0,0,.56Z" transform="translate(-98.431 -30.663)" fill="none" stroke="#32342d" stroke-width="0.5"/>
    <path id="Path_182" data-name="Path 182" d="M211,126h3.6v1.68H211Z" transform="translate(-111.801 -88.263)" fill="none" stroke="#32342d" stroke-width="0.5"/>
    <path id="Path_183" data-name="Path 183" d="M301.481,54.01a.938.938,0,0,0,1.229.042.838.838,0,0,0,.006-1.186c-.425-.429-1.051-.085-1.233.031l-.009.006-.933.544.928.556Z" transform="translate(-197.759 -17.854)" fill="none" stroke="#32342d" stroke-width="0.5"/>
    <path id="Path_184" data-name="Path 184" d="M106.309,264.851c-2.352-.958-4.055-.3-5.857.4a10.742,10.742,0,0,1-4,.967,7.272,7.272,0,0,1-1.814-.235,6.013,6.013,0,0,0,3.225,6.4H103.4A6.016,6.016,0,0,0,106.309,264.851Z" transform="translate(-0.013 -220.526)" fill="none" stroke="#32342d" stroke-width="0.5"/>
    <path id="Path_185" data-name="Path 185" d="M105.392,185.279c1.7-.622,3.46-1.263,5.762-.554a5.687,5.687,0,0,0-.476-.7A5.956,5.956,0,0,0,107.688,182h-3.842a5.954,5.954,0,0,0-2.991,2.024,5.5,5.5,0,0,0-.992,1.923,8.834,8.834,0,0,0,5.529-.668Z" transform="translate(-5.101 -141.685)" fill="none" stroke="#32342d" stroke-width="0.5"/>
    <path id="Path_186" data-name="Path 186" d="M232,33h1.92v3.16H232Z" transform="translate(-131.961 1.017)" fill="none" stroke="#32342d" stroke-width="0.5"/>
  </g>
</svg>
