<svg xmlns="http://www.w3.org/2000/svg" width="11.032" height="19.811" viewBox="0 0 11.032 19.811">
  <g id="scotch" transform="translate(-116.311 0.25)">
    <g id="Group_211" data-name="Group 211" transform="translate(116.642)">
      <g id="Group_210" data-name="Group 210" transform="translate(0)">
        <path id="Path_202" data-name="Path 202" d="M127.435,5.658a5.014,5.014,0,0,0-1.634-.941V3.47h.44V0h-5.073V3.47h.44V4.717a5.013,5.013,0,0,0-1.634.941,4.408,4.408,0,0,0-1.455,2.651h10.37A4.408,4.408,0,0,0,127.435,5.658Z" transform="translate(-118.519)" fill="none" stroke="#32342d" stroke-width="0.5"/>
      </g>
    </g>
    <g id="Group_213" data-name="Group 213" transform="translate(116.568 9.441)">
      <g id="Group_212" data-name="Group 212">
        <path id="Path_203" data-name="Path 203" d="M116.568,250.31a7.336,7.336,0,0,0,.08.877c.174,1.159.363,2.364.545,3.5h9.268c.183-1.14.371-2.345.545-3.5a7.34,7.34,0,0,0,.08-.877Z" transform="translate(-116.568 -250.31)" fill="none" stroke="#32342d" stroke-width="0.5"/>
      </g>
    </g>
    <g id="Group_215" data-name="Group 215" transform="translate(117.375 14.953)">
      <g id="Group_214" data-name="Group 214" transform="translate(0)">
        <path id="Path_204" data-name="Path 204" d="M137.977,396.464c.272,1.678.513,3.11.645,3.886l.08.471h7.453l.08-.471c.132-.776.373-2.209.645-3.886Z" transform="translate(-137.977 -396.464)" fill="none" stroke="#32342d" stroke-width="0.5"/>
      </g>
    </g>
  </g>
</svg>
