<svg xmlns="http://www.w3.org/2000/svg" width="15.023" height="14.393" viewBox="0 0 15.023 14.393">
  <path id="star" d="M14.7,7.57a1.077,1.077,0,0,0-.6-1.838L10.462,5.2a.475.475,0,0,1-.358-.26l-1.626-3.3a1.077,1.077,0,0,0-1.932,0l-1.627,3.3a.476.476,0,0,1-.358.26L.923,5.732a1.077,1.077,0,0,0-.6,1.838l2.632,2.565a.476.476,0,0,1,.137.421l-.621,3.623a1.055,1.055,0,0,0,.235.874,1.089,1.089,0,0,0,1.328.262L7.29,13.6a.487.487,0,0,1,.443,0l3.253,1.71a1.066,1.066,0,0,0,.5.125,1.08,1.08,0,0,0,.827-.387,1.054,1.054,0,0,0,.235-.874l-.621-3.623a.476.476,0,0,1,.137-.421Z" transform="translate(0.001 -1.047)" fill="#ca850c"/>
</svg>
