<svg xmlns="http://www.w3.org/2000/svg" width="17.744" height="17" viewBox="0 0 17.744 17">
  <path id="star" d="M17.359,8.751a1.273,1.273,0,0,0-.706-2.171l-4.3-.624a.561.561,0,0,1-.423-.307L10.013,1.756a1.273,1.273,0,0,0-2.282,0L5.81,5.649a.562.562,0,0,1-.423.307l-4.3.624A1.273,1.273,0,0,0,.384,8.751l3.109,3.03a.563.563,0,0,1,.162.5l-.733,4.279A1.246,1.246,0,0,0,3.2,17.589a1.286,1.286,0,0,0,1.569.309l3.842-2.02a.575.575,0,0,1,.523,0l3.843,2.02a1.259,1.259,0,0,0,.592.148,1.276,1.276,0,0,0,.976-.458,1.245,1.245,0,0,0,.277-1.032l-.734-4.279a.562.562,0,0,1,.162-.5Z" transform="translate(0.001 -1.047)" fill="#32342d"/>
</svg>
