<svg id="telegram" xmlns="http://www.w3.org/2000/svg" width="26.069" height="26.435" viewBox="0 0 26.069 26.435">
  <ellipse id="Ellipse_1" data-name="Ellipse 1" cx="13.034" cy="13.217" rx="13.034" ry="13.217" fill="#32342d"/>
  <path id="Path_171" data-name="Path 171" d="M1.738,13.217A13.142,13.142,0,0,1,13.9.03C13.616.011,13.327,0,13.034,0A13.127,13.127,0,0,0,0,13.217,13.127,13.127,0,0,0,13.034,26.435c.292,0,.582-.011.869-.03A13.142,13.142,0,0,1,1.738,13.217Z" fill="#232d29"/>
  <path id="Path_172" data-name="Path 172" d="M103.837,107.654a.429.429,0,0,0-.428-.035L89.4,114.231a.7.7,0,0,0,.015,1.266l12.913,5.7a.691.691,0,0,0,.967-.591l.729-12.564A.443.443,0,0,0,103.837,107.654Z" transform="translate(-84.476 -102.024)" fill="#232d29"/>
  <path id="Path_173" data-name="Path 173" d="M171.631,117.983l.873,5.916,9.694-15.467Z" transform="translate(-162.892 -102.834)" fill="#e4e6e6"/>
  <path id="Path_174" data-name="Path 174" d="M103.409,107.623,89.4,114.235a.7.7,0,0,0,.015,1.266l3.8,1.677,10.567-9.551A.429.429,0,0,0,103.409,107.623Z" transform="translate(-84.475 -102.027)" fill="#fff"/>
  <path id="Path_175" data-name="Path 175" d="M189.925,118.878l-1.153,5.021,9.694-15.467Z" transform="translate(-179.161 -102.834)" fill="#fff"/>
  <path id="Path_176" data-name="Path 176" d="M220.015,108.464a.427.427,0,0,0-.056-.032l-8.541,10.446,7.091,3.132a.691.691,0,0,0,.967-.591l.729-12.564A.443.443,0,0,0,220.015,108.464Z" transform="translate(-200.653 -102.834)" fill="#fff"/>
</svg>
