<svg xmlns="http://www.w3.org/2000/svg" width="23.264" height="21.997" viewBox="0 0 23.264 21.997">
  <g id="Group_13" data-name="Group 13" transform="translate(0 0)">
    <path id="Path_12" data-name="Path 12" d="M1650.388,63.342a.745.745,0,0,0-.6-.308H1632.99a.756.756,0,0,0-.1.006l-.691-2a.752.752,0,0,0-.432-.453l-3.483-1.375a.75.75,0,0,0-.547,1.4l3.164,1.249,3.873,11.215a.62.62,0,0,0-.382.376l-1.119,3.125a.625.625,0,0,0,.585.836h.574a2.239,2.239,0,1,0,3.33,0h4.882a2.24,2.24,0,1,0,3.329,0h.7a.625.625,0,0,0,0-1.25h-11.928l.693-1.936a.732.732,0,0,0,.288.061h10.948a.746.746,0,0,0,.711-.521l3.111-9.749A.75.75,0,0,0,1650.388,63.342ZM1636.1,79.907a1,1,0,1,1,1-1A1,1,0,0,1,1636.1,79.907Zm8.211,0a1,1,0,1,1,.995-1A1,1,0,0,1,1644.311,79.907Zm3.913-13.686h-3.809V64.534h4.347Zm-1.1,3.437h-2.712V67.721h3.331Zm-7.648,0V67.721h3.442v1.937Zm3.442,1.5v1.624h-3.442V71.158Zm-8.411-3.437h3.477v1.937h-2.808Zm4.969-1.5V64.534h3.442v1.687Zm-1.492-1.687v1.687h-3.995l-.583-1.687Zm-2.29,6.624h2.29v1.624h-1.729Zm8.717,1.624V71.158h2.233l-.518,1.624Z" transform="translate(-1627.267 -59.159)" fill="#32342d"/>
  </g>
</svg>
