<svg xmlns="http://www.w3.org/2000/svg" width="13.413" height="10.73" viewBox="0 0 13.413 10.73">
  <g id="twitter_1_" data-name="twitter(1)" transform="translate(0 0)">
    <path id="Shape" d="M13.413,1.27a5.8,5.8,0,0,1-1.584.428A2.7,2.7,0,0,0,13.038.2a5.548,5.548,0,0,1-1.744.655A2.776,2.776,0,0,0,9.286,0,2.738,2.738,0,0,0,6.6,3.325,7.824,7.824,0,0,1,.934.494a2.681,2.681,0,0,0,.845,3.619A2.748,2.748,0,0,1,.537,3.779v.03a2.731,2.731,0,0,0,2.2,2.66,2.785,2.785,0,0,1-.721.089A2.468,2.468,0,0,1,1.5,6.512,2.771,2.771,0,0,0,4.067,8.4,5.58,5.58,0,0,1,.658,9.552,5.23,5.23,0,0,1,0,9.515,7.829,7.829,0,0,0,4.218,10.73a7.709,7.709,0,0,0,7.826-7.7c0-.12,0-.235-.01-.35A5.44,5.44,0,0,0,13.413,1.27Z" fill="#fff"/>
  </g>
</svg>
