<svg id="twitter-logo-button" xmlns="http://www.w3.org/2000/svg" width="25.174" height="25.174" viewBox="0 0 25.174 25.174">
  <g id="Group_24" data-name="Group 24">
    <path id="Path_22" data-name="Path 22" d="M12.587,0A12.587,12.587,0,1,0,25.174,12.587,12.6,12.6,0,0,0,12.587,0ZM18.2,9.706c.006.125.009.25.009.376A8.241,8.241,0,0,1,5.526,17.024a5.85,5.85,0,0,0,4.289-1.2,2.9,2.9,0,0,1-2.706-2.012,2.908,2.908,0,0,0,1.308-.049,2.9,2.9,0,0,1-2.324-2.841c0-.012,0-.025,0-.037a2.885,2.885,0,0,0,1.312.362,2.9,2.9,0,0,1-.9-3.868,8.226,8.226,0,0,0,5.971,3.028,2.9,2.9,0,0,1,4.937-2.643,5.783,5.783,0,0,0,1.84-.7,2.91,2.91,0,0,1-1.276,1.6,5.76,5.76,0,0,0,1.664-.456A5.828,5.828,0,0,1,18.2,9.706Z" fill="#32342d"/>
  </g>
</svg>
