<svg xmlns="http://www.w3.org/2000/svg" width="603.223" height="420.5" viewBox="0 0 603.223 420.5">
  <g id="Group_11" data-name="Group 11" opacity="0.11">
    <path id="Path_9" data-name="Path 9" d="M427.113,35.382c2.177-2.616,4.58-3.808,7.19-3.595a9.5,9.5,0,0,1,6.544,3.269,14.849,14.849,0,0,1,3.439,7.2,9.6,9.6,0,0,1-2.453,8.175q-30.748,37.289-61.169,74.91t-59.205,76.7q-28.791,39.1-54.958,79.654a932.744,932.744,0,0,0-48.08,83.738q-10.146,24.207-17.662,47.428-1.319,8.509-2.3,17.173t-1.957,17.18a6.141,6.141,0,0,1-3.276,4.573c-1.744.872-3.488.539-5.233-.978l-5.559-5.559a4.658,4.658,0,0,1-4.58-.986,7.4,7.4,0,0,1-3.269-4.58,2.814,2.814,0,0,1-2.29-1.312,38.949,38.949,0,0,1-8.012-17.825,63.151,63.151,0,0,1,.163-19.789l1.964-10.465a238.63,238.63,0,0,1,5.559-57.241q6.211-28.131,13.734-56.589-13.412,14.06-28.943,29.929t-31.077,31.4q-15.539,15.528-29.929,29.929T70.238,393.569q-11.125,11.444-18.315,18.8t-7.856,9a7.73,7.73,0,0,1-7.2,3.928q-4.9,0-6.864-3.928-1.968-3.606-3.106-6.055c-.766-1.631-1.475-3.219-2.127-4.736s-1.312-3.169-1.964-4.914a50.529,50.529,0,0,0-2.95-6.211,6.768,6.768,0,0,1-.652-5.722,9.834,9.834,0,0,1,2.943-4.417q3.595-7.53,9.657-20.775,6.041-13.252,13.408-29.6t15.7-34.835q8.349-18.474,16.521-36.8,18.974-42.521,40.89-91.913L151.359,95.9q3.265-8.5.17-8.665-3.127-.16-9.324,3.758a136,136,0,0,0-13.578,9.976q-7.36,6.062-12.593,9.65a61.448,61.448,0,0,0-17.173,17.669A71.058,71.058,0,0,0,87.9,174.731a61.568,61.568,0,0,0,7.2,23.228,8.866,8.866,0,0,1,.489,8.828,12.059,12.059,0,0,1-5.722,5.892,5.266,5.266,0,0,1-3.765,4.58c-2.283.872-3.978.106-5.063-2.3L79.4,211.693a6.875,6.875,0,0,1-2.616-2.943,79.444,79.444,0,0,1-7.2-18.315q-2.946-6.541-5.729-13.089t-5.4-13.082q-1.308-.33-2.283-2.616-3.935-12.1-1.638-22.895a54.166,54.166,0,0,1,8.835-20.123,85.413,85.413,0,0,1,16.187-17.173A166.633,166.633,0,0,1,100,87.235,195.13,195.13,0,0,1,121.757,76.11q10.955-4.744,19.789-8.019a8.742,8.742,0,0,1,2.623-.319,10.855,10.855,0,0,1,5.233-.659,7.142,7.142,0,0,1,4.573,2.616A42.535,42.535,0,0,1,171.645,80.2q7.19,7.2,9.161,18.641a40.371,40.371,0,0,1-.659,16.195,63.566,63.566,0,0,1-5.892,14.883,328.91,328.91,0,0,1-15.7,37.125q-9.157,18.485-16.684,36.473L69.912,375.248q16.028-14.071,32.389-31.077t32.382-35.325q16.017-18.314,31.567-37.3,15.528-18.953,30.581-36.636,2.287-9.476,4.254-19.293t3.595-19.3a4.007,4.007,0,0,1,1.964-2.943,17.332,17.332,0,0,1-.326-3.928,6.706,6.706,0,0,1,1.631-3.432,4.211,4.211,0,0,1,3.276-1.475,5.283,5.283,0,0,1,3.595,1.475,3.6,3.6,0,0,1,1.3,3.432v1.638a1.334,1.334,0,0,1,.822.163,1.3,1.3,0,0,0,.822.163,4.035,4.035,0,0,1,2.943-1.3,4.719,4.719,0,0,1,3.269,1.631l9.813,12.756a11.863,11.863,0,0,1,4.247,4.907,10.722,10.722,0,0,1,.986,6.871q-7.2,29.769-14.06,59.368-6.881,29.61-13.741,59.375,21.909-40.564,47.428-79.165t53.157-75.563q27.642-36.959,56.752-73.1T427.113,35.382Z" transform="translate(-18.842 -31.763)" fill="#d59e00"/>
    <path id="Path_10" data-name="Path 10" d="M349.12,349.3a8.328,8.328,0,0,1,4.417,3.758,9.761,9.761,0,0,1,1.149,5.892,6.8,6.8,0,0,1-3.6,5.233l-43.507,27.476a7.481,7.481,0,0,1-5.885.985q-3.605.649-5.559-1.638a1.353,1.353,0,0,1-.986-.326,151.233,151.233,0,0,1-55.121-25.348,229.1,229.1,0,0,1-43.011-41.713,325.171,325.171,0,0,1-33.531-51.675q-14.55-27.8-26.66-55.284Q124.4,248.386,111.8,279.467T86.456,341.941a10.5,10.5,0,0,1-4.907,5.233,7.731,7.731,0,0,1-7.2-.326q-6.871-3.276-9.813-8.182a26.117,26.117,0,0,1-3.595-10.629A43.765,43.765,0,0,1,61.27,316.1q.978-6.222,2.283-12.111a203.753,203.753,0,0,1,5.24-19.789Q72.388,272.6,77.132,260q4.744-12.582,9.813-25.185,5.073-12.582,9.487-23.058t7.686-17.336q3.265-6.871,4.254-8.5h.652c.213-.659.44-1.255.652-1.8a9.9,9.9,0,0,1,.986-1.8.649.649,0,0,1,.163-.489.674.674,0,0,0,.163-.5l8.835-19.952q1.957-6.871,5.233-15.209t6.864-17.173q3.595-8.828,7.2-17.825t6.544-17.5a7.215,7.215,0,0,1,0-5.233q.978-2.946,2.127-8.182T150.73,68.8a126.17,126.17,0,0,1,4.254-12.266,51.711,51.711,0,0,1,5.722-10.629v-.326h.326a16.469,16.469,0,0,1,8.345-6.374q4.743-1.478,10.629,3.432,8.5,6.552,10.629,15.046a42.2,42.2,0,0,1,.659,17.336,80.794,80.794,0,0,1-5.233,17.825q-3.776,9-6.708,16.521a.294.294,0,0,0-.333.326l-6.537,15.379q-1.638,4.254-4.417,11.281t-5.722,14.394q-2.946,7.36-5.559,14.394t-4.254,11.288a100.676,100.676,0,0,1,10.3-13.578,54.8,54.8,0,0,1,8.828-7.856,35.851,35.851,0,0,1,7.693-4.084c2.4-.865,4.687-1.744,6.863-2.616q15.05-5.892,29.6-12.1T245.1,123.435q28.791-13.412,56.433-27.972,27.631-14.539,54.788-30.907a7.661,7.661,0,0,1,6.048-.823,7.57,7.57,0,0,1,5.077,3.765l.652,1.3A170.689,170.689,0,0,1,357.955,93.01,65.9,65.9,0,0,1,341.6,113.3q-47.435,19.3-93.225,40.068t-91.261,43.67c3.481.22,6.544.546,9.154.979a20.294,20.294,0,0,1,7.2,2.623,17.456,17.456,0,0,1,5.729,5.878,45.278,45.278,0,0,1,4.417,10.146,141.567,141.567,0,0,0,7.2,17.173q5.222,10.965,12.259,23.873,7.03,12.933,15.705,26.5,8.657,13.582,17.336,25.192a196.308,196.308,0,0,0,16.847,19.952q8.168,8.338,14.72,10.629,10.136,3.605,16.684,6.708t12.43,5.559a120.963,120.963,0,0,0,12.593,4.417,112.6,112.6,0,0,0,17.173,3.276h.652l15.705-9.82A6.82,6.82,0,0,1,349.12,349.3Z" transform="translate(235.128 11.356)" fill="#d59e00"/>
  </g>
</svg>
