<svg xmlns="http://www.w3.org/2000/svg" width="29.022" height="35.421" viewBox="0 0 29.022 35.421">
  <g id="Group_2066" data-name="Group 2066" transform="translate(0 0)">
    <path id="Path_2368" data-name="Path 2368" d="M296.453,356.387c-8.272,0-14.51,5.407-14.51,12.577,0,7.151,6.238,12.544,14.513,12.544a15.521,15.521,0,0,0,11.184-4.318,11.3,11.3,0,0,0,3.324-8.23,11.679,11.679,0,0,0-3.459-8.331A15.37,15.37,0,0,0,296.453,356.387Zm0,22.379c-6.7,0-11.571-4.122-11.571-9.8s4.866-9.8,11.571-9.8,11.571,4.122,11.571,9.8S303.158,378.766,296.453,378.766Z" transform="translate(-281.943 -346.087)" fill="#636363"/>
    <g id="Group_2063" data-name="Group 2063" transform="translate(11.988 19.87)">
      <path id="Path_2369" data-name="Path 2369" d="M302.767,376.868a2.616,2.616,0,1,0-.792-3.614A2.616,2.616,0,0,0,302.767,376.868Z" transform="translate(-301.561 -372.049)" fill="#636363"/>
    </g>
    <g id="Group_2064" data-name="Group 2064" transform="translate(6.143)">
      <path id="Path_2370" data-name="Path 2370" d="M293.949,339.589a1.355,1.355,0,0,0-1.657.813,4.3,4.3,0,0,0,2.8,5.7,1.376,1.376,0,0,0,.279.054,1.353,1.353,0,0,0,1.378-.867,4.3,4.3,0,0,0-2.8-5.7Z" transform="translate(-291.996 -339.53)" fill="#636363"/>
    </g>
    <g id="Group_2065" data-name="Group 2065" transform="translate(17.831)">
      <path id="Path_2371" data-name="Path 2371" d="M314.218,339.589a1.355,1.355,0,0,1,1.657.813,4.3,4.3,0,0,1-2.8,5.7,1.376,1.376,0,0,1-.279.054,1.353,1.353,0,0,1-1.378-.867,4.3,4.3,0,0,1,2.8-5.7Z" transform="translate(-311.124 -339.53)" fill="#636363"/>
    </g>
  </g>
</svg>
