<svg xmlns="http://www.w3.org/2000/svg" width="344.574" height="436.749" viewBox="0 0 344.574 436.749">
  <g id="Group_3153" data-name="Group 3153" transform="translate(-788 -283)">
    <g id="Group_2150" data-name="Group 2150" transform="translate(509.054 89.72)">
      <path id="Path_2400" data-name="Path 2400" d="M432.169,339.958a42.5,42.5,0,0,1-14.053-28.078,15.458,15.458,0,0,0-6.6-11.81l-.472-.308c-5.074-3.248-12.186-3.912-19.619-1.805l-6.2,1.744c-13.971,3.959-28.01,2.065-39.587-5.354-.2-.123-.376-.26-.574-.39-11.68-7.714-19.141-20.043-20.994-34.7l-.54-4.158c-.882-6.989-3.918-12.439-8.815-15.2-4.712-2.783-10.8-2.934-17.164-.417a47.372,47.372,0,0,1-11.174,2.831c1.21,11.988,7.789,43.806,41.488,75.536.814.554,1.566,1.169,2.407,1.71A143.083,143.083,0,0,0,432.169,339.958Z" transform="translate(43.422 259.285)" fill="#00b830"/>
      <path id="Path_2401" data-name="Path 2401" d="M474.546,478.744a12.591,12.591,0,0,1,4.075-.109,142.9,142.9,0,0,0,63.009-65.586C568.5,356.592,555.012,287.894,508.9,245.66a143.273,143.273,0,0,0-41.851-26.738c-48.976-20.282-105.3,3.392-139.577,40.237a148.935,148.935,0,0,0-18.436,24.256c6.394-10.579,23.23-9.41,31.025-1.88a20.789,20.789,0,1,1-33.193,5.724c-22.717,37.269-21.568,74.093-20.85,83.031a24.861,24.861,0,0,0,5.915-1.511c13.67-5.416,28.105-4.623,39.615,2.168,11.557,7.043,19.3,19.229,21.178,34l.54,4.151c.9,7.167,4.356,13.061,9.724,16.6,5.416,3.576,12.152,4.431,19.093,2.469l6.182-1.751c15.017-4.253,30.28-2.434,41.577,5.683a40.77,40.77,0,0,1,17.574,30.643,17.139,17.139,0,0,0,7.085,12.747C459.5,479.271,467,480.468,474.546,478.744Zm3.515-230.882a20.793,20.793,0,1,1-28.721,6.291A20.8,20.8,0,0,1,478.061,247.862ZM378.939,402.607a60.624,60.624,0,1,1,83.749-18.347A60.7,60.7,0,0,1,378.939,402.607Zm101.385-7.057a20.79,20.79,0,1,1,6.291,28.721A20.792,20.792,0,0,1,480.324,395.549Z" transform="translate(39.614 106.2)" fill="#ffe800"/>
      <path id="Path_2402" data-name="Path 2402" d="M422.459,214.261l-11.133,17.383a20.79,20.79,0,1,1-22.43,35.012l-11.29,17.629a60.624,60.624,0,1,1-65.4,102.1l-15.072,23.538a22.853,22.853,0,0,0,18.21,2.024l6.189-1.751c15.017-4.253,30.28-2.428,41.577,5.683a40.783,40.783,0,0,1,17.574,30.649,17.164,17.164,0,0,0,7.084,12.747c5,3.782,12.494,4.978,20.043,3.248a12.787,12.787,0,0,1,4.076-.109,142.662,142.662,0,0,0,54.091-49.516C508.745,346.125,489.222,257.028,422.459,214.261Zm-2.578,193.791a20.789,20.789,0,1,1,28.721-6.291A20.788,20.788,0,0,1,419.881,408.052Z" transform="translate(106.184 122.493)" fill="#ec008c"/>
      <path id="Path_2403" data-name="Path 2403" d="M323.183,334.745A60.624,60.624,0,1,0,304.836,251,60.7,60.7,0,0,0,323.183,334.745Zm51.6-80.549a35.034,35.034,0,1,1-48.4,10.606A35.074,35.074,0,0,1,374.785,254.2Z" transform="translate(95.37 174.062)" fill="#fff"/>
      <g id="Group_2147" data-name="Group 2147" transform="translate(278.946 285.487)">
        <path id="Path_2404" data-name="Path 2404" d="M544.2,233.939a172.282,172.282,0,1,0,52.149,238.035C647.6,391.973,624.2,285.186,544.2,233.939ZM450.768,519.713A140.106,140.106,0,0,1,318.59,426.055a48.035,48.035,0,0,0,5.149.28,49.64,49.64,0,0,0,18.327-3.563,20.817,20.817,0,0,1,7.645-1.58,13.475,13.475,0,0,1,6.941,1.8c4.007,2.263,6.613,6.879,7.392,13.034l.54,4.171c1.963,15.516,9.875,28.577,22.286,36.776l.246.164.369.246a49.814,49.814,0,0,0,26.936,7.844,55.111,55.111,0,0,0,15.031-2.134l6.2-1.744a27.693,27.693,0,0,1,7.542-1.1,17.955,17.955,0,0,1,9.69,2.551l.472.308a12.59,12.59,0,0,1,5.259,9.594,44.922,44.922,0,0,0,10.873,25.774A143.236,143.236,0,0,1,450.768,519.713ZM569.857,455a140.441,140.441,0,0,1-52.231,48.108c-.445-.027-.889-.048-1.34-.048a12.345,12.345,0,0,0-2.776.294,27.318,27.318,0,0,1-6.072.7,19.166,19.166,0,0,1-11.543-3.433,14.34,14.34,0,0,1-5.936-10.654,43.642,43.642,0,0,0-18.833-32.81,47.063,47.063,0,0,0-27.661-8.425,60.323,60.323,0,0,0-16.385,2.332l-6.189,1.751a23.447,23.447,0,0,1-6.366.916,18.4,18.4,0,0,1-10.3-3c-4.643-3.07-7.638-8.226-8.425-14.518l-.547-4.171c-1.963-15.414-10.182-28.584-22.56-36.127a45.2,45.2,0,0,0-22.99-6.161,52.032,52.032,0,0,0-19.236,3.775,20.316,20.316,0,0,1-7.42,1.566,11.043,11.043,0,0,1-6.011-1.593c-3.446-2.209-5.525-6.626-5.895-12.473a8.138,8.138,0,0,0-.492-2.14l-.082-.226a140.314,140.314,0,0,1,82.313-127.788,14.53,14.53,0,1,0,26.642-8.972,142.835,142.835,0,0,1,31.955-3.672,140.258,140.258,0,0,1,135.837,105.3,14.507,14.507,0,1,0,4.554,28.639A139.655,139.655,0,0,1,569.857,455Z" transform="translate(-278.946 -206.764)" fill="#fff"/>
        <path id="Path_2405" data-name="Path 2405" d="M345.708,240.272a20.788,20.788,0,1,0,6.3,28.721A20.792,20.792,0,0,0,345.708,240.272Z" transform="translate(-76.002 -30.301)" fill="#fff"/>
        <path id="Path_2406" data-name="Path 2406" d="M347.482,248.316a20.793,20.793,0,1,0-28.728,6.3A20.8,20.8,0,0,0,347.482,248.316Z" transform="translate(-102.456 -151.02)" fill="#fff"/>
        <path id="Path_2407" data-name="Path 2407" d="M320.5,224.13a20.788,20.788,0,1,0,6.3,28.721A20.789,20.789,0,0,0,320.5,224.13Z" transform="translate(-223.17 -124.571)" fill="#fff"/>
      </g>
      <g id="Group_2148" data-name="Group 2148" transform="translate(363.442 193.28)">
        <path id="Path_2408" data-name="Path 2408" d="M312.358,193.908a14.606,14.606,0,0,0-17.862,8.767,46.34,46.34,0,0,0,30.164,61.456,14.358,14.358,0,0,0,3.009.581,14.563,14.563,0,0,0,14.853-9.341,46.351,46.351,0,0,0-30.164-61.463Z" transform="translate(-291.302 -193.28)" fill="#fff"/>
      </g>
      <g id="Group_2149" data-name="Group 2149" transform="translate(489.444 193.28)">
        <path id="Path_2409" data-name="Path 2409" d="M343.08,193.908a14.617,14.617,0,0,1,17.868,8.767,46.34,46.34,0,0,1-30.164,61.456,14.358,14.358,0,0,1-3.009.581,14.564,14.564,0,0,1-14.853-9.341,46.341,46.341,0,0,1,30.157-61.463Z" transform="translate(-309.728 -193.28)" fill="#fff"/>
      </g>
    </g>
  </g>
</svg>
