<svg xmlns="http://www.w3.org/2000/svg" width="232.5" height="68.942" viewBox="0 0 232.5 68.942">
  <g id="Group_1196" data-name="Group 1196" transform="translate(-239.581 -193.28)">
    <path id="Path_1425" data-name="Path 1425" d="M309.4,253.834a6.708,6.708,0,0,1-2.218-4.432,2.44,2.44,0,0,0-1.042-1.864l-.074-.049a3.829,3.829,0,0,0-3.1-.285l-.978.275a7.582,7.582,0,0,1-6.249-.845c-.031-.019-.059-.041-.091-.062a7.565,7.565,0,0,1-3.314-5.478l-.085-.656a2.806,2.806,0,0,0-4.1-2.465,7.479,7.479,0,0,1-1.764.447c.191,1.892,1.23,6.915,6.549,11.924.128.087.247.185.38.27A22.586,22.586,0,0,0,309.4,253.834Z" transform="translate(3.718 3.528)" fill="#00b830"/>
    <path id="Path_1426" data-name="Path 1426" d="M315.536,253.66a1.987,1.987,0,0,1,.643-.017,22.557,22.557,0,0,0,9.946-10.353,22.679,22.679,0,0,0-11.772-30.643c-7.731-3.2-16.622.535-22.033,6.351a23.508,23.508,0,0,0-2.91,3.829c1.009-1.67,3.667-1.485,4.9-.3a3.282,3.282,0,1,1-5.24.9,22.855,22.855,0,0,0-3.291,13.107,3.924,3.924,0,0,0,.934-.239,7.09,7.09,0,0,1,6.253.342,7.224,7.224,0,0,1,3.343,5.367l.085.655a3.448,3.448,0,0,0,4.549,3.011l.976-.276a7.63,7.63,0,0,1,6.563.9,6.436,6.436,0,0,1,2.774,4.837,2.705,2.705,0,0,0,1.118,2.012A3.874,3.874,0,0,0,315.536,253.66Zm.555-36.445a3.282,3.282,0,1,1-4.534.993A3.283,3.283,0,0,1,316.091,217.215Zm-15.647,24.427a9.57,9.57,0,1,1,13.22-2.9A9.582,9.582,0,0,1,300.444,241.642Zm16-1.114a3.282,3.282,0,1,1,.993,4.534A3.282,3.282,0,0,1,316.448,240.528Z" transform="translate(3.667 1.445)" fill="#ffe800"/>
    <path id="Path_1427" data-name="Path 1427" d="M316.916,214.261,315.159,217a3.282,3.282,0,1,1-3.541,5.527l-1.782,2.783a9.57,9.57,0,1,1-10.324,16.116l-2.379,3.715a3.607,3.607,0,0,0,2.875.32l.977-.276a7.634,7.634,0,0,1,6.563.9,6.438,6.438,0,0,1,2.774,4.838,2.709,2.709,0,0,0,1.118,2.012,3.87,3.87,0,0,0,3.164.513,2.018,2.018,0,0,1,.643-.017,22.662,22.662,0,0,0,1.669-39.171Zm-.407,30.591a3.282,3.282,0,1,1,4.534-.993A3.282,3.282,0,0,1,316.509,244.852Z" transform="translate(4.573 1.667)" fill="#ec008c"/>
    <path id="Path_1428" data-name="Path 1428" d="M299.685,240.718a9.57,9.57,0,1,0-2.9-13.22A9.581,9.581,0,0,0,299.685,240.718ZM307.831,228a5.53,5.53,0,1,1-7.64,1.674A5.536,5.536,0,0,1,307.831,228Z" transform="translate(4.425 2.369)"/>
    <g id="Group_1192" data-name="Group 1192" transform="translate(282.073 207.835)">
      <path id="Path_1429" data-name="Path 1429" d="M320.817,211.054a27.2,27.2,0,1,0,8.232,37.575A27.072,27.072,0,0,0,320.817,211.054Zm-14.749,45.11A22.116,22.116,0,0,1,285.2,241.38a7.587,7.587,0,0,0,.813.044,7.835,7.835,0,0,0,2.893-.562,3.286,3.286,0,0,1,1.207-.249,2.127,2.127,0,0,1,1.1.284,2.621,2.621,0,0,1,1.167,2.057l.085.658a8.02,8.02,0,0,0,3.518,5.805l.039.026.058.039a7.863,7.863,0,0,0,4.252,1.238,8.7,8.7,0,0,0,2.373-.337l.978-.275a4.371,4.371,0,0,1,1.191-.174,2.834,2.834,0,0,1,1.53.4l.075.049a1.987,1.987,0,0,1,.83,1.514,7.091,7.091,0,0,0,1.716,4.068A22.607,22.607,0,0,1,306.068,256.164Zm18.8-10.215a22.169,22.169,0,0,1-8.245,7.594c-.07,0-.14-.008-.212-.008a1.95,1.95,0,0,0-.438.046,4.311,4.311,0,0,1-.959.11,3.025,3.025,0,0,1-1.822-.542,2.264,2.264,0,0,1-.937-1.682,6.889,6.889,0,0,0-2.973-5.179,7.429,7.429,0,0,0-4.366-1.33,9.522,9.522,0,0,0-2.586.368l-.977.276a3.7,3.7,0,0,1-1,.145,2.9,2.9,0,0,1-1.626-.474,3.136,3.136,0,0,1-1.33-2.292l-.086-.658a7.723,7.723,0,0,0-3.561-5.7,7.135,7.135,0,0,0-3.629-.973,8.213,8.213,0,0,0-3.036.6,3.207,3.207,0,0,1-1.171.247,1.743,1.743,0,0,1-.949-.252,2.414,2.414,0,0,1-.93-1.969,1.283,1.283,0,0,0-.078-.338l-.013-.036a22.149,22.149,0,0,1,12.993-20.172,2.294,2.294,0,1,0,4.206-1.416,22.546,22.546,0,0,1,5.044-.58,22.14,22.14,0,0,1,21.442,16.622,2.29,2.29,0,1,0,.719,4.521A22.045,22.045,0,0,1,324.867,245.949Z" transform="translate(-278.946 -206.764)"/>
      <path id="Path_1430" data-name="Path 1430" d="M318.758,237.507a3.282,3.282,0,1,0,.994,4.534A3.282,3.282,0,0,0,318.758,237.507Z" transform="translate(-276.184 -204.363)"/>
      <path id="Path_1431" data-name="Path 1431" d="M315.222,221.364a3.282,3.282,0,1,0-4.535.994A3.283,3.283,0,0,0,315.222,221.364Z" transform="translate(-276.544 -206.005)"/>
      <path id="Path_1432" data-name="Path 1432" d="M293.551,221.361a3.282,3.282,0,1,0,.994,4.534A3.282,3.282,0,0,0,293.551,221.361Z" transform="translate(-278.187 -205.645)"/>
    </g>
    <g id="Group_1193" data-name="Group 1193" transform="translate(239.581 215.911)">
      <path id="Path_1433" data-name="Path 1433" d="M269.51,230.333a8.637,8.637,0,0,0,2.107-5.575c0-5.481-5.063-9.942-11.286-9.942h-20.75v6.22h7.28V230.6l-7.28,1.12v6.266l7.28-1.12v14.8h-7.28v6.22h22.094c9.625,0,17.165-6.458,17.165-14.7C278.841,237.7,275.145,232.783,269.51,230.333Zm-7.665-2.17-8.651,1.383v-8.51h7.137c2.731,0,4.954,1.67,4.954,3.722A3.686,3.686,0,0,1,261.845,228.163Zm-8.651,7.664,7.787-1.184h.694c6.035,0,10.946,3.831,10.946,8.538,0,4.677-4.91,8.482-10.946,8.482h-8.481Z" transform="translate(-239.581 -214.2)"/>
      <path id="Path_1434" data-name="Path 1434" d="M362.367,242.736l12.88-2.3v5.832a21.66,21.66,0,0,1-15.595,6.053c-11.079,0-19.121-6.7-19.121-15.929,0-9.081,8.221-15.931,19.121-15.931,7.048,0,13.244,2.826,17,7.752l.581.761h4.236V214.861h-6.333v3.5a29.966,29.966,0,0,0-15.483-4.12c-14.511,0-25.453,9.523-25.453,22.15,0,12.6,10.942,22.094,25.453,22.094a29.871,29.871,0,0,0,15.595-4.127v3.567h6.332V239.123l5.432-1.008v-6.293l-24.644,4.65Z" transform="translate(-232.063 -214.245)"/>
      <path id="Path_1435" data-name="Path 1435" d="M386.384,221.036h7.279v30.628h-7.279v6.22h35.06v-6.22H400V237.225l15.624-2.408v-6.266L400,230.959v-9.923h21.448v-6.22h-35.06Z" transform="translate(-227.917 -214.2)"/>
      <path id="Path_1436" data-name="Path 1436" d="M435.681,251.664V221.036h7.281v-6.22H422.125v6.22h7.223v30.628h-7.223v6.22h35.452v-6.22Z" transform="translate(-225.078 -214.2)"/>
    </g>
    <g id="Group_1194" data-name="Group 1194" transform="translate(295.411 193.28)">
      <path id="Path_1437" data-name="Path 1437" d="M294.626,193.379a2.306,2.306,0,0,0-2.82,1.384,7.315,7.315,0,0,0,4.761,9.7,2.266,2.266,0,0,0,.475.092,2.3,2.3,0,0,0,2.345-1.475,7.317,7.317,0,0,0-4.761-9.7Z" transform="translate(-291.302 -193.28)"/>
    </g>
    <g id="Group_1195" data-name="Group 1195" transform="translate(315.301 193.28)">
      <path id="Path_1438" data-name="Path 1438" d="M314.992,193.379a2.307,2.307,0,0,1,2.821,1.384,7.315,7.315,0,0,1-4.761,9.7,2.266,2.266,0,0,1-.475.092,2.3,2.3,0,0,1-2.345-1.475,7.315,7.315,0,0,1,4.76-9.7Z" transform="translate(-309.728 -193.28)"/>
    </g>
  </g>
</svg>
