<svg xmlns="http://www.w3.org/2000/svg" width="16" height="16" viewBox="0 0 16 16">
    <g fill="#221F1F" fill-rule="nonzero" opacity=".2">
        <path d="M11.234 0H4.766A4.772 4.772 0 0 0 0 4.766v6.468A4.772 4.772 0 0 0 4.766 16h6.468A4.772 4.772 0 0 0 16 11.234V4.766A4.772 4.772 0 0 0 11.234 0zm3.156 11.234a3.157 3.157 0 0 1-3.156 3.156H4.766a3.157 3.157 0 0 1-3.156-3.156V4.766A3.157 3.157 0 0 1 4.766 1.61h6.468a3.157 3.157 0 0 1 3.156 3.156v6.468z"/>
        <path d="M8 4C5.794 4 4 5.794 4 8s1.794 4 4 4 4-1.794 4-4-1.794-4-4-4zm0 6.444a2.444 2.444 0 1 1 0-4.888 2.444 2.444 0 0 1 0 4.888z"/>
        <circle cx="12" cy="4" r="1"/>
    </g>
</svg>
