<?xml version="1.0" encoding="utf-8"?>
<!-- Generator: Adobe Illustrator 21.0.0, SVG Export Plug-In . SVG Version: 6.00 Build 0)  -->
<svg version="1.1" id="Слой_1" xmlns="http://www.w3.org/2000/svg" xmlns:xlink="http://www.w3.org/1999/xlink" x="0px" y="0px"
	 viewBox="0 0 167.5 69.2" style="enable-background:new 0 0 167.5 69.2;" xml:space="preserve">
<style type="text/css">
	.st0{fill:#4ABD98;}
</style>
<g>
	<g>
		<path class="st0" d="M1.3,7.7h3.8v7.6l7.1-7.6h4.6l-7.1,7.4l7.4,10.1h-4.6l-5.4-7.4l-2,2.1v5.3H1.3V7.7z"/>
		<path class="st0" d="M34.6,7.7v17.5h-3.8v-14h-5v1.3c0,10.3-1.7,12.9-5.7,12.9c-0.6,0-1.6-0.1-2-0.2l0.3-3.2c0.2,0,0.3,0,0.6,0
			c2.1,0,3.3-1.3,3.3-10.7V7.7H34.6z"/>
		<path class="st0" d="M54.2,25.2h-3.8V13.8l-7.6,11.5h-3.6V7.7H43v11.5l7.7-11.5h3.6V25.2z"/>
		<path class="st0" d="M59.2,7.7h2.8c0.6,0,1,0.4,1,1v4.5c0,0.6,0.4,1,1,1h4.2c0.6,0,1-0.4,1-1V8.7c0-0.6,0.4-1,1-1h2.8
			c0.6,0,1,0.4,1,1v15.5c0,0.6-0.4,1-1,1h-2.8c-0.6,0-1-0.4-1-1v-4.6c0-0.6-0.4-1-1-1h-4.2c-0.6,0-1,0.4-1,1v4.6c0,0.6-0.4,1-1,1
			h-2.8c-0.6,0-1-0.4-1-1V8.7C58.2,8.2,58.7,7.7,59.2,7.7z"/>
		<path class="st0" d="M79.6,7.7h0.8c1.1,0,2,0.9,2,2V16c0,0.5,0.6,0.7,0.9,0.3l5.3-7.7c0.4-0.5,1-0.9,1.6-0.9h1.5c1.1,0,2,0.9,2,2
			v13.5c0,1.1-0.9,2-2,2h-0.8c-1.1,0-2-0.9-2-2V17c0-0.5-0.6-0.7-0.9-0.3l-5.3,7.7c-0.4,0.5-1,0.9-1.6,0.9h-1.5c-1.1,0-2-0.9-2-2
			V9.7C77.6,8.6,78.5,7.7,79.6,7.7z"/>
		<path class="st0" d="M99.1,7.7h0.8c1.1,0,2,0.9,2,2v2.4c0,0.9,1.2,1.4,1.8,0.6l3.7-4.3c0.4-0.4,0.9-0.7,1.5-0.7h0.4
			c1.7,0,2.6,2,1.5,3.3l-3.7,4.2l4.7,6.8c0.9,1.3,0,3.1-1.6,3.1h-1c-0.7,0-1.3-0.3-1.7-0.9l-3.5-5.2c-0.2-0.3-0.5-0.4-0.8-0.4
			l-0.2,0c-0.6,0-1,0.4-1,1v3.5c0,1.1-0.9,2-2,2h-0.8c-1.1,0-2-0.9-2-2V9.7C97.1,8.6,98,7.7,99.1,7.7z"/>
		<path class="st0" d="M123,7.6h2c0.8,0,1.5,0.5,1.8,1.2l5.8,13.6c0.6,1.3-0.4,2.8-1.8,2.8H130c-0.8,0-1.5-0.5-1.9-1.2l-0.3-0.6
			c-0.3-0.8-1-1.2-1.9-1.2H122c-0.8,0-1.6,0.5-1.9,1.3l-0.2,0.6c-0.3,0.8-1,1.3-1.9,1.3h-0.7c-1.4,0-2.4-1.5-1.8-2.8l5.8-13.6
			C121.5,8.1,122.2,7.6,123,7.6z M125.7,17.7l-1.2-3.1c-0.2-0.4-0.8-0.4-0.9,0l-1.2,3.1c-0.1,0.3,0.1,0.7,0.5,0.7h2.5
			C125.6,18.3,125.8,18,125.7,17.7z"/>
		<path class="st0" d="M1.3,29.7h3.8v7.6l7.1-7.6h4.6l-7.1,7.4l7.4,10.1h-4.6l-5.4-7.4l-2,2.1v5.3H1.3V29.7z"/>
		<path class="st0" d="M34.6,29.7v17.5h-3.8v-14h-5v1.3c0,10.3-1.7,12.9-5.7,12.9c-0.6,0-1.6-0.1-2-0.2l0.3-3.2c0.2,0,0.3,0,0.6,0
			c2.1,0,3.3-1.3,3.3-10.7v-3.6H34.6z"/>
		<path class="st0" d="M39.2,29.7h13.2v3.4H43v3.5h8.2v3.4H43v3.7h9.5v3.4H39.2V29.7z"/>
		<path class="st0" d="M60,34h-5.2v-4.2h15.3V34h-5.2v13.2H60V34z"/>
		<path class="st0" d="M71.2,38.5c0-5,4-9.1,9.4-9.1s9.4,4,9.4,9.1c0,5-4,9.1-9.4,9.1C75.2,47.6,71.2,43.6,71.2,38.5z M85.1,38.5
			c0-2.5-1.8-4.7-4.5-4.7c-2.6,0-4.4,2.1-4.4,4.7c0,2.5,1.8,4.7,4.5,4.7C83.3,43.2,85.1,41.1,85.1,38.5z"/>
		<path class="st0" d="M102.7,42.6c0-0.7-0.7-1.2-1.3-0.9c-1,0.3-2.1,0.5-3.1,0.5c-3.7,0-5.8-2.2-5.8-5.8v-4.6c0-1.1,0.9-2,2-2h0.8
			c1.1,0,2,0.9,2,2V35c0,1.9,0.7,2.7,2.4,2.7c0.9,0,1.8-0.2,2.5-0.6c0.3-0.2,0.5-0.5,0.5-0.9v-4.5c0-1.1,0.9-2,2-2h0.8
			c1.1,0,2,0.9,2,2v13.5c0,1.1-0.9,2-2,2h-0.8c-1.1,0-2-0.9-2-2V42.6z"/>
		<path class="st0" d="M113,29.7h0.8c1.1,0,2,0.9,2,2v3.5c0,0.6,0.4,1,1,1h4.2c0.6,0,1-0.4,1-1v-3.5c0-1.1,0.9-2,2-2h0.8
			c1.1,0,2,0.9,2,2v13.5c0,1.1-0.9,2-2,2H124c-1.1,0-2-0.9-2-2v-3.6c0-0.6-0.4-1-1-1h-4.2c-0.6,0-1,0.4-1,1v3.6c0,1.1-0.9,2-2,2H113
			c-1.1,0-2-0.9-2-2V31.7C111,30.6,111.9,29.7,113,29.7z"/>
		<path class="st0" d="M129.7,38.5c0-5,4-9.1,9.4-9.1c5.4,0,9.4,4,9.4,9.1c0,5-4,9.1-9.4,9.1C133.7,47.6,129.7,43.6,129.7,38.5z
			 M143.6,38.5c0-2.5-1.8-4.7-4.5-4.7c-2.7,0-4.4,2.1-4.4,4.7c0,2.5,1.8,4.7,4.5,4.7C141.8,43.2,143.6,41.1,143.6,38.5z"/>
		<path class="st0" d="M153.4,29.7h0.8c1.1,0,2,0.9,2,2V38c0,0.5,0.6,0.7,0.9,0.3l5.3-7.7c0.4-0.5,1-0.9,1.6-0.9h1.5
			c1.1,0,2,0.9,2,2v13.5c0,1.1-0.9,2-2,2h-0.8c-1.1,0-2-0.9-2-2V39c0-0.5-0.6-0.7-0.9-0.3l-5.3,7.7c-0.4,0.5-1,0.9-1.6,0.9h-1.5
			c-1.1,0-2-0.9-2-2V31.7C151.4,30.6,152.3,29.7,153.4,29.7z M156.8,24.5L156.8,24.5c0.6-0.1,1.1,0.1,1.5,0.6
			c0.3,0.4,0.7,0.7,1.4,0.7c0.6,0,1.1-0.3,1.4-0.7c0.3-0.5,0.9-0.7,1.4-0.6l0.1,0c1,0.2,1.5,1.3,1,2.1c-0.8,1.3-2.1,2-3.8,2
			c-1.7,0-3-0.7-3.8-2C155.3,25.8,155.8,24.7,156.8,24.5z"/>
		<path class="st0" d="M5.3,55.3H0v-3.5h14.5v3.5H9.2v13.9H5.3V55.3z"/>
		<path class="st0" d="M17.8,51.7H31v3.4h-9.4v3.5h8.2v3.4h-8.2v3.7h9.5v3.4H17.8V51.7z"/>
		<path class="st0" d="M34.8,51.7H42c4.2,0,6.7,2.5,6.7,6.1c0,4-3.1,6.1-7.1,6.1h-2.9v5.2h-3.8V51.7z M41.7,60.6c1.9,0,3-1.1,3-2.7
			c0-1.7-1.2-2.6-3.1-2.6h-3v5.3H41.7z"/>
		<path class="st0" d="M58,51.6h3.3c0.4,0,0.8,0.2,0.9,0.6l6.6,15.6c0.3,0.7-0.2,1.4-0.9,1.4h-3c-0.4,0-0.8-0.2-0.9-0.6l-0.8-1.9
			c-0.2-0.4-0.5-0.6-0.9-0.6H57c-0.4,0-0.8,0.2-0.9,0.6l-0.7,1.9c-0.2,0.4-0.5,0.6-0.9,0.6h-2.9c-0.7,0-1.2-0.7-0.9-1.4l6.6-15.6
			C57.3,51.9,57.6,51.6,58,51.6z M61.4,61.7l-1.2-3.1c-0.2-0.4-0.8-0.4-0.9,0L58,61.7c-0.1,0.3,0.1,0.7,0.5,0.7h2.5
			C61.2,62.3,61.5,62,61.4,61.7z"/>
		<path class="st0" d="M72.5,51.7h13.7c0.6,0,1,0.4,1,1v15.5c0,0.6-0.4,1-1,1h-2.8c-0.6,0-1-0.4-1-1V57c0-0.6-0.4-1-1-1h-4
			c-0.6,0-1,0.4-1,1v11.2c0,0.6-0.4,1-1,1h-2.8c-0.6,0-1-0.4-1-1V52.7C71.5,52.2,72,51.7,72.5,51.7z"/>
		<path class="st0" d="M92.6,51.7h0.8c1.1,0,2,0.9,2,2V60c0,0.5,0.6,0.7,0.9,0.3l5.3-7.7c0.4-0.5,1-0.9,1.6-0.9h1.5c1.1,0,2,0.9,2,2
			v13.5c0,1.1-0.9,2-2,2h-0.8c-1.1,0-2-0.9-2-2V61c0-0.5-0.6-0.7-0.9-0.3l-5.3,7.7c-0.4,0.5-1,0.9-1.6,0.9h-1.5c-1.1,0-2-0.9-2-2
			V53.7C90.6,52.6,91.5,51.7,92.6,51.7z"/>
		<path class="st0" d="M112.1,51.7h0.8c1.1,0,2,0.9,2,2V60c0,0.5,0.6,0.7,0.9,0.3l5.3-7.7c0.4-0.5,1-0.9,1.6-0.9h1.5
			c1.1,0,2,0.9,2,2v13.5c0,1.1-0.9,2-2,2h-0.8c-1.1,0-2-0.9-2-2V61c0-0.5-0.6-0.7-0.9-0.3l-5.3,7.7c-0.4,0.5-1,0.9-1.6,0.9h-1.5
			c-1.1,0-2-0.9-2-2V53.7C110.1,52.6,111,51.7,112.1,51.7z"/>
	</g>
	<g>
		<path class="st0" d="M147.6,3.8c-0.2-0.2-0.4-0.4-0.7-0.6c-0.4,0.2-0.8,0.4-1.2,0.8c-1.4,1.4-1.4,3.6,0,5c0.3,0.3,0.7,0.6,1.2,0.8
			c0.2-0.2,0.4-0.4,0.7-0.6C149.3,7.8,149.3,5.2,147.6,3.8"/>
		<path class="st0" d="M140.3,9.4c-0.3,0.3-0.6,0.7-0.8,1.2c0.2,0.2,0.4,0.4,0.6,0.7c1.4,1.7,4,1.7,5.4,0c0.2-0.2,0.4-0.5,0.6-0.7
			c-0.2-0.4-0.4-0.8-0.8-1.2C144,8,141.7,8,140.3,9.4"/>
		<path class="st0" d="M139.9,4c-0.3-0.3-0.7-0.6-1.2-0.8c-0.2,0.2-0.4,0.4-0.7,0.6c-1.7,1.4-1.7,4,0,5.4c0.2,0.2,0.4,0.4,0.7,0.6
			c0.4-0.2,0.8-0.4,1.2-0.8C141.3,7.6,141.3,5.4,139.9,4"/>
		<path class="st0" d="M145.4,3.6c0.3-0.3,0.6-0.7,0.8-1.2c-0.2-0.2-0.4-0.4-0.6-0.7c-1.4-1.7-4-1.7-5.4,0c-0.2,0.2-0.4,0.4-0.6,0.6
			c0.2,0.4,0.4,0.8,0.8,1.2C141.7,4.9,144,4.9,145.4,3.6"/>
	</g>
</g>
</svg>
