<svg version="1.1" id="Isolation_Mode" xmlns="http://www.w3.org/2000/svg" xmlns:xlink="http://www.w3.org/1999/xlink" x="0px"
	 y="0px" viewBox="0 0 10.9 10" style="enable-background:new 0 0 10.9 10;" xml:space="preserve">
<style type="text/css">
	.st0{fill:#FF3D3D;}
</style>
<g>
	<path class="st0" d="M3.2,1c0.6,0,0.9,0.1,1.3,0.3c0.1,0.1,0.3,0.1,0.4,0.2L5.5,2l0.6-0.5c0.1-0.1,0.2-0.2,0.4-0.2
		C6.8,1.1,7.1,1,7.7,1C9,1,9.9,2.1,9.9,3.5c0,1.2-0.7,2.4-2.1,3.6C7.1,7.8,6.2,8.5,5.5,8.9C4.8,8.5,3.8,7.8,3.1,7.2
		C1.7,5.9,1,4.7,1,3.5C1,2.1,1.9,1,3.2,1 M7.7,0C7,0,6.6,0.1,6,0.3C5.8,0.4,5.6,0.6,5.5,0.7C5.3,0.6,5.1,0.5,4.9,0.4
		C4.4,0.1,3.9,0,3.2,0C1.4,0,0,1.5,0,3.5c0,1.5,0.8,3,2.4,4.4C3.2,8.7,4.3,9.4,5,9.8L5.5,10l0.4-0.2c0.8-0.4,1.8-1.1,2.6-1.9
		c1.6-1.4,2.4-2.9,2.4-4.4C10.9,1.6,9.6,0,7.7,0L7.7,0z"/>
</g>
</svg>
