<svg version="1.1" id="Isolation_Mode" xmlns="http://www.w3.org/2000/svg" xmlns:xlink="http://www.w3.org/1999/xlink" x="0px"
	 y="0px" viewBox="0 0 970.6 34.3" style="enable-background:new 0 0 970.6 34.3;" xml:space="preserve">
<style type="text/css">
	.st0{fill:#ffffff;}
</style>
<path class="st0" d="M963.9,22.9c2.4-1.2,4.1-2.2,5.1-3c0.5-0.4,0.9-0.7,1.1-0.9c0.1-0.1,0.2-0.2,0.3-0.3c0,0,0.1-0.1,0.1-0.1
	c0,0,0,0,0,0c0,0,0,0,0,0c0,0,0,0,0,0c0,0,0,0,0,0l0,0c0,0,0,0-0.4-0.3c-0.4-0.3-0.4-0.3-0.4-0.3s0,0,0,0l0,0c0,0,0,0,0,0
	c0,0,0,0,0,0c0,0,0,0,0,0c0,0,0,0-0.1,0.1c0,0.1-0.1,0.1-0.2,0.2c-0.2,0.2-0.6,0.5-1.1,0.9c-1,0.7-2.6,1.8-5,2.9L963.9,22.9z
	 M944,29c6.4-1.2,11.3-2.6,15.1-4l-0.3-0.9c-3.8,1.4-8.7,2.8-15,4L944,29z M923.3,31.4c5.8-0.3,11-0.9,15.5-1.5l-0.1-1
	c-4.5,0.7-9.6,1.2-15.5,1.5L923.3,31.4z M902.5,31.7c5.6,0.1,10.8,0.1,15.6-0.1l0-1c-4.8,0.2-9.9,0.2-15.6,0.1L902.5,31.7z
	 M881.7,30.6c5.5,0.4,10.7,0.7,15.6,0.9l0-1c-4.9-0.2-10-0.5-15.5-0.9L881.7,30.6z M861.1,28.4c5.4,0.7,10.6,1.2,15.5,1.7l0.1-1
	c-4.9-0.5-10.1-1-15.5-1.7L861.1,28.4z M848.1,26.7c2.6,0.4,5.2,0.8,7.8,1.1l0.1-1c-2.5-0.3-5.1-0.7-7.7-1.1L848.1,26.7z
	 M840.6,25.5c2.4,0.4,4.9,0.8,7.5,1.1l0.1-1c-2.6-0.4-5.1-0.8-7.5-1.1L840.6,25.5z M820.9,22.1c4.6,0.9,9.5,1.8,14.8,2.7l0.2-1
	c-5.3-0.9-10.2-1.8-14.8-2.7L820.9,22.1z M801.3,17.9c4.5,1.1,9.4,2.1,14.7,3.2l0.2-1c-5.3-1.1-10.2-2.2-14.7-3.2L801.3,17.9z
	 M781.8,13c4.5,1.2,9.3,2.4,14.6,3.7l0.2-1c-5.3-1.3-10.1-2.6-14.6-3.7L781.8,13z M762.4,8.1c4.7,1,9.4,2.2,14.6,3.6l0.3-1
	c-5.1-1.3-9.9-2.6-14.6-3.6L762.4,8.1z M742.6,5.3c5.3,0.4,10.1,1,14.8,1.9l0.2-1c-4.8-0.9-9.6-1.5-15-1.9L742.6,5.3z M722.7,5.3
	c5.5-0.3,10.4-0.4,15-0.2l0-1c-4.6-0.1-9.6-0.1-15.1,0.2L722.7,5.3z M702.8,7.1c5.4-0.7,10.3-1.2,14.9-1.5l-0.1-1
	c-4.6,0.3-9.5,0.8-14.9,1.5L702.8,7.1z M682.9,10c5.3-0.8,10.2-1.6,14.8-2.2l-0.1-1c-4.6,0.6-9.5,1.3-14.8,2.2L682.9,10z
	 M663.2,13.4c5.2-1,10.2-1.8,14.8-2.6l-0.2-1c-4.7,0.8-9.6,1.6-14.9,2.6L663.2,13.4z M650.8,15.7c2.6-0.5,5-1,7.5-1.4l-0.2-1
	c-2.4,0.5-4.9,0.9-7.5,1.4L650.8,15.7z M643.7,17c2.3-0.4,4.7-0.8,7.1-1.3l-0.2-1c-2.4,0.5-4.8,0.9-7.1,1.3L643.7,17z M624.6,19.4
	c4.4-0.3,9.1-0.9,14.3-1.6l-0.1-1c-5.1,0.8-9.8,1.3-14.2,1.6L624.6,19.4z M605.5,19.7c4.3,0.2,9.1,0.3,14.4,0l0-1
	c-5.2,0.3-9.9,0.2-14.3,0L605.5,19.7z M586.5,16.9c4.3,1,9,1.9,14.2,2.4l0.1-1c-5.2-0.5-9.8-1.4-14.1-2.4L586.5,16.9z M568,11.7
	c4.6,1.3,9.1,2.7,13.8,4l0.3-1c-4.7-1.3-9.1-2.7-13.8-4L568,11.7z M549.4,7.6c5.1,0.7,9.7,1.7,14,2.9l0.3-1
	c-4.3-1.1-8.9-2.2-14.1-2.9L549.4,7.6z M530.4,6.5c5.3-0.1,10,0.1,14.3,0.5l0.1-1c-4.3-0.4-9.1-0.6-14.4-0.5L530.4,6.5z M511.4,7.9
	c5.2-0.6,9.9-1,14.2-1.2l0-1c-4.4,0.2-9.1,0.6-14.3,1.3L511.4,7.9z M492.6,10.9c5-1,9.7-1.8,14.1-2.4l-0.1-1
	c-4.4,0.6-9.1,1.4-14.1,2.4L492.6,10.9z M480.8,13.4c2.4-0.5,4.8-1.1,7.1-1.5l-0.2-1c-2.3,0.5-4.7,1-7.1,1.5L480.8,13.4z
	 M473.3,15.1c2.4-0.5,4.9-1.1,7.5-1.6l-0.2-1c-2.6,0.6-5,1.1-7.5,1.6L473.3,15.1z M453.5,19.1c4.6-0.9,9.6-1.8,14.9-2.9l-0.2-1
	c-5.3,1.1-10.2,2.1-14.9,2.9L453.5,19.1z M433.5,22.2c4.6-0.6,9.6-1.4,15-2.3l-0.2-1c-5.4,0.9-10.4,1.7-15,2.3L433.5,22.2z
	 M413.3,24c4.6-0.2,9.6-0.5,15.2-1.2l-0.1-1c-5.6,0.6-10.6,1-15.1,1.2L413.3,24z M393,23.4c4.6,0.5,9.6,0.8,15.2,0.8l0-1
	c-5.6,0-10.5-0.3-15.1-0.7L393,23.4z M373,20.3c5.2,0.9,10,1.8,15,2.5l0.1-1c-5-0.7-9.8-1.6-15-2.5L373,20.3z M353,17.3
	c5.6,0.6,10.5,1.3,15,2.1l0.2-1c-4.5-0.8-9.5-1.5-15.1-2.1L353,17.3z M332.8,15.9c5.6,0.2,10.6,0.5,15.1,0.9l0.1-1
	c-4.6-0.4-9.6-0.7-15.2-0.9L332.8,15.9z M320.2,15.7c2.6,0,5.2,0,7.6,0.1l0-1c-2.4,0-5-0.1-7.6-0.1V15.7z M312.5,15.9
	c2.5-0.1,5.1-0.2,7.7-0.2v-1c-2.7,0-5.3,0.1-7.8,0.2L312.5,15.9z M292.1,18.2c4.7-0.9,9.8-1.6,15.3-2l-0.1-1
	c-5.5,0.4-10.6,1.2-15.4,2L292.1,18.2z M272.1,23.3c4.7-1.4,9.6-2.8,14.9-4l-0.2-1c-5.3,1.2-10.3,2.6-15,4L272.1,23.3z M252.5,29.5
	c4.9-1.4,9.7-3.1,14.8-4.7l-0.3-1c-5,1.6-9.9,3.2-14.7,4.7L252.5,29.5z M232.2,33.7c5.4-0.6,10.4-1.6,15.3-2.8l-0.3-1
	c-4.8,1.3-9.8,2.2-15.1,2.8L232.2,33.7z M211.5,33.6c5.6,0.6,10.7,0.7,15.5,0.5l0-1c-4.8,0.2-9.8,0.1-15.4-0.5L211.5,33.6z
	 M191.3,29.8c5.4,1.4,10.4,2.5,15.1,3.2l0.2-1c-4.7-0.7-9.6-1.8-15-3.2L191.3,29.8z M171.6,23.5c5.2,1.9,10.1,3.5,14.7,4.9l0.3-1
	c-4.6-1.3-9.4-3-14.6-4.9L171.6,23.5z M159.5,18.7c2.5,1,4.9,2,7.2,2.9l0.4-0.9c-2.3-0.9-4.7-1.9-7.2-2.9L159.5,18.7z M152.4,15.9
	c2.4,0.9,4.7,1.8,7.1,2.8l0.4-0.9c-2.4-1-4.8-1.9-7.1-2.8L152.4,15.9z M133.1,9.5c4.8,1.4,9.6,2.9,14.6,4.6l0.3-0.9
	c-4.9-1.8-9.8-3.3-14.6-4.7L133.1,9.5z M113.2,4.8c4.9,0.9,9.9,2,14.9,3.3l0.3-1c-5.1-1.3-10.1-2.4-15-3.3L113.2,4.8z M93.1,2
	c4.9,0.5,10,1.1,15.1,2l0.2-1c-5.2-0.9-10.3-1.5-15.2-2L93.1,2z M72.7,1c4.9,0,10,0.2,15.3,0.6l0.1-1C82.8,0.2,77.7,0,72.7,0L72.7,1
	z M52.4,1.9c4.8-0.4,9.9-0.7,15.2-0.8l0-1c-5.4,0.1-10.5,0.4-15.3,0.8L52.4,1.9z M32.2,4.6c4.6-0.8,9.7-1.6,15.1-2.2l-0.1-1
	C41.7,2,36.7,2.7,32,3.6L32.2,4.6z M12.4,9.3c4-1.2,9-2.5,14.8-3.7l-0.2-1c-5.8,1.2-10.8,2.5-14.9,3.7L12.4,9.3z M0.2,12.9
	c0.2,0.5,0.2,0.5,0.2,0.5l0,0l0,0l0,0c0,0,0,0,0,0c0,0,0,0,0,0c0,0,0,0,0.1,0c0.1,0,0.2-0.1,0.3-0.1c0.3-0.1,0.8-0.3,1.4-0.5
	c1.2-0.5,3-1.1,5.3-1.9L7.2,9.8c-2.3,0.8-4.1,1.4-5.4,1.9c-0.6,0.2-1.1,0.4-1.4,0.5c-0.2,0.1-0.3,0.1-0.4,0.1c0,0-0.1,0-0.1,0
	c0,0,0,0,0,0c0,0,0,0,0,0c0,0,0,0,0,0l0,0l0,0C0,12.5,0,12.5,0.2,12.9z M650.7,15.2l-0.1-0.5L650.7,15.2z"/>
</svg>
