<svg version="1.1" id="Isolation_Mode" xmlns="http://www.w3.org/2000/svg" xmlns:xlink="http://www.w3.org/1999/xlink" x="0px"
	 y="0px" viewBox="0 0 273 272.9" style="enable-background:new 0 0 273 272.9;" xml:space="preserve">
<path d="M264.6,247.8l-19.4,19.4c-3.5,3.5-13.6,5.6-13.9,5.6c-61.5,0.5-120.6-23.6-164.1-67.1C23.5,162.2-0.6,102.8,0,41.2
	c0,0,2.2-9.9,5.7-13.3L25.1,8.4C32.2,1.3,45.9-2,55.5,1.2l4.1,1.4c9.5,3.2,19.6,13.7,22.2,23.5l9.8,35.9c2.6,9.7-0.9,23.6-8,30.7
	l-13,13c12.7,47.1,49.7,84.1,96.9,96.9l13-13c7.1-7.1,21-10.7,30.7-8.1l35.9,9.8c9.7,2.7,20.3,12.6,23.5,22.2l1.4,4.1
	C274.9,227.1,271.7,240.8,264.6,247.8z"/>
</svg>
