<?xml version="1.0" encoding="iso-8859-1"?>
<!-- Generator: Adobe Illustrator 21.0.1, SVG Export Plug-In . SVG Version: 6.00 Build 0)  -->
<svg version="1.1" id="&#x421;&#x43B;&#x43E;&#x439;_1"
	 xmlns="http://www.w3.org/2000/svg" xmlns:xlink="http://www.w3.org/1999/xlink" x="0px" y="0px" viewBox="0 0 72 72.875"
	 style="enable-background:new 0 0 72 72.875;" xml:space="preserve">
<g>
	<g>
		<path style="fill:#FEFEFE;" d="M37.001,73.563c-11.314,0-22.628-0.057-33.941,0.053c-2.004,0.02-2.638-0.233-2.627-2.486
			C0.543,48.503,0.558,25.874,0.419,3.247C0.403,0.724,1.121,0.5,3.307,0.509C25.768,0.596,48.23,0.596,70.691,0.51
			c2.177-0.008,2.907,0.204,2.891,2.735c-0.141,22.627-0.125,45.256-0.015,67.883c0.011,2.247-0.615,2.509-2.624,2.489
			C59.63,73.505,48.315,73.563,37.001,73.563z"/>
		<path style="fill:#FE5723;" d="M6.686,59.6c1.852-3.608,3.817-7.163,5.523-10.839c1.499-3.232,3.173-3.482,5.544-0.903
			c2.13,2.317,4.366,4.538,7.254,7.523c2.992-8.87,5.728-16.922,8.422-24.987c2.839-8.501,2.867-8.552,8.982-2.29
			c1.737,1.778,3.12,3.902,4.952,6.232c3.448-5.109,5.981-9.208,8.875-13.034c2.107-2.785,2.63-4.815-1.141-6.393
			c-0.893-0.374-1.636-1.103-3.181-2.18c6.34-3.136,12.166-6.018,18.593-9.197c-0.388,6.464-0.722,12.228-1.085,17.99
			c-0.224,3.562-2.246,1.668-3.205,0.778c-3.205-2.978-4.919-1.538-6.789,1.568c-2.659,4.416-5.744,8.572-8.54,12.909
			c-1.588,2.462-3.208,2.609-5.183,0.534c-2.273-2.387-4.571-4.751-7.536-7.828c-3.177,9.537-6.026,18.114-8.892,26.685
			c-2.071,6.194-2.772,6.398-7.273,1.792c-1.961-2.007-3.675-4.256-6.069-7.059c-3.147,6.247-5.725,11.364-8.322,16.52
			c1.787,1.335,3.493,0.757,5.056,0.761c18.328,0.05,36.656,0.007,54.983,0.072c1.765,0.006,4.687-0.908,4.612,2.083
			c-0.073,2.891-2.956,2.031-4.777,2.036c-20.493,0.059-40.988-0.039-61.48,0.131c-3.665,0.031-4.463-1.223-4.438-4.644
			C1.72,47.701,1.648,27.54,1.662,7.379c0.001-1.328-0.002-2.67,0.18-3.98c0.151-1.084,0.902-1.757,2.072-1.748
			C5.186,1.66,5.644,2.573,5.734,3.607c0.13,1.49,0.11,2.995,0.111,4.493c0.006,17.079,0.004,34.158,0.004,51.236
			C6.128,59.424,6.407,59.512,6.686,59.6z"/>
	</g>
</g>
</svg>
