<?xml version="1.0" encoding="iso-8859-1"?>
<!-- Generator: Adobe Illustrator 21.0.1, SVG Export Plug-In . SVG Version: 6.00 Build 0)  -->
<svg version="1.1" id="&#x421;&#x43B;&#x43E;&#x439;_1"
	 xmlns="http://www.w3.org/2000/svg" xmlns:xlink="http://www.w3.org/1999/xlink" x="0px" y="0px" viewBox="0 0 71 71"
	 style="enable-background:new 0 0 71 71;" xml:space="preserve">
<g>
	<g>
		<path style="fill:#FE5722;" d="M72,29c0,5,0,10,0,15c-1.267,7.084-2.587,13.74-8.214,19.434C58.039,69.25,51.281,70.761,44,72
			c-5,0-10,0-15,0c-9.476-0.746-17.293-4.323-23.203-12.191C2.381,55.261,2.366,50,1,45c0-6,0-12,0-18
			c0.99-9.454,5.213-16.864,13.28-22.194C18.241,2.189,22.801,2.375,27,1c6,0,12,0,18,0c9.383,0.79,16.814,4.786,22.404,12.594
			C70.801,18.339,70.698,23.806,72,29z"/>
		<path style="fill:#FEFEFE;" d="M44,72c9.521-3.03,17.626-7.981,23.151-16.627C69.417,51.827,69.965,47.609,72,44
			c0,8.5-0.094,17.002,0.066,25.499c0.041,2.154-0.413,2.608-2.567,2.567C61.002,71.906,52.5,72,44,72z"/>
		<path style="fill:#FEFEFE;" d="M72,29c-2.063-4.978-3.623-10.123-6.968-14.574C59.862,7.548,52.713,3.925,45,1
			c8.167,0,16.335,0.098,24.499-0.066c2.154-0.043,2.608,0.413,2.567,2.567C71.906,11.998,72,20.5,72,29z"/>
		<path style="fill:#FEFEFE;" d="M1,45c3.232,9.14,8.083,16.984,16.638,22.234C21.235,69.442,25.363,70.07,29,72
			c-8.5,0-17.002-0.094-25.499,0.066c-2.154,0.041-2.61-0.413-2.567-2.567C1.098,61.335,1,53.167,1,45z"/>
		<path style="fill:#FEFEFE;" d="M27,1c-3.154,2.102-6.922,2.828-10.162,4.925C9.432,10.721,4.66,17.283,2.015,25.548
			C1.809,26.191,1.759,26.804,1,27c0-7.833,0.101-15.669-0.066-23.499C0.888,1.346,1.346,0.888,3.501,0.934
			C11.331,1.101,19.167,1,27,1z"/>
		<path style="fill:#FEFEFE;" d="M39.001,21.766c0.001-4.33,0.128-8.665-0.045-12.988c-0.107-2.672,1.138-3.199,3.303-2.639
			c13.209,3.419,22.4,11.989,24.611,26.473c1.824,11.951-5.016,24.496-16.718,30.901c-11.479,6.282-25.436,3.641-34.922-4.809
			c-1.837-1.637-3.51-2.805,0.159-4.97c7.005-4.131,13.44-9.217,20.339-13.544c2.462-1.544,3.422-3.16,3.314-5.936
			C38.88,30.097,39,25.929,39.001,21.766z"/>
		<path style="fill:#FEFEFE;" d="M5.912,37.332c-0.125-9.869,3.206-16.687,8.825-22.638c1.954-2.07,2.741-1.756,4.188,0.605
			c3.731,6.088,7.668,12.069,11.877,17.833c1.414,1.937,1.072,2.934-0.474,3.991c-6.302,4.312-12.658,8.544-18.987,12.817
			c-1.685,1.137-2.477,0.166-3.079-1.262C6.522,44.557,5.563,40.296,5.912,37.332z"/>
		<path style="fill:#FEFEFE;" d="M33.38,27.089c-3.654-5.514-6.811-10.57-10.298-15.387c-1.263-1.745-1.141-2.402,0.739-3.083
			c0.753-0.273,1.417-0.781,2.158-1.098c7.037-3.02,8.023-2.399,8.02,5.027c-0.001,4.296-0.006,8.592-0.031,12.888
			C33.966,25.717,33.777,25.997,33.38,27.089z"/>
	</g>
</g>
</svg>
