<svg width="1086" height="843" viewBox="0 0 1086 843" fill="none" xmlns="http://www.w3.org/2000/svg">
<g class="question">
	<g filter="url(#filter0_f)">
	<rect x="249.004" y="61.8787" width="182.812" height="193.914" rx="10" transform="rotate(-5.3443 249.004 61.8787)" fill="url(#paint0_linear)" fill-opacity="0.56"/>
	</g>
	<rect x="259.039" y="20.7127" width="222.367" height="222.367" rx="40" transform="rotate(-5.3443 259.039 20.7127)" fill="white"/>
	<mask id="mask0" mask-type="alpha" maskUnits="userSpaceOnUse" x="259" y="0" width="243" height="243">
	<rect x="259.051" y="20.7126" width="222.367" height="222.367" rx="28" transform="rotate(-5.3443 259.051 20.7126)" fill="white"/>
	</mask>
	<g mask="url(#mask0)">
	<path d="M336.428 69.6705C335.477 66.0022 336.115 51.4563 336.553 44.6418C341.093 42.9362 356.53 38.4159 381.544 40.6515C412.277 43.3982 433.164 67.345 425.989 92.2171C418.813 117.089 394.679 127.048 387.335 132.39C379.991 137.732 383.9 155.367 382.624 158.607C381.348 161.847 360.541 165.256 359.697 164.55C358.852 163.843 355.275 123.506 356.051 123.438C398.733 111.052 406.134 79.9058 385.709 69.9903C369.37 62.058 346.047 66.472 336.428 69.6705Z" fill="url(#paint1_linear)"/>
	<circle cx="368.158" cy="189.194" r="16.2974" transform="rotate(-5.06849 368.158 189.194)" fill="#C4C4C4"/>
	<circle cx="368.158" cy="189.194" r="16.2974" transform="rotate(-5.06849 368.158 189.194)" fill="url(#paint2_linear)"/>
	</g>
</g>
<g class="question">
	<g filter="url(#filter1_f)">
	<rect x="22.8672" y="496.885" width="101.876" height="108.063" rx="10" transform="rotate(-2.2231 22.8672 496.885)" fill="url(#paint3_linear)" fill-opacity="0.56"/>
	</g>
	<rect x="29.6953" y="474.283" width="123.92" height="123.92" rx="31" transform="rotate(-2.2231 29.6953 474.283)" fill="#FEC53F"/>
	<mask id="mask1" mask-type="alpha" maskUnits="userSpaceOnUse" x="29" y="469" width="130" height="130">
	<rect x="29.7109" y="474.283" width="123.92" height="123.92" rx="28" transform="rotate(-2.2231 29.7109 474.283)" fill="white"/>
	</mask>
	<g mask="url(#mask1)">
	<path d="M71.2823 503.874C70.8645 501.804 71.6611 493.729 72.1116 489.95C74.6893 489.139 83.4163 487.092 97.2674 489.095C114.286 491.556 125.182 505.515 120.434 519.137C115.687 532.76 101.955 537.569 97.7063 540.319C93.4576 543.068 95.0979 553 94.2894 554.764C93.481 556.528 81.8 557.794 81.3515 557.375C80.9031 556.956 80.1363 534.403 80.57 534.388C104.696 528.791 109.759 511.684 98.6952 505.547C89.8438 500.637 76.7318 502.386 71.2823 503.874Z" fill="white"/>
	<circle cx="85.3113" cy="571.345" r="9.08212" transform="rotate(-1.94728 85.3113 571.345)" fill="#C4C4C4"/>
	<circle cx="85.3113" cy="571.345" r="9.08212" transform="rotate(-1.94728 85.3113 571.345)" fill="white"/>
	</g>
</g>
<g class="question">
	<g filter="url(#filter2_f)">
	<rect x="83.7812" y="398.257" width="102.414" height="108.634" rx="10" transform="rotate(-20.2467 83.7812 398.257)" fill="url(#paint4_linear)" fill-opacity="0.56"/>
	</g>
	<rect x="83.2773" y="374.525" width="124.574" height="124.574" rx="31" transform="rotate(-20.2467 83.2773 374.525)" fill="#EA536E"/>
	<mask id="mask2" mask-type="alpha" maskUnits="userSpaceOnUse" x="83" y="331" width="161" height="161">
	<rect x="83.2891" y="374.523" width="124.574" height="124.574" rx="28" transform="rotate(-20.2467 83.2891 374.523)" fill="white"/>
	</mask>
	<g mask="url(#mask2)">
	<path d="M132.228 389.879C131.185 388.03 129.435 380.063 128.69 376.311C130.902 374.734 138.608 370.062 152.472 367.669C169.506 364.728 184.264 374.683 183.962 389.182C183.661 403.681 172.03 412.549 168.824 416.499C165.618 420.45 170.275 429.433 170.051 431.371C169.827 433.309 159.054 438.153 158.495 437.892C157.936 437.63 150.188 416.309 150.598 416.16C171.92 403.305 171.44 385.377 158.954 382.952C148.965 381.012 136.975 386.761 132.228 389.879Z" fill="white"/>
	<circle cx="166.633" cy="450.014" r="9.13009" transform="rotate(-19.9709 166.633 450.014)" fill="#C4C4C4"/>
	<circle cx="166.633" cy="450.014" r="9.13009" transform="rotate(-19.9709 166.633 450.014)" fill="white"/>
	</g>
</g>
<g class="question">
	<g opacity="0.4">
	<g filter="url(#filter3_f)">
	<rect x="753.852" y="519.463" width="107.473" height="114" rx="10" transform="rotate(-8.66619 753.852 519.463)" fill="url(#paint5_linear)" fill-opacity="0.56"/>
	</g>
	<rect x="758.336" y="494.961" width="130.727" height="130.727" rx="31" transform="rotate(-8.66619 758.336 494.961)" fill="white"/>
	<mask id="mask3" mask-type="alpha" maskUnits="userSpaceOnUse" x="758" y="475" width="150" height="150">
	<rect x="758.352" y="494.96" width="130.727" height="130.727" rx="28" transform="rotate(-8.66619 758.352 494.96)" fill="white"/>
	</mask>
	<g mask="url(#mask3)">
	<path d="M805.432 521.058C804.75 518.937 804.629 510.378 804.654 506.364C807.26 505.208 816.166 502.03 830.923 502.49C849.054 503.055 862.128 516.398 858.764 531.24C855.4 546.081 841.575 552.748 837.446 556.134C833.318 559.519 836.213 569.736 835.575 571.681C834.936 573.626 822.841 576.336 822.321 575.95C821.802 575.564 818.328 552.012 818.781 551.945C843.409 543.222 846.692 524.69 834.367 519.567C824.507 515.468 810.969 518.853 805.432 521.058Z" fill="#FDC43F"/>
	<circle cx="828.127" cy="590.125" r="9.58107" transform="rotate(-8.39037 828.127 590.125)" fill="#C4C4C4"/>
	<circle cx="828.127" cy="590.125" r="9.58107" transform="rotate(-8.39037 828.127 590.125)" fill="#FDC43F"/>
	</g>
	</g>
</g>
<g class="question">
	<g filter="url(#filter4_f)">
	<rect x="395.516" y="272.398" width="129.329" height="137.183" rx="10" transform="rotate(15.8519 395.516 272.398)" fill="url(#paint6_linear)" fill-opacity="0.56"/>
	</g>
	<rect x="412.664" y="247.812" width="157.313" height="157.313" rx="31" transform="rotate(15.8519 412.664 247.812)" fill="#EA536E"/>
	<mask id="mask4" mask-type="alpha" maskUnits="userSpaceOnUse" x="369" y="247" width="196" height="196">
	<rect x="412.676" y="247.817" width="157.313" height="157.313" rx="28" transform="rotate(15.8519 412.676 247.817)" fill="white"/>
	</mask>
	<g mask="url(#mask4)">
	<path d="M451.192 299.901C451.503 297.238 455.645 287.807 457.677 283.424C461.107 283.461 472.445 284.428 488.372 292.3C507.941 301.973 515.593 323.111 504.498 337.681C493.403 352.251 474.937 352.646 468.727 354.291C462.516 355.936 460.584 368.568 458.914 370.378C457.243 372.189 442.648 369.116 442.271 368.434C441.895 367.751 449.853 340.231 450.382 340.384C481.703 343.132 494.551 324.482 483.616 312.717C474.867 303.306 458.355 300.252 451.192 299.901Z" fill="white"/>
	<circle cx="441.549" cy="386.853" r="11.5295" transform="rotate(16.1277 441.549 386.853)" fill="#C4C4C4"/>
	<circle cx="441.549" cy="386.853" r="11.5295" transform="rotate(16.1277 441.549 386.853)" fill="white"/>
	</g>
</g>
<g class="question">
	<g opacity="0.5">
	<g filter="url(#filter5_f)">
	<rect x="184.848" y="660.258" width="142.542" height="151.198" rx="10" transform="rotate(15.8519 184.848 660.258)" fill="url(#paint7_linear)" fill-opacity="0.56"/>
	</g>
	<rect x="203.75" y="633.16" width="173.384" height="173.384" rx="31" transform="rotate(15.8519 203.75 633.16)" fill="#EA536E"/>
	<mask id="mask5" mask-type="alpha" maskUnits="userSpaceOnUse" x="156" y="633" width="215" height="215">
	<rect x="203.758" y="633.165" width="173.384" height="173.384" rx="28" transform="rotate(15.8519 203.758 633.165)" fill="white"/>
	</mask>
	<g mask="url(#mask5)">
	<path d="M246.205 690.57C246.548 687.635 251.113 677.241 253.352 672.41C257.133 672.45 269.63 673.516 287.184 682.193C308.752 692.854 317.185 716.151 304.957 732.209C292.728 748.268 272.376 748.703 265.531 750.516C258.686 752.33 256.557 766.252 254.715 768.247C252.874 770.243 236.788 766.856 236.373 766.104C235.958 765.352 244.729 735.02 245.312 735.189C279.833 738.218 293.994 717.662 281.941 704.696C272.299 694.323 254.099 690.956 246.205 690.57Z" fill="white"/>
	<circle cx="235.58" cy="786.405" r="12.7074" transform="rotate(16.1277 235.58 786.405)" fill="#C4C4C4"/>
	<circle cx="235.58" cy="786.405" r="12.7074" transform="rotate(16.1277 235.58 786.405)" fill="white"/>
	</g>
	</g>
</g>
<g class="question">
	<g filter="url(#filter6_f)">
	<rect x="517.98" y="57.6816" width="97.3401" height="103.251" rx="10" transform="rotate(0.878844 517.98 57.6816)" fill="url(#paint8_linear)" fill-opacity="0.56"/>
	</g>
	<rect x="525.672" y="36.4705" width="118.402" height="118.402" rx="31" transform="rotate(0.878844 525.672 36.4705)" fill="#FDC43F"/>
	<mask id="mask6" mask-type="alpha" maskUnits="userSpaceOnUse" x="523" y="36" width="122" height="121">
	<rect x="525.684" y="36.4717" width="118.402" height="118.402" rx="28" transform="rotate(0.878844 525.684 36.4717)" fill="white"/>
	</mask>
	<g mask="url(#mask6)">
	<path d="M563.816 66.8523C563.524 64.8557 564.702 57.1931 565.327 53.6113C567.828 52.9705 576.26 51.4688 589.372 54.0959C605.481 57.3238 615.155 71.2049 609.921 83.9561C604.687 96.7074 591.338 100.586 587.142 102.989C582.946 105.393 583.998 114.953 583.135 116.595C582.273 118.236 571.063 118.84 570.656 118.417C570.25 117.994 570.685 96.4368 571.099 96.4451C594.407 92.3528 600.122 76.2935 589.883 69.8661C581.692 64.7242 569.092 65.7145 563.816 66.8523Z" fill="white"/>
	<circle cx="573.712" cy="131.95" r="8.67773" transform="rotate(1.15466 573.712 131.95)" fill="#C4C4C4"/>
	<circle cx="573.712" cy="131.95" r="8.67773" transform="rotate(1.15466 573.712 131.95)" fill="white"/>
	</g>
</g>
<g class="question">
	<g filter="url(#filter7_f)">
	<rect x="726.465" y="107.676" width="115.688" height="122.713" rx="10" transform="rotate(-18.5254 726.465 107.676)" fill="url(#paint9_linear)" fill-opacity="0.56"/>
	</g>
	<rect x="726.707" y="80.8635" width="140.719" height="140.719" rx="31" transform="rotate(-18.5254 726.707 80.8635)" fill="#FDC43F"/>
	<mask id="mask7" mask-type="alpha" maskUnits="userSpaceOnUse" x="726" y="36" width="179" height="179">
	<rect x="726.719" y="80.8607" width="140.719" height="140.719" rx="28" transform="rotate(-18.5254 726.719 80.8607)" fill="white"/>
	</mask>
	<g mask="url(#mask7)">
	<path d="M781.466 99.8601C780.351 97.7371 778.645 88.6825 777.932 84.4206C780.483 82.7146 789.342 77.7019 805.077 75.4697C824.41 72.7272 840.735 84.4679 839.903 100.828C839.07 117.189 825.637 126.807 821.883 131.159C818.129 135.51 823.082 145.812 822.764 147.992C822.445 150.173 810.117 155.276 809.495 154.962C808.872 154.648 800.847 130.311 801.315 130.157C825.827 116.367 825.892 96.1079 811.877 92.9457C800.665 90.416 786.931 96.5013 781.466 99.8601Z" fill="white"/>
	<circle cx="818.263" cy="168.926" r="10.3134" transform="rotate(-18.2496 818.263 168.926)" fill="#C4C4C4"/>
	<circle cx="818.263" cy="168.926" r="10.3134" transform="rotate(-18.2496 818.263 168.926)" fill="white"/>
	</g>
</g>
<g class="question">
	<g opacity="0.4">
	<g filter="url(#filter8_f)">
	<rect x="833.418" y="214.06" width="115.688" height="122.713" rx="10" transform="rotate(-3.01829 833.418 214.06)" fill="url(#paint10_linear)" fill-opacity="0.56"/>
	</g>
	<rect x="840.812" y="188.288" width="140.719" height="140.719" rx="31" transform="rotate(-3.01829 840.812 188.288)" fill="#1E8165"/>
	<rect x="840.812" y="188.288" width="140.719" height="140.719" rx="31" transform="rotate(-3.01829 840.812 188.288)" fill="url(#paint11_linear)"/>
	<mask id="mask8" mask-type="alpha" maskUnits="userSpaceOnUse" x="840" y="180" width="149" height="149">
	<rect x="840.828" y="188.289" width="140.719" height="140.719" rx="28" transform="rotate(-3.01829 840.828 188.289)" fill="white"/>
	</mask>
	<g mask="url(#mask8)">
	<path d="M888.499 221.232C887.992 218.889 888.769 209.707 889.221 205.41C892.135 204.448 902.012 201.986 917.771 204.042C937.133 206.568 949.725 222.246 944.549 237.789C939.373 253.331 923.857 259.008 919.076 262.197C914.295 265.387 916.314 276.637 915.424 278.654C914.534 280.67 901.291 282.291 900.775 281.822C900.259 281.354 899.033 255.757 899.525 255.733C926.831 248.998 932.311 229.494 919.651 222.7C909.523 217.265 894.663 219.457 888.499 221.232Z" fill="white"/>
	<circle cx="905.49" cy="297.622" r="10.3134" transform="rotate(-2.74248 905.49 297.622)" fill="#C4C4C4"/>
	<circle cx="905.49" cy="297.622" r="10.3134" transform="rotate(-2.74248 905.49 297.622)" fill="white"/>
	</g>
	</g>
</g>
<g class="question">
	<g opacity="0.4">
	<g filter="url(#filter9_f)">
	<rect x="930.262" y="423.386" width="115.688" height="122.713" rx="10" transform="rotate(-3.01829 930.262 423.386)" fill="url(#paint12_linear)" fill-opacity="0.56"/>
	</g>
	<rect x="937.66" y="397.614" width="140.719" height="140.719" rx="31" transform="rotate(-3.01829 937.66 397.614)" fill="#FDC43F"/>
	<mask id="mask9" mask-type="alpha" maskUnits="userSpaceOnUse" x="937" y="390" width="149" height="149">
	<rect x="937.68" y="397.614" width="140.719" height="140.719" rx="28" transform="rotate(-3.01829 937.68 397.614)" fill="white"/>
	</mask>
	<g mask="url(#mask9)">
	<path d="M985.35 430.558C984.843 428.214 985.62 419.033 986.072 414.736C988.986 413.774 998.863 411.312 1014.62 413.368C1033.98 415.894 1046.58 431.572 1041.4 447.114C1036.22 462.657 1020.71 468.334 1015.93 471.523C1011.15 474.712 1013.17 485.963 1012.28 487.979C1011.39 489.995 998.142 491.616 997.626 491.148C997.111 490.679 995.885 465.083 996.377 465.059C1023.68 458.324 1029.16 438.82 1016.5 432.026C1006.37 426.591 991.514 428.783 985.35 430.558Z" fill="white"/>
	<circle cx="1002.34" cy="506.948" r="10.3134" transform="rotate(-2.74248 1002.34 506.948)" fill="#C4C4C4"/>
	<circle cx="1002.34" cy="506.948" r="10.3134" transform="rotate(-2.74248 1002.34 506.948)" fill="white"/>
	</g>
	</g>
</g>
<g class="question">
	<g opacity="0.4">
	<g filter="url(#filter10_f)">
	<rect x="906.57" y="633.275" width="125.379" height="132.993" rx="10" transform="rotate(17.6677 906.57 633.275)" fill="url(#paint13_linear)" fill-opacity="0.56"/>
	</g>
	<rect x="923.938" y="609.979" width="152.508" height="152.508" rx="31" transform="rotate(17.6677 923.938 609.979)" fill="#1E8165"/>
	<rect x="923.938" y="609.979" width="152.508" height="152.508" rx="31" transform="rotate(17.6677 923.938 609.979)" fill="url(#paint14_linear)"/>
	<mask id="mask10" mask-type="alpha" maskUnits="userSpaceOnUse" x="877" y="609" width="193" height="193">
	<rect x="923.949" y="609.984" width="152.508" height="152.508" rx="28" transform="rotate(17.6677 923.949 609.984)" fill="white"/>
	</mask>
	<g mask="url(#mask10)">
	<path d="M959.669 661.635C960.053 659.065 964.356 650.054 966.459 645.87C969.782 646.01 980.739 647.295 995.929 655.413C1014.59 665.387 1021.36 686.104 1010.16 699.88C998.963 713.657 981.058 713.473 974.989 714.876C968.921 716.28 966.661 728.46 964.986 730.163C963.312 731.867 949.264 728.44 948.92 727.767C948.577 727.095 957.133 700.673 957.641 700.838C987.905 704.463 1000.93 686.785 990.693 675.05C982.505 665.662 966.599 662.195 959.669 661.635Z" fill="white"/>
	<circle cx="947.655" cy="745.594" r="11.1774" transform="rotate(17.9435 947.655 745.594)" fill="#C4C4C4"/>
	<circle cx="947.655" cy="745.594" r="11.1774" transform="rotate(17.9435 947.655 745.594)" fill="white"/>
	</g>
	</g>
</g>
<g class="question">
	<g opacity="0.7">
	<g filter="url(#filter11_f)">
	<rect x="616.309" y="668.362" width="125.379" height="132.993" rx="10" transform="rotate(17.6677 616.309 668.362)" fill="url(#paint15_linear)" fill-opacity="0.56"/>
	</g>
	<rect x="633.676" y="645.065" width="152.508" height="152.508" rx="31" transform="rotate(17.6677 633.676 645.065)" fill="#FDC43F"/>
	<mask id="mask11" mask-type="alpha" maskUnits="userSpaceOnUse" x="587" y="645" width="193" height="192">
	<rect x="633.688" y="645.071" width="152.508" height="152.508" rx="28" transform="rotate(17.6677 633.688 645.071)" fill="white"/>
	</mask>
	<g mask="url(#mask11)">
	<path d="M669.408 696.722C669.791 694.151 674.094 685.14 676.197 680.956C679.52 681.096 690.477 682.382 705.668 690.499C724.332 700.473 731.097 721.19 719.899 734.967C708.701 748.744 690.796 748.56 684.728 749.963C678.659 751.366 676.399 763.546 674.725 765.25C673.05 766.953 659.002 763.527 658.659 762.854C658.315 762.181 666.871 735.759 667.379 735.924C697.643 739.549 710.666 721.872 700.431 710.137C692.244 700.749 676.337 697.282 669.408 696.722Z" fill="white"/>
	<circle cx="657.397" cy="780.68" r="11.1774" transform="rotate(17.9435 657.397 780.68)" fill="#C4C4C4"/>
	<circle cx="657.397" cy="780.68" r="11.1774" transform="rotate(17.9435 657.397 780.68)" fill="white"/>
	</g>
	</g>
</g>
<g class="question">
	<g filter="url(#filter12_f)">
	<rect x="564.258" y="235.538" width="119.439" height="126.692" rx="10" transform="rotate(-23.7026 564.258 235.538)" fill="url(#paint16_linear)" fill-opacity="0.56"/>
	</g>
	<rect x="562.004" y="207.946" width="145.282" height="145.282" rx="31" transform="rotate(-23.7026 562.004 207.946)" fill="white"/>
	<mask id="mask12" mask-type="alpha" maskUnits="userSpaceOnUse" x="562" y="149" width="192" height="192">
	<rect x="562.016" y="207.943" width="145.282" height="145.282" rx="28" transform="rotate(-23.7026 562.016 207.943)" fill="white"/>
	</mask>
	<g mask="url(#mask12)">
	<path d="M620.071 222.378C618.727 220.299 616.129 211.148 614.999 206.832C617.463 204.841 626.105 198.861 642.076 195.1C661.699 190.479 679.578 201.03 680.247 217.93C680.915 234.829 667.999 245.971 664.544 250.795C661.09 255.618 667.143 265.749 667.018 268.021C666.894 270.293 654.693 276.688 654.024 276.424C653.355 276.159 642.836 251.883 643.303 251.681C667.221 235.218 665.402 214.381 650.696 212.436C638.932 210.879 625.378 218.415 620.071 222.378Z" fill="#1E8165"/>
	<circle cx="664.343" cy="289.964" r="10.6478" transform="rotate(-23.4268 664.343 289.964)" fill="#C4C4C4"/>
	<circle cx="664.343" cy="289.964" r="10.6478" transform="rotate(-23.4268 664.343 289.964)" fill="#1E8165"/>
	</g>
</g>
<g class="question">
	<g opacity="0.4">
	<g filter="url(#filter13_f)">
	<rect x="714.738" y="360.243" width="112.562" height="119.397" rx="10" transform="rotate(-27.0271 714.738 360.243)" fill="url(#paint17_linear)" fill-opacity="0.56"/>
	</g>
	<rect x="711.113" y="334.407" width="136.917" height="136.917" rx="31" transform="rotate(-27.0271 711.113 334.407)" fill="#EA536E"/>
	<mask id="mask13" mask-type="alpha" maskUnits="userSpaceOnUse" x="711" y="272" width="185" height="185">
	<rect x="711.125" y="334.403" width="136.917" height="136.917" rx="28" transform="rotate(-27.0271 711.125 334.403)" fill="#EA536E"/>
	</mask>
	<g mask="url(#mask13)">
	<path d="M766.535 344.812C765.156 342.929 762.212 334.462 760.913 330.463C763.122 328.454 770.926 322.356 785.747 317.945C803.956 312.525 821.354 321.475 822.907 337.338C824.46 353.201 812.916 364.389 809.93 369.117C806.943 373.844 813.191 383.044 813.198 385.189C813.205 387.333 802.077 394.017 801.433 393.804C800.789 393.592 789.565 371.327 789.994 371.111C811.597 354.315 808.746 334.811 794.804 333.784C783.651 332.962 771.311 340.794 766.535 344.812Z" fill="white"/>
	<circle cx="811.884" cy="405.98" r="10.0347" transform="rotate(-26.7513 811.884 405.98)" fill="#C4C4C4"/>
	<circle cx="811.884" cy="405.98" r="10.0347" transform="rotate(-26.7513 811.884 405.98)" fill="white"/>
	</g>
	</g>
</g>
<g class="question">
	<g filter="url(#filter14_f)">
	<rect x="59.6914" y="136.349" width="100.145" height="106.226" rx="10" transform="rotate(11.2288 59.6914 136.349)" fill="url(#paint18_linear)" fill-opacity="0.56"/>
	</g>
	<rect x="71.3906" y="116.303" width="121.814" height="121.814" rx="31" transform="rotate(11.2288 71.3906 116.303)" fill="#FDC43F"/>
	<mask id="mask14" mask-type="alpha" maskUnits="userSpaceOnUse" x="47" y="116" width="144" height="144">
	<rect x="71.4062" y="116.306" width="121.814" height="121.814" rx="28" transform="rotate(11.2288 71.4062 116.306)" fill="white"/>
	</mask>
	<g mask="url(#mask14)">
	<path d="M104.385 154.101C104.459 152.027 107.067 144.489 108.362 140.98C111.012 140.794 119.823 140.832 132.607 145.915C148.315 152.159 155.54 167.996 147.886 179.934C140.232 191.872 126.004 193.329 121.313 194.986C116.623 196.644 115.92 206.514 114.743 208.016C113.567 209.518 102.11 208.056 101.777 207.553C101.444 207.05 105.869 185.313 106.287 185.398C130.632 185.564 139.385 170.367 130.21 161.97C122.871 155.252 109.935 153.925 104.385 154.101Z" fill="white"/>
	<circle cx="102.366" cy="221.815" r="8.92778" transform="rotate(11.5046 102.366 221.815)" fill="#C4C4C4"/>
	<circle cx="102.366" cy="221.815" r="8.92778" transform="rotate(11.5046 102.366 221.815)" fill="white"/>
	</g>
</g>
<g class="question">
	<g filter="url(#filter15_f)">
	<rect x="422.953" y="476.92" width="110.153" height="116.843" rx="10" transform="rotate(6.33007 422.953 476.92)" fill="url(#paint19_linear)" fill-opacity="0.56"/>
	</g>
	<rect x="433.895" y="453.852" width="133.988" height="133.988" rx="31" transform="rotate(6.33007 433.895 453.852)" fill="#FEC53F"/>
	<mask id="mask15" mask-type="alpha" maskUnits="userSpaceOnUse" x="419" y="453" width="149" height="149">
	<rect x="433.906" y="453.854" width="133.988" height="133.988" rx="28" transform="rotate(6.33007 433.906 453.854)" fill="white"/>
	</mask>
	<g mask="url(#mask15)">
	<path d="M473.597 492.178C473.483 489.897 475.633 481.392 476.722 477.424C479.609 476.971 489.269 476.186 503.757 480.555C521.558 485.923 530.963 502.6 523.696 516.402C516.43 530.204 500.974 533.138 495.989 535.395C491.004 537.651 491.161 548.534 490.013 550.291C488.865 552.047 476.172 551.522 475.759 551.002C475.347 550.482 478.154 526.244 478.62 526.298C505.317 524.193 513.481 506.717 502.638 498.375C493.964 491.702 479.663 491.463 473.597 492.178Z" fill="white"/>
	<circle cx="477.746" cy="566.576" r="9.82001" transform="rotate(6.60588 477.746 566.576)" fill="#C4C4C4"/>
	<circle cx="477.746" cy="566.576" r="9.82001" transform="rotate(6.60588 477.746 566.576)" fill="white"/>
	</g>
</g>
<g class="question">
	<g filter="url(#filter16_f)">
	<rect x="372.387" y="618.024" width="113.716" height="120.622" rx="10" transform="rotate(-2.2231 372.387 618.024)" fill="url(#paint20_linear)" fill-opacity="0.56"/>
	</g>
	<rect x="380.012" y="592.795" width="138.321" height="138.321" rx="31" transform="rotate(-2.2231 380.012 592.795)" fill="white"/>
	<mask id="mask16" mask-type="alpha" maskUnits="userSpaceOnUse" x="380" y="587" width="144" height="145">
	<rect x="380.027" y="592.796" width="138.321" height="138.321" rx="28" transform="rotate(-2.2231 380.027 592.796)" fill="white"/>
	</mask>
	<g mask="url(#mask16)">
	<path d="M426.432 625.825C425.966 623.514 426.855 614.501 427.358 610.283C430.235 609.378 439.976 607.093 455.437 609.329C474.433 612.076 486.596 627.657 481.296 642.862C475.997 658.068 460.67 663.436 455.927 666.505C451.185 669.575 453.016 680.66 452.113 682.63C451.211 684.599 438.172 686.012 437.672 685.544C437.171 685.076 436.315 659.902 436.799 659.885C463.729 653.638 469.381 634.543 457.031 627.693C447.151 622.212 432.515 624.164 426.432 625.825Z" fill="#E73D5C"/>
	<circle cx="442.09" cy="701.138" r="10.1376" transform="rotate(-1.94728 442.09 701.138)" fill="#C4C4C4"/>
	<circle cx="442.09" cy="701.138" r="10.1376" transform="rotate(-1.94728 442.09 701.138)" fill="#E73D5C"/>
	</g>
</g>
<g class="question">
	<g filter="url(#filter17_f)">
	<rect x="531.688" y="592.736" width="110.153" height="116.843" rx="10" transform="rotate(-20.2467 531.688 592.736)" fill="url(#paint21_linear)" fill-opacity="0.56"/>
	</g>
	<rect x="531.152" y="567.211" width="133.988" height="133.988" rx="31" transform="rotate(-20.2467 531.152 567.211)" fill="#1E8165"/>
	<rect x="531.152" y="567.211" width="133.988" height="133.988" rx="31" transform="rotate(-20.2467 531.152 567.211)" fill="url(#paint22_linear)"/>
	<mask id="mask17" mask-type="alpha" maskUnits="userSpaceOnUse" x="531" y="520" width="173" height="173">
	<rect x="531.16" y="567.208" width="133.988" height="133.988" rx="28" transform="rotate(-20.2467 531.16 567.208)" fill="white"/>
	</mask>
	<g mask="url(#mask17)">
	<path d="M583.802 583.725C582.68 581.736 580.798 573.167 579.997 569.131C582.376 567.435 590.664 562.411 605.575 559.836C623.897 556.673 639.77 567.38 639.446 582.975C639.122 598.569 626.612 608.108 623.163 612.357C619.715 616.605 624.724 626.268 624.483 628.352C624.242 630.437 612.655 635.646 612.054 635.365C611.453 635.085 603.119 612.152 603.56 611.992C626.494 598.166 625.977 578.883 612.547 576.274C601.804 574.187 588.907 580.372 583.802 583.725Z" fill="white"/>
	<circle cx="620.798" cy="648.404" r="9.82001" transform="rotate(-19.9709 620.798 648.404)" fill="#C4C4C4"/>
	<circle cx="620.798" cy="648.404" r="9.82001" transform="rotate(-19.9709 620.798 648.404)" fill="white"/>
	</g>
</g>
<g class="question">
	<g filter="url(#filter18_f)">
	<rect x="144.086" y="240.533" width="135.596" height="143.83" rx="10" transform="rotate(-15 144.086 240.533)" fill="url(#paint23_linear)" fill-opacity="0.56"/>
	</g>
	<rect x="146.305" y="209.183" width="164.935" height="164.935" rx="31" transform="rotate(-15 146.305 209.183)" fill="#1E8165"/>
	<rect x="146.305" y="209.183" width="164.935" height="164.935" rx="31" transform="rotate(-15 146.305 209.183)" fill="url(#paint24_linear)"/>
	<mask id="mask18" mask-type="alpha" maskUnits="userSpaceOnUse" x="146" y="166" width="203" height="203">
	<rect x="146.32" y="209.181" width="164.935" height="164.935" rx="28" transform="rotate(-15 146.32 209.181)" fill="white"/>
	</mask>
	<g mask="url(#mask18)">
	<path d="M208.991 235.353C207.839 232.789 206.496 222.074 205.969 217.036C209.076 215.224 219.801 209.999 238.37 208.521C261.185 206.706 279.437 221.618 277.284 240.698C275.132 259.777 258.723 270.062 254.018 274.881C249.312 279.701 254.365 292.11 253.835 294.638C253.305 297.166 238.515 302.247 237.809 301.835C237.104 301.424 229.47 272.374 230.029 272.227C259.698 257.861 261.234 234.166 245.066 229.456C232.132 225.689 215.627 231.818 208.991 235.353Z" fill="white"/>
	<circle cx="247.064" cy="318.803" r="12.0882" transform="rotate(-14.7242 247.064 318.803)" fill="#C4C4C4"/>
	<circle cx="247.064" cy="318.803" r="12.0882" transform="rotate(-14.7242 247.064 318.803)" fill="white"/>
	</g>
</g>
<g class="question">
	<g filter="url(#filter19_f)">
	<rect x="608.184" y="395.304" width="136.481" height="144.77" rx="10" transform="rotate(17.6677 608.184 395.304)" fill="url(#paint25_linear)" fill-opacity="0.56"/>
	</g>
	<rect x="627.094" y="369.944" width="166.012" height="166.012" rx="31" transform="rotate(17.6677 627.094 369.944)" fill="url(#paint26_linear)"/>
	<mask id="mask19" mask-type="alpha" maskUnits="userSpaceOnUse" x="576" y="369" width="210" height="210">
	<rect x="627.109" y="369.951" width="166.012" height="166.012" rx="28" transform="rotate(17.6677 627.109 369.951)" fill="white"/>
	</mask>
	<g mask="url(#mask19)">
	<path d="M665.991 426.176C666.409 423.377 671.093 413.568 673.382 409.014C677 409.166 688.926 410.566 705.462 419.402C725.78 430.259 733.144 452.81 720.954 467.807C708.764 482.804 689.274 482.604 682.668 484.131C676.062 485.659 673.602 498.917 671.779 500.771C669.957 502.626 654.665 498.896 654.291 498.164C653.917 497.431 663.23 468.67 663.784 468.849C696.728 472.795 710.903 453.553 699.762 440.778C690.85 430.559 673.535 426.785 665.991 426.176Z" fill="white"/>
	<circle cx="652.917" cy="517.568" r="12.1671" transform="rotate(17.9435 652.917 517.568)" fill="#C4C4C4"/>
	<circle cx="652.917" cy="517.568" r="12.1671" transform="rotate(17.9435 652.917 517.568)" fill="white"/>
	</g>
</g>
<g class="question">
	<g filter="url(#filter20_f)">
	<rect x="248.949" y="397.067" width="125.576" height="133.202" rx="10" transform="rotate(-3.24 248.949 397.067)" fill="url(#paint27_linear)" fill-opacity="0.56"/>
	</g>
	<rect x="256.875" y="369.062" width="152.747" height="152.747" rx="31" transform="rotate(-3.24 256.875 369.062)" fill="url(#paint28_linear)"/>
	<mask id="mask20" mask-type="alpha" maskUnits="userSpaceOnUse" x="256" y="360" width="163" height="162">
	<rect x="256.887" y="369.063" width="152.747" height="152.747" rx="28" transform="rotate(-3.24 256.887 369.063)" fill="white"/>
	</mask>
	<g mask="url(#mask20)">
	<path d="M308.769 404.621C308.209 402.079 309.014 392.11 309.486 387.443C312.645 386.387 323.356 383.673 340.471 385.839C361.499 388.5 375.233 405.465 369.679 422.357C364.126 439.25 347.308 445.477 342.132 448.959C336.956 452.441 339.195 464.645 338.237 466.837C337.279 469.029 322.911 470.845 322.349 470.338C321.787 469.831 320.349 442.052 320.883 442.025C350.495 434.599 356.36 413.405 342.59 406.084C331.574 400.226 315.453 402.668 308.769 404.621Z" fill="white"/>
	<circle cx="327.536" cy="487.469" r="11.1949" transform="rotate(-2.96419 327.536 487.469)" fill="#C4C4C4"/>
	<circle cx="327.536" cy="487.469" r="11.1949" transform="rotate(-2.96419 327.536 487.469)" fill="white"/>
	</g>
</g>
<g class="question">
	<g filter="url(#filter21_f)">
	<rect x="151.406" y="527.174" width="110.153" height="116.843" rx="10" transform="rotate(-16.45 151.406 527.174)" fill="url(#paint29_linear)" fill-opacity="0.56"/>
	</g>
	<rect x="152.559" y="501.67" width="133.988" height="133.988" rx="31" transform="rotate(-16.45 152.559 501.67)" fill="url(#paint30_linear)"/>
	<mask id="mask21" mask-type="alpha" maskUnits="userSpaceOnUse" x="152" y="463" width="168" height="168">
	<rect x="152.57" y="501.667" width="133.988" height="133.988" rx="28" transform="rotate(-16.45 152.57 501.667)" fill="white"/>
	</mask>
	<g mask="url(#mask21)">
	<path d="M204.005 521.632C203.017 519.573 201.706 510.899 201.174 506.819C203.661 505.283 212.263 500.819 227.313 499.238C245.803 497.295 260.932 509.029 259.576 524.568C258.22 540.107 245.107 548.796 241.384 552.807C237.662 556.818 242.02 566.791 241.642 568.855C241.263 570.919 229.357 575.35 228.775 575.03C228.194 574.71 221.397 551.276 221.848 551.145C245.647 538.868 246.408 519.593 233.181 516.101C222.599 513.307 209.321 518.624 204.005 521.632Z" fill="white"/>
	<circle cx="236.636" cy="588.621" r="9.82001" transform="rotate(-16.1742 236.636 588.621)" fill="#C4C4C4"/>
	<circle cx="236.636" cy="588.621" r="9.82001" transform="rotate(-16.1742 236.636 588.621)" fill="white"/>
	</g>
</g>
<defs>
<filter id="filter0_f" x="227.004" y="22.8515" width="244.078" height="254.098" filterUnits="userSpaceOnUse" color-interpolation-filters="sRGB">
<feFlood flood-opacity="0" result="BackgroundImageFix"/>
<feBlend mode="normal" in="SourceGraphic" in2="BackgroundImageFix" result="shape"/>
<feGaussianBlur stdDeviation="11" result="effect1_foregroundBlur"/>
</filter>
<filter id="filter1_f" x="0.867188" y="470.933" width="149.991" height="155.934" filterUnits="userSpaceOnUse" color-interpolation-filters="sRGB">
<feFlood flood-opacity="0" result="BackgroundImageFix"/>
<feBlend mode="normal" in="SourceGraphic" in2="BackgroundImageFix" result="shape"/>
<feGaussianBlur stdDeviation="11" result="effect1_foregroundBlur"/>
</filter>
<filter id="filter2_f" x="61.7812" y="340.815" width="177.68" height="181.363" filterUnits="userSpaceOnUse" color-interpolation-filters="sRGB">
<feFlood flood-opacity="0" result="BackgroundImageFix"/>
<feBlend mode="normal" in="SourceGraphic" in2="BackgroundImageFix" result="shape"/>
<feGaussianBlur stdDeviation="11" result="effect1_foregroundBlur"/>
</filter>
<filter id="filter3_f" x="731.852" y="481.269" width="167.423" height="172.892" filterUnits="userSpaceOnUse" color-interpolation-filters="sRGB">
<feFlood flood-opacity="0" result="BackgroundImageFix"/>
<feBlend mode="normal" in="SourceGraphic" in2="BackgroundImageFix" result="shape"/>
<feGaussianBlur stdDeviation="11" result="effect1_foregroundBlur"/>
</filter>
<filter id="filter4_f" x="336.043" y="250.398" width="205.883" height="211.293" filterUnits="userSpaceOnUse" color-interpolation-filters="sRGB">
<feFlood flood-opacity="0" result="BackgroundImageFix"/>
<feBlend mode="normal" in="SourceGraphic" in2="BackgroundImageFix" result="shape"/>
<feGaussianBlur stdDeviation="11" result="effect1_foregroundBlur"/>
</filter>
<filter id="filter5_f" x="121.547" y="638.258" width="222.421" height="228.384" filterUnits="userSpaceOnUse" color-interpolation-filters="sRGB">
<feFlood flood-opacity="0" result="BackgroundImageFix"/>
<feBlend mode="normal" in="SourceGraphic" in2="BackgroundImageFix" result="shape"/>
<feGaussianBlur stdDeviation="11" result="effect1_foregroundBlur"/>
</filter>
<filter id="filter6_f" x="494.398" y="35.6816" width="142.912" height="148.732" filterUnits="userSpaceOnUse" color-interpolation-filters="sRGB">
<feFlood flood-opacity="0" result="BackgroundImageFix"/>
<feBlend mode="normal" in="SourceGraphic" in2="BackgroundImageFix" result="shape"/>
<feGaussianBlur stdDeviation="11" result="effect1_foregroundBlur"/>
</filter>
<filter id="filter7_f" x="704.465" y="48.9191" width="192.682" height="197.111" filterUnits="userSpaceOnUse" color-interpolation-filters="sRGB">
<feFlood flood-opacity="0" result="BackgroundImageFix"/>
<feBlend mode="normal" in="SourceGraphic" in2="BackgroundImageFix" result="shape"/>
<feGaussianBlur stdDeviation="11" result="effect1_foregroundBlur"/>
</filter>
<filter id="filter8_f" x="811.418" y="185.968" width="165.989" height="172.634" filterUnits="userSpaceOnUse" color-interpolation-filters="sRGB">
<feFlood flood-opacity="0" result="BackgroundImageFix"/>
<feBlend mode="normal" in="SourceGraphic" in2="BackgroundImageFix" result="shape"/>
<feGaussianBlur stdDeviation="11" result="effect1_foregroundBlur"/>
</filter>
<filter id="filter9_f" x="908.262" y="395.294" width="165.989" height="172.634" filterUnits="userSpaceOnUse" color-interpolation-filters="sRGB">
<feFlood flood-opacity="0" result="BackgroundImageFix"/>
<feBlend mode="normal" in="SourceGraphic" in2="BackgroundImageFix" result="shape"/>
<feGaussianBlur stdDeviation="11" result="effect1_foregroundBlur"/>
</filter>
<filter id="filter10_f" x="844.207" y="611.275" width="203.828" height="208.772" filterUnits="userSpaceOnUse" color-interpolation-filters="sRGB">
<feFlood flood-opacity="0" result="BackgroundImageFix"/>
<feBlend mode="normal" in="SourceGraphic" in2="BackgroundImageFix" result="shape"/>
<feGaussianBlur stdDeviation="11" result="effect1_foregroundBlur"/>
</filter>
<filter id="filter11_f" x="553.945" y="646.362" width="203.828" height="208.772" filterUnits="userSpaceOnUse" color-interpolation-filters="sRGB">
<feFlood flood-opacity="0" result="BackgroundImageFix"/>
<feBlend mode="normal" in="SourceGraphic" in2="BackgroundImageFix" result="shape"/>
<feGaussianBlur stdDeviation="11" result="effect1_foregroundBlur"/>
</filter>
<filter id="filter12_f" x="542.258" y="165.524" width="204.292" height="208.018" filterUnits="userSpaceOnUse" color-interpolation-filters="sRGB">
<feFlood flood-opacity="0" result="BackgroundImageFix"/>
<feBlend mode="normal" in="SourceGraphic" in2="BackgroundImageFix" result="shape"/>
<feGaussianBlur stdDeviation="11" result="effect1_foregroundBlur"/>
</filter>
<filter id="filter13_f" x="692.738" y="287.094" width="198.525" height="201.508" filterUnits="userSpaceOnUse" color-interpolation-filters="sRGB">
<feFlood flood-opacity="0" result="BackgroundImageFix"/>
<feBlend mode="normal" in="SourceGraphic" in2="BackgroundImageFix" result="shape"/>
<feGaussianBlur stdDeviation="11" result="effect1_foregroundBlur"/>
</filter>
<filter id="filter14_f" x="17.0078" y="114.349" width="162.913" height="167.694" filterUnits="userSpaceOnUse" color-interpolation-filters="sRGB">
<feFlood flood-opacity="0" result="BackgroundImageFix"/>
<feBlend mode="normal" in="SourceGraphic" in2="BackgroundImageFix" result="shape"/>
<feGaussianBlur stdDeviation="11" result="effect1_foregroundBlur"/>
</filter>
<filter id="filter15_f" x="388.07" y="454.92" width="166.364" height="172.275" filterUnits="userSpaceOnUse" color-interpolation-filters="sRGB">
<feFlood flood-opacity="0" result="BackgroundImageFix"/>
<feBlend mode="normal" in="SourceGraphic" in2="BackgroundImageFix" result="shape"/>
<feGaussianBlur stdDeviation="11" result="effect1_foregroundBlur"/>
</filter>
<filter id="filter16_f" x="350.387" y="591.613" width="162.31" height="168.942" filterUnits="userSpaceOnUse" color-interpolation-filters="sRGB">
<feFlood flood-opacity="0" result="BackgroundImageFix"/>
<feBlend mode="normal" in="SourceGraphic" in2="BackgroundImageFix" result="shape"/>
<feGaussianBlur stdDeviation="11" result="effect1_foregroundBlur"/>
</filter>
<filter id="filter17_f" x="509.688" y="532.616" width="187.782" height="191.743" filterUnits="userSpaceOnUse" color-interpolation-filters="sRGB">
<feFlood flood-opacity="0" result="BackgroundImageFix"/>
<feBlend mode="normal" in="SourceGraphic" in2="BackgroundImageFix" result="shape"/>
<feGaussianBlur stdDeviation="11" result="effect1_foregroundBlur"/>
</filter>
<filter id="filter18_f" x="122.086" y="183.438" width="212.202" height="218.024" filterUnits="userSpaceOnUse" color-interpolation-filters="sRGB">
<feFlood flood-opacity="0" result="BackgroundImageFix"/>
<feBlend mode="normal" in="SourceGraphic" in2="BackgroundImageFix" result="shape"/>
<feGaussianBlur stdDeviation="11" result="effect1_foregroundBlur"/>
</filter>
<filter id="filter19_f" x="542.246" y="373.304" width="217.981" height="223.363" filterUnits="userSpaceOnUse" color-interpolation-filters="sRGB">
<feFlood flood-opacity="0" result="BackgroundImageFix"/>
<feBlend mode="normal" in="SourceGraphic" in2="BackgroundImageFix" result="shape"/>
<feGaussianBlur stdDeviation="11" result="effect1_foregroundBlur"/>
</filter>
<filter id="filter20_f" x="226.949" y="367.97" width="176.904" height="184.087" filterUnits="userSpaceOnUse" color-interpolation-filters="sRGB">
<feFlood flood-opacity="0" result="BackgroundImageFix"/>
<feBlend mode="normal" in="SourceGraphic" in2="BackgroundImageFix" result="shape"/>
<feGaussianBlur stdDeviation="11" result="effect1_foregroundBlur"/>
</filter>
<filter id="filter21_f" x="129.406" y="473.981" width="182.732" height="187.253" filterUnits="userSpaceOnUse" color-interpolation-filters="sRGB">
<feFlood flood-opacity="0" result="BackgroundImageFix"/>
<feBlend mode="normal" in="SourceGraphic" in2="BackgroundImageFix" result="shape"/>
<feGaussianBlur stdDeviation="11" result="effect1_foregroundBlur"/>
</filter>
<linearGradient id="paint0_linear" x1="271.765" y1="252.323" x2="268.575" y2="70.7975" gradientUnits="userSpaceOnUse">
<stop stop-color="#121B37" stop-opacity="0.32"/>
<stop offset="0.266975" stop-color="#121B37" stop-opacity="0.25"/>
<stop offset="0.444636" stop-color="#121B37" stop-opacity="0.22"/>
<stop offset="0.801521" stop-color="#121B37" stop-opacity="0.2"/>
<stop offset="1" stop-color="#121B37" stop-opacity="0.13"/>
</linearGradient>
<linearGradient id="paint1_linear" x1="352.529" y1="40.9228" x2="446.201" y2="131.789" gradientUnits="userSpaceOnUse">
<stop stop-color="#EB5A74"/>
<stop offset="1" stop-color="#E63050"/>
</linearGradient>
<linearGradient id="paint2_linear" x1="358.651" y1="172.897" x2="379.023" y2="205.491" gradientUnits="userSpaceOnUse">
<stop stop-color="#EB5A74"/>
<stop offset="1" stop-color="#E63050"/>
</linearGradient>
<linearGradient id="paint3_linear" x1="35.5514" y1="603.014" x2="33.7734" y2="501.855" gradientUnits="userSpaceOnUse">
<stop stop-color="#121B37" stop-opacity="0.32"/>
<stop offset="0.266975" stop-color="#121B37" stop-opacity="0.25"/>
<stop offset="0.444636" stop-color="#121B37" stop-opacity="0.22"/>
<stop offset="0.801521" stop-color="#121B37" stop-opacity="0.2"/>
<stop offset="1" stop-color="#121B37" stop-opacity="0.13"/>
</linearGradient>
<linearGradient id="paint4_linear" x1="96.5324" y1="504.947" x2="94.745" y2="403.254" gradientUnits="userSpaceOnUse">
<stop stop-color="#121B37" stop-opacity="0.32"/>
<stop offset="0.266975" stop-color="#121B37" stop-opacity="0.25"/>
<stop offset="0.444636" stop-color="#121B37" stop-opacity="0.22"/>
<stop offset="0.801521" stop-color="#121B37" stop-opacity="0.2"/>
<stop offset="1" stop-color="#121B37" stop-opacity="0.13"/>
</linearGradient>
<linearGradient id="paint5_linear" x1="767.233" y1="631.423" x2="765.357" y2="524.706" gradientUnits="userSpaceOnUse">
<stop stop-color="#121B37" stop-opacity="0.32"/>
<stop offset="0.266975" stop-color="#121B37" stop-opacity="0.25"/>
<stop offset="0.444636" stop-color="#121B37" stop-opacity="0.22"/>
<stop offset="0.801521" stop-color="#121B37" stop-opacity="0.2"/>
<stop offset="1" stop-color="#121B37" stop-opacity="0.13"/>
</linearGradient>
<linearGradient id="paint6_linear" x1="411.618" y1="407.127" x2="409.361" y2="278.708" gradientUnits="userSpaceOnUse">
<stop stop-color="#121B37" stop-opacity="0.32"/>
<stop offset="0.266975" stop-color="#121B37" stop-opacity="0.25"/>
<stop offset="0.444636" stop-color="#121B37" stop-opacity="0.22"/>
<stop offset="0.801521" stop-color="#121B37" stop-opacity="0.2"/>
<stop offset="1" stop-color="#121B37" stop-opacity="0.13"/>
</linearGradient>
<linearGradient id="paint7_linear" x1="202.595" y1="808.75" x2="200.107" y2="667.212" gradientUnits="userSpaceOnUse">
<stop stop-color="#121B37" stop-opacity="0.32"/>
<stop offset="0.266975" stop-color="#121B37" stop-opacity="0.25"/>
<stop offset="0.444636" stop-color="#121B37" stop-opacity="0.22"/>
<stop offset="0.801521" stop-color="#121B37" stop-opacity="0.2"/>
<stop offset="1" stop-color="#121B37" stop-opacity="0.13"/>
</linearGradient>
<linearGradient id="paint8_linear" x1="530.1" y1="159.085" x2="528.401" y2="62.4305" gradientUnits="userSpaceOnUse">
<stop stop-color="#121B37" stop-opacity="0.32"/>
<stop offset="0.266975" stop-color="#121B37" stop-opacity="0.25"/>
<stop offset="0.444636" stop-color="#121B37" stop-opacity="0.22"/>
<stop offset="0.801521" stop-color="#121B37" stop-opacity="0.2"/>
<stop offset="1" stop-color="#121B37" stop-opacity="0.13"/>
</linearGradient>
<linearGradient id="paint9_linear" x1="740.869" y1="228.193" x2="738.85" y2="113.32" gradientUnits="userSpaceOnUse">
<stop stop-color="#121B37" stop-opacity="0.32"/>
<stop offset="0.266975" stop-color="#121B37" stop-opacity="0.25"/>
<stop offset="0.444636" stop-color="#121B37" stop-opacity="0.22"/>
<stop offset="0.801521" stop-color="#121B37" stop-opacity="0.2"/>
<stop offset="1" stop-color="#121B37" stop-opacity="0.13"/>
</linearGradient>
<linearGradient id="paint10_linear" x1="847.822" y1="334.577" x2="845.803" y2="219.704" gradientUnits="userSpaceOnUse">
<stop stop-color="#121B37" stop-opacity="0.32"/>
<stop offset="0.266975" stop-color="#121B37" stop-opacity="0.25"/>
<stop offset="0.444636" stop-color="#121B37" stop-opacity="0.22"/>
<stop offset="0.801521" stop-color="#121B37" stop-opacity="0.2"/>
<stop offset="1" stop-color="#121B37" stop-opacity="0.13"/>
</linearGradient>
<linearGradient id="paint11_linear" x1="911.172" y1="188.288" x2="911.172" y2="329.007" gradientUnits="userSpaceOnUse">
<stop stop-color="#279274"/>
<stop offset="1" stop-color="#1E8165"/>
</linearGradient>
<linearGradient id="paint12_linear" x1="944.666" y1="543.903" x2="942.646" y2="429.03" gradientUnits="userSpaceOnUse">
<stop stop-color="#121B37" stop-opacity="0.32"/>
<stop offset="0.266975" stop-color="#121B37" stop-opacity="0.25"/>
<stop offset="0.444636" stop-color="#121B37" stop-opacity="0.22"/>
<stop offset="0.801521" stop-color="#121B37" stop-opacity="0.2"/>
<stop offset="1" stop-color="#121B37" stop-opacity="0.13"/>
</linearGradient>
<linearGradient id="paint13_linear" x1="922.181" y1="763.889" x2="919.993" y2="639.392" gradientUnits="userSpaceOnUse">
<stop stop-color="#121B37" stop-opacity="0.32"/>
<stop offset="0.266975" stop-color="#121B37" stop-opacity="0.25"/>
<stop offset="0.444636" stop-color="#121B37" stop-opacity="0.22"/>
<stop offset="0.801521" stop-color="#121B37" stop-opacity="0.2"/>
<stop offset="1" stop-color="#121B37" stop-opacity="0.13"/>
</linearGradient>
<linearGradient id="paint14_linear" x1="1000.19" y1="609.979" x2="1000.19" y2="762.486" gradientUnits="userSpaceOnUse">
<stop stop-color="#279274"/>
<stop offset="1" stop-color="#1E8165"/>
</linearGradient>
<linearGradient id="paint15_linear" x1="631.919" y1="798.975" x2="629.731" y2="674.479" gradientUnits="userSpaceOnUse">
<stop stop-color="#121B37" stop-opacity="0.32"/>
<stop offset="0.266975" stop-color="#121B37" stop-opacity="0.25"/>
<stop offset="0.444636" stop-color="#121B37" stop-opacity="0.22"/>
<stop offset="0.801521" stop-color="#121B37" stop-opacity="0.2"/>
<stop offset="1" stop-color="#121B37" stop-opacity="0.13"/>
</linearGradient>
<linearGradient id="paint16_linear" x1="579.129" y1="359.963" x2="577.044" y2="241.365" gradientUnits="userSpaceOnUse">
<stop stop-color="#121B37" stop-opacity="0.32"/>
<stop offset="0.266975" stop-color="#121B37" stop-opacity="0.25"/>
<stop offset="0.444636" stop-color="#121B37" stop-opacity="0.22"/>
<stop offset="0.801521" stop-color="#121B37" stop-opacity="0.2"/>
<stop offset="1" stop-color="#121B37" stop-opacity="0.13"/>
</linearGradient>
<linearGradient id="paint17_linear" x1="728.753" y1="477.504" x2="726.788" y2="365.735" gradientUnits="userSpaceOnUse">
<stop stop-color="#121B37" stop-opacity="0.32"/>
<stop offset="0.266975" stop-color="#121B37" stop-opacity="0.25"/>
<stop offset="0.444636" stop-color="#121B37" stop-opacity="0.22"/>
<stop offset="0.801521" stop-color="#121B37" stop-opacity="0.2"/>
<stop offset="1" stop-color="#121B37" stop-opacity="0.13"/>
</linearGradient>
<linearGradient id="paint18_linear" x1="72.16" y1="240.675" x2="70.4122" y2="141.235" gradientUnits="userSpaceOnUse">
<stop stop-color="#121B37" stop-opacity="0.32"/>
<stop offset="0.266975" stop-color="#121B37" stop-opacity="0.25"/>
<stop offset="0.444636" stop-color="#121B37" stop-opacity="0.22"/>
<stop offset="0.801521" stop-color="#121B37" stop-opacity="0.2"/>
<stop offset="1" stop-color="#121B37" stop-opacity="0.13"/>
</linearGradient>
<linearGradient id="paint19_linear" x1="436.668" y1="591.672" x2="434.745" y2="482.294" gradientUnits="userSpaceOnUse">
<stop stop-color="#121B37" stop-opacity="0.32"/>
<stop offset="0.266975" stop-color="#121B37" stop-opacity="0.25"/>
<stop offset="0.444636" stop-color="#121B37" stop-opacity="0.22"/>
<stop offset="0.801521" stop-color="#121B37" stop-opacity="0.2"/>
<stop offset="1" stop-color="#121B37" stop-opacity="0.13"/>
</linearGradient>
<linearGradient id="paint20_linear" x1="386.545" y1="736.488" x2="384.56" y2="623.572" gradientUnits="userSpaceOnUse">
<stop stop-color="#121B37" stop-opacity="0.32"/>
<stop offset="0.266975" stop-color="#121B37" stop-opacity="0.25"/>
<stop offset="0.444636" stop-color="#121B37" stop-opacity="0.22"/>
<stop offset="0.801521" stop-color="#121B37" stop-opacity="0.2"/>
<stop offset="1" stop-color="#121B37" stop-opacity="0.13"/>
</linearGradient>
<linearGradient id="paint21_linear" x1="545.402" y1="707.488" x2="543.48" y2="598.11" gradientUnits="userSpaceOnUse">
<stop stop-color="#121B37" stop-opacity="0.32"/>
<stop offset="0.266975" stop-color="#121B37" stop-opacity="0.25"/>
<stop offset="0.444636" stop-color="#121B37" stop-opacity="0.22"/>
<stop offset="0.801521" stop-color="#121B37" stop-opacity="0.2"/>
<stop offset="1" stop-color="#121B37" stop-opacity="0.13"/>
</linearGradient>
<linearGradient id="paint22_linear" x1="598.146" y1="567.211" x2="598.146" y2="701.198" gradientUnits="userSpaceOnUse">
<stop stop-color="#279274"/>
<stop offset="1" stop-color="#1E8165"/>
</linearGradient>
<linearGradient id="paint23_linear" x1="160.968" y1="381.789" x2="158.602" y2="247.148" gradientUnits="userSpaceOnUse">
<stop stop-color="#121B37" stop-opacity="0.32"/>
<stop offset="0.266975" stop-color="#121B37" stop-opacity="0.25"/>
<stop offset="0.444636" stop-color="#121B37" stop-opacity="0.22"/>
<stop offset="0.801521" stop-color="#121B37" stop-opacity="0.2"/>
<stop offset="1" stop-color="#121B37" stop-opacity="0.13"/>
</linearGradient>
<linearGradient id="paint24_linear" x1="228.772" y1="209.183" x2="228.772" y2="374.118" gradientUnits="userSpaceOnUse">
<stop stop-color="#279274"/>
<stop offset="1" stop-color="#1E8165"/>
</linearGradient>
<linearGradient id="paint25_linear" x1="625.176" y1="537.483" x2="622.794" y2="401.962" gradientUnits="userSpaceOnUse">
<stop stop-color="#121B37" stop-opacity="0.32"/>
<stop offset="0.266975" stop-color="#121B37" stop-opacity="0.25"/>
<stop offset="0.444636" stop-color="#121B37" stop-opacity="0.22"/>
<stop offset="0.801521" stop-color="#121B37" stop-opacity="0.2"/>
<stop offset="1" stop-color="#121B37" stop-opacity="0.13"/>
</linearGradient>
<linearGradient id="paint26_linear" x1="714.085" y1="321.04" x2="710.1" y2="535.957" gradientUnits="userSpaceOnUse">
<stop stop-color="#659FF8"/>
<stop offset="1" stop-color="#1841C1"/>
</linearGradient>
<linearGradient id="paint27_linear" x1="264.584" y1="527.886" x2="262.393" y2="403.194" gradientUnits="userSpaceOnUse">
<stop stop-color="#121B37" stop-opacity="0.32"/>
<stop offset="0.266975" stop-color="#121B37" stop-opacity="0.25"/>
<stop offset="0.444636" stop-color="#121B37" stop-opacity="0.22"/>
<stop offset="0.801521" stop-color="#121B37" stop-opacity="0.2"/>
<stop offset="1" stop-color="#121B37" stop-opacity="0.13"/>
</linearGradient>
<linearGradient id="paint28_linear" x1="336.915" y1="324.064" x2="333.249" y2="521.809" gradientUnits="userSpaceOnUse">
<stop stop-color="#659FF8"/>
<stop offset="1" stop-color="#1841C1"/>
</linearGradient>
<linearGradient id="paint29_linear" x1="165.121" y1="641.926" x2="163.199" y2="532.548" gradientUnits="userSpaceOnUse">
<stop stop-color="#121B37" stop-opacity="0.32"/>
<stop offset="0.266975" stop-color="#121B37" stop-opacity="0.25"/>
<stop offset="0.444636" stop-color="#121B37" stop-opacity="0.22"/>
<stop offset="0.801521" stop-color="#121B37" stop-opacity="0.2"/>
<stop offset="1" stop-color="#121B37" stop-opacity="0.13"/>
</linearGradient>
<linearGradient id="paint30_linear" x1="222.769" y1="462.199" x2="219.552" y2="635.657" gradientUnits="userSpaceOnUse">
<stop stop-color="#659FF8"/>
<stop offset="1" stop-color="#1841C1"/>
</linearGradient>
</defs>
</svg>
