<svg width="42" height="42" viewBox="0 0 42 42" fill="none" xmlns="http://www.w3.org/2000/svg">
<g clip-path="url(#clip0)">
<path d="M21.4339 38.3883C21.4339 37.157 21.7734 33.8185 22.0999 30.8931C22.0403 30.9099 21.9814 30.9261 21.9239 30.9412C20.8739 31.2173 19.7683 31.2173 18.7183 30.9412C18.6609 30.9261 18.6019 30.9099 18.5423 30.8931C18.8688 33.8195 19.2084 37.1594 19.2084 38.3915V38.3971C19.2084 38.8527 18.9445 39.2671 18.5316 39.4598L14.0392 41.5559C13.8131 41.6614 13.8883 42.0003 14.1378 42.0003H26.5117C26.7608 42.0003 26.8365 41.6622 26.6111 41.5562C25.3676 40.972 23.211 39.9601 22.1138 39.4523C21.699 39.2605 21.4339 38.8452 21.4339 38.3883Z" fill="#D6E5E2"/>
<path d="M26.6847 14.329C26.5793 10.7995 27.5459 7.82575 28.0286 6.57469C28.1465 6.26921 27.9214 5.94092 27.5941 5.94092H13.052C12.7245 5.94092 12.4996 6.26921 12.6174 6.57469C13.1001 7.82567 14.0667 10.7995 13.9614 14.329C13.8216 19.0124 10.1946 24.6743 13.1615 28.449C14.967 30.7462 17.2273 31.6971 18.7202 32.0896C19.7702 32.3657 20.8758 32.3657 21.9259 32.0896C23.4187 31.6971 25.679 30.7462 27.4845 28.449C30.4513 24.6744 26.8244 19.0124 26.6847 14.329Z" fill="#E5F9F6"/>
<path d="M26.6838 14.329C26.5784 10.7995 27.545 7.82575 28.0277 6.57469C28.1456 6.26921 27.9206 5.94092 27.5932 5.94092H23.6206C23.6206 5.94092 21.8731 9.64569 22.0129 14.329C22.1527 19.0124 25.7796 24.6743 22.8128 28.449C21.2824 30.396 19.4259 31.3754 17.9863 31.8679C18.2455 31.9566 18.4915 32.0297 18.7193 32.0896C19.7694 32.3657 20.8749 32.3657 21.925 32.0896C23.4178 31.6971 25.6782 30.7462 27.4837 28.449C30.4504 24.6744 26.8236 19.0124 26.6838 14.329Z" fill="#D7E0DC"/>
<path d="M13.3765 9.01807C13.7285 10.4576 14.0219 12.3008 13.9614 14.3284C13.8216 19.0117 10.1946 24.6736 13.1615 28.4483C14.967 30.7455 17.2273 31.6964 18.7201 32.0889C19.7702 32.365 20.8758 32.365 21.9258 32.0889C23.4187 31.6964 25.679 30.7455 27.4845 28.4483C30.4514 24.6736 26.8244 19.0117 26.6846 14.3284C26.6241 12.3009 26.9175 10.4576 27.2695 9.01807H13.3765Z" fill="#FED130"/>
<path d="M15.3166 2.09059C13.2623 0.645695 9.66656 0.693191 8.48121 0.753156C8.25743 0.764476 8.08106 0.946668 8.07696 1.1707C8.05546 2.35728 8.12453 5.95279 9.63522 7.95911C13.022 12.457 16.773 9.1849 16.773 9.1849C16.773 9.1849 19.9219 5.32976 15.3166 2.09059Z" fill="#77D057"/>
<path d="M16.2687 5.40866C16.3474 5.07045 16.137 4.7324 15.7987 4.65381C15.4603 4.57506 15.1224 4.78555 15.0438 5.12393L14.7569 6.35818L13.8253 5.45632L14.1739 3.9572C14.2526 3.61891 14.0422 3.28094 13.7039 3.20227C13.3657 3.12344 13.0276 3.33401 12.949 3.67231L12.7714 4.43602L11.9384 3.62957L12.126 2.82279C12.2047 2.4845 11.9942 2.14653 11.6559 2.06786C11.3176 1.98911 10.9796 2.1996 10.9011 2.5379L10.8845 2.60927L8.94973 0.736328C8.76885 0.740676 8.60996 0.74691 8.48109 0.753391C8.25731 0.764711 8.08094 0.946902 8.07684 1.17093C8.07446 1.29996 8.07339 1.45902 8.07495 1.6399L10.0097 3.51292L9.93878 3.53187C9.60328 3.62137 9.40386 3.96606 9.49344 4.30157C9.56849 4.58286 9.82263 4.76841 10.1005 4.76841C10.1543 4.76841 10.2088 4.76152 10.2631 4.74692L11.0637 4.53323L11.8966 5.33959L11.1391 5.5418C10.8036 5.63138 10.6041 5.97599 10.6937 6.3115C10.7688 6.5927 11.0229 6.77826 11.3008 6.77826C11.3546 6.77826 11.4091 6.77128 11.4634 6.75676L12.9505 6.35982L13.8676 7.24764L12.6808 7.56445C12.3453 7.65402 12.1459 7.99864 12.2355 8.33414C12.3106 8.61543 12.5647 8.80098 12.8426 8.80098C12.8963 8.80098 12.9509 8.79401 13.0052 8.77949L14.9214 8.26794L16.2512 9.55526C16.5831 9.35018 16.7728 9.18497 16.7728 9.18497C16.7728 9.18497 16.9318 8.98998 17.126 8.6516L15.8107 7.37823L16.2687 5.40866Z" fill="#68B543"/>
<path d="M17.3595 5.70572C17.3564 5.70572 17.3534 5.70572 17.3504 5.70564C17.0031 5.7008 16.7256 5.41525 16.7305 5.06801C16.7544 3.378 17.2037 2.18559 18.0658 1.52409C19.0594 0.761777 20.202 1.03904 20.2502 1.05118C20.5868 1.13633 20.7908 1.47832 20.7057 1.81498C20.6209 2.14983 20.2824 2.35343 19.9476 2.27189C19.9118 2.26377 19.319 2.13875 18.8196 2.53103C18.2934 2.94446 18.0058 3.82786 17.988 5.08581C17.9832 5.42993 17.7026 5.70572 17.3595 5.70572Z" fill="#772424"/>
<path d="M16.9683 9.01708C18.531 9.01708 19.7978 7.75023 19.7978 6.1875C19.7978 4.62476 18.531 3.35791 16.9683 3.35791C15.4055 3.35791 14.1387 4.62476 14.1387 6.1875C14.1387 7.75023 15.4055 9.01708 16.9683 9.01708Z" fill="#FC502A"/>
<path d="M29.9332 0.306998C29.6326 0.132928 29.248 0.235303 29.0738 0.535783L24.1582 9.01847H25.6117L30.1619 1.16636C30.3361 0.865959 30.2337 0.481151 29.9332 0.306998Z" fill="#65DBEF"/>
<path d="M29.7817 0.000741923L22.3202 0.420824C22.1509 0.43034 22.0821 0.64239 22.2126 0.75059C25.5969 3.55663 29.4923 5.68141 33.6838 7.00752C33.8455 7.05871 33.9865 6.88604 33.9028 6.73854L30.2163 0.237812C30.1284 0.0826091 29.9599 -0.00926589 29.7817 0.000741923Z" fill="#FF644A"/>
<path d="M33.9033 6.73855L30.2168 0.237823C30.1288 0.0826202 29.9603 -0.00933687 29.7822 0.000752978L28.2641 0.0862295C26.9645 0.159401 26.194 1.57214 26.836 2.70434L27.8904 4.56358C29.7384 5.55222 31.6769 6.37253 33.6845 7.00762C33.8461 7.05872 33.9869 6.88605 33.9033 6.73855Z" fill="#E52D15"/>
<path d="M28.5712 23.5568C28.5362 23.2576 28.4901 22.9553 28.4356 22.6504C28.3946 22.4218 28.3489 22.1918 28.2994 21.9606C28.2004 21.4984 28.0864 21.0318 27.9657 20.5631C27.9254 20.4069 27.8845 20.2504 27.843 20.0938C27.7602 19.7806 27.6755 19.467 27.5916 19.1534C27.5496 18.9967 27.5079 18.8399 27.4665 18.6833C27.4252 18.5267 27.3844 18.3702 27.3444 18.2139C27.3043 18.0577 27.2651 17.9016 27.227 17.7458C26.9409 16.5775 26.7166 15.4261 26.6839 14.3284C26.6803 14.2091 26.6782 14.0905 26.677 13.9724C26.6766 13.9341 26.6768 13.8962 26.6767 13.858C26.6765 13.7783 26.6763 13.6989 26.677 13.6199C26.6775 13.5753 26.6784 13.5311 26.6791 13.4868C26.6803 13.4142 26.6818 13.3418 26.6839 13.2697C26.6852 13.2245 26.6866 13.1794 26.6883 13.1344C26.6908 13.0629 26.6938 12.9918 26.6971 12.921C26.6992 12.8777 26.7012 12.8344 26.7035 12.7913C26.7076 12.7169 26.7121 12.6431 26.7169 12.5694C26.7194 12.5314 26.7217 12.4932 26.7244 12.4553C26.7306 12.3681 26.7375 12.2818 26.7448 12.1959C26.7468 12.1726 26.7485 12.149 26.7505 12.1257C26.7605 12.0134 26.7712 11.902 26.7829 11.7915C26.7829 11.7914 26.7829 11.7911 26.7829 11.791C26.7944 11.6828 26.8067 11.5758 26.8196 11.4696C26.8226 11.4453 26.8258 11.4213 26.8288 11.3971C26.8392 11.3144 26.8499 11.2323 26.8611 11.1508C26.865 11.1231 26.8689 11.0956 26.8729 11.0679C26.884 10.9895 26.8954 10.9117 26.9073 10.8346C26.9113 10.8085 26.9153 10.7825 26.9194 10.7566C26.9322 10.6759 26.9452 10.5962 26.9587 10.517C26.9621 10.4967 26.9655 10.4763 26.969 10.4561C26.9847 10.3653 27.0007 10.2754 27.0172 10.1867C27.0186 10.1793 27.0199 10.1718 27.0213 10.1645C27.0971 9.75947 27.181 9.37654 27.2686 9.01823C27.2686 9.01823 27.2686 9.01815 27.2686 9.01807H22.5975C22.2456 10.4575 21.9524 12.301 22.0129 14.3284C22.1527 19.0117 25.7796 24.6736 22.8128 28.4483C21.2824 30.3953 19.4259 31.3747 17.9863 31.8672C17.9867 31.8673 17.9869 31.8674 17.9872 31.8675C18.0474 31.8881 18.1067 31.9077 18.1653 31.9266C18.1776 31.9305 18.1898 31.9344 18.2019 31.9382C18.2484 31.9531 18.2945 31.9674 18.34 31.9812C18.3556 31.9859 18.3711 31.9907 18.3865 31.9953C18.4293 32.0081 18.4715 32.0203 18.5133 32.0323C18.5281 32.0365 18.5432 32.0409 18.5578 32.045C18.6125 32.0603 18.6664 32.075 18.7191 32.0889C18.8504 32.1234 18.9825 32.1536 19.1152 32.1794C19.2481 32.2053 19.3814 32.2268 19.5153 32.2441C20.3185 32.3477 21.1372 32.2959 21.9247 32.0889C22.0181 32.0643 22.1143 32.0376 22.2133 32.0085C22.3247 31.9758 22.44 31.9397 22.5578 31.9007C23.2055 31.6862 23.9434 31.3722 24.7015 30.9138C24.7482 30.8856 24.7949 30.8568 24.8417 30.8275C24.9164 30.7806 24.9912 30.7324 25.0661 30.6827C25.1332 30.6381 25.2004 30.5925 25.2677 30.5456C25.4718 30.4031 25.6761 30.2501 25.8792 30.0845C26.4318 29.6339 26.9756 29.0943 27.4833 28.4482C27.7151 28.1533 27.9066 27.8469 28.0627 27.5304C28.1251 27.4037 28.1819 27.2755 28.2333 27.1457C28.259 27.0808 28.2834 27.0156 28.3064 26.9499C28.4218 26.6216 28.5045 26.2841 28.5595 25.9386C28.5925 25.7313 28.6155 25.521 28.6296 25.3082C28.6389 25.1664 28.6443 25.0234 28.646 24.8794C28.6517 24.4472 28.6238 24.0056 28.5712 23.5568Z" fill="#EDBA18"/>
</g>
<defs>
<clipPath id="clip0">
<rect width="42" height="42" fill="white"/>
</clipPath>
</defs>
</svg>
