<svg width="135" height="47" viewBox="0 0 135 47" fill="none" xmlns="http://www.w3.org/2000/svg">
<rect x="1" y="0.5" width="133" height="46" rx="23" fill="#16202A" stroke="#97A7B6"/>
<path d="M31.674 8.98535C30.4031 9.07325 28.9177 9.88672 28.0521 10.946C27.2625 11.907 26.6129 13.3343 26.8662 14.7213C28.2547 14.7645 29.6895 13.9317 30.5208 12.8545C31.2985 11.8519 31.887 10.4335 31.674 8.98535Z" fill="#F7F9FE"/>
<path d="M36.6912 17.2853C35.471 15.7922 33.7562 14.9258 32.1367 14.9258C29.9987 14.9258 29.0944 15.9245 27.609 15.9245C26.0774 15.9245 24.9138 14.9287 23.0649 14.9287C21.2487 14.9287 19.3149 16.0118 18.0887 17.8639C16.3649 20.472 16.6599 25.3756 19.4534 29.5523C20.4531 31.0468 21.788 32.7274 23.5342 32.7419C25.0881 32.7564 25.5261 31.7693 27.6313 31.7591C29.7365 31.7475 30.1358 32.755 31.6867 32.739C33.4343 32.7259 34.8423 30.8636 35.842 29.3691C36.5586 28.2977 36.8253 27.7583 37.381 26.5488C33.339 25.047 32.6909 19.4383 36.6912 17.2853Z" fill="#F7F9FE"/>
<path d="M45.4746 11.1411H47.6499C48.5903 11.1411 49.3242 11.4209 49.8516 11.9805C50.3789 12.5371 50.6426 13.3135 50.6426 14.3096C50.6426 15.3086 50.3789 16.0879 49.8516 16.6475C49.3271 17.2041 48.5933 17.4824 47.6499 17.4824H45.4746V11.1411ZM46.2656 11.853V16.7705H47.5972C48.3149 16.7705 48.8672 16.5596 49.2539 16.1377C49.6406 15.7129 49.834 15.1064 49.834 14.3184C49.834 13.5244 49.6406 12.915 49.2539 12.4902C48.8701 12.0654 48.3179 11.853 47.5972 11.853H46.2656ZM55.0723 16.8716C54.6768 17.3081 54.1465 17.5264 53.4814 17.5264C52.8164 17.5264 52.2861 17.3081 51.8906 16.8716C51.4951 16.4351 51.2974 15.8491 51.2974 15.1138C51.2974 14.3784 51.4951 13.7925 51.8906 13.356C52.2861 12.9194 52.8164 12.7012 53.4814 12.7012C54.1465 12.7012 54.6768 12.9194 55.0723 13.356C55.4678 13.7925 55.6655 14.3784 55.6655 15.1138C55.6655 15.8491 55.4678 16.4351 55.0723 16.8716ZM53.4814 16.8452C53.9238 16.8452 54.2681 16.6929 54.5142 16.3882C54.7632 16.0806 54.8877 15.6558 54.8877 15.1138C54.8877 14.5688 54.7632 14.144 54.5142 13.8394C54.2681 13.5347 53.9238 13.3823 53.4814 13.3823C53.0391 13.3823 52.6934 13.5361 52.4443 13.8438C52.1982 14.1484 52.0752 14.5718 52.0752 15.1138C52.0752 15.6558 52.1997 16.0806 52.4487 16.3882C52.6978 16.6929 53.042 16.8452 53.4814 16.8452ZM62.4639 12.7451L61.1367 17.4824H60.3633L59.2822 13.7998H59.2646L58.1836 17.4824H57.4102L56.083 12.7451H56.8389L57.8013 16.6167H57.8188L58.9043 12.7451H59.6426L60.728 16.6167H60.7456L61.708 12.7451H62.4639ZM63.1143 17.4824V12.7451H63.835V13.5142H63.8525C64.1543 12.9722 64.6699 12.7012 65.3994 12.7012C65.9209 12.7012 66.3325 12.8579 66.6343 13.1714C66.936 13.4819 67.0869 13.9067 67.0869 14.4458V17.4824H66.3223V14.5776C66.3223 14.1909 66.2227 13.895 66.0234 13.6899C65.8271 13.4849 65.543 13.3823 65.1709 13.3823C64.7812 13.3823 64.4678 13.5054 64.2305 13.7515C63.9961 13.9976 63.8789 14.3242 63.8789 14.7314V17.4824H63.1143ZM68.1504 17.4824V10.8643H68.915V17.4824H68.1504ZM73.5381 16.8716C73.1426 17.3081 72.6123 17.5264 71.9473 17.5264C71.2822 17.5264 70.752 17.3081 70.3564 16.8716C69.9609 16.4351 69.7632 15.8491 69.7632 15.1138C69.7632 14.3784 69.9609 13.7925 70.3564 13.356C70.752 12.9194 71.2822 12.7012 71.9473 12.7012C72.6123 12.7012 73.1426 12.9194 73.5381 13.356C73.9336 13.7925 74.1313 14.3784 74.1313 15.1138C74.1313 15.8491 73.9336 16.4351 73.5381 16.8716ZM71.9473 16.8452C72.3896 16.8452 72.7339 16.6929 72.98 16.3882C73.229 16.0806 73.3535 15.6558 73.3535 15.1138C73.3535 14.5688 73.229 14.144 72.98 13.8394C72.7339 13.5347 72.3896 13.3823 71.9473 13.3823C71.5049 13.3823 71.1592 13.5361 70.9102 13.8438C70.6641 14.1484 70.541 14.5718 70.541 15.1138C70.541 15.6558 70.6655 16.0806 70.9146 16.3882C71.1636 16.6929 71.5078 16.8452 71.9473 16.8452ZM76.4824 16.8628C76.8691 16.8628 77.1885 16.7515 77.4404 16.5288C77.6953 16.3032 77.8228 16.0205 77.8228 15.6807V15.2983L76.5835 15.3774C75.8628 15.4214 75.5024 15.6748 75.5024 16.1377C75.5024 16.3574 75.5903 16.5332 75.7661 16.665C75.9448 16.7969 76.1836 16.8628 76.4824 16.8628ZM76.3198 17.5264C75.8394 17.5264 75.4526 17.3989 75.1597 17.144C74.8667 16.8892 74.7202 16.5522 74.7202 16.1333C74.7202 15.7261 74.8726 15.4067 75.1772 15.1753C75.4819 14.9409 75.9214 14.8062 76.4956 14.771L77.8228 14.6919V14.2964C77.8228 14.0034 77.729 13.7778 77.5415 13.6196C77.354 13.4614 77.0859 13.3823 76.7373 13.3823C76.4619 13.3823 76.229 13.4482 76.0386 13.5801C75.8511 13.7119 75.7339 13.8892 75.687 14.1118H74.9531C74.9648 13.7134 75.1421 13.3794 75.4849 13.1099C75.8276 12.8374 76.248 12.7012 76.7461 12.7012C77.3057 12.7012 77.7524 12.8403 78.0864 13.1187C78.4204 13.394 78.5874 13.7646 78.5874 14.2305V17.4824H77.8623V16.6606H77.8447C77.71 16.9243 77.5049 17.1353 77.2295 17.2935C76.9541 17.4487 76.6509 17.5264 76.3198 17.5264ZM81.3999 17.5264C80.8022 17.5264 80.3145 17.3052 79.9365 16.8628C79.5586 16.4175 79.3696 15.8345 79.3696 15.1138C79.3696 14.396 79.5571 13.8145 79.9321 13.3691C80.3071 12.9238 80.7905 12.7012 81.3823 12.7012C81.7192 12.7012 82.0181 12.7715 82.2788 12.9121C82.5425 13.0527 82.7476 13.2534 82.894 13.5142H82.9116V10.8643H83.6763V17.4824H82.9468V16.6826H82.9336C82.7783 16.9551 82.5688 17.1646 82.3052 17.311C82.0444 17.4546 81.7427 17.5264 81.3999 17.5264ZM81.5361 13.3823C81.1201 13.3823 80.7847 13.5405 80.5298 13.8569C80.2778 14.1733 80.1519 14.5923 80.1519 15.1138C80.1519 15.6382 80.2778 16.0586 80.5298 16.375C80.7847 16.6885 81.1201 16.8452 81.5361 16.8452C81.9463 16.8452 82.2788 16.6855 82.5337 16.3662C82.7886 16.0469 82.916 15.6294 82.916 15.1138C82.916 14.5981 82.7886 14.1807 82.5337 13.8613C82.2788 13.542 81.9463 13.3823 81.5361 13.3823ZM90.457 16.8716C90.0615 17.3081 89.5312 17.5264 88.8662 17.5264C88.2012 17.5264 87.6709 17.3081 87.2754 16.8716C86.8799 16.4351 86.6821 15.8491 86.6821 15.1138C86.6821 14.3784 86.8799 13.7925 87.2754 13.356C87.6709 12.9194 88.2012 12.7012 88.8662 12.7012C89.5312 12.7012 90.0615 12.9194 90.457 13.356C90.8525 13.7925 91.0503 14.3784 91.0503 15.1138C91.0503 15.8491 90.8525 16.4351 90.457 16.8716ZM88.8662 16.8452C89.3086 16.8452 89.6528 16.6929 89.8989 16.3882C90.1479 16.0806 90.2725 15.6558 90.2725 15.1138C90.2725 14.5688 90.1479 14.144 89.8989 13.8394C89.6528 13.5347 89.3086 13.3823 88.8662 13.3823C88.4238 13.3823 88.0781 13.5361 87.8291 13.8438C87.583 14.1484 87.46 14.5718 87.46 15.1138C87.46 15.6558 87.5845 16.0806 87.8335 16.3882C88.0825 16.6929 88.4268 16.8452 88.8662 16.8452ZM91.8545 17.4824V12.7451H92.5752V13.5142H92.5928C92.8945 12.9722 93.4102 12.7012 94.1396 12.7012C94.6611 12.7012 95.0728 12.8579 95.3745 13.1714C95.6763 13.4819 95.8271 13.9067 95.8271 14.4458V17.4824H95.0625V14.5776C95.0625 14.1909 94.9629 13.895 94.7637 13.6899C94.5674 13.4849 94.2832 13.3823 93.9111 13.3823C93.5215 13.3823 93.208 13.5054 92.9707 13.7515C92.7363 13.9976 92.6191 14.3242 92.6191 14.7314V17.4824H91.8545ZM99.2505 11.6772H100.015V12.7451H100.938V13.3779H100.015V16.2212C100.015 16.438 100.062 16.5977 100.156 16.7002C100.252 16.8027 100.402 16.854 100.604 16.854C100.736 16.854 100.846 16.8467 100.934 16.832V17.478C100.822 17.5044 100.658 17.5176 100.441 17.5176C100.014 17.5176 99.7075 17.4209 99.5229 17.2275C99.3413 17.0312 99.2505 16.7061 99.2505 16.252V13.3779H98.5913V12.7451H99.2505V11.6772ZM101.83 17.4824V10.8643H102.595V13.5142H102.612C102.911 12.9722 103.427 12.7012 104.159 12.7012C104.678 12.7012 105.097 12.8623 105.416 13.1846C105.735 13.5068 105.895 13.9316 105.895 14.459V17.4824H105.13V14.5952C105.13 14.2173 105.023 13.9214 104.81 13.7075C104.599 13.4907 104.306 13.3823 103.931 13.3823C103.529 13.3823 103.206 13.5083 102.959 13.7603C102.716 14.0122 102.595 14.3447 102.595 14.7578V17.4824H101.83ZM108.8 13.3735C108.428 13.3735 108.119 13.4966 107.873 13.7427C107.629 13.9888 107.495 14.3125 107.468 14.7139H110.074C110.065 14.3125 109.944 13.9888 109.709 13.7427C109.478 13.4966 109.175 13.3735 108.8 13.3735ZM110.057 16.1289H110.812C110.748 16.5361 110.531 16.8716 110.162 17.1353C109.793 17.396 109.355 17.5264 108.848 17.5264C108.183 17.5264 107.654 17.311 107.262 16.8804C106.872 16.4497 106.677 15.8667 106.677 15.1313C106.677 14.396 106.872 13.8071 107.262 13.3647C107.651 12.9224 108.168 12.7012 108.813 12.7012C109.446 12.7012 109.947 12.9106 110.316 13.3296C110.685 13.7456 110.87 14.311 110.87 15.0259V15.3247H107.468V15.3687C107.468 15.8198 107.596 16.1802 107.851 16.4497C108.105 16.7192 108.444 16.854 108.866 16.854C109.162 16.854 109.417 16.7896 109.63 16.6606C109.847 16.5288 109.989 16.3516 110.057 16.1289Z" fill="#F7F9FE"/>
<path d="M52.1416 33.7598L50.938 30.3315H46.1733L44.9697 33.7598H43.4009L47.8169 21.7817H49.2944L53.7104 33.7598H52.1416ZM48.5308 23.5996L46.6133 29.0615H50.498L48.5806 23.5996H48.5308ZM59.1973 24.7285C60.3428 24.7285 61.2669 25.1491 61.9697 25.9902C62.6781 26.8258 63.0322 27.9243 63.0322 29.2856C63.0322 30.647 62.6808 31.7482 61.978 32.5894C61.2752 33.425 60.3594 33.8428 59.2305 33.8428C58.5996 33.8428 58.0352 33.71 57.5371 33.4443C57.0446 33.1787 56.6572 32.7996 56.375 32.3071H56.3418V36.748H54.8975V24.8115H56.2671V26.2642H56.3003C56.5604 25.7993 56.9533 25.4285 57.479 25.1519C58.0047 24.8696 58.5775 24.7285 59.1973 24.7285ZM58.9316 32.5562C59.723 32.5562 60.3566 32.2601 60.8325 31.668C61.314 31.0703 61.5547 30.2762 61.5547 29.2856C61.5547 28.3006 61.314 27.5093 60.8325 26.9116C60.3566 26.314 59.723 26.0151 58.9316 26.0151C58.1624 26.0151 57.5371 26.3167 57.0557 26.9199C56.5742 27.5231 56.3335 28.3117 56.3335 29.2856C56.3335 30.2596 56.5715 31.0482 57.0474 31.6514C57.5288 32.2546 58.1569 32.5562 58.9316 32.5562ZM68.8594 24.7285C70.0049 24.7285 70.929 25.1491 71.6318 25.9902C72.3402 26.8258 72.6943 27.9243 72.6943 29.2856C72.6943 30.647 72.3429 31.7482 71.6401 32.5894C70.9373 33.425 70.0215 33.8428 68.8926 33.8428C68.2617 33.8428 67.6973 33.71 67.1992 33.4443C66.7067 33.1787 66.3193 32.7996 66.0371 32.3071H66.0039V36.748H64.5596V24.8115H65.9292V26.2642H65.9624C66.2225 25.7993 66.6154 25.4285 67.1411 25.1519C67.6668 24.8696 68.2396 24.7285 68.8594 24.7285ZM68.5938 32.5562C69.3851 32.5562 70.0187 32.2601 70.4946 31.668C70.9761 31.0703 71.2168 30.2762 71.2168 29.2856C71.2168 28.3006 70.9761 27.5093 70.4946 26.9116C70.0187 26.314 69.3851 26.0151 68.5938 26.0151C67.8245 26.0151 67.1992 26.3167 66.7178 26.9199C66.2363 27.5231 65.9956 28.3117 65.9956 29.2856C65.9956 30.2596 66.2336 31.0482 66.7095 31.6514C67.1909 32.2546 67.819 32.5562 68.5938 32.5562ZM77.8989 30.4644H79.4014C79.4733 31.1118 79.7887 31.632 80.3477 32.0249C80.9121 32.4178 81.6232 32.6143 82.481 32.6143C83.2889 32.6143 83.9557 32.4233 84.4814 32.0415C85.0127 31.6541 85.2783 31.1672 85.2783 30.5806C85.2783 30.077 85.0929 29.6619 84.7222 29.3354C84.3569 29.009 83.7703 28.7406 82.9624 28.5303L81.4268 28.1318C80.32 27.8496 79.512 27.4567 79.0029 26.9531C78.4938 26.444 78.2393 25.7827 78.2393 24.9692C78.2393 23.9731 78.6322 23.1597 79.418 22.5288C80.2093 21.8979 81.2275 21.5825 82.4727 21.5825C83.6624 21.5825 84.6475 21.9035 85.4277 22.5454C86.208 23.1818 86.6147 24.0008 86.6479 25.0024H85.1538C85.0874 24.3605 84.8107 23.8542 84.3237 23.4834C83.8368 23.1126 83.2031 22.9272 82.4229 22.9272C81.6481 22.9272 81.0145 23.1099 80.522 23.4751C80.035 23.8403 79.7915 24.3162 79.7915 24.9028C79.7915 25.3566 79.9686 25.7301 80.3228 26.0234C80.6825 26.3112 81.269 26.5602 82.0825 26.7705L83.3359 27.1025C84.5755 27.4124 85.4665 27.8247 86.0088 28.3394C86.5511 28.854 86.8223 29.5402 86.8223 30.3979C86.8223 31.4937 86.4183 32.3625 85.6104 33.0044C84.8079 33.6408 83.7178 33.959 82.3398 33.959C81.0671 33.959 80.0267 33.6408 79.2188 33.0044C78.4108 32.368 77.9709 31.5213 77.8989 30.4644ZM88.856 22.7944H90.3003V24.8115H92.0435V26.0068H90.3003V31.3774C90.3003 31.7869 90.3888 32.0885 90.5659 32.2822C90.7485 32.4759 91.0308 32.5728 91.4126 32.5728C91.6616 32.5728 91.8691 32.5589 92.0352 32.5312V33.7515C91.8249 33.8013 91.515 33.8262 91.1055 33.8262C90.2975 33.8262 89.7192 33.6436 89.3706 33.2783C89.0275 32.9076 88.856 32.2933 88.856 31.4355V26.0068H87.6108V24.8115H88.856V22.7944ZM100.087 32.606C99.3398 33.4305 98.3382 33.8428 97.082 33.8428C95.8258 33.8428 94.8242 33.4305 94.0771 32.606C93.3301 31.7814 92.9565 30.6746 92.9565 29.2856C92.9565 27.8966 93.3301 26.7899 94.0771 25.9653C94.8242 25.1408 95.8258 24.7285 97.082 24.7285C98.3382 24.7285 99.3398 25.1408 100.087 25.9653C100.834 26.7899 101.208 27.8966 101.208 29.2856C101.208 30.6746 100.834 31.7814 100.087 32.606ZM97.082 32.5562C97.9176 32.5562 98.5679 32.2684 99.0327 31.6929C99.5031 31.1118 99.7383 30.3094 99.7383 29.2856C99.7383 28.2563 99.5031 27.4539 99.0327 26.8784C98.5679 26.3029 97.9176 26.0151 97.082 26.0151C96.2464 26.0151 95.5934 26.3057 95.123 26.8867C94.6582 27.4622 94.4258 28.2619 94.4258 29.2856C94.4258 30.3094 94.661 31.1118 95.1313 31.6929C95.6017 32.2684 96.252 32.5562 97.082 32.5562ZM102.727 33.7598V24.8115H104.088V26.2642H104.121C104.254 25.7938 104.517 25.4202 104.91 25.1436C105.303 24.8669 105.762 24.7285 106.288 24.7285C106.514 24.7285 106.7 24.7479 106.844 24.7866V26.2144C106.689 26.1479 106.44 26.1147 106.097 26.1147C105.516 26.1147 105.048 26.3084 104.694 26.6958C104.345 27.0832 104.171 27.5923 104.171 28.2231V33.7598H102.727ZM111.276 25.9985C110.574 25.9985 109.99 26.231 109.525 26.6958C109.066 27.1606 108.811 27.7721 108.761 28.5303H113.684C113.667 27.7721 113.437 27.1606 112.995 26.6958C112.557 26.231 111.985 25.9985 111.276 25.9985ZM113.65 31.2031H115.078C114.956 31.9723 114.547 32.606 113.85 33.104C113.152 33.5965 112.325 33.8428 111.368 33.8428C110.111 33.8428 109.113 33.436 108.371 32.6226C107.635 31.8091 107.267 30.7078 107.267 29.3188C107.267 27.9299 107.635 26.8175 108.371 25.9819C109.107 25.1463 110.084 24.7285 111.301 24.7285C112.497 24.7285 113.443 25.1242 114.14 25.9155C114.837 26.7013 115.186 27.7694 115.186 29.1196V29.6841H108.761V29.7671C108.761 30.6193 109.002 31.3 109.483 31.8091C109.965 32.3182 110.604 32.5728 111.401 32.5728C111.96 32.5728 112.441 32.451 112.845 32.2075C113.255 31.9585 113.523 31.6237 113.65 31.2031Z" fill="#F7F9FE"/>
</svg>
