<svg width="72" height="72" viewBox="0 0 72 72" fill="none" xmlns="http://www.w3.org/2000/svg">
<g clip-path="url(#clip0)">
<path d="M49.0233 36.1208C56.2974 36.1208 62.1941 30.224 62.1941 22.95C62.1941 15.6759 56.2974 9.77917 49.0233 9.77917C41.7493 9.77917 35.8525 15.6759 35.8525 22.95C35.8525 30.224 41.7493 36.1208 49.0233 36.1208Z" fill="#F59393"/>
<path d="M49.0233 36.1208C56.2974 36.1208 62.1941 30.224 62.1941 22.95C62.1941 15.6759 56.2974 9.77917 49.0233 9.77917C41.7493 9.77917 35.8525 15.6759 35.8525 22.95C35.8525 30.224 41.7493 36.1208 49.0233 36.1208Z" fill="#F59393"/>
<path d="M55.0135 11.2216C55.9334 13.019 56.4556 15.0537 56.4556 17.2115C56.4556 24.4854 50.559 30.3823 43.2848 30.3823C41.127 30.3823 39.0924 29.86 37.2949 28.9402C39.4759 33.2018 43.9074 36.1209 49.0236 36.1209C56.2976 36.1209 62.1944 30.2242 62.1944 22.9501C62.1943 17.834 59.2752 13.4025 55.0135 11.2216Z" fill="#EC6161"/>
<path d="M71.4506 39.2826C70.8649 37.625 69.769 35.5812 68.191 33.2064C66.5426 30.7197 64.4389 27.9806 62.0134 25.1351C61.7287 26.8435 61.1152 28.4402 60.2398 29.8578C61.5891 31.5114 62.8092 33.1123 63.8657 34.6199C65.7952 37.3732 66.8 39.2656 67.3221 40.5138C67.5158 40.9766 67.0497 41.4425 66.5869 41.2489C65.3389 40.7264 63.447 39.7212 60.693 37.7927C59.1854 36.7362 57.5845 35.5161 55.9309 34.1668C55.4539 33.7767 54.9727 33.3784 54.4874 32.9675C51.8538 30.7395 49.1179 28.2188 46.4368 25.5377C43.7556 22.8565 41.2349 20.1205 39.007 17.487C38.5972 17.0027 38.1978 16.5205 37.8076 16.0435C36.4581 14.3899 35.2382 12.789 34.1817 11.2814C32.253 8.52739 31.2473 6.63486 30.725 5.38695C30.5314 4.92415 30.9971 4.45826 31.4599 4.65176C32.7081 5.17376 34.6009 6.17923 37.3542 8.10861C38.8619 9.16512 40.4627 10.3852 42.1163 11.7345C43.534 10.8591 45.1306 10.2454 46.8391 9.96092C43.9934 7.53542 41.2543 5.43167 38.7678 3.78115C36.3929 2.20517 34.3492 1.10928 32.6915 0.523718C31.8016 0.209139 29.0915 -0.748095 27.2081 1.1353C25.3249 3.01855 26.282 5.72881 26.5965 6.61869C27.1832 8.27539 28.278 10.3202 29.8551 12.694C31.5056 15.1806 33.6073 17.9196 36.0339 20.7643L36.0349 20.7653C36.3794 21.1699 36.7303 21.5765 37.0883 21.9842C39.0099 24.177 41.1095 26.4194 43.3322 28.6421C45.5549 30.8648 47.7973 32.9645 49.9901 34.886C50.3977 35.244 50.8044 35.5949 51.209 35.9394L51.21 35.9404C54.0547 38.367 56.7936 40.4687 59.2793 42.1181C61.6542 43.6962 63.6989 44.7909 65.3556 45.3776C66.2455 45.6922 68.9556 46.6494 70.839 44.766C72.7223 42.8826 71.7652 40.1725 71.4506 39.2826Z" fill="#FBE77B"/>
<path d="M20.5142 72C31.8293 72 41.002 62.8273 41.002 51.5122C41.002 40.1971 31.8293 31.0244 20.5142 31.0244C9.19907 31.0244 0.0263672 40.1971 0.0263672 51.5122C0.0263672 62.8273 9.19907 72 20.5142 72Z" fill="#97E4F9"/>
<path d="M20.5142 72C31.8293 72 41.002 62.8273 41.002 51.5122C41.002 40.1971 31.8293 31.0244 20.5142 31.0244C9.19907 31.0244 0.0263672 40.1971 0.0263672 51.5122C0.0263672 62.8273 9.19907 72 20.5142 72Z" fill="#97E4F9"/>
<path d="M32.3268 34.7712C34.6866 38.1095 36.0736 42.1844 36.0736 46.5836C36.0736 57.8987 26.9009 67.0714 15.5858 67.0714C11.1866 67.0714 7.11173 65.6844 3.77344 63.3246C7.48327 68.5728 13.5983 72 20.5144 72C31.8295 72 41.0022 62.8273 41.0022 51.5122C41.0022 44.5963 37.575 38.4811 32.3268 34.7712Z" fill="#0ACEFA"/>
<path d="M40.012 57.8162H22.2477C21.3778 57.8162 20.5897 58.1691 20.0192 58.7396C19.4487 59.3102 19.0957 60.0982 19.0957 60.9681C19.0957 62.7096 20.5062 64.1201 22.2477 64.1201H24.7692C26.5107 64.1201 27.9212 65.5306 27.9212 67.2721C27.9212 68.4122 28.5278 69.4074 29.434 69.9609C34.4251 67.5432 38.2855 63.1595 40.012 57.8162Z" fill="#B9EA6A"/>
<path d="M40.6682 47.8086H27.8649C26.1234 47.8086 24.7129 46.3981 24.7129 44.6566C24.7129 43.7867 25.0659 42.9986 25.6364 42.4281C26.2069 41.8576 26.9948 41.5046 27.8649 41.5046H38.3956C39.4784 43.4337 40.2569 45.5566 40.6682 47.8086Z" fill="#B9EA6A"/>
<path d="M40.0126 57.8167C38.2857 63.1596 34.4253 67.5425 29.4335 69.9616C28.5276 69.4069 27.9218 68.4117 27.9218 67.2718C27.9218 65.9123 27.0627 64.7562 25.8584 64.3128C28.6199 62.7104 30.9731 60.4801 32.7219 57.8168H40.0126V57.8167Z" fill="#A1E42C"/>
<path d="M36.037 47.8085C36.0619 47.403 36.0735 46.9948 36.0735 46.5836C36.0735 44.8304 35.854 43.13 35.4385 41.5055H38.3961C39.4791 43.4343 40.2576 45.5562 40.6687 47.8085H36.037Z" fill="#A1E42C"/>
<path d="M17.6207 49.7786C17.6207 51.5201 16.2102 52.9305 14.4687 52.9305H11.9471C10.2056 52.9305 8.79518 54.341 8.79518 56.0825C8.79518 57.824 7.38471 59.2345 5.64321 59.2345H1.53148C0.560742 56.8516 0.0263672 54.2448 0.0263672 51.5122C0.0263672 49.829 0.229711 48.1931 0.612633 46.6266H14.4687C15.3386 46.6266 16.1267 46.9796 16.6972 47.5501C17.2677 48.1206 17.6207 48.9086 17.6207 49.7786Z" fill="#B9EA6A"/>
<path d="M10.071 37.6097C12.4957 37.6097 14.4613 35.6441 14.4613 33.2194C14.4613 30.7947 12.4957 28.8291 10.071 28.8291C7.64627 28.8291 5.68066 30.7947 5.68066 33.2194C5.68066 35.6441 7.64627 37.6097 10.071 37.6097Z" fill="#DFDFDF"/>
<path d="M11.6718 29.1316C11.8662 29.6276 11.974 30.167 11.974 30.7319C11.974 33.1566 10.0085 35.1222 7.58371 35.1222C7.01882 35.1222 6.47938 35.0144 5.9834 34.82C6.6231 36.4529 8.21174 37.61 10.0715 37.61C12.4962 37.61 14.4618 35.6445 14.4618 33.2198C14.4618 31.3599 13.3048 29.7713 11.6718 29.1316Z" fill="#BEBEBE"/>
<path d="M66.9981 9.95119C69.746 9.95119 71.9737 7.72354 71.9737 4.97559C71.9737 2.22765 69.746 0 66.9981 0C64.2501 0 62.0225 2.22765 62.0225 4.97559C62.0225 7.72354 64.2501 9.95119 66.9981 9.95119Z" fill="#FBA615"/>
<path d="M68.8121 0.342285C69.0323 0.904363 69.1545 1.51566 69.1545 2.15593C69.1545 4.90388 66.9268 7.13152 64.1789 7.13152C63.5386 7.13152 62.9273 7.00932 62.3652 6.7891C63.0903 8.63986 64.8906 9.95105 66.9984 9.95105C69.7464 9.95105 71.974 7.72341 71.974 4.97546C71.974 2.86777 70.6628 1.06735 68.8121 0.342285Z" fill="#FC840D"/>
<path d="M55.682 51.9232L56.4536 51.6104C56.9359 51.4147 56.9359 50.7319 56.4536 50.5363L55.682 50.2235C55.022 49.9559 54.4822 49.457 54.1638 48.8201L52.882 46.2563C52.6684 45.8293 52.0589 45.8293 51.8455 46.2563L50.5635 48.8201C50.245 49.457 49.7053 49.956 49.0453 50.2235L48.2739 50.5363C47.7915 50.7319 47.7915 51.4147 48.2739 51.6104L49.0455 51.9231C49.7054 52.1907 50.2452 52.6897 50.5637 53.3265L51.8456 55.8903C52.0592 56.3174 52.6687 56.3174 52.8821 55.8903L54.1639 53.3265C54.4823 52.6898 55.022 52.1909 55.682 51.9232Z" fill="#FBE77B"/>
<path d="M55.682 50.2231C55.1837 50.0212 54.7544 49.6869 54.4366 49.2614C53.6843 51.0529 51.983 52.3464 49.9619 52.5158C50.2055 52.7477 50.4105 53.0204 50.5634 53.3261L51.8453 55.8899C52.0589 56.317 52.6684 56.317 52.8819 55.8899L54.1638 53.3261C54.4823 52.6892 55.022 52.1902 55.682 51.9227L56.4536 51.6098C56.9359 51.4142 56.9359 50.7313 56.4536 50.5357L55.682 50.2231Z" fill="#FBE709"/>
<path d="M12.3656 9.92301L13.1372 9.61012C13.6195 9.41451 13.6195 8.73163 13.1372 8.53602L12.3656 8.22327C11.7056 7.95566 11.1658 7.45673 10.8474 6.81983L9.5656 4.2561C9.35199 3.82902 8.74252 3.82902 8.52906 4.2561L7.24712 6.81983C6.9286 7.45673 6.38888 7.9558 5.72893 8.22327L4.95746 8.53602C4.47512 8.73163 4.47512 9.41451 4.95746 9.61012L5.72907 9.92287C6.38902 10.1905 6.92874 10.6894 7.24726 11.3263L8.5292 13.89C8.74281 14.3171 9.35227 14.3171 9.56574 13.89L10.8475 11.3263C11.1658 10.6896 11.7055 10.1905 12.3656 9.92301Z" fill="#FBE77B"/>
<path d="M12.3656 8.22358C11.8673 8.02164 11.438 7.68737 11.1202 7.26184C10.3678 9.0534 8.66657 10.3469 6.64551 10.5163C6.88907 10.7482 7.0941 11.0209 7.24696 11.3266L8.5289 13.8903C8.74251 14.3174 9.35197 14.3174 9.56544 13.8903L10.8472 11.3266C11.1658 10.6897 11.7055 10.1906 12.3654 9.92317L13.137 9.61028C13.6194 9.41467 13.6194 8.73179 13.137 8.53618L12.3656 8.22358Z" fill="#FBE709"/>
<path d="M52.3639 22.4628C52.0859 22.4628 51.8078 22.3566 51.5956 22.1445L49.9754 20.5244C49.5512 20.1 49.5512 19.4122 49.9754 18.9876C50.3998 18.5635 51.0876 18.5635 51.5122 18.9876L53.1323 20.6078C53.5566 21.0322 53.5566 21.72 53.1323 22.1445C52.9201 22.3567 52.642 22.4628 52.3639 22.4628Z" fill="#E64343"/>
<path d="M57.9867 21.9297C57.7086 21.9297 57.4305 21.8236 57.2183 21.6115L55.7459 20.1391C55.3217 19.7147 55.3217 19.0269 55.7459 18.6024C56.1703 18.1783 56.8581 18.1783 57.2827 18.6024L58.755 20.0747C59.1793 20.4991 59.1793 21.1869 58.755 21.6115C58.5428 21.8236 58.2647 21.9297 57.9867 21.9297Z" fill="#E64343"/>
<path d="M55.99 29.2452C55.712 29.2452 55.4338 29.1391 55.2218 28.927L53.3779 27.0833C52.9535 26.659 52.9535 25.9711 53.3778 25.5467C53.8022 25.1223 54.4901 25.1224 54.9144 25.5465L56.7582 27.3903C57.1826 27.8145 57.1826 28.5025 56.7584 28.9269C56.5462 29.1391 56.268 29.2452 55.99 29.2452Z" fill="#E64343"/>
<path d="M50.3151 16.306C50.0371 16.306 49.7589 16.1998 49.5467 15.9878L47.703 14.144C47.2787 13.7196 47.2787 13.0318 47.703 12.6073C48.1274 12.1832 48.8152 12.1832 49.2397 12.6073L51.0835 14.451C51.5077 14.8754 51.5077 15.5632 51.0835 15.9878C50.8711 16.1998 50.5931 16.306 50.3151 16.306Z" fill="#E64343"/>
<path d="M45.8659 19.8181C45.5878 19.8181 45.3097 19.7119 45.0975 19.4999L43.2537 17.6561C42.8295 17.2317 42.8295 16.5439 43.2537 16.1194C43.6782 15.6952 44.366 15.6952 44.7905 16.1194L46.6342 17.9631C47.0585 18.3875 47.0585 19.0753 46.6342 19.4999C46.422 19.7119 46.1439 19.8181 45.8659 19.8181Z" fill="#E64343"/>
</g>
<defs>
<clipPath id="clip0">
<rect width="72" height="72" fill="white"/>
</clipPath>
</defs>
</svg>
