<svg width="36" height="44" viewBox="0 0 36 44" fill="none" xmlns="http://www.w3.org/2000/svg">
<g clip-path="url(#clip0)">
<path d="M7.11013 32.3624C2.78925 29.0716 0 23.8699 0 18.0162C0 8.06611 8.05887 0 18 0C27.9411 0 36 8.06611 36 18.0162C36 23.861 33.2192 29.0558 28.9095 32.3474L18.0442 33.2402L7.11013 32.3624Z" fill="#E592D0"/>
<path d="M31.986 29.3588C31.0829 30.4726 30.0498 31.4765 28.9097 32.3477L18.0442 33.2401L7.10978 32.3627C2.78889 29.072 0 23.8699 0 18.0162C0 12.3652 2.59961 7.32157 6.66752 4.01758C4.15813 7.11441 2.65356 11.0611 2.65356 15.3602C2.65356 20.7762 5.04088 25.6343 8.82018 28.9369C9.39007 29.4349 10.1064 29.7343 10.8605 29.7948L11.4724 29.8439C17.6126 30.3366 23.7826 30.3307 29.9218 29.8266L31.5632 29.6917C31.7056 29.5828 31.8463 29.4722 31.986 29.3588Z" fill="#E172C1"/>
<path d="M7.51904 32.314H28.5706C29.5477 32.314 30.3397 33.1067 30.3397 34.0846V38.157L18.1832 39.0424L5.75 38.157V34.0846C5.75 33.1067 6.542 32.314 7.51904 32.314Z" fill="#365F7E"/>
<path d="M4.86474 38.1567H31.2235C32.2005 38.1567 32.9925 38.9494 32.9925 39.9274V43.1145C32.9925 43.6035 32.5965 43.9998 32.108 43.9998H3.98022C3.4917 43.9998 3.0957 43.6035 3.0957 43.1145V39.9274C3.0957 38.9494 3.8877 38.1567 4.86474 38.1567Z" fill="#365F7E"/>
<path d="M4.86474 43.1145V40.37C4.86474 40.1256 5.06279 39.9274 5.307 39.9274H32.9925C32.9925 38.9491 32.2009 38.1567 31.2235 38.1567H6.63379H4.86474C3.8877 38.1567 3.0957 38.9494 3.0957 39.9274V43.1145C3.0957 43.6035 3.4917 43.9998 3.98022 43.9998H5.74927C5.26101 43.9998 4.86474 43.6032 4.86474 43.1145Z" fill="#2C4D66"/>
<path d="M18.1273 5.71599L19.31 7.70166C19.3736 7.80843 19.4791 7.88359 19.6008 7.90856L21.8631 8.37397C22.1952 8.44232 22.3302 8.84381 22.1068 9.09913L20.5855 10.8385C20.5036 10.9321 20.4649 11.0558 20.4787 11.1794L20.7356 13.4768C20.7732 13.814 20.4334 14.0665 20.1218 13.9329L17.9989 13.0222C17.8847 12.9733 17.7552 12.9746 17.642 13.0259L15.5384 13.9804C15.2296 14.1206 14.8846 13.8751 14.9153 13.5371L15.1246 11.2349C15.1358 11.111 15.0945 10.9882 15.0109 10.8963L13.4538 9.18881C13.2253 8.93818 13.3519 8.53395 13.6825 8.45878L15.9347 7.94663C16.0559 7.91909 16.1598 7.84181 16.2212 7.73371L17.3626 5.72395C17.5304 5.42888 17.9537 5.42454 18.1273 5.71599Z" fill="#F8E837"/>
<path d="M16.4937 10.772L16.2514 13.6572L15.5384 13.9804C15.2297 14.1203 14.8848 13.875 14.9148 13.5368L15.1245 11.235C15.136 11.1111 15.0944 10.988 15.0104 10.8959L13.4536 9.18906C13.2254 8.93763 13.3519 8.53393 13.6827 8.45868L14.4469 8.28516L16.3761 10.4205C16.4628 10.5161 16.5052 10.6436 16.4937 10.772Z" fill="#F3D332"/>
<path d="M10.3108 14.4414L11.126 15.8101C11.1699 15.8836 11.2426 15.9354 11.3264 15.9527L12.8859 16.2734C13.1148 16.3205 13.2077 16.5973 13.0538 16.7733L12.0052 17.9722C11.9488 18.0366 11.9221 18.1219 11.9316 18.2071L12.1087 19.7905C12.1347 20.023 11.9005 20.1971 11.6856 20.1049L10.2224 19.4772C10.1437 19.4435 10.0544 19.4444 9.9764 19.4798L8.52649 20.1377C8.31367 20.2343 8.07591 20.0651 8.09705 19.8321L8.24132 18.2453C8.2491 18.16 8.22062 18.0752 8.16286 18.0119L7.08967 16.835C6.93214 16.6623 7.01944 16.3836 7.2473 16.3318L8.79972 15.9787C8.88322 15.9598 8.95486 15.9065 8.99723 15.8319L9.78392 14.4467C9.89944 14.2435 10.1912 14.2405 10.3108 14.4414Z" fill="#F8E837"/>
<path d="M9.27188 17.8419L9.11709 19.8702L8.52623 20.1384C8.31306 20.2349 8.07601 20.0658 8.09724 19.8321L8.24141 18.2456C8.24849 18.1606 8.22018 18.0756 8.16269 18.0119L7.08977 16.8353C6.93232 16.6627 7.01901 16.3838 7.24721 16.3325L7.91591 16.1802L9.18608 17.5878C9.24888 17.6569 9.27984 17.749 9.27188 17.8419Z" fill="#F3D332"/>
<path d="M9.28808 32.314C8.31069 32.314 7.51904 33.1063 7.51904 34.0846V38.1571H5.75V34.0846C5.75 33.1063 6.54165 32.314 7.51904 32.314H9.28808Z" fill="#2C4D66"/>
</g>
<defs>
<clipPath id="clip0">
<rect width="36" height="44" fill="white"/>
</clipPath>
</defs>
</svg>
