<svg width="46" height="29" viewBox="0 0 46 29" fill="none" xmlns="http://www.w3.org/2000/svg">
<path d="M20.6563 10.7562C20.6047 12.6618 20.3726 14.4169 19.9601 16.0215C19.5476 17.576 18.9545 19.0804 18.181 20.5346C17.4075 21.9387 16.4535 23.3177 15.319 24.6716C14.5805 25.5529 13.7765 26.4448 12.907 27.3474C12.045 28.2421 10.707 28.4644 9.57933 27.9428L6.87948 26.6942C6.02552 26.2992 5.81414 25.1468 6.34616 24.3708C6.70713 23.8192 7.06811 23.1673 7.42909 22.4151C7.53571 22.2207 7.64061 22.0162 7.74378 21.8017C8.2644 20.7194 7.54084 19.5042 6.43523 19.0351C4.98872 18.4213 3.72139 17.517 2.63326 16.3224C1.03466 14.5172 0.235352 12.411 0.235352 10.004C0.235352 8.59997 0.493191 7.29619 1.00887 6.09269C1.57612 4.8892 2.32385 3.83614 3.25208 2.93352C4.1803 2.0309 5.26323 1.32886 6.50086 0.827403C7.73849 0.275801 9.07926 0 10.5232 0C11.9155 0 13.2305 0.275801 14.4681 0.827403C15.7057 1.32886 16.7629 2.05597 17.6395 3.00874C18.5678 3.9615 19.2897 5.11485 19.8054 6.46878C20.3726 7.77257 20.6563 9.20172 20.6563 10.7562ZM45.1768 10.004C45.1253 12.1102 44.8932 14.0157 44.4807 15.7206C44.0681 17.3755 43.4751 18.955 42.7016 20.4594C41.9281 21.9136 40.9741 23.3177 39.8396 24.6716C39.1359 25.5514 38.3561 26.4417 37.5 27.3426C36.6442 28.2432 35.3049 28.4644 34.1773 27.9428L31.432 26.6732C30.5749 26.2768 30.3328 25.1496 30.8667 24.3708C31.2277 23.8192 31.5887 23.1673 31.9497 22.4151C32.0438 22.2434 32.138 22.0639 32.2321 21.8765C32.7887 20.7692 32.0664 19.4921 30.9258 19.0074C29.483 18.3942 28.2257 17.4992 27.1538 16.3224C25.5552 14.5172 24.7559 12.411 24.7559 10.004C24.7559 8.59997 25.0138 7.29619 25.5294 6.09269C26.0967 4.8892 26.8444 3.83614 27.7727 2.93352C28.7009 2.0309 29.7838 1.32886 31.0214 0.827403C32.3106 0.275801 33.6514 0 35.0437 0C36.4361 0 37.7511 0.275801 38.9887 0.827403C40.2263 1.32886 41.2835 2.0309 42.1601 2.93352C43.0883 3.83614 43.8103 4.8892 44.326 6.09269C44.8932 7.29619 45.1768 8.59997 45.1768 10.004Z" fill="url(#paint0_linear)"/>
<defs>
<linearGradient id="paint0_linear" x1="9.59816" y1="-4.73999e-07" x2="23.4287" y2="34.521" gradientUnits="userSpaceOnUse">
<stop stop-color="#EB5A74"/>
<stop offset="1" stop-color="#E63050"/>
</linearGradient>
</defs>
</svg>
