<svg width="61" height="39" viewBox="0 0 61 39" fill="none" xmlns="http://www.w3.org/2000/svg">
<path d="M27.7177 14.5614C27.6477 17.141 27.3328 19.517 26.7728 21.6893C26.2129 23.7937 25.4079 25.8303 24.358 27.799C23.3081 29.6997 22.0132 31.5666 20.4733 33.3995C18.9334 35.2324 17.1836 37.0992 15.2238 39L6.61446 35.0287C7.17441 34.4856 7.73437 33.8068 8.29432 32.9922C8.78428 32.2454 9.27424 31.3629 9.7642 30.3446C10.3242 29.3264 10.8491 28.1044 11.3391 26.6789C8.11933 26 5.42456 24.4726 3.25473 22.0966C1.08491 19.6527 0 16.8016 0 13.5431C0 11.6423 0.349971 9.87728 1.04991 8.24804C1.81985 6.6188 2.83477 5.19321 4.09466 3.97128C5.35456 2.74935 6.82444 1.79896 8.5043 1.1201C10.1842 0.373368 12.004 0 13.9639 0C15.8537 0 17.6386 0.373368 19.3184 1.1201C20.9983 1.79896 22.4332 2.78329 23.6231 4.07311C24.883 5.36292 25.8629 6.92428 26.5628 8.75718C27.3328 10.5222 27.7177 12.4569 27.7177 14.5614ZM61 13.5431C60.93 16.3943 60.615 18.9739 60.0551 21.282C59.4951 23.5222 58.6902 25.6606 57.6403 27.6971C56.5904 29.6658 55.2955 31.5666 53.7556 33.3995C52.2857 35.2324 50.5709 37.0992 48.611 39L40.0017 35.0287C40.4917 34.4856 41.0166 33.8068 41.5766 32.9922C42.0666 32.2454 42.5565 31.3629 43.0465 30.3446C43.6064 29.3264 44.1664 28.1044 44.7263 26.6789C41.4366 26 38.7068 24.4726 36.537 22.0966C34.3672 19.6527 33.2823 16.8016 33.2823 13.5431C33.2823 11.6423 33.6322 9.87728 34.3322 8.24804C35.1021 6.6188 36.117 5.19321 37.3769 3.97128C38.6368 2.74935 40.1067 1.79896 41.7866 1.1201C43.5364 0.373368 45.3563 0 47.2461 0C49.136 0 50.9208 0.373368 52.6007 1.1201C54.2806 1.79896 55.7154 2.74935 56.9053 3.97128C58.1652 5.19321 59.1452 6.6188 59.8451 8.24804C60.615 9.87728 61 11.6423 61 13.5431Z" fill="url(#paint0_linear)"/>
<defs>
<linearGradient id="paint0_linear" x1="12.7083" y1="-6.41681e-07" x2="31.396" y2="46.767" gradientUnits="userSpaceOnUse">
<stop stop-color="#EB5A74"/>
<stop offset="1" stop-color="#E63050"/>
</linearGradient>
</defs>
</svg>
