<svg width="80" height="79" viewBox="0 0 80 79" fill="none" xmlns="http://www.w3.org/2000/svg">
<g clip-path="url(#clip0)">
<path d="M74.6076 71.8626L63.6046 74.281C61.9685 74.3069 60.3948 74.9182 59.1691 76.0027L51.5165 82.7984L41.4905 80.7436C39.8866 80.4178 38.2182 80.676 36.7887 81.4722L26.305 84.2836C26.7121 85.8104 38.7238 92.2619 26.305 84.2836C26.0336 83.3042 24.7334 80.9335 22.999 77.9102C18.1407 69.4415 9.87549 55.8513 11.2729 53.3714L11.6591 53.2678C14.7049 52.451 17.7066 53.7635 18.3606 56.2024L18.7468 56.0988C18.6728 58.4431 18.7674 60.7894 19.0327 63.1196L28.3726 58.2491L28.6822 58.036C30.2998 60.5086 33.3256 61.6596 36.1776 60.8877C36.5638 60.7841 36.925 60.6755 37.2723 60.5587L37.2811 60.5918C37.873 62.7989 41.7755 64.1182 46.1896 62.9345C50.6038 61.7507 52.219 58.9518 51.6271 56.7447L51.6137 56.6063C52.3636 56.5046 53.1048 56.3531 53.8342 56.1528C56.6897 55.3941 58.7336 52.8836 58.897 49.9333L59.2717 49.963L69.7954 49.5067C68.8591 47.3564 67.767 45.2776 66.53 43.2849L66.9162 43.1813C66.2622 40.7424 68.2044 38.1042 71.2501 37.2874L71.6364 37.1838C74.0511 38.6105 74.0145 54.2772 74.1844 64.1839C74.2485 67.921 74.342 70.8384 74.6076 71.8626C75.0191 73.3883 74.7038 70.2849 74.6076 71.8626Z" fill="#FFF9F9"/>
<path d="M69.4283 34.9033L69.039 35.0077C65.9694 35.8309 63.9321 38.1921 64.4927 40.2826L64.1034 40.3869C62.7179 38.2257 60.903 36.3125 58.7354 34.729L62.717 33.6612C64.1887 33.5475 65.6475 33.6794 67.0176 34.0491C67.8608 34.255 68.6695 34.541 69.4283 34.9033Z" fill="#D9D3D3"/>
<path d="M50.5369 22.2476C53.6691 22.981 57.561 24.6816 59.7941 28.5305C59.7941 28.5305 65.5726 29.3467 66.4605 32.6574L59.6348 34.4878C58.1301 33.0483 56.1554 32.298 54.1619 32.4067L53.9367 32.479C52.4581 30.7261 50.203 29.9587 48.0874 30.487C46.4899 30.9154 45.4475 32.709 45.0288 34.9624L44.8259 34.9104C44.8259 34.9104 40.9755 28.8454 37.8635 29.68C34.7515 30.5145 34.4525 37.6922 34.4525 37.6922L34.3027 37.8388C32.8127 36.0973 31.0128 35.0658 29.4153 35.4942C27.3193 36.0954 25.7507 37.8882 25.3476 40.1456L25.1164 40.1958C23.336 41.0991 22.0017 42.7368 21.4192 44.736L14.5935 46.5665C13.7057 43.2558 18.3005 39.6578 18.3005 39.6578C18.3081 35.208 20.8269 31.7882 23.1719 29.5861C24.3487 28.4554 25.6491 27.475 27.0478 26.6658C27.4932 24.1805 29.4636 21.2863 35.2001 19.748C40.9366 18.2096 44.0907 19.7296 45.7199 21.6586C47.3358 21.6594 48.9523 21.8575 50.5369 22.2476Z" fill="#C1B7B8"/>
<path d="M64.4422 39.5569C65.6043 41.4244 66.63 43.3728 67.509 45.3883L57.6064 45.826L57.2539 45.7985C57.2989 45.1111 57.2299 44.422 57.0515 43.7568C55.9778 39.753 51.3911 37.5119 46.8003 38.743L50.9548 37.6289C53.2492 37.0136 54.6125 34.6618 53.9996 32.3764C53.8957 32.0261 53.7246 31.6994 53.4965 31.4135L53.7222 31.3418C55.7114 31.2076 57.6682 31.8828 59.1453 33.2145C61.2561 35.0161 63.047 37.1608 64.4422 39.5569Z" fill="#D4C9CA"/>
<path d="M56.7127 9.24724C57.284 9.09628 57.8706 9.44058 58.0231 10.0175C58.0396 10.079 58.0499 10.1421 58.0558 10.2054L59.3236 26.4222L59.8826 28.5067C57.715 24.8873 53.8717 23.3261 50.7704 22.6719C51.1861 20.3372 53.1456 10.2038 55.8856 9.46906L56.7127 9.24724Z" fill="#FAA8A5"/>
<path d="M54.524 9.8342L55.5356 9.56292C52.8548 10.2818 50.9892 20.3884 50.5944 22.7171C49.0555 22.3602 47.4839 22.1851 45.9115 22.1969C45.9115 22.1969 51.4892 10.648 54.524 9.8342Z" fill="#C7C3C2"/>
<path d="M54.2968 32.3823C54.5395 32.6874 54.7217 33.036 54.8326 33.4097C55.4863 35.8474 54.0398 38.3539 51.6021 39.0076L49.395 39.5995C51.2236 39.1091 52.3082 37.2296 51.8178 35.401C51.3275 33.5724 49.448 32.4878 47.6194 32.9782C45.7908 33.4686 44.7062 35.3481 45.1965 37.1767C45.6869 39.0052 47.5664 40.0899 49.395 39.5995L44.9808 40.7833C44.4839 38.8996 44.4282 36.9273 44.8189 35.0186C45.2985 32.7489 46.4316 30.9309 48.131 30.4751C50.381 29.9108 52.7582 30.6455 54.2968 32.3823Z" fill="#DCE1EB"/>
<path d="M45.8471 53.0534C44.6894 52.7371 43.6944 52.0616 43.0259 51.1348L42.4796 49.0975C42.9191 48.9764 43.2964 48.6983 43.5264 48.3255L45.2439 46.1724L43.878 41.0792L47.1887 40.1914C52.0664 38.8834 56.8721 41.0123 57.9293 44.9544C58.1049 45.6094 58.1644 46.2901 58.1035 46.9714C57.8841 49.713 55.8024 52.0827 52.947 52.8419C52.2175 53.0419 51.4771 53.1967 50.7292 53.3056C49.088 53.595 47.4122 53.5083 45.8471 53.0534Z" fill="#F2ECEC"/>
<path d="M49.3959 39.5995C51.2243 39.1091 52.309 37.2294 51.8187 35.401C51.3284 33.5726 49.4487 32.4878 47.6202 32.9782C45.7918 33.4685 44.7071 35.3482 45.1974 37.1766C45.6877 39.0051 47.5674 40.0898 49.3959 39.5995Z" fill="#4A9BF6"/>
<path d="M50.6054 52.933L50.6235 53.0816C51.2633 55.4677 49.869 58.3992 45.8006 59.4902C41.7322 60.5813 38.041 59.0135 37.4012 56.6274L37.3916 56.5916C39.2056 56.0706 40.8162 54.966 42.0416 53.4008C42.6354 54.6189 43.9413 55.1306 44.9584 54.5445C45.6665 54.136 46.0743 53.2785 46.0083 52.3371C47.5054 52.9599 49.0834 53.1647 50.6054 52.933Z" fill="#FFF9F9"/>
<path d="M43.5814 39.9757L45.0611 45.4934C44.8066 44.5444 43.2369 43.6168 41.7103 44.0262C40.1837 44.4355 39.2888 46.0241 39.5433 46.9731L37.7677 40.3518C37.2773 38.5232 38.1149 36.7099 39.6388 36.3013C41.1626 35.8927 42.7951 37.0435 43.2855 38.8721L43.5814 39.9757Z" fill="#FFF9F9"/>
<path d="M17.318 57.9014L17.2521 57.919C17.0799 60.0221 17.2473 62.132 17.7485 64.1737L27.7181 59.3709L28.0502 59.1647C29.8591 61.42 32.9367 62.3353 35.7871 61.4655C36.199 61.3551 36.5783 61.2427 36.9467 61.1226L36.9547 61.1524C37.4874 63.1388 41.5209 64.1864 46.1892 62.9345C50.8576 61.6826 52.6581 59.0705 52.1254 57.0841L52.1161 56.9589C52.9056 56.8366 53.6884 56.6692 54.4596 56.4582C57.3615 55.7843 59.5673 53.4532 60.0051 50.5955L60.3958 50.6078L71.4308 49.7778C70.8444 47.76 69.9344 45.8482 68.7341 44.1132L68.6682 44.1309C68.1174 42.077 69.9545 39.7744 72.8331 38.7789C71.8044 37.4536 70.5082 36.3448 69.023 35.5188L68.6626 35.6154C65.8208 36.3775 63.9912 38.7738 64.5798 40.9688L64.2194 41.0654C65.3544 42.853 66.3538 44.7196 67.2075 46.6519L57.4081 47.1505L57.0596 47.1268C56.8831 49.79 54.9599 52.0719 52.2956 52.78C51.615 52.9668 50.9238 53.1095 50.225 53.2075L50.2363 53.3322C50.769 55.3186 49.2424 57.8572 45.1239 58.9617C41.0053 60.0662 37.3837 58.9081 36.851 56.9217L36.843 56.8919C36.5189 57.0002 36.1818 57.1012 35.8214 57.1979C33.1603 57.9179 30.3534 56.9044 28.8681 54.6869L28.5782 54.8818L19.8441 59.3532C19.6164 57.2531 19.5478 55.1369 19.6361 53.0213L19.2757 53.1179C18.6871 50.9229 15.9039 49.7636 13.0621 50.5257L12.7017 50.6223C11.8291 52.0807 11.2616 53.6893 11.0341 55.3515C14.0245 54.7731 16.7672 55.8474 17.318 57.9014Z" fill="#F0E9E9"/>
<path d="M45.0608 45.4934L43.7354 47.6824C43.389 48.4673 42.5369 48.7159 41.8308 48.2369C41.8153 48.2268 41.8004 48.2155 41.7858 48.2052L39.543 46.9731C39.2885 46.024 40.1835 44.4355 41.7101 44.0261C43.2366 43.6168 44.8063 44.5444 45.0608 45.4934Z" fill="#FAA8A5"/>
<path d="M41.6965 54.1666C40.4143 55.5663 38.7658 56.5827 36.9368 57.1027C36.6144 57.211 36.279 57.3118 35.9203 57.408C33.272 58.1248 30.465 57.066 28.9669 54.7849C28.5894 54.2212 28.3086 53.5998 28.1329 52.9448C27.0757 49.0026 29.8892 44.8304 34.4185 43.6158L37.4927 42.7914L38.8586 47.8847L41.27 48.9305C41.6337 49.1442 42.0694 49.2042 42.4791 49.0977L43.0254 51.135C42.9384 52.2644 42.4691 53.3326 41.6965 54.1666Z" fill="#F2ECEC"/>
<path d="M37.2565 42.8548L32.8423 44.0385C34.6709 43.5481 35.7555 41.6686 35.2652 39.84C34.7748 38.0115 32.8953 36.9268 31.0667 37.4172C29.2381 37.9076 28.1535 39.7871 28.6439 41.6157C29.1342 43.4443 31.0137 44.5289 32.8423 44.0385L30.6352 44.6304C28.1975 45.2841 25.691 43.8377 25.0373 41.3999C24.9463 41.021 24.9296 40.628 24.9871 40.2423C25.4503 37.9687 27.1408 36.1432 29.3713 35.506C31.0707 35.0503 32.9614 36.0574 34.5123 37.7826C35.8056 39.2397 36.7442 40.9753 37.2565 42.8548Z" fill="#DCE1EB"/>
<path d="M32.8421 44.0386C34.6706 43.5482 35.7553 41.6685 35.265 39.8401C34.7747 38.0117 32.8949 36.9269 31.0665 37.4172C29.2381 37.9076 28.1533 39.7873 28.6437 41.6157C29.134 43.4441 31.0137 44.5289 32.8421 44.0386Z" fill="#4A9BF6"/>
<path d="M20.3993 43.6047C21.0772 41.6951 22.5372 40.1036 24.4447 39.1929L24.6902 39.1381C24.627 39.5022 24.6374 39.872 24.7221 40.2275C25.335 42.5129 27.8083 43.8358 30.2461 43.182L34.6603 41.9983C29.7826 43.3063 26.7003 47.604 27.774 51.6078C27.9524 52.2731 28.2441 52.9024 28.6404 53.4715L28.3289 53.677L18.9518 58.4096C18.724 56.2194 18.6666 54.0113 18.7769 51.8026C18.8299 49.0182 19.3782 46.2462 20.3993 43.6047Z" fill="#D4C9CA"/>
<path d="M27.1512 27.2278C25.7839 28.0044 24.5108 28.9423 23.357 30.0214C21.85 28.2026 15.1778 20.3856 12.4971 21.1045L13.5087 20.8332C16.5434 20.0194 27.1512 27.2278 27.1512 27.2278Z" fill="#C7C3C2"/>
<path d="M23.1818 30.0704C21.1274 32.1072 18.9361 35.2867 18.9944 39.4717L18.4354 37.3872L11.7384 22.6263C11.4957 22.0848 11.68 21.4533 12.152 21.215C12.2025 21.1903 12.255 21.1695 12.3093 21.1549L13.0445 20.9578C15.4799 20.3047 21.7618 28.228 23.1818 30.0704Z" fill="#FAA8A5"/>
<path d="M17.6749 45.7399L21.2142 44.7908C20.3104 47.1979 19.8312 49.7264 19.7965 52.2685L19.4505 52.3613C18.8899 50.2708 16.2213 49.1715 13.4927 49.9032L13.1467 49.996C13.5539 49.3211 14.0351 48.6891 14.5805 48.1109C15.45 47.1406 16.4995 46.336 17.6749 45.7399Z" fill="#D9D3D3"/>
<path d="M24.0597 32.8967C25.2365 31.7661 26.537 30.7857 27.9356 29.9765C28.3811 27.4912 30.3514 24.597 36.0879 23.0586C41.8244 21.5203 44.9785 23.0403 46.6077 24.9692C48.2236 24.97 49.8401 25.1682 51.4247 25.5583C54.5569 26.2916 58.4488 27.9923 60.6819 31.8412C62.0665 32.0661 63.4182 32.4997 64.697 33.1303L66.4605 32.6574C65.5726 29.3467 59.7941 28.5305 59.7941 28.5305C57.561 24.6816 53.6691 22.981 50.5369 22.2476C48.9523 21.8575 47.3358 21.6594 45.7199 21.6586C44.0907 19.7296 40.9366 18.2096 35.2001 19.748C29.4636 21.2863 27.4932 24.1805 27.0478 26.6658C25.6491 27.475 24.3487 28.4554 23.1719 29.5861C20.8269 31.7882 18.3081 35.208 18.3005 39.6578C18.3005 39.6578 13.7057 43.2558 14.5935 46.5665L16.357 46.0936C17.1487 44.9077 18.102 43.856 19.1883 42.9684C19.1959 38.5187 21.7147 35.0988 24.0597 32.8967Z" fill="#D4C9CA"/>
<path d="M44.4418 35.0134L44.6317 35.0689C44.3501 36.9484 44.4631 38.9054 44.9609 40.7887L44.0004 41.0463L43.7044 39.9428C43.2141 38.1142 41.5266 36.978 39.935 37.4049C38.3434 37.8317 37.4508 39.6597 37.9412 41.4883L38.2371 42.5918L37.2766 42.8494C36.7653 40.9697 35.8839 39.2187 34.6997 37.7324L34.8364 37.5892C34.8364 37.5892 34.9818 30.4528 37.8634 29.68C40.7451 28.9072 44.4418 35.0134 44.4418 35.0134Z" fill="#F2EDED"/>
<path d="M45.0724 54.3566C45.4725 54.6512 45.8926 54.9005 46.3285 55.1014C47.7387 55.6995 49.2153 55.9449 50.6588 55.8214C50.8839 55.0228 50.89 54.1418 50.678 53.2937L50.6575 53.1282C48.9903 53.3786 47.2596 53.1429 45.6154 52.4423C45.6676 53.1622 45.4729 53.8515 45.0724 54.3566Z" fill="#E6DDDD"/>
<path d="M42.8501 54.891C42.3366 54.6449 41.8872 54.1506 41.6003 53.5192C40.5301 55.1362 39.0851 56.2472 37.4283 56.7287L37.4386 56.7672C37.725 57.6862 38.2595 58.4755 38.9258 58.968C40.2585 58.4304 41.4152 57.4408 42.2922 56.0846C42.5111 55.7191 42.698 55.3196 42.8501 54.891Z" fill="#E6DDDD"/>
<path d="M43.4865 50.6474C44.8631 52.9702 46.7996 54.7442 48.9777 55.6855C49.2084 58.4856 47.5332 60.7259 45.237 60.6906C43.6378 60.6651 42.0901 59.5255 41.2528 57.757C42.6677 55.8522 43.4568 53.3473 43.4865 50.6474Z" fill="#FAA8A5"/>
<path d="M43.7435 60.0416C44.3596 58.515 44.6641 56.7604 44.6328 54.9257C45.5237 56.5298 46.6652 57.8967 47.9625 58.9102C48.6505 57.921 48.9578 56.5492 48.8199 55.1008C46.6092 54.038 44.6237 52.0812 43.1896 49.5439C43.2174 52.4583 42.4774 55.146 41.0951 57.1723C41.7004 58.4954 42.6529 59.5293 43.7435 60.0416Z" fill="#F28D8B"/>
<path d="M47.2457 40.178L43.9117 41.0721L45.1444 45.6685L45.1169 45.6995C46.2993 45.8219 47.5141 45.7809 48.7175 45.5774C49.4684 45.4589 50.2128 45.2986 50.9475 45.0977C53.1159 44.5211 54.9148 43.1046 55.7671 41.3033C53.4563 39.7315 50.2662 39.3098 47.2457 40.178Z" fill="#FFF9F9"/>
<path d="M34.2428 49.5774C34.6317 49.4731 34.9959 49.3656 35.3465 49.2519C36.8833 48.7915 38.328 48.0897 39.6003 47.1848L39.5518 47.1683L38.3191 42.5716L34.9858 43.4654C31.9393 44.2253 29.391 46.1858 28.1779 48.7017C29.8154 49.8335 32.0791 50.1606 34.2428 49.5774Z" fill="#FFF9F9"/>
<path d="M43.6852 47.4915C43.3194 48.2044 42.4667 48.4509 41.7793 48.0415C41.7642 48.0329 41.7497 48.0232 41.7355 48.0144L39.5439 46.9731L39.5892 47.1418C39.7285 47.6614 40.0564 48.1084 40.4998 48.3836L41.479 48.9912C41.9224 49.2663 42.2503 49.7133 42.3896 50.2329L42.8629 51.9977C43.16 51.4367 43.3278 50.8053 43.3545 50.155C43.703 50.7047 44.1642 51.1674 44.7021 51.5044L44.2289 49.7397C44.0896 49.2201 44.1498 48.669 44.396 48.2089L44.9398 47.1929C45.1861 46.7328 45.2463 46.1817 45.1069 45.6621L45.0617 45.4935L43.6852 47.4915Z" fill="#FFC4C2"/>
<path d="M54.1419 38.0058C56.252 37.44 57.3893 34.8535 56.8321 32.1049C55.7855 31.5396 54.6108 31.3001 53.4513 31.4145L53.2331 31.4843C53.4582 31.7774 53.6285 32.1112 53.7339 32.4681C54.3581 34.7956 53.0646 37.1653 50.845 37.7605L46.8259 38.8383C51.267 37.6474 55.7485 39.9807 56.842 44.0583C57.0237 44.7358 57.0995 45.4361 57.0646 46.1333L57.4071 46.1656L60.5917 46.0604C58.7279 39.7328 56.7342 37.3107 54.1419 38.0058Z" fill="#C1B7B8"/>
<path d="M30.6675 43.1715C28.4479 43.7667 26.1423 42.3622 25.5181 40.0347C25.4308 39.673 25.4112 39.2987 25.4594 38.9323L25.2355 38.981C24.1744 39.4621 23.2772 40.2572 22.6539 41.2703C23.5467 43.929 25.8256 45.5993 27.9357 45.0335C25.3433 45.7287 24.8291 48.8234 26.3814 55.2345L29.1913 53.7322L29.4717 53.5328C29.0927 52.9466 28.8079 52.3024 28.6262 51.6249C27.5327 47.5472 30.2455 43.2847 34.6866 42.0937L30.6675 43.1715Z" fill="#C1B7B8"/>
<path d="M54.5598 21.8791C53.4442 21.5761 52.7681 20.4347 53.0378 19.3066L54.6917 12.6303C54.9739 11.491 55.8494 10.596 56.9781 10.2933L58.0219 10.0134C57.8781 9.44415 57.302 9.09814 56.7349 9.24129L55.9057 9.46366C53.1589 10.2003 51.1885 20.3365 50.7704 22.6719C53.8785 23.3243 57.7298 24.8834 59.9001 28.502L59.3411 26.4175L59.2049 24.6665C57.8698 23.4169 56.2864 22.4674 54.5598 21.8791Z" fill="#F28D8B"/>
<path d="M13.0263 20.9627L12.2892 21.1603C11.7902 21.3031 11.5135 21.8767 11.6732 22.4427L12.4102 22.2451C13.4136 21.976 14.5038 22.3439 15.2573 23.2054L19.6727 28.2542C20.4114 29.1118 20.4355 30.4281 19.7283 31.2199C18.7514 32.4751 18.022 33.9499 17.5825 35.5592L18.4196 37.3915L18.9786 39.476C18.9227 35.2903 21.1212 32.1088 23.1818 30.0704C21.7596 28.2286 15.4678 20.3079 13.0263 20.9627Z" fill="#F28D8B"/>
<path d="M54.524 9.8342C53.856 10.0971 53.2635 10.5241 52.7976 11.0791C51.4122 13.5595 50.4106 18.7563 50.4106 18.7563C49.9971 19.6324 49.1046 20.1577 48.1524 20.0846L46.9802 20.0963C46.3263 21.3417 45.9115 22.1969 45.9115 22.1969C47.4839 22.1851 49.0555 22.3602 50.5944 22.7171C50.9892 20.3884 52.8548 10.2818 55.5356 9.56292L54.524 9.8342Z" fill="#ABA7A6"/>
<path d="M21.5343 26.5001C21.5343 26.5001 18.0668 22.5017 15.6263 21.0472C14.9451 20.7999 14.2185 20.7266 13.5087 20.8332L12.4971 21.1045C15.1778 20.3856 21.85 28.2026 23.357 30.0214C24.5108 28.9423 25.7839 28.0044 27.1512 27.2278C27.1512 27.2278 26.3642 26.6949 25.18 25.9424L24.1592 26.5189C23.3699 27.0612 22.3323 27.0535 21.5343 26.5001Z" fill="#ABA7A6"/>
<path d="M32.8423 44.0385L30.6352 44.6304C28.1975 45.2841 25.691 43.8377 25.0373 41.3999C24.546 39.568 26.3255 36.3228 29.3713 35.506C30.8855 35.2419 32.4329 35.7319 33.5203 36.8184C35.3335 38.4188 36.6336 40.5188 37.2565 42.8548L32.8423 44.0385Z" fill="#4A9BF6"/>
<path d="M49.395 39.5995L44.9808 40.7833C44.3513 38.449 44.4262 35.9803 45.1953 33.6874C45.5932 32.2026 46.6878 31.0041 48.1311 30.4751C51.1769 29.6584 54.3413 31.5778 54.8326 33.4097C55.4863 35.8474 54.0398 38.3539 51.6021 39.0076L49.395 39.5995Z" fill="#4A9BF6"/>
<path d="M52.9213 35.1051C52.2818 32.6754 49.7501 31.2357 47.2647 31.8904C46.6026 32.0644 45.9857 32.3801 45.4597 32.8133C45.3007 33.1091 45.1603 33.4153 45.0411 33.7287C44.4755 35.3271 44.2648 37.0219 44.422 38.6997C44.8779 39.4434 45.5434 40.0397 46.3393 40.4189L51.5524 39.0209C51.8189 38.9459 52.0795 38.8488 52.3291 38.7286C53.0341 37.65 53.2487 36.335 52.9213 35.1051Z" fill="#1A1511"/>
<path d="M32.8572 36.1917C30.328 35.7755 27.9101 37.4532 27.4576 39.9396C27.1009 41.8987 28.0757 43.8462 29.8675 44.7523C30.1438 44.7314 30.4182 44.6851 30.6866 44.6166L35.9018 43.2181C36.4004 42.4916 36.6758 41.6416 36.6976 40.7709C35.9955 39.2402 34.9669 37.8774 33.6779 36.7749C33.4178 36.5631 33.1429 36.3682 32.8572 36.1917Z" fill="#1A1511"/>
<path d="M49.3959 39.5995C51.2243 39.1091 52.309 37.2294 51.8187 35.401C51.3284 33.5726 49.4487 32.4878 47.6202 32.9782C45.7918 33.4685 44.7071 35.3482 45.1974 37.1766C45.6877 39.0051 47.5674 40.0898 49.3959 39.5995Z" fill="#1A1511"/>
<path d="M49.0298 35.2689C49.1518 35.0575 49.0126 34.7488 48.7188 34.5792C48.425 34.4097 48.088 34.4436 47.966 34.655C47.844 34.8664 47.9833 35.1752 48.277 35.3447C48.5708 35.5142 48.9079 35.4803 49.0298 35.2689Z" fill="#F6FAFD"/>
<path d="M32.8421 44.0386C34.6706 43.5482 35.7553 41.6685 35.265 39.8401C34.7747 38.0117 32.8949 36.9269 31.0665 37.4172C29.2381 37.9076 28.1533 39.7873 28.6437 41.6157C29.134 43.4441 31.0137 44.5289 32.8421 44.0386Z" fill="#1A1511"/>
<path d="M31.4513 39.8264C31.6209 39.5326 31.5869 39.1956 31.3756 39.0736C31.1642 38.9517 30.8554 39.0909 30.6859 39.3847C30.5163 39.6785 30.5503 40.0155 30.7616 40.1375C30.973 40.2595 31.2818 40.1202 31.4513 39.8264Z" fill="#F6FAFD"/>
<path d="M51.5226 34.2975C52.1321 34.1341 52.4936 33.5075 52.3302 32.898C52.1667 32.2886 51.5402 31.927 50.9307 32.0904C50.3212 32.2539 49.9596 32.8804 50.1231 33.4899C50.2865 34.0994 50.9131 34.461 51.5226 34.2975Z" fill="#F6FAFD"/>
<path d="M28.3478 40.5121C28.9572 40.3487 29.3188 39.7221 29.1554 39.1126C28.9919 38.5032 28.3654 38.1416 27.7559 38.305C27.1464 38.4685 26.7848 39.095 26.9483 39.7045C27.1117 40.314 27.7383 40.6756 28.3478 40.5121Z" fill="#F6FAFD"/>
<path d="M24.7 40.3075C24.682 40.6933 24.7212 41.0826 24.8167 41.4592C25.6366 44.5041 28.6027 46.3549 31.4463 45.5959L37.6262 43.9386C38.1948 43.7862 38.5236 43.168 38.3602 42.5589C37.1004 37.861 33.1589 33.3075 29.5169 34.2841C28.0092 34.718 26.7055 35.6946 25.8244 37.0487C24.4898 38.7457 22.6359 40.8611 21.4308 41.1842L24.7 40.3075ZM25.8467 41.1829C25.356 39.3533 26.966 36.1511 29.8129 35.3877C32.6597 34.6243 36.1853 38.5654 37.3303 42.8351L31.1504 44.4923C28.8751 45.1025 26.5004 43.6207 25.8467 41.1829Z" fill="#1A1511"/>
<path d="M57.8474 31.4183C56.6423 31.7415 53.9787 30.8375 51.973 30.0363C50.5326 29.3047 48.9163 29.1113 47.3938 29.49C43.7517 30.4666 42.6175 36.3814 43.8773 41.0792C44.0407 41.6884 44.6347 42.059 45.2032 41.9065L51.3831 40.2493C54.225 39.4836 55.867 36.3971 55.0533 33.3505C54.9476 32.9767 54.7868 32.6199 54.5782 32.295L57.8474 31.4183ZM51.0872 39.1457L44.9073 40.803C43.7623 36.5333 44.8428 31.357 47.6897 30.5935C50.5366 29.8301 53.5327 31.797 54.0234 33.6267C54.6771 36.0644 53.3624 38.5356 51.0872 39.1457Z" fill="#1A1511"/>
<path d="M44.2867 46.5098C44.4086 46.2984 44.2694 45.9896 43.9756 45.8201C43.6818 45.6505 43.3448 45.6845 43.2228 45.8958C43.1008 46.1072 43.2401 46.416 43.5339 46.5855C43.8277 46.7551 44.1647 46.7211 44.2867 46.5098Z" fill="#F6FAFD"/>
<path d="M65.7323 51.4149C65.6506 51.4368 65.5639 51.4191 65.4979 51.367C61.3953 48.1469 50.0927 46.7702 49.9796 46.7574C49.8334 46.7368 49.7316 46.6012 49.7523 46.455C49.7719 46.3135 49.901 46.2124 50.0432 46.2263C50.5137 46.2829 61.6093 47.6354 65.8281 50.9461C65.9444 51.0368 65.9641 51.2054 65.8734 51.3217C65.8379 51.3666 65.7881 51.3999 65.7323 51.4149Z" fill="#FFF9F9"/>
<path d="M63.4643 55.3462C63.3775 55.3695 63.2855 55.3487 63.2186 55.2891C60.3931 52.8078 49.5568 49.126 49.4471 49.0889C49.307 49.0412 49.232 48.8896 49.2797 48.7494C49.3274 48.6093 49.479 48.5343 49.6192 48.582C50.0687 48.7339 60.6661 52.3347 63.5715 54.8865C63.6829 54.984 63.6938 55.1528 63.5963 55.2643C63.5614 55.3035 63.515 55.3326 63.4643 55.3462Z" fill="#FFF9F9"/>
<path d="M49.5269 44.6832C49.3859 44.7277 49.2353 44.6495 49.1917 44.5073C49.1472 44.3663 49.2254 44.2157 49.3666 44.1723L61.4906 39.8133C61.6239 39.761 61.7755 39.8266 61.8279 39.9599C61.8303 39.9648 61.8314 39.9689 61.8328 39.9741C61.8832 40.1124 61.8103 40.266 61.672 40.3163L49.548 44.6753L49.5269 44.6832Z" fill="#FFF9F9"/>
<path d="M24.3957 62.5003C24.3399 62.5152 24.2802 62.5113 24.2269 62.4902C24.0902 62.4349 24.0229 62.279 24.0782 62.1423C26.0754 57.1647 35.0087 50.4411 35.3835 50.1578C35.4998 50.0668 35.6681 50.087 35.7591 50.2033C35.8501 50.3196 35.8299 50.4879 35.7136 50.5789C35.7108 50.5807 35.7082 50.5836 35.7044 50.5858C35.6118 50.6538 26.5162 57.5029 24.5747 62.3415C24.5436 62.4196 24.4774 62.4784 24.3957 62.5003Z" fill="#FFF9F9"/>
<path d="M28.3281 64.7687C28.2774 64.7822 28.2226 64.7803 28.1728 64.7638C28.0326 64.7161 27.9576 64.5645 28.0053 64.4243C29.244 60.7611 36.6178 52.3411 36.931 51.9846C37.0285 51.8731 37.1973 51.8622 37.3087 51.9597C37.4202 52.0572 37.4311 52.226 37.3336 52.3374C37.2572 52.4244 29.7171 61.0342 28.5123 64.5963C28.4841 64.6814 28.4149 64.7454 28.3281 64.7687Z" fill="#FFF9F9"/>
<path d="M35.0588 48.5631L35.0371 48.5689L22.3589 50.8611C22.213 50.8869 22.073 50.7904 22.0471 50.6445C22.0213 50.4985 22.1178 50.3586 22.2637 50.3327L34.942 48.0406C35.0863 48.0085 35.229 48.0987 35.2621 48.2427C35.2951 48.3867 35.2031 48.531 35.0588 48.5631Z" fill="#FFF9F9"/>
<path d="M74.1731 61.4199L75.0421 64.6604L48.5569 71.7629L48.0221 69.7688L55.4358 63.4948C56.6231 62.4935 58.1366 61.9166 59.7014 61.87L74.1731 61.4199Z" fill="#EBE5E5"/>
<path d="M48.022 69.7688L48.5568 71.7629L22.0715 78.8655L21.2025 75.6249L33.9576 68.7736C35.3358 68.031 36.9349 67.7732 38.4639 68.0461L48.022 69.7688Z" fill="#EBE5E5"/>
</g>
<defs>
<clipPath id="clip0">
<rect width="63.9825" height="63.9825" fill="white" transform="translate(0.849609 17.1305) rotate(-15.0117)"/>
</clipPath>
</defs>
</svg>
