<svg width="250" height="101" viewBox="0 0 250 101" fill="none" xmlns="http://www.w3.org/2000/svg">
<g filter="url(#filter0_f)">
<path d="M235.809 14.7895V86.7244L215.527 76.6747H14.6548V14.7895H235.809Z" fill="url(#paint0_linear)" fill-opacity="0.42"/>
</g>
<path d="M226.036 19V74.9404C226.036 77.5787 223.228 79.2684 220.897 78.0329L211.22 72.9037C207.542 70.954 203.442 69.9346 199.278 69.9346H19C10.4396 69.9346 3.50005 62.995 3.50005 54.4346V19C3.50005 10.4396 10.4396 3.49998 19 3.49998H210.536C219.097 3.49998 226.036 10.4396 226.036 19Z" fill="url(#paint1_linear)" stroke="#EEF4FC"/>
<path d="M65.9829 22.2315C65.8217 22.2315 65.6605 22.1701 65.5375 22.047L61.0484 17.558C60.8024 17.312 60.8024 16.9131 61.0484 16.6672C61.2944 16.4212 61.6932 16.4212 61.9392 16.6672L66.4283 21.1563C66.6743 21.4023 66.6743 21.8011 66.4283 22.047C66.3053 22.17 66.1441 22.2315 65.9829 22.2315Z" fill="#563E2F"/>
<path d="M64.6189 23.5956C64.4578 23.5956 64.2965 23.5341 64.1735 23.411L59.6845 18.922C59.4385 18.676 59.4385 18.2772 59.6845 18.0312C59.9305 17.7852 60.3293 17.7852 60.5752 18.0312L65.0643 22.5202C65.3103 22.7662 65.3103 23.1651 65.0643 23.411C64.9413 23.5341 64.7802 23.5956 64.6189 23.5956Z" fill="#563E2F"/>
<path d="M65.7953 38.8455C65.7414 38.8455 65.6867 38.8385 65.6322 38.824C65.2962 38.7341 65.0965 38.3888 65.1864 38.0528C65.6417 36.3502 65.1503 34.5183 63.9041 33.2721L50.2025 19.5704C48.9563 18.3243 47.1244 17.833 45.4218 18.2881C45.0858 18.3778 44.7404 18.1784 44.6506 17.8424C44.5607 17.5063 44.7603 17.161 45.0963 17.0711C47.2322 16.5 49.5299 17.1164 51.0932 18.6797L64.7948 32.3813C66.3581 33.9445 66.9744 36.2424 66.4033 38.3781C66.3281 38.6596 66.0735 38.8455 65.7953 38.8455Z" fill="#563E2F"/>
<path d="M67.6282 40.6782C67.467 40.6782 67.3057 40.6167 67.1828 40.4937L42.506 15.8168C42.26 15.5708 42.26 15.172 42.506 14.9261C42.752 14.6801 43.1508 14.6801 43.3967 14.9261L68.0735 39.603C68.3195 39.849 68.3195 40.2478 68.0735 40.4937C67.9506 40.6167 67.7893 40.6782 67.6282 40.6782Z" fill="#E0E0E0"/>
<path d="M30.2966 52.7038C39.9554 62.3626 46.4468 52.9331 47.3985 51.4073C47.4732 51.2875 47.4824 51.1388 47.4231 51.0106C47.0914 50.2939 46.1036 47.7408 47.6986 45.5984C49.7379 42.8593 52.2146 43.008 52.9677 43.1292C53.1139 43.1527 53.2624 43.0968 53.3557 42.9818C56.6703 38.8897 56.6882 33.6481 53.02 29.9798C49.3518 26.3117 44.1101 26.3296 40.0181 29.6441C39.903 29.7374 39.8471 29.8859 39.8707 30.0321C39.9919 30.7852 40.1405 33.2618 37.4015 35.3011C35.259 36.8962 32.7059 35.9084 31.9892 35.5768C31.861 35.5174 31.7124 35.5266 31.5925 35.6014C30.0668 36.553 20.6373 43.0444 30.296 52.7032L30.2966 52.7038Z" fill="#E8834D"/>
<path d="M47.3981 51.4073C47.4728 51.2874 47.4821 51.1388 47.4227 51.0106C47.091 50.2938 46.1032 47.7407 47.6983 45.5983C49.7376 42.8593 52.2143 43.0079 52.9674 43.1291C53.1136 43.1526 53.2622 43.0968 53.3554 42.9817C56.67 38.8897 56.6879 33.648 53.0197 29.9798C52.833 29.7931 52.6419 29.6163 52.4474 29.4486C55.6258 33.1359 55.391 38.1591 52.0919 42.0719C52.0919 42.0719 49.0313 41.2225 46.5949 44.4949C44.7188 47.0147 45.9081 50.8833 45.9081 50.8833C45.9081 50.8833 39.2958 61.1188 29.8085 52.2014C29.9653 52.3677 30.1275 52.535 30.2957 52.7032L30.2962 52.7036C39.955 62.3625 46.4465 52.933 47.3981 51.4073Z" fill="#D66E41"/>
<path d="M46.7093 39.543L65.8005 19.1382L63.8615 17.1992L43.4567 36.2904C43.2834 36.4526 43.2788 36.7261 43.4466 36.894L46.1056 39.553C46.2736 39.7209 46.5471 39.7163 46.7093 39.543Z" fill="#725539"/>
<path d="M65.8005 19.1379L64.6971 18.0345L45.3093 38.7564L46.1057 39.5528C46.2736 39.7207 46.5471 39.7161 46.7093 39.5428L65.8005 19.1379Z" fill="#6B4C32"/>
<path d="M62.949 22.1862L65.8007 19.1382L63.8617 17.1993L60.8138 20.051L62.949 22.1862Z" fill="#E8834D"/>
<path d="M65.8007 19.1379L64.6972 18.0345L61.8455 21.0824L62.949 22.1859L65.8007 19.1379Z" fill="#D66E41"/>
<path d="M65.697 19.0348L65.9514 19.2892C66.282 19.6199 66.8704 19.5222 67.1592 19.0887L68.8551 16.5428C69.0661 16.2261 69.0444 15.8294 68.8028 15.5878L68.1074 14.8924L67.412 14.197C67.1705 13.9554 66.7738 13.9337 66.4571 14.1447L63.9111 15.8406C63.4777 16.1294 63.38 16.7178 63.7107 17.0484L63.9651 17.3027L65.697 19.0348Z" fill="#725539"/>
<path d="M64.5936 17.931L63.7106 17.048H63.7107L63.965 17.3023L64.7349 18.0722L64.5936 17.931Z" fill="#6B4C32"/>
<path d="M67.1589 19.0887L68.8549 16.5427C69.0659 16.226 69.0441 15.8293 68.8026 15.5877L68.1072 14.8923L67.6992 14.4843C67.9407 14.7258 67.9625 15.1225 67.7515 15.4392L66.0554 17.9852C65.7667 18.4186 65.1783 18.5163 64.8477 18.1857L65.6967 19.0348L65.9511 19.2892C66.2817 19.6197 66.8702 19.5221 67.1589 19.0887Z" fill="#6B4C32"/>
<path d="M37.1334 48.2619L27.9212 56.6981C27.4558 57.126 26.7522 57.0793 26.3364 56.6636C25.9048 56.2319 25.8871 55.5399 26.2928 55.0872C26.2953 55.0839 26.2986 55.0814 26.3012 55.078L34.7348 45.87C34.896 45.6937 35.1724 45.687 35.3412 45.8566L37.1434 47.6589C37.3114 47.8269 37.3064 48.1006 37.1334 48.2619Z" fill="#725539"/>
<path d="M36.3477 46.8629L26.8155 55.5923C26.5855 55.803 26.2919 55.902 26.0017 55.892C26.0114 56.1727 26.1229 56.45 26.3363 56.6634C26.7702 57.0973 27.4689 57.1127 27.9215 56.6983L37.13 48.2651C37.3064 48.1036 37.3125 47.8277 37.1434 47.6585L36.3477 46.8629Z" fill="#6B4C32"/>
<path d="M39.3353 37.2652C37.7553 36.8903 35.8585 38.16 34.0445 39.5881C33.5048 40.0129 32.9763 40.1389 32.429 39.9739C31.9978 39.8437 31.7095 39.5735 31.6967 39.5614C31.442 39.3102 31.032 39.3113 30.7788 39.5647C30.5243 39.8191 30.5243 40.2316 30.7787 40.486C31.1704 40.8777 31.9443 41.3474 32.8833 41.3474C33.4897 41.3474 34.1651 41.1514 34.8504 40.6119C35.6705 39.9663 37.8486 38.2515 39.0346 38.5331C39.3846 38.6161 39.7358 38.3997 39.8189 38.0496C39.902 37.6994 39.6855 37.3483 39.3353 37.2652Z" fill="#563E2F"/>
<path d="M42.5134 52.2205C42.7783 52.4853 43.2257 52.4676 43.4693 52.183C43.6876 51.928 43.6719 51.5362 43.4347 51.299C43.3919 51.2563 42.4005 50.2386 43.4113 48.9547C44.8394 47.1407 46.1092 45.2443 45.7342 43.6639C45.6511 43.3137 45.3002 43.0974 44.9499 43.1804C44.5998 43.2634 44.3833 43.6146 44.4664 43.9647C44.7477 45.1507 43.033 47.3288 42.3875 48.1488C41.0126 49.8953 41.8687 51.5758 42.5134 52.2205Z" fill="#563E2F"/>
<path d="M38.4456 41.2743C38.1912 41.0199 37.7787 41.0199 37.5242 41.2743C37.2698 41.5287 37.2698 41.9412 37.5242 42.1956L40.8038 45.4751C41.0688 45.7401 41.5162 45.7223 41.7598 45.4377C41.9782 45.1828 41.9624 44.791 41.7252 44.5538L38.4456 41.2743Z" fill="#563E2F"/>
<path d="M96.9163 51.1826L97.9313 48.0598L99.0557 51.52H99.4618V47.6248L97.834 42.6156C97.795 42.4963 97.7316 42.4963 97.6926 42.6156L95.9124 48.0934L96.9163 51.1826Z" fill="#368C0E"/>
<path d="M124.082 18.0177L114.278 22.3286C114.163 22.3792 114.069 22.5235 114.069 22.6491V25.3514L124.291 20.8563V18.154C124.291 18.0285 124.197 17.9672 124.082 18.0177Z" fill="#368C0E"/>
<path d="M120.94 27.5881V52.9334C121.517 51.157 122.594 47.8427 122.595 47.8406C122.596 47.8433 123.864 51.7438 123.864 51.7438C123.864 51.7438 124.044 51.1904 124.291 50.4298V20.7645L114.069 25.2598V27.4358H120.788C120.872 27.4358 120.94 27.5045 120.94 27.5881Z" fill="#89C947"/>
<path d="M123.167 54.1608V52.8608C123.167 52.5457 122.91 52.2895 122.595 52.2895C122.28 52.2895 122.024 52.5457 122.024 52.8608V54.1608H120.94V55.3623H124.291V54.1608H123.167Z" fill="#89C947"/>
<path d="M116.889 27.4357V26.1271C116.889 25.8114 116.633 25.5558 116.318 25.5558C116.002 25.5558 115.746 25.8114 115.746 26.1271V27.4357H116.889Z" fill="#368C0E"/>
<path d="M119.02 27.4357V26.1271C119.02 25.8114 118.765 25.5558 118.449 25.5558C118.134 25.5558 117.878 25.8114 117.878 26.1271V27.4357H119.02Z" fill="#368C0E"/>
<path d="M120.581 25.5558C120.265 25.5558 120.009 25.8114 120.009 26.1271V27.4357H120.788C120.872 27.4357 120.94 27.5042 120.94 27.5881V28.3846C121.069 28.2799 121.152 28.1201 121.152 27.9407V26.1271C121.152 25.8117 120.896 25.5558 120.581 25.5558Z" fill="#368C0E"/>
<path d="M122.712 28.512C122.396 28.512 122.141 28.2564 122.141 27.9407V26.1271C122.141 25.8114 122.396 25.5558 122.712 25.5558C123.028 25.5558 123.283 25.8114 123.283 26.1271V27.9407C123.283 28.2564 123.028 28.512 122.712 28.512Z" fill="#368C0E"/>
<path d="M122.712 32.7705C122.396 32.7705 122.141 32.5149 122.141 32.1992V30.3856C122.141 30.0699 122.396 29.8143 122.712 29.8143C123.028 29.8143 123.283 30.0699 123.283 30.3856V32.1995C123.283 32.5149 123.028 32.7705 122.712 32.7705Z" fill="#368C0E"/>
<path d="M122.712 37.0292C122.396 37.0292 122.141 36.7733 122.141 36.4579V34.6438C122.141 34.3284 122.396 34.0725 122.712 34.0725C123.028 34.0725 123.283 34.3284 123.283 34.6438V36.4579C123.283 36.7733 123.028 37.0292 122.712 37.0292Z" fill="#368C0E"/>
<path d="M122.712 41.2874C122.396 41.2874 122.141 41.0315 122.141 40.7161V38.9023C122.141 38.5869 122.396 38.331 122.712 38.331C123.028 38.331 123.283 38.5869 123.283 38.9023V40.7161C123.283 41.0315 123.028 41.2874 122.712 41.2874Z" fill="#368C0E"/>
<path d="M122.712 45.5459C122.396 45.5459 122.141 45.2903 122.141 44.9746V43.1608C122.141 42.8451 122.396 42.5895 122.712 42.5895C123.028 42.5895 123.283 42.8451 123.283 43.1608V44.9746C123.283 45.2903 123.028 45.5459 122.712 45.5459Z" fill="#368C0E"/>
<path d="M120.68 54.1608C120.64 54.1608 120.609 54.1477 120.592 54.1239C120.574 54.1004 120.572 54.0661 120.584 54.0284C120.584 54.0284 120.764 53.4749 121.016 52.6992V27.5884C121.016 27.4628 120.913 27.3599 120.787 27.3599H110.132V35.4052H116.288C116.372 35.4052 116.44 35.4734 116.44 35.5576V55.3623H121.016V54.1608H120.68Z" fill="#C6A07D"/>
<path d="M113.659 31.0244C113.659 31.15 113.556 31.253 113.43 31.253H112.466C112.341 31.253 112.238 31.15 112.238 31.0244V29.2734C112.238 29.1478 112.341 29.0449 112.466 29.0449H113.43C113.556 29.0449 113.659 29.1478 113.659 29.2734V31.0244Z" fill="white"/>
<path d="M116.501 31.0244C116.501 31.15 116.398 31.253 116.272 31.253H115.308C115.182 31.253 115.08 31.15 115.08 31.0244V29.2734C115.08 29.1478 115.182 29.0449 115.308 29.0449H116.272C116.398 29.0449 116.501 29.1478 116.501 29.2734V31.0244Z" fill="white"/>
<path d="M119.343 31.0244C119.343 31.15 119.24 31.253 119.114 31.253H118.151C118.025 31.253 117.922 31.15 117.922 31.0244V29.2734C117.922 29.1478 118.025 29.0449 118.151 29.0449H119.114C119.24 29.0449 119.343 29.1478 119.343 29.2734V31.0244Z" fill="white"/>
<path d="M113.659 34.8884C113.659 35.0143 113.556 35.1169 113.43 35.1169H112.466C112.341 35.1169 112.238 35.0143 112.238 34.8884V33.1376C112.238 33.0121 112.341 32.9091 112.466 32.9091H113.43C113.556 32.9091 113.659 33.0121 113.659 33.1376V34.8884Z" fill="#FCDB67"/>
<path d="M116.501 34.8884C116.501 35.0143 116.398 35.1169 116.272 35.1169H115.308C115.182 35.1169 115.08 35.0143 115.08 34.8884V33.1376C115.08 33.0121 115.182 32.9091 115.308 32.9091H116.272C116.398 32.9091 116.501 33.0121 116.501 33.1376V34.8884Z" fill="white"/>
<path d="M119.343 34.8884C119.343 35.0143 119.24 35.1169 119.114 35.1169H118.151C118.025 35.1169 117.922 35.0143 117.922 34.8884V33.1376C117.922 33.0121 118.025 32.9091 118.151 32.9091H119.114C119.24 32.9091 119.343 33.0121 119.343 33.1376V34.8884Z" fill="#FCDB67"/>
<path d="M119.343 38.7526C119.343 38.8785 119.24 38.9812 119.114 38.9812H118.151C118.025 38.9812 117.922 38.8785 117.922 38.7526V37.0016C117.922 36.8763 118.025 36.7731 118.151 36.7731H119.114C119.24 36.7731 119.343 36.8763 119.343 37.0016V38.7526Z" fill="white"/>
<path d="M119.343 42.6171C119.343 42.7427 119.24 42.8457 119.114 42.8457H118.151C118.025 42.8457 117.922 42.7427 117.922 42.6171V40.8661C117.922 40.7402 118.025 40.6376 118.151 40.6376H119.114C119.24 40.6376 119.343 40.7402 119.343 40.8661V42.6171Z" fill="#FCDB67"/>
<path d="M119.343 46.4811C119.343 46.6067 119.24 46.7096 119.114 46.7096H118.151C118.025 46.7096 117.922 46.6067 117.922 46.4811V44.73C117.922 44.6045 118.025 44.5015 118.151 44.5015H119.114C119.24 44.5015 119.343 44.6045 119.343 44.73V46.4811Z" fill="white"/>
<path d="M119.343 50.345C119.343 50.4709 119.24 50.5735 119.114 50.5735H118.151C118.025 50.5735 117.922 50.4709 117.922 50.345V48.5942C117.922 48.4687 118.025 48.3657 118.151 48.3657H119.114C119.24 48.3657 119.343 48.4687 119.343 48.5942V50.345Z" fill="#FCDB67"/>
<path d="M105.368 21.439V18.881C105.368 18.5653 105.112 18.3097 104.797 18.3097C104.481 18.3097 104.225 18.5653 104.225 18.881V21.439H105.368Z" fill="#9B0D17"/>
<path d="M106.168 23.2615V21.7669C106.168 21.5443 105.986 21.3625 105.764 21.3625H103.83C103.607 21.3625 103.426 21.5443 103.426 21.7669V23.2615H106.168Z" fill="#C0272D"/>
<path d="M108.975 25.0956C108.966 25.0762 108.955 25.056 108.941 25.0357L107.871 23.498C107.751 23.326 107.482 23.1853 107.272 23.1853H102.323C102.113 23.1853 101.844 23.326 101.724 23.498L100.654 25.0357C100.64 25.0563 100.628 25.0762 100.619 25.0956H108.975Z" fill="#EF5050"/>
<path d="M109.828 25.0194H99.7666C99.5571 25.0194 99.3857 25.1908 99.3857 25.4003V52.5359L99.8071 53.8323C99.8184 53.8665 99.816 53.8966 99.8008 53.9174C99.7856 53.9385 99.7577 53.9498 99.722 53.9498H99.3857V55.3623H105.983V35.5576C105.983 35.4734 106.052 35.4053 106.136 35.4053H110.208V25.4C110.208 25.1908 110.037 25.0194 109.828 25.0194Z" fill="#C0272D"/>
<path d="M102.052 48.9897C102.052 49.1153 101.95 49.2183 101.824 49.2183H101.138C101.013 49.2183 100.91 49.1153 100.91 48.9897V26.6809C100.91 26.5553 101.013 26.4524 101.138 26.4524H101.824C101.95 26.4524 102.052 26.5553 102.052 26.6809V48.9897Z" fill="#9B0D17"/>
<path d="M104.263 48.9897C104.263 49.1153 104.16 49.2183 104.035 49.2183H103.349C103.224 49.2183 103.121 49.1153 103.121 48.9897V26.6809C103.121 26.5553 103.224 26.4524 103.349 26.4524H104.035C104.16 26.4524 104.263 26.5553 104.263 26.6809V48.9897Z" fill="#9B0D17"/>
<path d="M105.983 35.5576C105.983 35.4734 106.052 35.4053 106.136 35.4053H106.474V26.6809C106.474 26.5553 106.371 26.4524 106.245 26.4524H105.56C105.434 26.4524 105.331 26.5553 105.331 26.6809V48.9897C105.331 49.1153 105.434 49.2183 105.56 49.2183H105.983V35.5576Z" fill="#9B0D17"/>
<path d="M108.684 35.4053V26.6809C108.684 26.5553 108.581 26.4524 108.456 26.4524H107.77C107.644 26.4524 107.542 26.5553 107.542 26.6809V35.4053H108.684Z" fill="#9B0D17"/>
<path d="M116.517 55.3622V35.5576C116.517 35.432 116.414 35.329 116.288 35.329H106.136C106.01 35.329 105.907 35.432 105.907 35.5576V55.3622H116.517Z" fill="#FB8276"/>
<path d="M109.08 38.9106C109.08 39.0362 108.977 39.1391 108.852 39.1391H107.888C107.762 39.1391 107.659 39.0362 107.659 38.9106V37.1595C107.659 37.034 107.762 36.931 107.888 36.931H108.852C108.977 36.931 109.08 37.034 109.08 37.1595V38.9106Z" fill="#FFC502"/>
<path d="M111.922 38.9106C111.922 39.0362 111.82 39.1391 111.694 39.1391H110.73C110.604 39.1391 110.501 39.0362 110.501 38.9106V37.1595C110.501 37.034 110.604 36.931 110.73 36.931H111.694C111.82 36.931 111.922 37.034 111.922 37.1595V38.9106Z" fill="#FFC502"/>
<path d="M114.764 38.9106C114.764 39.0362 114.661 39.1391 114.535 39.1391H113.571C113.446 39.1391 113.343 39.0362 113.343 38.9106V37.1595C113.343 37.034 113.446 36.931 113.571 36.931H114.535C114.661 36.931 114.764 37.034 114.764 37.1595V38.9106Z" fill="#FFC502"/>
<path d="M109.08 42.7746C109.08 42.9001 108.977 43.0031 108.852 43.0031H107.888C107.762 43.0031 107.659 42.9001 107.659 42.7746V41.0235C107.659 40.8979 107.762 40.795 107.888 40.795H108.852C108.977 40.795 109.08 40.8979 109.08 41.0235V42.7746Z" fill="#FFC502"/>
<path d="M111.922 42.7746C111.922 42.9001 111.82 43.0031 111.694 43.0031H110.73C110.604 43.0031 110.501 42.9001 110.501 42.7746V41.0235C110.501 40.8979 110.604 40.795 110.73 40.795H111.694C111.82 40.795 111.922 40.8979 111.922 41.0235V42.7746Z" fill="#FFC502"/>
<path d="M114.764 42.7746C114.764 42.9001 114.661 43.0031 114.535 43.0031H113.571C113.446 43.0031 113.343 42.9001 113.343 42.7746V41.0235C113.343 40.8979 113.446 40.795 113.571 40.795H114.535C114.661 40.795 114.764 40.8979 114.764 41.0235V42.7746Z" fill="#FFC502"/>
<path d="M109.08 46.6388C109.08 46.7644 108.977 46.8673 108.852 46.8673H107.888C107.762 46.8673 107.659 46.7644 107.659 46.6388V44.8878C107.659 44.7622 107.762 44.6592 107.888 44.6592H108.852C108.977 44.6592 109.08 44.7622 109.08 44.8878V46.6388Z" fill="white"/>
<path d="M111.922 46.6388C111.922 46.7644 111.82 46.8673 111.694 46.8673H110.73C110.604 46.8673 110.501 46.7644 110.501 46.6388V44.8878C110.501 44.7622 110.604 44.6592 110.73 44.6592H111.694C111.82 44.6592 111.922 44.7622 111.922 44.8878V46.6388Z" fill="white"/>
<path d="M114.764 46.6388C114.764 46.7644 114.661 46.8673 114.535 46.8673H113.571C113.446 46.8673 113.343 46.7644 113.343 46.6388V44.8878C113.343 44.7622 113.446 44.6592 113.571 44.6592H114.535C114.661 44.6592 114.764 44.7622 114.764 44.8878V46.6388Z" fill="white"/>
<path d="M109.08 50.5028C109.08 50.6286 108.977 50.7313 108.852 50.7313H107.888C107.762 50.7313 107.659 50.6286 107.659 50.5028V48.7517C107.659 48.6264 107.762 48.5232 107.888 48.5232H108.852C108.977 48.5232 109.08 48.6264 109.08 48.7517V50.5028Z" fill="white"/>
<path d="M111.922 50.5028C111.922 50.6286 111.82 50.7313 111.694 50.7313H110.73C110.604 50.7313 110.501 50.6286 110.501 50.5028V48.7517C110.501 48.6264 110.604 48.5232 110.73 48.5232H111.694C111.82 48.5232 111.922 48.6264 111.922 48.7517V50.5028Z" fill="white"/>
<path d="M114.764 50.5028C114.764 50.6286 114.661 50.7313 114.535 50.7313H113.571C113.446 50.7313 113.343 50.6286 113.343 50.5028V48.7517C113.343 48.6264 113.446 48.5232 113.571 48.5232H114.535C114.661 48.5232 114.764 48.6264 114.764 48.7517V50.5028Z" fill="white"/>
<path d="M94.727 53.9346H95.8696V55.3623H94.727V53.9346Z" fill="#775436"/>
<path d="M96.0809 53.8091L96.9655 51.0871L95.3686 46.174C95.3299 46.0547 95.2662 46.0547 95.2275 46.174L92.7463 53.8091C92.7073 53.9284 92.7784 54.0263 92.904 54.0263H96.2386C96.113 54.026 96.0419 53.9284 96.0809 53.8091Z" fill="#368C0E"/>
<path d="M96.9652 51.0868L96.5364 49.7678H94.0594L93.4185 51.7393H96.7531L96.9652 51.0868Z" fill="#89C947"/>
<path d="M125.13 54.1608H126.273V55.3623H125.13V54.1608Z" fill="#775436"/>
<path d="M128.356 54.0108L125.775 46.0678C125.735 45.9434 125.669 45.9434 125.628 46.0678L123.814 51.6485L124.58 54.0048C124.622 54.1325 124.546 54.2369 124.411 54.2369H128.192C128.323 54.2369 128.397 54.1351 128.356 54.0108Z" fill="#368C0E"/>
<path d="M123.883 51.8575H127.657L126.99 49.8068H124.413L123.814 51.6483L123.883 51.8575Z" fill="#89C947"/>
<path d="M124.678 54.0049L122.671 47.8263C122.629 47.6987 122.561 47.6987 122.519 47.8263L120.512 54.0049C120.47 54.1325 120.546 54.237 120.68 54.237H122.1V52.8608C122.1 52.5877 122.322 52.3657 122.595 52.3657C122.868 52.3657 123.09 52.5877 123.09 52.8608V54.237H124.509C124.644 54.237 124.72 54.1325 124.678 54.0049Z" fill="#266D00"/>
<path d="M123.166 55.3622V52.8605C123.166 52.5451 122.911 52.2892 122.595 52.2892C122.28 52.2892 122.024 52.5451 122.024 52.8605V55.3622H123.166Z" fill="#A57B5B"/>
<path d="M94.7277 38.9151C94.7277 38.7895 94.8169 38.6351 94.9255 38.5723L95.6465 38.1557C95.7554 38.0929 95.9333 38.0929 96.0422 38.1557L96.7629 38.5723C96.8718 38.6354 96.961 38.7895 96.961 38.9154V39.7491C96.961 39.875 96.8718 40.0291 96.7629 40.0922L96.0422 40.5087C95.9333 40.5718 95.7554 40.5718 95.6465 40.5087L94.9255 40.0922C94.8169 40.0291 94.7277 39.875 94.7277 39.7491V38.9151Z" fill="#C7FFFD"/>
<path d="M126.344 24.5106C126.344 24.3847 126.433 24.2303 126.542 24.1678L127.263 23.7509C127.371 23.6878 127.549 23.6878 127.658 23.7509L128.379 24.1678C128.488 24.2303 128.577 24.3847 128.577 24.5106V25.3443C128.577 25.4698 128.488 25.6243 128.379 25.6871L127.658 26.1039C127.549 26.1667 127.371 26.1667 127.263 26.1039L126.542 25.6871C126.433 25.6243 126.344 25.4698 126.344 25.3443V24.5106Z" fill="#C7FFFD"/>
<path d="M127.196 42.3717C127.196 42.2461 127.285 42.0917 127.394 42.0289L128.115 41.6123C128.224 41.5492 128.402 41.5492 128.51 41.6123L129.231 42.0289C129.34 42.0917 129.429 42.2461 129.429 42.3717V43.2057C129.429 43.3312 129.34 43.4857 129.231 43.5484L128.51 43.9653C128.402 44.0281 128.223 44.0281 128.115 43.9653L127.394 43.5484C127.285 43.4857 127.196 43.3312 127.196 43.2057V42.3717Z" fill="#C7FFFD"/>
<path d="M97.6793 20.6728C97.6793 20.5472 97.7683 20.3928 97.8772 20.33L98.5981 19.9132C98.707 19.8504 98.885 19.8504 98.9939 19.9132L99.7145 20.33C99.8234 20.3928 99.9124 20.5472 99.9124 20.6728V21.5065C99.9124 21.6324 99.8234 21.7865 99.7145 21.8496L98.9939 22.2662C98.885 22.3293 98.7067 22.3293 98.5981 22.2662L97.8772 21.8496C97.7683 21.7865 97.6793 21.6324 97.6793 21.5065V20.6728Z" fill="#E3FFFE" stroke="#E3FFFE" stroke-miterlimit="10"/>
<path d="M99.8798 53.809L98.002 48.0309C97.963 47.9113 97.8996 47.9113 97.8607 48.0309L95.9828 53.809C95.9442 53.9283 96.0153 54.0262 96.1408 54.0262H97.4363V52.8607C97.4363 52.5876 97.6583 52.3656 97.9315 52.3656C98.2043 52.3656 98.4266 52.5876 98.4266 52.8607V54.0262H99.7221C99.8477 54.0259 99.9188 53.9283 99.8798 53.809Z" fill="#266D00"/>
<path d="M98.5029 55.3622V52.8605C98.5029 52.5451 98.247 52.2892 97.9316 52.2892C97.6159 52.2892 97.3604 52.5451 97.3604 52.8605V55.3622H98.5029Z" fill="#A57B5B"/>
<path d="M129.429 56.4286H91.5713C91.2556 56.4286 91 56.1731 91 55.8574C91 55.5417 91.2556 55.2861 91.5713 55.2861H129.429C129.744 55.2861 130 55.5417 130 55.8574C130 56.1731 129.744 56.4286 129.429 56.4286Z" fill="#A2F9F9"/>
<path d="M194.77 41.8008C193.767 43.2163 191.533 45.3047 187.58 43.9872C187.575 43.944 188.961 40.4363 188.961 40.4363L194.206 40.6261C194.789 40.6473 195.111 41.3196 194.77 41.8008Z" fill="#7DE2E2"/>
<path d="M188.961 40.4359L193.849 40.6129C193.564 41.2472 192.431 43.4221 189.971 44.4051C189.256 44.4045 188.461 44.2804 187.58 43.9869C187.575 43.9437 188.961 40.4359 188.961 40.4359Z" fill="#66D3D0"/>
<path d="M195.941 37.7355C195.271 39.8161 193.41 42.7047 188.272 41.2914C188.276 41.2043 189.232 37.3111 189.232 37.3111L194.601 36.2102C195.476 36.0309 196.218 36.8747 195.941 37.7355Z" fill="#A0F0F2"/>
<path d="M191.715 41.6031C190.773 41.7396 189.639 41.6681 188.272 41.2922C188.276 41.2051 189.232 37.3119 189.232 37.3119L194.601 36.211C194.601 36.2109 194.348 39.9104 191.715 41.6031Z" fill="#7DE2E2"/>
<path d="M188.475 35.3058C188.475 35.3058 191.538 34.7907 194.027 33.2516C194.748 32.8051 195.639 33.4815 195.43 34.3129C194.858 36.579 193.22 39.5828 188.627 39.2352C188.612 39.1159 188.475 35.3058 188.475 35.3058Z" fill="#BDFAFF"/>
<path d="M169.096 41.8008C170.099 43.2163 172.333 45.3047 176.286 43.9872C176.291 43.944 174.905 40.4363 174.905 40.4363L169.66 40.6261C169.077 40.6473 168.755 41.3196 169.096 41.8008Z" fill="#7DE2E2"/>
<path d="M174.906 40.4359L170.018 40.6129C170.303 41.2472 171.436 43.4221 173.896 44.4051C174.611 44.4045 175.406 44.2804 176.287 43.9869C176.292 43.9437 174.906 40.4359 174.906 40.4359Z" fill="#66D3D0"/>
<path d="M167.924 37.7355C168.594 39.8161 170.455 42.7047 175.593 41.2914C175.59 41.2043 174.633 37.3111 174.633 37.3111L169.264 36.2102C168.39 36.0309 167.647 36.8747 167.924 37.7355Z" fill="#A0F0F2"/>
<path d="M172.149 41.6031C173.091 41.7396 174.225 41.6681 175.592 41.2922C175.589 41.2051 174.632 37.3119 174.632 37.3119L169.263 36.211C169.263 36.2109 169.516 39.9104 172.149 41.6031Z" fill="#7DE2E2"/>
<path d="M175.388 35.3058C175.388 35.3058 172.324 34.7907 169.836 33.2516C169.114 32.8051 168.223 33.4815 168.433 34.3129C169.004 36.579 170.643 39.5828 175.236 39.2352C175.251 39.1159 175.388 35.3058 175.388 35.3058Z" fill="#BDFAFF"/>
<path d="M179.187 40.9723L189.136 51.1897C189.668 51.7362 190.343 52.1125 191.079 52.2732L193.524 52.8073C194.017 52.9148 194.454 52.4661 194.349 51.9607L193.829 49.4487C193.672 48.6927 193.306 47.9997 192.774 47.4532L182.825 37.2357L179.187 40.9723Z" fill="#E0E0E2"/>
<path d="M179.187 40.9724L189.136 51.1898C189.668 51.7363 190.343 52.1126 191.079 52.2733L193.525 52.8074C193.771 52.8612 194.003 52.7759 194.161 52.614L181.007 39.1041L179.187 40.9724Z" fill="#C6C5CA"/>
<path d="M179.187 40.9723L186.776 48.766L190.553 45.1717L182.825 37.2357L179.187 40.9723Z" fill="#C6C5CA"/>
<path d="M188.664 46.9689L181.006 39.104L179.187 40.9723L186.776 48.766L188.664 46.9689Z" fill="#ACABB1"/>
<path d="M190.33 62.3997C189.756 62.3997 189.285 61.9168 189.285 61.3266C189.285 60.7364 189.756 60.2535 190.33 60.2535C190.905 60.2535 191.375 60.7364 191.375 61.3266C191.375 61.9168 190.905 62.3997 190.33 62.3997Z" fill="#D80027"/>
<path d="M192.548 34.1434C191.055 29.5429 185.434 28.2629 181.809 31.4661C178.185 28.2628 172.564 29.5429 171.071 34.1434C171.071 34.1434 169.647 38.1604 172.795 41.4244L179.855 47.9648C180.958 48.9866 182.661 48.9866 183.764 47.9648L190.823 41.4244C193.972 38.1605 192.548 34.1434 192.548 34.1434Z" fill="#FF3F62"/>
<path d="M178.156 33.1527C178.522 32.0026 179.14 31.06 179.918 30.343C176.507 28.7095 172.313 30.2166 171.064 34.1429C171.064 34.1429 169.67 38.16 172.754 41.4242L179.671 47.9648C180.752 48.9866 182.421 48.9866 183.502 47.9648L185.656 45.9278L179.846 40.4338C176.761 37.1697 178.156 33.1527 178.156 33.1527Z" fill="#FF0C38"/>
<path d="M176.474 31.3128L170.711 25.394L167.173 29.0284L172.88 34.8898C173.236 33.0561 174.67 31.6226 176.474 31.3128Z" fill="#E0E0E2"/>
<path d="M174.128 32.5369L168.942 27.2112L167.173 29.0284L172.88 34.8898C173.057 33.9765 173.503 33.1625 174.128 32.5369Z" fill="#C6C5CA"/>
<path d="M170.712 25.394L167.173 29.0284L170.706 32.6563C171.585 32.2326 172.164 31.8635 172.316 31.7639C172.594 31.5835 173.114 31.1862 173.495 30.5401L173.5 30.5323C173.675 30.2408 173.963 29.7316 174.279 29.0573L170.712 25.394Z" fill="#C6C5CA"/>
<path d="M168.942 27.2109L167.173 29.0281L170.705 32.656C171.584 32.2323 172.164 31.8633 172.315 31.7636C172.464 31.6675 172.681 31.5091 172.909 31.2848L168.942 27.2109Z" fill="#ACABB1"/>
<path d="M161.029 17.3679L159.358 19.0841C158.881 19.5746 158.881 20.3772 159.358 20.8676C159.836 21.3581 160.617 21.3581 161.095 20.8676L162.766 19.1514C163.243 18.6609 163.243 17.8583 162.766 17.3679C162.288 16.8774 161.507 16.8774 161.029 17.3679Z" fill="#FFD422"/>
<path d="M161.307 19.2358C160.898 18.8163 160.695 18.2626 160.697 17.7095L159.358 19.084C158.881 19.5745 158.881 20.3771 159.358 20.8676C159.836 21.358 160.617 21.358 161.095 20.8676L162.166 19.7672C161.851 19.6678 161.555 19.491 161.307 19.2362L161.307 19.2358Z" fill="#FFCD00"/>
<path d="M164.289 18.7982L160.75 22.4326C160.75 22.4326 163.077 27.1776 167.173 29.0284L170.646 28.9611L170.712 25.394C168.909 21.1875 164.289 18.7982 164.289 18.7982Z" fill="#FF3F62"/>
<path d="M162.703 20.4272L160.75 22.4326C160.75 22.4326 163.077 27.1776 167.173 29.0284L170.646 28.9611L170.662 28.0946L170.242 28.1027C165.845 26.1158 163.169 21.3152 162.703 20.4272Z" fill="#FF0C38"/>
<path d="M172.328 20.5309C171.561 20.5715 170.971 21.2429 171.011 22.0303C171.136 24.5151 169.896 26.963 169.497 27.6794C168.8 28.0882 166.416 29.362 163.997 29.2338C163.23 29.1931 162.577 29.7986 162.537 30.586C162.497 31.3735 163.087 32.0448 163.854 32.0855C167.624 32.2855 171.055 30.0559 171.2 29.9609C171.227 29.9432 171.523 29.7596 171.719 29.4277C171.808 29.2773 173.982 25.7554 173.787 21.8834C173.748 21.0957 173.094 20.4903 172.328 20.5309Z" fill="#F7AC16"/>
<path d="M173.788 21.8835C173.756 21.2336 173.305 20.7089 172.717 20.5677C172.759 20.6925 172.427 25.3941 170.725 28.5081C170.539 28.8467 170.233 29.0249 170.205 29.0413C166.797 31.0505 162.614 31.1289 162.614 31.1289C162.794 31.6608 163.273 32.0547 163.855 32.0856C167.625 32.2856 171.056 30.056 171.2 29.961C171.227 29.9433 171.524 29.7597 171.72 29.4278C171.809 29.2774 173.983 25.7554 173.788 21.8835Z" fill="#F47B19"/>
<path d="M164.209 18.8802L160.83 22.3506C160.506 22.6836 159.975 22.6836 159.651 22.3506L159.651 22.3501C159.326 22.017 159.326 21.4721 159.651 21.1392L163.03 17.6687C163.354 17.3356 163.885 17.3356 164.209 17.6687L164.209 17.6692C164.534 18.0022 164.534 18.5471 164.209 18.8802Z" fill="#FFE477"/>
<path d="M161.61 20.5386C161.32 20.2404 161.221 19.8181 161.312 19.4341L159.652 21.1388C159.327 21.4718 159.327 22.0167 159.652 22.3497L159.652 22.3502C159.977 22.6832 160.507 22.6832 160.831 22.3502L162.273 20.8695C162.03 20.8385 161.796 20.7289 161.61 20.5386Z" fill="#FFDA44"/>
<path d="M163.475 26.2762L166.411 20.1969C165.672 19.6312 165.035 19.2312 164.657 19.0089L162.013 24.4842C162.411 25.0423 162.901 25.6622 163.475 26.2762Z" fill="#FFE477"/>
<path d="M166.465 28.6702L169.233 22.9392C168.748 22.3225 168.224 21.7705 167.704 21.285L164.723 27.4587C165.255 27.905 165.836 28.3194 166.465 28.6702Z" fill="#FFE477"/>
<path d="M162.013 24.4844C162.411 25.0425 162.901 25.6624 163.475 26.2764L164.778 23.5775C164.206 22.8546 163.744 22.1733 163.396 21.6198L162.013 24.4844Z" fill="#FFDA44"/>
<path d="M165.945 24.9266L164.723 27.4586C165.255 27.9051 165.836 28.3193 166.465 28.6701L167.552 26.4188C166.968 25.9462 166.431 25.4392 165.945 24.9266Z" fill="#FFDA44"/>
<path d="M187.58 49.7074V54.6052C187.58 55.1953 188.05 55.6783 188.625 55.6783C189.2 55.6783 189.67 55.1954 189.67 54.6054V54.0007C189.67 54.0007 189.679 53.144 190.715 53.144C190.736 53.144 190.756 53.1449 190.777 53.1457V50.8427C189.079 50.4214 187.58 49.7074 187.58 49.7074Z" fill="#FF0C38"/>
<defs>
<filter id="filter0_f" x="0.654785" y="0.78949" width="249.154" height="99.9349" filterUnits="userSpaceOnUse" color-interpolation-filters="sRGB">
<feFlood flood-opacity="0" result="BackgroundImageFix"/>
<feBlend mode="normal" in="SourceGraphic" in2="BackgroundImageFix" result="shape"/>
<feGaussianBlur stdDeviation="7" result="effect1_foregroundBlur"/>
</filter>
<linearGradient id="paint0_linear" x1="211.374" y1="16.0766" x2="211.783" y2="83.4342" gradientUnits="userSpaceOnUse">
<stop stop-color="#121B37" stop-opacity="0.56"/>
<stop offset="0.121897" stop-color="#121B37" stop-opacity="0.31"/>
<stop offset="0.444636" stop-color="#121B37" stop-opacity="0.22"/>
<stop offset="0.801521" stop-color="#121B37" stop-opacity="0.2"/>
<stop offset="1" stop-color="#121B37" stop-opacity="0.13"/>
</linearGradient>
<linearGradient id="paint1_linear" x1="124.728" y1="81.5876" x2="124.728" y2="1.75502" gradientUnits="userSpaceOnUse">
<stop stop-color="white"/>
<stop offset="1" stop-color="white"/>
</linearGradient>
</defs>
</svg>
