<svg width="92" height="91" viewBox="0 0 92 91" fill="none" xmlns="http://www.w3.org/2000/svg">
<path d="M89.5938 62.4399C89.5938 65.4812 87.6225 68.0667 84.8735 69.0113C84.1497 69.2621 83.3704 69.3977 82.5596 69.3977C81.7489 69.3977 80.9696 69.2623 80.2458 69.0113C77.4969 68.0665 75.5254 65.4812 75.5254 62.4399C75.5254 58.5968 78.6741 55.4822 82.5596 55.4822C86.445 55.4822 89.5938 58.5968 89.5938 62.4399Z" fill="#BFD749"/>
<path d="M84.0404 68.8251C81.2916 67.8802 79.32 65.2949 79.32 62.2537C79.32 59.1833 81.3307 56.5799 84.1202 55.6562C83.618 55.5435 83.0962 55.4822 82.5596 55.4822C78.6741 55.4822 75.5254 58.5966 75.5254 62.4399C75.5254 65.4812 77.4967 68.0667 80.2458 69.0113C80.9696 69.2621 81.7489 69.3977 82.5596 69.3977C83.3402 69.3977 84.0913 69.271 84.7922 69.0378C84.536 68.98 84.2848 68.9098 84.0404 68.8251Z" fill="#84C341"/>
<path d="M83.4299 59.2895C84.1167 60.3552 83.7983 61.7705 82.7209 62.448C81.6417 63.1273 80.2126 62.8124 79.5258 61.7467L77.2323 58.1817L74.3652 53.7072C75.8609 53.2019 77.1888 52.3308 78.2607 51.2285L81.1845 55.7993L83.4299 59.2895Z" fill="#B3B5BC"/>
<path d="M81.5118 60.5744L79.2182 57.0094L76.4572 52.7006C75.8083 53.115 75.1075 53.4565 74.3652 53.7071L77.2323 58.1815L79.5259 61.7465C80.2126 62.8122 81.6417 63.1272 82.7209 62.4479C83.0571 62.2365 83.3192 61.9532 83.5 61.6312C82.7234 61.6425 81.9597 61.2695 81.5118 60.5744Z" fill="#9C9FA7"/>
<path d="M28.2295 39.9155H12.1248H11.6621V73.9719C11.6621 78.6245 15.4735 82.3944 20.1771 82.3944C21.2581 82.3944 22.2912 82.1948 23.2426 81.8304C24.194 81.4679 25.0623 80.9388 25.8138 80.2833L28.6922 76.3395V68.4204V39.9155H28.2295Z" fill="#B4E3F5"/>
<path d="M17.878 73.9719V39.9155H12.1248H11.6621V73.9719C11.6621 78.6245 15.4735 82.3944 20.1771 82.3944C21.2581 82.3944 22.2912 82.1948 23.2426 81.8304C23.2568 81.8249 23.2708 81.8187 23.285 81.8132C20.1196 80.5851 17.878 77.5391 17.878 73.9719Z" fill="#83D3F0"/>
<path d="M64.5153 47.5417L52.4795 47.5637V42.9862L64.5024 42.9641C64.3265 43.6893 64.2339 44.4471 64.2339 45.2254C64.2339 46.0236 64.332 46.8 64.5153 47.5417Z" fill="#B3B5BC"/>
<path d="M56.9064 43.4103V42.9779L52.4785 42.9859V47.5635L64.5143 47.5414C64.3519 46.8849 64.2612 46.1997 64.2412 45.4975L59.0297 45.5071C57.8578 45.5092 56.9064 44.5697 56.9064 43.4103Z" fill="#9C9FA7"/>
<path d="M92 84.4138V87.6985C92 88.8136 91.0856 89.7181 89.9582 89.7181H2.04179C0.91443 89.7183 0 88.8138 0 87.6987V84.414C0 83.2989 0.91443 82.3944 2.04179 82.3944H20.1771H61.5401H89.9582C91.0856 82.3942 92 83.2989 92 84.4138Z" fill="#BB7A58"/>
<path d="M6.66946 86.0561C5.5421 86.0561 4.62767 85.1516 4.62767 84.0365V82.394H2.04179C0.91443 82.394 0 83.2987 0 84.4136V87.6984C0 88.8135 0.91443 89.7179 2.04179 89.7179H89.9582C91.0856 89.7179 92 88.8135 92 87.6984V86.0559H6.66946V86.0561Z" fill="#AA624F"/>
<path d="M30.7285 39.2749C30.7285 39.9579 30.4489 40.5748 29.9973 41.0234C29.5438 41.4702 28.9199 41.7466 28.2296 41.7466H12.1249C10.744 41.7466 9.62598 40.6407 9.62598 39.2749C9.62598 38.5918 9.90557 37.9749 10.3571 37.5263C10.8107 37.0795 11.4345 36.8031 12.1249 36.8031H28.2296C29.6105 36.8029 30.7285 37.909 30.7285 39.2749Z" fill="#4CB8E9"/>
<path d="M16.7249 39.2749C16.7249 38.5918 17.0045 37.9749 17.456 37.5263C17.9096 37.0795 18.5334 36.8031 19.2238 36.8031H12.1249C11.4344 36.8031 10.8107 37.0797 10.3571 37.5263C9.90539 37.9749 9.62598 38.592 9.62598 39.2749C9.62598 40.6407 10.744 41.7466 12.1249 41.7466H19.2238C17.8429 41.7466 16.7249 40.6407 16.7249 39.2749Z" fill="#0AA5DC"/>
<path d="M16.2897 26.3666C18.6411 26.3666 20.5472 24.4811 20.5472 22.1553C20.5472 19.8295 18.6411 17.9441 16.2897 17.9441C13.9384 17.9441 12.0322 19.8295 12.0322 22.1553C12.0322 24.4811 13.9384 26.3666 16.2897 26.3666Z" fill="#EF5227"/>
<path d="M14.9662 22.1553C14.9662 20.34 16.1282 18.7924 17.7567 18.2009C17.2992 18.0349 16.8053 17.9441 16.2897 17.9441C13.9389 17.9441 12.0322 19.83 12.0322 22.1553C12.0322 24.4806 13.9389 26.3666 16.2897 26.3666C16.8053 26.3666 17.2994 26.2757 17.7567 26.1097C16.1284 25.5182 14.9662 23.9707 14.9662 22.1553Z" fill="#E43A26"/>
<path d="M54.9781 15.0143C56.2049 15.0143 57.1994 14.0306 57.1994 12.8171C57.1994 11.6037 56.2049 10.62 54.9781 10.62C53.7513 10.62 52.7568 11.6037 52.7568 12.8171C52.7568 14.0306 53.7513 15.0143 54.9781 15.0143Z" fill="#BFD749"/>
<path d="M54.6856 12.8171C54.6856 11.9455 55.1993 11.1953 55.9425 10.84C55.6505 10.7005 55.3242 10.62 54.9781 10.62C53.7509 10.62 52.7568 11.6032 52.7568 12.8171C52.7568 14.0311 53.7509 15.0143 54.9781 15.0143C55.3242 15.0143 55.6507 14.9338 55.9425 14.7943C55.1993 14.439 54.6856 13.6886 54.6856 12.8171Z" fill="#84C341"/>
<path d="M24.0646 56.1282V73.8775C24.0646 75.9598 22.4307 77.7356 20.3271 77.8141C18.1155 77.897 16.29 76.1415 16.29 73.9721V56.1282C16.29 55.9718 16.4182 55.8451 16.5763 55.8451H23.7783C23.9365 55.8451 24.0646 55.9718 24.0646 56.1282Z" fill="#EF5227"/>
<path d="M17.8783 73.9719V55.8451H16.5763C16.4182 55.8451 16.29 55.9718 16.29 56.1282V73.9719C16.29 75.5624 17.272 76.9295 18.6675 77.5137C18.1617 76.437 17.8783 75.2377 17.8783 73.9719Z" fill="#E43A26"/>
<path d="M66.3937 73.1165L54.6187 56.2129C54.1893 55.5978 53.9598 54.8689 53.9598 54.1219V47.5633V42.9858V25.2948H37.8552V54.1219C37.8552 54.8689 37.6257 55.5976 37.1962 56.2129L28.6922 68.4201L25.4213 73.1165C23.7702 75.4859 24.17 78.3842 25.8138 80.283C26.8633 81.4969 28.4201 82.3026 30.2749 82.3026H61.5401C66.2974 82.3026 69.0999 77 66.3937 73.1165Z" fill="#A3DCEF"/>
<path d="M32.6627 80.2833C31.0189 78.3845 30.6191 75.486 32.2703 73.1168L35.5411 68.4204L44.0452 56.2132C44.4747 55.5981 44.7041 54.8692 44.7041 54.1222V25.2953H37.8552V54.1224C37.8552 54.8694 37.6257 55.5981 37.1962 56.2134L28.6922 68.4206L25.4213 73.117C23.7702 75.4864 24.17 78.3847 25.8138 80.2834C26.8633 81.4974 28.4201 82.303 30.2749 82.303H37.1238C35.2691 82.3029 33.7125 81.4974 32.6627 80.2833Z" fill="#83D3F0"/>
<path d="M45.1669 33.873C46.8033 33.873 48.1286 35.184 48.1286 36.8026C48.1286 38.4213 46.8033 39.7322 45.1669 39.7322C43.5305 39.7322 42.2051 38.4213 42.2051 36.8026C42.2051 35.184 43.5305 33.873 45.1669 33.873Z" fill="#BFD749"/>
<path d="M46.6476 56.3942C48.8968 56.3942 50.7201 54.5908 50.7201 52.3661C50.7201 50.1414 48.8968 48.3379 46.6476 48.3379C44.3985 48.3379 42.5752 50.1414 42.5752 52.3661C42.5752 54.5908 44.3985 56.3942 46.6476 56.3942Z" fill="#BFD749"/>
<path d="M44.8204 36.6196C44.8204 35.5404 45.4114 34.6003 46.2892 34.092C45.9429 33.9518 45.5643 33.873 45.1669 33.873C43.5305 33.873 42.2051 35.184 42.2051 36.8026C42.2051 38.4213 43.5305 39.7322 45.1669 39.7322C45.7122 39.7322 46.2213 39.5842 46.6597 39.3302C45.5809 38.8928 44.8204 37.845 44.8204 36.6196Z" fill="#84C341"/>
<path d="M45.8146 51.5421C45.8146 50.2697 46.4117 49.1357 47.3432 48.3976C47.117 48.3592 46.8848 48.3379 46.6476 48.3379C44.3985 48.3379 42.5752 50.1414 42.5752 52.3661C42.5752 54.5908 44.3985 56.3942 46.6476 56.3942C47.6104 56.3942 48.4945 56.0629 49.1915 55.5105C47.2738 55.1839 45.8146 53.532 45.8146 51.5421Z" fill="#84C341"/>
<path d="M61.8247 76.0867C61.8785 76.1637 61.9451 76.2588 61.847 76.442C61.7489 76.6269 61.6323 76.6269 61.5398 76.6269H30.2745C30.182 76.6269 30.0653 76.6269 29.9672 76.442C29.8691 76.259 29.9358 76.1637 29.9895 76.0867L39.0341 63.1471C39.4247 62.5869 40.0689 62.2537 40.7575 62.2537H51.057C51.7455 62.2537 52.3897 62.5869 52.7803 63.1471L61.8247 76.0867Z" fill="#BFD749"/>
<path d="M71.6374 54.9296C77.0813 54.9296 81.4945 50.5644 81.4945 45.1797C81.4945 39.7949 77.0813 35.4297 71.6374 35.4297C66.1935 35.4297 61.7803 39.7949 61.7803 45.1797C61.7803 50.5644 66.1935 54.9296 71.6374 54.9296Z" fill="#4CB8E9"/>
<path d="M67.1023 45.1797C67.1023 40.7073 70.1478 36.941 74.2984 35.7921C73.4515 35.5577 72.5599 35.4297 71.6374 35.4297C66.1934 35.4297 61.7803 39.795 61.7803 45.1797C61.7803 50.5643 66.1936 54.9296 71.6374 54.9296C72.5597 54.9296 73.4515 54.8017 74.2984 54.5672C70.1476 53.4184 67.1023 49.652 67.1023 45.1797Z" fill="#0AA5DC"/>
<path d="M73.9519 35.7957V38.4507C73.9519 39.7141 72.9153 40.7394 71.6381 40.7394C70.3608 40.7394 69.3242 39.7141 69.3242 38.4507V35.7957V27.9939C70.048 28.2447 70.8273 28.3803 71.6381 28.3803C72.4488 28.3803 73.2281 28.2449 73.9519 27.9939V35.7957Z" fill="#B3B5BC"/>
<path d="M71.3268 38.4507V35.7957V28.3734C70.6278 28.3433 69.9549 28.2123 69.3242 27.9939V35.7957V38.4507C69.3242 39.7141 70.3608 40.7394 71.638 40.7394C71.9972 40.7394 72.336 40.6559 72.6393 40.5114C71.8639 40.1417 71.3268 39.3589 71.3268 38.4507Z" fill="#9C9FA7"/>
<path d="M78.672 22.8876C78.672 25.9288 76.7006 28.5141 73.9516 29.4589C73.2278 29.7097 72.4485 29.8453 71.6377 29.8453C70.827 29.8453 70.0477 29.7099 69.3239 29.4589C66.5751 28.5141 64.6035 25.9288 64.6035 22.8876C64.6035 19.0444 67.7522 15.9298 71.6377 15.9298C75.5233 15.9298 78.672 19.0442 78.672 22.8876Z" fill="#EF5227"/>
<path d="M69.3239 22.8876C69.3239 19.8636 71.2741 17.2918 73.9979 16.3322C73.2601 16.0724 72.4659 15.9298 71.6377 15.9298C67.7524 15.9298 64.6035 19.0442 64.6035 22.8876C64.6035 25.9288 66.5749 28.5141 69.3239 29.4589C70.0477 29.7097 70.827 29.8453 71.6377 29.8453C72.4485 29.8453 73.2278 29.7099 73.9516 29.4589C73.9672 29.4536 73.9823 29.4474 73.9979 29.4421C71.2735 28.4841 69.3239 25.9115 69.3239 22.8876Z" fill="#E43A26"/>
<path d="M56.9066 24.1689V24.471C56.9066 25.8369 55.7886 26.9428 54.4077 26.9428H53.9598H37.8551H37.4071C36.0262 26.9428 34.9082 25.8369 34.9082 24.471V24.1689C34.9082 22.803 36.0262 21.6971 37.4071 21.6971H54.4077C55.7886 21.697 56.9066 22.803 56.9066 24.1689Z" fill="#4CB8E9"/>
<path d="M43.1309 24.471V24.1689C43.1309 22.803 44.2489 21.6971 45.6298 21.6971H37.4071C36.0262 21.6971 34.9082 22.803 34.9082 24.1689V24.471C34.9082 25.8369 36.0262 26.9428 37.4071 26.9428H37.8551H45.6298C44.2489 26.9428 43.1309 25.8369 43.1309 24.471Z" fill="#0AA5DC"/>
<path d="M38.513 69.2548L42.2587 62.2537H40.7573C40.0687 62.2537 39.4245 62.5869 39.0339 63.1471L29.9895 76.0867C29.9358 76.1637 29.8691 76.2588 29.9672 76.442C30.0653 76.6269 30.1819 76.6269 30.2745 76.6269H47.7818C45.505 75.8912 42.7955 75.0276 40.6017 74.3314C38.4594 73.6512 37.4606 71.2218 38.513 69.2548Z" fill="#84C341"/>
<path d="M41.3027 4.57755C41.3027 5.91962 40.7178 7.12804 39.7884 7.96481C40.7178 8.80158 41.3027 10.01 41.3027 11.3521C41.3027 13.8807 39.2312 15.9296 36.6748 15.9296C34.5701 15.9296 32.7948 14.5399 32.234 12.6374C31.7582 12.7546 31.2623 12.817 30.7512 12.817C27.3767 12.817 24.6426 10.1126 24.6426 6.7747C24.6426 3.43685 27.3769 0.732443 30.7514 0.732443C31.7047 0.732443 32.6062 0.948568 33.4095 1.33301C34.2463 0.509031 35.4014 0 36.675 0C39.2314 0 41.3027 2.04892 41.3027 4.57755Z" fill="#FDEBB5"/>
<path d="M36.6797 10.8976C36.2038 11.0148 35.7079 11.0771 35.1969 11.0771C31.8223 11.0771 29.0882 8.37274 29.0882 5.03488C29.0882 3.35263 29.7833 1.83175 30.9043 0.736377C30.8533 0.735133 30.8026 0.731934 30.7512 0.731934C27.3767 0.731934 24.6426 3.43634 24.6426 6.77419C24.6426 10.112 27.3767 12.8166 30.7512 12.8166C31.2621 12.8166 31.7582 12.7544 32.234 12.6371C32.7948 14.5396 34.5701 15.9293 36.6748 15.9293C38.1759 15.9293 39.509 15.2223 40.3544 14.1272C38.5942 13.837 37.1711 12.5642 36.6797 10.8976Z" fill="#FFD788"/>
</svg>
