<svg width="42" height="42" viewBox="0 0 42 42" fill="none" xmlns="http://www.w3.org/2000/svg">
<g clip-path="url(#clip0)">
<path d="M21.3994 6.00613C21.0063 6.00613 20.6875 5.68736 20.6875 5.29426V0.726516C20.6875 0.333422 21.0063 0.0146484 21.3994 0.0146484C21.7925 0.0146484 22.1112 0.333422 22.1112 0.726516V5.29426C22.1112 5.68736 21.7925 6.00613 21.3994 6.00613Z" fill="#4E5058"/>
<path d="M24.2486 8.05325V4.96821C24.2486 4.57512 23.9298 4.25635 23.5367 4.25635H20.6893H19.2655C18.8776 4.25635 18.5537 4.58021 18.5537 4.96821V8.05325C10.4737 9.40898 4.31641 16.4351 4.31641 24.9004C4.31641 34.3361 11.9655 41.9852 21.4011 41.9852C30.8368 41.9852 38.4859 34.3361 38.4859 24.9004C38.4859 16.4351 32.3286 9.40906 24.2486 8.05325Z" fill="#FD5E95"/>
<path d="M24.2496 8.52755H18.5547V4.96821C18.5547 4.57512 18.8735 4.25635 19.2666 4.25635H23.5378C23.9309 4.25635 24.2496 4.57512 24.2496 4.96821V8.52755Z" fill="#FD5E95"/>
<path d="M20.6883 4.25635H19.2646C18.8715 4.25635 18.5527 4.57512 18.5527 4.96821V8.52755H19.9765V4.96821C19.9765 4.57512 20.2952 4.25635 20.6883 4.25635Z" fill="#D14D7B"/>
<path d="M31.1824 16.1454C35.5973 18.0759 38.4851 21.277 38.4851 24.9002C38.4851 15.4645 30.836 7.81543 21.4004 7.81543C25.5572 7.81543 29.1935 11.1565 31.1824 16.1454Z" fill="#FD5E95"/>
<path d="M31.1824 33.6552C29.1936 38.6441 25.5574 41.9851 21.4004 41.9851C30.836 41.9851 38.4851 34.336 38.4851 24.9004C38.4851 28.5235 35.5972 31.7247 31.1824 33.6552Z" fill="#B169BF"/>
<path d="M11.6192 33.6553C7.20432 31.7248 4.31641 28.5236 4.31641 24.9004C4.31641 34.336 11.9655 41.9851 21.4011 41.9851C17.2442 41.9851 13.6079 38.6442 11.6192 33.6553Z" fill="#FD5E95"/>
<path d="M11.6192 16.1454C13.6079 11.1565 17.2441 7.81543 21.4011 7.81543C11.9655 7.81543 4.31641 15.4645 4.31641 24.9002C4.31641 21.2771 7.20432 18.0759 11.6192 16.1454Z" fill="#FD5E95"/>
<path d="M31.1836 16.1455C31.9136 17.9768 32.4216 20.0298 32.6517 22.2218C36.2276 22.8742 38.4863 23.8322 38.4863 24.9004C38.4863 21.2772 35.5984 18.076 31.1836 16.1455Z" fill="#FD8EB4"/>
<path d="M10.151 22.2218C10.3811 20.03 10.8892 17.9768 11.6192 16.1455C7.20432 18.076 4.31641 21.2772 4.31641 24.9003C4.31641 23.8322 6.57514 22.8741 10.151 22.2218Z" fill="#FD8EB4"/>
<path d="M32.6498 27.5789C32.4197 29.7707 31.9116 31.8239 31.1816 33.6552C35.5966 31.7247 38.4844 28.5236 38.4844 24.9004C38.4844 25.9684 36.2256 26.9266 32.6498 27.5789Z" fill="#FD5E95"/>
<path d="M11.6192 33.6553C10.8892 31.824 10.3811 29.7709 10.151 27.579C6.57514 26.9266 4.31641 25.9684 4.31641 24.9004C4.31641 28.5236 7.20432 31.7248 11.6192 33.6553Z" fill="#D14D7B"/>
<path d="M32.6504 22.2222C32.742 23.0949 32.7901 23.9894 32.7901 24.9007C32.7901 25.8121 32.742 26.7066 32.6504 27.5793C36.2263 26.9269 38.485 25.9688 38.485 24.9007C38.485 23.8326 36.2262 22.8745 32.6504 22.2222Z" fill="#B169BF"/>
<path d="M10.151 27.5788C10.0594 26.7061 10.0113 25.8117 10.0113 24.9002C10.0113 23.9889 10.0594 23.0944 10.151 22.2217C6.57514 22.8741 4.31641 23.8321 4.31641 24.9002C4.31641 25.9683 6.57514 26.9265 10.151 27.5788Z" fill="#FD5E95"/>
<path d="M31.1824 33.6558C29.1382 34.5496 26.7669 35.1706 24.2027 35.4352C23.5512 39.4232 22.5382 41.9858 21.4004 41.9858C25.5572 41.9856 29.1935 38.6447 31.1824 33.6558Z" fill="#E58FD0"/>
<path d="M24.2027 14.3664C26.7669 14.6309 29.1383 15.252 31.1824 16.1459C29.1936 11.157 25.5574 7.81592 21.4004 7.81592C22.5382 7.81584 23.5513 10.3783 24.2027 14.3664Z" fill="#E58FD0"/>
<path d="M11.6191 16.1459C13.6633 15.2521 16.0346 14.6311 18.5988 14.3665C19.2503 10.3785 20.2633 7.81592 21.4011 7.81592C17.2442 7.816 13.6079 11.1571 11.6191 16.1459Z" fill="#FD8EB4"/>
<path d="M18.5988 35.4347C16.0346 35.1702 13.6632 34.5492 11.6191 33.6553C13.6079 38.6442 17.2441 41.9852 21.4011 41.9852C20.2634 41.9852 19.2503 39.4228 18.5988 35.4347Z" fill="#844A8F"/>
<path d="M32.6509 22.2219C32.4208 20.0301 31.9128 17.9769 31.1828 16.1456C29.1386 15.2518 26.7673 14.6308 24.2031 14.3662C24.5349 16.3965 24.7728 18.7961 24.8859 21.4152C27.82 21.5421 30.4784 21.8256 32.6509 22.2219Z" fill="#FD5E95"/>
<path d="M18.5981 14.3672C16.034 14.6317 13.6626 15.2527 11.6185 16.1466C10.8885 17.9779 10.3805 20.0309 10.1504 22.2229C12.3228 21.8266 14.9811 21.5429 17.9154 21.4164C18.0285 18.7971 18.2665 16.3974 18.5981 14.3672Z" fill="#FD5E95"/>
<path d="M10.1504 27.5791C10.3805 29.7709 10.8885 31.8241 11.6185 33.6554C13.6626 34.5492 16.034 35.1703 18.5981 35.4348C18.2664 33.4047 18.0284 31.005 17.9154 28.3858C14.9812 28.2591 12.3228 27.9755 10.1504 27.5791Z" fill="#FD5E95"/>
<path d="M24.8859 28.3858C24.7728 31.005 24.5349 33.4046 24.2031 35.4348C26.7673 35.1704 29.1387 34.5493 31.1828 33.6554C31.9128 31.8241 32.4208 29.7711 32.6509 27.5791C30.4785 27.9756 27.8201 28.2591 24.8859 28.3858Z" fill="#FD8EB4"/>
<path d="M17.8402 24.9006C17.8402 23.7063 17.8658 22.5407 17.9145 21.4155C14.9801 21.5423 12.3219 21.8258 10.1495 22.2221C10.0578 23.0948 10.0098 23.9893 10.0098 24.9006C10.0098 25.812 10.0578 26.7065 10.1495 27.5792C12.3219 27.9755 14.9802 28.2591 17.9145 28.3857C17.8658 27.2606 17.8402 26.0951 17.8402 24.9006Z" fill="#844A8F"/>
<path d="M24.959 24.9006C24.959 26.0949 24.9334 27.2606 24.8848 28.3857C27.8191 28.259 30.4773 27.9755 32.6498 27.5792C32.7414 26.7065 32.7895 25.8121 32.7895 24.9006C32.7895 23.9893 32.7414 23.0948 32.6498 22.2221C30.4773 21.8258 27.819 21.5421 24.8848 21.4155C24.9334 22.5408 24.959 23.7063 24.959 24.9006Z" fill="#E58FD0"/>
<path d="M18.5977 14.366C19.5095 14.2719 20.4455 14.2222 21.4 14.2222C22.3545 14.2222 23.2904 14.2719 24.2024 14.366C23.5508 10.378 22.5378 7.81543 21.4 7.81543C20.2623 7.81543 19.2492 10.3779 18.5977 14.366Z" fill="#FD5E95"/>
<path d="M24.2024 35.4341C23.2905 35.5282 22.3545 35.5779 21.4 35.5779C20.4455 35.5779 19.5096 35.5282 18.5977 35.4341C19.2492 39.4221 20.2622 41.9847 21.4 41.9847C22.5378 41.9846 23.5509 39.4222 24.2024 35.4341Z" fill="#FD5E95"/>
<path d="M21.4011 28.46C20.2068 28.46 19.0412 28.4344 17.916 28.3857C18.0291 31.0049 18.267 33.4046 18.5988 35.4348C19.5106 35.5289 20.4466 35.5786 21.4011 35.5786C22.3556 35.5786 23.2915 35.5289 24.2035 35.4348C24.5352 33.4047 24.7732 31.0049 24.8862 28.3857C23.7611 28.4344 22.5955 28.46 21.4011 28.46Z" fill="#B169BF"/>
<path d="M21.4011 21.3412C22.5954 21.3412 23.7611 21.3668 24.8862 21.4155C24.7731 18.7964 24.5352 16.3966 24.2035 14.3665C23.2916 14.2724 22.3556 14.2227 21.4011 14.2227C20.4466 14.2227 19.5107 14.2724 18.5988 14.3665C18.267 16.3967 18.0291 18.7964 17.916 21.4155C19.0412 21.367 20.2068 21.3412 21.4011 21.3412Z" fill="#FD8EB4"/>
<path d="M24.8862 21.4155C23.761 21.367 22.5954 21.3413 21.4011 21.3413C20.2068 21.3413 19.0412 21.3669 17.916 21.4155C17.8675 22.5408 17.8418 23.7064 17.8418 24.9006C17.8418 26.0949 17.8674 27.2606 17.916 28.3857C19.0413 28.4343 20.2068 28.46 21.4011 28.46C22.5954 28.46 23.7611 28.4344 24.8862 28.3857C24.9348 27.2604 24.9605 26.0949 24.9605 24.9006C24.9605 23.7064 24.9349 22.5409 24.8862 21.4155Z" fill="#FD5E95"/>
<path d="M6.58605 30.2205C5.14271 28.6542 4.31641 26.8377 4.31641 24.9004C4.31641 34.336 11.9655 41.9851 21.4011 41.9851C20.4241 41.9851 19.4764 41.7983 18.5715 41.4513C12.9139 40.0016 8.38909 35.7273 6.58605 30.2205Z" fill="#D14D7B"/>
<path d="M5.80224 26.3535C4.84838 25.9097 4.31641 25.4181 4.31641 24.9004C4.31641 26.8377 5.14271 28.6541 6.58605 30.2205C6.18221 28.9873 5.91511 27.6924 5.80224 26.3535Z" fill="#B2325E"/>
<path d="M5.74014 24.9003C5.74014 24.4108 5.76196 23.9263 5.80224 23.4473C4.84821 23.8911 4.31641 24.3827 4.31641 24.9003C4.31641 25.4179 4.84838 25.9096 5.80224 26.3533C5.76196 25.8742 5.74014 25.3898 5.74014 24.9003Z" fill="#D14D7B"/>
<path d="M6.58605 19.5806C5.14271 21.1469 4.31641 22.9633 4.31641 24.9005C4.31641 24.3829 4.8483 23.8912 5.80224 23.4475C5.91511 22.1085 6.18221 20.8137 6.58605 19.5806Z" fill="#FD5E95"/>
<path d="M18.5715 8.34929C19.4764 8.00205 20.4241 7.81543 21.4011 7.81543C11.9655 7.81543 4.31641 15.4645 4.31641 24.9002C4.31641 22.9628 5.14271 21.1464 6.58605 19.5801C8.38901 14.0733 12.9139 9.79903 18.5715 8.34929Z" fill="#D14D7B"/>
<path d="M41.5485 5.76057L38.0007 4.54913L36.9972 0.535262C36.9229 0.238144 36.656 0.0297852 36.3497 0.0297852C36.0434 0.0297852 35.7766 0.238144 35.7022 0.535262L34.6987 4.54905L31.1509 5.76049C30.8808 5.85277 30.6992 6.10666 30.6992 6.39213C30.6992 6.6776 30.8808 6.93148 31.1509 7.02377L34.6987 8.23521L35.7022 12.249C35.7765 12.5461 36.0434 12.7545 36.3497 12.7545C36.656 12.7545 36.9229 12.5461 36.9972 12.249L38.0007 8.23521L41.5485 7.02377C41.8187 6.93148 42.0002 6.6776 42.0002 6.39213C42.0002 6.10666 41.8186 5.85277 41.5485 5.76057Z" fill="#FFE88A"/>
<path d="M10.8492 8.60814L7.30136 7.39671L6.29787 3.38292C6.22445 3.08933 5.95309 2.87744 5.65039 2.87744C5.3477 2.87744 5.07634 3.08933 5.00292 3.38292L3.99952 7.39679L0.451664 8.60822C0.184652 8.69936 0 8.95751 0 9.2397C0 9.52197 0.184652 9.78004 0.451664 9.87134L3.99952 11.0828L5.003 15.0966C5.07642 15.3902 5.34778 15.602 5.65048 15.602C5.95317 15.602 6.22453 15.3902 6.29795 15.0966L7.30144 11.0828L10.8493 9.87134C11.1194 9.77906 11.301 9.52517 11.301 9.2397C11.301 8.95423 11.1193 8.70043 10.8492 8.60814Z" fill="#FFE88A"/>
<path d="M34.5446 34.7839L30.9968 33.5725L29.9933 29.5587C29.919 29.2616 29.6521 29.0532 29.3458 29.0532C29.0395 29.0532 28.7726 29.2616 28.6983 29.5587L27.6948 33.5725L24.147 34.7839C23.8768 34.8762 23.6953 35.1301 23.6953 35.4156C23.6953 35.701 23.8769 35.9549 24.147 36.0472L27.6948 37.2586L28.6983 41.2724C28.7726 41.5696 29.0395 41.7779 29.3458 41.7779C29.6521 41.7779 29.9189 41.5696 29.9933 41.2724L30.9968 37.2586L34.5446 36.0472C34.8147 35.9549 34.9963 35.701 34.9963 35.4156C34.9963 35.13 34.8147 34.8762 34.5446 34.7839Z" fill="#FFE88A"/>
</g>
<defs>
<clipPath id="clip0">
<rect width="42" height="42" fill="white"/>
</clipPath>
</defs>
</svg>
