<svg width="57" height="57" viewBox="0 0 57 57" fill="none" xmlns="http://www.w3.org/2000/svg">
<g clip-path="url(#clip0)">
<path d="M29.0667 8.34191C28.5412 8.34191 28.1151 7.91576 28.1151 7.39027V1.28403C28.1151 0.758539 28.5412 0.332397 29.0667 0.332397C29.5922 0.332397 30.0183 0.758539 30.0183 1.28403V7.39027C30.0183 7.91576 29.5923 8.34191 29.0667 8.34191Z" fill="#753593"/>
<path d="M32.8735 11.0783V6.9542C32.8735 6.4287 32.4474 6.00256 31.9219 6.00256H28.1153H26.2121C25.6935 6.00256 25.2604 6.4355 25.2604 6.9542V11.0783C14.459 12.8907 6.22784 22.2833 6.22784 33.5999C6.22784 46.2136 16.4533 56.439 29.067 56.439C41.6807 56.439 51.9061 46.2136 51.9061 33.5999C51.9062 22.2833 43.675 12.8908 32.8735 11.0783Z" fill="#E6506B"/>
<path d="M32.8736 11.7124H25.2605V6.9542C25.2605 6.4287 25.6866 6.00256 26.2121 6.00256H31.9219C32.4474 6.00256 32.8736 6.4287 32.8736 6.9542V11.7124Z" fill="#E6506B"/>
<path d="M28.1154 6.00256H26.2121C25.6866 6.00256 25.2605 6.4287 25.2605 6.9542V11.7124H27.1638V6.9542C27.1638 6.4287 27.5899 6.00256 28.1154 6.00256Z" fill="#CF3D57"/>
<path d="M42.1435 21.8963C48.0455 24.4771 51.906 28.7564 51.906 33.5999C51.906 20.9862 41.6806 10.7607 29.0668 10.7607C34.6238 10.7607 39.4848 15.2271 42.1435 21.8963Z" fill="#E6506B"/>
<path d="M42.1435 45.3036C39.4849 51.9729 34.624 56.4392 29.0668 56.4392C41.6806 56.4392 51.906 46.2138 51.906 33.6001C51.906 38.4436 48.0454 42.723 42.1435 45.3036Z" fill="#AE51E7"/>
<path d="M15.9903 45.3035C10.0884 42.7229 6.22784 38.4435 6.22784 33.5999C6.22784 46.2136 16.4533 56.439 29.067 56.439C23.5099 56.439 18.6489 51.9727 15.9903 45.3035Z" fill="#E6506B"/>
<path d="M15.9903 21.8963C18.6489 15.2271 23.5098 10.7607 29.067 10.7607C16.4533 10.7607 6.22784 20.9862 6.22784 33.5999C6.22784 28.7565 10.0884 24.4771 15.9903 21.8963Z" fill="#E6506B"/>
<path d="M42.1438 21.8964C43.1197 24.3444 43.7988 27.089 44.1064 30.0193C48.8867 30.8914 51.9062 32.1721 51.9062 33.6C51.9062 28.7565 48.0456 24.4771 42.1438 21.8964Z" fill="#F2758B"/>
<path d="M14.0277 30.0193C14.3353 27.0892 15.0144 24.3444 15.9903 21.8964C10.0884 24.4771 6.22784 28.7565 6.22784 33.5999C6.22784 32.1721 9.24735 30.8913 14.0277 30.0193Z" fill="#F2758B"/>
<path d="M44.1064 37.1807C43.7988 40.1108 43.1197 42.8556 42.1438 45.3036C48.0457 42.7229 51.9062 38.4436 51.9062 33.6001C51.9062 35.0278 48.8866 36.3087 44.1064 37.1807Z" fill="#E6506B"/>
<path d="M15.9903 45.3038C15.0144 42.8557 14.3353 40.1111 14.0277 37.1809C9.24735 36.3087 6.22784 35.0279 6.22784 33.6001C6.22784 38.4437 10.0884 42.7231 15.9903 45.3038Z" fill="#CF3D57"/>
<path d="M44.1063 30.0193C44.2288 31.186 44.293 32.3817 44.293 33.6C44.293 34.8184 44.2288 36.0141 44.1063 37.1808C48.8866 36.3087 51.9061 35.0278 51.9061 33.6C51.9061 32.1721 48.8865 30.8913 44.1063 30.0193Z" fill="#AE51E7"/>
<path d="M14.0277 37.1807C13.9052 36.014 13.8409 34.8184 13.8409 33.5999C13.8409 32.3816 13.9052 31.1858 14.0277 30.0192C9.24735 30.8913 6.22784 32.172 6.22784 33.5999C6.22784 35.0277 9.24735 36.3086 14.0277 37.1807Z" fill="#E6506B"/>
<path d="M42.1433 45.3038C39.4107 46.4987 36.2406 47.3289 32.8128 47.6826C31.9418 53.0139 30.5876 56.4396 29.0666 56.4396C34.6235 56.4393 39.4846 51.9731 42.1433 45.3038Z" fill="#B44DE5"/>
<path d="M32.8127 19.5178C36.2405 19.8714 39.4107 20.7016 42.1432 21.8966C39.4846 15.2274 34.6236 10.761 29.0665 10.761C30.5875 10.7609 31.9418 14.1865 32.8127 19.5178Z" fill="#B44DE5"/>
<path d="M15.9902 21.8965C18.7229 20.7016 21.8929 19.8714 25.3207 19.5177C26.1917 14.1864 27.5459 10.7607 29.0669 10.7607C23.5099 10.7609 18.6488 15.2272 15.9902 21.8965Z" fill="#F2758B"/>
<path d="M25.3207 47.6823C21.8929 47.3288 18.7228 46.4986 15.9902 45.3036C18.6488 51.9728 23.5098 56.4392 29.0669 56.4392C27.5461 56.4392 26.1917 53.0137 25.3207 47.6823Z" fill="#8A1ABF"/>
<path d="M44.1066 30.0194C43.799 27.0893 43.1198 24.3445 42.144 21.8965C39.4113 20.7016 36.2413 19.8714 32.8135 19.5177C33.2569 22.2318 33.5751 25.4397 33.7262 28.941C37.6486 29.1105 41.2024 29.4896 44.1066 30.0194Z" fill="#E6506B"/>
<path d="M25.3207 19.5187C21.893 19.8722 18.7228 20.7025 15.9902 21.8974C15.0144 24.3455 14.3352 27.0901 14.0276 30.0203C16.9318 29.4906 20.4855 29.1113 24.408 28.9421C24.5592 25.4407 24.8774 22.2327 25.3207 19.5187Z" fill="#E6506B"/>
<path d="M14.0276 37.1808C14.3352 40.1108 15.0144 42.8556 15.9902 45.3037C18.7229 46.4985 21.893 47.3288 25.3207 47.6824C24.8773 44.9686 24.5591 41.7605 24.408 38.2592C20.4856 38.0898 16.9318 37.7107 14.0276 37.1808Z" fill="#E6506B"/>
<path d="M33.7261 38.2589C33.5748 41.7603 33.2568 44.9682 32.8134 47.6822C36.2411 47.3287 39.4113 46.4984 42.1438 45.3034C43.1197 42.8554 43.7988 40.1108 44.1064 37.1805C41.2024 37.7105 37.6486 38.0896 33.7261 38.2589Z" fill="#F2758B"/>
<path d="M24.3086 33.6C24.3086 32.0034 24.3429 30.4451 24.4079 28.941C20.4852 29.1105 16.9317 29.4895 14.0275 30.0192C13.905 31.1859 13.8408 32.3816 13.8408 33.6C13.8408 34.8183 13.905 36.014 14.0275 37.1807C16.9317 37.7105 20.4853 38.0897 24.4079 38.2589C24.3429 36.7548 24.3086 35.1967 24.3086 33.6Z" fill="#8A1ABF"/>
<path d="M33.8249 33.6C33.8249 35.1965 33.7907 36.7548 33.7256 38.2589C37.6483 38.0895 41.2019 37.7105 44.106 37.1807C44.2285 36.014 44.2928 34.8184 44.2928 33.6C44.2928 32.3816 44.2285 31.1859 44.106 30.0192C41.2019 29.4895 37.6482 29.1102 33.7256 28.941C33.7907 30.4454 33.8249 32.0034 33.8249 33.6Z" fill="#B44DE5"/>
<path d="M25.3204 19.5177C26.5394 19.3919 27.7907 19.3255 29.0667 19.3255C30.3427 19.3255 31.5938 19.3919 32.8129 19.5177C31.9419 14.1864 30.5877 10.7607 29.0667 10.7607C27.5458 10.7607 26.1915 14.1863 25.3204 19.5177Z" fill="#E6506B"/>
<path d="M32.8129 47.6819C31.5939 47.8077 30.3427 47.8741 29.0667 47.8741C27.7907 47.8741 26.5395 47.8077 25.3204 47.6819C26.1915 53.0131 27.5457 56.4388 29.0667 56.4388C30.5877 56.4387 31.942 53.0133 32.8129 47.6819Z" fill="#E6506B"/>
<path d="M29.0671 38.3582C27.4705 38.3582 25.9122 38.3239 24.4081 38.2589C24.5594 41.7603 24.8774 44.9682 25.3208 47.6822C26.5398 47.808 27.7911 47.8744 29.0671 47.8744C30.3431 47.8744 31.5942 47.808 32.8133 47.6822C33.2568 44.9683 33.5749 41.7603 33.726 38.2589C32.2219 38.3239 30.6637 38.3582 29.0671 38.3582Z" fill="#AE51E7"/>
<path d="M29.0671 28.8418C30.6636 28.8418 32.2219 28.876 33.726 28.941C33.5748 25.4398 33.2568 22.2318 32.8133 19.5178C31.5943 19.392 30.3431 19.3256 29.0671 19.3256C27.7911 19.3256 26.5399 19.392 25.3208 19.5178C24.8774 22.2319 24.5593 25.4398 24.4081 28.941C25.9124 28.8762 27.4705 28.8418 29.0671 28.8418Z" fill="#F2758B"/>
<path d="M33.7256 28.9412C32.2214 28.8762 30.6633 28.8419 29.0667 28.8419C27.4702 28.8419 25.9119 28.8761 24.4078 28.9412C24.3429 30.4454 24.3085 32.0035 24.3085 33.6001C24.3085 35.1966 24.3427 36.7549 24.4078 38.259C25.912 38.324 27.4702 38.3583 29.0667 38.3583C30.6633 38.3583 32.2215 38.3241 33.7256 38.259C33.7906 36.7547 33.8249 35.1966 33.8249 33.6001C33.8249 32.0035 33.7907 30.4455 33.7256 28.9412Z" fill="#E6506B"/>
<path d="M9.26194 40.7121C7.33246 38.6183 6.22784 36.19 6.22784 33.6001C6.22784 46.2138 16.4533 56.4392 29.067 56.4392C27.7609 56.4392 26.4939 56.1895 25.2842 55.7256C17.7212 53.7876 11.6723 48.0737 9.26194 40.7121Z" fill="#CF3D57"/>
<path d="M8.21413 35.5426C6.93899 34.9494 6.22784 34.2922 6.22784 33.6001C6.22784 36.19 7.33246 38.6182 9.26194 40.712C8.72208 39.0635 8.36502 37.3325 8.21413 35.5426Z" fill="#B2325E"/>
<path d="M8.13112 33.5998C8.13112 32.9454 8.16028 32.2978 8.21413 31.6573C6.93877 32.2506 6.22784 32.9078 6.22784 33.5998C6.22784 34.2917 6.93899 34.949 8.21413 35.5422C8.16028 34.9018 8.13112 34.2542 8.13112 33.5998Z" fill="#CF3D57"/>
<path d="M9.26194 26.488C7.33246 28.5819 6.22784 31.0101 6.22784 33.5999C6.22784 32.9079 6.93888 32.2506 8.21413 31.6574C8.36502 29.8674 8.72208 28.1366 9.26194 26.488Z" fill="#E6506B"/>
<path d="M25.2842 11.4744C26.4939 11.0102 27.7608 10.7607 29.067 10.7607C16.4533 10.7607 6.22784 20.9862 6.22784 33.5999C6.22784 31.01 7.33246 28.5818 9.26194 26.488C11.6722 19.1264 17.7212 13.4124 25.2842 11.4744Z" fill="#CF3D57"/>
<path d="M56.0008 8.01306L51.2579 6.39359L49.9165 1.02778C49.8172 0.630589 49.4604 0.352051 49.0509 0.352051C48.6414 0.352051 48.2847 0.630589 48.1854 1.02778L46.8439 6.39348L42.101 8.01295C41.7399 8.13632 41.4973 8.47572 41.4973 8.85733C41.4973 9.23895 41.74 9.57835 42.101 9.70172L46.8439 11.3212L48.1854 16.6869C48.2846 17.0841 48.6414 17.3626 49.0509 17.3626C49.4604 17.3626 49.8171 17.0841 49.9165 16.6869L51.2579 11.3212L56.0008 9.70172C56.3619 9.57835 56.6046 9.23895 56.6046 8.85733C56.6046 8.47572 56.3618 8.13632 56.0008 8.01306Z" fill="#FACF5E"/>
<path d="M14.9618 11.8197L10.219 10.2002L8.87753 4.83454C8.77938 4.44207 8.41662 4.15881 8.01197 4.15881C7.60733 4.15881 7.24457 4.44207 7.14642 4.83454L5.80505 10.2003L1.06223 11.8198C0.705281 11.9416 0.458435 12.2868 0.458435 12.664C0.458435 13.0413 0.705281 13.3863 1.06223 13.5084L5.80505 15.1278L7.14653 20.4935C7.24468 20.886 7.60744 21.1693 8.01208 21.1693C8.41673 21.1693 8.77949 20.886 8.87764 20.4935L10.2191 15.1278L14.9619 13.5084C15.3231 13.385 15.5657 13.0456 15.5657 12.664C15.5657 12.2824 15.3228 11.9431 14.9618 11.8197Z" fill="#FACF5E"/>
<path d="M46.638 46.8118L41.8952 45.1923L40.5537 39.8266C40.4545 39.4294 40.0976 39.1509 39.6882 39.1509C39.2787 39.1509 38.922 39.4294 38.8226 39.8266L37.4811 45.1923L32.7383 46.8118C32.3772 46.9351 32.1345 47.2745 32.1345 47.6562C32.1345 48.0378 32.3773 48.3772 32.7383 48.5006L37.4811 50.12L38.8226 55.4857C38.9219 55.8829 39.2787 56.1614 39.6882 56.1614C40.0976 56.1614 40.4544 55.8829 40.5537 55.4857L41.8952 50.12L46.638 48.5006C46.9991 48.3772 47.2418 48.0378 47.2418 47.6562C47.2418 47.2744 46.999 46.9351 46.638 46.8118Z" fill="#FACF5E"/>
</g>
<defs>
<clipPath id="clip0">
<rect width="56.1463" height="56.1463" fill="white" transform="translate(0.458435 0.312622)"/>
</clipPath>
</defs>
</svg>
