<svg width="77" height="77" viewBox="0 0 77 77" fill="none" xmlns="http://www.w3.org/2000/svg">
<g clip-path="url(#clip0)">
<path d="M53.0883 2.43423L7.91016 14.5397L24.0516 74.7805L69.2298 62.675L53.0883 2.43423Z" fill="#25C2CE"/>
<path d="M53.0883 2.43423L7.91016 14.5397L12.2252 30.6436L57.4033 18.5382L53.0883 2.43423Z" fill="#F4E662"/>
<path d="M15.4642 18.6297C14.7545 18.8199 14.457 19.3197 14.6784 20.146L15.4704 23.1014C15.6918 23.9278 16.1993 24.2118 16.9303 24.0159C17.8943 23.7577 17.7945 23.0464 17.7071 22.5929C17.6403 22.2588 17.9085 22.0733 18.2688 21.9768C18.7454 21.8491 19.0048 21.9271 19.1496 22.4675C19.4931 23.7493 18.6628 24.8461 17.1798 25.2434C15.845 25.6011 14.5673 25.2395 14.0933 23.4704L13.3014 20.515C12.8273 18.7459 13.7636 17.7911 15.0984 17.4334C16.5709 17.0389 17.8297 17.5417 18.159 18.7706C18.3066 19.3215 18.1182 19.5083 17.6522 19.6332C17.2603 19.7382 16.9429 19.6983 16.8473 19.3833C16.7378 19.0605 16.4707 18.3601 15.4642 18.6297Z" fill="#ED3B72"/>
<path d="M20.9693 21.6275L20.1774 18.672C19.7033 16.9029 20.6079 15.9566 22.0062 15.5819C23.4044 15.2072 24.6715 15.5716 25.1456 17.3407L25.9375 20.2962C26.4115 22.0653 25.4964 23.0144 24.0981 23.3891C22.6997 23.7638 21.4433 23.3966 20.9693 21.6275ZM23.7685 17.7097C23.5443 16.8728 23.0184 16.605 22.3299 16.7895C21.6307 16.9768 21.3304 17.466 21.5547 18.3029L22.3466 21.2584C22.5708 22.0953 23.0755 22.3687 23.7746 22.1814C24.4632 21.9969 24.7847 21.5021 24.5604 20.6652L23.7685 17.7097Z" fill="#ED3B72"/>
<path d="M31.5757 18.3315C31.5158 18.5745 31.3529 18.6864 31.1833 18.7318C31.0139 18.7772 30.8273 18.7591 30.6541 18.5784L28.8228 16.6165L30.066 21.2563C30.1427 21.5422 29.8329 21.7844 29.4939 21.8752C29.1442 21.9689 28.7656 21.9113 28.689 21.6253L26.915 15.0047C26.7787 14.4962 27.0695 14.2253 27.419 14.1317C27.917 13.9982 28.1677 14.0447 28.6849 14.576L30.6235 16.5997L31.2906 13.8776C31.4728 13.1589 31.6774 12.9905 32.1753 12.8571C32.525 12.7634 32.9121 12.8527 33.0483 13.3611L34.8224 19.982C34.899 20.2679 34.5892 20.51 34.2503 20.6009C33.9006 20.6946 33.522 20.637 33.4453 20.351L32.2248 15.7958L31.5757 18.3315Z" fill="#ED3B72"/>
<path d="M35.3079 12.4723C35.2284 12.1757 35.5334 11.9576 35.8829 11.864C36.2219 11.7731 36.6057 11.8065 36.6852 12.1032L38.5302 18.9889C38.6068 19.2748 38.2969 19.517 37.9578 19.6079C37.6083 19.7015 37.2295 19.644 37.1529 19.358L35.3079 12.4723Z" fill="#ED3B72"/>
<path d="M41.641 11.6153C40.9314 11.8055 40.6338 12.3053 40.8552 13.1316L41.6471 16.087C41.8685 16.9134 42.376 17.1974 43.107 17.0015C44.071 16.7433 43.9712 16.032 43.8839 15.5785C43.8171 15.2444 44.0853 15.0589 44.4456 14.9624C44.9222 14.8347 45.1816 14.9127 45.3264 15.4531C45.6698 16.7349 44.8397 17.8316 43.3565 18.229C42.0219 18.5867 40.7441 18.2251 40.27 16.456L39.4781 13.5006C39.0041 11.7315 39.9405 10.7767 41.2753 10.419C42.7478 10.0244 44.0065 10.5273 44.3358 11.7562C44.4834 12.3071 44.295 12.4939 43.8289 12.6188C43.437 12.7238 43.1196 12.6839 43.0239 12.3689C42.9146 12.0461 42.6476 11.3456 41.641 11.6153Z" fill="#ED3B72"/>
<path d="M50.5184 14.0281C50.0926 12.4392 46.8228 13.8377 46.15 11.327C45.7271 9.74858 46.9382 8.84499 48.1564 8.51856C48.7814 8.3511 50.2088 8.12764 50.3961 8.82665C50.4614 9.07032 50.4226 9.60305 50.0413 9.70523C49.7129 9.79322 49.3614 9.456 48.4715 9.69444C47.7087 9.89882 47.3568 10.3224 47.493 10.8309C47.845 12.1446 51.1235 10.7777 51.8586 13.5214C52.2645 15.0362 51.4152 16.1039 49.9533 16.4956C48.5655 16.8675 47.3189 16.4522 47.1542 15.8376C47.0748 15.541 47.231 15.0222 47.5593 14.9343C47.9937 14.8179 48.4982 15.557 49.5788 15.2674C50.2144 15.0973 50.6887 14.6637 50.5184 14.0281Z" fill="#ED3B72"/>
<path d="M58.7535 57.506C49.0648 49.989 50.5671 45.6862 58.6206 40.7527C47.0608 42.8075 47.5925 35.8167 50.5614 24.7189C44.1494 35.825 36.8835 39.4588 31.9499 31.4052C32.9141 40.8004 34.2857 43.7625 25.029 41.7045C32.2808 47.8146 29.094 48.5212 21.0404 53.4548C30.4357 52.4906 29.469 58.3671 27.4111 67.6238C35.2656 57.3506 38.1564 56.3107 43.0899 64.3643C42.1258 54.969 49.4968 55.4482 58.7535 57.506Z" fill="#ED3B72"/>
<path d="M48.7558 46.746C44.6444 45.4089 42.2658 43.8216 43.5259 39.8699C40.6778 42.8904 39.6963 42.7292 37.6813 39.0801C36.8098 43.5026 35.6712 45.4747 32.277 48.4407C36.4424 48.3527 35.2072 52.333 33.9813 56.2974C36.8015 53.2534 39.6309 50.1937 41.6375 53.845C42.5088 49.4226 44.8474 47.7933 48.7558 46.746Z" fill="#F4E662"/>
</g>
<defs>
<clipPath id="clip0">
<rect width="62.3659" height="62.3659" fill="white" transform="translate(0.378906 16.5579) rotate(-15)"/>
</clipPath>
</defs>
</svg>
