<?xml version="1.0" encoding="utf-8"?>
<!-- Generator: Adobe Illustrator 24.0.2, SVG Export Plug-In . SVG Version: 6.00 Build 0)  -->
<svg version="1.1" id="Слой_1" xmlns="http://www.w3.org/2000/svg" xmlns:xlink="http://www.w3.org/1999/xlink" x="0px" y="0px"
	 viewBox="0 0 210.2 70.1" style="enable-background:new 0 0 210.2 70.1;" xml:space="preserve">
<style type="text/css">
	.st0{fill:url(#SVGID_1_);stroke:#EEF4FC;}
	.st1{fill:url(#SVGID_2_);filter:url(#Adobe_OpacityMaskFilter);stroke:#EEF4FC;}
	.st2{mask:url(#mask0_1_);}
	.st3{fill:url(#SVGID_3_);}
	.st4{fill:none;stroke:url(#SVGID_4_);}
	.st5{fill:url(#SVGID_5_);}
	.st6{fill:none;stroke:url(#SVGID_6_);stroke-linecap:round;}
	.st7{fill:none;stroke:url(#SVGID_7_);stroke-linecap:round;}
	.st8{fill:none;stroke:url(#SVGID_8_);stroke-linecap:round;}
	.st9{fill:#FFFFFF;}
	.st10{fill:none;stroke:#DEE1E3;}
	.st11{fill:#31394E;}
	.st12{fill:#E73656;}
</style>
<linearGradient id="SVGID_1_" gradientUnits="userSpaceOnUse" x1="105.1198" y1="101.5897" x2="105.1198" y2="18.6259" gradientTransform="matrix(1 0 0 -1 0 89.9999)">
	<stop  offset="0" style="stop-color:#FFFFFF"/>
	<stop  offset="1" style="stop-color:#FFFFFF"/>
</linearGradient>
<path class="st0" d="M0.5,54.1V16C0.5,7.4,7.4,0.5,16,0.5l178.2,0c8.6,0,15.5,6.9,15.5,15.5v38.1c0,8.6-6.9,15.5-15.5,15.5H16
	C7.4,69.6,0.5,62.6,0.5,54.1z"/>
<defs>
	<filter id="Adobe_OpacityMaskFilter" filterUnits="userSpaceOnUse" x="14.2" y="14.5" width="185" height="46.5">
		<feColorMatrix  type="matrix" values="1 0 0 0 0  0 1 0 0 0  0 0 1 0 0  0 0 0 1 0"/>
	</filter>
</defs>
<mask maskUnits="userSpaceOnUse" x="14.2" y="14.5" width="185" height="46.5" id="mask0_1_">
	
		<linearGradient id="SVGID_2_" gradientUnits="userSpaceOnUse" x1="98.9637" y1="101.5897" x2="98.9637" y2="18.6259" gradientTransform="matrix(1 0 0 -1 0 89.9999)">
		<stop  offset="0" style="stop-color:#FFFFFF"/>
		<stop  offset="1" style="stop-color:#FFFFFF"/>
	</linearGradient>
	<path class="st1" d="M-2.3,54.1V16c0-8.6,6.9-15.5,15.5-15.5l171.6,0c8.6,0,15.5,6.9,15.5,15.5v38.1c0,8.6-6.9,15.5-15.5,15.5H13.2
		C4.6,69.6-2.3,62.6-2.3,54.1z"/>
</mask>
<g class="st2">
	
		<linearGradient id="SVGID_3_" gradientUnits="userSpaceOnUse" x1="37.1587" y1="52" x2="37.1587" y2="30" gradientTransform="matrix(1 0 0 -1 0 89.9999)">
		<stop  offset="0" style="stop-color:#659FF8"/>
		<stop  offset="1" style="stop-color:#1841C1"/>
	</linearGradient>
	<path class="st3" d="M25.2,38h24c6.1,0,11,4.9,11,11l0,0c0,6.1-4.9,11-11,11h-24c-6.1,0-11-4.9-11-11l0,0
		C14.2,42.9,19.1,38,25.2,38z"/>
	
		<linearGradient id="SVGID_4_" gradientUnits="userSpaceOnUse" x1="161.1412" y1="57.3292" x2="168.1762" y2="25.6704" gradientTransform="matrix(1 0 0 -1 0 89.9999)">
		<stop  offset="0" style="stop-color:#5171D5"/>
		<stop  offset="1" style="stop-color:#3352B4"/>
	</linearGradient>
	<path class="st4" d="M141.7,37.5h46c6.1,0,11,4.9,11,11l0,0c0,6.1-4.9,11-11,11h-46c-6.1,0-11-4.9-11-11l0,0
		C130.7,42.4,135.6,37.5,141.7,37.5z"/>
	
		<linearGradient id="SVGID_5_" gradientUnits="userSpaceOnUse" x1="170.385" y1="49.4133" x2="174.051" y2="32.6406" gradientTransform="matrix(1 0 0 -1 0 89.9999)">
		<stop  offset="0" style="stop-color:#5171D5"/>
		<stop  offset="1" style="stop-color:#3352B4"/>
	</linearGradient>
	<path class="st5" d="M158.3,50.6l1.6-5h1.2l-2.3,6.4h-1.1l-2.3-6.4h1.2L158.3,50.6z M163.1,52H162v-4.8h1.1V52z M162,46
		c0-0.2,0.1-0.3,0.2-0.4c0.1-0.1,0.3-0.2,0.4-0.2c0.2,0,0.3,0.1,0.4,0.2c0.1,0.1,0.2,0.2,0.2,0.4c0,0.2-0.1,0.3-0.2,0.4
		c-0.1,0.1-0.3,0.2-0.4,0.2c-0.2,0-0.3-0.1-0.4-0.2C162,46.3,162,46.2,162,46z M166.5,52.1c-0.7,0-1.2-0.2-1.6-0.6
		c-0.4-0.4-0.6-1-0.6-1.7v-0.1c0-0.5,0.1-0.9,0.3-1.3c0.2-0.4,0.4-0.7,0.8-0.9c0.3-0.2,0.7-0.3,1.1-0.3c0.6,0,1.1,0.2,1.5,0.6
		c0.4,0.4,0.5,1,0.5,1.8V50h-3.1c0,0.4,0.2,0.7,0.4,0.9c0.2,0.2,0.5,0.3,0.9,0.3c0.5,0,0.9-0.2,1.2-0.6l0.6,0.5
		c-0.2,0.3-0.4,0.5-0.8,0.7C167.3,52,166.9,52.1,166.5,52.1z M166.4,48c-0.3,0-0.5,0.1-0.7,0.3c-0.2,0.2-0.3,0.5-0.3,0.9h2v-0.1
		c0-0.4-0.1-0.6-0.3-0.8C166.9,48.1,166.7,48,166.4,48z M173.6,50.5l0.8-3.3h1l-1.3,4.8h-0.9l-1-3.3l-1,3.3h-0.9l-1.3-4.8h1l0.8,3.2
		l1-3.2h0.8L173.6,50.5z M181.6,52c0-0.1-0.1-0.2-0.1-0.4c-0.3,0.4-0.8,0.5-1.2,0.5c-0.5,0-0.9-0.1-1.2-0.4s-0.5-0.6-0.5-1
		c0-0.5,0.2-0.9,0.6-1.2c0.4-0.3,0.9-0.4,1.6-0.4h0.7v-0.3c0-0.2-0.1-0.4-0.2-0.6c-0.1-0.1-0.3-0.2-0.6-0.2c-0.2,0-0.4,0.1-0.6,0.2
		c-0.2,0.1-0.2,0.3-0.2,0.5h-1.1c0-0.3,0.1-0.5,0.3-0.7c0.2-0.2,0.4-0.4,0.7-0.5c0.3-0.1,0.6-0.2,1-0.2c0.6,0,1,0.1,1.3,0.4
		c0.3,0.3,0.5,0.7,0.5,1.2v2.1c0,0.4,0.1,0.8,0.2,1V52H181.6z M180.4,51.2c0.2,0,0.4-0.1,0.6-0.2c0.2-0.1,0.3-0.2,0.4-0.4v-0.9h-0.6
		c-0.4,0-0.7,0.1-0.9,0.2c-0.2,0.1-0.3,0.3-0.3,0.6c0,0.2,0.1,0.4,0.2,0.5C180,51.2,180.2,51.2,180.4,51.2z M184.9,52h-1.1v-6.8h1.1
		V52z M187.4,52h-1.1v-6.8h1.1V52z"/>
	
		<linearGradient id="SVGID_6_" gradientUnits="userSpaceOnUse" x1="145.4826" y1="44.2208" x2="145.6256" y2="42.7906" gradientTransform="matrix(1 0 0 -1 0 89.9999)">
		<stop  offset="0" style="stop-color:#5171D5"/>
		<stop  offset="1" style="stop-color:#3352B4"/>
	</linearGradient>
	<path class="st6" d="M142.2,46h6.7"/>
	
		<linearGradient id="SVGID_7_" gradientUnits="userSpaceOnUse" x1="145.4826" y1="41.7875" x2="145.6256" y2="40.3572" gradientTransform="matrix(1 0 0 -1 0 89.9999)">
		<stop  offset="0" style="stop-color:#5171D5"/>
		<stop  offset="1" style="stop-color:#3352B4"/>
	</linearGradient>
	<path class="st7" d="M142.2,48.4h6.7"/>
	
		<linearGradient id="SVGID_8_" gradientUnits="userSpaceOnUse" x1="145.4826" y1="39.3541" x2="145.6256" y2="37.9239" gradientTransform="matrix(1 0 0 -1 0 89.9999)">
		<stop  offset="0" style="stop-color:#5171D5"/>
		<stop  offset="1" style="stop-color:#3352B4"/>
	</linearGradient>
	<path class="st8" d="M142.2,50.9h6.7"/>
	<path class="st9" d="M30.2,45.6l1.8,4.9l1.8-4.9h1.4V52h-1.1v-2.1l0.1-2.8L32.4,52h-0.8l-1.9-4.9l0.1,2.8V52h-1.1v-6.4H30.2z
		 M39.5,52c0-0.1-0.1-0.2-0.1-0.4c-0.3,0.4-0.8,0.5-1.2,0.5c-0.5,0-0.9-0.1-1.2-0.4c-0.3-0.3-0.5-0.6-0.5-1c0-0.5,0.2-0.9,0.6-1.2
		c0.4-0.3,0.9-0.4,1.6-0.4h0.7v-0.3c0-0.2-0.1-0.4-0.2-0.6C39,48,38.8,48,38.6,48c-0.2,0-0.4,0.1-0.6,0.2c-0.2,0.1-0.2,0.3-0.2,0.5
		h-1.1c0-0.3,0.1-0.5,0.3-0.7c0.2-0.2,0.4-0.4,0.7-0.5c0.3-0.1,0.6-0.2,1-0.2c0.6,0,1,0.1,1.3,0.4c0.3,0.3,0.5,0.7,0.5,1.2v2.1
		c0,0.4,0.1,0.8,0.2,1V52H39.5z M38.4,51.2c0.2,0,0.4-0.1,0.6-0.2c0.2-0.1,0.3-0.2,0.4-0.4v-0.9h-0.6c-0.4,0-0.7,0.1-0.9,0.2
		c-0.2,0.1-0.3,0.3-0.3,0.6c0,0.2,0.1,0.4,0.2,0.5C38,51.2,38.1,51.2,38.4,51.2z M42.7,47.2l0,0.5c0.4-0.4,0.8-0.6,1.4-0.6
		c1,0,1.5,0.6,1.5,1.7V52h-1.1v-3.1c0-0.3-0.1-0.5-0.2-0.7c-0.1-0.1-0.3-0.2-0.6-0.2c-0.4,0-0.8,0.2-1,0.6V52h-1.1v-4.8H42.7z"/>
	<path class="st10" d="M75.7,38.5h39c6.1,0,11,4.9,11,11l0,0c0,6.1-4.9,11-11,11h-39c-6.1,0-11-4.9-11-11l0,0
		C64.7,43.4,69.6,38.5,75.7,38.5z"/>
	<path class="st11" d="M84.8,51.4l1-4.8h1.1L85.4,53h-1.1l-1.2-4.7L81.9,53h-1.1l-1.5-6.4h1.1l1,4.8l1.2-4.8h0.9L84.8,51.4z
		 M87.5,50.6c0-0.5,0.1-0.9,0.3-1.3c0.2-0.4,0.4-0.7,0.8-0.9c0.3-0.2,0.7-0.3,1.2-0.3c0.6,0,1.2,0.2,1.6,0.6c0.4,0.4,0.6,1,0.7,1.6
		l0,0.3c0,0.5-0.1,0.9-0.3,1.3c-0.2,0.4-0.4,0.7-0.8,0.9c-0.3,0.2-0.7,0.3-1.2,0.3c-0.7,0-1.2-0.2-1.6-0.7
		C87.7,52,87.5,51.4,87.5,50.6L87.5,50.6z M88.5,50.7c0,0.5,0.1,0.9,0.3,1.2c0.2,0.3,0.5,0.4,0.8,0.4c0.4,0,0.6-0.1,0.8-0.4
		c0.2-0.3,0.3-0.7,0.3-1.2c0-0.5-0.1-0.9-0.3-1.1C90.3,49.2,90,49,89.7,49c-0.3,0-0.6,0.1-0.8,0.4C88.6,49.7,88.5,50.1,88.5,50.7z
		 M94,48.2l0,0.5c0.3-0.4,0.8-0.6,1.4-0.6c0.6,0,1.1,0.2,1.3,0.7c0.3-0.5,0.8-0.7,1.5-0.7c0.5,0,0.9,0.1,1.2,0.4
		c0.3,0.3,0.4,0.7,0.4,1.3V53h-1.1v-3.1c0-0.3-0.1-0.5-0.2-0.7c-0.1-0.1-0.3-0.2-0.7-0.2c-0.2,0-0.4,0.1-0.6,0.2
		c-0.2,0.1-0.3,0.3-0.3,0.5l0,3.3h-1.1v-3.1c0-0.6-0.3-0.8-0.9-0.8c-0.4,0-0.7,0.2-0.9,0.5V53H93v-4.8H94z M103.8,53
		c0-0.1-0.1-0.2-0.1-0.4c-0.3,0.4-0.8,0.5-1.2,0.5c-0.5,0-0.9-0.1-1.2-0.4c-0.3-0.3-0.5-0.6-0.5-1c0-0.5,0.2-0.9,0.6-1.2
		c0.4-0.3,0.9-0.4,1.6-0.4h0.7v-0.3c0-0.2-0.1-0.4-0.2-0.6c-0.1-0.1-0.3-0.2-0.6-0.2c-0.2,0-0.4,0.1-0.6,0.2
		c-0.2,0.1-0.2,0.3-0.2,0.5h-1.1c0-0.3,0.1-0.5,0.3-0.7c0.2-0.2,0.4-0.4,0.7-0.5c0.3-0.1,0.6-0.2,1-0.2c0.6,0,1,0.1,1.3,0.4
		c0.3,0.3,0.5,0.7,0.5,1.2v2.1c0,0.4,0.1,0.8,0.2,1V53H103.8z M102.6,52.2c0.2,0,0.4-0.1,0.6-0.2c0.2-0.1,0.3-0.2,0.4-0.4v-0.9h-0.6
		c-0.4,0-0.7,0.1-0.9,0.2c-0.2,0.1-0.3,0.3-0.3,0.6c0,0.2,0.1,0.4,0.2,0.5C102.2,52.2,102.4,52.2,102.6,52.2z M107,48.2l0,0.5
		c0.4-0.4,0.8-0.6,1.4-0.6c1,0,1.5,0.6,1.5,1.7V53h-1.1v-3.1c0-0.3-0.1-0.5-0.2-0.7c-0.1-0.1-0.3-0.2-0.6-0.2c-0.4,0-0.8,0.2-1,0.6
		V53H106v-4.8H107z"/>
	<path class="st11" d="M23.4,21.1c-0.3,0.3-0.6,0.6-1.1,0.7c-0.5,0.2-1,0.3-1.6,0.3c-0.6,0-1.2-0.1-1.6-0.4
		c-0.5-0.3-0.8-0.7-1.1-1.2c-0.3-0.5-0.4-1.1-0.4-1.8v-0.5c0-0.7,0.1-1.3,0.4-1.8c0.2-0.5,0.6-0.9,1-1.2c0.5-0.3,1-0.4,1.6-0.4
		c0.8,0,1.5,0.2,2,0.6c0.5,0.4,0.8,1,0.8,1.8H22c-0.1-0.4-0.2-0.7-0.4-0.9C21.3,16.1,21,16,20.6,16c-0.5,0-0.9,0.2-1.1,0.6
		c-0.3,0.4-0.4,0.9-0.4,1.7v0.5c0,0.7,0.1,1.3,0.4,1.7c0.3,0.4,0.7,0.6,1.2,0.6c0.6,0,0.9-0.1,1.2-0.4v-1.2h-1.3v-1.1h2.8V21.1z
		 M27.1,22.1c-0.8,0-1.4-0.2-1.9-0.7c-0.5-0.5-0.7-1.1-0.7-1.9v-0.1c0-0.5,0.1-1,0.3-1.4c0.2-0.4,0.5-0.7,0.9-1
		c0.4-0.2,0.8-0.3,1.3-0.3c0.7,0,1.3,0.2,1.7,0.7c0.4,0.5,0.6,1.1,0.6,1.9v0.6H26c0,0.3,0.2,0.6,0.4,0.8c0.2,0.2,0.5,0.3,0.9,0.3
		c0.5,0,1-0.2,1.3-0.6l0.7,0.8c-0.2,0.3-0.5,0.5-0.9,0.7C28,22,27.6,22.1,27.1,22.1z M27,17.8c-0.3,0-0.5,0.1-0.7,0.3
		c-0.2,0.2-0.3,0.5-0.3,0.8h2v-0.1c0-0.3-0.1-0.6-0.3-0.7C27.5,17.8,27.3,17.8,27,17.8z M31.6,16.7l0,0.6c0.4-0.5,0.9-0.7,1.5-0.7
		c0.6,0,1,0.2,1.3,0.5c0.3,0.3,0.4,0.8,0.4,1.5V22h-1.4v-3.4c0-0.3-0.1-0.5-0.2-0.6c-0.1-0.1-0.3-0.2-0.6-0.2
		c-0.4,0-0.7,0.2-0.9,0.5V22h-1.4v-5.3H31.6z M35.9,19.3c0-0.8,0.2-1.5,0.6-2c0.4-0.5,0.9-0.7,1.5-0.7c0.5,0,0.9,0.2,1.3,0.6v-2.7
		h1.4V22h-1.3l-0.1-0.6c-0.4,0.4-0.8,0.7-1.4,0.7c-0.6,0-1.1-0.2-1.5-0.7C36.1,20.9,35.9,20.2,35.9,19.3z M37.3,19.4
		c0,0.5,0.1,0.9,0.3,1.1c0.2,0.3,0.4,0.4,0.8,0.4c0.4,0,0.7-0.2,0.9-0.6v-2.1c-0.2-0.4-0.5-0.6-0.9-0.6
		C37.7,17.8,37.3,18.3,37.3,19.4z M44.4,22.1c-0.8,0-1.4-0.2-1.9-0.7c-0.5-0.5-0.7-1.1-0.7-1.9v-0.1c0-0.5,0.1-1,0.3-1.4
		c0.2-0.4,0.5-0.7,0.9-1c0.4-0.2,0.8-0.3,1.3-0.3c0.7,0,1.3,0.2,1.7,0.7c0.4,0.5,0.6,1.1,0.6,1.9v0.6h-3.4c0,0.3,0.2,0.6,0.4,0.8
		c0.2,0.2,0.5,0.3,0.9,0.3c0.5,0,1-0.2,1.3-0.6l0.7,0.8c-0.2,0.3-0.5,0.5-0.9,0.7C45.2,22,44.8,22.1,44.4,22.1z M44.2,17.8
		c-0.3,0-0.5,0.1-0.7,0.3c-0.2,0.2-0.3,0.5-0.3,0.8h2v-0.1c0-0.3-0.1-0.6-0.3-0.7C44.8,17.8,44.5,17.8,44.2,17.8z M50.5,18
		c-0.2,0-0.4,0-0.5,0c-0.5,0-0.9,0.2-1,0.5V22h-1.4v-5.3h1.3l0,0.6c0.3-0.5,0.7-0.7,1.2-0.7c0.2,0,0.3,0,0.4,0.1L50.5,18z"/>
	<circle class="st12" cx="57.7" cy="19.5" r="2.5"/>
</g>
</svg>
