<svg width="84" height="84" viewBox="0 0 84 84" fill="none" xmlns="http://www.w3.org/2000/svg">
<path d="M41.7565 0.00158738C39.9573 0.00158722 38.1847 0.115466 36.4453 0.336208L36.4453 83.2C38.1847 83.4207 39.9573 83.5346 41.7565 83.5346C64.8235 83.5346 83.523 64.8351 83.523 41.7681C83.523 18.7011 64.8235 0.00158939 41.7565 0.00158738Z" fill="#D0E8FE"/>
<path d="M25.5631 3.26337L12.6225 11.8586L12.622 11.8578C11.4676 12.9831 10.3774 14.1741 9.35886 15.4257L9.35951 15.4272L3.22244 25.6693L3.22163 25.6686C2.7759 26.7347 2.37423 27.8237 2.0166 28.9323L2.0179 28.9323L2.0179 54.6012L2.01676 54.6017C2.37439 55.71 2.77574 56.7986 3.2213 57.8641L3.22244 57.8643L9.35951 68.1064L9.3582 68.1072C10.3769 69.3592 11.4672 70.5502 12.6219 71.6758L12.6224 71.6751L30.4031 80.2704L63.9606 80.2704L63.9606 3.26337L25.5631 3.26337Z" fill="#3D4EC6"/>
<path d="M3.21777 25.6722L6.09183 25.6722C7.89399 25.6722 9.35484 24.2113 9.35484 22.4092L9.35484 15.4302C6.84836 18.5108 4.77194 21.9548 3.21777 25.6722Z" fill="#F6D100"/>
<path d="M12.6201 22.4048C12.6201 24.207 14.081 25.6678 15.8831 25.6678L35.0261 25.6678C36.8282 25.6678 38.2891 24.207 38.2891 22.4048L38.2891 3.26188C38.2891 1.97446 37.5415 0.86439 36.4585 0.333498C27.2351 1.5041 18.9523 5.68467 12.6201 11.8571L12.6201 22.4048Z" fill="#EB5793"/>
<path d="M44.8099 2.85261e-07L63.9528 1.95879e-06C65.755 2.11634e-06 67.2158 1.46085 67.2158 3.26301L67.2158 22.4059C67.2158 24.2081 65.755 25.6689 63.9528 25.6689L44.8099 25.6689C43.0077 25.6689 41.5469 24.2081 41.5469 22.4059L41.5469 3.26301C41.5469 1.46085 43.0077 1.27711e-07 44.8099 2.85261e-07Z" fill="#31A7ED"/>
<path d="M67.2158 19.1429C56.6435 19.1429 48.0729 10.5723 48.0729 5.70522e-07L44.8099 2.85261e-07C43.0077 1.27711e-07 41.5469 1.46085 41.5469 3.26301L41.5469 22.4059C41.5469 24.2081 43.0077 25.6689 44.8099 25.6689L63.9528 25.6689C65.755 25.6689 67.2158 24.2081 67.2158 22.4059L67.2158 19.1429Z" fill="#1296D8"/>
<path d="M2.01229 54.602L6.09089 54.602C7.89305 54.602 9.3539 53.1411 9.3539 51.339L9.3539 32.1959C9.3539 30.3937 7.89305 28.9329 6.09089 28.9329L2.0123 28.9329C0.707583 32.977 -7.3054e-07 37.2893 -1.12203e-06 41.7674C-1.51353e-06 46.2456 0.707581 50.5578 2.01229 54.602Z" fill="#31A7ED"/>
<path d="M15.8802 28.933L35.0231 28.933C36.8253 28.933 38.2861 30.3938 38.2861 32.196L38.2861 51.3389C38.2861 53.1411 36.8253 54.6019 35.0231 54.6019L15.8802 54.6019C14.078 54.6019 12.6172 53.1411 12.6172 51.3389L12.6172 32.196C12.6172 30.394 14.0782 28.933 15.8802 28.933Z" fill="#B9E746"/>
<path d="M44.8138 28.9321L63.9567 28.9321C65.7589 28.9321 67.2197 30.3929 67.2197 32.1951L67.2197 51.338C67.2197 53.1402 65.7589 54.601 63.9567 54.601L44.8138 54.601C43.0116 54.601 41.5508 53.1402 41.5508 51.338L41.5508 32.1951C41.5508 30.3931 43.0116 28.9321 44.8138 28.9321Z" fill="#F6D100"/>
<path d="M67.2197 48.075C56.6474 48.075 48.0768 39.5044 48.0768 28.9321L44.8138 28.9321C43.0116 28.9321 41.5508 30.3929 41.5508 32.1951L41.5508 51.338C41.5508 53.1402 43.0116 54.601 44.8138 54.601L63.9567 54.601C65.7589 54.601 67.2197 53.1402 67.2197 51.338L67.2197 48.075Z" fill="#F2BA00"/>
<path d="M6.09183 57.8615L3.21777 57.8615C4.77194 61.5788 6.84836 65.0228 9.35484 68.1035L9.35484 61.1245C9.35484 59.3223 7.89399 57.8615 6.09183 57.8615Z" fill="#B9E746"/>
<path d="M35.0262 57.8621L15.8831 57.8621C14.081 57.8621 12.6201 59.3229 12.6201 61.1251L12.6201 71.6727C18.9523 77.8452 27.2351 82.0259 36.4585 83.1964C37.5415 82.6655 38.2891 81.5554 38.2891 80.268L38.2891 61.1251C38.2892 59.3229 36.8282 57.8621 35.0262 57.8621Z" fill="#F6D100"/>
<path d="M44.8089 57.8611L63.9518 57.8611C65.754 57.8611 67.2148 59.322 67.2148 61.1242L67.2148 80.2671C67.2148 82.0692 65.754 83.5301 63.9518 83.5301L44.8089 83.5301C43.0067 83.5301 41.5459 82.0692 41.5459 80.2671L41.5459 61.1242C41.5459 59.322 43.0067 57.8611 44.8089 57.8611Z" fill="#EB5793"/>
<path d="M67.2148 77.0041C56.6425 77.0041 48.0719 68.4335 48.0719 57.8611L44.8089 57.8611C43.0067 57.8611 41.5459 59.322 41.5459 61.1242L41.5459 80.2671C41.5459 82.0692 43.0067 83.5301 44.8089 83.5301L63.9518 83.5301C65.754 83.5301 67.2148 82.0692 67.2148 80.2671L67.2148 77.0041Z" fill="#E7387F"/>
<path d="M12.6201 22.4038C12.6201 24.206 14.081 25.6668 15.8831 25.6668L35.0261 25.6668C36.8282 25.6668 38.2891 24.206 38.2891 22.4038L38.2891 19.1408C29.8281 19.1408 22.6501 13.6513 20.1201 6.03986C17.4003 7.69159 14.8861 9.64727 12.6201 11.8562L12.6201 22.4038Z" fill="#E7387F"/>
<path d="M38.2861 48.0759C27.7138 48.0759 19.1432 39.5053 19.1432 28.933L15.8802 28.933C14.078 28.933 12.6172 30.3938 12.6172 32.196L12.6172 51.3389C12.6172 53.1411 14.078 54.6019 15.8802 54.6019L35.0231 54.6019C36.8253 54.6019 38.2861 53.1411 38.2861 51.3389L38.2861 48.0759Z" fill="#9ED369"/>
<path d="M19.1461 57.8621L15.8831 57.8621C14.081 57.8621 12.6201 59.3229 12.6201 61.1251L12.6201 71.6727C18.9523 77.8452 27.2351 82.0259 36.4585 83.1964C37.5415 82.6655 38.2891 81.5554 38.2891 80.268L38.2891 77.005C27.7167 77.005 19.1461 68.4344 19.1461 57.8621Z" fill="#F2BA00"/>
</svg>
