<svg width="42" height="42" viewBox="0 0 42 42" fill="none" xmlns="http://www.w3.org/2000/svg">
<g clip-path="url(#clip0)">
<path d="M12.5506 11.7157L13.9956 10.917C14.2884 10.5258 14.162 10.3044 14.2111 9.14098C13.6913 8.73796 13.5087 8.36562 13.4213 8.24364C13.2217 5.96071 14.0765 6.18203 15.6355 3.97727C15.9401 3.54644 16.5343 3.44119 16.9702 3.73856C17.5401 4.12739 18.2084 4.80636 18.4703 5.60412C18.5542 5.29601 18.888 3.92846 18.5658 2.78757C18.0575 0.987224 14.5733 -0.110767 12.366 2.03148C11.6407 2.74253 11.127 3.83273 11.127 5.40101C11.127 7.42193 11.7914 9.95104 12.5506 11.7157Z" fill="#CC9D72"/>
<path d="M13.4214 8.24346C13.2883 6.7212 13.6246 6.31186 14.3253 5.55471C14.2167 4.01818 14.4173 2.51496 15.5357 1.41861C15.7222 1.23756 15.9219 1.07703 16.1316 0.937327C14.8098 0.66326 13.3907 1.03691 12.366 2.03146C11.6407 2.74251 11.127 3.83271 11.127 5.40098C11.127 7.42183 11.7913 9.95094 12.5505 11.7156L13.9955 10.9169C14.2884 10.5257 14.1619 10.3042 14.211 9.14088C13.6913 8.73778 13.5088 8.36535 13.4214 8.24346Z" fill="#C19067"/>
<path d="M20.4205 37.3672C19.1994 38.7039 18.7215 37.9193 16.8848 38.5265C17.1271 39.9455 18.575 40.9225 19.7547 41.5054C20.1307 41.6912 20.5679 41.4062 20.5475 40.9872L20.4649 39.2971L20.4205 37.3672Z" fill="#ED694A"/>
<path d="M18.7573 38.2305C18.2837 38.2624 17.7273 38.2482 16.8848 38.5268C17.1271 39.9457 18.575 40.9227 19.7547 41.5056C20.1307 41.6914 20.5679 41.4064 20.5475 40.9875L20.4865 39.7407C19.8352 39.3531 19.1856 38.8519 18.7573 38.2305Z" fill="#DB4E33"/>
<path d="M26.1816 8.72524C25.5896 5.4462 23.6161 2.89584 23.6161 2.89584C22.772 1.40484 23.9045 0.00390625 21.9461 0.00390625C20.3066 0.00390625 20.3749 1.25636 20.6254 2.07602C20.7965 2.63613 21.4966 3.78293 21.9186 4.29661C22.7964 5.36523 23.1992 7.56089 23.3408 8.54092C23.3796 8.8094 23.1953 9.05862 22.9269 9.09897C21.1375 9.36812 18.9004 9.88615 17.9474 10.1149C17.6921 10.176 17.437 10.0152 17.3817 9.75859L17.2623 8.86642C16.337 9.81585 15.0302 9.66081 14.0293 8.87733L14.1092 10.0387C14.1513 10.4695 13.9169 10.88 13.5238 11.0608C12.4544 11.5529 10.3062 12.6532 8.79957 14.1599C8.79957 14.1599 7.69141 14.8734 7.69141 15.8298C7.69141 16.7079 8.88135 18.9678 10.5916 20.2132L10.634 20.2636C10.9014 20.5825 10.789 21.0686 10.4087 21.2376C10.4002 21.241 9.71373 21.5218 9.75753 21.5038C9.11227 21.7654 9.23294 22.6526 9.87164 22.7739L10.4104 22.8762C11.2745 23.0403 12.1528 22.6714 12.6406 21.9397C13.0857 21.2721 12.9338 20.6374 12.9446 20.4812C12.9185 19.938 12.7637 19.4088 12.4909 18.9384C12.0947 18.2551 11.474 17.2428 10.8952 16.5431C10.7344 16.3487 10.7994 16.0552 11.0263 15.9451L13.5994 14.6954C13.9609 14.5199 14.3956 14.6836 14.5515 15.054L15.0299 16.1911L15.1125 16.1229C15.1125 16.1229 16.1152 14.8926 16.1152 14.0729C16.1152 13.2792 18.478 11.913 20.08 12.7376C20.049 12.6539 20.0169 12.5705 19.9821 12.488C19.9821 12.4882 26.7736 12.0043 26.1816 8.72524Z" fill="#F4D44E"/>
<path d="M21.9193 4.29677C22.7971 5.3654 23.1999 7.56105 23.3415 8.54108C23.3726 8.75674 23.2596 8.95985 23.0749 9.0523C23.4954 8.97429 23.9127 8.90259 24.3081 8.8432C24.5764 8.80284 24.7608 8.55355 24.722 8.28514C24.5805 7.30519 24.1776 5.10946 23.2998 4.04084C22.8777 3.52707 22.1777 2.38036 22.0066 1.82024C21.8286 1.23782 21.7433 0.437523 22.2964 0.0226082C20.8608 -0.142029 20.1741 0.597566 20.626 2.07626C20.7973 2.63638 21.4972 3.78309 21.9193 4.29677Z" fill="#E8C842"/>
<path d="M15.5954 10.5469L15.5266 9.51171C15.0074 9.46142 14.4864 9.23526 14.0293 8.87744L14.1092 10.0388C14.1513 10.4696 13.9169 10.8801 13.5238 11.061C12.4544 11.553 10.3062 12.6533 8.79957 14.16C8.79957 14.16 7.69141 14.8735 7.69141 15.8299C7.69141 16.708 8.88135 18.9679 10.5916 20.2133L10.634 20.2637C10.6291 20.2313 10.6554 19.7975 10.3558 19.3726C9.59191 18.2892 9.12884 17.1629 9.12884 16.5933C9.12884 15.5947 10.2455 14.8498 10.2455 14.8498C11.7636 13.2767 13.928 12.1278 15.0054 11.6142C15.4016 11.4253 15.6378 10.9967 15.5954 10.5469Z" fill="#E8C842"/>
<path d="M29.2841 38.0674C29.2841 38.0674 29.0276 39.7099 29.8474 40.7872C30.7316 41.9493 32.4512 42.0418 33.779 41.9888C34.1981 41.9721 34.4456 41.5126 34.2272 41.1545L33.346 39.7101" fill="#ED694A"/>
<path d="M31.4883 38.9587L29.2841 38.0674C29.2841 38.0674 29.0276 39.7099 29.8474 40.7872C30.566 41.7315 31.8362 41.9696 32.9994 41.9972C31.8344 41.4078 31.4427 40.2744 31.4883 38.9587Z" fill="#DB4E33"/>
<path d="M32.0855 37.5218L28.0528 30.3311C27.113 31.3182 26.2712 29.9919 25.3789 32.3332L29.2846 38.0674C30.251 39.4333 31.6809 39.71 33.3466 39.71L32.0855 37.5218Z" fill="#F4D44E"/>
<path d="M26.5925 30.8483C26.189 30.9554 25.7893 31.2562 25.3789 32.333L29.2846 38.0672C29.8667 38.8899 30.6171 39.3171 31.4857 39.527C25.9191 29.6539 26.661 30.9698 26.5925 30.8483Z" fill="#E8C842"/>
<path d="M16.9087 13.1101C16.1407 11.7541 14.7537 10.8244 14.0724 10.4302C13.9145 10.9566 13.5174 11.0569 13.0352 11.2937C13.1369 11.3788 14.9731 12.2454 15.8155 13.7518C15.8868 13.8794 15.9958 13.9723 16.1207 14.0254C16.1522 13.744 16.4571 13.4014 16.9087 13.1101Z" fill="#B70122"/>
<path d="M18.9099 9.89037C18.5247 9.97822 18.1946 10.0562 17.9497 10.1149C17.7231 10.1693 17.4968 10.0482 17.4102 9.84082C17.477 10.2155 18.1475 10.6951 18.7115 12.4929C19.1809 12.4561 19.6545 12.5196 20.0761 12.7349C20.076 12.7306 20.0763 12.7264 20.0761 12.722C20.0468 12.6436 20.017 12.5654 19.9843 12.4881C19.6705 11.33 19.2412 10.4266 18.9099 9.89037Z" fill="#B70122"/>
<path d="M27.9581 20.2132C26.5366 20.2132 25.8271 21.6175 25.4976 23.0078C25.4447 23.2312 25.1975 23.3482 24.9873 23.2559C24.9374 23.2104 22.5644 22.5104 20.4856 18.4785C20.2254 17.9738 20.1373 17.3982 20.2316 16.8383C20.502 15.234 20.6156 13.9878 19.9826 12.4882C18.3829 11.4844 15.862 12.9152 15.862 13.735C15.862 14.5548 14.8594 15.785 14.8594 15.785C15.5564 17.5452 15.8605 17.8912 15.8869 18.6756C15.9609 20.8661 15.9049 29.6052 10.6524 34.2765C9.54496 35.2614 9.49098 36.9756 10.5042 38.0571C11.2401 38.8425 12.1814 39.5119 13.2526 39.5119C15.8437 39.5119 16.3691 38.3278 18.6568 38.3278C20.9445 38.3278 21.1267 35.0488 23.4038 35.0488C25.6809 35.0488 24.8611 30.8589 27.1382 30.8589C29.4154 30.8589 28.8689 25.8492 31.4192 25.1205C33.9697 24.3919 30.3263 20.2132 27.9581 20.2132Z" fill="#D60027"/>
<path d="M12.7708 38.2408C11.7576 37.1593 11.8115 35.4451 12.919 34.4603C18.1715 29.7891 18.2275 21.0498 18.1535 18.8594C18.1339 18.2775 17.9614 17.9369 17.5894 17.0816C17.3165 16.4541 17.3491 15.7311 17.6937 15.14C17.9204 14.7512 18.1286 14.2923 18.1286 13.9188C18.1286 13.4484 18.9589 12.7776 19.9686 12.4803C18.3683 11.4932 15.862 12.9175 15.862 13.7349C15.862 14.5548 14.8594 15.785 14.8594 15.785C15.5564 17.5452 15.8605 17.8911 15.8869 18.6756C15.9609 20.8661 15.9049 29.6052 10.6524 34.2765C9.54496 35.2614 9.49098 36.9756 10.5042 38.0571C11.8272 39.4692 12.8891 39.6592 14.3489 39.4311C13.7567 39.1647 13.2246 38.7251 12.7708 38.2408Z" fill="#B70122"/>
<path d="M16.8847 3.5693C16.4489 3.27185 15.8546 3.37702 15.55 3.80793C15.2059 4.29462 14.6778 4.97187 13.9757 5.67398C13.2775 6.37223 13.182 7.36555 13.2514 8.15871L13.2519 8.15945C13.9398 9.39246 15.9112 10.3876 17.232 9.06688C18.5528 7.74617 18.4693 5.60384 18.4693 5.60384C18.2787 4.68911 17.5099 3.99586 16.8847 3.5693Z" fill="#F4D44E"/>
<path d="M14.6396 7.47625C14.2008 6.8606 14.2034 6.03389 14.344 5.29102C13.9036 5.76573 13.095 6.35726 13.2525 8.15842L13.253 8.15916C13.9361 9.38364 15.8847 10.3724 17.2051 9.09268C16.2088 8.88333 15.2605 8.25333 14.6396 7.47625Z" fill="#E8C842"/>
<path d="M37.4321 6.23471C37.2517 6.08494 37.0166 6.02499 36.787 6.07061L31.8926 7.04233C31.5282 7.1146 31.2638 7.43906 31.2638 7.81377V11.373C31.002 11.2344 30.7045 11.1554 30.3889 11.1554C29.3474 11.1554 28.5 12.0106 28.5 13.0619C28.5 14.1131 29.3474 14.9683 30.3889 14.9683C31.4305 14.9683 32.2779 14.1131 32.2779 13.0619V8.009L36.7024 7.13058V10.2934C36.4406 10.1548 36.1431 10.0758 35.8274 10.0758C34.7859 10.0758 33.9385 10.931 33.9385 11.9823C33.9385 13.0335 34.7859 13.8887 35.8274 13.8887C36.8691 13.8887 37.7165 13.0335 37.7165 11.9823V6.84214C37.7165 6.60602 37.6129 6.38464 37.4321 6.23471Z" fill="#E69824"/>
<path d="M9.33453 27.5223L8.53702 26.3395C8.22825 25.8818 7.68102 25.6551 7.14248 25.7619C6.77818 25.8343 6.5138 26.1587 6.5138 26.5334V30.0926C6.25203 29.954 5.95451 29.875 5.63893 29.875C4.59738 29.875 3.75 30.7302 3.75 31.7815C3.75 32.8327 4.59738 33.6879 5.63893 33.6879C6.68049 33.6879 7.52787 32.8327 7.52787 31.7815V26.7811C7.59587 26.8062 7.65608 26.8524 7.69866 26.9155L8.49617 28.0982C8.65375 28.3318 8.96907 28.3924 9.20065 28.2333C9.43214 28.0743 9.49211 27.7559 9.33453 27.5223Z" fill="#5392F9"/>
</g>
<defs>
<clipPath id="clip0">
<rect width="42" height="42" fill="white"/>
</clipPath>
</defs>
</svg>
