<svg width="73" height="73" viewBox="0 0 73 73" fill="none" xmlns="http://www.w3.org/2000/svg">
<path d="M11.0208 6.51782H63.282C66.489 6.51782 69.0889 9.1442 69.0889 12.3839V59.3125C69.0889 62.5522 66.489 65.1785 63.282 65.1785H11.0208C7.81375 65.1785 5.21387 62.5522 5.21387 59.3125V12.3839C5.21387 9.1442 7.81375 6.51782 11.0208 6.51782Z" fill="#F0EAF9"/>
<path d="M8.11725 18.25H66.1855C67.789 18.25 69.0889 19.4172 69.0889 20.8571V20.8572C69.0889 22.2971 67.789 23.4643 66.1855 23.4643H8.11725C6.51374 23.4643 5.21387 22.2971 5.21387 20.8572V20.8571C5.21387 19.4172 6.51374 18.25 8.11725 18.25Z" fill="#E1D5F3"/>
<path d="M11.0207 6.51782H63.282C66.489 6.51782 69.0889 9.08585 69.0889 12.2536V20.8571H5.21387V12.2536C5.21387 9.08585 7.81373 6.51782 11.0207 6.51782Z" fill="#5628B4"/>
<path d="M10.7543 6.51782H63.549C65.1689 6.51782 66.482 7.68504 66.482 9.1249V9.12503C66.482 10.5649 65.1689 11.7321 63.549 11.7321H10.7543C9.13441 11.7321 7.82129 10.5649 7.82129 9.12503V9.1249C7.82129 7.68504 9.13441 6.51782 10.7543 6.51782Z" fill="#6F48BF"/>
<path d="M9.28784 18.25H65.0154C65.8254 18.25 66.482 18.8337 66.482 19.5536C66.482 20.2735 65.8254 20.8571 65.0154 20.8571H9.28784C8.47792 20.8571 7.82129 20.2735 7.82129 19.5536C7.82129 18.8337 8.47792 18.25 9.28784 18.25Z" fill="#421198"/>
<path d="M67.6227 27.375C66.8128 27.375 66.1562 28.0259 66.1562 28.8289C66.1562 28.8289 66.1562 28.8289 66.1562 28.829V59.3626C66.1562 60.9686 64.843 62.2705 63.2232 62.2705H47.0916C46.2816 62.2705 45.625 62.9215 45.625 63.7245C45.625 64.5276 46.2816 65.1786 47.0916 65.1786H63.2232C66.4629 65.1786 69.0891 62.5746 69.0893 59.3626V28.829C69.0893 28.0259 68.4327 27.375 67.6227 27.375Z" fill="#D9C9EF"/>
<path d="M6.51744 32.5892C7.23735 32.5892 7.82101 33.2378 7.82101 34.0377V57.2122C7.82101 58.0121 7.23735 58.6607 6.51744 58.6607C5.79752 58.6607 5.21387 58.0121 5.21387 57.2122V34.0377C5.21387 33.2378 5.79752 32.5892 6.51744 32.5892Z" fill="#DFD2F2"/>
<path d="M12.3841 15.6429C13.464 15.6429 14.3394 14.7674 14.3394 13.6875C14.3394 12.6076 13.464 11.7322 12.3841 11.7322C11.3042 11.7322 10.4287 12.6076 10.4287 13.6875C10.4287 14.7674 11.3042 15.6429 12.3841 15.6429Z" fill="#F7B236"/>
<path d="M18.2499 15.6429C18.9698 15.6429 19.5534 14.7674 19.5534 13.6875C19.5534 12.6076 18.9698 11.7322 18.2499 11.7322C17.5299 11.7322 16.9463 12.6076 16.9463 13.6875C16.9463 14.7674 17.5299 15.6429 18.2499 15.6429Z" fill="#B39DDD"/>
<path d="M24.1165 15.6429C25.1964 15.6429 26.0718 14.7674 26.0718 13.6875C26.0718 12.6076 25.1964 11.7322 24.1165 11.7322C23.0366 11.7322 22.1611 12.6076 22.1611 13.6875C22.1611 14.7674 23.0366 15.6429 24.1165 15.6429Z" fill="#D80E70"/>
<path d="M60.3786 47.1648H31.3447C29.7413 47.1648 28.4414 45.8649 28.4414 44.2614V29.7449C28.4414 28.1414 29.7413 26.8416 31.3447 26.8416H60.3786C61.9821 26.8416 63.282 28.1414 63.282 29.7449V44.2614C63.282 45.8649 61.9821 47.1648 60.3786 47.1648Z" fill="#B39DDD"/>
<path d="M19.7312 38.4546H13.9248C12.3213 38.4546 11.0215 37.1548 11.0215 35.5513V29.7449C11.0215 28.1414 12.3213 26.8416 13.9248 26.8416H19.7312C21.3347 26.8416 22.6345 28.1414 22.6345 29.7449V35.5513C22.6345 37.1548 21.3347 38.4546 19.7312 38.4546Z" fill="#B39DDD"/>
<path d="M19.7312 58.7776H13.9248C12.3213 58.7776 11.0215 57.4778 11.0215 55.8743V50.0679C11.0215 48.4644 12.3213 47.1646 13.9248 47.1646H19.7312C21.3347 47.1646 22.6345 48.4644 22.6345 50.0679V55.8743C22.6345 57.4778 21.3347 58.7776 19.7312 58.7776Z" fill="#B39DDD"/>
<path d="M29.8931 50.0674H38.6027C39.4045 50.0674 40.0545 50.7174 40.0545 51.5191C40.0545 52.3209 39.4045 52.9709 38.6027 52.9709H29.8931C29.0914 52.9709 28.4414 52.3209 28.4414 51.5191C28.4414 50.7174 29.0914 50.0674 29.8931 50.0674Z" fill="#B39DDD"/>
<path d="M58.9263 50.0674H61.8297C62.6314 50.0674 63.2814 50.7174 63.2814 51.5191C63.2814 52.3209 62.6314 52.9709 61.8297 52.9709H58.9263C58.1246 52.9709 57.4746 52.3209 57.4746 51.5191C57.4746 50.7174 58.1246 50.0674 58.9263 50.0674Z" fill="#B39DDD"/>
<path d="M44.4107 50.0674H53.1203C53.9221 50.0674 54.5721 50.7174 54.5721 51.5191C54.5721 52.3209 53.9221 52.9709 53.1203 52.9709H44.4107C43.609 52.9709 42.959 52.3209 42.959 51.5191C42.959 50.7174 43.609 50.0674 44.4107 50.0674Z" fill="#B39DDD"/>
<path d="M29.8931 55.8752H41.507C42.3088 55.8752 42.9588 56.5252 42.9588 57.327C42.9588 58.1287 42.3088 58.7787 41.507 58.7787H29.8931C29.0914 58.7787 28.4414 58.1287 28.4414 57.327C28.4414 56.5252 29.0914 55.8752 29.8931 55.8752Z" fill="#B39DDD"/>
<path d="M47.314 55.8752H50.2174C51.0191 55.8752 51.6691 56.5252 51.6691 57.327C51.6691 58.1287 51.0191 58.7787 50.2174 58.7787H47.314C46.5123 58.7787 45.8623 58.1287 45.8623 57.327C45.8623 56.5252 46.5123 55.8752 47.314 55.8752Z" fill="#B39DDD"/>
<path d="M21.1828 44.2613H12.4732C11.6715 44.2613 11.0215 43.6113 11.0215 42.8095C11.0215 42.0078 11.6715 41.3578 12.4732 41.3578H21.1828C21.9845 41.3578 22.6345 42.0078 22.6345 42.8095C22.6345 43.6113 21.9845 44.2613 21.1828 44.2613Z" fill="#B39DDD"/>
<path d="M37.5135 49.5358H34.617C26.6177 49.5358 20.1328 56.2057 20.1328 64.4336C20.1328 64.4337 20.1328 64.4337 20.1328 64.4339V64.5128C20.1432 66.1403 18.7466 67.4133 17.1642 67.4133H15.7873C14.9874 67.4133 14.3389 68.0803 14.3389 68.9031C14.3389 69.7259 14.9874 70.3929 15.7873 70.3929H25.9263C33.9256 70.3928 40.4103 63.7227 40.4103 55.4949V49.5358H37.5135Z" fill="#F7B236"/>
<path d="M40.4103 55.495V49.5358H37.5135C37.5135 57.7636 31.0288 64.4337 23.0293 64.4337H20.133V64.5128C20.1433 66.1402 18.7466 67.4132 17.1644 67.4132H15.7873C14.9874 67.4132 14.3389 68.0803 14.3389 68.9031C14.3389 69.7259 14.9874 70.3929 15.7873 70.3929H25.9263C33.9256 70.3928 40.4103 63.7228 40.4103 55.495Z" fill="#F58B04"/>
<path d="M68.1286 21.8183C67.2498 20.9395 65.9499 20.6326 64.7709 21.0257C54.6632 24.5971 46.3358 31.9511 41.5416 41.5394L40.4111 43.8V49.5357H46.1469L48.4075 48.4055C57.9958 43.6113 65.3498 35.2837 68.9212 25.1761C69.3143 23.9969 69.0074 22.6971 68.1286 21.8183Z" fill="#D80E70"/>
<path d="M57.1297 30.0919C55.9959 28.9581 52.6313 30.4844 49.6148 33.5009C46.5983 36.5174 45.072 39.882 46.2058 41.0158C47.3397 42.1496 50.7042 40.6233 53.7207 37.6068C56.7372 34.5903 58.2635 31.2257 57.1297 30.0919Z" fill="#E976AF"/>
<path d="M64.7701 21.0256C64.2736 21.201 63.8025 21.427 63.3148 21.6203C62.9413 34.4787 53.1887 45.115 40.4111 46.5992V49.5357H46.1467L48.4072 48.4053C57.9952 43.6111 65.3491 35.2835 68.9205 25.176C69.4934 23.4567 68.5642 21.5985 66.845 21.0256C66.1715 20.8011 65.4436 20.8011 64.7701 21.0256Z" fill="#A60068"/>
<path d="M36.5 50.4046L39.5416 53.4464L45.625 50.4046L39.5416 44.3214L36.5 50.4046Z" fill="#5628B4"/>
<path d="M38.6809 52.1274L39.9781 53.4464L45.6251 50.5753L42.9162 47.8206C41.7466 46.6313 39.8505 46.6313 38.6809 47.8206C38.4533 48.0521 38.2639 48.3192 38.1199 48.6121C37.5435 49.7846 37.7694 51.2006 38.6809 52.1274Z" fill="#420F9B"/>
<path d="M31.162 53.289C30.2788 52.4058 27.7343 53.5184 25.4787 55.774C23.2231 58.0296 22.1105 60.5741 22.9937 61.4573C23.8768 62.3405 26.4213 61.2279 28.6769 58.9722C30.9325 56.7166 32.0451 54.1722 31.162 53.289Z" fill="#FBDA9E"/>
</svg>
