<svg width="43" height="45" viewBox="0 0 43 45" fill="none" xmlns="http://www.w3.org/2000/svg">
<path d="M8.50655 24.0907L15.0315 15.6107C15.3027 15.2585 15.7222 15.0518 16.1668 15.0518L34.027 15.0518C34.4716 15.0518 34.8911 15.2585 35.1623 15.6107L41.6873 24.0907C42.2906 24.8748 42.2801 25.9698 41.6624 26.7428L28.2491 43.5157C27.9772 43.8558 27.5659 44.0535 27.1306 44.0535L23.0632 44.0535C22.6283 44.0535 22.2166 43.8558 21.9447 43.5157L8.53142 26.7428C7.91334 25.9698 7.90325 24.8748 8.50655 24.0907Z" fill="#B7E5F7"/>
<path d="M8.50606 24.0888L15.031 15.6087C15.3022 15.2565 15.7217 15.0498 16.1664 15.0498L19.4705 15.0498C19.0259 15.0498 18.6064 15.2565 18.3352 15.6087L11.8106 24.0888C11.2069 24.8729 11.2173 25.9679 11.8351 26.7409L25.2487 43.5138C25.5202 43.8539 25.9319 44.0515 26.3672 44.0515L23.063 44.0515C22.6278 44.0515 22.2161 43.8539 21.9442 43.5138L8.53093 26.7409C7.91285 25.9679 7.90277 24.8729 8.50606 24.0888Z" fill="#84C8D8"/>
<path d="M26.2193 44.0549L27.1305 44.0549C27.5657 44.0549 27.9768 43.8569 28.249 43.5161L41.6616 26.7432C41.9695 26.3594 42.1271 25.8923 42.1328 25.4268L32.6623 25.4268L26.2193 44.0549Z" fill="#94D8ED"/>
<path d="M8.06029 25.4249L17.5311 25.4249L20.959 15.0503L16.1663 15.0503C15.7223 15.0503 15.3025 15.2567 15.0319 15.6089L8.50729 24.0899C8.2038 24.4825 8.05625 24.955 8.06029 25.4249Z" fill="#DEF6FF"/>
<path d="M8.10725 24.9615C8.17178 24.6509 8.30521 24.3515 8.50889 24.0876L13.5691 17.5102L15.0332 15.6073C15.3044 15.255 15.7238 15.0483 16.1685 15.0483L19.4727 15.0483C19.028 15.0483 18.6089 15.255 18.3377 15.6073L11.8127 24.0873C11.5099 24.4809 11.3617 24.9527 11.367 25.4226L8.06289 25.4226C8.06121 25.2751 8.07465 25.1272 8.10322 24.982C8.10389 24.9773 8.1049 24.9726 8.10591 24.9679C8.10624 24.9659 8.10692 24.9635 8.10725 24.9615Z" fill="#B7E5F7"/>
<path d="M17.5324 25.4239L32.6641 25.4239L29.2362 15.0493L20.9602 15.0493L17.5324 25.4239Z" fill="#94D8ED"/>
<path d="M17.5324 25.4248L23.9753 44.0529L26.2211 44.0529L32.6641 25.4248L17.5324 25.4248Z" fill="#DEF6FF"/>
<path d="M26.2203 44.053L23.9738 44.053L22.6745 40.2954L25.2493 43.5152C25.4906 43.8174 25.8422 44.0069 26.2227 44.0456L26.2203 44.053Z" fill="#B7E5F7"/>
<path d="M11.7651 12.0861L13.821 4.62507L20.1917 9.01919L26.4512 2.19678L26.1205 13.8213C26.11 14.188 25.8768 14.5113 25.5316 14.637L11.2855 19.8223C10.9403 19.9477 10.5538 19.8499 10.3102 19.5756L2.58467 10.8835L11.7651 12.0861Z" fill="#FFCD34"/>
<path d="M6.20815 11.3564L12.3759 18.8231C12.6064 19.1021 12.9607 19.2116 13.2695 19.099L11.2869 19.8206C10.9417 19.9463 10.5552 19.8485 10.3115 19.5743L2.58605 10.8818L6.20815 11.3564Z" fill="#E69012"/>
<path d="M13.0615 2.524C13.6887 2.29545 14.3821 2.61912 14.6103 3.24627C14.8388 3.87342 14.5152 4.56679 13.888 4.795C13.2608 5.02354 12.5675 4.69988 12.3393 4.07273C12.1107 3.44557 12.4344 2.75221 13.0615 2.524Z" fill="#FF8736"/>
<path d="M1.79377 8.77826C2.42092 8.55005 3.11462 8.87337 3.34283 9.50053C3.57104 10.1277 3.24772 10.821 2.62056 11.0496C1.99341 11.2778 1.29971 10.9545 1.0715 10.327C0.84329 9.69983 1.16661 9.00647 1.79377 8.77826Z" fill="#FF8736"/>
<path d="M25.7176 0.073182C26.3448 -0.155027 27.0381 0.168297 27.2667 0.795452C27.4949 1.42261 27.1715 2.11631 26.5441 2.34452C25.9169 2.57273 25.2235 2.2494 24.9953 1.62225C24.7671 0.994757 25.0904 0.301391 25.7176 0.073182Z" fill="#FF8736"/>
<path d="M16.3338 11.5196C17.0538 11.2575 17.9209 11.8235 18.2704 12.7834C18.6196 13.7436 18.3192 14.7344 17.5992 14.9966C16.879 15.2587 16.0119 14.6927 15.6627 13.7325C15.3131 12.7723 15.6136 11.7815 16.3338 11.5196Z" fill="#FA7EC1"/>
<path d="M35.8463 12.3314C36.1098 12.3314 36.3572 12.1687 36.4526 11.9066L37.1484 9.99518C37.2704 9.66043 37.0976 9.29005 36.7625 9.16804C36.4278 9.04604 36.0574 9.21879 35.9354 9.55388L35.24 11.4653C35.118 11.8 35.2908 12.1704 35.6255 12.2924C35.6984 12.3186 35.7731 12.3314 35.8463 12.3314Z" fill="#FF8736"/>
<path d="M31.9839 12.1873C32.0753 12.1873 32.168 12.1675 32.2561 12.1265C32.5791 11.9759 32.7189 11.5921 32.5683 11.2691L31.7987 9.6189C31.6481 9.29591 31.2643 9.1561 30.9413 9.30667C30.6183 9.45724 30.4785 9.84139 30.6291 10.1644L31.3987 11.8143C31.508 12.0492 31.7409 12.1873 31.9839 12.1873Z" fill="#FF8736"/>
<path d="M38.9 14.7057C38.9915 14.7057 39.0842 14.6862 39.1726 14.6452L40.8225 13.8759C41.1455 13.7253 41.2853 13.3412 41.1347 13.0182C40.9838 12.6952 40.6 12.5557 40.277 12.7059L38.6271 13.4753C38.3041 13.6258 38.1643 14.01 38.3149 14.333C38.4245 14.5679 38.657 14.7057 38.9 14.7057Z" fill="#FF8736"/>
</svg>
