<svg width="71" height="71" viewBox="0 0 71 71" fill="none" xmlns="http://www.w3.org/2000/svg">
<g clip-path="url(#clip0)">
<path d="M60.466 27.4814C60.466 27.4814 71.0004 38.3814 71.0004 55.0885C71.0004 55.0885 69.3704 55.6842 66.4389 56.3727C65.7932 56.5228 65.086 56.6799 64.3189 56.8341C63.4561 57.0084 62.5175 57.1827 61.5088 57.3469C60.8288 57.4584 60.116 57.5655 59.3732 57.667C56.0902 58.1113 52.2131 58.4356 47.8731 58.4356C42.386 58.4356 37.6374 57.9185 33.8975 57.2899C28.1232 56.3213 24.7461 55.0885 24.7461 55.0885C24.7461 38.3813 35.2804 27.4814 35.2804 27.4814V20.6671L29.6004 16.0028L24.7461 12.0171L34.016 3.70709C35.1518 2.68854 36.5532 2.13274 37.9775 2.03706C38.6417 1.99282 39.3089 2.04843 39.9588 2.20416C41.0088 2.45557 42.0074 2.96852 42.8559 3.73981L43.8445 4.63979C46.1275 6.71973 49.6188 6.71973 51.9032 4.63979L52.8918 3.73981C53.7403 2.96838 54.7389 2.45557 55.7889 2.20416C57.8332 1.71423 60.0661 2.21414 61.7303 3.70709L71.0004 12.0171L63.1632 18.4529L60.466 20.6672V27.4814Z" fill="#80B4FB"/>
<path d="M38.5304 15.7107V28.1433C38.5304 28.1433 34.2303 41.2062 34.2303 47.5948C34.2303 50.1376 34.0788 53.8019 33.8975 57.2905C28.1232 56.3219 24.7461 55.0891 24.7461 55.0891C24.7461 38.3819 35.2804 27.482 35.2804 27.482V14.0192H36.8388C37.7731 14.019 38.5304 14.7763 38.5304 15.7107Z" fill="#61A2F9"/>
<path d="M37.9776 2.0376C34.7491 5.0447 31.0062 11.3719 29.6004 16.0034L24.7461 12.0177L34.016 3.70762C35.1519 2.68908 36.5534 2.13342 37.9776 2.0376Z" fill="#61A2F9"/>
<path d="M55.7889 2.20471C55.4475 3.81192 52.7703 15.6276 47.8733 17.3432C42.9762 15.6276 40.3004 3.81178 39.959 2.20471C41.009 2.45612 42.0076 2.96893 42.8561 3.74036L43.8447 4.64034C46.1277 6.72028 49.619 6.72028 51.9033 4.64034L52.8919 3.74036C53.7403 2.96893 54.7389 2.45612 55.7889 2.20471Z" fill="#61A2F9"/>
<path d="M61.5089 57.3473C60.8289 57.4588 60.1161 57.5658 59.3732 57.6673C59.2762 53.2588 58.8219 48.8645 58.0204 44.5988C57.9118 44.0173 58.2947 43.4574 58.8761 43.3488C59.4575 43.2402 60.0175 43.6217 60.1276 44.2045C60.9332 48.4972 61.3974 52.913 61.5089 57.3473Z" fill="#61A2F9"/>
<path d="M66.4392 56.373C65.7935 56.523 65.0863 56.6801 64.3192 56.8344C64.1192 53.463 63.7062 50.0986 63.0921 46.8286C62.9821 46.2472 63.365 45.6872 63.9478 45.5772C64.5293 45.4687 65.0892 45.8515 65.1978 46.433C65.8078 49.6844 66.2249 53.023 66.4392 56.373Z" fill="#61A2F9"/>
<path d="M63.163 18.4531L60.4658 20.6674V16.4063C60.4658 15.7299 61.355 15.4807 61.7065 16.0587L63.163 18.4531Z" fill="#61A2F9"/>
<path d="M47.8734 29.6475C43.6044 29.6475 39.3356 29.2777 35.0965 28.5377C34.5135 28.4361 34.1234 27.881 34.2251 27.298C34.3269 26.7151 34.8821 26.3248 35.4648 26.4267C43.6986 27.8638 52.0482 27.8639 60.2819 26.4267C60.8641 26.3249 61.4199 26.715 61.5217 27.298C61.6233 27.881 61.2334 28.4359 60.6502 28.5377C56.4113 29.2777 52.1423 29.6475 47.8734 29.6475Z" fill="#FFD064"/>
<path d="M5.03874 45.4141C4.51858 45.4142 4.06235 45.0348 3.98109 44.5048C3.32489 40.2245 7.26664 37.218 11.4398 34.0351C13.2114 32.684 15.0868 31.2535 16.7206 29.6461C15.4027 28.8933 14.1643 28.122 13.063 27.3256C9.54183 24.7793 7.8302 22.2315 7.8302 19.5363C7.8302 15.2785 10.1959 13.4802 11.6062 12.7874C14.2373 11.4947 17.6885 11.926 20.1947 13.8606C22.8382 15.9013 23.9275 19.171 23.1828 22.8314C22.6955 25.2268 21.5837 27.2699 20.1422 29.0748C21.6171 29.8508 23.1534 30.6148 24.6788 31.3733C32.4364 35.2309 39.7638 38.8746 40.2929 44.2373C40.351 44.8261 39.9207 45.3507 39.3317 45.4088C38.742 45.4661 38.2183 45.0365 38.1602 44.4477C37.7475 40.2652 30.6188 36.7204 23.7246 33.292C22.0362 32.4524 20.3219 31.5999 18.68 30.7249C16.8573 32.5979 14.7368 34.2152 12.7392 35.739C8.92751 38.6461 5.63558 41.1569 6.09902 44.1802C6.18874 44.7651 5.78729 45.3119 5.20237 45.4016C5.1476 45.4101 5.09268 45.4141 5.03874 45.4141ZM14.8923 14.196C14.0627 14.196 13.2566 14.3641 12.5511 14.7106C10.8645 15.5393 9.97296 17.2081 9.97296 19.5363C9.97296 22.6809 13.5849 25.4359 18.2156 28.031C19.5946 26.3749 20.651 24.5276 21.0829 22.4043C21.8709 18.5308 20.0443 16.4515 18.8853 15.5569C17.731 14.6658 16.2789 14.196 14.8923 14.196Z" fill="#407093"/>
<path d="M39.2265 43.628C27.831 43.0328 16.4355 43.0328 5.03996 43.628C2.72428 43.7489 0.822394 45.5054 0.528548 47.8055C-0.176183 53.3215 -0.176183 58.8374 0.528548 64.3534C0.822394 66.6535 2.72414 68.4099 5.03996 68.5309C16.4355 69.126 27.831 69.126 39.2265 68.5309C41.5421 68.4099 43.444 66.6537 43.7379 64.3534C44.4426 58.8374 44.4426 53.3215 43.7379 47.8055C43.444 45.5054 41.5423 43.7489 39.2265 43.628Z" fill="#DB5C6E"/>
<path d="M7.1182 68.6326C6.4254 68.6011 5.73245 68.5668 5.03965 68.5312C2.72397 68.4097 0.822498 66.654 0.528236 64.3526C-0.176079 58.8369 -0.176079 53.3211 0.528236 47.8054C0.822498 45.5054 2.72397 43.7483 5.03965 43.6283C5.73245 43.5926 6.4254 43.5583 7.1182 43.527C5.64828 44.2542 4.57967 45.6799 4.36113 47.3927C3.62103 53.1842 3.62103 58.9756 4.36113 64.7656C4.57967 66.4783 5.64828 67.904 7.1182 68.6326Z" fill="#D64553"/>
<path d="M43.7371 55.1151C43.4437 57.4151 41.5419 59.171 39.2261 59.2915C27.831 59.8879 16.4361 59.8879 5.03947 59.2915C2.72365 59.171 0.821905 57.4151 0.528337 55.1151C0.373856 53.9042 0.253905 52.6934 0.165294 51.4825C-0.0478449 54.486 -0.0525598 57.4893 0.15212 60.4928C1.01438 61.7997 2.46475 62.6744 4.11536 62.7604C16.1281 63.389 28.1392 63.389 40.1502 62.7604C41.8017 62.6744 43.2525 61.7988 44.1146 60.4911C44.3193 57.486 44.3144 54.481 44.1008 51.476C44.0135 52.6891 43.8934 53.9022 43.7371 55.1151Z" fill="#D64553"/>
<path d="M27.9031 63.0439C24.4591 63.2323 21.0152 63.2323 17.5712 63.0439C16.0639 62.9614 14.8624 61.7685 14.741 60.2639C14.5746 58.1988 14.5746 56.1337 14.741 54.0686C14.8622 52.564 16.0638 51.3711 17.571 51.2887C21.0149 51.1002 24.459 51.1002 27.9029 51.2887C29.4101 51.3712 30.6117 52.564 30.7329 54.0686C30.8993 56.1337 30.8993 58.1988 30.7329 60.2639C30.6119 61.7685 29.4103 62.9614 27.9031 63.0439Z" fill="#FFD064"/>
<path d="M22.7365 59.3782C21.3272 59.3782 19.9011 59.3447 18.487 59.2785C18.4015 57.8738 18.4015 56.458 18.487 55.0534C19.9011 54.9873 21.3273 54.9537 22.7365 54.9537C24.1457 54.9537 25.5718 54.9873 26.9858 55.0534C27.0714 56.4582 27.0714 57.8739 26.9858 59.2785C25.5718 59.3447 24.1457 59.3782 22.7365 59.3782Z" fill="#DB5C6E"/>
<path d="M22.7375 60.4497C21.3145 60.4497 19.8678 60.4158 18.4379 60.3489C17.8912 60.3233 17.4518 59.89 17.4185 59.3436C17.3306 57.8985 17.3306 56.4332 17.4185 54.9884C17.4518 54.4421 17.8912 54.0088 18.4379 53.9831C19.8689 53.9162 21.3156 53.8823 22.7375 53.8823C24.1595 53.8823 25.6058 53.9162 27.0369 53.9831C27.5835 54.0087 28.023 54.442 28.0563 54.9884C28.1442 56.4335 28.1442 57.8987 28.0563 59.3436C28.023 59.8899 27.5835 60.3232 27.0369 60.3489C25.6069 60.4158 24.1603 60.4497 22.7375 60.4497ZM19.5126 58.2487C21.6659 58.3259 23.8085 58.3259 25.9621 58.2487C25.9851 57.5279 25.9851 56.8043 25.9621 56.0835C23.8074 56.0061 21.6672 56.0061 19.5126 56.0835C19.4895 56.8043 19.4895 57.5279 19.5126 58.2487Z" fill="#FFC250"/>
</g>
<defs>
<clipPath id="clip0">
<rect width="71" height="71" fill="white"/>
</clipPath>
</defs>
</svg>
