<svg width="161" height="56" viewBox="0 0 161 56" fill="none" xmlns="http://www.w3.org/2000/svg">
<rect y="6" width="161" height="45" rx="22.5" fill="#EEF1F3"/>
<rect y="6" width="161" height="45" rx="22.5" fill="url(#paint0_linear)"/>
<path d="M39.202 29.7168V35H36.7312V20.7812H42.1707C43.7592 20.7812 45.019 21.1947 45.95 22.0215C46.8875 22.8483 47.3562 23.9421 47.3562 25.3027C47.3562 26.696 46.8973 27.7799 45.9793 28.5547C45.0678 29.3294 43.7885 29.7168 42.1414 29.7168H39.202ZM39.202 27.7344H42.1707C43.0496 27.7344 43.7202 27.5293 44.1824 27.1191C44.6447 26.7025 44.8758 26.1035 44.8758 25.3223C44.8758 24.554 44.6414 23.9421 44.1727 23.4863C43.7039 23.0241 43.0594 22.7865 42.2391 22.7734H39.202V27.7344ZM55.891 35C55.7868 34.7982 55.6957 34.4694 55.6176 34.0137C54.8624 34.8014 53.9379 35.1953 52.8441 35.1953C51.7829 35.1953 50.9171 34.8926 50.2465 34.2871C49.5759 33.6816 49.2406 32.9329 49.2406 32.041C49.2406 30.9147 49.6573 30.0521 50.4906 29.4531C51.3305 28.8477 52.5284 28.5449 54.0844 28.5449H55.5394V27.8516C55.5394 27.3047 55.3865 26.8685 55.0805 26.543C54.7745 26.2109 54.309 26.0449 53.684 26.0449C53.1436 26.0449 52.7009 26.1816 52.3559 26.4551C52.0108 26.722 51.8383 27.0638 51.8383 27.4805H49.4652C49.4652 26.901 49.6573 26.3607 50.0414 25.8594C50.4255 25.3516 50.9464 24.9544 51.6039 24.668C52.268 24.3815 53.0069 24.2383 53.8207 24.2383C55.0577 24.2383 56.044 24.5508 56.7797 25.1758C57.5154 25.7943 57.893 26.6667 57.9125 27.793V32.5586C57.9125 33.5091 58.046 34.2676 58.3129 34.834V35H55.891ZM53.2836 33.291C53.7523 33.291 54.1918 33.1771 54.6019 32.9492C55.0186 32.7214 55.3311 32.4154 55.5394 32.0312V30.0391H54.2602C53.3812 30.0391 52.7204 30.1921 52.2777 30.498C51.835 30.804 51.6137 31.237 51.6137 31.7969C51.6137 32.2526 51.7634 32.6172 52.0629 32.8906C52.3689 33.1576 52.7758 33.291 53.2836 33.291ZM66.3301 26.6016C66.0176 26.5495 65.6953 26.5234 65.3633 26.5234C64.276 26.5234 63.5436 26.9401 63.166 27.7734V35H60.793V24.4336H63.0586L63.1172 25.6152C63.6901 24.6973 64.4844 24.2383 65.5 24.2383C65.8385 24.2383 66.1185 24.2839 66.3398 24.375L66.3301 26.6016ZM71.691 21.8652V24.4336H73.5562V26.1914H71.691V32.0898C71.691 32.4935 71.7691 32.7865 71.9254 32.9688C72.0881 33.1445 72.3746 33.2324 72.7848 33.2324C73.0582 33.2324 73.3349 33.1999 73.6148 33.1348V34.9707C73.0745 35.1204 72.5536 35.1953 72.0523 35.1953C70.2294 35.1953 69.318 34.1895 69.318 32.1777V26.1914H67.5797V24.4336H69.318V21.8652H71.691ZM77.9797 24.4336L78.048 25.6543C78.8293 24.7103 79.8547 24.2383 81.1242 24.2383C83.3247 24.2383 84.4445 25.498 84.4836 28.0176V35H82.1105V28.1543C82.1105 27.4837 81.9641 26.9889 81.6711 26.6699C81.3846 26.3444 80.9126 26.1816 80.2551 26.1816C79.298 26.1816 78.5852 26.6146 78.1164 27.4805V35H75.7434V24.4336H77.9797ZM91.9637 35.1953C90.4598 35.1953 89.2391 34.7233 88.3016 33.7793C87.3706 32.8288 86.9051 31.5658 86.9051 29.9902V29.6973C86.9051 28.6426 87.1069 27.7018 87.5105 26.875C87.9207 26.0417 88.4936 25.3939 89.2293 24.9316C89.965 24.4694 90.7853 24.2383 91.6902 24.2383C93.129 24.2383 94.2391 24.6973 95.0203 25.6152C95.8081 26.5332 96.202 27.832 96.202 29.5117V30.4688H89.2977C89.3693 31.3411 89.659 32.0312 90.1668 32.5391C90.6811 33.0469 91.3256 33.3008 92.1004 33.3008C93.1876 33.3008 94.073 32.8613 94.7566 31.9824L96.0359 33.2031C95.6128 33.8346 95.0464 34.3262 94.3367 34.6777C93.6336 35.0228 92.8426 35.1953 91.9637 35.1953ZM91.6805 26.1426C91.0294 26.1426 90.5021 26.3704 90.0984 26.8262C89.7013 27.2819 89.4474 27.9167 89.3367 28.7305H93.8582V28.5547C93.8061 27.7604 93.5945 27.1615 93.2234 26.7578C92.8523 26.3477 92.338 26.1426 91.6805 26.1426ZM103.985 26.6016C103.672 26.5495 103.35 26.5234 103.018 26.5234C101.931 26.5234 101.198 26.9401 100.821 27.7734V35H98.4477V24.4336H100.713L100.772 25.6152C101.345 24.6973 102.139 24.2383 103.155 24.2383C103.493 24.2383 103.773 24.2839 103.995 24.375L103.985 26.6016ZM111.807 32.1289C111.807 31.7057 111.631 31.3835 111.279 31.1621C110.934 30.9408 110.358 30.7454 109.551 30.5762C108.743 30.4069 108.07 30.1921 107.529 29.9316C106.344 29.3587 105.752 28.5286 105.752 27.4414C105.752 26.5299 106.136 25.7682 106.904 25.1562C107.673 24.5443 108.649 24.2383 109.834 24.2383C111.097 24.2383 112.116 24.5508 112.891 25.1758C113.672 25.8008 114.062 26.6113 114.062 27.6074H111.689C111.689 27.1517 111.52 26.7741 111.182 26.4746C110.843 26.1686 110.394 26.0156 109.834 26.0156C109.313 26.0156 108.887 26.1361 108.555 26.377C108.229 26.6178 108.066 26.9401 108.066 27.3438C108.066 27.7083 108.219 27.9915 108.525 28.1934C108.831 28.3952 109.45 28.6003 110.381 28.8086C111.312 29.0104 112.041 29.2546 112.568 29.541C113.102 29.821 113.496 30.1595 113.75 30.5566C114.01 30.9538 114.141 31.4355 114.141 32.002C114.141 32.9525 113.747 33.724 112.959 34.3164C112.171 34.9023 111.139 35.1953 109.863 35.1953C108.997 35.1953 108.226 35.0391 107.549 34.7266C106.872 34.4141 106.344 33.9844 105.967 33.4375C105.589 32.8906 105.4 32.3014 105.4 31.6699H107.705C107.738 32.2298 107.949 32.6628 108.34 32.9688C108.73 33.2682 109.248 33.418 109.893 33.418C110.518 33.418 110.993 33.3008 111.318 33.0664C111.644 32.8255 111.807 32.513 111.807 32.1289Z" fill="white"/>
<path d="M141 26L135.5 31L130 26" stroke="white" stroke-width="2.4" stroke-linecap="round" stroke-linejoin="round"/>
<defs>
<linearGradient id="paint0_linear" x1="80.5" y1="98.6645" x2="79.3359" y2="6.06162" gradientUnits="userSpaceOnUse">
<stop stop-color="#659FF8"/>
<stop offset="1" stop-color="#1841C1"/>
</linearGradient>
</defs>
</svg>
