<svg width="104" height="109" viewBox="0 0 104 109" fill="none" xmlns="http://www.w3.org/2000/svg">
<path d="M74 37.8033C74 57.5671 57.8921 73.6065 38 73.6065C36.6709 73.6065 34.6248 73.6705 32.2179 73.7459C31.7458 73.7606 31.2599 73.7758 30.7627 73.7911C27.7057 73.8848 24.1754 73.9819 20.6831 73.9978C17.1843 74.0136 13.7609 73.9476 10.9122 73.7207C9.68678 73.6231 8.59053 73.4974 7.65428 73.341C8.13895 73.0623 8.67703 72.7632 9.2522 72.4435L9.41246 72.3544C10.8023 71.5816 12.4079 70.6837 13.5037 69.8197C14.0157 69.416 14.678 68.8246 15.0423 68.0604C15.2443 67.6366 15.4065 67.0508 15.2853 66.3812C15.161 65.6942 14.7848 65.174 14.3717 64.8163C6.78667 58.2481 2 48.5816 2 37.8033C2 18.0394 18.1079 2 38 2C57.8921 2 74 18.0394 74 37.8033ZM5.56253 74.7363C5.55766 74.7425 5.55483 74.7456 5.55461 74.7457C5.55438 74.7457 5.55684 74.7426 5.56253 74.7363Z" fill="white" stroke="url(#paint0_linear)" stroke-width="4"/>
<path d="M42 76C42 92.5685 55.4315 106 72 106C73.1249 106 74.8545 106.054 76.881 106.118C77.2782 106.131 77.6869 106.144 78.1046 106.156C80.6785 106.236 83.6477 106.318 86.5841 106.331C89.527 106.345 92.3993 106.289 94.7848 106.098C95.447 106.045 96.0622 105.982 96.6237 105.909C96.4333 105.802 96.2358 105.692 96.032 105.578L95.9164 105.513C94.7529 104.863 93.3758 104.09 92.429 103.34C91.9909 102.992 91.3846 102.455 91.046 101.741C90.8571 101.342 90.7011 100.782 90.8171 100.138C90.9363 99.4758 91.297 98.9768 91.6869 98.6375C98.0089 93.1345 102 85.0345 102 76C102 59.4315 88.5685 46 72 46C55.4315 46 42 59.4315 42 76ZM99.0741 107.461C99.0793 107.467 99.0823 107.471 99.0825 107.471C99.0827 107.471 99.0801 107.467 99.0741 107.461Z" fill="white" stroke="url(#paint1_linear)" stroke-width="4" stroke-linecap="round" stroke-linejoin="round"/>
<path d="M28 29.5663C28 23.4995 32.6741 19.5994 37.3485 20.0328C42.2586 20.488 46.9095 24.3662 45.8471 30.8664C44.7848 37.3666 37.3485 37.3665 37.3485 41.2666V43" stroke="#214DC8" stroke-width="5" stroke-linecap="round" stroke-linejoin="round"/>
<circle cx="37" cy="51" r="3" fill="#214AC2"/>
<circle cx="58" cy="76" r="4" fill="#214AC2"/>
<circle cx="72" cy="76" r="4" fill="#214AC2"/>
<circle cx="86" cy="76" r="4" fill="#214AC2"/>
<defs>
<linearGradient id="paint0_linear" x1="38" y1="0" x2="38" y2="76" gradientUnits="userSpaceOnUse">
<stop stop-color="#1A44C3"/>
<stop offset="1" stop-color="#305ED2"/>
</linearGradient>
<linearGradient id="paint1_linear" x1="72" y1="44" x2="72" y2="108.333" gradientUnits="userSpaceOnUse">
<stop stop-color="#2551CA"/>
<stop offset="1" stop-color="#3766D7"/>
</linearGradient>
</defs>
</svg>
