<svg width="191" height="292" viewBox="0 0 191 292" fill="none" xmlns="http://www.w3.org/2000/svg">
<path d="M62.8372 277.706L144.918 101.12L152.153 99.3364L68.9067 278.665L62.8372 277.706Z" fill="url(#paint0_linear)"/>
<path d="M151.935 59.0468C138.573 47.273 126.451 45.8687 122.059 46.6382L110.856 64.262C120.238 70.5027 141.43 83.368 151.141 84.9034C160.852 86.4388 176.398 77.9182 182.957 73.466C178.184 73.5654 165.297 70.8206 151.935 59.0468Z" fill="#3E6260"/>
<path d="M135.771 38.5595C121.207 38.0867 111.659 47.5556 110.945 47.4427L106.824 73.5057C121.328 62.0146 147.421 38.9377 135.771 38.5595Z" fill="#78A160"/>
<path d="M135.771 38.5595C121.207 38.0867 117.334 51.0148 112.953 60.203L106.824 73.5057C121.328 62.0146 147.421 38.9377 135.771 38.5595Z" fill="#88B360"/>
<path d="M77.4223 25.6751C91.4211 29.7182 97.5822 41.6709 98.2963 41.7838L94.1755 67.8467C83.9248 52.4418 66.2232 22.4406 77.4223 25.6751Z" fill="#78A160"/>
<path d="M77.4223 25.6751C91.4211 29.7182 91.1176 43.2108 92.4497 53.3021L94.1755 67.8467C83.9248 52.4418 66.2232 22.4406 77.4223 25.6751Z" fill="#88B360"/>
<path d="M119.609 12.4832C112.407 15.4433 95.6183 43.0896 88.124 56.5428L80.3046 66.6511C89.1672 70.004 106.975 76.6499 107.306 76.4094C107.719 76.1088 128.611 8.78316 119.609 12.4832Z" fill="#3F6261"/>
<path fill-rule="evenodd" clip-rule="evenodd" d="M97.6147 65.1807C102.25 63.3662 114.126 58.7173 131.098 64.802C141.266 68.4471 148.476 77.1565 155.349 85.4597C162.056 93.5605 168.442 101.275 176.941 103.522C178.444 105.589 145.517 126.366 118.441 114.766C104.736 108.531 99.6254 100.025 95.7114 93.5106C93.2881 89.4773 91.3235 86.2073 88.0615 84.712C85.388 83.4864 80.6784 83.0892 75.1894 82.6263C63.1644 81.612 47.3987 80.2823 41.1047 69.2368C33.7712 56.3668 35.8497 37.6659 37.8056 29.9242C47.3331 29.8448 69.4315 32.6556 81.6058 44.5344C91.4938 54.1825 92.6559 58.4337 93.4734 61.4244C93.9141 63.0364 94.2546 64.2821 95.8075 65.8094C96.1572 65.7512 96.764 65.5137 97.6147 65.1807ZM106.834 84.0203C116.713 80.9469 138.547 80.1784 146.856 101.693C147.457 102.519 116.036 111.458 106.834 84.0203Z" fill="#5FA294"/>
<path d="M81.1165 71.3103C76.8035 48.6542 58.9129 45.1807 48.643 46.4315C49.4864 52.2833 49.5166 58.031 51.959 61.5393C61.4717 75.2036 81.4691 72.0433 81.1165 71.3103Z" fill="white"/>
<path d="M105.075 44.218C94.9466 48.1059 82.4491 66.7493 92.4042 71.1249C105.408 76.8404 108.758 51.0215 105.075 44.218Z" fill="#E1DE76"/>
<path d="M102.423 50.021C95.561 52.6437 87.0985 65.2328 93.8463 68.192C102.66 72.0573 104.922 54.6181 102.423 50.021Z" fill="url(#paint1_linear)"/>
<circle cx="125.147" cy="110.436" r="2.16877" transform="rotate(8.98455 125.147 110.436)" fill="#E1DE76"/>
<circle cx="134.956" cy="110.889" r="3.25316" transform="rotate(8.98455 134.956 110.889)" fill="#E1DE76"/>
<circle cx="145.404" cy="109.613" r="3.97608" transform="rotate(8.98455 145.404 109.613)" fill="#E1DE76"/>
<defs>
<linearGradient id="paint0_linear" x1="122.341" y1="94.6229" x2="92.649" y2="282.419" gradientUnits="userSpaceOnUse">
<stop stop-color="#8FAD79"/>
<stop offset="1" stop-color="#B2C9B8" stop-opacity="0"/>
</linearGradient>
<linearGradient id="paint1_linear" x1="102.893" y1="60.342" x2="94.9636" y2="57.2585" gradientUnits="userSpaceOnUse">
<stop stop-color="#AEC364"/>
<stop offset="1" stop-color="#AEC364" stop-opacity="0"/>
</linearGradient>
</defs>
</svg>
