<svg width="135" height="158" viewBox="0 0 135 158" fill="none" xmlns="http://www.w3.org/2000/svg">
<path d="M67.5 157.357L65.4212 156.339C0 124.318 0 79.349 0 27.2786V22.6615L4.41251 22.2082C24.5099 20.1653 44.9319 13.162 65.1122 1.39224L67.5 0L69.8877 1.39255C90.0678 13.1623 110.49 20.1653 130.587 22.2085L135 22.6569V27.2737C135 79.3486 135 124.318 69.5788 156.339L67.5 157.357Z" fill="url(#paint0_linear)"/>
<path d="M67.5 157.357V0L69.8877 1.39255C90.0678 13.1623 110.49 20.1653 130.587 22.2085L135 22.6569V27.2737C135 79.3486 135 124.318 69.5788 156.339L67.5 157.357Z" fill="url(#paint1_linear)"/>
<path d="M9.77979 31.8186C9.80398 55.8398 10.2189 76.7783 17.2685 95.5358C25.2262 116.709 41.2183 132.819 67.5036 146.095C93.7892 132.819 109.781 116.709 117.739 95.5358C124.788 76.7786 125.203 55.8361 125.227 31.8186C106.017 29.2271 86.6316 22.4534 67.5033 11.6462C48.3757 22.4537 28.9901 29.2268 9.77979 31.8186Z" fill="url(#paint2_linear)"/>
<path d="M67.4873 11.6454C86.6155 22.4529 106.001 29.226 125.211 31.8178C125.194 48.9291 124.977 64.4751 122.305 78.7835H67.4873V11.6454Z" fill="#ABCCF2"/>
<path d="M67.4907 78.7849V146.095C41.2051 132.819 25.213 116.709 17.2556 95.5357C15.2279 90.1404 13.7512 84.5631 12.6729 78.7845H67.4907V78.7849Z" fill="#ABCCF2"/>
<path d="M81.7276 72.8827V52.796C81.7276 44.6248 75.3451 37.9779 67.499 37.9779C59.6529 37.9779 53.2704 44.6248 53.2704 52.796V72.8827H43.7847V52.796C43.7847 39.179 54.4237 28.0992 67.499 28.0992C80.5743 28.0992 91.2133 39.179 91.2133 52.796V72.8827H81.7276Z" fill="#ABC6E6"/>
<path d="M81.7286 52.796V72.8827H91.2143V52.796C91.2143 39.179 80.5753 28.0992 67.5 28.0992V37.9779C75.3461 37.9779 81.7286 44.6248 81.7286 52.796Z" fill="#DDE1E7"/>
<path d="M91.2134 112.397H43.7847C39.8617 112.397 36.6704 109.073 36.6704 104.988V75.3518C36.6704 71.2663 39.8617 67.9427 43.7847 67.9427H91.2134C95.1363 67.9427 98.3276 71.2663 98.3276 75.3518V104.988C98.3276 109.073 95.1363 112.397 91.2134 112.397Z" fill="#FFD102"/>
<path d="M91.2143 67.9427H67.5V112.397H91.2143C95.1373 112.397 98.3286 109.073 98.3286 104.988V75.3518C98.3286 71.2663 95.1373 67.9427 91.2143 67.9427Z" fill="#FBB92E"/>
<path d="M74.6148 85.2316C74.6148 81.1461 71.4235 77.8226 67.5005 77.8226C63.5775 77.8226 60.3862 81.1461 60.3862 85.2316C60.3862 88.4489 62.3744 91.1646 65.1291 92.1872V100.05C65.1291 101.415 66.1898 102.519 67.5005 102.519C68.8113 102.519 69.872 101.415 69.872 100.05V92.1872C72.6266 91.1646 74.6148 88.4489 74.6148 85.2316Z" fill="#31394E"/>
<path d="M69.8714 100.05V92.1872C72.6261 91.1646 74.6143 88.4489 74.6143 85.2316C74.6143 81.1461 71.423 77.8226 67.5 77.8226V102.519C68.8108 102.519 69.8714 101.415 69.8714 100.05Z" fill="#31394E"/>
<defs>
<linearGradient id="paint0_linear" x1="67.5" y1="0" x2="67.5" y2="157.357" gradientUnits="userSpaceOnUse">
<stop stop-color="#8CCAFF"/>
<stop offset="1" stop-color="#8CCAFF" stop-opacity="0"/>
</linearGradient>
<linearGradient id="paint1_linear" x1="101.25" y1="0" x2="101.25" y2="157.357" gradientUnits="userSpaceOnUse">
<stop stop-color="#5CB4FF"/>
<stop offset="1" stop-color="#5CB4FF" stop-opacity="0"/>
</linearGradient>
<linearGradient id="paint2_linear" x1="67.5036" y1="11.6462" x2="67.5036" y2="146.095" gradientUnits="userSpaceOnUse">
<stop stop-color="#EBEBEC"/>
<stop offset="1" stop-color="#EBEBEC" stop-opacity="0"/>
</linearGradient>
</defs>
</svg>
