<svg width="87" height="83" viewBox="0 0 87 83" fill="none" xmlns="http://www.w3.org/2000/svg">
<rect x="1.42773" y="0.5" width="84.957" height="81.2993" rx="26.5" fill="url(#paint0_linear)"/>
<rect x="1.42773" y="0.5" width="84.957" height="81.2993" rx="26.5" fill="#E73859"/>
<rect x="1.42773" y="0.5" width="84.957" height="81.2993" rx="26.5" stroke="#D8435D"/>
<path d="M43.6478 36.541C43.5852 38.876 43.3038 41.0266 42.8034 42.9928C42.303 44.8976 41.5838 46.741 40.6456 48.5229C39.7074 50.2434 38.5503 51.9332 37.1743 53.5922C36.327 54.6138 35.4085 55.6471 34.4189 56.692C33.2771 57.8976 31.4861 58.1954 29.9817 57.4925L26.9476 56.0748C25.9031 55.5868 25.6441 54.1775 26.2915 53.2235C26.7293 52.5476 27.1671 51.7488 27.6049 50.8271C28.5215 49.1389 27.3283 47.1907 25.6165 46.3188C24.184 45.5892 22.9079 44.6034 21.7882 43.3615C19.8493 41.1495 18.8799 38.5687 18.8799 35.6194C18.8799 33.8989 19.1926 32.3013 19.8181 30.8266C20.5061 29.3519 21.413 28.0615 22.5388 26.9555C23.6646 25.8495 24.978 24.9893 26.4791 24.3748C27.9802 23.6989 29.6064 23.361 31.3576 23.361C33.0464 23.361 34.6413 23.6989 36.1423 24.3748C37.6434 24.9893 38.9256 25.8802 39.9889 27.0477C41.1147 28.2152 41.9903 29.6284 42.6158 31.2874C43.3038 32.885 43.6478 34.6362 43.6478 36.541ZM73.388 35.6194C73.3255 38.2001 73.044 40.535 72.5436 42.6242C72.0433 44.6519 71.324 46.5874 70.3858 48.4308C69.4477 50.2127 68.2906 51.9332 66.9146 53.5922C66.1326 54.5799 65.2731 55.5785 64.3359 56.588C63.152 57.8633 61.2722 58.1731 59.6957 57.4364L56.727 56.0493C55.6787 55.5595 55.382 54.181 56.0317 53.2235C56.4695 52.5476 56.9073 51.7488 57.3452 50.8271C58.2557 49.1498 57.116 47.1825 55.4088 46.3293C53.9469 45.5986 52.6535 44.6093 51.5285 43.3615C49.5896 41.1495 48.6201 38.5687 48.6201 35.6194C48.6201 33.8989 48.9328 32.3013 49.5583 30.8266C50.2463 29.3519 51.1532 28.0615 52.279 26.9555C53.4048 25.8495 54.7183 24.9893 56.2193 24.3748C57.783 23.6989 59.4092 23.361 61.0979 23.361C62.7866 23.361 64.3815 23.6989 65.8826 24.3748C67.3837 24.9893 68.6658 25.8495 69.7291 26.9555C70.8549 28.0615 71.7306 29.3519 72.356 30.8266C73.044 32.3013 73.388 33.8989 73.388 35.6194Z" fill="white"/>
<defs>
<linearGradient id="paint0_linear" x1="40.0422" y1="-13.6105" x2="40.0422" y2="83.8193" gradientUnits="userSpaceOnUse">
<stop stop-color="white"/>
<stop offset="1" stop-color="white"/>
</linearGradient>
</defs>
</svg>
