<svg width="98" height="91" viewBox="0 0 98 91" fill="none" xmlns="http://www.w3.org/2000/svg">
<rect x="0.478027" width="97.5219" height="90.5561" rx="23" fill="white"/>
<path d="M32.6452 73.7294H38.132V75.4061H30.5451V63.3202H32.6452V73.7294ZM48.8148 73.8373C48.3776 74.4073 47.7716 74.8389 46.9969 75.1322C46.2222 75.4255 45.3423 75.5721 44.3573 75.5721C43.3446 75.5721 42.4481 75.3425 41.6678 74.8832C40.8875 74.4239 40.2843 73.7681 39.8582 72.9159C39.4377 72.0581 39.2191 71.0593 39.2025 69.9193V68.973C39.2025 67.1469 39.6396 65.7219 40.514 64.6981C41.3883 63.6688 42.6086 63.1542 44.1746 63.1542C45.5194 63.1542 46.5874 63.4862 47.3787 64.1503C48.1701 64.8143 48.646 65.7717 48.8065 67.0223H46.7479C46.5155 65.5669 45.6715 64.8392 44.2161 64.8392C43.2754 64.8392 42.5587 65.1796 42.0662 65.8602C41.5793 66.5354 41.3275 67.5287 41.3109 68.8402V69.7699C41.3109 71.0759 41.5848 72.0913 42.1326 72.8163C42.686 73.5357 43.4525 73.8954 44.432 73.8954C45.5055 73.8954 46.2692 73.6519 46.723 73.1649V70.7992H44.2327V69.2054H48.8148V73.8373ZM51.4624 75.4061V63.3202H55.6045C56.9713 63.3202 58.0117 63.5941 58.7256 64.142C59.4394 64.6898 59.7964 65.5061 59.7964 66.5907C59.7964 67.1441 59.647 67.6421 59.3481 68.0848C59.0493 68.5275 58.6121 68.8706 58.0366 69.1141C58.6896 69.2912 59.1932 69.626 59.5473 70.1185C59.9071 70.6055 60.0869 71.1921 60.0869 71.8783C60.0869 73.0127 59.7217 73.8843 58.9912 74.493C58.2663 75.1018 57.2259 75.4061 55.8701 75.4061H51.4624ZM53.5625 69.9525V73.7294H55.895C56.5535 73.7294 57.0682 73.5661 57.439 73.2396C57.8097 72.9131 57.9951 72.4594 57.9951 71.8783C57.9951 70.6221 57.3532 69.9802 56.0693 69.9525H53.5625ZM53.5625 68.4086H55.6211C56.2741 68.4086 56.7832 68.2619 57.1484 67.9686C57.5192 67.6698 57.7046 67.2492 57.7046 66.7069C57.7046 66.1093 57.533 65.6776 57.1899 65.412C56.8524 65.1464 56.3239 65.0135 55.6045 65.0135H53.5625V68.4086ZM71.027 65.0135H67.2584V75.4061H65.1749V65.0135H61.4396V63.3202H71.027V65.0135Z" fill="#31394E"/>
<path d="M51.3029 36.9412C51.3028 36.9411 51.3024 36.9411 51.3022 36.941L50.6621 40.7367L54.7175 39.4303L54.7381 39.3078C53.6911 38.2756 52.5229 37.5071 51.3029 36.9412Z" fill="#734A9A"/>
<path d="M34.6176 51.9451L32.5023 51.5883C32.2824 51.5512 32.1342 51.3429 32.1713 51.123L38.5338 13.3975C38.6694 12.5935 39.431 12.0516 40.2351 12.1872C41.0391 12.3228 41.581 13.0845 41.4454 13.8886L35.0829 51.614C35.0458 51.834 34.8375 51.9821 34.6176 51.9451Z" fill="#DD8858"/>
<path d="M40.3069 12.2009C40.0209 12.1383 39.7388 12.1638 39.4852 12.2564C39.8832 12.581 40.1009 13.1035 40.0094 13.6461L33.5798 51.7698L34.6179 51.9449C34.8378 51.9819 35.0462 51.8338 35.0832 51.6138L41.4397 13.9241C41.5718 13.1416 41.082 12.3705 40.3069 12.2009Z" fill="#CA6D36"/>
<path d="M38.2029 33.1154L37.6448 36.4247C37.6448 36.4247 48.4009 33.0612 54.7374 39.3075L55.2955 35.9981C48.9592 29.7509 38.2029 33.1154 38.2029 33.1154Z" fill="#BB93DF"/>
<path d="M39.7436 32.7359C38.7794 32.9354 38.2025 33.1157 38.2025 33.1157L37.6443 36.4251C37.6443 36.4251 38.2213 36.2448 39.1854 36.0454L39.7436 32.7359Z" fill="#A285CC"/>
<path d="M54.7173 39.4304L50.6619 40.7368C50.6619 40.7368 52.4812 41.0436 54.1591 42.7398C56.3033 45.34 58.589 46.3874 61.8154 46.6683C64.8334 46.9317 67.2776 46.2021 68.0137 45.9495C68.1538 45.9014 68.2559 45.7808 68.2805 45.6347L68.7996 42.5566C68.7996 42.5566 66.0011 43.6745 62.3736 43.3579C59.1473 43.0771 56.8616 42.0297 54.7173 39.4304Z" fill="#BB93DF"/>
<path d="M55.9696 40.7577C55.5429 40.3682 55.127 39.9278 54.7163 39.4299L50.6609 40.7363C50.6609 40.7363 51.7659 40.9228 53.0478 41.808L55.9696 40.7577Z" fill="#9E7DCC"/>
<path d="M38.762 29.8054L38.2037 33.1157C38.2037 33.1157 48.96 29.7513 55.2963 35.9984L55.8546 32.6881C49.5183 26.441 38.762 29.8054 38.762 29.8054Z" fill="#52DBFF"/>
<path d="M40.3022 29.4255C39.338 29.6251 38.7611 29.8053 38.7611 29.8053L38.2028 33.1156C38.2028 33.1156 38.7797 32.9354 39.7439 32.7357L40.3022 29.4255Z" fill="#2DCEF9"/>
<path d="M55.2749 36.1199L54.7166 39.4302C56.8609 42.0295 59.1467 43.0768 62.373 43.3577C66.0005 43.6743 68.7991 42.5564 68.7991 42.5564L69.3573 39.2461C69.3573 39.2461 66.5588 40.364 62.9312 40.0484C59.705 39.7665 57.4192 38.7192 55.2749 36.1199Z" fill="#52DBFF"/>
<path d="M56.5282 37.4476C56.1015 37.0581 55.6856 36.6177 55.2749 36.1199L54.7166 39.4302C55.1272 39.9279 55.5433 40.3684 55.9699 40.7579L56.5282 37.4476Z" fill="#2DCEF9"/>
<path d="M39.3193 26.495L38.7611 29.8053C38.7611 29.8053 49.5174 26.4408 55.8537 32.688L56.412 29.3777C50.0757 23.1305 39.3193 26.495 39.3193 26.495Z" fill="#00DCAB"/>
<path d="M40.8601 26.1154C39.8959 26.3149 39.3189 26.4952 39.3189 26.4952L38.7606 29.8055C38.7606 29.8055 39.3376 29.6252 40.3018 29.4257L40.8601 26.1154Z" fill="#10C68E"/>
<path d="M55.8337 32.8099L55.2754 36.1202C57.4198 38.7196 59.7055 39.767 62.9317 40.0487C66.5594 40.3644 69.3579 39.2465 69.3579 39.2465L69.9162 35.9362C69.9162 35.9362 67.1175 37.055 63.49 36.7384C60.2638 36.4566 57.9779 35.4102 55.8337 32.8099Z" fill="#00DCAB"/>
<path d="M57.087 34.138C56.6603 33.7484 56.2444 33.3079 55.8337 32.8099L55.2754 36.1202C55.6861 36.618 56.1021 37.0585 56.5288 37.448L57.087 34.138Z" fill="#10C68E"/>
<path d="M39.8784 23.1845L39.3201 26.4948C39.3201 26.4948 50.0765 23.1303 56.4128 29.3775L56.9711 26.0672C50.6347 19.82 39.8784 23.1845 39.8784 23.1845Z" fill="#FFDD00"/>
<path d="M41.4189 22.805C40.4547 23.0045 39.8778 23.1848 39.8778 23.1848L39.3195 26.4951C39.3195 26.4951 39.8964 26.3149 40.8606 26.1153L41.4189 22.805Z" fill="#FFC239"/>
<path d="M56.3914 29.4995L55.8331 32.8098C57.9772 35.4101 60.2631 36.4566 63.4893 36.7383C67.1168 37.0549 69.9155 35.9361 69.9155 35.9361L70.4736 32.6267C70.4736 32.6267 67.6751 33.7446 64.0476 33.428C60.8214 33.1462 58.5355 32.0998 56.3914 29.4995Z" fill="#FFDD00"/>
<path d="M57.6446 30.8276C57.218 30.438 56.802 29.9975 56.3914 29.4995L55.8331 32.8098C56.2437 33.3078 56.6597 33.7483 57.0863 34.1379L57.6446 30.8276Z" fill="#FFC239"/>
<path d="M40.4361 19.8748L39.8778 23.1851C39.8778 23.1851 50.6341 19.8206 56.9704 26.0678L57.5287 22.7575C51.1923 16.5111 40.4361 19.8748 40.4361 19.8748Z" fill="#FF8522"/>
<path d="M41.9768 19.4952C41.0126 19.6947 40.4356 19.8748 40.4356 19.8748L39.8774 23.1851C39.8774 23.1851 40.4543 23.0049 41.4185 22.8053L41.9768 19.4952Z" fill="#FF7224"/>
<path d="M56.9502 26.1891L56.3919 29.4994C58.5361 32.0996 60.822 33.1461 64.0482 33.4279C67.6757 33.7445 70.4742 32.6266 70.4742 32.6266L71.0325 29.3163C71.0325 29.3163 68.234 30.4342 64.6065 30.1176C61.3801 29.8367 59.0944 28.7893 56.9502 26.1891Z" fill="#FF8522"/>
<path d="M58.2034 27.5172C57.7768 27.1276 57.3609 26.687 56.9502 26.1891L56.3919 29.4994C56.8025 29.9974 57.2185 30.4379 57.6452 30.8274L58.2034 27.5172Z" fill="#FF7224"/>
<path d="M40.9939 16.5651L40.4358 19.8745C40.4358 19.8745 51.1919 16.5108 57.5284 22.7572L58.0512 19.6575C58.0733 19.5263 58.0301 19.3916 57.9337 19.2998C51.5788 13.2542 40.9939 16.5651 40.9939 16.5651Z" fill="#FA496E"/>
<path d="M42.5356 16.1856C41.5714 16.3851 40.9945 16.5654 40.9945 16.5654L40.4363 19.8748C40.4363 19.8748 41.0133 19.6946 41.9774 19.4951L42.5356 16.1856Z" fill="#E23760"/>
<path d="M65.1645 26.8076C61.9381 26.5267 59.6524 25.4793 57.5081 22.88L56.9499 26.1894C59.0941 28.7896 61.3798 29.837 64.6062 30.1179C68.2337 30.4345 71.0322 29.3166 71.0322 29.3166L71.4785 26.6705C71.5283 26.3752 71.2514 26.1303 70.9646 26.2165C69.9428 26.5235 67.7669 27.0347 65.1645 26.8076Z" fill="#FA496E"/>
<path d="M58.7614 24.2078C58.3347 23.8183 57.9188 23.3779 57.5081 22.88L56.9499 26.1894C57.3605 26.6874 57.7765 27.1279 58.2032 27.5175L58.7614 24.2078Z" fill="#E23760"/>
</svg>
