<svg width="98" height="84" viewBox="0 0 98 84" fill="none" xmlns="http://www.w3.org/2000/svg">
<path d="M21.6946 37.57L19.8472 42.579L17.9998 37.57C16.0851 32.3776 11.9922 28.2851 6.80019 26.3708L1.79126 24.5234L6.80059 22.676C6.8006 22.676 6.8006 22.676 6.80061 22.676C11.9926 20.7613 16.0851 16.6689 17.9997 11.4772C17.9997 11.4772 17.9997 11.4772 17.9997 11.4772L19.8472 6.46817L21.6946 11.4771C21.6946 11.4772 21.6946 11.4772 21.6946 11.4772C23.609 16.6689 27.7018 20.7613 32.8934 22.676L37.9028 24.5234L32.8938 26.3708C32.8938 26.3708 32.8937 26.3709 32.8937 26.3709C27.7021 28.2852 23.6093 32.378 21.6946 37.57C21.6946 37.57 21.6946 37.57 21.6946 37.57Z" fill="#F7F9FE" stroke="white" stroke-width="2"/>
<path d="M46.2977 44.6533L46.2978 44.6534L46.2977 44.6533ZM33.7961 62.2722L33.7962 62.2722C38.9878 60.3576 43.0806 56.2652 44.9953 51.0732C44.9953 51.0731 44.9953 51.0731 44.9953 51.0731L46.8427 46.0644L48.6901 51.0734C48.6902 51.0734 48.6902 51.0735 48.6902 51.0735C50.6045 56.2652 54.6974 60.3576 59.8893 62.2722L64.8982 64.1194L59.889 65.9671C59.889 65.9671 59.8889 65.9671 59.8889 65.9671C54.6972 67.8815 50.6048 71.9743 48.6902 77.1659L46.8427 82.1752L44.9953 77.1659C43.0806 71.9743 38.9882 67.8818 33.7965 65.9671C33.7965 65.9671 33.7965 65.9671 33.7965 65.9671L28.7871 64.1194L33.7961 62.2722Z" fill="#F7F9FE" stroke="white" stroke-width="2"/>
<path d="M93.353 36.7799L93.353 36.7799L96.5781 37.9692L93.353 39.1586L93.6125 39.8622L93.353 39.1586C89.8051 40.4669 87.0088 43.2633 85.7004 46.8112L85.7004 46.8112L84.5109 50.0369L83.3218 46.8112L83.3217 46.8111C82.0133 43.2636 79.2167 40.467 75.6692 39.1582L75.669 39.1582L72.444 37.9692L75.6688 36.7799C79.2167 35.4715 82.0133 32.6749 83.3217 29.127L83.3217 29.1269L84.5109 25.902L85.7004 29.1273L85.7004 29.1273C87.0088 32.6749 89.8055 35.4715 93.353 36.7799ZM97.4815 37.6361L97.4814 37.6361L97.4815 37.6361ZM71.5408 38.3023L71.5414 38.3021C71.5411 38.3022 71.5409 38.3023 71.5407 38.3023L71.5408 38.3023Z" fill="#F7F9FE" stroke="white" stroke-width="1.5"/>
<path d="M63.4575 8.55682L63.4575 8.55683L65.7664 9.40825L63.4583 10.2598C63.4582 10.2598 63.4582 10.2598 63.4581 10.2598C60.9895 11.1697 59.0439 13.1153 58.1337 15.584L57.2821 17.8924L56.4307 15.5843C56.4307 15.5843 56.4307 15.5843 56.4307 15.5843C55.5205 13.1156 53.5745 11.1697 51.1059 10.2594L48.7975 9.40784L51.1062 8.55649L51.1062 8.55648C53.5745 7.64623 55.5205 5.70032 56.4307 3.23203C56.4307 3.23202 56.4307 3.232 56.4307 3.23198L57.282 0.924337L58.1337 3.23261C59.0436 5.70098 60.9892 7.64657 63.4575 8.55682ZM57.282 18.8165C57.3974 18.8165 57.5008 18.7446 57.5405 18.6364H57.0236C57.0633 18.7446 57.1667 18.8165 57.282 18.8165Z" fill="#F7F9FE" stroke="white"/>
</svg>
