<svg width="100" height="100" viewBox="0 0 100 100" fill="none" xmlns="http://www.w3.org/2000/svg">
<rect width="100" height="100" rx="22" fill="white"/>
<path d="M49.8089 44.188C49.7413 46.7015 49.4366 49.0165 48.895 51.1332C48.3534 53.1836 47.5749 55.168 46.5594 57.0862C45.5439 58.9382 44.2915 60.7572 42.8021 62.5431C41.3127 64.329 39.6202 66.148 37.7246 68L29.3976 64.1305C29.9392 63.6014 30.4808 62.9399 31.0224 62.1462C31.4963 61.4186 31.9702 60.5587 32.4441 59.5666C32.9857 58.5744 33.4934 57.3838 33.9673 55.9948C30.8531 55.3333 28.2467 53.8451 26.148 51.53C24.0493 49.1488 23 46.3708 23 43.1958C23 41.3438 23.3385 39.624 24.0155 38.0366C24.7602 36.4491 25.7418 35.0601 26.9604 33.8695C28.179 32.6789 29.6007 31.7528 31.2255 31.0914C32.8503 30.3638 34.6104 30 36.506 30C38.3339 30 40.0602 30.3638 41.685 31.0914C43.3098 31.7528 44.6976 32.7119 45.8485 33.9687C47.0671 35.2254 48.0149 36.7467 48.6919 38.5326C49.4366 40.2524 49.8089 42.1375 49.8089 44.188ZM82 43.1958C81.9323 45.9739 81.6277 48.4874 81.0861 50.7363C80.5445 52.9191 79.7659 55.0026 78.7504 56.9869C77.7349 58.9051 76.4825 60.7572 74.9931 62.5431C73.5714 64.329 71.9128 66.148 70.0172 68L61.6902 64.1305C62.1641 63.6014 62.6718 62.9399 63.2134 62.1462C63.6873 61.4186 64.1612 60.5587 64.6351 59.5666C65.1767 58.5744 65.7183 57.3838 66.2599 55.9948C63.078 55.3333 60.4378 53.8451 58.3391 51.53C56.2404 49.1488 55.191 46.3708 55.191 43.1958C55.191 41.3438 55.5295 39.624 56.2065 38.0366C56.9512 36.4491 57.9329 35.0601 59.1515 33.8695C60.3701 32.6789 61.7917 31.7528 63.4165 31.0914C65.109 30.3638 66.8692 30 68.6971 30C70.525 30 72.2513 30.3638 73.8761 31.0914C75.5009 31.7528 76.8887 32.6789 78.0396 33.8695C79.2582 35.0601 80.206 36.4491 80.883 38.0366C81.6277 39.624 82 41.3438 82 43.1958Z" fill="url(#paint0_linear)"/>
<defs>
<linearGradient id="paint0_linear" x1="35.2917" y1="30" x2="53.5973" y2="75.475" gradientUnits="userSpaceOnUse">
<stop stop-color="#EB5A74"/>
<stop offset="1" stop-color="#E63050"/>
</linearGradient>
</defs>
</svg>
