<svg width="53" height="53" viewBox="0 0 53 53" fill="none" xmlns="http://www.w3.org/2000/svg">
<path d="M13.5937 16.7627L13.5963 16.7608C13.9092 16.5239 14.3549 16.5856 14.5917 16.8985L17.5131 20.7559C17.6383 20.9213 17.6849 21.1332 17.6407 21.3359C17.5571 21.7194 17.1785 21.9624 16.795 21.8788C16.3002 21.7668 15.7812 21.8798 15.3778 22.1875C14.6259 22.7612 14.4814 23.8358 15.0551 24.5878C15.3605 24.9962 15.832 25.2472 16.3413 25.2726C17.2859 25.3197 18.0898 24.5921 18.137 23.6475C18.147 23.4257 18.26 23.2212 18.4426 23.095C18.7655 22.8718 19.2081 22.9525 19.4313 23.2753L22.3527 27.1326L22.3546 27.1352C22.5915 27.4481 22.5299 27.8937 22.2169 28.1306L18.2988 30.9746C18.6271 31.1752 19.0843 31.5892 19.1722 32.2767C19.3945 34.0154 17.3004 35.1979 16.0097 34.1543C15.7297 33.9012 15.5574 33.6427 15.4533 33.2719L12.2384 35.6725L12.2358 35.6744C11.9229 35.9113 11.4773 35.8496 11.2404 35.5367L3.96869 25.9269L3.96775 25.9257C3.47719 25.2781 3.60447 24.3555 4.25207 23.8649L13.5937 16.7627Z" fill="#1943C2"/>
<path d="M16.8585 39.5801L16.8568 39.5774C16.6388 39.251 16.7268 38.8098 17.0531 38.5919L21.0766 35.9038C21.2491 35.7887 21.4634 35.7547 21.6631 35.8108C22.041 35.9169 22.2612 36.3092 22.1551 36.6871C22.014 37.1744 22.096 37.6992 22.3794 38.1201C22.9076 38.9046 23.9718 39.1125 24.7564 38.5843C25.1821 38.3036 25.4606 37.8478 25.5161 37.3409C25.619 36.4007 24.9402 35.5551 24 35.4522C23.7792 35.4291 23.5818 35.3041 23.4666 35.1143C23.2629 34.7789 23.3696 34.3418 23.7051 34.1381L27.7286 31.45L27.7312 31.4483C28.0576 31.2303 28.4988 31.3182 28.7167 31.6446L31.3239 35.7241C31.5436 35.4083 31.9839 34.9764 32.6754 34.9293C34.4242 34.8103 35.4808 36.9707 34.3626 38.1974C34.0933 38.4619 33.8251 38.6186 33.4488 38.7006L35.655 42.0519L35.6567 42.0546C35.8747 42.381 35.7868 42.8221 35.4604 43.0401L25.4371 49.7305L25.4359 49.7313C24.7604 50.1827 23.8469 50.0011 23.3956 49.3256L16.8585 39.5801Z" fill="#1943C2"/>
<path d="M37.3659 17.4205L37.3672 17.4234C37.539 17.7763 37.392 18.2015 37.0392 18.3732L32.6886 20.4914C32.502 20.582 32.2851 20.5867 32.0949 20.5041C31.7348 20.3477 31.5698 19.9292 31.7262 19.5691C31.932 19.1054 31.9218 18.5743 31.6981 18.119C31.2811 17.2701 30.2549 16.92 29.4059 17.337C28.9461 17.5575 28.6084 17.9713 28.4848 18.466C28.2554 19.3836 28.8133 20.3134 29.7309 20.5427C29.9466 20.5956 30.1252 20.7461 30.2136 20.9497C30.37 21.3097 30.205 21.7283 29.8451 21.8847L25.4945 24.0028L25.4916 24.0042C25.1387 24.1759 24.7135 24.029 24.5418 23.6761L22.5114 19.281C22.251 19.5641 21.7562 19.9324 21.0647 19.8853C19.3159 19.7663 18.5618 17.4826 19.8359 16.4188C20.1385 16.1931 20.4255 16.0743 20.8094 16.044L19.0777 12.4247L19.0763 12.4218C18.9046 12.0689 19.0515 11.6437 19.4044 11.472L30.2417 6.20137L30.2431 6.20068C30.9735 5.84499 31.8539 6.14872 32.2096 6.87914L37.3659 17.4205Z" fill="#1943C2"/>
</svg>
