<svg width="39" height="31" viewBox="0 0 39 31" fill="none" xmlns="http://www.w3.org/2000/svg">
<path d="M17.1599 12.5818L17.1604 12.5826C17.7667 13.3973 18.1 14.4319 18.1 15.5914C18.1 17.1787 17.1691 19.0591 15.071 21.1899C13.3715 22.9158 11.3489 24.3408 10.2869 25.041C10.028 25.2108 9.72894 25.3 9.425 25.3C9.12103 25.3 8.82195 25.2108 8.56303 25.0409C7.50059 24.341 5.47869 22.916 3.77913 21.19C1.68085 19.0582 0.75 17.1787 0.75 15.5914C0.75 14.4319 1.08333 13.3973 1.68956 12.5826L1.69014 12.5818C2.26553 11.8064 3.07553 11.2555 3.98763 11.0129C4.89945 10.7705 5.8643 10.8491 6.7284 11.2374L6.72839 11.2374L6.73359 11.2397C7.51014 11.5815 8.22507 12.1708 8.81884 12.9857L9.42426 13.8166L10.0306 12.9864C10.6245 12.1734 11.34 11.5833 12.1178 11.2391L12.1178 11.2391L12.1216 11.2374C12.9857 10.8491 13.9505 10.7705 14.8624 11.0129C15.7745 11.2555 16.5845 11.8064 17.1599 12.5818Z" fill="#204BC7" stroke="#FCFCFE" stroke-width="1.5"/>
<path d="M36.8644 11.4173L36.8638 11.4165C36.0109 10.2883 34.8067 9.48241 33.4455 9.1271C32.0843 8.77181 30.644 8.8874 29.3556 9.45556L29.3519 9.45722C28.1948 9.9599 27.1428 10.8161 26.2768 11.9799L25.6744 12.7894L25.0729 11.9792C24.207 10.8127 23.1555 9.95721 21.9997 9.45781L21.9946 9.45558L21.9946 9.45556C20.7062 8.8874 19.2659 8.77181 17.9047 9.1271C16.5435 9.48241 15.3393 10.2883 14.4864 11.4165L14.4858 11.4173C13.5872 12.6027 13.1001 14.099 13.1001 15.7611C13.1001 18.0711 14.477 20.7479 17.4668 23.7295L36.8644 11.4173ZM36.8644 11.4173C37.763 12.6027 38.2501 14.099 38.2501 15.7611C38.2501 18.0712 36.8731 20.7492 33.8834 23.7295C31.4585 26.1468 28.578 28.138 27.0695 29.1142C26.6528 29.3827 26.1689 29.525 25.6751 29.525C25.1815 29.525 24.6978 29.3828 24.2812 29.1146M36.8644 11.4173L24.2812 29.1146M24.2812 29.1146C22.7722 28.1388 19.8923 26.1473 17.4669 23.7296L24.2812 29.1146Z" fill="#204BC7" stroke="#FAFAFC" stroke-width="1.5"/>
<path d="M26.759 20.7922V22.6194C26.759 23.1178 26.3907 23.45 25.8382 23.45C25.2857 23.45 24.9173 23.1178 24.9173 22.6194V20.7922C23.8123 20.46 23.0757 19.5464 23.0757 18.4666C23.0757 17.0547 24.2728 15.975 25.8382 15.975C27.4036 15.975 28.6007 17.0547 28.6007 18.4666C28.6007 19.5464 27.864 20.46 26.759 20.7922Z" fill="#FAFAFD"/>
<path d="M32.4996 5.43812V8.45H30.8491V5.43812C30.8491 2.50153 28.7306 1.50594 25.5121 1.50594C22.2937 1.50594 20.5001 2.50153 20.5001 5.43812V8.45H18.8496V5.43812C18.8496 1.67327 21.3859 0 25.5121 0C29.6383 0 32.4996 1.67327 32.4996 5.43812Z" fill="#204BC7"/>
</svg>
