<svg width="81" height="73" viewBox="0 0 81 73" fill="none" xmlns="http://www.w3.org/2000/svg">
<path d="M3.51112 17.1032C13.7881 12.4018 33.8722 5.05244 39.0945 3.35705C39.92 3.08906 40.7542 3.16134 41.5631 3.47591L76.8112 17.1835C77.8823 17.6001 77.9258 19.0996 76.8805 19.5775L43.8587 34.6731C42.3138 35.3794 40.5419 35.3977 38.9827 34.7234L3.56176 19.4063C2.54772 18.9678 2.50647 17.5628 3.51112 17.1032Z" fill="#F7F9FE" stroke="#F7F9FE" stroke-width="5"/>
<path d="M3.18359 30.364L36.2905 45.4985C39.5454 46.9865 43.2945 46.944 46.5149 45.3826L77.4908 30.364" stroke="#F7F9FE" stroke-width="5.2" stroke-linecap="round"/>
<path d="M3.18359 41.848L36.2905 56.9826C39.5454 58.4706 43.2945 58.428 46.5149 56.8667L77.4908 41.848" stroke="#F7F9FE" stroke-width="5.2" stroke-linecap="round"/>
<path d="M3.18359 53.3321L36.2905 68.4667C39.5454 69.9546 43.2945 69.9121 46.5149 68.3507L77.4908 53.3321" stroke="#F7F9FE" stroke-width="5.2" stroke-linecap="round"/>
</svg>
