<svg width="42" height="43" viewBox="0 0 42 43" fill="none" xmlns="http://www.w3.org/2000/svg">
<path d="M29.02 14.9323C29.02 22.622 22.7524 28.8646 15.01 28.8646C14.4814 28.8646 13.6688 28.89 12.7183 28.9198C12.5321 28.9256 12.3405 28.9316 12.1448 28.9376C10.9376 28.9746 9.54543 29.0129 8.16889 29.0191C6.78909 29.0254 5.44362 28.9993 4.32701 28.9103C4.09484 28.8918 3.87523 28.8708 3.66943 28.8472C3.70252 28.8288 3.73602 28.8102 3.76991 28.7913L3.81997 28.7635C4.36433 28.4608 5.01511 28.0976 5.46398 27.7437C5.67048 27.5809 5.96532 27.3223 6.13127 26.9742C6.22418 26.7793 6.30217 26.5027 6.24434 26.1832C6.18494 25.8549 6.00547 25.6092 5.8143 25.4437C2.86215 22.8873 1 19.1261 1 14.9323C1 7.24259 7.26759 1 15.01 1C22.7524 1 29.02 7.24259 29.02 14.9323Z" fill="#204AC6" stroke="#F9F9FC" stroke-width="2"/>
<path d="M16.8001 30.02C16.8001 36.4486 22.0115 41.66 28.4401 41.66C28.8881 41.66 29.5758 41.6816 30.3761 41.7068C30.5327 41.7118 30.6936 41.7168 30.8579 41.7219C31.8743 41.7532 33.0448 41.7855 34.2018 41.7908C35.362 41.7961 36.4897 41.774 37.4233 41.6993C37.4448 41.6975 37.4662 41.6958 37.4874 41.694C37.1023 41.4755 36.6874 41.2281 36.3791 40.9837C36.2017 40.8431 35.9292 40.6058 35.7735 40.2776C35.6859 40.0928 35.6105 39.8266 35.6662 39.5173C35.7234 39.1992 35.8965 38.9618 36.0785 38.8034C38.5319 36.6679 40.0801 33.5253 40.0801 30.02C40.0801 23.5914 34.8687 18.38 28.4401 18.38C22.0115 18.38 16.8001 23.5914 16.8001 30.02Z" fill="#204AC6" stroke="#F9F9FC" stroke-width="2" stroke-linecap="round" stroke-linejoin="round"/>
<path d="M11.4551 11.6787C11.4551 9.28234 13.3013 7.7418 15.1477 7.91297C17.0872 8.09278 18.9243 9.62468 18.5047 12.1922C18.0851 14.7598 15.1477 14.7598 15.1477 16.3003V16.985" stroke="#F7F8FC" stroke-width="1.8" stroke-linecap="round" stroke-linejoin="round"/>
<circle cx="15.2072" cy="19.5524" r="0.9875" fill="#F7F8FC"/>
<circle cx="23.4326" cy="29.5864" r="1.14642" fill="#F7F8FB"/>
<circle cx="28.2099" cy="29.5864" r="1.14642" fill="#F7F8FB"/>
<circle cx="32.9863" cy="29.5864" r="1.14642" fill="#F7F8FB"/>
</svg>
