<?xml version="1.0" encoding="utf-8"?>
<!-- Generator: Adobe Illustrator 24.0.2, SVG Export Plug-In . SVG Version: 6.00 Build 0)  -->
<svg version="1.1" id="Слой_1" xmlns="http://www.w3.org/2000/svg" xmlns:xlink="http://www.w3.org/1999/xlink" x="0px" y="0px"
	 viewBox="0 0 345.2 101.2" style="enable-background:new 0 0 345.2 101.2;" xml:space="preserve">
<style type="text/css">
	.st0{fill:url(#SVGID_1_);stroke:#EEF4FC;}
	.st1{fill:url(#SVGID_2_);filter:url(#Adobe_OpacityMaskFilter);stroke:#EEF4FC;}
	.st2{mask:url(#mask0_1_);}
	.st3{fill:none;stroke:#C6C7D1;stroke-width:3;}
	.st4{fill:url(#SVGID_3_);stroke:url(#SVGID_4_);stroke-width:5;}
	.st5{fill:none;stroke:#E73656;stroke-width:3;}
	.st6{fill:none;stroke:#FFFFFF;stroke-width:3;stroke-linecap:round;stroke-linejoin:round;}
	.st7{fill:none;stroke:url(#SVGID_5_);stroke-width:3;}
	.st8{fill:none;stroke:url(#SVGID_6_);stroke-width:3;}
	.st9{fill:#31394E;}
</style>
<linearGradient id="SVGID_1_" gradientUnits="userSpaceOnUse" x1="172.6683" y1="122.7626" x2="172.6683" y2="3.1944" gradientTransform="matrix(1 0 0 -1 0 106.1188)">
	<stop  offset="0" style="stop-color:#FFFFFF"/>
	<stop  offset="1" style="stop-color:#FFFFFF"/>
</linearGradient>
<path class="st0" d="M0.7,82.1v-63C0.7,8.8,9,0.6,19.2,0.6l307,0c10.2,0,18.5,8.3,18.5,18.5v63c0,10.2-8.3,18.5-18.5,18.5h-307
	C9,100.6,0.7,92.3,0.7,82.1z"/>
<defs>
	<filter id="Adobe_OpacityMaskFilter" filterUnits="userSpaceOnUse" x="24.1" y="22.1" width="302.2" height="63.9">
		<feColorMatrix  type="matrix" values="1 0 0 0 0  0 1 0 0 0  0 0 1 0 0  0 0 0 1 0"/>
	</filter>
</defs>
<mask maskUnits="userSpaceOnUse" x="24.1" y="22.1" width="302.2" height="63.9" id="mask0_1_">
	
		<linearGradient id="SVGID_2_" gradientUnits="userSpaceOnUse" x1="173.778" y1="129.6849" x2="173.778" y2="10.1034" gradientTransform="matrix(1 0 0 -1 0 106.1188)">
		<stop  offset="0" style="stop-color:#FFFFFF"/>
		<stop  offset="1" style="stop-color:#FFFFFF"/>
	</linearGradient>
	<path class="st1" d="M15.5,78.1v-69c0-8.6,6.9-15.5,15.5-15.5l285.6,0c8.6,0,15.5,6.9,15.5,15.5v69c0,8.6-6.9,15.5-15.5,15.5H31
		C22.4,93.6,15.5,86.7,15.5,78.1z"/>
</mask>
<g class="st2">
	<circle class="st3" cx="168.1" cy="71.5" r="13"/>
	
		<linearGradient id="SVGID_3_" gradientUnits="userSpaceOnUse" x1="125.1313" y1="49.1544" x2="125.1313" y2="20.0794" gradientTransform="matrix(1 0 0 -1 0 106.1188)">
		<stop  offset="0" style="stop-color:#3F60C7"/>
		<stop  offset="1" style="stop-color:#1841C1"/>
	</linearGradient>
	
		<linearGradient id="SVGID_4_" gradientUnits="userSpaceOnUse" x1="125.1313" y1="49.1544" x2="125.1313" y2="20.0792" gradientTransform="matrix(1 0 0 -1 0 106.1188)">
		<stop  offset="0" style="stop-color:#3F60C7"/>
		<stop  offset="1" style="stop-color:#1841C1"/>
	</linearGradient>
	<circle class="st4" cx="125.1" cy="71.5" r="12"/>
	<circle class="st5" cx="211.7" cy="71.5" r="13"/>
	<circle class="st5" cx="257.4" cy="71.5" r="13"/>
	<path class="st6" d="M119.6,71.8l4,3.8l7-8.3"/>
	
		<linearGradient id="SVGID_5_" gradientUnits="userSpaceOnUse" x1="81.5186" y1="49.1544" x2="81.5186" y2="20.0792" gradientTransform="matrix(1 0 0 -1 0 106.1188)">
		<stop  offset="0" style="stop-color:#3F60C7"/>
		<stop  offset="1" style="stop-color:#1841C1"/>
	</linearGradient>
	<circle class="st7" cx="81.5" cy="71.5" r="13"/>
	
		<linearGradient id="SVGID_6_" gradientUnits="userSpaceOnUse" x1="38.5981" y1="49.1544" x2="38.5981" y2="20.0792" gradientTransform="matrix(1 0 0 -1 0 106.1188)">
		<stop  offset="0" style="stop-color:#3F60C7"/>
		<stop  offset="1" style="stop-color:#1841C1"/>
	</linearGradient>
	<circle class="st8" cx="38.6" cy="71.5" r="13"/>
	<circle class="st5" cx="297.5" cy="71.5" r="13"/>
	<path class="st9" d="M35.2,38.1h-3.1V23.1h3.1V38.1z M44.7,38.1v-8.9h-1.7V27h1.7V26c0-1.2,0.4-2.2,1.1-2.9c0.7-0.7,1.7-1,3-1
		c0.4,0,0.9,0.1,1.5,0.2l0,2.3c-0.2-0.1-0.5-0.1-0.9-0.1c-1.1,0-1.7,0.5-1.7,1.6V27h2.2v2.2h-2.2v8.9H44.7z M51.4,32.4
		c0-1.1,0.2-2.1,0.6-2.9c0.4-0.9,1-1.5,1.8-2c0.8-0.5,1.7-0.7,2.8-0.7c1.5,0,2.7,0.5,3.7,1.4c1,0.9,1.5,2.2,1.6,3.7l0,0.8
		c0,1.7-0.5,3.1-1.4,4.1c-1,1-2.2,1.5-3.8,1.5c-1.6,0-2.9-0.5-3.8-1.5c-1-1-1.4-2.4-1.4-4.2V32.4z M54.4,32.6c0,1.1,0.2,1.9,0.6,2.4
		c0.4,0.6,1,0.8,1.7,0.8c0.7,0,1.3-0.3,1.7-0.8c0.4-0.6,0.6-1.4,0.6-2.6c0-1-0.2-1.8-0.6-2.4c-0.4-0.6-1-0.9-1.7-0.9
		c-0.7,0-1.3,0.3-1.7,0.9C54.6,30.6,54.4,31.4,54.4,32.6z M68.8,35.9c0.5,0,1-0.2,1.3-0.5c0.3-0.3,0.5-0.7,0.5-1.2h2.8
		c0,0.8-0.2,1.4-0.6,2.1c-0.4,0.6-1,1.1-1.7,1.5c-0.7,0.3-1.5,0.5-2.3,0.5c-1.6,0-2.8-0.5-3.8-1.5c-0.9-1-1.4-2.4-1.4-4.2v-0.2
		c0-1.7,0.5-3.1,1.4-4.1c0.9-1,2.2-1.5,3.7-1.5c1.4,0,2.5,0.4,3.3,1.2c0.8,0.8,1.3,1.8,1.3,3.1h-2.8c0-0.6-0.2-1-0.5-1.4
		c-0.3-0.4-0.8-0.5-1.4-0.5c-0.7,0-1.2,0.3-1.6,0.8c-0.3,0.5-0.5,1.3-0.5,2.4v0.3c0,1.1,0.2,2,0.5,2.5
		C67.5,35.6,68.1,35.9,68.8,35.9z M82.2,36.9c-0.7,0.9-1.7,1.3-3,1.3c-1.2,0-2.1-0.3-2.7-1c-0.6-0.7-0.9-1.7-1-3V27h3v7.2
		c0,1.2,0.5,1.7,1.6,1.7c1,0,1.7-0.3,2.1-1V27h3v11.1h-2.8L82.2,36.9z M93.7,35c0-0.4-0.2-0.6-0.5-0.9c-0.4-0.2-0.9-0.4-1.7-0.6
		c-2.6-0.6-4-1.7-4-3.4c0-1,0.4-1.8,1.2-2.5c0.8-0.7,1.9-1,3.2-1c1.4,0,2.5,0.3,3.4,1c0.8,0.7,1.3,1.5,1.3,2.6h-3
		c0-0.4-0.1-0.8-0.4-1c-0.3-0.3-0.7-0.4-1.3-0.4c-0.5,0-0.9,0.1-1.2,0.3c-0.3,0.2-0.4,0.5-0.4,0.9c0,0.3,0.2,0.6,0.5,0.8
		c0.3,0.2,0.8,0.4,1.6,0.5c0.7,0.1,1.4,0.3,1.9,0.5c1.6,0.6,2.3,1.6,2.3,3c0,1-0.4,1.8-1.3,2.5c-0.9,0.6-2,0.9-3.4,0.9
		c-0.9,0-1.8-0.2-2.5-0.5c-0.7-0.3-1.3-0.8-1.7-1.4c-0.4-0.6-0.6-1.2-0.6-1.9h2.8c0,0.5,0.2,0.9,0.6,1.2c0.4,0.3,0.8,0.4,1.5,0.4
		c0.6,0,1-0.1,1.3-0.3C93.6,35.6,93.7,35.3,93.7,35z M104.1,32.4c0-1.1,0.2-2.1,0.6-2.9c0.4-0.9,1-1.5,1.8-2
		c0.8-0.5,1.7-0.7,2.8-0.7c1.5,0,2.7,0.5,3.7,1.4c1,0.9,1.5,2.2,1.6,3.7l0,0.8c0,1.7-0.5,3.1-1.4,4.1c-1,1-2.2,1.5-3.8,1.5
		c-1.6,0-2.9-0.5-3.8-1.5c-1-1-1.4-2.4-1.4-4.2V32.4z M107.1,32.6c0,1.1,0.2,1.9,0.6,2.4c0.4,0.6,1,0.8,1.7,0.8
		c0.7,0,1.3-0.3,1.7-0.8c0.4-0.6,0.6-1.4,0.6-2.6c0-1-0.2-1.8-0.6-2.4c-0.4-0.6-1-0.9-1.7-0.9c-0.7,0-1.3,0.3-1.7,0.9
		C107.3,30.6,107.1,31.4,107.1,32.6z M119.6,27l0.1,1.3c0.8-1,1.9-1.5,3.2-1.5c1.2,0,2.1,0.3,2.6,1c0.6,0.7,0.9,1.7,0.9,3.1v7.2h-3
		V31c0-0.6-0.1-1.1-0.4-1.4c-0.3-0.3-0.7-0.4-1.4-0.4c-0.8,0-1.5,0.4-1.9,1.1v7.8h-3V27H119.6z M138.3,24.2V27h1.9v2.2h-1.9v5.5
		c0,0.4,0.1,0.7,0.2,0.9c0.2,0.2,0.5,0.3,0.9,0.3c0.3,0,0.6,0,0.9-0.1V38c-0.6,0.2-1.2,0.3-1.8,0.3c-2.1,0-3.1-1-3.2-3.1v-6h-1.6V27
		h1.6v-2.7H138.3z M145.1,28.2c0.8-0.9,1.8-1.4,3-1.4c2.4,0,3.6,1.4,3.7,4.2v7.1h-3v-7c0-0.6-0.1-1.1-0.4-1.4
		c-0.3-0.3-0.7-0.5-1.4-0.5c-0.9,0-1.5,0.3-1.9,1v7.9h-3V22.3h3V28.2z M159.5,38.3c-1.6,0-3-0.5-4-1.5c-1-1-1.5-2.3-1.5-4v-0.3
		c0-1.1,0.2-2.1,0.6-3c0.4-0.9,1-1.6,1.8-2c0.8-0.5,1.7-0.7,2.7-0.7c1.5,0,2.7,0.5,3.6,1.4c0.9,1,1.3,2.3,1.3,4.1v1.2H157
		c0.1,0.7,0.4,1.3,0.9,1.7c0.5,0.4,1.1,0.7,1.8,0.7c1.1,0,2-0.4,2.7-1.2l1.5,1.6c-0.4,0.6-1,1.1-1.8,1.5
		C161.3,38.1,160.4,38.3,159.5,38.3z M159.2,29.2c-0.6,0-1.1,0.2-1.4,0.6c-0.4,0.4-0.6,1-0.7,1.7h4.1v-0.2c0-0.7-0.2-1.2-0.5-1.5
		C160.3,29.3,159.8,29.2,159.2,29.2z M181.8,32.6c0,1.8-0.4,3.2-1.1,4.2c-0.8,1-1.8,1.5-3.2,1.5c-1.2,0-2.2-0.5-2.9-1.4l-0.1,1.2
		h-2.7V22.3h3V28c0.7-0.8,1.6-1.2,2.7-1.2c1.4,0,2.4,0.5,3.2,1.5c0.8,1,1.2,2.4,1.2,4.2V32.6z M178.9,32.4c0-1.1-0.2-1.9-0.5-2.5
		c-0.4-0.5-0.9-0.8-1.6-0.8c-0.9,0-1.6,0.4-1.9,1.2v4.4c0.4,0.8,1,1.2,2,1.2c1,0,1.6-0.5,1.9-1.4C178.8,34,178.9,33.3,178.9,32.4z
		 M187.2,38.1h-3V27h3V38.1z M184.1,24.1c0-0.4,0.1-0.8,0.4-1.1c0.3-0.3,0.7-0.4,1.2-0.4c0.5,0,0.9,0.1,1.2,0.4
		c0.3,0.3,0.5,0.7,0.5,1.1c0,0.5-0.2,0.8-0.5,1.1c-0.3,0.3-0.7,0.4-1.2,0.4c-0.5,0-0.9-0.1-1.2-0.4
		C184.2,24.9,184.1,24.5,184.1,24.1z M189.6,32.4c0-1.7,0.4-3.1,1.2-4.1c0.8-1,1.9-1.6,3.3-1.6c1.2,0,2.2,0.4,2.8,1.3l0.1-1h2.7
		v10.7c0,1-0.2,1.8-0.7,2.5c-0.4,0.7-1.1,1.3-1.9,1.6c-0.8,0.4-1.7,0.6-2.8,0.6c-0.8,0-1.6-0.2-2.4-0.5c-0.8-0.3-1.4-0.7-1.8-1.3
		l1.3-1.8c0.7,0.8,1.6,1.2,2.7,1.2c0.8,0,1.4-0.2,1.8-0.6c0.4-0.4,0.7-1,0.7-1.8v-0.6c-0.7,0.8-1.6,1.2-2.7,1.2
		c-1.3,0-2.4-0.5-3.2-1.6c-0.8-1-1.2-2.4-1.2-4.2V32.4z M192.6,32.6c0,1,0.2,1.8,0.6,2.4c0.4,0.6,1,0.9,1.7,0.9c0.9,0,1.5-0.3,1.9-1
		v-4.7c-0.4-0.7-1-1-1.9-1c-0.7,0-1.3,0.3-1.7,0.9C192.8,30.6,192.6,31.5,192.6,32.6z M218.1,32.6c0,1.7-0.4,3.1-1.2,4.1
		c-0.8,1-1.8,1.5-3.1,1.5c-1.1,0-2-0.4-2.7-1.2v5.2h-3V27h2.7l0.1,1.1c0.7-0.9,1.7-1.3,2.8-1.3c1.4,0,2.4,0.5,3.2,1.5
		c0.8,1,1.1,2.4,1.1,4.2V32.6z M215.2,32.4c0-1-0.2-1.8-0.6-2.4c-0.4-0.6-0.9-0.8-1.6-0.8c-0.9,0-1.6,0.4-1.9,1.1v4.5
		c0.4,0.7,1,1.1,1.9,1.1C214.5,35.9,215.2,34.7,215.2,32.4z M223.5,38.1h-3V27h3V38.1z M220.4,24.1c0-0.4,0.1-0.8,0.4-1.1
		c0.3-0.3,0.7-0.4,1.2-0.4c0.5,0,0.9,0.1,1.2,0.4c0.3,0.3,0.5,0.7,0.5,1.1c0,0.5-0.2,0.8-0.5,1.1c-0.3,0.3-0.7,0.4-1.2,0.4
		c-0.5,0-0.9-0.1-1.2-0.4C220.5,24.9,220.4,24.5,220.4,24.1z M231,35.9c0.5,0,1-0.2,1.3-0.5c0.3-0.3,0.5-0.7,0.5-1.2h2.8
		c0,0.8-0.2,1.4-0.6,2.1c-0.4,0.6-1,1.1-1.7,1.5c-0.7,0.3-1.5,0.5-2.3,0.5c-1.6,0-2.8-0.5-3.8-1.5c-0.9-1-1.4-2.4-1.4-4.2v-0.2
		c0-1.7,0.5-3.1,1.4-4.1c0.9-1,2.2-1.5,3.7-1.5c1.4,0,2.5,0.4,3.3,1.2c0.8,0.8,1.3,1.8,1.3,3.1h-2.8c0-0.6-0.2-1-0.5-1.4
		c-0.3-0.4-0.8-0.5-1.4-0.5c-0.7,0-1.2,0.3-1.6,0.8c-0.3,0.5-0.5,1.3-0.5,2.4v0.3c0,1.1,0.2,2,0.5,2.5
		C229.8,35.6,230.3,35.9,231,35.9z M241.3,24.2V27h1.9v2.2h-1.9v5.5c0,0.4,0.1,0.7,0.2,0.9c0.2,0.2,0.5,0.3,0.9,0.3
		c0.3,0,0.6,0,0.9-0.1V38c-0.6,0.2-1.2,0.3-1.8,0.3c-2.1,0-3.1-1-3.2-3.1v-6h-1.6V27h1.6v-2.7H241.3z M251.9,36.9
		c-0.7,0.9-1.7,1.3-3,1.3c-1.2,0-2.1-0.3-2.7-1c-0.6-0.7-0.9-1.7-1-3V27h3v7.2c0,1.2,0.5,1.7,1.6,1.7c1,0,1.7-0.3,2.1-1V27h3v11.1
		H252L251.9,36.9z M263.7,29.7c-0.4-0.1-0.8-0.1-1.1-0.1c-1.1,0-1.9,0.4-2.2,1.1v7.3h-3V27h2.8l0.1,1.3c0.6-1,1.4-1.5,2.5-1.5
		c0.3,0,0.6,0,0.9,0.1L263.7,29.7z M270.4,38.3c-1.6,0-3-0.5-4-1.5c-1-1-1.5-2.3-1.5-4v-0.3c0-1.1,0.2-2.1,0.6-3
		c0.4-0.9,1-1.6,1.8-2c0.8-0.5,1.7-0.7,2.7-0.7c1.5,0,2.7,0.5,3.6,1.4c0.9,1,1.3,2.3,1.3,4.1v1.2h-7.1c0.1,0.7,0.4,1.3,0.9,1.7
		c0.5,0.4,1.1,0.7,1.8,0.7c1.1,0,2-0.4,2.7-1.2l1.5,1.6c-0.4,0.6-1,1.1-1.8,1.5C272.2,38.1,271.4,38.3,270.4,38.3z M270.1,29.2
		c-0.6,0-1.1,0.2-1.4,0.6c-0.4,0.4-0.6,1-0.7,1.7h4.1v-0.2c0-0.7-0.2-1.2-0.5-1.5C271.2,29.3,270.7,29.2,270.1,29.2z M283.5,38.1
		v-8.9h-1.6V27h1.6v-0.5c0-1.4,0.4-2.5,1.3-3.2c0.8-0.8,2-1.1,3.6-1.1c0.9,0,2,0.2,3.4,0.6l-0.4,2.5c-0.7-0.2-1.2-0.3-1.6-0.4
		c-0.4-0.1-0.8-0.1-1.2-0.1c-1.4,0-2.1,0.6-2.1,1.8V27h2.2v2.2h-2.2v8.9H283.5z M293.1,38.1h-3V27h3V38.1z M302.2,29.7
		c-0.4-0.1-0.8-0.1-1.1-0.1c-1.1,0-1.9,0.4-2.2,1.1v7.3h-3V27h2.8l0.1,1.3c0.6-1,1.4-1.5,2.5-1.5c0.3,0,0.6,0,0.9,0.1L302.2,29.7z
		 M310.1,35c0-0.4-0.2-0.6-0.5-0.9c-0.4-0.2-0.9-0.4-1.7-0.6c-2.6-0.6-4-1.7-4-3.4c0-1,0.4-1.8,1.2-2.5c0.8-0.7,1.9-1,3.2-1
		c1.4,0,2.5,0.3,3.4,1c0.8,0.7,1.3,1.5,1.3,2.6h-3c0-0.4-0.1-0.8-0.4-1c-0.3-0.3-0.7-0.4-1.3-0.4c-0.5,0-0.9,0.1-1.2,0.3
		c-0.3,0.2-0.4,0.5-0.4,0.9c0,0.3,0.2,0.6,0.5,0.8c0.3,0.2,0.8,0.4,1.6,0.5c0.7,0.1,1.4,0.3,1.9,0.5c1.6,0.6,2.3,1.6,2.3,3
		c0,1-0.4,1.8-1.3,2.5c-0.9,0.6-2,0.9-3.4,0.9c-0.9,0-1.8-0.2-2.5-0.5c-0.7-0.3-1.3-0.8-1.7-1.4c-0.4-0.6-0.6-1.2-0.6-1.9h2.8
		c0,0.5,0.2,0.9,0.6,1.2c0.4,0.3,0.8,0.4,1.5,0.4c0.6,0,1-0.1,1.3-0.3C309.9,35.6,310.1,35.3,310.1,35z M318.8,24.2V27h1.9v2.2h-1.9
		v5.5c0,0.4,0.1,0.7,0.2,0.9c0.2,0.2,0.5,0.3,0.9,0.3c0.3,0,0.6,0,0.9-0.1V38c-0.6,0.2-1.2,0.3-1.8,0.3c-2.1,0-3.1-1-3.2-3.1v-6
		h-1.6V27h1.6v-2.7H318.8z M322.9,36.6c0-0.5,0.2-0.9,0.5-1.1c0.3-0.3,0.7-0.4,1.2-0.4c0.5,0,0.9,0.1,1.2,0.4
		c0.3,0.3,0.5,0.7,0.5,1.1c0,0.5-0.2,0.8-0.5,1.1c-0.3,0.3-0.7,0.4-1.2,0.4c-0.5,0-0.9-0.1-1.2-0.4
		C323.1,37.4,322.9,37.1,322.9,36.6z"/>
</g>
</svg>
