<svg width="111" height="81" viewBox="0 0 111 81" fill="none" xmlns="http://www.w3.org/2000/svg">
<rect width="111" height="81" rx="14" fill="white"/>
<path d="M27.7421 56.8136L31.0234 65.5323L34.2968 56.8136H36.8515V68.1886H34.8828V64.4386L35.0781 59.423L31.7187 68.1886H30.3046L26.9531 59.4308L27.1484 64.4386V68.1886H25.1796V56.8136H27.7421ZM44.3825 68.1886C44.2991 68.0271 44.2262 67.7641 44.1637 67.3995C43.5595 68.0297 42.82 68.3448 41.945 68.3448C41.096 68.3448 40.4033 68.1027 39.8668 67.6183C39.3304 67.1339 39.0621 66.535 39.0621 65.8214C39.0621 64.9204 39.3955 64.2303 40.0621 63.7511C40.734 63.2667 41.6924 63.0245 42.9371 63.0245H44.1012V62.4698C44.1012 62.0323 43.9788 61.6834 43.734 61.423C43.4892 61.1573 43.1168 61.0245 42.6168 61.0245C42.1845 61.0245 41.8304 61.1339 41.5543 61.3527C41.2783 61.5662 41.1403 61.8396 41.1403 62.173H39.2418C39.2418 61.7094 39.3955 61.2771 39.7028 60.8761C40.0101 60.4698 40.4267 60.1521 40.9528 59.923C41.484 59.6938 42.0752 59.5792 42.7262 59.5792C43.7158 59.5792 44.5049 59.8292 45.0934 60.3292C45.6819 60.824 45.984 61.5219 45.9996 62.423V66.2355C45.9996 66.9959 46.1064 67.6027 46.32 68.0558V68.1886H44.3825ZM42.2965 66.8214C42.6715 66.8214 43.0231 66.7303 43.3512 66.548C43.6845 66.3657 43.9345 66.1209 44.1012 65.8136V64.2198H43.0778C42.3746 64.2198 41.846 64.3422 41.4918 64.587C41.1377 64.8318 40.9606 65.1782 40.9606 65.6261C40.9606 65.9907 41.0804 66.2823 41.32 66.5011C41.5648 66.7146 41.8903 66.8214 42.2965 66.8214ZM52.7337 61.4698C52.4837 61.4282 52.2259 61.4073 51.9603 61.4073C51.0905 61.4073 50.5045 61.7407 50.2025 62.4073V68.1886H48.304V59.7355H50.1165L50.1634 60.6808C50.6217 59.9464 51.2571 59.5792 52.0696 59.5792C52.3405 59.5792 52.5644 59.6157 52.7415 59.6886L52.7337 61.4698ZM58.6787 61.4698C58.4287 61.4282 58.1709 61.4073 57.9053 61.4073C57.0355 61.4073 56.4495 61.7407 56.1475 62.4073V68.1886H54.249V59.7355H56.0615L56.1084 60.6808C56.5667 59.9464 57.2021 59.5792 58.0146 59.5792C58.2855 59.5792 58.5094 59.6157 58.6865 59.6886L58.6787 61.4698ZM62.2175 68.1886H60.319V59.7355H62.2175V68.1886ZM60.2018 57.5402C60.2018 57.2485 60.293 57.0063 60.4753 56.8136C60.6628 56.6209 60.9284 56.5245 61.2721 56.5245C61.6159 56.5245 61.8815 56.6209 62.069 56.8136C62.2565 57.0063 62.3503 57.2485 62.3503 57.5402C62.3503 57.8266 62.2565 58.0662 62.069 58.2589C61.8815 58.4464 61.6159 58.5402 61.2721 58.5402C60.9284 58.5402 60.6628 58.4464 60.4753 58.2589C60.293 58.0662 60.2018 57.8266 60.2018 57.5402ZM68.3343 68.3448C67.1312 68.3448 66.1546 67.9672 65.4046 67.212C64.6599 66.4516 64.2875 65.4412 64.2875 64.1808V63.9464C64.2875 63.1027 64.4489 62.3501 64.7718 61.6886C65.1 61.0219 65.5583 60.5037 66.1468 60.1339C66.7354 59.7641 67.3916 59.5792 68.1156 59.5792C69.2666 59.5792 70.1546 59.9464 70.7796 60.6808C71.4099 61.4152 71.725 62.4542 71.725 63.798V64.5636H66.2015C66.2588 65.2615 66.4906 65.8136 66.8968 66.2198C67.3083 66.6261 67.8239 66.8292 68.4437 66.8292C69.3135 66.8292 70.0218 66.4777 70.5687 65.7745L71.5921 66.7511C71.2536 67.2563 70.8005 67.6495 70.2328 67.9308C69.6703 68.2068 69.0375 68.3448 68.3343 68.3448ZM68.1078 61.1027C67.5869 61.1027 67.1651 61.285 66.8421 61.6495C66.5244 62.0141 66.3213 62.5219 66.2328 63.173H69.85V63.0323C69.8083 62.3969 69.639 61.9178 69.3421 61.5948C69.0453 61.2667 68.6338 61.1027 68.1078 61.1027ZM73.17 63.8995C73.17 62.5975 73.472 61.5532 74.0762 60.7667C74.6804 59.9751 75.4903 59.5792 76.5059 59.5792C77.4017 59.5792 78.1257 59.8917 78.6778 60.5167V56.1886H80.5762V68.1886H78.8575L78.7637 67.3136C78.196 68.0011 77.4382 68.3448 76.4903 68.3448C75.5007 68.3448 74.6986 67.9464 74.084 67.1495C73.4746 66.3527 73.17 65.2693 73.17 63.8995ZM75.0684 64.0636C75.0684 64.923 75.2325 65.5948 75.5606 66.0792C75.8939 66.5584 76.3653 66.798 76.9746 66.798C77.7507 66.798 78.3184 66.4516 78.6778 65.7589V62.1495C78.3288 61.4725 77.7663 61.1339 76.9903 61.1339C76.3757 61.1339 75.9017 61.3787 75.5684 61.8683C75.2351 62.3527 75.0684 63.0844 75.0684 64.0636Z" fill="#31394E"/>
<path d="M70.8879 18.3406V38.4193C70.8879 39.011 70.4231 39.4761 69.8311 39.4761H40.171C39.5791 39.4761 39.1143 39.011 39.1143 38.4193V18.3406C39.1143 17.7487 39.5791 17.2839 40.171 17.2839C40.763 17.2839 41.2278 17.7487 41.2278 18.3406C41.2278 19.5031 42.1789 20.4542 43.3413 20.4542C44.5038 20.4542 45.4549 19.5031 45.4549 18.3406V17.2839C45.4549 14.3673 47.8926 12 50.8092 12H59.2634C62.18 12 64.5472 14.3673 64.5472 17.2839V18.3406C64.5472 19.5031 65.4983 20.4542 66.6608 20.4542C67.8232 20.4542 68.7743 19.5031 68.7743 18.3406C68.7743 17.7487 69.2391 17.2839 69.8311 17.2839C70.4231 17.2839 70.8879 17.7487 70.8879 18.3406Z" fill="#FF637B"/>
<path d="M70.8877 18.3406V38.4193C70.8877 39.011 70.4229 39.4761 69.8309 39.4761H55.0361V12H59.2632C62.1798 12 64.5471 14.3673 64.5471 17.2839V18.3406C64.5471 19.5031 65.4982 20.4542 66.6606 20.4542C67.8231 20.4542 68.7742 19.5031 68.7742 18.3406C68.7742 17.7487 69.239 17.2839 69.8309 17.2839C70.4229 17.2839 70.8877 17.7487 70.8877 18.3406Z" fill="#E63950"/>
<path d="M42.2843 48.0714C41.7003 48.0714 41.2275 47.5987 41.2275 47.0147V44.9011C41.2275 44.3172 41.7003 43.8444 42.2843 43.8444C42.8683 43.8444 43.3411 44.3172 43.3411 44.9011V47.0147C43.3411 47.5987 42.8683 48.0714 42.2843 48.0714Z" fill="#8E1E2C"/>
<path d="M67.7169 48.0714C67.133 48.0714 66.6602 47.5987 66.6602 47.0147V44.9011C66.6602 44.3172 67.133 43.8444 67.7169 43.8444C68.3009 43.8444 68.7737 44.3172 68.7737 44.9011V47.0147C68.7737 47.5987 68.3009 48.0714 67.7169 48.0714Z" fill="#61101B"/>
<path d="M65.3711 34.3196L64.7582 34.9325H45.2431L44.6302 34.3196C43.4045 33.0936 43.4045 31.0645 44.6302 29.8388L47.702 26.8586C48.8854 25.6541 50.978 25.6541 52.1826 26.8586L55.0359 29.7119L57.8892 26.8586C59.0937 25.6541 61.1863 25.6541 62.3909 26.8586L65.3711 29.8388C66.5968 31.0645 66.5968 33.0936 65.3711 34.3196Z" fill="#F2F2FC"/>
<path d="M64.7584 34.9325H55.0361V29.7119L57.8894 26.8586C59.094 25.6541 61.1866 25.6541 62.3912 26.8586L65.3713 29.8388C66.5971 31.0645 66.5971 33.0936 65.3713 34.3196L64.7584 34.9325Z" fill="#D8D8FC"/>
<path d="M57.3599 16.2274C56.3455 16.2274 55.5846 16.6713 55.035 17.2206C54.4854 16.6713 53.7245 16.2274 52.7101 16.2274C50.8291 16.2274 49.3496 17.7914 49.3496 19.7993C49.3496 22.1453 51.442 23.6669 54.3376 26.1187C54.5278 26.2879 54.7813 26.3724 55.035 26.3724C55.2887 26.3724 55.5422 26.2879 55.7326 26.1187C58.6492 23.6248 60.7204 22.1665 60.7204 19.7993C60.7204 17.7914 59.2409 16.2274 57.3599 16.2274Z" fill="#FF637B"/>
<path d="M55.7338 26.1187C55.5433 26.2879 55.2899 26.3724 55.0361 26.3724V17.2206C55.5857 16.6713 56.3466 16.2274 57.361 16.2274C59.242 16.2274 60.7215 17.7914 60.7215 19.7993C60.7215 22.1665 58.6503 23.6248 55.7338 26.1187Z" fill="#E63950"/>
<path d="M70.8879 38.4189H39.1143C39.1143 35.5023 41.4815 33.135 44.3981 33.135H65.604C68.5206 33.135 70.8879 35.5023 70.8879 38.4189Z" fill="#FFB6FA"/>
<path d="M70.8877 38.4189H55.0361V33.135H65.6039C68.5204 33.135 70.8877 35.5023 70.8877 38.4189Z" fill="#FF9AC9"/>
<path d="M71.9439 37.3624H38.0568C37.4648 37.3624 37 37.8272 37 38.4192V44.9007C37 45.4924 37.4648 45.9575 38.0568 45.9575H71.9439C72.5359 45.9575 73.0712 45.4924 73.0712 44.9007V38.4192C73.0712 37.8272 72.5359 37.3624 71.9439 37.3624Z" fill="#AE2538"/>
<path d="M73.0717 38.4192V44.9007C73.0717 45.4924 72.5364 45.9575 71.9445 45.9575H55.0361V37.3624H71.9445C72.5364 37.3624 73.0717 37.8272 73.0717 38.4192Z" fill="#8E1E2C"/>
</svg>
