<svg width="210" height="52" viewBox="0 0 210 52" fill="none" xmlns="http://www.w3.org/2000/svg">
<path d="M0.357422 39.5068L0.357422 12.1856C0.357422 5.55814 5.73002 0.185553 12.3574 0.185561L198 0.185785C204.627 0.185793 210 5.55837 210 12.1858V39.5068C210 46.1342 204.627 51.5068 198 51.5068L12.3574 51.5068C5.73001 51.5068 0.357422 46.1342 0.357422 39.5068Z" fill="#D2E6FE"/>
<path d="M35.5356 20.7816L38.9194 15.7913H40.4507L35.9868 22.1009L35.3511 25.7444H34.0728L34.729 21.9573L32.5073 15.7913H33.9019L35.5356 20.7816ZM43.7385 18.2112C44.3583 18.2204 44.8892 18.389 45.3313 18.7171C45.7733 19.0452 46.0992 19.4987 46.3088 20.0775C46.523 20.6517 46.5959 21.2806 46.5276 21.9642L46.5139 22.1146C46.4273 22.8346 46.2131 23.4863 45.8713 24.0696C45.5295 24.6484 45.0875 25.0996 44.5451 25.4232C44.0028 25.7467 43.4081 25.8994 42.761 25.8812C42.1457 25.872 41.6148 25.7034 41.1682 25.3753C40.7261 25.0472 40.4026 24.6006 40.1975 24.0355C39.9924 23.4704 39.9195 22.8483 39.9787 22.1693C40.0471 21.4036 40.2544 20.7155 40.6008 20.1048C40.9472 19.4941 41.3915 19.0224 41.9338 18.6898C42.4807 18.3525 43.0822 18.193 43.7385 18.2112ZM41.2229 22.1761C41.191 22.4632 41.191 22.7617 41.2229 23.0716C41.2684 23.6094 41.4279 24.0377 41.7014 24.3568C41.9794 24.6758 42.3485 24.8421 42.8088 24.8558C43.219 24.8694 43.5972 24.7692 43.9436 24.555C44.2899 24.3362 44.5816 24.0081 44.8186 23.5706C45.0556 23.1331 45.2082 22.6478 45.2766 22.1146C45.313 21.6953 45.3199 21.3421 45.2971 21.055C45.2424 20.5036 45.0761 20.0683 44.7981 19.7493C44.5201 19.4303 44.1509 19.2617 43.6906 19.2435C43.0526 19.2298 42.5103 19.4804 42.0637 19.9954C41.6171 20.5104 41.3414 21.1849 41.2365 22.0189L41.2229 22.1761ZM52.4267 25.013C51.8479 25.61 51.1119 25.8994 50.2187 25.8812C49.5123 25.8629 48.9882 25.61 48.6464 25.1224C48.3092 24.6347 48.1839 23.9694 48.2704 23.1263L49.0634 18.348H50.3007L49.5009 23.1468C49.4781 23.3473 49.4736 23.5433 49.4872 23.7347C49.51 24.0628 49.608 24.3203 49.7812 24.5071C49.9544 24.694 50.1959 24.7943 50.5058 24.8079C51.3899 24.8353 52.0735 24.4775 52.5566 23.7347L53.4863 18.348H54.7236L53.4384 25.7444H52.2695L52.4267 25.013ZM59.6381 22.0325C59.7292 21.2806 59.9366 20.6015 60.2601 19.9954C60.5837 19.3893 60.9825 18.9359 61.4564 18.6351C61.9304 18.3343 62.4522 18.1907 63.0219 18.2044C63.8467 18.2226 64.4802 18.5234 64.9222 19.1068L65.6332 15.2444H66.8705L65.0521 25.7444H63.9242L64.0541 24.9515C63.4707 25.5895 62.7507 25.8994 61.8939 25.8812C61.2103 25.8629 60.6657 25.5963 60.2601 25.0814C59.8545 24.5618 59.6358 23.8668 59.6039 22.9964C59.5902 22.7275 59.6016 22.4062 59.6381 22.0325ZM60.8275 22.7435C60.8138 23.3952 60.9301 23.901 61.1762 24.261C61.4222 24.6211 61.7823 24.8056 62.2562 24.8148C62.9717 24.8467 63.6075 24.4866 64.1635 23.7347L64.7513 20.3167C64.4779 19.6422 63.9812 19.2959 63.2611 19.2776C62.7735 19.264 62.3428 19.4121 61.9691 19.722C61.6 20.0273 61.3174 20.458 61.1215 21.014C60.9301 21.5654 60.8321 22.1419 60.8275 22.7435ZM70.4864 25.8812C69.5659 25.8629 68.8458 25.5234 68.3263 24.8626C67.8067 24.2018 67.588 23.3564 67.67 22.3265L67.7042 22.0325C67.7817 21.2988 67.9981 20.6289 68.3536 20.0228C68.7136 19.4166 69.1511 18.9609 69.6661 18.6556C70.1811 18.3457 70.7371 18.1976 71.3341 18.2112C72.0952 18.2295 72.6922 18.4824 73.1251 18.97C73.558 19.4577 73.795 20.1185 73.836 20.9525C73.8497 21.2487 73.8406 21.5449 73.8087 21.8411L73.7335 22.4085H68.9005C68.8185 23.0784 68.9278 23.6481 69.2286 24.1175C69.534 24.5869 69.9874 24.8307 70.589 24.8489C71.3181 24.8672 71.9926 24.539 72.6124 23.8646L73.3233 24.4661C73.0134 24.9127 72.6124 25.2637 72.1202 25.5189C71.6326 25.7695 71.088 25.8903 70.4864 25.8812ZM71.2726 19.2435C70.7621 19.2298 70.3155 19.403 69.9327 19.763C69.5545 20.123 69.2537 20.6585 69.0304 21.3694L72.6261 21.3763L72.6534 21.2669C72.7263 20.6927 72.6329 20.2165 72.3731 19.8382C72.1179 19.4554 71.7511 19.2571 71.2726 19.2435ZM76.1668 25.7444H74.9363L76.7547 15.2444H77.992L76.1668 25.7444ZM81.6695 25.8812C80.7489 25.8629 80.0288 25.5234 79.5093 24.8626C78.9898 24.2018 78.771 23.3564 78.8531 22.3265L78.8872 22.0325C78.9647 21.2988 79.1812 20.6289 79.5367 20.0228C79.8967 19.4166 80.3342 18.9609 80.8492 18.6556C81.3641 18.3457 81.9201 18.1976 82.5171 18.2112C83.2782 18.2295 83.8752 18.4824 84.3081 18.97C84.7411 19.4577 84.9781 20.1185 85.0191 20.9525C85.0328 21.2487 85.0236 21.5449 84.9917 21.8411L84.9165 22.4085H80.0835C80.0015 23.0784 80.1109 23.6481 80.4117 24.1175C80.717 24.5869 81.1704 24.8307 81.772 24.8489C82.5012 24.8672 83.1757 24.539 83.7954 23.8646L84.5064 24.4661C84.1965 24.9127 83.7954 25.2637 83.3033 25.5189C82.8156 25.7695 82.271 25.8903 81.6695 25.8812ZM82.4556 19.2435C81.9452 19.2298 81.4986 19.403 81.1158 19.763C80.7375 20.123 80.4367 20.6585 80.2134 21.3694L83.8091 21.3763L83.8365 21.2669C83.9094 20.6927 83.816 20.2165 83.5562 19.8382C83.301 19.4554 82.9341 19.2571 82.4556 19.2435ZM89.2776 16.5569L88.9631 18.348H90.3098L90.1389 19.3255H88.7991L88.0266 23.9261C88.013 24.0446 88.0107 24.154 88.0198 24.2542C88.0517 24.6097 88.2454 24.7874 88.6008 24.7874C88.7512 24.7874 88.9518 24.7646 89.2024 24.7191L89.1067 25.7513C88.8105 25.8333 88.5097 25.8743 88.2044 25.8743C87.7122 25.8652 87.343 25.6852 87.0969 25.3343C86.8508 24.9788 86.7551 24.5026 86.8098 23.9056L87.5618 19.3255H86.2561L86.427 18.348H87.7327L88.0471 16.5569H89.2776ZM94.001 25.8812C93.0804 25.8629 92.3603 25.5234 91.8408 24.8626C91.3213 24.2018 91.1025 23.3564 91.1846 22.3265L91.2187 22.0325C91.2962 21.2988 91.5127 20.6289 91.8681 20.0228C92.2282 19.4166 92.6657 18.9609 93.1806 18.6556C93.6956 18.3457 94.2516 18.1976 94.8486 18.2112C95.6097 18.2295 96.2067 18.4824 96.6396 18.97C97.0726 19.4577 97.3096 20.1185 97.3506 20.9525C97.3642 21.2487 97.3551 21.5449 97.3232 21.8411L97.248 22.4085H92.415C92.333 23.0784 92.4424 23.6481 92.7431 24.1175C93.0485 24.5869 93.5019 24.8307 94.1035 24.8489C94.8327 24.8672 95.5071 24.539 96.1269 23.8646L96.8379 24.4661C96.528 24.9127 96.1269 25.2637 95.6347 25.5189C95.1471 25.7695 94.6025 25.8903 94.001 25.8812ZM94.7871 19.2435C94.2767 19.2298 93.8301 19.403 93.4472 19.763C93.069 20.123 92.7682 20.6585 92.5449 21.3694L96.1406 21.3763L96.1679 21.2669C96.2409 20.6927 96.1474 20.2165 95.8877 19.8382C95.6325 19.4554 95.2656 19.2571 94.7871 19.2435ZM98.697 22.0325C98.7881 21.2806 98.9955 20.6015 99.319 19.9954C99.6426 19.3893 100.041 18.9359 100.515 18.6351C100.989 18.3343 101.511 18.1907 102.081 18.2044C102.906 18.2226 103.539 18.5234 103.981 19.1068L104.692 15.2444H105.929L104.111 25.7444H102.983L103.113 24.9515C102.53 25.5895 101.81 25.8994 100.953 25.8812C100.269 25.8629 99.7246 25.5963 99.319 25.0814C98.9134 24.5618 98.6947 23.8668 98.6628 22.9964C98.6491 22.7275 98.6605 22.4062 98.697 22.0325ZM99.8864 22.7435C99.8728 23.3952 99.989 23.901 100.235 24.261C100.481 24.6211 100.841 24.8056 101.315 24.8148C102.031 24.8467 102.666 24.4866 103.222 23.7347L103.81 20.3167C103.537 19.6422 103.04 19.2959 102.32 19.2776C101.832 19.264 101.402 19.4121 101.028 19.722C100.659 20.0273 100.376 20.458 100.18 21.014C99.989 21.5654 99.891 22.1419 99.8864 22.7435ZM113.325 16.5569L113.011 18.348H114.358L114.187 19.3255H112.847L112.074 23.9261C112.061 24.0446 112.058 24.154 112.068 24.2542C112.099 24.6097 112.293 24.7874 112.649 24.7874C112.799 24.7874 112.999 24.7646 113.25 24.7191L113.154 25.7513C112.858 25.8333 112.557 25.8743 112.252 25.8743C111.76 25.8652 111.391 25.6852 111.145 25.3343C110.899 24.9788 110.803 24.5026 110.858 23.9056L111.61 19.3255H110.304L110.475 18.348H111.78L112.095 16.5569H113.325ZM117.16 19.2503C117.807 18.5439 118.552 18.1998 119.395 18.2181C120.088 18.2272 120.601 18.4665 120.933 18.9359C121.271 19.4007 121.396 20.0547 121.309 20.8978L120.503 25.7444H119.265L120.079 20.8773C120.106 20.654 120.109 20.4466 120.086 20.2552C120.008 19.6172 119.632 19.2913 118.958 19.2776C118.201 19.2594 117.55 19.6559 117.003 20.4671L116.087 25.7444H114.849L116.675 15.2444H117.912L117.16 19.2503ZM124.016 25.7444H122.786L124.071 18.348H125.301L124.016 25.7444ZM125.035 15.6478C125.244 15.6387 125.418 15.7025 125.554 15.8392C125.696 15.9713 125.766 16.1468 125.766 16.3655C125.762 16.5797 125.691 16.7552 125.554 16.8919C125.422 17.0286 125.249 17.1015 125.035 17.1107C124.821 17.1198 124.645 17.0582 124.508 16.9261C124.372 16.7939 124.306 16.6207 124.31 16.4066C124.315 16.1924 124.383 16.0146 124.515 15.8734C124.647 15.7321 124.821 15.6569 125.035 15.6478ZM130.9 23.7415C130.968 23.2311 130.688 22.8711 130.059 22.6614L128.774 22.2855C127.689 21.9118 127.165 21.292 127.201 20.4261C127.233 19.7744 127.53 19.2412 128.09 18.8265C128.655 18.4072 129.318 18.2021 130.079 18.2112C130.827 18.2204 131.433 18.4391 131.898 18.8675C132.367 19.2913 132.593 19.845 132.575 20.5286L131.344 20.5218C131.353 20.1526 131.237 19.8519 130.995 19.6194C130.754 19.387 130.433 19.2663 130.032 19.2571C129.603 19.248 129.234 19.3528 128.924 19.5716C128.637 19.7767 128.471 20.0456 128.425 20.3782C128.366 20.8066 128.628 21.1188 129.211 21.3148L129.833 21.4857C130.681 21.7044 131.283 21.9892 131.638 22.3401C131.993 22.6911 132.158 23.1263 132.13 23.6458C132.103 24.1061 131.952 24.5071 131.679 24.8489C131.406 25.1907 131.041 25.4528 130.585 25.6351C130.13 25.8128 129.644 25.8948 129.129 25.8812C128.345 25.872 127.698 25.6442 127.188 25.1976C126.677 24.7464 126.431 24.1676 126.45 23.4612L127.687 23.4681C127.687 23.8828 127.819 24.2155 128.083 24.4661C128.348 24.7168 128.71 24.8421 129.17 24.8421C129.621 24.8512 130.011 24.7578 130.339 24.5618C130.667 24.3613 130.854 24.0879 130.9 23.7415ZM139.82 18.3411L139.663 19.1683C140.283 18.512 141.032 18.193 141.912 18.2112C142.381 18.2204 142.778 18.3275 143.101 18.5325C143.429 18.7376 143.655 19.027 143.778 19.4007C144.471 18.5895 145.289 18.193 146.232 18.2112C146.97 18.2295 147.515 18.4778 147.866 18.9564C148.217 19.4349 148.347 20.0775 148.256 20.8841L147.442 25.7444H146.212L147.018 20.8704C147.046 20.6334 147.046 20.417 147.018 20.221C146.932 19.6012 146.526 19.2845 145.802 19.2708C145.35 19.2617 144.94 19.403 144.571 19.6946C144.206 19.9818 143.972 20.36 143.867 20.8294L143.026 25.7444H141.782L142.602 20.8773C142.662 20.3714 142.584 19.9818 142.37 19.7083C142.16 19.4349 141.832 19.2936 141.385 19.2845C140.615 19.2663 140.002 19.6172 139.547 20.3372L138.61 25.7444H137.373L138.658 18.348L139.82 18.3411ZM152.835 25.8812C151.915 25.8629 151.195 25.5234 150.675 24.8626C150.156 24.2018 149.937 23.3564 150.019 22.3265L150.053 22.0325C150.131 21.2988 150.347 20.6289 150.703 20.0228C151.063 19.4166 151.5 18.9609 152.015 18.6556C152.53 18.3457 153.086 18.1976 153.683 18.2112C154.444 18.2295 155.041 18.4824 155.474 18.97C155.907 19.4577 156.144 20.1185 156.185 20.9525C156.199 21.2487 156.19 21.5449 156.158 21.8411L156.082 22.4085H151.249C151.167 23.0784 151.277 23.6481 151.578 24.1175C151.883 24.5869 152.336 24.8307 152.938 24.8489C153.667 24.8672 154.342 24.539 154.961 23.8646L155.672 24.4661C155.362 24.9127 154.961 25.2637 154.469 25.5189C153.982 25.7695 153.437 25.8903 152.835 25.8812ZM153.622 19.2435C153.111 19.2298 152.665 19.403 152.282 19.763C151.903 20.123 151.603 20.6585 151.379 21.3694L154.975 21.3763L155.002 21.2669C155.075 20.6927 154.982 20.2165 154.722 19.8382C154.467 19.4554 154.1 19.2571 153.622 19.2435ZM161.756 23.7415C161.824 23.2311 161.544 22.8711 160.915 22.6614L159.63 22.2855C158.545 21.9118 158.021 21.292 158.058 20.4261C158.09 19.7744 158.386 19.2412 158.946 18.8265C159.512 18.4072 160.175 18.2021 160.936 18.2112C161.683 18.2204 162.289 18.4391 162.754 18.8675C163.223 19.2913 163.449 19.845 163.431 20.5286L162.2 20.5218C162.209 20.1526 162.093 19.8519 161.852 19.6194C161.61 19.387 161.289 19.2663 160.888 19.2571C160.459 19.248 160.09 19.3528 159.78 19.5716C159.493 19.7767 159.327 20.0456 159.281 20.3782C159.222 20.8066 159.484 21.1188 160.068 21.3148L160.69 21.4857C161.537 21.7044 162.139 21.9892 162.494 22.3401C162.85 22.6911 163.014 23.1263 162.987 23.6458C162.959 24.1061 162.809 24.5071 162.535 24.8489C162.262 25.1907 161.897 25.4528 161.442 25.6351C160.986 25.8128 160.501 25.8948 159.986 25.8812C159.202 25.872 158.555 25.6442 158.044 25.1976C157.534 24.7464 157.288 24.1676 157.306 23.4612L158.543 23.4681C158.543 23.8828 158.675 24.2155 158.94 24.4661C159.204 24.7168 159.566 24.8421 160.027 24.8421C160.478 24.8512 160.867 24.7578 161.195 24.5618C161.524 24.3613 161.71 24.0879 161.756 23.7415ZM169.104 23.7415C169.173 23.2311 168.892 22.8711 168.264 22.6614L166.978 22.2855C165.894 21.9118 165.37 21.292 165.406 20.4261C165.438 19.7744 165.734 19.2412 166.295 18.8265C166.86 18.4072 167.523 18.2021 168.284 18.2112C169.031 18.2204 169.638 18.4391 170.102 18.8675C170.572 19.2913 170.797 19.845 170.779 20.5286L169.549 20.5218C169.558 20.1526 169.442 19.8519 169.2 19.6194C168.959 19.387 168.637 19.2663 168.236 19.2571C167.808 19.248 167.439 19.3528 167.129 19.5716C166.842 19.7767 166.675 20.0456 166.63 20.3782C166.571 20.8066 166.833 21.1188 167.416 21.3148L168.038 21.4857C168.886 21.7044 169.487 21.9892 169.843 22.3401C170.198 22.6911 170.362 23.1263 170.335 23.6458C170.308 24.1061 170.157 24.5071 169.884 24.8489C169.61 25.1907 169.246 25.4528 168.79 25.6351C168.334 25.8128 167.849 25.8948 167.334 25.8812C166.55 25.872 165.903 25.6442 165.392 25.1976C164.882 24.7464 164.636 24.1676 164.654 23.4612L165.892 23.4681C165.892 23.8828 166.024 24.2155 166.288 24.4661C166.552 24.7168 166.915 24.8421 167.375 24.8421C167.826 24.8512 168.216 24.7578 168.544 24.5618C168.872 24.3613 169.059 24.0879 169.104 23.7415ZM176.398 25.7444C176.366 25.6123 176.35 25.4824 176.35 25.3548L176.371 24.9651C175.692 25.5941 174.972 25.8994 174.211 25.8812C173.559 25.872 173.028 25.667 172.618 25.2659C172.212 24.8603 172.028 24.3545 172.064 23.7484C172.11 22.9645 172.451 22.3538 173.089 21.9163C173.732 21.4743 174.575 21.2532 175.619 21.2532L176.911 21.2601L176.993 20.6722C177.038 20.2301 176.952 19.8815 176.733 19.6263C176.519 19.3665 176.195 19.2321 175.762 19.223C175.339 19.2138 174.963 19.3187 174.634 19.5374C174.311 19.7516 174.113 20.0364 174.04 20.3919L172.796 20.3987C172.837 19.9658 173.005 19.583 173.301 19.2503C173.598 18.9131 173.978 18.6533 174.443 18.471C174.908 18.2842 175.389 18.1953 175.885 18.2044C176.656 18.2226 177.255 18.4573 177.683 18.9085C178.112 19.3551 178.292 19.9498 178.223 20.6927L177.622 24.3568L177.588 24.8831C177.578 25.1338 177.606 25.3821 177.67 25.6282L177.656 25.7444H176.398ZM174.457 24.7874C174.853 24.7965 175.227 24.7031 175.578 24.5071C175.933 24.3066 176.239 24.0309 176.494 23.68L176.76 22.1556L175.824 22.1487C175.045 22.1487 174.448 22.2718 174.033 22.5179C173.618 22.764 173.383 23.1126 173.329 23.5638C173.288 23.9101 173.367 24.1995 173.568 24.4319C173.773 24.6598 174.069 24.7783 174.457 24.7874ZM179.98 22.0325C180.089 21.2259 180.306 20.5263 180.629 19.9339C180.957 19.3369 181.354 18.8971 181.819 18.6146C182.288 18.3275 182.801 18.1907 183.357 18.2044C184.214 18.2226 184.861 18.5462 185.298 19.1751L185.544 18.348H186.679L185.449 25.5872C185.316 26.5306 184.934 27.2848 184.3 27.8499C183.667 28.4196 182.885 28.6907 181.955 28.6634C181.454 28.6543 180.973 28.5358 180.513 28.3079C180.057 28.0801 179.697 27.7679 179.433 27.3714L180.137 26.6126C180.584 27.2734 181.174 27.6129 181.908 27.6312C182.495 27.6494 182.992 27.4853 183.398 27.139C183.808 26.7926 184.079 26.3004 184.211 25.6624L184.348 25.0062C183.746 25.6077 183.042 25.8994 182.236 25.8812C181.775 25.8675 181.374 25.7444 181.033 25.512C180.695 25.275 180.433 24.9355 180.246 24.4935C180.06 24.0469 179.957 23.5501 179.939 23.0032C179.93 22.7344 179.943 22.4108 179.98 22.0325ZM181.176 22.7366C181.162 23.3883 181.274 23.8942 181.511 24.2542C181.753 24.6097 182.115 24.7965 182.598 24.8148C183.336 24.833 183.972 24.4707 184.505 23.7278L185.086 20.3304C184.813 19.6559 184.318 19.305 183.603 19.2776C182.933 19.2594 182.382 19.5329 181.949 20.098C181.52 20.6631 181.267 21.4264 181.19 22.388L181.176 22.7366ZM190.794 25.8812C189.873 25.8629 189.153 25.5234 188.634 24.8626C188.114 24.2018 187.896 23.3564 187.978 22.3265L188.012 22.0325C188.089 21.2988 188.306 20.6289 188.661 20.0228C189.021 19.4166 189.459 18.9609 189.974 18.6556C190.489 18.3457 191.045 18.1976 191.642 18.2112C192.403 18.2295 193 18.4824 193.433 18.97C193.866 19.4577 194.103 20.1185 194.144 20.9525C194.157 21.2487 194.148 21.5449 194.116 21.8411L194.041 22.4085H189.208C189.126 23.0784 189.235 23.6481 189.536 24.1175C189.842 24.5869 190.295 24.8307 190.897 24.8489C191.626 24.8672 192.3 24.539 192.92 23.8646L193.631 24.4661C193.321 24.9127 192.92 25.2637 192.428 25.5189C191.94 25.7695 191.396 25.8903 190.794 25.8812ZM191.58 19.2435C191.07 19.2298 190.623 19.403 190.24 19.763C189.862 20.123 189.561 20.6585 189.338 21.3694L192.934 21.3763L192.961 21.2669C193.034 20.6927 192.94 20.2165 192.681 19.8382C192.426 19.4554 192.059 19.2571 191.58 19.2435Z" fill="#31394E"/>
<path d="M167.7 39.9861C167.7 41.2556 167.483 42.199 167.05 42.8162C166.616 43.4333 165.938 43.7419 165.017 43.7419C164.106 43.7419 163.433 43.4412 162.995 42.8396C162.558 42.2341 162.331 41.3318 162.315 40.1326V38.6853C162.315 37.4314 162.532 36.4998 162.966 35.8904C163.399 35.281 164.079 34.9763 165.005 34.9763C165.923 34.9763 166.599 35.2712 167.032 35.8611C167.466 36.447 167.688 37.3533 167.7 38.5798V39.9861ZM166.616 38.5037C166.616 37.5857 166.487 36.9177 166.229 36.4998C165.972 36.0779 165.563 35.8669 165.005 35.8669C164.45 35.8669 164.046 36.0759 163.792 36.4939C163.538 36.9119 163.407 37.5544 163.399 38.4216V40.156C163.399 41.0779 163.532 41.7595 163.798 42.2009C164.067 42.6384 164.474 42.8572 165.017 42.8572C165.552 42.8572 165.948 42.6501 166.206 42.2361C166.468 41.822 166.604 41.1697 166.616 40.2791V38.5037ZM173.483 39.8748C173.257 40.1443 172.985 40.3611 172.669 40.5251C172.356 40.6892 172.012 40.7712 171.637 40.7712C171.145 40.7712 170.716 40.6501 170.348 40.408C169.985 40.1658 169.704 39.8259 169.505 39.3884C169.305 38.947 169.206 38.4607 169.206 37.9294C169.206 37.3591 169.313 36.8455 169.528 36.3884C169.747 35.9314 170.055 35.5818 170.454 35.3396C170.852 35.0974 171.317 34.9763 171.848 34.9763C172.692 34.9763 173.356 35.2927 173.841 35.9255C174.329 36.5544 174.573 37.4138 174.573 38.5037V38.8201C174.573 40.4802 174.245 41.6931 173.589 42.4587C172.932 43.2205 171.942 43.6111 170.618 43.6306H170.407V42.7166H170.636C171.53 42.7009 172.218 42.4685 172.698 42.0193C173.178 41.5662 173.44 40.8513 173.483 39.8748ZM171.813 39.8748C172.177 39.8748 172.511 39.7634 172.815 39.5408C173.124 39.3181 173.348 39.0427 173.489 38.7146V38.281C173.489 37.5701 173.335 36.9919 173.026 36.5466C172.718 36.1013 172.327 35.8787 171.854 35.8787C171.378 35.8787 170.995 36.0623 170.706 36.4294C170.417 36.7927 170.272 37.2732 170.272 37.8708C170.272 38.4529 170.411 38.9333 170.688 39.3123C170.969 39.6873 171.344 39.8748 171.813 39.8748ZM176.383 43.0564C176.383 42.8689 176.438 42.7126 176.547 42.5876C176.661 42.4626 176.829 42.4001 177.051 42.4001C177.274 42.4001 177.442 42.4626 177.555 42.5876C177.672 42.7126 177.731 42.8689 177.731 43.0564C177.731 43.2361 177.672 43.3865 177.555 43.5076C177.442 43.6287 177.274 43.6892 177.051 43.6892C176.829 43.6892 176.661 43.6287 176.547 43.5076C176.438 43.3865 176.383 43.2361 176.383 43.0564ZM176.389 37.8826C176.389 37.6951 176.444 37.5388 176.553 37.4138C176.667 37.2888 176.834 37.2263 177.057 37.2263C177.28 37.2263 177.448 37.2888 177.561 37.4138C177.678 37.5388 177.737 37.6951 177.737 37.8826C177.737 38.0623 177.678 38.2126 177.561 38.3337C177.448 38.4548 177.28 38.5154 177.057 38.5154C176.834 38.5154 176.667 38.4548 176.553 38.3337C176.444 38.2126 176.389 38.0623 176.389 37.8826ZM181.03 38.8318H181.844C182.356 38.824 182.758 38.6892 183.051 38.4275C183.344 38.1658 183.491 37.8123 183.491 37.3669C183.491 36.3669 182.992 35.8669 181.996 35.8669C181.528 35.8669 181.153 36.0017 180.871 36.2712C180.594 36.5369 180.455 36.8904 180.455 37.3318H179.371C179.371 36.656 179.617 36.0955 180.11 35.6501C180.606 35.2009 181.235 34.9763 181.996 34.9763C182.801 34.9763 183.432 35.1892 183.889 35.615C184.346 36.0408 184.574 36.6326 184.574 37.3904C184.574 37.7615 184.453 38.1208 184.211 38.4685C183.973 38.8162 183.647 39.0759 183.233 39.2478C183.701 39.3962 184.063 39.6423 184.317 39.9861C184.574 40.3298 184.703 40.7498 184.703 41.2458C184.703 42.0115 184.453 42.6189 183.953 43.0681C183.453 43.5173 182.803 43.7419 182.002 43.7419C181.201 43.7419 180.549 43.5251 180.045 43.0916C179.545 42.658 179.295 42.0857 179.295 41.3748H180.385C180.385 41.824 180.532 42.1833 180.824 42.4529C181.117 42.7224 181.51 42.8572 182.002 42.8572C182.526 42.8572 182.926 42.7205 183.203 42.447C183.481 42.1736 183.619 41.781 183.619 41.2693C183.619 40.7732 183.467 40.3923 183.162 40.1267C182.858 39.8611 182.418 39.7244 181.844 39.7166H181.03V38.8318ZM186.93 39.3474L187.363 35.0935H191.734V36.0955H188.283L188.025 38.4216C188.443 38.1755 188.918 38.0525 189.449 38.0525C190.227 38.0525 190.844 38.3103 191.301 38.8259C191.758 39.3376 191.986 40.031 191.986 40.906C191.986 41.7849 191.748 42.4783 191.272 42.9861C190.799 43.49 190.137 43.7419 189.285 43.7419C188.531 43.7419 187.916 43.533 187.439 43.115C186.963 42.697 186.691 42.1189 186.625 41.3806H187.65C187.717 41.8689 187.891 42.238 188.172 42.488C188.453 42.7341 188.824 42.8572 189.285 42.8572C189.789 42.8572 190.184 42.6853 190.469 42.3416C190.758 41.9978 190.902 41.5232 190.902 40.9177C190.902 40.3474 190.746 39.8904 190.434 39.5466C190.125 39.199 189.713 39.0251 189.197 39.0251C188.725 39.0251 188.354 39.1287 188.084 39.3357L187.797 39.5701L186.93 39.3474Z" fill="#4682BD"/>
<path d="M25.6024 21.0046C25.6024 22.7389 24.9097 24.3097 23.7837 25.4582C22.6279 26.6372 21.02 27.367 19.24 27.367C15.7261 27.367 12.8775 24.5185 12.8775 21.0046C12.8775 19.2246 13.6073 17.6166 14.7863 16.4608C15.9349 15.3349 17.5056 14.6421 19.24 14.6421C22.7539 14.6421 25.6024 17.4907 25.6024 21.0046Z" stroke="#31394E" stroke-width="1.8"/>
</svg>
