<svg width="144" height="51" viewBox="0 0 144 51" fill="none" xmlns="http://www.w3.org/2000/svg">
<rect x="0.779297" y="0.584351" width="142.759" height="50.3856" rx="25.1928" fill="white"/>
<path d="M57.4233 30.4399L61.5786 17.6484H64.7007L58.8159 34H56.0645L50.2021 17.6484H53.313L57.4233 30.4399ZM65.7222 27.812C65.7222 26.6216 65.958 25.5509 66.4297 24.6001C66.9014 23.6418 67.564 22.908 68.4175 22.3989C69.271 21.8823 70.2518 21.624 71.3599 21.624C72.9996 21.624 74.3285 22.1519 75.3467 23.2075C76.3724 24.2632 76.9265 25.6632 77.0088 27.4077L77.0201 28.0479C77.0201 29.2458 76.788 30.3164 76.3238 31.2598C75.8671 32.2031 75.2082 32.9331 74.3472 33.4497C73.4937 33.9663 72.5054 34.2246 71.3824 34.2246C69.6678 34.2246 68.294 33.6556 67.2608 32.5176C66.2351 31.3721 65.7222 29.8485 65.7222 27.9468V27.812ZM68.4512 28.0479C68.4512 29.2982 68.7095 30.279 69.2261 30.9902C69.7427 31.694 70.4615 32.0459 71.3824 32.0459C72.3033 32.0459 73.0183 31.6865 73.5274 30.9678C74.044 30.249 74.3023 29.1971 74.3023 27.812C74.3023 26.5841 74.0365 25.6108 73.5049 24.8921C72.9808 24.1733 72.2658 23.814 71.3599 23.814C70.469 23.814 69.7614 24.1696 69.2373 24.8809C68.7133 25.5846 68.4512 26.6403 68.4512 28.0479ZM82.691 34H79.962V21.8486H82.691V34ZM79.7935 18.6929C79.7935 18.2736 79.9246 17.9255 80.1866 17.6484C80.4561 17.3714 80.838 17.2329 81.3321 17.2329C81.8263 17.2329 82.2081 17.3714 82.4776 17.6484C82.7471 17.9255 82.8819 18.2736 82.8819 18.6929C82.8819 19.1047 82.7471 19.4491 82.4776 19.7261C82.2081 19.9956 81.8263 20.1304 81.3321 20.1304C80.838 20.1304 80.4561 19.9956 80.1866 19.7261C79.9246 19.4491 79.7935 19.1047 79.7935 18.6929ZM91.1246 32.0459C91.8059 32.0459 92.3712 31.8475 92.8204 31.4507C93.2696 31.0539 93.5092 30.5635 93.5392 29.9795H96.111C96.081 30.7357 95.8452 31.4432 95.4034 32.1021C94.9617 32.7534 94.3627 33.27 93.6066 33.6519C92.8504 34.0337 92.0343 34.2246 91.1583 34.2246C89.4588 34.2246 88.1111 33.6743 87.1154 32.5737C86.1196 31.4731 85.6217 29.9533 85.6217 28.0142V27.7334C85.6217 25.8841 86.1158 24.4054 87.1041 23.2974C88.0924 22.1818 89.4401 21.624 91.1471 21.624C92.5921 21.624 93.7675 22.047 94.6735 22.8931C95.5869 23.7316 96.066 24.8359 96.111 26.2061H93.5392C93.5092 25.5098 93.2696 24.937 92.8204 24.4878C92.3787 24.0386 91.8134 23.814 91.1246 23.814C90.2412 23.814 89.5599 24.1359 89.0807 24.7798C88.6015 25.4162 88.3582 26.3857 88.3507 27.6885V28.1265C88.3507 29.4442 88.5865 30.4287 89.0582 31.0801C89.5374 31.724 90.2262 32.0459 91.1246 32.0459ZM103.983 34.2246C102.254 34.2246 100.85 33.6818 99.7716 32.5962C98.701 31.5031 98.1657 30.0506 98.1657 28.2388V27.9019C98.1657 26.689 98.3978 25.6071 98.862 24.6562C99.3337 23.6979 99.9925 22.953 100.839 22.4214C101.685 21.8898 102.628 21.624 103.669 21.624C105.323 21.624 106.6 22.1519 107.498 23.2075C108.404 24.2632 108.857 25.7568 108.857 27.6885V28.7891H100.917C101 29.7923 101.333 30.5859 101.917 31.1699C102.508 31.7539 103.249 32.0459 104.14 32.0459C105.391 32.0459 106.409 31.5405 107.195 30.5298L108.666 31.9336C108.18 32.6598 107.528 33.2251 106.712 33.6294C105.903 34.0262 104.994 34.2246 103.983 34.2246ZM103.657 23.814C102.909 23.814 102.302 24.076 101.838 24.6001C101.381 25.1242 101.089 25.8542 100.962 26.79H106.162V26.5879C106.102 25.6745 105.859 24.9857 105.432 24.5215C105.005 24.0498 104.414 23.814 103.657 23.814Z" fill="#31394E"/>
<path d="M32.4581 29.0162C34.5485 29.0162 36.1471 27.4176 36.1471 25.3272V17.9493C36.1471 15.8589 34.5485 14.2604 32.4581 14.2604C30.3677 14.2604 28.7692 15.8589 28.7692 17.9493V25.3272C28.7692 27.4176 30.3677 29.0162 32.4581 29.0162ZM38.9753 25.3272C38.9753 29.0162 35.9011 31.5984 32.4581 31.5984C29.0151 31.5984 25.941 29.0162 25.941 25.3272H23.8506C23.8506 29.508 27.1706 32.951 31.2285 33.5659V37.6237H33.6878V33.5659C37.7456 32.951 41.0657 29.5081 41.0657 25.3272H38.9753Z" fill="#139742"/>
</svg>
