<svg width="30" height="28" viewBox="0 0 30 28" fill="none" xmlns="http://www.w3.org/2000/svg">
<path d="M2.1888 7.03273C5.241 5.54605 12.4316 2.90199 14.4635 2.22939C14.8166 2.1125 15.1779 2.13948 15.5245 2.2743L27.7795 7.0401C27.8619 7.07214 27.8652 7.18749 27.7848 7.22425L15.7656 12.7187C15.5081 12.8365 15.2128 12.8395 14.9529 12.7271L2.19706 7.21108C2.11906 7.17735 2.1124 7.06995 2.1888 7.03273Z" fill="#1943C2" stroke="#1943C2" stroke-width="2.4"/>
<path d="M2.72778 12.0875L14.0818 17.2779C14.8955 17.6499 15.8328 17.6393 16.6379 17.249L27.2833 12.0875" stroke="#1943C2" stroke-width="2" stroke-linecap="round"/>
<path d="M2.72778 16.7339L14.0818 21.9243C14.8955 22.2963 15.8328 22.2857 16.6379 21.8953L27.2833 16.7339" stroke="#1943C2" stroke-width="2" stroke-linecap="round"/>
<path d="M2.72778 21.3801L14.0818 26.5705C14.8955 26.9425 15.8328 26.9319 16.6379 26.5416L27.2833 21.3801" stroke="#1943C2" stroke-width="2" stroke-linecap="round"/>
</svg>
