<svg width="28" height="30" viewBox="0 0 28 30" fill="none" xmlns="http://www.w3.org/2000/svg">
<path d="M1.1888 23.0174C3.9515 21.6717 10.1048 19.3778 12.7541 18.4559C13.5737 18.1707 14.415 18.2163 15.2239 18.5309L26.7795 23.0247C26.8619 23.0568 26.8652 23.1721 26.7848 23.2089L14.7656 28.7034C14.5081 28.8211 14.2128 28.8241 13.9529 28.7117L1.19706 23.1957C1.11906 23.162 1.1124 23.0546 1.1888 23.0174Z" fill="#204AC6" stroke="#204AC6" stroke-width="2"/>
<path d="M13.9147 0.6C9.92505 0.6 6.59951 4.12524 6.59951 8.55721C6.59951 9.71114 6.81774 10.8064 7.2444 11.8165C9.11502 16.2416 12.6558 20.9344 13.9149 22.5326C15.1727 20.9359 18.7141 16.2429 20.5857 11.8165M13.9147 0.6L21.2306 8.55726C21.2306 9.7113 21.0126 10.8065 20.5857 11.8165M13.9147 0.6C17.9046 0.6 21.2302 4.12523 21.2306 8.55721L13.9147 0.6ZM20.5857 11.8165L21.1384 12.0501M20.5857 11.8165L21.1384 12.0501M21.1384 12.0501C21.5978 10.963 21.8306 9.78796 21.8306 8.55721L13.9147 0C9.55049 0 5.99951 3.83878 5.99951 8.55721C5.99951 9.78796 6.23253 10.963 6.69175 12.0501C8.60885 16.5852 12.2294 21.3653 13.4687 22.9356C13.5396 23.0255 13.6463 23.1049 13.7483 23.1568C13.8556 23.2114 13.9788 23.2113 14.0866 23.1579L14.1471 23.128C14.2141 23.0948 14.271 23.0497 14.3174 22.9911C15.5123 21.4811 19.1975 16.6404 21.1384 12.0501ZM13.8203 22.6203L13.8338 22.6475L13.8203 22.6203C13.8205 22.6202 13.8207 22.6201 13.8209 22.62L13.8203 22.6203Z" fill="#204AC6" stroke="#F2F4FB" stroke-width="1.2"/>
<circle cx="13.9995" cy="8" r="4" fill="#F2F4FB"/>
</svg>
