<svg width="121" height="46" viewBox="0 0 121 46" fill="none" xmlns="http://www.w3.org/2000/svg">
<rect width="120.24" height="45.6031" rx="22.8015" fill="white"/>
<path d="M50.1904 14.6174L54.9072 27.1506L59.6128 14.6174H63.2852V30.969H60.4551V25.5784L60.7358 18.3684L55.9067 30.969H53.874L49.0562 18.3796L49.3369 25.5784V30.969H46.5068V14.6174H50.1904ZM74.1109 30.969C73.9911 30.7369 73.8863 30.3588 73.7964 29.8347C72.9279 30.7406 71.8648 31.1936 70.607 31.1936C69.3866 31.1936 68.3908 30.8455 67.6197 30.1492C66.8485 29.4529 66.4629 28.5919 66.4629 27.5662C66.4629 26.2709 66.9421 25.2789 67.9004 24.5901C68.8662 23.8938 70.2439 23.5457 72.0332 23.5457H73.7066V22.7483C73.7066 22.1194 73.5306 21.6178 73.1787 21.2434C72.8269 20.8616 72.2915 20.6707 71.5728 20.6707C70.9514 20.6707 70.4423 20.8279 70.0454 21.1423C69.6486 21.4493 69.4502 21.8424 69.4502 22.3215H66.7212C66.7212 21.6552 66.9421 21.0338 67.3838 20.4573C67.8256 19.8733 68.4245 19.4166 69.1807 19.0872C69.9444 18.7577 70.7941 18.593 71.73 18.593C73.1525 18.593 74.2868 18.9524 75.1329 19.6711C75.9789 20.3824 76.4131 21.3857 76.4356 22.6809V28.1614C76.4356 29.2545 76.5891 30.1267 76.896 30.7781V30.969H74.1109ZM71.1123 29.0037C71.6514 29.0037 72.1568 28.8726 72.6285 28.6106C73.1076 28.3486 73.467 27.9967 73.7066 27.5549V25.2639H72.2354C71.2246 25.2639 70.4647 25.4399 69.9556 25.7917C69.4465 26.1436 69.1919 26.6415 69.1919 27.2854C69.1919 27.8095 69.3641 28.2288 69.7085 28.5432C70.0604 28.8502 70.5284 29.0037 71.1123 29.0037ZM90.3946 25.0168C90.3946 26.8961 89.9678 28.3972 89.1143 29.5203C88.2608 30.6358 87.1153 31.1936 85.6778 31.1936C84.3451 31.1936 83.2782 30.7556 82.4771 29.8796V35.6409H79.7481V18.8176H82.2637L82.3761 20.053C83.1772 19.0797 84.2665 18.593 85.6441 18.593C87.1265 18.593 88.287 19.1471 89.1256 20.2551C89.9716 21.3557 90.3946 22.8868 90.3946 24.8484V25.0168ZM87.6768 24.781C87.6768 23.5681 87.4335 22.606 86.9469 21.8948C86.4677 21.1835 85.7789 20.8279 84.8804 20.8279C83.7649 20.8279 82.9638 21.2883 82.4771 22.2092V27.5999C82.9713 28.5432 83.7799 29.0149 84.9029 29.0149C85.7714 29.0149 86.449 28.6667 86.9356 27.9705C87.4298 27.2667 87.6768 26.2035 87.6768 24.781Z" fill="#31394E"/>
<path fill-rule="evenodd" clip-rule="evenodd" d="M28.0319 32.4947C30.2968 30.3966 34.979 25.4625 34.979 20.5285C34.979 15.9072 31.3318 12.1609 26.8327 12.1609C22.3337 12.1609 18.6865 15.9072 18.6865 20.5285C18.6865 25.4625 23.3687 30.3966 25.6336 32.4947C26.3191 33.1297 27.3464 33.1297 28.0319 32.4947ZM26.8322 24.431C28.9412 24.431 30.6508 22.7214 30.6508 20.6125C30.6508 18.5036 28.9412 16.7939 26.8322 16.7939C24.7233 16.7939 23.0137 18.5036 23.0137 20.6125C23.0137 22.7214 24.7233 24.431 26.8322 24.431Z" fill="#E73656"/>
</svg>
