<svg width="87" height="87" viewBox="0 0 87 87" fill="none" xmlns="http://www.w3.org/2000/svg">
<ellipse cx="43.24" cy="43.7926" rx="42.987" ry="42.9548" fill="url(#paint0_linear)"/>
<path d="M43.0434 49.1907C46.0963 49.1907 48.4309 46.9268 48.4309 43.9664V33.5176C48.4309 30.5572 46.0963 28.2933 43.0434 28.2933C39.9905 28.2933 37.656 30.5572 37.656 33.5176V43.9664C37.656 46.9268 39.9905 49.1907 43.0434 49.1907ZM54.0878 43.9664C53.2447 43.9664 52.5762 44.6556 52.4303 45.4859C51.6572 49.8862 47.5685 52.8478 43.0434 52.8478C38.5184 52.8478 34.4297 49.8862 33.6565 45.4859C33.5106 44.6556 32.8421 43.9664 31.9991 43.9664C31.1561 43.9664 30.4614 44.6536 30.5806 45.4882C31.3257 50.7066 35.8377 54.8392 41.2476 55.6341V61.3809H44.8393V55.6341C50.2492 54.8392 54.7612 50.7066 55.5063 45.4882C55.6255 44.6536 54.9308 43.9664 54.0878 43.9664Z" fill="white"/>
<defs>
<linearGradient id="paint0_linear" x1="43.24" y1="0.837769" x2="43.24" y2="86.7474" gradientUnits="userSpaceOnUse">
<stop stop-color="#3F60C7"/>
<stop offset="1" stop-color="#1841C1"/>
</linearGradient>
</defs>
</svg>
