<?xml version="1.0" encoding="utf-8"?>
<!-- Generator: Adobe Illustrator 24.0.2, SVG Export Plug-In . SVG Version: 6.00 Build 0)  -->
<svg version="1.1" id="Слой_1" xmlns="http://www.w3.org/2000/svg" xmlns:xlink="http://www.w3.org/1999/xlink" x="0px" y="0px"
	 viewBox="0 0 357.9 138.6" style="enable-background:new 0 0 357.9 138.6;" xml:space="preserve">
<style type="text/css">
	.st0{fill:url(#SVGID_1_);stroke:#EEF4FC;}
	.st1{fill:url(#SVGID_2_);filter:url(#Adobe_OpacityMaskFilter);stroke:#EEF4FC;}
	.st2{mask:url(#mask0_1_);}
	.st3{fill:none;stroke:#C6C7D1;stroke-width:3;}
	.st4{fill:url(#SVGID_3_);stroke:url(#SVGID_4_);stroke-width:5;}
	.st5{fill:none;stroke:#E73656;stroke-width:3;}
	.st6{fill:none;stroke:#FFFFFF;stroke-width:3;stroke-linecap:round;stroke-linejoin:round;}
	.st7{fill:none;stroke:url(#SVGID_5_);stroke-width:3;}
	.st8{fill:none;stroke:url(#SVGID_6_);stroke-width:3;}
	.st9{fill:#31394E;}
</style>
<linearGradient id="SVGID_1_" gradientUnits="userSpaceOnUse" x1="179.1297" y1="158.8793" x2="179.1297" y2="-4.4642" gradientTransform="matrix(1 0 0 -1 0 136.2376)">
	<stop  offset="0" style="stop-color:#FFFFFF"/>
	<stop  offset="1" style="stop-color:#FFFFFF"/>
</linearGradient>
<path class="st0" d="M1.7,119.2v-100C1.7,9,10,0.7,20.2,0.7l317.9,0c10.2,0,18.5,8.3,18.5,18.5v100c0,10.2-8.3,18.5-18.5,18.5H20.2
	C10,137.7,1.7,129.4,1.7,119.2z"/>
<defs>
	<filter id="Adobe_OpacityMaskFilter" filterUnits="userSpaceOnUse" x="22.2" y="22.8" width="304.2" height="88.6">
		<feColorMatrix  type="matrix" values="1 0 0 0 0  0 1 0 0 0  0 0 1 0 0  0 0 0 1 0"/>
	</filter>
</defs>
<mask maskUnits="userSpaceOnUse" x="22.2" y="22.8" width="304.2" height="88.6" id="mask0_1_">
	
		<linearGradient id="SVGID_2_" gradientUnits="userSpaceOnUse" x1="180.3505" y1="140.5392" x2="180.3505" y2="14.2158" gradientTransform="matrix(1 0 0 -1 0 136.2376)">
		<stop  offset="0" style="stop-color:#FFFFFF"/>
		<stop  offset="1" style="stop-color:#FFFFFF"/>
	</linearGradient>
	<path class="st1" d="M13.1,104.1V29.3c0-8.6,6.9-15.5,15.5-15.5l303.6,0c8.6,0,15.5,6.9,15.5,15.5v74.7c0,8.6-6.9,15.5-15.5,15.5
		H28.6C20,119.6,13.1,112.6,13.1,104.1z"/>
</mask>
<g class="st2">
	<circle class="st3" cx="174.3" cy="96.1" r="13.9"/>
	
		<linearGradient id="SVGID_3_" gradientUnits="userSpaceOnUse" x1="128.9612" y1="55.4688" x2="128.9612" y2="24.7538" gradientTransform="matrix(1 0 0 -1 0 136.2376)">
		<stop  offset="0" style="stop-color:#3F60C7"/>
		<stop  offset="1" style="stop-color:#1841C1"/>
	</linearGradient>
	
		<linearGradient id="SVGID_4_" gradientUnits="userSpaceOnUse" x1="128.9612" y1="55.468" x2="128.9612" y2="24.7536" gradientTransform="matrix(1 0 0 -1 0 136.2376)">
		<stop  offset="0" style="stop-color:#3F60C7"/>
		<stop  offset="1" style="stop-color:#1841C1"/>
	</linearGradient>
	<circle class="st4" cx="129" cy="96.1" r="12.9"/>
	<circle class="st5" cx="220.4" cy="96.1" r="13.9"/>
	<circle class="st5" cx="268.6" cy="96.1" r="13.9"/>
	<path class="st6" d="M123.1,96.5l4.3,4l7.4-8.8"/>
	
		<linearGradient id="SVGID_5_" gradientUnits="userSpaceOnUse" x1="82.8895" y1="55.468" x2="82.8895" y2="24.7536" gradientTransform="matrix(1 0 0 -1 0 136.2376)">
		<stop  offset="0" style="stop-color:#3F60C7"/>
		<stop  offset="1" style="stop-color:#1841C1"/>
	</linearGradient>
	<circle class="st7" cx="82.9" cy="96.1" r="13.9"/>
	
		<linearGradient id="SVGID_6_" gradientUnits="userSpaceOnUse" x1="37.5492" y1="55.468" x2="37.5492" y2="24.7536" gradientTransform="matrix(1 0 0 -1 0 136.2376)">
		<stop  offset="0" style="stop-color:#3F60C7"/>
		<stop  offset="1" style="stop-color:#1841C1"/>
	</linearGradient>
	<circle class="st8" cx="37.5" cy="96.1" r="13.9"/>
	<circle class="st5" cx="311.1" cy="96.1" r="13.9"/>
	<path class="st9" d="M86.2,38.8h-3.1V23.9h3.1V38.8z M98.9,34.4l-1.1,1.1v3.4h-3V23.1h3v8.7l0.6-0.7l2.8-3.3h3.6l-4,4.6l4.4,6.5
		h-3.4L98.9,34.4z M109.3,27.7l0.1,1.3c0.8-1,1.9-1.5,3.2-1.5c1.2,0,2.1,0.3,2.6,1c0.6,0.7,0.9,1.7,0.9,3.1v7.2h-3v-7.1
		c0-0.6-0.1-1.1-0.4-1.4c-0.3-0.3-0.7-0.4-1.4-0.4c-0.8,0-1.5,0.4-1.9,1.1v7.8h-3V27.7H109.3z M118.3,33.2c0-1.1,0.2-2.1,0.6-2.9
		c0.4-0.9,1-1.5,1.8-2c0.8-0.5,1.7-0.7,2.8-0.7c1.5,0,2.7,0.5,3.7,1.4c1,0.9,1.5,2.2,1.6,3.7l0,0.8c0,1.7-0.5,3.1-1.4,4.1
		c-1,1-2.2,1.5-3.8,1.5c-1.6,0-2.9-0.5-3.8-1.5c-1-1-1.4-2.4-1.4-4.2V33.2z M121.2,33.4c0,1.1,0.2,1.9,0.6,2.4
		c0.4,0.6,1,0.8,1.7,0.8c0.7,0,1.3-0.3,1.7-0.8c0.4-0.6,0.6-1.4,0.6-2.6c0-1-0.2-1.8-0.6-2.4c-0.4-0.6-1-0.9-1.7-0.9
		c-0.7,0-1.3,0.3-1.7,0.9C121.4,31.3,121.2,32.2,121.2,33.4z M140.7,34.8l1.5-7.1h2.9l-2.8,11.1h-2.5l-2.1-7l-2.1,7H133l-2.8-11.1
		h2.9l1.4,7.1l2-7.1h2.1L140.7,34.8z M153.4,38.8v-8.9h-1.7v-2.2h1.7v-0.9c0-1.2,0.4-2.2,1.1-2.9c0.7-0.7,1.7-1,3-1
		c0.4,0,0.9,0.1,1.5,0.2l0,2.3c-0.2-0.1-0.5-0.1-0.9-0.1c-1.1,0-1.7,0.5-1.7,1.6v0.9h2.2v2.2h-2.2v8.9H153.4z M165.4,39
		c-1.6,0-3-0.5-4-1.5c-1-1-1.5-2.3-1.5-4v-0.3c0-1.1,0.2-2.1,0.6-3c0.4-0.9,1-1.6,1.8-2c0.8-0.5,1.7-0.7,2.7-0.7
		c1.5,0,2.7,0.5,3.6,1.4c0.9,1,1.3,2.3,1.3,4.1v1.2h-7.1c0.1,0.7,0.4,1.3,0.9,1.7c0.5,0.4,1.1,0.7,1.8,0.7c1.1,0,2-0.4,2.7-1.2
		l1.5,1.6c-0.4,0.6-1,1.1-1.8,1.5C167.1,38.8,166.3,39,165.4,39z M165,29.9c-0.6,0-1.1,0.2-1.4,0.6c-0.4,0.4-0.6,1-0.7,1.7h4.1V32
		c0-0.7-0.2-1.2-0.5-1.5C166.1,30.1,165.6,29.9,165,29.9z M181.7,34.8l1.5-7.1h2.9l-2.8,11.1h-2.5l-2.1-7l-2.1,7H174l-2.8-11.1h2.9
		l1.4,7.1l2-7.1h2.1L181.7,34.8z M203.5,33.4c0,1.7-0.4,3.1-1.2,4.1c-0.8,1-1.8,1.5-3.1,1.5c-1.1,0-2-0.4-2.7-1.2v5.2h-3V27.7h2.7
		l0.1,1.1c0.7-0.9,1.7-1.3,2.8-1.3c1.4,0,2.4,0.5,3.2,1.5c0.8,1,1.1,2.4,1.1,4.2V33.4z M200.6,33.1c0-1-0.2-1.8-0.6-2.4
		c-0.4-0.6-0.9-0.8-1.6-0.8c-0.9,0-1.6,0.4-1.9,1.1v4.5c0.4,0.7,1,1.1,1.9,1.1C199.9,36.6,200.6,35.5,200.6,33.1z M210.9,39
		c-1.6,0-3-0.5-4-1.5c-1-1-1.5-2.3-1.5-4v-0.3c0-1.1,0.2-2.1,0.6-3c0.4-0.9,1-1.6,1.8-2c0.8-0.5,1.7-0.7,2.7-0.7
		c1.5,0,2.7,0.5,3.6,1.4c0.9,1,1.3,2.3,1.3,4.1v1.2h-7.1c0.1,0.7,0.4,1.3,0.9,1.7c0.5,0.4,1.1,0.7,1.8,0.7c1.1,0,2-0.4,2.7-1.2
		l1.5,1.6c-0.4,0.6-1,1.1-1.8,1.5C212.7,38.8,211.8,39,210.9,39z M210.6,29.9c-0.6,0-1.1,0.2-1.4,0.6c-0.4,0.4-0.6,1-0.7,1.7h4.1V32
		c0-0.7-0.2-1.2-0.5-1.5C211.7,30.1,211.2,29.9,210.6,29.9z M217.1,33.2c0-1.1,0.2-2.1,0.6-2.9c0.4-0.9,1-1.5,1.8-2
		c0.8-0.5,1.7-0.7,2.8-0.7c1.5,0,2.7,0.5,3.7,1.4c0.9,0.9,1.5,2.2,1.6,3.7l0,0.8c0,1.7-0.5,3.1-1.4,4.1c-0.9,1-2.2,1.5-3.8,1.5
		c-1.6,0-2.9-0.5-3.8-1.5c-1-1-1.4-2.4-1.4-4.2V33.2z M220.1,33.4c0,1.1,0.2,1.9,0.6,2.4c0.4,0.6,1,0.8,1.7,0.8
		c0.7,0,1.3-0.3,1.7-0.8c0.4-0.6,0.6-1.4,0.6-2.6c0-1-0.2-1.8-0.6-2.4c-0.4-0.6-1-0.9-1.7-0.9c-0.7,0-1.3,0.3-1.7,0.9
		C220.3,31.3,220.1,32.2,220.1,33.4z M239.9,33.4c0,1.7-0.4,3.1-1.2,4.1c-0.8,1-1.8,1.5-3.1,1.5c-1.1,0-2-0.4-2.7-1.2v5.2h-3V27.7
		h2.7l0.1,1.1c0.7-0.9,1.7-1.3,2.8-1.3c1.4,0,2.4,0.5,3.2,1.5c0.8,1,1.1,2.4,1.1,4.2V33.4z M236.9,33.1c0-1-0.2-1.8-0.6-2.4
		c-0.4-0.6-0.9-0.8-1.6-0.8c-0.9,0-1.6,0.4-1.9,1.1v4.5c0.4,0.7,1,1.1,1.9,1.1C236.2,36.6,236.9,35.5,236.9,33.1z M245.3,38.8h-3
		V23.1h3V38.8z M253.2,39c-1.6,0-3-0.5-4-1.5c-1-1-1.5-2.3-1.5-4v-0.3c0-1.1,0.2-2.1,0.6-3c0.4-0.9,1-1.6,1.8-2
		c0.8-0.5,1.7-0.7,2.7-0.7c1.5,0,2.7,0.5,3.6,1.4c0.9,1,1.3,2.3,1.3,4.1v1.2h-7.1c0.1,0.7,0.4,1.3,0.9,1.7c0.5,0.4,1.1,0.7,1.8,0.7
		c1.1,0,2-0.4,2.7-1.2l1.5,1.6c-0.4,0.6-1,1.1-1.8,1.5C255,38.8,254.2,39,253.2,39z M252.9,29.9c-0.6,0-1.1,0.2-1.4,0.6
		c-0.4,0.4-0.6,1-0.7,1.7h4.1V32c0-0.7-0.2-1.2-0.5-1.5C254,30.1,253.5,29.9,252.9,29.9z M260.7,42.5l-1.5-0.8l0.4-0.7
		c0.5-0.8,0.7-1.7,0.7-2.5v-2.3h2.5l0,2.1c0,0.8-0.2,1.5-0.6,2.3C261.7,41.4,261.3,42,260.7,42.5z M70.4,58.4c0,1.8-0.4,3.2-1.1,4.2
		c-0.8,1-1.8,1.5-3.2,1.5c-1.2,0-2.2-0.5-2.9-1.4l-0.1,1.2h-2.7V48.1h3v5.6c0.7-0.8,1.6-1.2,2.7-1.2c1.4,0,2.4,0.5,3.2,1.5
		c0.8,1,1.2,2.4,1.2,4.2V58.4z M67.4,58.1c0-1.1-0.2-1.9-0.5-2.5c-0.4-0.5-0.9-0.8-1.6-0.8c-0.9,0-1.6,0.4-1.9,1.2v4.4
		c0.4,0.8,1,1.2,2,1.2c1,0,1.6-0.5,1.9-1.4C67.4,59.8,67.4,59.1,67.4,58.1z M79.3,62.7c-0.7,0.9-1.7,1.3-3,1.3c-1.2,0-2.1-0.3-2.7-1
		c-0.6-0.7-0.9-1.7-1-3v-7.3h3v7.2c0,1.2,0.5,1.7,1.6,1.7c1,0,1.7-0.3,2.1-1v-7.9h3v11.1h-2.8L79.3,62.7z M88.4,50v2.7h1.9v2.2h-1.9
		v5.5c0,0.4,0.1,0.7,0.2,0.9c0.2,0.2,0.5,0.3,0.9,0.3c0.3,0,0.6,0,0.9-0.1v2.2c-0.6,0.2-1.2,0.3-1.8,0.3c-2.1,0-3.1-1-3.2-3.1v-6
		h-1.6v-2.2h1.6V50H88.4z M101.5,63.8h-3.1V48.9h3.1V63.8z M114.2,59.4l-1.1,1.1v3.4h-3V48.1h3v8.7l0.6-0.7l2.8-3.3h3.6l-4,4.6
		l4.4,6.5h-3.4L114.2,59.4z M124.6,52.7l0.1,1.3c0.8-1,1.9-1.5,3.2-1.5c1.2,0,2.1,0.3,2.6,1s0.9,1.7,0.9,3.1v7.2h-3v-7.1
		c0-0.6-0.1-1.1-0.4-1.4c-0.3-0.3-0.7-0.4-1.4-0.4c-0.8,0-1.5,0.4-1.9,1.1v7.8h-3V52.7H124.6z M133.6,58.2c0-1.1,0.2-2.1,0.6-2.9
		c0.4-0.9,1-1.5,1.8-2c0.8-0.5,1.7-0.7,2.8-0.7c1.5,0,2.7,0.5,3.7,1.4c0.9,0.9,1.5,2.2,1.6,3.7l0,0.8c0,1.7-0.5,3.1-1.4,4.1
		c-0.9,1-2.2,1.5-3.8,1.5c-1.6,0-2.9-0.5-3.8-1.5c-0.9-1-1.4-2.4-1.4-4.2V58.2z M136.5,58.4c0,1.1,0.2,1.9,0.6,2.4
		c0.4,0.6,1,0.8,1.7,0.8c0.7,0,1.3-0.3,1.7-0.8c0.4-0.6,0.6-1.4,0.6-2.6c0-1-0.2-1.8-0.6-2.4c-0.4-0.6-1-0.9-1.7-0.9
		c-0.7,0-1.3,0.3-1.7,0.9C136.7,56.3,136.5,57.2,136.5,58.4z M156,59.8l1.5-7.1h2.9l-2.8,11.1H155l-2.1-7l-2.1,7h-2.5l-2.8-11.1h2.9
		l1.4,7.1l2-7.1h2.1L156,59.8z M171.4,50v2.7h1.9v2.2h-1.9v5.5c0,0.4,0.1,0.7,0.2,0.9c0.2,0.2,0.5,0.3,0.9,0.3c0.3,0,0.6,0,0.9-0.1
		v2.2c-0.6,0.2-1.2,0.3-1.8,0.3c-2.1,0-3.1-1-3.2-3.1v-6h-1.6v-2.2h1.6V50H171.4z M178.2,53.9c0.8-0.9,1.8-1.4,3-1.4
		c2.4,0,3.6,1.4,3.7,4.2v7.1h-3v-7c0-0.6-0.1-1.1-0.4-1.4c-0.3-0.3-0.7-0.5-1.4-0.5c-0.9,0-1.5,0.3-1.9,1v7.9h-3V48.1h3V53.9z
		 M192.6,64c-1.6,0-3-0.5-4-1.5c-1-1-1.5-2.3-1.5-4v-0.3c0-1.1,0.2-2.1,0.6-3c0.4-0.9,1-1.6,1.8-2c0.8-0.5,1.7-0.7,2.7-0.7
		c1.5,0,2.7,0.5,3.6,1.4c0.9,1,1.3,2.3,1.3,4.1v1.2h-7.1c0.1,0.7,0.4,1.3,0.9,1.7c0.5,0.4,1.1,0.7,1.8,0.7c1.1,0,2-0.4,2.7-1.2
		L197,62c-0.4,0.6-1,1.1-1.8,1.5C194.4,63.8,193.6,64,192.6,64z M192.3,54.9c-0.6,0-1.1,0.2-1.4,0.6c-0.4,0.4-0.6,1-0.7,1.7h4.1V57
		c0-0.7-0.2-1.2-0.5-1.5C193.4,55.1,192.9,54.9,192.3,54.9z M202.1,52.7l0.1,1.2c0.8-1,1.8-1.4,3.2-1.4c1.4,0,2.4,0.6,2.9,1.7
		c0.8-1.1,1.9-1.7,3.3-1.7c1.2,0,2.1,0.4,2.7,1.1c0.6,0.7,0.9,1.8,0.9,3.2v7.1h-3v-7.1c0-0.6-0.1-1.1-0.4-1.4
		c-0.2-0.3-0.7-0.4-1.3-0.4c-0.9,0-1.5,0.4-1.8,1.3l0,7.6h-3v-7.1c0-0.6-0.1-1.1-0.4-1.4c-0.3-0.3-0.7-0.4-1.3-0.4
		c-0.8,0-1.4,0.3-1.8,1v7.8h-3V52.7H202.1z M223.1,58.2c0-1.7,0.4-3.1,1.2-4.1c0.8-1,1.8-1.5,3.2-1.5c1.1,0,2,0.4,2.7,1.2v-5.7h3
		v15.8h-2.7l-0.1-1.2c-0.7,0.9-1.7,1.4-2.9,1.4c-1.3,0-2.4-0.5-3.1-1.5C223.5,61.4,223.1,60,223.1,58.2z M226.1,58.4
		c0,1,0.2,1.8,0.5,2.4c0.4,0.6,0.9,0.8,1.6,0.8c0.9,0,1.6-0.4,1.9-1.2v-4.4c-0.4-0.8-1-1.2-1.9-1.2
		C226.8,54.9,226.1,56.1,226.1,58.4z M240.9,64c-1.6,0-3-0.5-4-1.5c-1-1-1.5-2.3-1.5-4v-0.3c0-1.1,0.2-2.1,0.6-3
		c0.4-0.9,1-1.6,1.8-2c0.8-0.5,1.7-0.7,2.7-0.7c1.5,0,2.7,0.5,3.6,1.4c0.9,1,1.3,2.3,1.3,4.1v1.2h-7.1c0.1,0.7,0.4,1.3,0.9,1.7
		c0.5,0.4,1.1,0.7,1.8,0.7c1.1,0,2-0.4,2.7-1.2l1.5,1.6c-0.4,0.6-1,1.1-1.8,1.5C242.7,63.8,241.8,64,240.9,64z M240.6,54.9
		c-0.6,0-1.1,0.2-1.4,0.6c-0.4,0.4-0.6,1-0.7,1.7h4.1V57c0-0.7-0.2-1.2-0.5-1.5C241.7,55.1,241.2,54.9,240.6,54.9z M252.7,64
		c-1.6,0-3-0.5-4-1.5c-1-1-1.5-2.3-1.5-4v-0.3c0-1.1,0.2-2.1,0.6-3c0.4-0.9,1-1.6,1.8-2c0.8-0.5,1.7-0.7,2.7-0.7
		c1.5,0,2.7,0.5,3.6,1.4c0.9,1,1.3,2.3,1.3,4.1v1.2h-7.1c0.1,0.7,0.4,1.3,0.9,1.7c0.5,0.4,1.1,0.7,1.8,0.7c1.1,0,2-0.4,2.7-1.2
		L257,62c-0.4,0.6-1,1.1-1.8,1.5C254.5,63.8,253.6,64,252.7,64z M252.4,54.9c-0.6,0-1.1,0.2-1.4,0.6c-0.4,0.4-0.6,1-0.7,1.7h4.1V57
		c0-0.7-0.2-1.2-0.5-1.5C253.5,55.1,253,54.9,252.4,54.9z M269.4,58.4c0,1.7-0.4,3.1-1.2,4.1c-0.8,1-1.8,1.5-3.1,1.5
		c-1.1,0-2-0.4-2.7-1.2v5.2h-3V52.7h2.7l0.1,1.1c0.7-0.9,1.7-1.3,2.8-1.3c1.4,0,2.4,0.5,3.2,1.5c0.8,1,1.1,2.4,1.1,4.2V58.4z
		 M266.4,58.1c0-1-0.2-1.8-0.6-2.4c-0.4-0.6-0.9-0.8-1.6-0.8c-0.9,0-1.6,0.4-1.9,1.1v4.5c0.4,0.7,1,1.1,1.9,1.1
		C265.7,61.6,266.4,60.5,266.4,58.1z M274.8,63.8h-3V48.1h3V63.8z M281.8,59.6l2.1-6.9h3.2l-4.5,12.8l-0.2,0.6
		c-0.7,1.4-1.8,2.2-3.3,2.2c-0.4,0-0.9-0.1-1.3-0.2v-2.2l0.5,0c0.6,0,1-0.1,1.3-0.3c0.3-0.2,0.5-0.5,0.7-0.9l0.3-0.9l-3.9-11.1h3.2
		L281.8,59.6z M287,62.3c0-0.5,0.2-0.9,0.5-1.1c0.3-0.3,0.7-0.4,1.2-0.4c0.5,0,0.9,0.1,1.2,0.4c0.3,0.3,0.5,0.7,0.5,1.1
		c0,0.5-0.2,0.8-0.5,1.1c-0.3,0.3-0.7,0.4-1.2,0.4c-0.5,0-0.9-0.1-1.2-0.4C287.2,63.2,287,62.8,287,62.3z"/>
</g>
</svg>
