<?xml version="1.0" encoding="utf-8"?>
<!-- Generator: Adobe Illustrator 24.0.2, SVG Export Plug-In . SVG Version: 6.00 Build 0)  -->
<svg version="1.1" id="Слой_1" xmlns="http://www.w3.org/2000/svg" xmlns:xlink="http://www.w3.org/1999/xlink" x="0px" y="0px"
	 viewBox="0 0 57 57" style="enable-background:new 0 0 57 57;" xml:space="preserve">
<style type="text/css">
	.st0{fill:url(#SVGID_1_);}
	.st1{fill:#1E48C5;}
</style>
<linearGradient id="SVGID_1_" gradientUnits="userSpaceOnUse" x1="14.5291" y1="65.6036" x2="43.0291" y2="12.3536" gradientTransform="matrix(1 0 0 -1 0 68)">
	<stop  offset="0" style="stop-color:#DADADA"/>
	<stop  offset="1" style="stop-color:#C4C6CB"/>
</linearGradient>
<circle class="st0" cx="28.5" cy="28.5" r="28.5"/>
<path class="st1" d="M43.2,32.1l-2-2c-0.2-0.2-0.5-0.3-0.8-0.3l-4.7,0.5c-1.4-2.1-3-4.1-4.6-5.8l-5.9-5.9c-2.1-2.1-4.3-3.7-6.3-4.6
	c-2.2-1-3.9-1-4.8,0c-1,1-0.9,2.7,0,4.8c0.9,2,2.5,4.2,4.6,6.3l5.9,5.9c1.7,1.7,3.7,3.3,5.8,4.6l-0.5,4.7c0,0.3,0.1,0.6,0.3,0.8l2,2
	c0.2,0.2,0.4,0.3,0.7,0.3c0,0,0.1,0,0.1,0c0.3,0,0.5-0.2,0.7-0.5l2.3-4.4c0.4,0.1,0.8,0.2,1.2,0.2c0.4,0,0.9-0.1,1.2-0.4
	c0.6-0.6,0.5-1.6,0.2-2.4l4.4-2.3c0.3-0.1,0.4-0.4,0.5-0.7C43.5,32.6,43.4,32.3,43.2,32.1z"/>
<path class="st1" d="M41.3,17.1l-2.6-2.6c-0.2-0.2-0.6-0.3-0.9-0.2l-10.2,3.2c-0.2,0.1-0.3,0.3-0.1,0.5l5.8,5.8
	c0.1,0.1,0.3,0.1,0.4,0l7.5-5.3c0.2-0.1,0.3-0.3,0.4-0.5C41.6,17.8,41.5,17.4,41.3,17.1z"/>
<path class="st1" d="M17.1,41.3l-2.6-2.6c-0.2-0.2-0.3-0.6-0.2-0.9l3.2-10.2c0.1-0.2,0.3-0.3,0.5-0.1l5.8,5.8c0.1,0.1,0.1,0.3,0,0.4
	l-5.3,7.5c-0.1,0.2-0.3,0.3-0.5,0.4C17.8,41.6,17.4,41.5,17.1,41.3z"/>
</svg>
