<svg width="176" height="65" viewBox="0 0 176 65" fill="none" xmlns="http://www.w3.org/2000/svg">
<path d="M0.895996 49.4838L0.895996 15.0968C0.895996 7.08863 7.38787 0.596753 15.396 0.596768L160.76 0.59703C168.768 0.597045 175.26 7.08893 175.26 15.097V49.4838C175.26 57.492 168.768 63.9838 160.76 63.9838L15.396 63.9838C7.38787 63.9838 0.895996 57.492 0.895996 49.4838Z" fill="url(#paint0_linear)" stroke="#EEF4FC"/>
<path d="M72.6923 36.1379V41.9495H69.9745V26.3088H75.9579C77.7053 26.3088 79.091 26.7636 80.1151 27.6731C81.1464 28.5826 81.662 29.7857 81.662 31.2825C81.662 32.815 81.1571 34.0074 80.1473 34.8596C79.1447 35.7118 77.7375 36.1379 75.9257 36.1379H72.6923ZM72.6923 33.9573H75.9579C76.9247 33.9573 77.6623 33.7317 78.1708 33.2805C78.6792 32.8222 78.9335 32.1633 78.9335 31.304C78.9335 30.4589 78.6757 29.7857 78.16 29.2844C77.6444 28.776 76.9354 28.5146 76.0331 28.5002H72.6923V33.9573ZM90.3198 32.7112C89.976 32.6539 89.6215 32.6252 89.2563 32.6252C88.0603 32.6252 87.2546 33.0836 86.8393 34.0002V41.9495H84.2289V30.3264H86.7211L86.7856 31.6262C87.4158 30.6165 88.2895 30.1116 89.4067 30.1116C89.7791 30.1116 90.087 30.1617 90.3305 30.262L90.3198 32.7112ZM95.1855 41.9495H92.5752V30.3264H95.1855V41.9495ZM92.414 27.3079C92.414 26.9068 92.5394 26.5738 92.79 26.3088C93.0478 26.0439 93.4131 25.9114 93.8857 25.9114C94.3584 25.9114 94.7236 26.0439 94.9814 26.3088C95.2392 26.5738 95.3682 26.9068 95.3682 27.3079C95.3682 27.7017 95.2392 28.0312 94.9814 28.2961C94.7236 28.554 94.3584 28.6829 93.8857 28.6829C93.4131 28.6829 93.0478 28.554 92.79 28.2961C92.5394 28.0312 92.414 27.7017 92.414 27.3079ZM102.576 38.6409L105.036 30.3264H107.732L103.704 41.9495H101.437L97.3765 30.3264H100.084L102.576 38.6409ZM116.583 41.9495C116.469 41.7275 116.368 41.3658 116.282 40.8645C115.452 41.731 114.435 42.1643 113.232 42.1643C112.064 42.1643 111.112 41.8313 110.374 41.1653C109.636 40.4993 109.268 39.6757 109.268 38.6946C109.268 37.4556 109.726 36.5068 110.643 35.8479C111.567 35.1819 112.884 34.8489 114.596 34.8489H116.196V34.0862C116.196 33.4846 116.028 33.0048 115.692 32.6467C115.355 32.2815 114.843 32.0989 114.155 32.0989C113.561 32.0989 113.074 32.2493 112.694 32.55C112.315 32.8437 112.125 33.2196 112.125 33.678H109.515C109.515 33.0406 109.726 32.4462 110.149 31.8948C110.571 31.3362 111.144 30.8993 111.867 30.5842C112.598 30.2691 113.411 30.1116 114.306 30.1116C115.666 30.1116 116.751 30.4553 117.561 31.1428C118.37 31.8232 118.785 32.7828 118.807 34.0217V39.2639C118.807 40.3095 118.954 41.1438 119.247 41.7668V41.9495H116.583ZM113.715 40.0696C114.231 40.0696 114.714 39.9443 115.165 39.6936C115.623 39.443 115.967 39.1064 116.196 38.6838V36.4924H114.789C113.822 36.4924 113.095 36.6607 112.609 36.9973C112.122 37.3339 111.878 37.8101 111.878 38.426C111.878 38.9273 112.043 39.3284 112.372 39.6292C112.709 39.9228 113.156 40.0696 113.715 40.0696ZM125.252 27.5012V30.3264H127.303V32.26H125.252V38.7483C125.252 39.1923 125.338 39.5146 125.509 39.7151C125.688 39.9084 126.004 40.0051 126.455 40.0051C126.756 40.0051 127.06 39.9693 127.368 39.8977V41.9172C126.773 42.0819 126.201 42.1643 125.649 42.1643C123.644 42.1643 122.641 41.0579 122.641 38.845V32.26H120.729V30.3264H122.641V27.5012H125.252ZM134.865 42.1643C133.211 42.1643 131.868 41.6451 130.837 40.6067C129.813 39.5611 129.301 38.1718 129.301 36.4387V36.1165C129.301 34.9563 129.523 33.9215 129.967 33.012C130.418 32.0953 131.048 31.3827 131.858 30.8743C132.667 30.3658 133.569 30.1116 134.565 30.1116C136.147 30.1116 137.368 30.6165 138.228 31.6262C139.094 32.636 139.528 34.0647 139.528 35.9124V36.9651H131.933C132.012 37.9247 132.33 38.6838 132.889 39.2424C133.455 39.801 134.164 40.0803 135.016 40.0803C136.212 40.0803 137.186 39.5969 137.938 38.6301L139.345 39.9729C138.879 40.6676 138.256 41.2083 137.476 41.595C136.702 41.9745 135.832 42.1643 134.865 42.1643ZM134.554 32.2063C133.838 32.2063 133.258 32.4569 132.814 32.9583C132.377 33.4596 132.098 34.1578 131.976 35.053H136.949V34.8596C136.892 33.9859 136.659 33.3271 136.251 32.8831C135.843 32.4319 135.277 32.2063 134.554 32.2063Z" fill="#31394E"/>
<path d="M36.2996 52.6741L35.7668 52.4236C19 44.5435 19 33.4768 19 20.6625V19.5263L20.1309 19.4147C25.2816 18.912 30.5156 17.1885 35.6876 14.292L36.2996 13.9494L36.9115 14.2921C42.0835 17.1886 47.3175 18.912 52.4682 19.4148L53.5991 19.5251V20.6613C53.5991 33.4767 53.5991 44.5434 36.8323 52.4236L36.2996 52.6741Z" fill="#8CCAFF"/>
<path d="M36.2988 52.6742V13.9496L36.9108 14.2923C42.0827 17.1888 47.3167 18.9122 52.4675 19.415L53.5984 19.5253V20.6615C53.5984 33.4769 53.5984 44.5436 36.8316 52.4238L36.2988 52.6742Z" fill="#5CB4FF"/>
<path d="M21.5063 21.7801C21.5125 27.6915 21.6189 32.8444 23.4256 37.4605C25.4651 42.6711 29.5637 46.6357 36.3004 49.9029C43.0371 46.6358 47.1357 42.6711 49.1751 37.4605C50.9819 32.8445 51.0882 27.6906 51.0944 21.7801C46.171 21.1423 41.2027 19.4753 36.3003 16.8157C31.3981 19.4754 26.4297 21.1422 21.5063 21.7801Z" fill="#EBEBEC"/>
<path d="M36.2954 16.8156C41.1978 19.4752 46.1661 21.142 51.0895 21.7799C51.0851 25.9909 51.0293 29.8167 50.3447 33.3379H36.2954V16.8156Z" fill="#ABCCF2"/>
<path d="M36.2963 33.3381V49.9027C29.5596 46.6356 25.461 42.671 23.4216 37.4604C22.9019 36.1326 22.5234 34.7601 22.2471 33.338H36.2963V33.3381Z" fill="#ABCCF2"/>
<g clip-path="url(#clip0)">
<path d="M39.9451 31.8855V26.9422C39.9451 24.9314 38.3093 23.2956 36.2984 23.2956C34.2876 23.2956 32.6518 24.9314 32.6518 26.9422V31.8855H30.2207V26.9422C30.2207 23.5912 32.9474 20.8645 36.2984 20.8645C39.6495 20.8645 42.3762 23.5912 42.3762 26.9422V31.8855H39.9451Z" fill="#ABC6E6"/>
<path d="M39.946 26.9422V31.8855H42.3771V26.9422C42.3771 23.5912 39.6504 20.8645 36.2993 20.8645V23.2956C38.3102 23.2956 39.946 24.9314 39.946 26.9422Z" fill="#DDE1E7"/>
<path d="M42.3767 41.6098H30.2213C29.2159 41.6098 28.3979 40.7919 28.3979 39.7865V32.4932C28.3979 31.4878 29.2159 30.6699 30.2213 30.6699H42.3767C43.3822 30.6699 44.2001 31.4878 44.2001 32.4932V39.7865C44.2001 40.7919 43.3822 41.6098 42.3767 41.6098Z" fill="#FFD102"/>
<path d="M42.3771 30.6699H36.2993V41.6098H42.3771C43.3825 41.6098 44.2004 40.7919 44.2004 39.7865V32.4932C44.2004 31.4878 43.3825 30.6699 42.3771 30.6699Z" fill="#FBB92E"/>
<path d="M38.1222 34.9244C38.1222 33.919 37.3043 33.1011 36.2989 33.1011C35.2935 33.1011 34.4756 33.919 34.4756 34.9244C34.4756 35.7162 34.9851 36.3845 35.6911 36.6361V38.571C35.6911 38.907 35.963 39.1788 36.2989 39.1788C36.6348 39.1788 36.9067 38.907 36.9067 38.571V36.6361C37.6127 36.3845 38.1222 35.7162 38.1222 34.9244Z" fill="#31394E"/>
<path d="M36.9071 38.571V36.6361C37.6131 36.3845 38.1226 35.7162 38.1226 34.9244C38.1226 33.919 37.3047 33.1011 36.2993 33.1011V39.1788C36.6353 39.1788 36.9071 38.907 36.9071 38.571Z" fill="#31394E"/>
</g>
<defs>
<linearGradient id="paint0_linear" x1="80.1948" y1="-10.5515" x2="80.1948" y2="65.673" gradientUnits="userSpaceOnUse">
<stop stop-color="white"/>
<stop offset="1" stop-color="white"/>
</linearGradient>
<clipPath id="clip0">
<rect width="20.7454" height="20.7454" fill="white" transform="translate(25.9263 20.8645)"/>
</clipPath>
</defs>
</svg>
