<svg width="275" height="58" viewBox="0 0 275 58" fill="none" xmlns="http://www.w3.org/2000/svg">
<path d="M0 16C0 7.16345 7.16344 0 16 0H258.182C267.018 0 274.182 7.16344 274.182 16V42C274.182 50.8366 267.018 58 258.182 58H16C7.16345 58 0 50.8366 0 42V16Z" fill="#CFE6FF"/>
<path d="M224.851 46.6364H223.67V38.8097L221.302 39.6793V38.6129L224.667 37.3497H224.851V46.6364ZM234.217 42.6945C234.217 44.0698 233.982 45.0918 233.512 45.7604C233.042 46.429 232.308 46.7633 231.309 46.7633C230.323 46.7633 229.593 46.4375 229.119 45.7858C228.645 45.1298 228.4 44.1523 228.383 42.8531V41.2853C228.383 39.9269 228.618 38.9176 229.088 38.2574C229.557 37.5973 230.294 37.2672 231.297 37.2672C232.291 37.2672 233.023 37.5867 233.493 38.2257C233.963 38.8605 234.204 39.8422 234.217 41.171V42.6945ZM233.042 41.0885C233.042 40.094 232.903 39.3704 232.623 38.9176C232.344 38.4606 231.902 38.2321 231.297 38.2321C230.696 38.2321 230.258 38.4585 229.983 38.9113C229.708 39.3641 229.566 40.0602 229.557 40.9996V42.8785C229.557 43.8772 229.701 44.6157 229.989 45.0939C230.281 45.5678 230.721 45.8048 231.309 45.8048C231.889 45.8048 232.319 45.5805 232.598 45.132C232.881 44.6834 233.03 43.9767 233.042 43.0118V41.0885ZM235.933 46.0206C235.933 45.8175 235.993 45.6482 236.111 45.5128C236.234 45.3774 236.416 45.3097 236.657 45.3097C236.898 45.3097 237.08 45.3774 237.203 45.5128C237.33 45.6482 237.393 45.8175 237.393 46.0206C237.393 46.2153 237.33 46.3782 237.203 46.5094C237.08 46.6406 236.898 46.7062 236.657 46.7062C236.416 46.7062 236.234 46.6406 236.111 46.5094C235.993 46.3782 235.933 46.2153 235.933 46.0206ZM235.94 40.4156C235.94 40.2125 235.999 40.0433 236.118 39.9078C236.24 39.7724 236.422 39.7047 236.663 39.7047C236.905 39.7047 237.087 39.7724 237.209 39.9078C237.336 40.0433 237.4 40.2125 237.4 40.4156C237.4 40.6103 237.336 40.7732 237.209 40.9044C237.087 41.0356 236.905 41.1012 236.663 41.1012C236.422 41.1012 236.24 41.0356 236.118 40.9044C235.999 40.7732 235.94 40.6103 235.94 40.4156ZM244.087 43.5323H245.369V44.4908H244.087V46.6364H242.906V44.4908H238.698V43.799L242.836 37.3942H244.087V43.5323ZM240.031 43.5323H242.906V39.0001L242.767 39.254L240.031 43.5323ZM247.099 42.0026L247.568 37.3942H252.304V38.4796H248.565L248.286 40.9996C248.739 40.733 249.253 40.5997 249.828 40.5997C250.67 40.5997 251.339 40.879 251.834 41.4376C252.329 41.992 252.577 42.7431 252.577 43.691C252.577 44.6432 252.319 45.3943 251.802 45.9445C251.29 46.4904 250.573 46.7633 249.65 46.7633C248.834 46.7633 248.167 46.5369 247.651 46.0841C247.135 45.6313 246.841 45.005 246.769 44.2052H247.879C247.951 44.7342 248.14 45.1341 248.444 45.4049C248.749 45.6715 249.151 45.8048 249.65 45.8048C250.196 45.8048 250.624 45.6186 250.933 45.2462C251.246 44.8738 251.402 44.3597 251.402 43.7037C251.402 43.0859 251.233 42.5908 250.895 42.2184C250.56 41.8418 250.114 41.6534 249.555 41.6534C249.043 41.6534 248.641 41.7656 248.349 41.9899L248.038 42.2438L247.099 42.0026Z" fill="#3482D5"/>
<path d="M29.5404 37.1364H27.5614V30.2355H20.035V37.1364H18.0663V22.2067H20.035V28.6256H27.5614V22.2067H29.5404V37.1364ZM34.8006 37.1364H32.9037V26.0416H34.8006V37.1364ZM32.7498 23.0988C32.7498 22.7911 32.8421 22.5314 33.0267 22.3195C33.2181 22.1075 33.4984 22.0016 33.8675 22.0016C34.2367 22.0016 34.5169 22.1075 34.7083 22.3195C34.8997 22.5314 34.9955 22.7911 34.9955 23.0988C34.9955 23.4064 34.8997 23.6627 34.7083 23.8678C34.5169 24.0729 34.2367 24.1754 33.8675 24.1754C33.4984 24.1754 33.2181 24.0729 33.0267 23.8678C32.8421 23.6627 32.7498 23.4064 32.7498 23.0988ZM39.9686 32.922H38.2562L38.1229 22.2067H40.1122L39.9686 32.922ZM38.0511 36.1827C38.0511 35.8751 38.1434 35.6188 38.328 35.4137C38.5194 35.2018 38.7997 35.0958 39.1688 35.0958C39.5379 35.0958 39.8182 35.2018 40.0096 35.4137C40.201 35.6188 40.2967 35.8751 40.2967 36.1827C40.2967 36.4904 40.201 36.7467 40.0096 36.9518C39.8182 37.15 39.5379 37.2491 39.1688 37.2491C38.7997 37.2491 38.5194 37.15 38.328 36.9518C38.1434 36.7467 38.0511 36.4904 38.0511 36.1827ZM50.8788 37.1364H48.91V22.2067H50.8788V37.1364ZM54.3241 26.4108L53.2474 25.6725C53.8831 24.7838 54.2113 23.8473 54.2318 22.8629V21.3864H56.1082V22.7194C56.1014 23.403 55.9305 24.0865 55.5956 24.7701C55.2674 25.4469 54.8436 25.9938 54.3241 26.4108ZM59.974 26.0416L60.0252 27.2721C60.8387 26.3151 61.9359 25.8365 63.3167 25.8365C64.8685 25.8365 65.9247 26.4313 66.4852 27.6207C66.8543 27.0875 67.3329 26.6569 67.9207 26.3287C68.5155 26.0006 69.2162 25.8365 70.0228 25.8365C72.4564 25.8365 73.6937 27.1251 73.7347 29.7023V37.1364H71.8377V29.8151C71.8377 29.0221 71.6566 28.4308 71.2943 28.0411C70.932 27.6447 70.3236 27.4464 69.4691 27.4464C68.765 27.4464 68.1805 27.6583 67.7157 28.0822C67.2508 28.4991 66.9808 29.0631 66.9056 29.774V37.1364H64.9984V29.8663C64.9984 28.2531 64.2088 27.4464 62.6297 27.4464C61.3856 27.4464 60.5345 27.9762 60.0765 29.0358V37.1364H58.1795V26.0416H59.974ZM82.4505 37.1364V27.5079H80.6971V26.0416H82.4505V25.0983C82.4505 23.861 82.8026 22.8971 83.5067 22.2067C84.2176 21.5162 85.2191 21.171 86.5111 21.171C87.2767 21.171 88.244 21.3795 89.4129 21.7965L89.0951 23.3961C88.2406 23.0543 87.4271 22.8834 86.6546 22.8834C85.8412 22.8834 85.2533 23.068 84.891 23.4371C84.5355 23.7994 84.3578 24.3463 84.3578 25.0778V26.0416H86.6239V27.5079H84.3578V37.1364H82.4505ZM90.3563 37.1364H88.4491V26.0416H90.3563V37.1364ZM95.2372 26.0416L95.2987 27.4362C96.1463 26.3698 97.2538 25.8365 98.6209 25.8365C100.966 25.8365 102.148 27.1593 102.169 29.8048V37.1364H100.272V29.7946C100.265 28.9948 100.08 28.4034 99.7181 28.0206C99.3626 27.6378 98.8055 27.4464 98.0467 27.4464C97.4315 27.4464 96.8914 27.6105 96.4266 27.9386C95.9618 28.2667 95.5995 28.6974 95.3397 29.2306V37.1364H93.4427V26.0416H95.2372ZM109.634 37.3414C108.13 37.3414 106.906 36.8492 105.963 35.8649C105.019 34.8737 104.548 33.5509 104.548 31.8966V31.548C104.548 30.4474 104.756 29.4664 105.173 28.6051C105.597 27.7369 106.185 27.0602 106.937 26.5748C107.696 26.0826 108.516 25.8365 109.398 25.8365C110.84 25.8365 111.961 26.3116 112.761 27.2618C113.561 28.212 113.961 29.5724 113.961 31.3429V32.1324H106.445C106.472 33.2262 106.79 34.1115 107.398 34.7882C108.014 35.4581 108.793 35.7931 109.736 35.7931C110.406 35.7931 110.973 35.6564 111.438 35.3829C111.903 35.1095 112.31 34.7472 112.659 34.296L113.817 35.1984C112.888 36.6271 111.493 37.3414 109.634 37.3414ZM109.398 27.3951C108.632 27.3951 107.99 27.6754 107.47 28.236C106.951 28.7897 106.629 29.569 106.506 30.5739H112.064V30.4303C112.009 29.4664 111.749 28.7213 111.285 28.1949C110.82 27.6617 110.191 27.3951 109.398 27.3951ZM116.206 36.1417C116.206 35.8136 116.302 35.5402 116.493 35.3214C116.692 35.1027 116.986 34.9933 117.375 34.9933C117.765 34.9933 118.059 35.1027 118.257 35.3214C118.462 35.5402 118.565 35.8136 118.565 36.1417C118.565 36.4562 118.462 36.7194 118.257 36.9313C118.059 37.1432 117.765 37.2491 117.375 37.2491C116.986 37.2491 116.692 37.1432 116.493 36.9313C116.302 36.7194 116.206 36.4562 116.206 36.1417ZM135.453 33.2399H129.198L127.793 37.1364H125.763L131.464 22.2067H133.187L138.898 37.1364H136.878L135.453 33.2399ZM129.793 31.6198H134.868L132.326 24.6368L129.793 31.6198ZM142.405 26.0416L142.467 27.4362C143.314 26.3698 144.422 25.8365 145.789 25.8365C148.134 25.8365 149.316 27.1593 149.337 29.8048V37.1364H147.44V29.7946C147.433 28.9948 147.248 28.4034 146.886 28.0206C146.531 27.6378 145.973 27.4464 145.215 27.4464C144.599 27.4464 144.059 27.6105 143.595 27.9386C143.13 28.2667 142.767 28.6974 142.508 29.2306V37.1364H140.611V26.0416H142.405ZM151.736 31.4967C151.736 29.7946 152.139 28.4274 152.946 27.3951C153.753 26.3561 154.809 25.8365 156.115 25.8365C157.413 25.8365 158.442 26.2809 159.201 27.1696V21.3864H161.098V37.1364H159.355L159.263 35.9469C158.504 36.8766 157.448 37.3414 156.094 37.3414C154.809 37.3414 153.76 36.8151 152.946 35.7623C152.139 34.7096 151.736 33.3356 151.736 31.6403V31.4967ZM153.633 31.712C153.633 32.9698 153.893 33.9542 154.412 34.6652C154.932 35.3761 155.65 35.7316 156.566 35.7316C157.769 35.7316 158.647 35.1915 159.201 34.1115V29.0153C158.634 27.9694 157.762 27.4464 156.586 27.4464C155.657 27.4464 154.932 27.8053 154.412 28.5231C153.893 29.2408 153.633 30.3038 153.633 31.712ZM180.068 22.2067V32.358C180.061 33.7662 179.617 34.9181 178.735 35.8136C177.86 36.7091 176.67 37.2115 175.166 37.3209L174.643 37.3414C173.01 37.3414 171.707 36.9005 170.737 36.0187C169.766 35.1368 169.274 33.9235 169.26 32.3785V22.2067H171.208V32.317C171.208 33.3971 171.506 34.2379 172.1 34.8395C172.695 35.4342 173.543 35.7316 174.643 35.7316C175.758 35.7316 176.609 35.4342 177.197 34.8395C177.791 34.2448 178.089 33.4073 178.089 32.3273V22.2067H180.068ZM185.102 32.9323C185.116 32.1188 185.208 31.4762 185.379 31.0045C185.55 30.5328 185.899 30.0099 186.425 29.4357L187.768 28.0514C188.343 27.402 188.63 26.7047 188.63 25.9596C188.63 25.2418 188.442 24.6813 188.066 24.278C187.69 23.8678 187.143 23.6627 186.425 23.6627C185.728 23.6627 185.167 23.8473 184.743 24.2164C184.32 24.5856 184.108 25.0812 184.108 25.7032H182.211C182.224 24.5958 182.618 23.7037 183.39 23.027C184.169 22.3434 185.181 22.0016 186.425 22.0016C187.717 22.0016 188.722 22.3502 189.44 23.0475C190.164 23.7379 190.527 24.6881 190.527 25.8981C190.527 27.0944 189.973 28.2736 188.866 29.4357L187.748 30.5431C187.249 31.0968 186.999 31.8932 186.999 32.9323H185.102ZM185.02 36.1827C185.02 35.8751 185.113 35.6188 185.297 35.4137C185.489 35.2018 185.769 35.0958 186.138 35.0958C186.507 35.0958 186.787 35.2018 186.979 35.4137C187.17 35.6188 187.266 35.8751 187.266 36.1827C187.266 36.4904 187.17 36.7467 186.979 36.9518C186.787 37.15 186.507 37.2491 186.138 37.2491C185.769 37.2491 185.489 37.15 185.297 36.9518C185.113 36.7467 185.02 36.4904 185.02 36.1827Z" fill="#31394E"/>
</svg>
