<svg width="146" height="87" viewBox="0 0 146 87" fill="none" xmlns="http://www.w3.org/2000/svg">
<rect width="145" height="82" rx="14" fill="white"/>
<path d="M28.3844 62.7734V67H26.4078V55.625H30.7594C32.0302 55.625 33.038 55.9557 33.7828 56.6172C34.5328 57.2786 34.9078 58.1536 34.9078 59.2422C34.9078 60.3568 34.5406 61.224 33.8063 61.8438C33.0771 62.4635 32.0536 62.7734 30.7359 62.7734H28.3844ZM28.3844 61.1875H30.7594C31.4625 61.1875 31.999 61.0234 32.3688 60.6953C32.7385 60.362 32.9234 59.8828 32.9234 59.2578C32.9234 58.6432 32.7359 58.1536 32.3609 57.7891C31.9859 57.4193 31.4703 57.2292 30.8141 57.2188H28.3844V61.1875ZM36.3138 62.6953C36.3138 61.8672 36.4778 61.1224 36.8059 60.4609C37.1341 59.7943 37.595 59.2839 38.1888 58.9297C38.7825 58.5703 39.4648 58.3906 40.2356 58.3906C41.3763 58.3906 42.3007 58.7578 43.0091 59.4922C43.7226 60.2266 44.108 61.2005 44.1653 62.4141L44.1731 62.8594C44.1731 63.6927 44.0117 64.4375 43.6888 65.0938C43.371 65.75 42.9127 66.2578 42.3138 66.6172C41.72 66.9766 41.0325 67.1562 40.2513 67.1562C39.0585 67.1562 38.1028 66.7604 37.3841 65.9688C36.6705 65.1719 36.3138 64.112 36.3138 62.7891V62.6953ZM38.2122 62.8594C38.2122 63.7292 38.3919 64.4115 38.7513 64.9062C39.1106 65.3958 39.6106 65.6406 40.2513 65.6406C40.8919 65.6406 41.3893 65.3906 41.7434 64.8906C42.1028 64.3906 42.2825 63.6589 42.2825 62.6953C42.2825 61.8411 42.0976 61.1641 41.7278 60.6641C41.3632 60.1641 40.8658 59.9141 40.2356 59.9141C39.6158 59.9141 39.1236 60.1615 38.7591 60.6562C38.3945 61.1458 38.2122 61.8802 38.2122 62.8594ZM48.1181 67H46.2197V55H48.1181V67ZM53.4694 64.2812L55.1881 58.5469H57.2116L53.8522 68.2812C53.3366 69.7031 52.4616 70.4141 51.2272 70.4141C50.9511 70.4141 50.6465 70.3672 50.3131 70.2734V68.8047L50.6725 68.8281C51.1517 68.8281 51.511 68.7396 51.7506 68.5625C51.9954 68.3906 52.1881 68.099 52.3288 67.6875L52.6022 66.9609L49.6334 58.5469H51.6803L53.4694 64.2812ZM63.555 67C63.4717 66.8385 63.3988 66.5755 63.3363 66.2109C62.7321 66.8411 61.9925 67.1562 61.1175 67.1562C60.2685 67.1562 59.5758 66.9141 59.0394 66.4297C58.5029 65.9453 58.2347 65.3464 58.2347 64.6328C58.2347 63.7318 58.568 63.0417 59.2347 62.5625C59.9066 62.0781 60.8649 61.8359 62.1097 61.8359H63.2738V61.2812C63.2738 60.8438 63.1514 60.4948 62.9066 60.2344C62.6618 59.9688 62.2894 59.8359 61.7894 59.8359C61.3571 59.8359 61.0029 59.9453 60.7269 60.1641C60.4508 60.3776 60.3128 60.651 60.3128 60.9844H58.4144C58.4144 60.5208 58.568 60.0885 58.8753 59.6875C59.1826 59.2812 59.5993 58.9635 60.1253 58.7344C60.6566 58.5052 61.2477 58.3906 61.8988 58.3906C62.8883 58.3906 63.6774 58.6406 64.2659 59.1406C64.8545 59.6354 65.1566 60.3333 65.1722 61.2344V65.0469C65.1722 65.8073 65.279 66.4141 65.4925 66.8672V67H63.555ZM61.4691 65.6328C61.8441 65.6328 62.1956 65.5417 62.5238 65.3594C62.8571 65.1771 63.1071 64.9323 63.2738 64.625V63.0312H62.2503C61.5472 63.0312 61.0185 63.1536 60.6644 63.3984C60.3102 63.6432 60.1331 63.9896 60.1331 64.4375C60.1331 64.8021 60.2529 65.0938 60.4925 65.3125C60.7373 65.526 61.0628 65.6328 61.4691 65.6328ZM69.2656 58.5469L69.3203 59.4297C69.9141 58.737 70.7266 58.3906 71.7578 58.3906C72.888 58.3906 73.6615 58.8229 74.0781 59.6875C74.6927 58.8229 75.5573 58.3906 76.6719 58.3906C77.6042 58.3906 78.2969 58.6484 78.75 59.1641C79.2083 59.6797 79.4427 60.4401 79.4531 61.4453V67H77.5547V61.5C77.5547 60.9635 77.4375 60.5703 77.2031 60.3203C76.9688 60.0703 76.5807 59.9453 76.0391 59.9453C75.6068 59.9453 75.2526 60.0625 74.9766 60.2969C74.7057 60.526 74.5156 60.8281 74.4062 61.2031L74.4141 67H72.5156V61.4375C72.4896 60.4427 71.9818 59.9453 70.9922 59.9453C70.2318 59.9453 69.6927 60.2552 69.375 60.875V67H67.4766V58.5469H69.2656ZM81.3669 62.6953C81.3669 61.8672 81.5309 61.1224 81.8591 60.4609C82.1872 59.7943 82.6481 59.2839 83.2419 58.9297C83.8356 58.5703 84.5179 58.3906 85.2887 58.3906C86.4294 58.3906 87.3539 58.7578 88.0622 59.4922C88.7757 60.2266 89.1611 61.2005 89.2184 62.4141L89.2262 62.8594C89.2262 63.6927 89.0648 64.4375 88.7419 65.0938C88.4242 65.75 87.9658 66.2578 87.3669 66.6172C86.7731 66.9766 86.0856 67.1562 85.3044 67.1562C84.1117 67.1562 83.1559 66.7604 82.4372 65.9688C81.7236 65.1719 81.3669 64.112 81.3669 62.7891V62.6953ZM83.2653 62.8594C83.2653 63.7292 83.445 64.4115 83.8044 64.9062C84.1637 65.3958 84.6637 65.6406 85.3044 65.6406C85.945 65.6406 86.4424 65.3906 86.7966 64.8906C87.1559 64.3906 87.3356 63.6589 87.3356 62.6953C87.3356 61.8411 87.1507 61.1641 86.7809 60.6641C86.4164 60.1641 85.919 59.9141 85.2887 59.9141C84.669 59.9141 84.1768 60.1615 83.8122 60.6562C83.4476 61.1458 83.2653 61.8802 83.2653 62.8594ZM95.5775 60.2812C95.3275 60.2396 95.0697 60.2188 94.8041 60.2188C93.9343 60.2188 93.3483 60.5521 93.0462 61.2188V67H91.1478V58.5469H92.9603L93.0072 59.4922C93.4655 58.7578 94.1009 58.3906 94.9134 58.3906C95.1843 58.3906 95.4082 58.4271 95.5853 58.5L95.5775 60.2812ZM96.46 62.6953C96.46 61.8672 96.6241 61.1224 96.9522 60.4609C97.2803 59.7943 97.7412 59.2839 98.335 58.9297C98.9287 58.5703 99.611 58.3906 100.382 58.3906C101.522 58.3906 102.447 58.7578 103.155 59.4922C103.869 60.2266 104.254 61.2005 104.312 62.4141L104.319 62.8594C104.319 63.6927 104.158 64.4375 103.835 65.0938C103.517 65.75 103.059 66.2578 102.46 66.6172C101.866 66.9766 101.179 67.1562 100.397 67.1562C99.2048 67.1562 98.2491 66.7604 97.5303 65.9688C96.8168 65.1719 96.46 64.112 96.46 62.7891V62.6953ZM98.3584 62.8594C98.3584 63.7292 98.5381 64.4115 98.8975 64.9062C99.2569 65.3958 99.7569 65.6406 100.397 65.6406C101.038 65.6406 101.536 65.3906 101.89 64.8906C102.249 64.3906 102.429 63.6589 102.429 62.6953C102.429 61.8411 102.244 61.1641 101.874 60.6641C101.509 60.1641 101.012 59.9141 100.382 59.9141C99.7621 59.9141 99.2699 60.1615 98.9053 60.6562C98.5407 61.1458 98.3584 61.8802 98.3584 62.8594ZM111.366 66.1719C110.809 66.8281 110.017 67.1562 108.991 67.1562C108.074 67.1562 107.379 66.888 106.905 66.3516C106.436 65.8151 106.202 65.0391 106.202 64.0234V58.5469H108.1V64C108.1 65.0729 108.546 65.6094 109.436 65.6094C110.358 65.6094 110.981 65.2786 111.303 64.6172V58.5469H113.202V67H111.413L111.366 66.1719ZM120.194 64.7031C120.194 64.3646 120.053 64.1068 119.772 63.9297C119.496 63.7526 119.035 63.5964 118.389 63.4609C117.743 63.3255 117.204 63.1536 116.772 62.9453C115.824 62.487 115.35 61.8229 115.35 60.9531C115.35 60.224 115.657 59.6146 116.272 59.125C116.886 58.6354 117.668 58.3906 118.616 58.3906C119.626 58.3906 120.441 58.6406 121.061 59.1406C121.686 59.6406 121.998 60.2891 121.998 61.0859H120.1C120.1 60.7214 119.965 60.4193 119.694 60.1797C119.423 59.9349 119.064 59.8125 118.616 59.8125C118.199 59.8125 117.858 59.9089 117.592 60.1016C117.332 60.2943 117.202 60.5521 117.202 60.875C117.202 61.1667 117.324 61.3932 117.569 61.5547C117.814 61.7161 118.308 61.8802 119.053 62.0469C119.798 62.2083 120.381 62.4036 120.803 62.6328C121.23 62.8568 121.545 63.1276 121.748 63.4453C121.957 63.763 122.061 64.1484 122.061 64.6016C122.061 65.362 121.746 65.9792 121.116 66.4531C120.485 66.9219 119.66 67.1562 118.639 67.1562C117.946 67.1562 117.329 67.0312 116.787 66.7812C116.246 66.5312 115.824 66.1875 115.522 65.75C115.22 65.3125 115.069 64.8411 115.069 64.3359H116.912C116.939 64.7839 117.108 65.1302 117.42 65.375C117.733 65.6146 118.147 65.7344 118.662 65.7344C119.162 65.7344 119.543 65.6406 119.803 65.4531C120.064 65.2604 120.194 65.0104 120.194 64.7031Z" fill="#31394E"/>
<g clip-path="url(#clip0)">
<path d="M76.795 13.5691C75.3086 9.37097 83.139 10.8495 80.1509 14.2028C83.139 10.8495 85.7401 18.1962 81.2656 17.3513C85.7401 18.1962 80.5108 24.0644 79.0245 19.8662C80.5108 24.0644 72.6805 22.5858 75.6686 19.2326C72.6805 22.5858 70.0793 15.2392 74.5538 16.084C70.0793 15.2391 75.3087 9.37097 76.795 13.5691Z" fill="#FFC477"/>
<path d="M70.2052 13.5691C71.6915 9.37097 63.8611 10.8495 66.8493 14.2028C63.8611 10.8495 61.26 18.1962 65.7345 17.3513C61.26 18.1962 66.4893 24.0644 67.9756 19.8662C66.4893 24.0644 74.3197 22.5858 71.3315 19.2326C74.3197 22.5858 76.9208 15.2392 72.4463 16.084C76.9208 15.2391 71.6915 9.37097 70.2052 13.5691Z" fill="#FFEB99"/>
<path d="M72.4462 16.0839C72.7805 16.0207 73.0595 15.9291 73.2911 15.8162C72.1523 14.5429 70.3968 13.8936 68.6332 14.2662C66.9203 14.6282 65.6242 15.8644 65.0974 17.4181C65.2918 17.4155 65.5031 17.3949 65.7345 17.3513C61.26 18.1961 66.4893 24.0643 67.9756 19.8662C66.4893 24.0643 74.3197 22.5858 71.3315 19.2326C74.3197 22.5857 76.9207 15.239 72.4462 16.0839Z" fill="#FFDE55"/>
<path d="M74.5538 16.0839C74.2195 16.0207 73.9405 15.9291 73.709 15.8162C74.8477 14.5429 76.6033 13.8936 78.3669 14.2662C80.0798 14.6282 81.376 15.8644 81.9028 17.4181C81.7083 17.4155 81.497 17.3949 81.2657 17.3513C85.7402 18.1961 80.5109 24.0643 79.0245 19.8662C80.5109 24.0643 72.6805 22.5858 75.6686 19.2326C72.6804 22.5857 70.0794 15.239 74.5538 16.0839Z" fill="#FFB655"/>
<path d="M86.0868 28.9642L73.4997 25.9387L60.9129 28.9642C60.9129 28.9642 57.8636 40.3938 73.4997 40.3938C89.1358 40.3938 86.0868 28.9642 86.0868 28.9642Z" fill="#CAE7FC"/>
<path d="M69.9164 36.8558C66.2305 34.619 66.4414 30.3798 67.1402 27.4672L60.9129 28.964C60.9129 28.964 57.8636 40.3936 73.4997 40.3936C74.343 40.3936 75.1321 40.3604 75.8701 40.2974C74.962 39.8272 73.2105 38.8547 69.9164 36.8558Z" fill="#B3DBF4"/>
<path d="M76.7891 41.7206H70.2118L67.9389 44.4951C66.8227 45.8576 67.4676 47.8855 69.1779 48.3976C70.3149 48.738 71.7564 48.9999 73.5006 48.9999C75.2447 48.9999 76.6861 48.7381 77.8232 48.3976C79.5335 47.8855 80.1783 45.8575 79.0622 44.4951L76.7891 41.7206Z" fill="#CAE7FC"/>
<path d="M74.2432 48.3977C72.5329 47.8856 71.8881 45.8577 73.0042 44.4952L75.277 41.7207H70.2118L67.9389 44.4952C66.8227 45.8577 67.4676 47.8857 69.1779 48.3977C70.3149 48.7382 71.7564 49 73.5006 49C74.4314 49 75.2751 48.925 76.0332 48.8036C75.3707 48.6976 74.7734 48.5565 74.2432 48.3977Z" fill="#B3DBF4"/>
<path d="M76.8798 43.2866H70.1198C69.2359 43.2866 68.5127 42.582 68.5127 41.7208C68.5127 40.8595 69.2359 40.1549 70.1198 40.1549H76.8798C77.7637 40.1549 78.4869 40.8595 78.4869 41.7208C78.4869 42.5819 77.7637 43.2866 76.8798 43.2866Z" fill="#FFA5B5"/>
<path d="M72.4671 41.7207C72.4671 40.8594 73.1903 40.1548 74.0742 40.1548H70.1198C69.2359 40.1548 68.5127 40.8594 68.5127 41.7207C68.5127 42.5819 69.2359 43.2865 70.1198 43.2865H74.0742C73.1903 43.2866 72.4671 42.5819 72.4671 41.7207Z" fill="#FF737D"/>
<path d="M70.8226 33.9235C72.5933 31.4518 72.7189 28.5572 71.103 27.4581C69.4871 26.3591 66.7416 27.4718 64.9709 29.9435C63.2001 32.4151 63.0746 35.3098 64.6905 36.4088C66.3064 37.5079 69.0518 36.3952 70.8226 33.9235Z" fill="#71D8C5"/>
<path d="M64.6908 36.408C65.7513 37.1293 67.2984 36.8977 68.737 35.9545C66.4324 33.7419 66.5086 30.4374 67.0378 27.9236C66.2914 28.4165 65.5747 29.1007 64.9712 29.9429C63.2008 32.4147 63.0751 35.3092 64.6908 36.408Z" fill="#60C6B7"/>
<path d="M71.1028 27.4574C70.9384 27.3456 70.7617 27.2578 70.5759 27.1909L66.0034 33.5738C65.8174 33.8335 65.8827 34.191 66.1491 34.3722C66.2517 34.442 66.6956 34.6031 66.9686 34.2302L71.5411 27.8474C71.4127 27.7007 71.2673 27.5693 71.1028 27.4574Z" fill="#4DB5A6"/>
<path d="M66.8746 32.3574L66.0034 33.5736C65.8174 33.8333 65.8827 34.1908 66.1491 34.3719C66.2517 34.4418 66.6956 34.6028 66.9686 34.23L67.2831 33.791C67.0961 33.3261 66.9628 32.8451 66.8746 32.3574Z" fill="#3DA094"/>
<path d="M76.1758 33.924C77.9466 36.3957 80.692 37.5084 82.3079 36.4094C83.9238 35.3103 83.7983 32.4157 82.0275 29.944C80.2568 27.4723 77.5113 26.3596 75.8954 27.4587C74.2795 28.5577 74.4051 31.4524 76.1758 33.924Z" fill="#71D8C5"/>
<path d="M80.9968 33.5737L76.4243 27.1909C76.2387 27.2578 76.062 27.3456 75.8974 27.4574C75.7329 27.5693 75.5875 27.7007 75.459 27.8474L80.0315 34.2302C80.3406 34.598 80.7484 34.442 80.851 34.3722C81.1176 34.1909 81.1828 33.8335 80.9968 33.5737Z" fill="#4DB5A6"/>
<path d="M66.8483 20.4511C68.6998 15.2214 58.9453 17.0633 62.6678 21.2405C58.9454 17.0633 55.7052 26.2152 61.2792 25.1627C55.7052 26.2151 62.2196 33.5253 64.0711 28.2956C62.2196 33.5253 71.9741 31.6834 68.2516 27.5062C71.974 31.6834 75.2142 22.5315 69.6402 23.584C75.2142 22.5315 68.6999 15.2214 66.8483 20.4511Z" fill="#FF737D"/>
<path d="M69.6397 23.5841C75.2137 22.5317 68.6994 15.2215 66.8479 20.4512C67.0177 19.9716 67.0896 19.5516 67.0835 19.1873C64.5038 19.4993 62.5068 21.6415 62.5068 24.2393C62.5068 27.0519 64.8469 29.3319 67.7334 29.3319C68.1347 29.3319 68.5991 29.2858 69.1002 29.2001C69.0604 28.6976 68.805 28.1278 68.2511 27.5062C71.9735 31.6835 75.2137 22.5316 69.6397 23.5841Z" fill="#FF5555"/>
<path d="M80.1521 20.4511C78.3006 15.2214 88.0551 17.0633 84.3326 21.2405C88.055 17.0633 91.2952 26.2152 85.7212 25.1627C91.2952 26.2151 84.7809 33.5253 82.9294 28.2956C84.7809 33.5253 75.0264 31.6834 78.7489 27.5062C75.0265 31.6834 71.7863 22.5315 77.3603 23.584C71.7863 22.5315 78.3006 15.2214 80.1521 20.4511Z" fill="#FF737D"/>
<path d="M77.3603 23.5841C71.7863 22.5317 78.3006 15.2215 80.1521 20.4512C79.9823 19.9716 79.9104 19.5516 79.9165 19.1873C82.4962 19.4993 84.4932 21.6415 84.4932 24.2393C84.4932 27.0519 82.1531 29.3319 79.2666 29.3319C78.8653 29.3319 78.4009 29.2858 77.8998 29.2001C77.9396 28.6976 78.1951 28.1278 78.7489 27.5062C75.0265 31.6835 71.7863 22.5316 77.3603 23.5841Z" fill="#FF5555"/>
<path d="M67.6138 17.8546C66.6637 18.7648 65.984 19.9118 65.6501 21.1687C65.3532 22.2864 66.2277 23.375 67.4126 23.3751L73.5004 23.3755L70.4561 18.2386C69.8636 17.2388 68.4588 17.0452 67.6138 17.8546Z" fill="#F490C0"/>
<path d="M71.5366 31.1031C72.8208 31.4498 74.18 31.4498 75.4642 31.1031C76.6061 30.7948 77.1364 29.5126 76.5439 28.5126L73.5003 23.3755L70.4567 28.5127C69.8643 29.5126 70.3945 30.7948 71.5366 31.1031Z" fill="#F490C0"/>
<path d="M75.4641 15.6479C74.1799 15.3013 72.8207 15.3013 71.5365 15.6479C70.3946 15.9563 69.8643 17.2385 70.4567 18.2384L73.5003 23.3757L76.5439 18.2385C77.1363 17.2385 76.606 15.9563 75.4641 15.6479Z" fill="#F7AFD1"/>
<path d="M65.6502 25.5826C65.984 26.8395 66.6637 27.9865 67.6139 28.8967C68.4588 29.7061 69.8636 29.5125 70.4561 28.5126L73.5004 23.3759L67.4126 23.3762C66.2277 23.3763 65.3532 24.4649 65.6502 25.5826Z" fill="#F7AFD1"/>
<path d="M79.3866 28.8967C80.3367 27.9865 81.0164 26.8395 81.3503 25.5826C81.6472 24.4649 80.7727 23.3763 79.5878 23.3762L73.5 23.3759L76.5443 28.5127C77.1368 29.5125 78.5416 29.7061 79.3866 28.8967Z" fill="#F7AFD1"/>
<path d="M81.3503 21.1688C81.0164 19.9119 80.3367 18.7649 79.3866 17.8547C78.5416 17.0453 77.1368 17.2389 76.5443 18.2388L73.5 23.3755L79.5878 23.3751C80.7727 23.375 81.6472 22.2864 81.3503 21.1688Z" fill="#F490C0"/>
<path d="M70.6172 18.5094L73.5001 23.3755L76.383 18.5094C75.5341 18.0301 74.5499 17.7542 73.5001 17.7542C72.4503 17.7541 71.466 18.0301 70.6172 18.5094Z" fill="#F490C0"/>
<path d="M70.6164 28.2413L73.4999 23.3756L67.7334 23.376C67.7318 24.3319 67.9787 25.3005 68.5035 26.1863C69.0285 27.0721 69.7659 27.7646 70.6164 28.2413Z" fill="#F490C0"/>
<path d="M79.2665 23.376L73.5 23.3756L76.3836 28.2413C77.234 27.7647 77.9714 27.0721 78.4963 26.1864C79.0212 25.3005 79.268 24.3319 79.2665 23.376Z" fill="#F490C0"/>
<path d="M67.7334 23.3752L73.4999 23.3756L70.6164 18.5099C69.7659 18.9865 69.0285 19.6791 68.5036 20.5649C67.9787 21.4507 67.7318 22.4191 67.7334 23.3752Z" fill="#F072AE"/>
<path d="M76.3831 28.2416L73.5001 23.3755L70.6172 28.2416C71.466 28.7209 72.4503 28.9968 73.5001 28.9968C74.5499 28.9968 75.5342 28.7209 76.3831 28.2416Z" fill="#F072AE"/>
<path d="M76.3836 18.5099L73.5 23.3756L79.2665 23.3752C79.2681 22.4193 79.0212 21.4507 78.4964 20.5649C77.9715 19.6791 77.234 18.9865 76.3836 18.5099Z" fill="#F072AE"/>
<path d="M73.4996 25.9386C74.9523 25.9386 76.13 24.7911 76.13 23.3756C76.13 21.9601 74.9523 20.8126 73.4996 20.8126C72.0468 20.8126 70.8691 21.9601 70.8691 23.3756C70.8691 24.7911 72.0468 25.9386 73.4996 25.9386Z" fill="#FFEB99"/>
</g>
<defs>
<clipPath id="clip0">
<rect width="39" height="38" fill="white" transform="translate(54 11)"/>
</clipPath>
</defs>
</svg>
