<svg width="209" height="67" viewBox="0 0 209 67" fill="none" xmlns="http://www.w3.org/2000/svg">
<path d="M0.5 52L0.5 15C0.5 6.99188 6.99189 0.500011 15 0.500024L194 0.500306C202.008 0.500319 208.5 6.99219 208.5 15.0003V52C208.5 60.0081 202.008 66.5 194 66.5L15 66.5C6.99187 66.5 0.5 60.0081 0.5 52Z" fill="url(#paint0_linear)" stroke="#EEF4FC"/>
<path d="M24.6191 39.9058C24.6191 41.3265 25.7698 42.4772 27.1906 42.4772H37.4764C38.897 42.4772 40.0477 41.3265 40.0477 39.9058V24.4772H24.6191V39.9058Z" fill="#E73656"/>
<path d="M36.8335 20.6191L35.5478 19.3334H29.1192L27.8335 20.6191H23.3335V23.1905H41.3335V20.6191H36.8335Z" fill="#E73656"/>
<path d="M64.9959 40.3334V23.9818H70.0271C71.4646 23.9818 72.7486 24.3075 73.8792 24.9589C75.0172 25.6027 75.9044 26.5236 76.5408 27.7216C77.1772 28.912 77.4954 30.2671 77.4954 31.787V32.5394C77.4954 34.0593 77.1809 35.4107 76.552 36.5936C75.9306 37.7766 75.0509 38.6937 73.9129 39.3451C72.7748 39.9965 71.4908 40.3259 70.0608 40.3334H64.9959ZM68.365 26.7108V37.6268H69.9934C71.3111 37.6268 72.3181 37.1963 73.0144 36.3353C73.7107 35.4743 74.0663 34.2427 74.0813 32.6405V31.7758C74.0813 30.1136 73.7369 28.8558 73.0481 28.0023C72.3593 27.1413 71.3523 26.7108 70.0271 26.7108H68.365ZM85.7943 40.558C84.0123 40.558 82.5599 40.0114 81.4368 38.9183C80.3213 37.8252 79.7635 36.369 79.7635 34.5497V34.2352C79.7635 33.0149 79.9993 31.9255 80.471 30.9672C80.9427 30.0013 81.609 29.2601 82.47 28.7435C83.3385 28.2194 84.3268 27.9574 85.4349 27.9574C87.097 27.9574 88.4035 28.4815 89.3543 29.5297C90.3126 30.5778 90.7918 32.064 90.7918 33.9882V35.3134H83.054C83.1588 36.107 83.4733 36.7434 83.9974 37.2225C84.529 37.7017 85.199 37.9413 86.0076 37.9413C87.258 37.9413 88.235 37.4883 88.9388 36.5824L90.5335 38.368C90.0469 39.0568 89.388 39.5959 88.5569 39.9852C87.7259 40.3671 86.805 40.558 85.7943 40.558ZM85.4236 30.5853C84.7798 30.5853 84.2557 30.8024 83.8514 31.2367C83.4546 31.6709 83.2 32.2924 83.0877 33.101H87.6024V32.8427C87.5874 32.1239 87.3927 31.5699 87.0184 31.1805C86.644 30.7837 86.1124 30.5853 85.4236 30.5853ZM96.5301 40.3334H93.2733V23.0834H96.5301V40.3334ZM105.267 40.558C103.485 40.558 102.033 40.0114 100.91 38.9183C99.794 37.8252 99.2362 36.369 99.2362 34.5497V34.2352C99.2362 33.0149 99.4721 31.9255 99.9437 30.9672C100.415 30.0013 101.082 29.2601 101.943 28.7435C102.811 28.2194 103.8 27.9574 104.908 27.9574C106.57 27.9574 107.876 28.4815 108.827 29.5297C109.785 30.5778 110.265 32.064 110.265 33.9882V35.3134H102.527C102.632 36.107 102.946 36.7434 103.47 37.2225C104.002 37.7017 104.672 37.9413 105.48 37.9413C106.731 37.9413 107.708 37.4883 108.412 36.5824L110.006 38.368C109.52 39.0568 108.861 39.5959 108.03 39.9852C107.199 40.3671 106.278 40.558 105.267 40.558ZM104.896 30.5853C104.253 30.5853 103.728 30.8024 103.324 31.2367C102.927 31.6709 102.673 32.2924 102.56 33.101H107.075V32.8427C107.06 32.1239 106.865 31.5699 106.491 31.1805C106.117 30.7837 105.585 30.5853 104.896 30.5853ZM116.463 25.1947V28.182H118.541V30.5629H116.463V36.6273C116.463 37.0765 116.549 37.3985 116.722 37.5931C116.894 37.7878 117.223 37.8851 117.71 37.8851C118.069 37.8851 118.387 37.8589 118.664 37.8065V40.266C118.028 40.4607 117.373 40.558 116.699 40.558C114.423 40.558 113.263 39.4087 113.218 37.1102V30.5629H111.443V28.182H113.218V25.1947H116.463ZM126.402 40.558C124.62 40.558 123.167 40.0114 122.044 38.9183C120.929 37.8252 120.371 36.369 120.371 34.5497V34.2352C120.371 33.0149 120.607 31.9255 121.079 30.9672C121.55 30.0013 122.217 29.2601 123.078 28.7435C123.946 28.2194 124.934 27.9574 126.042 27.9574C127.705 27.9574 129.011 28.4815 129.962 29.5297C130.92 30.5778 131.399 32.064 131.399 33.9882V35.3134H123.662C123.766 36.107 124.081 36.7434 124.605 37.2225C125.137 37.7017 125.807 37.9413 126.615 37.9413C127.866 37.9413 128.843 37.4883 129.546 36.5824L131.141 38.368C130.654 39.0568 129.996 39.5959 129.165 39.9852C128.333 40.3671 127.413 40.558 126.402 40.558ZM126.031 30.5853C125.387 30.5853 124.863 30.8024 124.459 31.2367C124.062 31.6709 123.808 32.2924 123.695 33.101H128.21V32.8427C128.195 32.1239 128 31.5699 127.626 31.1805C127.252 30.7837 126.72 30.5853 126.031 30.5853ZM144.954 37.9413C145.553 37.9413 146.039 37.7766 146.414 37.4471C146.788 37.1177 146.983 36.6797 146.998 36.1332H150.041C150.034 36.9567 149.809 37.7129 149.367 38.4017C148.926 39.083 148.319 39.6146 147.548 39.9965C146.784 40.3708 145.938 40.558 145.01 40.558C143.273 40.558 141.903 40.0077 140.899 38.9071C139.896 37.799 139.395 36.2717 139.395 34.3251V34.1117C139.395 32.2399 139.892 30.7463 140.888 29.6307C141.884 28.5152 143.25 27.9574 144.987 27.9574C146.507 27.9574 147.724 28.3916 148.637 29.2601C149.558 30.1211 150.026 31.2704 150.041 32.7079H146.998C146.983 32.079 146.788 31.5699 146.414 31.1805C146.039 30.7837 145.545 30.5853 144.931 30.5853C144.175 30.5853 143.602 30.8623 143.213 31.4164C142.831 31.9629 142.64 32.8539 142.64 34.0892V34.4261C142.64 35.6765 142.831 36.5749 143.213 37.1215C143.595 37.668 144.175 37.9413 144.954 37.9413ZM155.521 29.5072C156.382 28.474 157.464 27.9574 158.767 27.9574C161.402 27.9574 162.739 29.4885 162.776 32.5507V40.3334H159.53V32.6405C159.53 31.9442 159.381 31.4314 159.081 31.1019C158.782 30.765 158.284 30.5966 157.587 30.5966C156.637 30.5966 155.948 30.9634 155.521 31.6971V40.3334H152.275V23.0834H155.521V29.5072ZM172.726 40.3334C172.576 40.0414 172.467 39.6783 172.4 39.244C171.614 40.12 170.592 40.558 169.334 40.558C168.144 40.558 167.155 40.2136 166.369 39.5248C165.591 38.836 165.201 37.9675 165.201 36.9193C165.201 35.6316 165.677 34.6433 166.628 33.9545C167.586 33.2657 168.967 32.9175 170.772 32.91H172.265V32.2137C172.265 31.6522 172.119 31.203 171.827 30.8661C171.543 30.5292 171.09 30.3607 170.468 30.3607C169.922 30.3607 169.491 30.4917 169.177 30.7538C168.87 31.0158 168.716 31.3752 168.716 31.8319H165.471C165.471 31.1281 165.688 30.4768 166.122 29.8778C166.556 29.2788 167.17 28.8109 167.964 28.474C168.758 28.1296 169.649 27.9574 170.637 27.9574C172.134 27.9574 173.321 28.3355 174.197 29.0917C175.08 29.8404 175.522 30.896 175.522 32.2587V37.5258C175.53 38.6788 175.691 39.551 176.005 40.1425V40.3334H172.726ZM170.042 38.076C170.521 38.076 170.963 37.9712 171.367 37.7616C171.771 37.5445 172.071 37.2562 172.265 36.8969V34.808H171.052C169.428 34.808 168.563 35.3695 168.458 36.4926L168.447 36.6835C168.447 37.0878 168.589 37.4209 168.874 37.683C169.158 37.945 169.547 38.076 170.042 38.076ZM182.361 25.1947V28.182H184.439V30.5629H182.361V36.6273C182.361 37.0765 182.447 37.3985 182.619 37.5931C182.792 37.7878 183.121 37.8851 183.608 37.8851C183.967 37.8851 184.285 37.8589 184.562 37.8065V40.266C183.926 40.4607 183.271 40.558 182.597 40.558C180.321 40.558 179.16 39.4087 179.115 37.1102V30.5629H177.341V28.182H179.115V25.1947H182.361Z" fill="#E44A66"/>
<defs>
<linearGradient id="paint0_linear" x1="95.1047" y1="-11.0804" x2="95.1047" y2="68.2374" gradientUnits="userSpaceOnUse">
<stop stop-color="white"/>
<stop offset="1" stop-color="white"/>
</linearGradient>
</defs>
</svg>
