<svg width="120" height="87" viewBox="0 0 120 87" fill="none" xmlns="http://www.w3.org/2000/svg">
<path d="M53.2488 32.2288L53.2474 32.227C51.403 29.7416 48.804 27.9723 45.8737 27.1931C42.944 26.4141 39.8439 26.6671 37.0687 27.9139L37.0598 27.9179C34.5656 29.0218 32.2902 30.9056 30.4132 33.4755L28.9983 35.4126L27.5856 33.4739C25.7088 30.898 23.4347 29.0159 20.9434 27.9193L20.9313 27.914L20.9313 27.9139C18.1561 26.6671 15.056 26.4141 12.1263 27.1931C9.19596 27.9723 6.59703 29.7416 4.75259 32.227L4.75124 32.2288C2.80746 34.8411 1.75 38.1441 1.75 41.8197C1.75 46.9194 4.73372 52.8366 11.2304 59.4371L53.2488 32.2288ZM53.2488 32.2288C55.1925 34.8411 56.25 38.1441 56.25 41.8197C56.25 46.9196 53.266 52.8396 46.7696 59.4371C41.4997 64.789 35.2379 69.199 31.9581 71.3614C31.0712 71.9433 30.0448 72.25 29 72.25C27.9552 72.25 26.929 71.9434 26.0422 71.3615M53.2488 32.2288L26.0422 71.3615M26.0422 71.3615C22.7608 69.1999 16.5011 64.7897 11.2306 59.4374L26.0422 71.3615Z" fill="white" stroke="url(#paint0_linear)" stroke-width="3.5"/>
<path d="M113.674 28.7903L113.672 28.7882C111.006 25.2618 107.242 22.7425 102.987 21.6317C98.7311 20.5209 94.2282 20.8823 90.2005 22.6585L90.1905 22.6629L90.1905 22.6629C86.5751 24.2336 83.2971 26.905 80.6045 30.5234L78.998 32.6823L77.3941 30.5216C74.7018 26.8946 71.4253 24.2252 67.8132 22.6645L67.8063 22.6615L67.7995 22.6585C63.7718 20.8823 59.2689 20.5209 55.0134 21.6317C50.7577 22.7425 46.9937 25.2618 44.3277 28.7882L44.3262 28.7903C41.517 32.496 40 37.1665 40 42.3416C40 49.5706 44.305 57.8814 53.5265 67.0778L113.674 28.7903ZM113.674 28.7903C116.483 32.496 118 37.1665 118 42.3416C118 49.5708 113.695 57.8855 104.474 67.0778C96.9892 74.5386 88.1042 80.6795 83.4565 83.6873C82.1249 84.545 80.5785 85 79 85C77.4217 85 75.8754 84.545 74.5439 83.6876M113.674 28.7903L74.5439 83.6876M74.5439 83.6876C69.8937 80.6806 61.0117 74.5394 53.5268 67.0781L74.5439 83.6876Z" fill="white" stroke="url(#paint1_linear)" stroke-width="4"/>
<path d="M82.3333 57.8222V63.4444C82.3333 64.9778 81.2 66 79.5 66C77.8 66 76.6667 64.9778 76.6667 63.4444V57.8222C73.2667 56.8 71 53.9889 71 50.6667C71 46.3222 74.6833 43 79.5 43C84.3167 43 88 46.3222 88 50.6667C88 53.9889 85.7333 56.8 82.3333 57.8222Z" fill="#1E48C5"/>
<path d="M100 16.7327V26H94.9216V16.7327C94.9216 7.69703 88.4029 4.63366 78.5 4.63366C68.5971 4.63366 63.0784 7.69703 63.0784 16.7327V26H58V16.7327C58 5.14851 65.8039 0 78.5 0C91.1961 0 100 5.14851 100 16.7327Z" fill="white"/>
<defs>
<linearGradient id="paint0_linear" x1="29" y1="25" x2="29" y2="74" gradientUnits="userSpaceOnUse">
<stop stop-color="#2653CB"/>
<stop offset="1" stop-color="#3261D4"/>
</linearGradient>
<linearGradient id="paint1_linear" x1="79" y1="19" x2="79" y2="87" gradientUnits="userSpaceOnUse">
<stop stop-color="#204BC7"/>
<stop offset="1" stop-color="#3463D5"/>
</linearGradient>
</defs>
</svg>
