<svg width="116" height="108" viewBox="0 0 116 108" fill="none" xmlns="http://www.w3.org/2000/svg">
<rect x="0.842041" width="114.505" height="106.326" rx="23" fill="white"/>
<path d="M34.6339 85.8872C34.6339 85.356 34.4458 84.9465 34.0695 84.6587C33.6987 84.3709 33.0263 84.0804 32.0524 83.7871C31.0784 83.4938 30.3037 83.1673 29.7282 82.8076C28.6269 82.1159 28.0763 81.2139 28.0763 80.1016C28.0763 79.1276 28.472 78.3252 29.2633 77.6943C30.0602 77.0635 31.0923 76.748 32.3595 76.748C33.2007 76.748 33.9505 76.903 34.609 77.2129C35.2675 77.5228 35.785 77.9655 36.1613 78.541C36.5376 79.111 36.7257 79.7446 36.7257 80.4419H34.6339C34.6339 79.811 34.4347 79.3185 34.0363 78.9644C33.6434 78.6047 33.0789 78.4248 32.3429 78.4248C31.6567 78.4248 31.1227 78.5715 30.7409 78.8647C30.3646 79.158 30.1764 79.5675 30.1764 80.0933C30.1764 80.536 30.3812 80.9067 30.7907 81.2056C31.2002 81.4989 31.8753 81.7866 32.816 82.0688C33.7568 82.3455 34.5122 82.6637 35.0822 83.0234C35.6521 83.3776 36.07 83.7871 36.3356 84.252C36.6012 84.7113 36.734 85.2508 36.734 85.8706C36.734 86.8778 36.3466 87.6802 35.5719 88.2778C34.8027 88.87 33.7568 89.166 32.4342 89.166C31.5599 89.166 30.7547 89.0055 30.0187 88.6846C29.2882 88.3581 28.7182 87.9098 28.3087 87.3398C27.9048 86.7699 27.7028 86.1058 27.7028 85.3477H29.8029C29.8029 86.0339 30.0298 86.5651 30.4835 86.9414C30.9373 87.3177 31.5875 87.5059 32.4342 87.5059C33.1647 87.5059 33.7125 87.3592 34.0778 87.0659C34.4485 86.7671 34.6339 86.3742 34.6339 85.8872ZM41.2493 77.8354V80.0186H42.8348V81.5127H41.2493V86.5264C41.2493 86.8695 41.3157 87.1185 41.4485 87.2734C41.5869 87.4229 41.8304 87.4976 42.179 87.4976C42.4114 87.4976 42.6466 87.4699 42.8846 87.4146V88.9751C42.4253 89.1024 41.9825 89.166 41.5564 89.166C40.007 89.166 39.2322 88.311 39.2322 86.6011V81.5127H37.7547V80.0186H39.2322V77.8354H41.2493ZM49.4252 81.8613C49.1596 81.8171 48.8857 81.7949 48.6035 81.7949C47.6793 81.7949 47.0568 82.1491 46.7358 82.8574V89H44.7187V80.0186H46.6445L46.6943 81.0229C47.1813 80.2427 47.8564 79.8525 48.7197 79.8525C49.0074 79.8525 49.2454 79.8913 49.4335 79.9688L49.4252 81.8613ZM56.1569 89C56.0683 88.8285 55.9908 88.549 55.9244 88.1616C55.2825 88.8312 54.4967 89.166 53.567 89.166C52.665 89.166 51.929 88.9087 51.359 88.394C50.789 87.8794 50.504 87.243 50.504 86.4849C50.504 85.5275 50.8582 84.7943 51.5665 84.2852C52.2804 83.7705 53.2986 83.5132 54.6212 83.5132H55.858V82.9238C55.858 82.459 55.728 82.0882 55.4679 81.8115C55.2078 81.5293 54.8121 81.3882 54.2809 81.3882C53.8216 81.3882 53.4453 81.5044 53.152 81.7368C52.8587 81.9637 52.712 82.2542 52.712 82.6084H50.6949C50.6949 82.1159 50.8582 81.6566 51.1847 81.2305C51.5112 80.7988 51.9539 80.4613 52.5128 80.2178C53.0773 79.9743 53.7054 79.8525 54.3971 79.8525C55.4485 79.8525 56.2869 80.1182 56.9122 80.6494C57.5375 81.1751 57.8585 81.9167 57.8751 82.874V86.9248C57.8751 87.7327 57.9886 88.3774 58.2154 88.8589V89H56.1569ZM53.9405 87.5474C54.339 87.5474 54.7125 87.4505 55.0611 87.2568C55.4153 87.0632 55.6809 86.8031 55.858 86.4766V84.7832H54.7706C54.0236 84.7832 53.4619 84.9132 53.0856 85.1733C52.7093 85.4334 52.5211 85.8014 52.5211 86.2773C52.5211 86.6647 52.6484 86.9746 52.9029 87.207C53.163 87.4339 53.5089 87.5474 53.9405 87.5474ZM62.4734 89H60.4563V80.0186H62.4734V89ZM60.3318 77.686C60.3318 77.3761 60.4287 77.1188 60.6223 76.9141C60.8216 76.7093 61.1038 76.6069 61.469 76.6069C61.8343 76.6069 62.1165 76.7093 62.3157 76.9141C62.5149 77.1188 62.6145 77.3761 62.6145 77.686C62.6145 77.9904 62.5149 78.245 62.3157 78.4497C62.1165 78.6489 61.8343 78.7485 61.469 78.7485C61.1038 78.7485 60.8216 78.6489 60.6223 78.4497C60.4287 78.245 60.3318 77.9904 60.3318 77.686ZM64.6645 84.4429C64.6645 83.0483 64.991 81.936 65.644 81.106C66.3025 80.2703 67.1741 79.8525 68.2587 79.8525C69.2825 79.8525 70.0877 80.2095 70.6743 80.9233L70.7656 80.0186H72.5834V88.7261C72.5834 89.9048 72.2154 90.8345 71.4794 91.5151C70.749 92.1958 69.7612 92.5361 68.5161 92.5361C67.8575 92.5361 67.2128 92.3978 66.582 92.1211C65.9566 91.8499 65.4807 91.493 65.1542 91.0503L66.1088 89.8384C66.7286 90.5744 67.4923 90.9424 68.3998 90.9424C69.0694 90.9424 69.5979 90.7598 69.9853 90.3945C70.3727 90.0348 70.5663 89.5036 70.5663 88.8008V88.1948C69.9853 88.8423 69.2106 89.166 68.2421 89.166C67.1907 89.166 66.3302 88.7482 65.6606 87.9126C64.9965 87.077 64.6645 85.9204 64.6645 84.4429ZM66.6733 84.6172C66.6733 85.5192 66.8559 86.2303 67.2211 86.7505C67.5919 87.2651 68.1038 87.5225 68.7568 87.5225C69.5703 87.5225 70.1734 87.1738 70.5663 86.4766V82.5254C70.1845 81.8447 69.5869 81.5044 68.7734 81.5044C68.1093 81.5044 67.5919 81.7673 67.2211 82.293C66.8559 82.8187 66.6733 83.5934 66.6733 84.6172ZM76.9908 80.998C77.6493 80.2344 78.4822 79.8525 79.4893 79.8525C81.4041 79.8525 82.3753 80.9455 82.4029 83.1313V89H80.3858V83.2061C80.3858 82.5863 80.2503 82.1491 79.9791 81.8945C79.7135 81.6344 79.3206 81.5044 78.8004 81.5044C77.9924 81.5044 77.3893 81.8641 76.9908 82.5835V89H74.9737V76.25H76.9908V80.998ZM87.3167 77.8354V80.0186H88.9021V81.5127H87.3167V86.5264C87.3167 86.8695 87.3831 87.1185 87.5159 87.2734C87.6542 87.4229 87.8977 87.4976 88.2463 87.4976C88.4788 87.4976 88.714 87.4699 88.9519 87.4146V88.9751C88.4926 89.1024 88.0499 89.166 87.6238 89.166C86.0743 89.166 85.2996 88.311 85.2996 86.6011V81.5127H83.822V80.0186H85.2996V77.8354H87.3167Z" fill="#31394E"/>
<path d="M61.5049 44.9184C60.1256 44.8027 58.7914 44.4679 57.5431 43.9302C56.0559 46.6651 53.1563 48.5255 49.8305 48.5255C44.9932 48.5255 41.0578 44.5901 41.0578 39.7527C41.0578 34.9155 44.9932 30.9801 49.8305 30.9801C54.6677 30.9801 58.6031 34.9155 58.6031 39.7527C58.6031 39.8389 58.599 39.9239 58.5966 40.0095C59.8034 40.6283 61.1459 40.9606 62.5401 40.9686C62.5781 40.5683 62.5979 40.1629 62.5979 39.7529C62.5979 32.7129 56.8704 26.9855 49.8305 26.9855C42.7904 26.9855 37.063 32.7129 37.063 39.7529C37.063 46.1135 41.7384 51.4021 47.833 52.3637V58.799H46.2922C45.189 58.799 44.2947 59.6933 44.2947 60.7965C44.2947 61.8996 45.1889 62.7938 46.2922 62.7938H47.833V65.0421C47.833 66.1452 48.7273 67.0396 49.8305 67.0396C50.9336 67.0396 51.8278 66.1454 51.8278 65.0421V62.7938H53.3685C54.4716 62.7938 55.3659 61.8996 55.3659 60.7965C55.3659 59.6934 54.4717 58.799 53.3685 58.799H51.8278V52.3637C56.1616 51.6798 59.777 48.8078 61.5049 44.9184Z" fill="#EA506C"/>
<path fill-rule="evenodd" clip-rule="evenodd" d="M80.4889 12.3182C81.5788 12.3274 82.4601 13.2085 82.4693 14.2985L82.5188 20.1555C82.5282 21.2586 81.6416 22.1604 80.5385 22.1697L80.5212 22.1699C79.4259 22.1701 78.5334 21.2869 78.5242 20.1894L78.515 19.097L72.9577 24.6543C74.4958 26.7652 75.4033 29.365 75.4033 32.1768C75.4033 39.2389 69.6784 44.9639 62.6162 44.9639C55.5541 44.9639 49.8291 39.2389 49.8291 32.1768C49.8291 31.7717 49.8479 31.371 49.8848 30.9756C50.7757 30.9756 52.6183 31.1943 53.9643 32.0154C53.9633 32.069 53.9629 32.1228 53.9629 32.1768C53.9629 36.9559 57.8371 40.8301 62.6162 40.8301C67.3953 40.8301 71.2696 36.9559 71.2696 32.1768C71.2696 27.3976 67.3953 23.5234 62.6162 23.5234C59.3207 23.5234 56.4555 25.3656 54.9941 28.0763C54.3213 27.82 53.8119 27.6274 53.3475 27.4798C52.6294 27.2736 51.8856 27.1289 51.122 27.0517C51.0518 27.0454 50.9797 27.0393 50.9056 27.0333C52.8853 22.5324 57.3838 19.3896 62.6162 19.3896C65.4251 19.3896 68.0225 20.2953 70.1322 21.8306L75.6904 16.2724L74.5981 16.2631C73.4949 16.2538 72.6083 15.352 72.6177 14.249C72.627 13.1516 73.5195 12.2684 74.6147 12.2684L74.6319 12.2685L80.4889 12.3182Z" fill="#3A6AD9"/>
</svg>
