<svg width="31" height="33" viewBox="0 0 31 33" fill="none" xmlns="http://www.w3.org/2000/svg">
<circle cx="15.5" cy="17.5" r="15" stroke="#204AC6" stroke-linejoin="round" stroke-dasharray="5 2"/>
<path d="M19.286 1.04034L19.2862 1.0406C19.5877 1.41371 19.75 1.88276 19.75 2.40281C19.75 3.12336 19.2912 3.96708 18.2801 4.91238C17.4612 5.67799 16.4882 6.30883 15.9786 6.61816C15.8368 6.70381 15.6706 6.75 15.5 6.75C15.3294 6.75 15.1632 6.70381 15.0214 6.61817C14.5115 6.30892 13.5388 5.67804 12.7199 4.91238C11.7088 3.96665 11.25 3.12333 11.25 2.40281C11.25 1.88276 11.4123 1.41371 11.7138 1.0406L11.714 1.04034C12.0007 0.684744 12.4077 0.42803 12.8713 0.314528C13.3351 0.201004 13.8257 0.238101 14.2637 0.419251L14.2637 0.419257L14.2653 0.419929C14.6578 0.578967 15.0127 0.850508 15.304 1.21848L15.4998 1.46586L15.6958 1.21871C15.9871 0.851582 16.3423 0.57982 16.7351 0.419753L16.7363 0.419251C17.1743 0.238101 17.6649 0.201004 18.1287 0.314528C18.5923 0.42803 18.9993 0.684744 19.286 1.04034Z" fill="#204AC6" stroke="#FCFCFE" stroke-width="0.5"/>
<path d="M30.286 26.0403L30.2862 26.0406C30.5877 26.4137 30.75 26.8828 30.75 27.4028C30.75 28.1234 30.2912 28.9671 29.2801 29.9124C28.4612 30.678 27.4882 31.3088 26.9786 31.6182C26.8368 31.7038 26.6706 31.75 26.5 31.75C26.3294 31.75 26.1632 31.7038 26.0214 31.6182C25.5115 31.3089 24.5388 30.678 23.7199 29.9124C22.7088 28.9666 22.25 28.1233 22.25 27.4028C22.25 26.8828 22.4123 26.4137 22.7138 26.0406L22.714 26.0403C23.0007 25.6847 23.4077 25.428 23.8713 25.3145C24.3351 25.201 24.8257 25.2381 25.2637 25.4193L25.2637 25.4193L25.2653 25.4199C25.6578 25.579 26.0127 25.8505 26.304 26.2185L26.4998 26.4659L26.6958 26.2187C26.9871 25.8516 27.3423 25.5798 27.7351 25.4198L27.7363 25.4193C28.1743 25.2381 28.6649 25.201 29.1287 25.3145C29.5923 25.428 29.9993 25.6847 30.286 26.0403Z" fill="#204AC6" stroke="#FCFCFE" stroke-width="0.5"/>
<path d="M8.28595 26.0403L8.28616 26.0406C8.58773 26.4137 8.75 26.8828 8.75 27.4028C8.75 28.1234 8.29116 28.9671 7.28011 29.9124C6.46124 30.678 5.48823 31.3088 4.9786 31.6182C4.83677 31.7038 4.67065 31.75 4.5 31.75C4.32935 31.75 4.16324 31.7038 4.02141 31.6182C3.5115 31.3089 2.53882 30.678 1.71989 29.9124C0.708802 28.9666 0.25 28.1233 0.25 27.4028C0.25 26.8828 0.412272 26.4137 0.713838 26.0406L0.714045 26.0403C1.00068 25.6847 1.40769 25.428 1.87133 25.3145C2.33506 25.201 2.82572 25.2381 3.26369 25.4193L3.26369 25.4193L3.26535 25.4199C3.65779 25.579 4.01274 25.8505 4.30397 26.2185L4.49976 26.4659L4.69585 26.2187C4.98712 25.8516 5.34226 25.5798 5.7351 25.4198L5.73631 25.4193C6.17428 25.2381 6.66494 25.201 7.12867 25.3145C7.59231 25.428 7.99932 25.6847 8.28595 26.0403Z" fill="#204AC6" stroke="#FCFCFE" stroke-width="0.5"/>
<path d="M23.0766 11.6407C22.5037 10.8983 21.6945 10.3673 20.7789 10.1332C19.8633 9.899 18.8944 9.97522 18.028 10.3496L23.0766 11.6407ZM23.0766 11.6407C23.6807 12.4215 24 13.3973 24 14.4624M23.0766 11.6407L24 14.4624M24 14.4624C24 15.9951 23.0733 17.6773 21.2459 19.4621L24 14.4624ZM22.6808 11.9461L22.6812 11.9467C23.212 12.6328 23.5 13.4987 23.5 14.4624C23.5 15.7941 22.6886 17.3542 20.8966 19.1044C19.4445 20.5227 17.7184 21.6918 16.8138 22.2654C16.5714 22.4184 16.289 22.5 16 22.5C15.711 22.5 15.4286 22.4183 15.1861 22.2654C14.281 21.692 12.5556 20.5227 11.1034 19.1044C9.31136 17.3534 8.5 15.7941 8.5 14.4624C8.5 13.4987 8.788 12.6328 9.31884 11.9467L9.31924 11.9461C9.82339 11.2928 10.5366 10.8243 11.345 10.6176C12.1535 10.4108 13.009 10.4782 13.7737 10.8086L13.7737 10.8086L13.7771 10.81C14.4629 11.1004 15.0871 11.5978 15.6015 12.2767L15.9995 12.8021L16.3982 12.2772C16.9126 11.5998 17.5372 11.1019 18.2238 10.8096L18.2238 10.8096L18.2263 10.8086C18.991 10.4782 19.8465 10.4108 20.655 10.6176C21.4634 10.8243 22.1766 11.2928 22.6808 11.9461Z" fill="#204AC6" stroke="#FCFCFD"/>
</svg>
