<svg width="254" height="78" viewBox="0 0 254 78" fill="none" xmlns="http://www.w3.org/2000/svg">
<path d="M0 16.8119C0 7.97534 7.16344 0.81189 16 0.81189H238C246.837 0.81189 254 7.97533 254 16.8119V61.8119C254 70.6484 246.837 77.8119 238 77.8119H16C7.16344 77.8119 0 70.6484 0 61.8119V16.8119Z" fill="#EEF1F3"/>
<path d="M201.587 62.8119H200.316V54.3832L197.766 55.3197V54.1713L201.389 52.8109H201.587V62.8119ZM211.674 58.5668C211.674 60.0479 211.421 61.1485 210.915 61.8685C210.409 62.5886 209.618 62.9486 208.543 62.9486C207.481 62.9486 206.695 62.5977 206.184 61.8959C205.674 61.1895 205.41 60.1368 205.392 58.7377V57.0492C205.392 55.5863 205.644 54.4994 206.15 53.7885C206.656 53.0775 207.449 52.722 208.529 52.722C209.6 52.722 210.389 53.0661 210.894 53.7543C211.4 54.4379 211.66 55.4952 211.674 56.9261V58.5668ZM210.409 56.8373C210.409 55.7663 210.259 54.987 209.958 54.4994C209.657 54.0072 209.181 53.7611 208.529 53.7611C207.882 53.7611 207.41 54.0049 207.114 54.4926C206.818 54.9802 206.665 55.7299 206.656 56.7416V58.765C206.656 59.8405 206.811 60.6358 207.121 61.1508C207.435 61.6612 207.909 61.9164 208.543 61.9164C209.167 61.9164 209.63 61.6748 209.931 61.1918C210.236 60.7087 210.395 59.9476 210.409 58.9086V56.8373ZM213.523 62.1488C213.523 61.9301 213.587 61.7478 213.714 61.6019C213.846 61.4561 214.042 61.3832 214.302 61.3832C214.562 61.3832 214.758 61.4561 214.89 61.6019C215.027 61.7478 215.095 61.9301 215.095 62.1488C215.095 62.3584 215.027 62.5339 214.89 62.6752C214.758 62.8164 214.562 62.8871 214.302 62.8871C214.042 62.8871 213.846 62.8164 213.714 62.6752C213.587 62.5339 213.523 62.3584 213.523 62.1488ZM213.53 56.1127C213.53 55.8939 213.593 55.7116 213.721 55.5658C213.853 55.42 214.049 55.347 214.309 55.347C214.569 55.347 214.765 55.42 214.897 55.5658C215.033 55.7116 215.102 55.8939 215.102 56.1127C215.102 56.3223 215.033 56.4978 214.897 56.639C214.765 56.7803 214.569 56.851 214.309 56.851C214.049 56.851 213.853 56.7803 213.721 56.639C213.593 56.4978 213.53 56.3223 213.53 56.1127ZM222.303 59.4691H223.684V60.5013H222.303V62.8119H221.032V60.5013H216.5V59.7562L220.957 52.8588H222.303V59.4691ZM217.935 59.4691H221.032V54.5883L220.881 54.8617L217.935 59.4691ZM226.805 57.2201H227.755C228.352 57.211 228.821 57.0538 229.163 56.7484C229.505 56.4431 229.676 56.0306 229.676 55.5111C229.676 54.3444 229.095 53.7611 227.933 53.7611C227.386 53.7611 226.948 53.9183 226.62 54.2328C226.297 54.5427 226.135 54.9551 226.135 55.4701H224.87C224.87 54.6817 225.157 54.0277 225.731 53.5082C226.31 52.9841 227.044 52.722 227.933 52.722C228.871 52.722 229.607 52.9704 230.141 53.4672C230.674 53.9639 230.94 54.6543 230.94 55.5385C230.94 55.9714 230.799 56.3907 230.517 56.7963C230.239 57.2019 229.858 57.5049 229.375 57.7054C229.922 57.8786 230.343 58.1657 230.64 58.5668C230.94 58.9678 231.091 59.4577 231.091 60.0365C231.091 60.9297 230.799 61.6384 230.216 62.1625C229.632 62.6866 228.874 62.9486 227.939 62.9486C227.005 62.9486 226.244 62.6957 225.656 62.1898C225.073 61.684 224.781 61.0163 224.781 60.1869H226.053C226.053 60.711 226.224 61.1302 226.565 61.4447C226.907 61.7592 227.365 61.9164 227.939 61.9164C228.55 61.9164 229.017 61.7569 229.341 61.4379C229.664 61.1189 229.826 60.6608 229.826 60.0638C229.826 59.4851 229.648 59.0407 229.293 58.7308C228.937 58.4209 228.425 58.2614 227.755 58.2523H226.805V57.2201Z" fill="#A0A4AD"/>
<path d="M32.5781 32.8119H30.6934V26.2396H23.5254V32.8119H21.6504V18.5931H23.5254V24.7064H30.6934V18.5931H32.5781V32.8119ZM37.5879 32.8119H35.7812V22.2455H37.5879V32.8119ZM35.6348 19.4427C35.6348 19.1498 35.7227 18.9024 35.8984 18.7006C36.0807 18.4987 36.3477 18.3978 36.6992 18.3978C37.0508 18.3978 37.3177 18.4987 37.5 18.7006C37.6823 18.9024 37.7734 19.1498 37.7734 19.4427C37.7734 19.7357 37.6823 19.9799 37.5 20.1752C37.3177 20.3705 37.0508 20.4681 36.6992 20.4681C36.3477 20.4681 36.0807 20.3705 35.8984 20.1752C35.7227 19.9799 35.6348 19.7357 35.6348 19.4427ZM42.5098 28.7982H40.8789L40.752 18.5931H42.6465L42.5098 28.7982ZM40.6836 31.9037C40.6836 31.6107 40.7715 31.3666 40.9473 31.1713C41.1296 30.9694 41.3965 30.8685 41.748 30.8685C42.0996 30.8685 42.3665 30.9694 42.5488 31.1713C42.7311 31.3666 42.8223 31.6107 42.8223 31.9037C42.8223 32.1967 42.7311 32.4408 42.5488 32.6361C42.3665 32.8249 42.0996 32.9193 41.748 32.9193C41.3965 32.9193 41.1296 32.8249 40.9473 32.6361C40.7715 32.4408 40.6836 32.1967 40.6836 31.9037ZM55.2246 25.7318L58.9355 18.5931H61.0645L56.1621 27.5092V32.8119H54.2871V27.5092L49.3848 18.5931H51.5332L55.2246 25.7318ZM61.4941 27.431C61.4941 26.3959 61.696 25.4649 62.0996 24.6381C62.5098 23.8112 63.0762 23.1732 63.7988 22.724C64.528 22.2748 65.3581 22.0502 66.2891 22.0502C67.7279 22.0502 68.89 22.5482 69.7754 23.5443C70.6673 24.5404 71.1133 25.8653 71.1133 27.5189V27.6459C71.1133 28.6745 70.9147 29.599 70.5176 30.4193C70.127 31.2331 69.5638 31.8679 68.8281 32.3236C68.099 32.7793 67.2591 33.0072 66.3086 33.0072C64.8763 33.0072 63.7142 32.5092 62.8223 31.5131C61.9368 30.517 61.4941 29.1986 61.4941 27.558V27.431ZM63.3105 27.6459C63.3105 28.8177 63.5807 29.7585 64.1211 30.4681C64.668 31.1778 65.3971 31.5326 66.3086 31.5326C67.2266 31.5326 67.9557 31.1745 68.4961 30.4584C69.0365 29.7357 69.3066 28.7266 69.3066 27.431C69.3066 26.2722 69.0299 25.3347 68.4766 24.6185C67.9297 23.8959 67.2005 23.5345 66.2891 23.5345C65.3971 23.5345 64.6777 23.8894 64.1309 24.599C63.584 25.3086 63.3105 26.3243 63.3105 27.6459ZM79.9023 31.767C79.1992 32.5938 78.1673 33.0072 76.8066 33.0072C75.6803 33.0072 74.821 32.6817 74.2285 32.0306C73.6426 31.3731 73.3464 30.403 73.3398 29.1205V22.2455H75.1465V29.0717C75.1465 30.6732 75.7975 31.474 77.0996 31.474C78.4798 31.474 79.3978 30.9597 79.8535 29.931V22.2455H81.6602V32.8119H79.9414L79.9023 31.767ZM91.3379 32.8119H89.5312V17.8119H91.3379V32.8119ZM93.7598 27.431C93.7598 26.3959 93.9616 25.4649 94.3652 24.6381C94.7754 23.8112 95.3418 23.1732 96.0645 22.724C96.7936 22.2748 97.6237 22.0502 98.5547 22.0502C99.9935 22.0502 101.156 22.5482 102.041 23.5443C102.933 24.5404 103.379 25.8653 103.379 27.5189V27.6459C103.379 28.6745 103.18 29.599 102.783 30.4193C102.393 31.2331 101.829 31.8679 101.094 32.3236C100.365 32.7793 99.5247 33.0072 98.5742 33.0072C97.1419 33.0072 95.9798 32.5092 95.0879 31.5131C94.2025 30.517 93.7598 29.1986 93.7598 27.558V27.431ZM95.5762 27.6459C95.5762 28.8177 95.8464 29.7585 96.3867 30.4681C96.9336 31.1778 97.6628 31.5326 98.5742 31.5326C99.4922 31.5326 100.221 31.1745 100.762 30.4584C101.302 29.7357 101.572 28.7266 101.572 27.431C101.572 26.2722 101.296 25.3347 100.742 24.6185C100.195 23.8959 99.4661 23.5345 98.5547 23.5345C97.6628 23.5345 96.9434 23.8894 96.3965 24.599C95.8496 25.3086 95.5762 26.3243 95.5762 27.6459ZM105.166 27.431C105.166 26.3959 105.368 25.4649 105.771 24.6381C106.182 23.8112 106.748 23.1732 107.471 22.724C108.2 22.2748 109.03 22.0502 109.961 22.0502C111.4 22.0502 112.562 22.5482 113.447 23.5443C114.339 24.5404 114.785 25.8653 114.785 27.5189V27.6459C114.785 28.6745 114.587 29.599 114.189 30.4193C113.799 31.2331 113.236 31.8679 112.5 32.3236C111.771 32.7793 110.931 33.0072 109.98 33.0072C108.548 33.0072 107.386 32.5092 106.494 31.5131C105.609 30.517 105.166 29.1986 105.166 27.558V27.431ZM106.982 27.6459C106.982 28.8177 107.253 29.7585 107.793 30.4681C108.34 31.1778 109.069 31.5326 109.98 31.5326C110.898 31.5326 111.628 31.1745 112.168 30.4584C112.708 29.7357 112.979 28.7266 112.979 27.431C112.979 26.2722 112.702 25.3347 112.148 24.6185C111.602 23.8959 110.872 23.5345 109.961 23.5345C109.069 23.5345 108.35 23.8894 107.803 24.599C107.256 25.3086 106.982 26.3243 106.982 27.6459ZM120 27.9193L118.867 29.101V32.8119H117.061V17.8119H118.867V26.8842L119.834 25.722L123.125 22.2455H125.322L121.211 26.6595L125.801 32.8119H123.682L120 27.9193ZM131.719 27.4408C131.719 25.7937 132.1 24.4851 132.861 23.515C133.623 22.5385 134.632 22.0502 135.889 22.0502C137.178 22.0502 138.184 22.5059 138.906 23.4174L138.994 22.2455H140.645V32.558C140.645 33.9252 140.238 35.0026 139.424 35.7904C138.617 36.5782 137.529 36.972 136.162 36.972C135.4 36.972 134.655 36.8093 133.926 36.4838C133.197 36.1582 132.64 35.7123 132.256 35.1459L133.193 34.0619C133.968 35.0189 134.915 35.4974 136.035 35.4974C136.914 35.4974 137.598 35.25 138.086 34.7552C138.581 34.2605 138.828 33.5638 138.828 32.6654V31.7572C138.105 32.5905 137.119 33.0072 135.869 33.0072C134.632 33.0072 133.63 32.5092 132.861 31.5131C132.1 30.517 131.719 29.1595 131.719 27.4408ZM133.535 27.6459C133.535 28.8373 133.779 29.7748 134.268 30.4584C134.756 31.1355 135.439 31.474 136.318 31.474C137.458 31.474 138.294 30.9564 138.828 29.9213V25.097C138.275 24.0879 137.445 23.5834 136.338 23.5834C135.459 23.5834 134.772 23.9252 134.277 24.6088C133.783 25.2924 133.535 26.3047 133.535 27.6459ZM142.9 27.431C142.9 26.3959 143.102 25.4649 143.506 24.6381C143.916 23.8112 144.482 23.1732 145.205 22.724C145.934 22.2748 146.764 22.0502 147.695 22.0502C149.134 22.0502 150.296 22.5482 151.182 23.5443C152.074 24.5404 152.52 25.8653 152.52 27.5189V27.6459C152.52 28.6745 152.321 29.599 151.924 30.4193C151.533 31.2331 150.97 31.8679 150.234 32.3236C149.505 32.7793 148.665 33.0072 147.715 33.0072C146.283 33.0072 145.12 32.5092 144.229 31.5131C143.343 30.517 142.9 29.1986 142.9 27.558V27.431ZM144.717 27.6459C144.717 28.8177 144.987 29.7585 145.527 30.4681C146.074 31.1778 146.803 31.5326 147.715 31.5326C148.633 31.5326 149.362 31.1745 149.902 30.4584C150.443 29.7357 150.713 28.7266 150.713 27.431C150.713 26.2722 150.436 25.3347 149.883 24.6185C149.336 23.8959 148.607 23.5345 147.695 23.5345C146.803 23.5345 146.084 23.8894 145.537 24.599C144.99 25.3086 144.717 26.3243 144.717 27.6459ZM159.893 23.8666C159.619 23.821 159.323 23.7982 159.004 23.7982C157.819 23.7982 157.015 24.3028 156.592 25.3119V32.8119H154.785V22.2455H156.543L156.572 23.4662C157.165 22.5222 158.005 22.0502 159.092 22.0502C159.443 22.0502 159.71 22.0957 159.893 22.1869V23.8666ZM160.938 27.4408C160.938 25.7937 161.318 24.4851 162.08 23.515C162.842 22.5385 163.851 22.0502 165.107 22.0502C166.396 22.0502 167.402 22.5059 168.125 23.4174L168.213 22.2455H169.863V32.558C169.863 33.9252 169.456 35.0026 168.643 35.7904C167.835 36.5782 166.748 36.972 165.381 36.972C164.619 36.972 163.874 36.8093 163.145 36.4838C162.415 36.1582 161.859 35.7123 161.475 35.1459L162.412 34.0619C163.187 35.0189 164.134 35.4974 165.254 35.4974C166.133 35.4974 166.816 35.25 167.305 34.7552C167.799 34.2605 168.047 33.5638 168.047 32.6654V31.7572C167.324 32.5905 166.338 33.0072 165.088 33.0072C163.851 33.0072 162.848 32.5092 162.08 31.5131C161.318 30.517 160.938 29.1595 160.938 27.4408ZM162.754 27.6459C162.754 28.8373 162.998 29.7748 163.486 30.4584C163.975 31.1355 164.658 31.474 165.537 31.474C166.676 31.474 167.513 30.9564 168.047 29.9213V25.097C167.493 24.0879 166.663 23.5834 165.557 23.5834C164.678 23.5834 163.991 23.9252 163.496 24.6088C163.001 25.2924 162.754 26.3047 162.754 27.6459ZM176.982 33.0072C175.55 33.0072 174.385 32.5385 173.486 31.601C172.588 30.6569 172.139 29.3972 172.139 27.8217V27.4896C172.139 26.4414 172.337 25.5072 172.734 24.6869C173.138 23.8601 173.698 23.2155 174.414 22.7533C175.137 22.2845 175.918 22.0502 176.758 22.0502C178.132 22.0502 179.199 22.5026 179.961 23.4076C180.723 24.3125 181.104 25.6081 181.104 27.2943V28.0463H173.945C173.971 29.0879 174.274 29.931 174.854 30.5756C175.439 31.2136 176.182 31.5326 177.08 31.5326C177.718 31.5326 178.258 31.4024 178.701 31.142C179.144 30.8816 179.531 30.5365 179.863 30.1068L180.967 30.9662C180.081 32.3269 178.753 33.0072 176.982 33.0072ZM176.758 23.5345C176.029 23.5345 175.417 23.8015 174.922 24.3353C174.427 24.8627 174.121 25.6049 174.004 26.5619H179.297V26.4252C179.245 25.5072 178.997 24.7976 178.555 24.2963C178.112 23.7885 177.513 23.5345 176.758 23.5345ZM182.725 27.431C182.725 26.3959 182.926 25.4649 183.33 24.6381C183.74 23.8112 184.307 23.1732 185.029 22.724C185.758 22.2748 186.589 22.0502 187.52 22.0502C188.958 22.0502 190.12 22.5482 191.006 23.5443C191.898 24.5404 192.344 25.8653 192.344 27.5189V27.6459C192.344 28.6745 192.145 29.599 191.748 30.4193C191.357 31.2331 190.794 31.8679 190.059 32.3236C189.329 32.7793 188.49 33.0072 187.539 33.0072C186.107 33.0072 184.945 32.5092 184.053 31.5131C183.167 30.517 182.725 29.1986 182.725 27.558V27.431ZM184.541 27.6459C184.541 28.8177 184.811 29.7585 185.352 30.4681C185.898 31.1778 186.628 31.5326 187.539 31.5326C188.457 31.5326 189.186 31.1745 189.727 30.4584C190.267 29.7357 190.537 28.7266 190.537 27.431C190.537 26.2722 190.26 25.3347 189.707 24.6185C189.16 23.8959 188.431 23.5345 187.52 23.5345C186.628 23.5345 185.908 23.8894 185.361 24.599C184.814 25.3086 184.541 26.3243 184.541 27.6459ZM201.133 31.767C200.43 32.5938 199.398 33.0072 198.037 33.0072C196.911 33.0072 196.051 32.6817 195.459 32.0306C194.873 31.3731 194.577 30.403 194.57 29.1205V22.2455H196.377V29.0717C196.377 30.6732 197.028 31.474 198.33 31.474C199.71 31.474 200.628 30.9597 201.084 29.931V22.2455H202.891V32.8119H201.172L201.133 31.767ZM211.797 30.0092C211.797 29.5209 211.611 29.1433 211.24 28.8763C210.876 28.6029 210.234 28.3685 209.316 28.1732C208.405 27.9779 207.679 27.7435 207.139 27.4701C206.605 27.1967 206.208 26.8711 205.947 26.4935C205.693 26.1159 205.566 25.6667 205.566 25.1459C205.566 24.28 205.931 23.5476 206.66 22.9486C207.396 22.3497 208.333 22.0502 209.473 22.0502C210.671 22.0502 211.641 22.3594 212.383 22.9779C213.132 23.5964 213.506 24.3874 213.506 25.351H211.689C211.689 24.8562 211.478 24.4297 211.055 24.0717C210.638 23.7136 210.111 23.5345 209.473 23.5345C208.815 23.5345 208.301 23.6778 207.93 23.9642C207.559 24.2507 207.373 24.625 207.373 25.0873C207.373 25.5235 207.546 25.8523 207.891 26.0736C208.236 26.295 208.857 26.5066 209.756 26.7084C210.661 26.9102 211.393 27.1511 211.953 27.431C212.513 27.711 212.926 28.0495 213.193 28.4467C213.467 28.8373 213.604 29.3158 213.604 29.8822C213.604 30.8262 213.226 31.5847 212.471 32.1576C211.715 32.724 210.736 33.0072 209.531 33.0072C208.685 33.0072 207.936 32.8575 207.285 32.558C206.634 32.2585 206.123 31.8418 205.752 31.308C205.387 30.7676 205.205 30.1849 205.205 29.5599H207.012C207.044 30.1654 207.285 30.6472 207.734 31.0052C208.19 31.3568 208.789 31.5326 209.531 31.5326C210.215 31.5326 210.762 31.3959 211.172 31.1224C211.589 30.8425 211.797 30.4714 211.797 30.0092ZM217.979 28.7982H216.348L216.221 18.5931H218.115L217.979 28.7982ZM216.152 31.9037C216.152 31.6107 216.24 31.3666 216.416 31.1713C216.598 30.9694 216.865 30.8685 217.217 30.8685C217.568 30.8685 217.835 30.9694 218.018 31.1713C218.2 31.3666 218.291 31.6107 218.291 31.9037C218.291 32.1967 218.2 32.4408 218.018 32.6361C217.835 32.8249 217.568 32.9193 217.217 32.9193C216.865 32.9193 216.598 32.8249 216.416 32.6361C216.24 32.4408 216.152 32.1967 216.152 31.9037ZM32.5781 60.8119H30.6934V54.2396H23.5254V60.8119H21.6504V46.5931H23.5254V52.7064H30.6934V46.5931H32.5781V60.8119ZM35.1465 55.431C35.1465 54.3959 35.3483 53.4649 35.752 52.6381C36.1621 51.8112 36.7285 51.1732 37.4512 50.724C38.1803 50.2748 39.0104 50.0502 39.9414 50.0502C41.3802 50.0502 42.5423 50.5482 43.4277 51.5443C44.3197 52.5404 44.7656 53.8653 44.7656 55.5189V55.6459C44.7656 56.6745 44.5671 57.599 44.1699 58.4193C43.7793 59.2331 43.2161 59.8679 42.4805 60.3236C41.7513 60.7793 40.9115 61.0072 39.9609 61.0072C38.5286 61.0072 37.3665 60.5092 36.4746 59.5131C35.5892 58.517 35.1465 57.1986 35.1465 55.558V55.431ZM36.9629 55.6459C36.9629 56.8177 37.2331 57.7585 37.7734 58.4681C38.3203 59.1778 39.0495 59.5326 39.9609 59.5326C40.8789 59.5326 41.6081 59.1745 42.1484 58.4584C42.6888 57.7357 42.959 56.7266 42.959 55.431C42.959 54.2722 42.6823 53.3347 42.1289 52.6185C41.582 51.8959 40.8529 51.5345 39.9414 51.5345C39.0495 51.5345 38.3301 51.8894 37.7832 52.599C37.2363 53.3086 36.9629 54.3243 36.9629 55.6459ZM56.3867 58.3217L58.418 50.2455H60.2246L57.1484 60.8119H55.6836L53.1152 52.8041L50.6152 60.8119H49.1504L46.084 50.2455H47.8809L49.9609 58.1556L52.4219 50.2455H53.877L56.3867 58.3217ZM73.5547 60.8119C73.4505 60.6036 73.3659 60.2325 73.3008 59.6986C72.4609 60.571 71.4583 61.0072 70.293 61.0072C69.2513 61.0072 68.3952 60.7142 67.7246 60.1283C67.0605 59.5358 66.7285 58.7872 66.7285 57.8822C66.7285 56.7819 67.1452 55.9291 67.9785 55.3236C68.8184 54.7116 69.9967 54.4056 71.5137 54.4056H73.2715V53.5756C73.2715 52.9441 73.0827 52.4427 72.7051 52.0717C72.3275 51.6941 71.7708 51.5052 71.0352 51.5052C70.3906 51.5052 69.8503 51.668 69.4141 51.9935C68.9779 52.3191 68.7598 52.7129 68.7598 53.1752H66.9434C66.9434 52.6478 67.1289 52.14 67.5 51.6517C67.8776 51.1569 68.3854 50.7663 69.0234 50.4799C69.668 50.1934 70.3743 50.0502 71.1426 50.0502C72.36 50.0502 73.3138 50.3562 74.0039 50.9681C74.694 51.5736 75.0521 52.4102 75.0781 53.4779V58.3412C75.0781 59.3112 75.2018 60.0827 75.4492 60.6556V60.8119H73.5547ZM70.5566 59.4349C71.123 59.4349 71.6602 59.2885 72.168 58.9955C72.6758 58.7025 73.0436 58.3217 73.2715 57.8529V55.6849H71.8555C69.6419 55.6849 68.5352 56.3327 68.5352 57.6283C68.5352 58.1947 68.724 58.6374 69.1016 58.9564C69.4792 59.2754 69.9642 59.4349 70.5566 59.4349ZM83.0176 51.8666C82.7441 51.821 82.4479 51.7982 82.1289 51.7982C80.944 51.7982 80.14 52.3028 79.7168 53.3119V60.8119H77.9102V50.2455H79.668L79.6973 51.4662C80.2897 50.5222 81.1296 50.0502 82.2168 50.0502C82.5684 50.0502 82.8353 50.0957 83.0176 50.1869V51.8666ZM88.877 61.0072C87.4447 61.0072 86.2793 60.5385 85.3809 59.601C84.4824 58.6569 84.0332 57.3972 84.0332 55.8217V55.4896C84.0332 54.4414 84.2318 53.5072 84.6289 52.6869C85.0326 51.8601 85.5924 51.2155 86.3086 50.7533C87.0312 50.2845 87.8125 50.0502 88.6523 50.0502C90.026 50.0502 91.0938 50.5026 91.8555 51.4076C92.6172 52.3125 92.998 53.6081 92.998 55.2943V56.0463H85.8398C85.8659 57.0879 86.1686 57.931 86.748 58.5756C87.334 59.2136 88.0762 59.5326 88.9746 59.5326C89.6126 59.5326 90.153 59.4024 90.5957 59.142C91.0384 58.8816 91.4258 58.5365 91.7578 58.1068L92.8613 58.9662C91.9759 60.3269 90.6478 61.0072 88.877 61.0072ZM88.6523 51.5345C87.9232 51.5345 87.3112 51.8015 86.8164 52.3353C86.3216 52.8627 86.0156 53.6049 85.8984 54.5619H91.1914V54.4252C91.1393 53.5072 90.8919 52.7976 90.4492 52.2963C90.0065 51.7885 89.4076 51.5345 88.6523 51.5345ZM103.516 58.1654L105.977 50.2455H107.91L103.662 62.4427C103.005 64.2006 101.96 65.0795 100.527 65.0795L100.186 65.0502L99.5117 64.9232V63.4584L100 63.4974C100.612 63.4974 101.087 63.3737 101.426 63.1263C101.771 62.8789 102.054 62.4265 102.275 61.7689L102.676 60.6947L98.9062 50.2455H100.879L103.516 58.1654ZM108.896 55.431C108.896 54.3959 109.098 53.4649 109.502 52.6381C109.912 51.8112 110.479 51.1732 111.201 50.724C111.93 50.2748 112.76 50.0502 113.691 50.0502C115.13 50.0502 116.292 50.5482 117.178 51.5443C118.07 52.5404 118.516 53.8653 118.516 55.5189V55.6459C118.516 56.6745 118.317 57.599 117.92 58.4193C117.529 59.2331 116.966 59.8679 116.23 60.3236C115.501 60.7793 114.661 61.0072 113.711 61.0072C112.279 61.0072 111.117 60.5092 110.225 59.5131C109.339 58.517 108.896 57.1986 108.896 55.558V55.431ZM110.713 55.6459C110.713 56.8177 110.983 57.7585 111.523 58.4681C112.07 59.1778 112.799 59.5326 113.711 59.5326C114.629 59.5326 115.358 59.1745 115.898 58.4584C116.439 57.7357 116.709 56.7266 116.709 55.431C116.709 54.2722 116.432 53.3347 115.879 52.6185C115.332 51.8959 114.603 51.5345 113.691 51.5345C112.799 51.5345 112.08 51.8894 111.533 52.599C110.986 53.3086 110.713 54.3243 110.713 55.6459ZM127.305 59.767C126.602 60.5938 125.57 61.0072 124.209 61.0072C123.083 61.0072 122.223 60.6817 121.631 60.0306C121.045 59.3731 120.749 58.403 120.742 57.1205V50.2455H122.549V57.0717C122.549 58.6732 123.2 59.474 124.502 59.474C125.882 59.474 126.8 58.9597 127.256 57.931V50.2455H129.062V60.8119H127.344L127.305 59.767ZM133.936 56.808C133.949 56.0332 134.036 55.4213 134.199 54.972C134.362 54.5228 134.694 54.0248 135.195 53.4779L136.475 52.1595C137.021 51.5411 137.295 50.877 137.295 50.1674C137.295 49.4838 137.116 48.9499 136.758 48.5658C136.4 48.1752 135.879 47.9799 135.195 47.9799C134.531 47.9799 133.997 48.1556 133.594 48.5072C133.19 48.8588 132.988 49.3308 132.988 49.9232H131.182C131.195 48.8685 131.569 48.0189 132.305 47.3744C133.047 46.7233 134.01 46.3978 135.195 46.3978C136.426 46.3978 137.383 46.7299 138.066 47.3939C138.757 48.0515 139.102 48.9564 139.102 50.1088C139.102 51.2481 138.574 52.3711 137.52 53.4779L136.455 54.5326C135.98 55.0599 135.742 55.8184 135.742 56.808H133.936ZM133.857 59.9037C133.857 59.6107 133.945 59.3666 134.121 59.1713C134.303 58.9694 134.57 58.8685 134.922 58.8685C135.273 58.8685 135.54 58.9694 135.723 59.1713C135.905 59.3666 135.996 59.6107 135.996 59.9037C135.996 60.1967 135.905 60.4408 135.723 60.6361C135.54 60.8249 135.273 60.9193 134.922 60.9193C134.57 60.9193 134.303 60.8249 134.121 60.6361C133.945 60.4408 133.857 60.1967 133.857 59.9037Z" fill="#31394E"/>
</svg>
