<svg width="340" height="99" viewBox="0 0 340 99" fill="none" xmlns="http://www.w3.org/2000/svg">
<g filter="url(#filter0_f)">
<path d="M14 84.2836L14 14L42.5636 23.819L325.462 23.819V84.2836L14 84.2836Z" fill="url(#paint0_linear)" fill-opacity="0.42"/>
</g>
<path d="M14.5 64.9891L14.5 31.0982C14.5 22.5378 21.4396 15.5982 30 15.5982L320 15.5985C328.56 15.5985 335.5 22.5381 335.5 31.0985V64.9891C335.5 73.5495 328.56 80.4891 320 80.4891L30 80.4891C21.4396 80.4891 14.5 73.5495 14.5 64.9891Z" fill="url(#paint1_linear)" stroke="#EEF4FC"/>
<mask id="mask0" mask-type="alpha" maskUnits="userSpaceOnUse" x="15" y="14" width="316" height="69">
<path d="M15.6709 66.0873L15.6709 30C15.6709 21.4396 22.6105 14.5 31.1709 14.5L314.145 14.5003C322.706 14.5003 329.645 21.4399 329.645 30.0003V66.0873C329.645 74.6477 322.706 81.5873 314.145 81.5873L31.1709 81.5873C22.6105 81.5873 15.6709 74.6477 15.6709 66.0873Z" fill="url(#paint2_linear)" stroke="#EEF4FC"/>
</mask>
<g mask="url(#mask0)">
<rect x="321.326" y="59.6075" width="46.1007" height="26.6076" rx="13.3038" transform="rotate(180 321.326 59.6075)" fill="url(#paint3_linear)"/>
<mask id="mask1" mask-type="alpha" maskUnits="userSpaceOnUse" x="275" y="33" width="47" height="27">
<rect x="321.326" y="59.6075" width="46.1007" height="26.6076" rx="13.3038" transform="rotate(180 321.326 59.6075)" fill="white"/>
</mask>
<g mask="url(#mask1)">
<g filter="url(#filter1_ddd)">
<rect x="319.256" y="57.9448" width="24.8235" height="23.2816" rx="11.6408" transform="rotate(180 319.256 57.9448)" fill="white"/>
<rect x="319.506" y="58.1948" width="25.3235" height="23.7816" rx="11.8908" transform="rotate(180 319.506 58.1948)" stroke="black" stroke-opacity="0.04" stroke-width="0.5"/>
</g>
</g>
<path d="M43.6021 53H42.0024V48.8931H37.8701V53H36.2642V43.7578H37.8701V47.6045H42.0024V43.7578H43.6021V53ZM47.258 53H45.7156V46.1318H47.258V53ZM45.6204 44.3481C45.6204 44.1112 45.6944 43.9144 45.8425 43.7578C45.9949 43.6012 46.2107 43.5229 46.49 43.5229C46.7693 43.5229 46.9851 43.6012 47.1374 43.7578C47.2898 43.9144 47.366 44.1112 47.366 44.3481C47.366 44.5809 47.2898 44.7756 47.1374 44.9321C46.9851 45.0845 46.7693 45.1606 46.49 45.1606C46.2107 45.1606 45.9949 45.0845 45.8425 44.9321C45.6944 44.7756 45.6204 44.5809 45.6204 44.3481ZM48.9145 49.5151C48.9145 48.4572 49.16 47.6087 49.6509 46.9697C50.1417 46.3265 50.7998 46.0049 51.625 46.0049C52.3528 46.0049 52.9411 46.2588 53.3896 46.7666V43.25H54.9321V53H53.5356L53.4595 52.2891C52.9982 52.8477 52.3825 53.127 51.6123 53.127C50.8082 53.127 50.1566 52.8032 49.6572 52.1558C49.1621 51.5083 48.9145 50.6281 48.9145 49.5151ZM50.457 49.6484C50.457 50.3467 50.5903 50.8926 50.8569 51.2861C51.1277 51.6755 51.5107 51.8701 52.0058 51.8701C52.6364 51.8701 53.0976 51.5887 53.3896 51.0259V48.0933C53.1061 47.5431 52.6491 47.2681 52.0185 47.2681C51.5192 47.2681 51.1341 47.467 50.8633 47.8647C50.5924 48.2583 50.457 48.8529 50.457 49.6484ZM59.8259 53.127C58.8484 53.127 58.0549 52.8201 57.4455 52.2065C56.8404 51.5887 56.5378 50.7677 56.5378 49.7437V49.5532C56.5378 48.8677 56.669 48.2562 56.9314 47.7188C57.198 47.1771 57.5704 46.756 58.0486 46.4556C58.5267 46.1551 59.0599 46.0049 59.6482 46.0049C60.5834 46.0049 61.3049 46.3032 61.8127 46.8999C62.3248 47.4966 62.5808 48.3408 62.5808 49.4326V50.0547H58.093C58.1395 50.6217 58.3279 51.0703 58.6579 51.4004C58.9922 51.7305 59.4112 51.8955 59.9148 51.8955C60.6215 51.8955 61.197 51.6099 61.6413 51.0386L62.4729 51.832C62.1978 52.2425 61.8296 52.562 61.3684 52.7905C60.9113 53.0148 60.3972 53.127 59.8259 53.127ZM59.6418 47.2427C59.2186 47.2427 58.8759 47.3908 58.6135 47.687C58.3554 47.9832 58.1903 48.3958 58.1184 48.9248H61.0573V48.8105C61.0235 48.2943 60.886 47.9049 60.6447 47.6426C60.4035 47.376 60.0692 47.2427 59.6418 47.2427ZM68.9914 46.1318L69.0358 46.8491C69.5183 46.2863 70.1784 46.0049 71.0163 46.0049C71.9346 46.0049 72.563 46.3561 72.9016 47.0586C73.4009 46.3561 74.1034 46.0049 75.009 46.0049C75.7665 46.0049 76.3293 46.2144 76.6975 46.6333C77.0699 47.0522 77.2603 47.6701 77.2687 48.4868V53H75.7263V48.5312C75.7263 48.0954 75.6311 47.7759 75.4406 47.5728C75.2502 47.3696 74.9349 47.2681 74.4948 47.2681C74.1436 47.2681 73.8558 47.3633 73.6315 47.5537C73.4115 47.7399 73.257 47.9854 73.1682 48.29L73.1745 53H71.632V48.4805C71.6109 47.6722 71.1983 47.2681 70.3942 47.2681C69.7764 47.2681 69.3384 47.5199 69.0803 48.0234V53H67.5378V46.1318H68.9914ZM81.5151 50.791L82.9116 46.1318H84.5556L81.8261 54.041C81.4072 55.1963 80.6962 55.7739 79.6933 55.7739C79.469 55.7739 79.2215 55.7358 78.9506 55.6597V54.4663L79.2426 54.4854C79.6319 54.4854 79.9239 54.4134 80.1186 54.2695C80.3175 54.1299 80.4741 53.8929 80.5883 53.5586L80.8105 52.9683L78.3984 46.1318H80.0615L81.5151 50.791ZM95.2192 49.6357C95.2192 50.6979 94.978 51.5464 94.4955 52.1812C94.0131 52.8117 93.3656 53.127 92.5531 53.127C91.7999 53.127 91.1969 52.8794 90.7441 52.3843V55.6406H89.2016V46.1318H90.6235L90.6869 46.8301C91.1397 46.2799 91.7555 46.0049 92.5341 46.0049C93.372 46.0049 94.0279 46.318 94.5019 46.9443C94.9801 47.5664 95.2192 48.4318 95.2192 49.5405V49.6357ZM93.683 49.5024C93.683 48.8169 93.5455 48.2731 93.2704 47.8711C92.9996 47.4691 92.6103 47.2681 92.1025 47.2681C91.4719 47.2681 91.0191 47.5283 90.7441 48.0488V51.0957C91.0234 51.6289 91.4804 51.8955 92.1152 51.8955C92.606 51.8955 92.989 51.6987 93.2641 51.3052C93.5434 50.9074 93.683 50.3065 93.683 49.5024ZM100.386 47.541C100.183 47.5072 99.9733 47.4902 99.7575 47.4902C99.0508 47.4902 98.5747 47.7611 98.3293 48.3027V53H96.7868V46.1318H98.2594L98.2975 46.8999C98.6699 46.3032 99.1862 46.0049 99.8463 46.0049C100.066 46.0049 100.248 46.0345 100.392 46.0938L100.386 47.541ZM101.103 49.5024C101.103 48.8296 101.236 48.2244 101.503 47.687C101.769 47.1453 102.144 46.7306 102.626 46.4429C103.109 46.1509 103.663 46.0049 104.289 46.0049C105.216 46.0049 105.967 46.3032 106.543 46.8999C107.123 47.4966 107.436 48.2879 107.482 49.2739L107.489 49.6357C107.489 50.3128 107.357 50.918 107.095 51.4512C106.837 51.9844 106.465 52.397 105.978 52.689C105.496 52.981 104.937 53.127 104.302 53.127C103.333 53.127 102.557 52.8053 101.973 52.1621C101.393 51.5146 101.103 50.6535 101.103 49.5786V49.5024ZM102.645 49.6357C102.645 50.3424 102.791 50.8968 103.083 51.2988C103.375 51.6966 103.782 51.8955 104.302 51.8955C104.823 51.8955 105.227 51.6924 105.515 51.2861C105.807 50.8799 105.953 50.2853 105.953 49.5024C105.953 48.8084 105.802 48.2583 105.502 47.8521C105.206 47.4458 104.801 47.2427 104.289 47.2427C103.786 47.2427 103.386 47.4437 103.09 47.8457C102.794 48.2435 102.645 48.8402 102.645 49.6357ZM109.463 53V47.2744H108.415V46.1318H109.463V45.6621C109.467 45.1247 109.581 44.6634 109.805 44.2783C110.03 43.8932 110.347 43.6034 110.757 43.4087C111.168 43.214 111.661 43.1167 112.236 43.1167C112.575 43.1167 112.899 43.1527 113.208 43.2246C113.521 43.2965 113.845 43.3875 114.179 43.4976L113.944 44.7734C113.36 44.5703 112.827 44.4688 112.344 44.4688C111.875 44.4688 111.534 44.5724 111.322 44.7798C111.111 44.9829 111.005 45.2897 111.005 45.7002V46.1318H112.357V47.2744H111.005V53H109.463ZM114.909 53H113.366V46.1318H114.909V53ZM118.52 53H116.978V43.25H118.52V53ZM123.49 53.127C122.513 53.127 121.719 52.8201 121.11 52.2065C120.505 51.5887 120.202 50.7677 120.202 49.7437V49.5532C120.202 48.8677 120.333 48.2562 120.596 47.7188C120.862 47.1771 121.235 46.756 121.713 46.4556C122.191 46.1551 122.724 46.0049 123.313 46.0049C124.248 46.0049 124.969 46.3032 125.477 46.8999C125.989 47.4966 126.245 48.3408 126.245 49.4326V50.0547H121.757C121.804 50.6217 121.992 51.0703 122.322 51.4004C122.657 51.7305 123.076 51.8955 123.579 51.8955C124.286 51.8955 124.861 51.6099 125.306 51.0386L126.137 51.832C125.862 52.2425 125.494 52.562 125.033 52.7905C124.576 53.0148 124.062 53.127 123.49 53.127ZM123.306 47.2427C122.883 47.2427 122.54 47.3908 122.278 47.687C122.02 47.9832 121.855 48.3958 121.783 48.9248H124.722V48.8105C124.688 48.2943 124.55 47.9049 124.309 47.6426C124.068 47.376 123.734 47.2427 123.306 47.2427ZM131.748 53V47.2744H130.701V46.1318H131.748V45.5034C131.748 44.7417 131.96 44.1535 132.383 43.7388C132.806 43.3241 133.399 43.1167 134.16 43.1167C134.431 43.1167 134.719 43.1548 135.024 43.231L134.985 44.437C134.816 44.4032 134.619 44.3862 134.395 44.3862C133.659 44.3862 133.291 44.765 133.291 45.5225V46.1318H134.687V47.2744H133.291V53H131.748ZM139.67 47.541C139.467 47.5072 139.257 47.4902 139.041 47.4902C138.335 47.4902 137.859 47.7611 137.613 48.3027V53H136.071V46.1318H137.543L137.581 46.8999C137.954 46.3032 138.47 46.0049 139.13 46.0049C139.35 46.0049 139.532 46.0345 139.676 46.0938L139.67 47.541ZM140.387 49.5024C140.387 48.8296 140.52 48.2244 140.787 47.687C141.053 47.1453 141.428 46.7306 141.91 46.4429C142.393 46.1509 142.947 46.0049 143.573 46.0049C144.5 46.0049 145.251 46.3032 145.827 46.8999C146.406 47.4966 146.72 48.2879 146.766 49.2739L146.773 49.6357C146.773 50.3128 146.641 50.918 146.379 51.4512C146.121 51.9844 145.748 52.397 145.262 52.689C144.779 52.981 144.221 53.127 143.586 53.127C142.617 53.127 141.84 52.8053 141.256 52.1621C140.677 51.5146 140.387 50.6535 140.387 49.5786V49.5024ZM141.929 49.6357C141.929 50.3424 142.075 50.8968 142.367 51.2988C142.659 51.6966 143.066 51.8955 143.586 51.8955C144.107 51.8955 144.511 51.6924 144.798 51.2861C145.09 50.8799 145.236 50.2853 145.236 49.5024C145.236 48.8084 145.086 48.2583 144.786 47.8521C144.489 47.4458 144.085 47.2427 143.573 47.2427C143.07 47.2427 142.67 47.4437 142.374 47.8457C142.077 48.2435 141.929 48.8402 141.929 49.6357ZM149.787 46.1318L149.832 46.8491C150.314 46.2863 150.974 46.0049 151.812 46.0049C152.731 46.0049 153.359 46.3561 153.698 47.0586C154.197 46.3561 154.899 46.0049 155.805 46.0049C156.562 46.0049 157.125 46.2144 157.493 46.6333C157.866 47.0522 158.056 47.6701 158.065 48.4868V53H156.522V48.5312C156.522 48.0954 156.427 47.7759 156.237 47.5728C156.046 47.3696 155.731 47.2681 155.291 47.2681C154.94 47.2681 154.652 47.3633 154.428 47.5537C154.208 47.7399 154.053 47.9854 153.964 48.29L153.971 53H152.428V48.4805C152.407 47.6722 151.994 47.2681 151.19 47.2681C150.572 47.2681 150.134 47.5199 149.876 48.0234V53H148.334V46.1318H149.787ZM169.42 49.6357C169.42 50.6979 169.179 51.5464 168.697 52.1812C168.214 52.8117 167.567 53.127 166.754 53.127C166.001 53.127 165.398 52.8794 164.945 52.3843V55.6406H163.403V46.1318H164.825L164.888 46.8301C165.341 46.2799 165.957 46.0049 166.735 46.0049C167.573 46.0049 168.229 46.318 168.703 46.9443C169.181 47.5664 169.42 48.4318 169.42 49.5405V49.6357ZM167.884 49.5024C167.884 48.8169 167.747 48.2731 167.471 47.8711C167.201 47.4691 166.811 47.2681 166.304 47.2681C165.673 47.2681 165.22 47.5283 164.945 48.0488V51.0957C165.224 51.6289 165.681 51.8955 166.316 51.8955C166.807 51.8955 167.19 51.6987 167.465 51.3052C167.744 50.9074 167.884 50.3065 167.884 49.5024ZM175.095 53C175.027 52.8688 174.968 52.6551 174.917 52.3589C174.426 52.8709 173.825 53.127 173.114 53.127C172.425 53.127 171.862 52.9302 171.426 52.5366C170.99 52.1431 170.772 51.6564 170.772 51.0767C170.772 50.3446 171.043 49.7839 171.585 49.3945C172.13 49.001 172.909 48.8042 173.92 48.8042H174.866V48.3535C174.866 47.998 174.767 47.7145 174.568 47.5029C174.369 47.2871 174.066 47.1792 173.66 47.1792C173.309 47.1792 173.021 47.2681 172.797 47.4458C172.573 47.6193 172.46 47.8415 172.46 48.1123H170.918C170.918 47.7357 171.043 47.3844 171.293 47.0586C171.542 46.7285 171.881 46.4704 172.308 46.2842C172.74 46.098 173.22 46.0049 173.749 46.0049C174.553 46.0049 175.194 46.208 175.672 46.6143C176.151 47.0163 176.396 47.5833 176.409 48.3154V51.4131C176.409 52.0309 176.495 52.5239 176.669 52.8921V53H175.095ZM173.4 51.8892C173.705 51.8892 173.99 51.8151 174.257 51.667C174.528 51.5189 174.731 51.32 174.866 51.0703V49.7754H174.035C173.463 49.7754 173.034 49.8748 172.746 50.0737C172.458 50.2726 172.314 50.554 172.314 50.918C172.314 51.2142 172.412 51.4512 172.606 51.6289C172.805 51.8024 173.07 51.8892 173.4 51.8892ZM181.88 47.541C181.677 47.5072 181.468 47.4902 181.252 47.4902C180.545 47.4902 180.069 47.7611 179.824 48.3027V53H178.281V46.1318H179.754L179.792 46.8999C180.164 46.3032 180.68 46.0049 181.341 46.0049C181.561 46.0049 181.743 46.0345 181.887 46.0938L181.88 47.541ZM185.365 44.4624V46.1318H186.577V47.2744H185.365V51.1084C185.365 51.3708 185.416 51.5612 185.517 51.6797C185.623 51.7939 185.809 51.8511 186.076 51.8511C186.253 51.8511 186.433 51.8299 186.615 51.7876V52.981C186.264 53.0783 185.925 53.127 185.6 53.127C184.415 53.127 183.822 52.4731 183.822 51.1655V47.2744H182.692V46.1318H183.822V44.4624H185.365ZM189.452 46.1318L189.497 46.9253C190.005 46.3117 190.671 46.0049 191.496 46.0049C192.927 46.0049 193.655 46.8237 193.68 48.4614V53H192.137V48.5503C192.137 48.1144 192.042 47.7928 191.852 47.5854C191.666 47.3739 191.359 47.2681 190.931 47.2681C190.309 47.2681 189.846 47.5495 189.541 48.1123V53H187.999V46.1318H189.452ZM198.542 53.127C197.564 53.127 196.771 52.8201 196.162 52.2065C195.556 51.5887 195.254 50.7677 195.254 49.7437V49.5532C195.254 48.8677 195.385 48.2562 195.647 47.7188C195.914 47.1771 196.286 46.756 196.765 46.4556C197.243 46.1551 197.776 46.0049 198.364 46.0049C199.299 46.0049 200.021 46.3032 200.529 46.8999C201.041 47.4966 201.297 48.3408 201.297 49.4326V50.0547H196.809C196.856 50.6217 197.044 51.0703 197.374 51.4004C197.708 51.7305 198.127 51.8955 198.631 51.8955C199.338 51.8955 199.913 51.6099 200.357 51.0386L201.189 51.832C200.914 52.2425 200.546 52.562 200.084 52.7905C199.627 53.0148 199.113 53.127 198.542 53.127ZM198.358 47.2427C197.935 47.2427 197.592 47.3908 197.33 47.687C197.071 47.9832 196.906 48.3958 196.834 48.9248H199.773V48.8105C199.74 48.2943 199.602 47.9049 199.361 47.6426C199.12 47.376 198.785 47.2427 198.358 47.2427ZM206.356 47.541C206.153 47.5072 205.943 47.4902 205.727 47.4902C205.021 47.4902 204.544 47.7611 204.299 48.3027V53H202.757V46.1318H204.229L204.267 46.8999C204.64 46.3032 205.156 46.0049 205.816 46.0049C206.036 46.0049 206.218 46.0345 206.362 46.0938L206.356 47.541ZM210.488 53.127C209.51 53.127 208.717 52.8201 208.107 52.2065C207.502 51.5887 207.2 50.7677 207.2 49.7437V49.5532C207.2 48.8677 207.331 48.2562 207.593 47.7188C207.86 47.1771 208.232 46.756 208.71 46.4556C209.189 46.1551 209.722 46.0049 210.31 46.0049C211.245 46.0049 211.967 46.3032 212.475 46.8999C212.987 47.4966 213.243 48.3408 213.243 49.4326V50.0547H208.755C208.801 50.6217 208.99 51.0703 209.32 51.4004C209.654 51.7305 210.073 51.8955 210.577 51.8955C211.283 51.8955 211.859 51.6099 212.303 51.0386L213.135 51.832C212.86 52.2425 212.492 52.562 212.03 52.7905C211.573 53.0148 211.059 53.127 210.488 53.127ZM210.304 47.2427C209.881 47.2427 209.538 47.3908 209.275 47.687C209.017 47.9832 208.852 48.3958 208.78 48.9248H211.719V48.8105C211.685 48.2943 211.548 47.9049 211.307 47.6426C211.065 47.376 210.731 47.2427 210.304 47.2427ZM214.417 49.5151C214.417 48.4572 214.662 47.6087 215.153 46.9697C215.644 46.3265 216.302 46.0049 217.127 46.0049C217.855 46.0049 218.443 46.2588 218.892 46.7666V43.25H220.434V53H219.038L218.962 52.2891C218.5 52.8477 217.885 53.127 217.114 53.127C216.31 53.127 215.659 52.8032 215.159 52.1558C214.664 51.5083 214.417 50.6281 214.417 49.5151ZM215.959 49.6484C215.959 50.3467 216.092 50.8926 216.359 51.2861C216.63 51.6755 217.013 51.8701 217.508 51.8701C218.139 51.8701 218.6 51.5887 218.892 51.0259V48.0933C218.608 47.5431 218.151 47.2681 217.521 47.2681C217.021 47.2681 216.636 47.467 216.365 47.8647C216.095 48.2583 215.959 48.8529 215.959 49.6484ZM229.962 52.3271C229.509 52.8604 228.866 53.127 228.032 53.127C227.287 53.127 226.722 52.909 226.337 52.4731C225.956 52.0373 225.766 51.4067 225.766 50.5815V46.1318H227.308V50.5625C227.308 51.4342 227.67 51.8701 228.394 51.8701C229.143 51.8701 229.648 51.6014 229.911 51.064V46.1318H231.453V53H230L229.962 52.3271ZM237.134 51.1338C237.134 50.8587 237.02 50.6493 236.791 50.5054C236.567 50.3615 236.193 50.2345 235.668 50.1245C235.143 50.0145 234.705 49.8748 234.354 49.7056C233.584 49.3332 233.199 48.7936 233.199 48.0869C233.199 47.4945 233.448 46.9993 233.948 46.6016C234.447 46.2038 235.082 46.0049 235.852 46.0049C236.673 46.0049 237.335 46.208 237.839 46.6143C238.347 47.0205 238.601 47.5474 238.601 48.1948H237.058C237.058 47.8986 236.948 47.6532 236.728 47.4585C236.508 47.2596 236.216 47.1602 235.852 47.1602C235.513 47.1602 235.236 47.2384 235.02 47.395C234.809 47.5516 234.703 47.7611 234.703 48.0234C234.703 48.2604 234.803 48.4445 235.001 48.5757C235.2 48.7069 235.602 48.8402 236.207 48.9756C236.813 49.1068 237.287 49.2655 237.629 49.4517C237.976 49.6336 238.232 49.8537 238.397 50.1118C238.567 50.37 238.651 50.6831 238.651 51.0513C238.651 51.6691 238.395 52.1706 237.883 52.5557C237.371 52.9365 236.7 53.127 235.871 53.127C235.308 53.127 234.807 53.0254 234.367 52.8223C233.927 52.6191 233.584 52.3398 233.338 51.9844C233.093 51.6289 232.97 51.2459 232.97 50.8354H234.468C234.489 51.1994 234.627 51.4808 234.881 51.6797C235.135 51.8743 235.471 51.9717 235.89 51.9717C236.296 51.9717 236.605 51.8955 236.817 51.7432C237.028 51.5866 237.134 51.3835 237.134 51.1338ZM243.285 53.127C242.307 53.127 241.514 52.8201 240.904 52.2065C240.299 51.5887 239.997 50.7677 239.997 49.7437V49.5532C239.997 48.8677 240.128 48.2562 240.39 47.7188C240.657 47.1771 241.029 46.756 241.508 46.4556C241.986 46.1551 242.519 46.0049 243.107 46.0049C244.042 46.0049 244.764 46.3032 245.272 46.8999C245.784 47.4966 246.04 48.3408 246.04 49.4326V50.0547H241.552C241.598 50.6217 241.787 51.0703 242.117 51.4004C242.451 51.7305 242.87 51.8955 243.374 51.8955C244.08 51.8955 244.656 51.6099 245.1 51.0386L245.932 51.832C245.657 52.2425 245.289 52.562 244.827 52.7905C244.37 53.0148 243.856 53.127 243.285 53.127ZM243.101 47.2427C242.678 47.2427 242.335 47.3908 242.072 47.687C241.814 47.9832 241.649 48.3958 241.577 48.9248H244.516V48.8105C244.482 48.2943 244.345 47.9049 244.104 47.6426C243.862 47.376 243.528 47.2427 243.101 47.2427ZM251.099 47.541C250.895 47.5072 250.686 47.4902 250.47 47.4902C249.763 47.4902 249.287 47.7611 249.042 48.3027V53H247.499V46.1318H248.972L249.01 46.8999C249.383 46.3032 249.899 46.0049 250.559 46.0049C250.779 46.0049 250.961 46.0345 251.105 46.0938L251.099 47.541ZM256.183 51.1338C256.183 50.8587 256.069 50.6493 255.84 50.5054C255.616 50.3615 255.241 50.2345 254.716 50.1245C254.192 50.0145 253.754 49.8748 253.402 49.7056C252.632 49.3332 252.247 48.7936 252.247 48.0869C252.247 47.4945 252.497 46.9993 252.996 46.6016C253.496 46.2038 254.13 46.0049 254.901 46.0049C255.722 46.0049 256.384 46.208 256.887 46.6143C257.395 47.0205 257.649 47.5474 257.649 48.1948H256.107C256.107 47.8986 255.997 47.6532 255.777 47.4585C255.556 47.2596 255.264 47.1602 254.901 47.1602C254.562 47.1602 254.285 47.2384 254.069 47.395C253.857 47.5516 253.752 47.7611 253.752 48.0234C253.752 48.2604 253.851 48.4445 254.05 48.5757C254.249 48.7069 254.651 48.8402 255.256 48.9756C255.861 49.1068 256.335 49.2655 256.678 49.4517C257.025 49.6336 257.281 49.8537 257.446 50.1118C257.615 50.37 257.7 50.6831 257.7 51.0513C257.7 51.6691 257.444 52.1706 256.932 52.5557C256.42 52.9365 255.749 53.127 254.92 53.127C254.357 53.127 253.855 53.0254 253.415 52.8223C252.975 52.6191 252.632 52.3398 252.387 51.9844C252.141 51.6289 252.019 51.2459 252.019 50.8354H253.517C253.538 51.1994 253.675 51.4808 253.929 51.6797C254.183 51.8743 254.52 51.9717 254.939 51.9717C255.345 51.9717 255.654 51.8955 255.865 51.7432C256.077 51.5866 256.183 51.3835 256.183 51.1338Z" fill="#31394E"/>
</g>
<defs>
<filter id="filter0_f" x="0" y="0" width="339.462" height="98.2836" filterUnits="userSpaceOnUse" color-interpolation-filters="sRGB">
<feFlood flood-opacity="0" result="BackgroundImageFix"/>
<feBlend mode="normal" in="SourceGraphic" in2="BackgroundImageFix" result="shape"/>
<feGaussianBlur stdDeviation="7" result="effect1_foregroundBlur"/>
</filter>
<filter id="filter1_ddd" x="285.933" y="29.1632" width="41.8235" height="40.2816" filterUnits="userSpaceOnUse" color-interpolation-filters="sRGB">
<feFlood flood-opacity="0" result="BackgroundImageFix"/>
<feColorMatrix in="SourceAlpha" type="matrix" values="0 0 0 0 0 0 0 0 0 0 0 0 0 0 0 0 0 0 127 0"/>
<feOffset dy="3"/>
<feGaussianBlur stdDeviation="0.5"/>
<feColorMatrix type="matrix" values="0 0 0 0 0 0 0 0 0 0 0 0 0 0 0 0 0 0 0.1 0"/>
<feBlend mode="normal" in2="BackgroundImageFix" result="effect1_dropShadow"/>
<feColorMatrix in="SourceAlpha" type="matrix" values="0 0 0 0 0 0 0 0 0 0 0 0 0 0 0 0 0 0 127 0"/>
<feOffset dy="1"/>
<feGaussianBlur stdDeviation="0.5"/>
<feColorMatrix type="matrix" values="0 0 0 0 0 0 0 0 0 0 0 0 0 0 0 0 0 0 0.16 0"/>
<feBlend mode="normal" in2="effect1_dropShadow" result="effect2_dropShadow"/>
<feColorMatrix in="SourceAlpha" type="matrix" values="0 0 0 0 0 0 0 0 0 0 0 0 0 0 0 0 0 0 127 0"/>
<feOffset dy="3"/>
<feGaussianBlur stdDeviation="4"/>
<feColorMatrix type="matrix" values="0 0 0 0 0 0 0 0 0 0 0 0 0 0 0 0 0 0 0.15 0"/>
<feBlend mode="normal" in2="effect2_dropShadow" result="effect3_dropShadow"/>
<feBlend mode="normal" in="SourceGraphic" in2="effect3_dropShadow" result="shape"/>
</filter>
<linearGradient id="paint0_linear" x1="48.4128" y1="83.0261" x2="48.1355" y2="17.2134" gradientUnits="userSpaceOnUse">
<stop stop-color="#121B37" stop-opacity="0.56"/>
<stop offset="0.121897" stop-color="#121B37" stop-opacity="0.31"/>
<stop offset="0.444636" stop-color="#121B37" stop-opacity="0.22"/>
<stop offset="0.801521" stop-color="#121B37" stop-opacity="0.2"/>
<stop offset="1" stop-color="#121B37" stop-opacity="0.13"/>
</linearGradient>
<linearGradient id="paint1_linear" x1="160.525" y1="4.20126" x2="160.525" y2="82.2061" gradientUnits="userSpaceOnUse">
<stop stop-color="white"/>
<stop offset="1" stop-color="white"/>
</linearGradient>
<linearGradient id="paint2_linear" x1="158.499" y1="2.73982" x2="158.499" y2="83.3448" gradientUnits="userSpaceOnUse">
<stop stop-color="white"/>
<stop offset="1" stop-color="white"/>
</linearGradient>
<linearGradient id="paint3_linear" x1="344.377" y1="59.6075" x2="344.377" y2="86.2151" gradientUnits="userSpaceOnUse">
<stop stop-color="#3F60C7"/>
<stop offset="1" stop-color="#1841C1"/>
</linearGradient>
</defs>
</svg>
