<svg width="448" height="78" viewBox="0 0 448 78" fill="none" xmlns="http://www.w3.org/2000/svg">
<path d="M0.5 62L0.5 16C0.5 7.43959 7.43957 0.500006 16 0.500014L432 0.50037C440.56 0.500377 447.5 7.43998 447.5 16.0004V62C447.5 70.5604 440.56 77.5 432 77.5L16 77.5C7.43959 77.5 0.5 70.5604 0.5 62Z" fill="#E73859" stroke="#F65775"/>
<path d="M50.2275 43.3086L52.5244 32.0703H55.0981L51.6528 47H49.1714L46.3311 36.1001L43.4292 47H40.9375L37.4922 32.0703H40.0659L42.3833 43.2881L45.2339 32.0703H47.4077L50.2275 43.3086ZM59.21 37.1152C60.0234 36.1719 61.0522 35.7002 62.2964 35.7002C64.6616 35.7002 65.8613 37.0503 65.8955 39.7505V47H63.4038V39.8428C63.4038 39.0771 63.2363 38.5371 62.9014 38.2227C62.5732 37.9014 62.0879 37.7407 61.4453 37.7407C60.4473 37.7407 59.7021 38.1851 59.21 39.0737V47H56.7183V31.25H59.21V37.1152ZM73.3091 47.2051C71.73 47.2051 70.4482 46.7095 69.4639 45.7183C68.4863 44.7202 67.9976 43.394 67.9976 41.7397V41.4321C67.9976 40.3247 68.2095 39.3369 68.6333 38.4688C69.064 37.5938 69.6655 36.9136 70.438 36.4282C71.2104 35.9429 72.0718 35.7002 73.022 35.7002C74.5327 35.7002 75.6982 36.1821 76.5186 37.146C77.3457 38.1099 77.7593 39.4736 77.7593 41.2373V42.2422H70.5098C70.585 43.1582 70.8892 43.8828 71.4224 44.416C71.9624 44.9492 72.6392 45.2158 73.4526 45.2158C74.5942 45.2158 75.5239 44.7544 76.2417 43.8315L77.585 45.1133C77.1406 45.7764 76.5459 46.2925 75.8008 46.6616C75.0625 47.0239 74.2319 47.2051 73.3091 47.2051ZM73.0117 37.6997C72.3281 37.6997 71.7744 37.939 71.3506 38.4175C70.9336 38.896 70.667 39.5625 70.5508 40.417H75.2983V40.2324C75.2437 39.3984 75.0215 38.7695 74.6318 38.3457C74.2422 37.915 73.7021 37.6997 73.0117 37.6997ZM82.0146 35.9053L82.0864 37.187C82.9067 36.1958 83.9834 35.7002 85.3164 35.7002C87.627 35.7002 88.8027 37.0229 88.8438 39.6685V47H86.3521V39.812C86.3521 39.1079 86.1982 38.5884 85.8906 38.2534C85.5898 37.9116 85.0942 37.7407 84.4038 37.7407C83.3989 37.7407 82.6504 38.1953 82.1582 39.1045V47H79.6665V35.9053H82.0146ZM103.25 47C103.141 46.7881 103.045 46.4429 102.963 45.9644C102.17 46.7915 101.2 47.2051 100.051 47.2051C98.937 47.2051 98.0278 46.8872 97.3237 46.2515C96.6196 45.6157 96.2676 44.8296 96.2676 43.8931C96.2676 42.7104 96.7051 41.8047 97.5801 41.1758C98.4619 40.54 99.7197 40.2222 101.354 40.2222H102.881V39.4941C102.881 38.9199 102.721 38.4619 102.399 38.1201C102.078 37.7715 101.589 37.5972 100.933 37.5972C100.366 37.5972 99.9009 37.7407 99.5386 38.0278C99.1763 38.3081 98.9951 38.667 98.9951 39.1045H96.5034C96.5034 38.4961 96.7051 37.9287 97.1084 37.4023C97.5117 36.8691 98.0586 36.4521 98.749 36.1514C99.4463 35.8506 100.222 35.7002 101.077 35.7002C102.375 35.7002 103.411 36.0283 104.184 36.6846C104.956 37.334 105.353 38.25 105.373 39.4326V44.4365C105.373 45.4346 105.513 46.231 105.793 46.8257V47H103.25ZM100.513 45.2056C101.005 45.2056 101.466 45.0859 101.897 44.8467C102.334 44.6074 102.663 44.2861 102.881 43.8828V41.791H101.538C100.615 41.791 99.9214 41.9517 99.4565 42.2729C98.9917 42.5942 98.7593 43.0488 98.7593 43.6367C98.7593 44.1152 98.9165 44.498 99.231 44.7852C99.5522 45.0654 99.9795 45.2056 100.513 45.2056ZM110.295 35.9053L110.367 37.187C111.187 36.1958 112.264 35.7002 113.597 35.7002C115.907 35.7002 117.083 37.0229 117.124 39.6685V47H114.632V39.812C114.632 39.1079 114.479 38.5884 114.171 38.2534C113.87 37.9116 113.375 37.7407 112.684 37.7407C111.679 37.7407 110.931 38.1953 110.438 39.1045V47H107.947V35.9053H110.295ZM119.206 41.3706C119.206 39.6616 119.602 38.291 120.395 37.2588C121.188 36.2197 122.251 35.7002 123.584 35.7002C124.76 35.7002 125.71 36.1104 126.435 36.9307V31.25H128.926V47H126.67L126.547 45.8516C125.802 46.7539 124.808 47.2051 123.563 47.2051C122.265 47.2051 121.212 46.6821 120.405 45.6362C119.605 44.5903 119.206 43.1685 119.206 41.3706ZM121.697 41.5859C121.697 42.7139 121.913 43.5957 122.343 44.2314C122.781 44.8604 123.399 45.1748 124.199 45.1748C125.218 45.1748 125.963 44.7202 126.435 43.811V39.0737C125.977 38.1851 125.238 37.7407 124.22 37.7407C123.413 37.7407 122.791 38.062 122.354 38.7046C121.916 39.3403 121.697 40.3008 121.697 41.5859ZM146.501 43.5649L148.265 35.9053H150.695L147.67 47H145.62L143.241 39.3813L140.903 47H138.852L135.817 35.9053H138.247L140.042 43.4829L142.318 35.9053H144.194L146.501 43.5649ZM154.817 37.1152C155.631 36.1719 156.66 35.7002 157.904 35.7002C160.269 35.7002 161.469 37.0503 161.503 39.7505V47H159.011V39.8428C159.011 39.0771 158.844 38.5371 158.509 38.2227C158.181 37.9014 157.695 37.7407 157.053 37.7407C156.055 37.7407 155.31 38.1851 154.817 39.0737V47H152.326V31.25H154.817V37.1152ZM168.917 47.2051C167.337 47.2051 166.056 46.7095 165.071 45.7183C164.094 44.7202 163.605 43.394 163.605 41.7397V41.4321C163.605 40.3247 163.817 39.3369 164.241 38.4688C164.671 37.5938 165.273 36.9136 166.045 36.4282C166.818 35.9429 167.679 35.7002 168.629 35.7002C170.14 35.7002 171.306 36.1821 172.126 37.146C172.953 38.1099 173.367 39.4736 173.367 41.2373V42.2422H166.117C166.192 43.1582 166.497 43.8828 167.03 44.416C167.57 44.9492 168.247 45.2158 169.06 45.2158C170.202 45.2158 171.131 44.7544 171.849 43.8315L173.192 45.1133C172.748 45.7764 172.153 46.2925 171.408 46.6616C170.67 47.0239 169.839 47.2051 168.917 47.2051ZM168.619 37.6997C167.936 37.6997 167.382 37.939 166.958 38.4175C166.541 38.896 166.274 39.5625 166.158 40.417H170.906V40.2324C170.851 39.3984 170.629 38.7695 170.239 38.3457C169.85 37.915 169.31 37.6997 168.619 37.6997ZM181.119 38.1816C180.791 38.127 180.452 38.0996 180.104 38.0996C178.962 38.0996 178.193 38.5371 177.796 39.4121V47H175.305V35.9053H177.684L177.745 37.146C178.347 36.1821 179.181 35.7002 180.247 35.7002C180.603 35.7002 180.896 35.748 181.129 35.8438L181.119 38.1816ZM187.374 47.2051C185.794 47.2051 184.513 46.7095 183.528 45.7183C182.551 44.7202 182.062 43.394 182.062 41.7397V41.4321C182.062 40.3247 182.274 39.3369 182.698 38.4688C183.128 37.5938 183.73 36.9136 184.502 36.4282C185.275 35.9429 186.136 35.7002 187.086 35.7002C188.597 35.7002 189.763 36.1821 190.583 37.146C191.41 38.1099 191.824 39.4736 191.824 41.2373V42.2422H184.574C184.649 43.1582 184.954 43.8828 185.487 44.416C186.027 44.9492 186.704 45.2158 187.517 45.2158C188.659 45.2158 189.588 44.7544 190.306 43.8315L191.649 45.1133C191.205 45.7764 190.61 46.2925 189.865 46.6616C189.127 47.0239 188.296 47.2051 187.374 47.2051ZM187.076 37.6997C186.393 37.6997 185.839 37.939 185.415 38.4175C184.998 38.896 184.731 39.5625 184.615 40.417H189.363V40.2324C189.308 39.3984 189.086 38.7695 188.696 38.3457C188.307 37.915 187.767 37.6997 187.076 37.6997ZM208.743 43.5649L210.506 35.9053H212.937L209.912 47H207.861L205.482 39.3813L203.144 47H201.093L198.058 35.9053H200.488L202.283 43.4829L204.559 35.9053H206.436L208.743 43.5649ZM219.489 47.2051C217.91 47.2051 216.628 46.7095 215.644 45.7183C214.666 44.7202 214.177 43.394 214.177 41.7397V41.4321C214.177 40.3247 214.389 39.3369 214.813 38.4688C215.244 37.5938 215.845 36.9136 216.618 36.4282C217.39 35.9429 218.251 35.7002 219.202 35.7002C220.712 35.7002 221.878 36.1821 222.698 37.146C223.525 38.1099 223.939 39.4736 223.939 41.2373V42.2422H216.689C216.765 43.1582 217.069 43.8828 217.602 44.416C218.142 44.9492 218.819 45.2158 219.632 45.2158C220.774 45.2158 221.704 44.7544 222.421 43.8315L223.765 45.1133C223.32 45.7764 222.726 46.2925 221.98 46.6616C221.242 47.0239 220.412 47.2051 219.489 47.2051ZM219.191 37.6997C218.508 37.6997 217.954 37.939 217.53 38.4175C217.113 38.896 216.847 39.5625 216.73 40.417H221.478V40.2324C221.423 39.3984 221.201 38.7695 220.812 38.3457C220.422 37.915 219.882 37.6997 219.191 37.6997ZM231.691 38.1816C231.363 38.127 231.024 38.0996 230.676 38.0996C229.534 38.0996 228.765 38.5371 228.369 39.4121V47H225.877V35.9053H228.256L228.317 37.146C228.919 36.1821 229.753 35.7002 230.819 35.7002C231.175 35.7002 231.469 35.748 231.701 35.8438L231.691 38.1816ZM237.946 47.2051C236.367 47.2051 235.085 46.7095 234.101 45.7183C233.123 44.7202 232.634 43.394 232.634 41.7397V41.4321C232.634 40.3247 232.846 39.3369 233.27 38.4688C233.701 37.5938 234.302 36.9136 235.075 36.4282C235.847 35.9429 236.708 35.7002 237.659 35.7002C239.169 35.7002 240.335 36.1821 241.155 37.146C241.982 38.1099 242.396 39.4736 242.396 41.2373V42.2422H235.146C235.222 43.1582 235.526 43.8828 236.059 44.416C236.599 44.9492 237.276 45.2158 238.089 45.2158C239.231 45.2158 240.161 44.7544 240.878 43.8315L242.222 45.1133C241.777 45.7764 241.183 46.2925 240.438 46.6616C239.699 47.0239 238.869 47.2051 237.946 47.2051ZM237.648 37.6997C236.965 37.6997 236.411 37.939 235.987 38.4175C235.57 38.896 235.304 39.5625 235.188 40.417H239.935V40.2324C239.88 39.3984 239.658 38.7695 239.269 38.3457C238.879 37.915 238.339 37.6997 237.648 37.6997ZM253.45 43.4316L255.706 35.9053H258.361L253.952 48.6816C253.275 50.5479 252.127 51.481 250.507 51.481C250.145 51.481 249.745 51.4194 249.307 51.2964V49.3687L249.779 49.3994C250.408 49.3994 250.879 49.2832 251.194 49.0508C251.515 48.8252 251.768 48.4424 251.953 47.9023L252.312 46.9487L248.415 35.9053H251.102L253.45 43.4316ZM259.171 41.3501C259.171 40.2632 259.387 39.2856 259.817 38.4175C260.248 37.5425 260.853 36.8726 261.632 36.4077C262.412 35.936 263.307 35.7002 264.319 35.7002C265.816 35.7002 267.029 36.1821 267.959 37.146C268.896 38.1099 269.401 39.3882 269.477 40.981L269.487 41.5654C269.487 42.6592 269.275 43.6367 268.851 44.498C268.434 45.3594 267.833 46.0259 267.046 46.4976C266.267 46.9692 265.365 47.2051 264.339 47.2051C262.774 47.2051 261.52 46.6855 260.576 45.6465C259.64 44.6006 259.171 43.2095 259.171 41.4731V41.3501ZM261.663 41.5654C261.663 42.707 261.899 43.6025 262.371 44.252C262.842 44.8945 263.499 45.2158 264.339 45.2158C265.18 45.2158 265.833 44.8877 266.298 44.2314C266.77 43.5752 267.005 42.6147 267.005 41.3501C267.005 40.229 266.763 39.3403 266.277 38.6841C265.799 38.0278 265.146 37.6997 264.319 37.6997C263.505 37.6997 262.859 38.0244 262.381 38.6738C261.902 39.3164 261.663 40.2803 261.663 41.5654ZM278.315 45.9131C277.584 46.7744 276.545 47.2051 275.198 47.2051C273.995 47.2051 273.083 46.853 272.46 46.1489C271.845 45.4448 271.538 44.4263 271.538 43.0933V35.9053H274.029V43.0625C274.029 44.4707 274.614 45.1748 275.783 45.1748C276.993 45.1748 277.81 44.7407 278.233 43.8726V35.9053H280.725V47H278.377L278.315 45.9131ZM291.615 33.2085V35.9053H293.573V37.751H291.615V43.9443C291.615 44.3682 291.697 44.6758 291.861 44.8672C292.032 45.0518 292.333 45.144 292.763 45.144C293.05 45.144 293.341 45.1099 293.635 45.0415V46.9692C293.067 47.1265 292.521 47.2051 291.994 47.2051C290.08 47.2051 289.123 46.1489 289.123 44.0366V37.751H287.298V35.9053H289.123V33.2085H291.615ZM297.941 37.1152C298.755 36.1719 299.784 35.7002 301.028 35.7002C303.393 35.7002 304.593 37.0503 304.627 39.7505V47H302.135V39.8428C302.135 39.0771 301.968 38.5371 301.633 38.2227C301.305 37.9014 300.819 37.7407 300.177 37.7407C299.179 37.7407 298.434 38.1851 297.941 39.0737V47H295.45V31.25H297.941V37.1152ZM312.041 47.2051C310.461 47.2051 309.18 46.7095 308.195 45.7183C307.218 44.7202 306.729 43.394 306.729 41.7397V41.4321C306.729 40.3247 306.941 39.3369 307.365 38.4688C307.795 37.5938 308.397 36.9136 309.169 36.4282C309.942 35.9429 310.803 35.7002 311.753 35.7002C313.264 35.7002 314.43 36.1821 315.25 37.146C316.077 38.1099 316.491 39.4736 316.491 41.2373V42.2422H309.241C309.316 43.1582 309.621 43.8828 310.154 44.416C310.694 44.9492 311.371 45.2158 312.184 45.2158C313.326 45.2158 314.255 44.7544 314.973 43.8315L316.316 45.1133C315.872 45.7764 315.277 46.2925 314.532 46.6616C313.794 47.0239 312.963 47.2051 312.041 47.2051ZM311.743 37.6997C311.06 37.6997 310.506 37.939 310.082 38.4175C309.665 38.896 309.398 39.5625 309.282 40.417H314.03V40.2324C313.975 39.3984 313.753 38.7695 313.363 38.3457C312.974 37.915 312.434 37.6997 311.743 37.6997ZM326.119 37.1152C326.933 36.1719 327.961 35.7002 329.206 35.7002C331.571 35.7002 332.771 37.0503 332.805 39.7505V47H330.313V39.8428C330.313 39.0771 330.146 38.5371 329.811 38.2227C329.482 37.9014 328.997 37.7407 328.354 37.7407C327.356 37.7407 326.611 38.1851 326.119 39.0737V47H323.627V31.25H326.119V37.1152ZM341.961 47C341.852 46.7881 341.756 46.4429 341.674 45.9644C340.881 46.7915 339.911 47.2051 338.762 47.2051C337.648 47.2051 336.739 46.8872 336.035 46.2515C335.331 45.6157 334.979 44.8296 334.979 43.8931C334.979 42.7104 335.416 41.8047 336.291 41.1758C337.173 40.54 338.431 40.2222 340.064 40.2222H341.592V39.4941C341.592 38.9199 341.432 38.4619 341.11 38.1201C340.789 37.7715 340.3 37.5972 339.644 37.5972C339.077 37.5972 338.612 37.7407 338.25 38.0278C337.887 38.3081 337.706 38.667 337.706 39.1045H335.214C335.214 38.4961 335.416 37.9287 335.819 37.4023C336.223 36.8691 336.77 36.4521 337.46 36.1514C338.157 35.8506 338.933 35.7002 339.788 35.7002C341.086 35.7002 342.122 36.0283 342.895 36.6846C343.667 37.334 344.063 38.25 344.084 39.4326V44.4365C344.084 45.4346 344.224 46.231 344.504 46.8257V47H341.961ZM339.224 45.2056C339.716 45.2056 340.177 45.0859 340.608 44.8467C341.045 44.6074 341.374 44.2861 341.592 43.8828V41.791H340.249C339.326 41.791 338.632 41.9517 338.167 42.2729C337.703 42.5942 337.47 43.0488 337.47 43.6367C337.47 44.1152 337.627 44.498 337.942 44.7852C338.263 45.0654 338.69 45.2056 339.224 45.2056ZM356.409 41.5654C356.409 43.2812 356.02 44.6519 355.24 45.6772C354.461 46.6958 353.415 47.2051 352.103 47.2051C350.886 47.2051 349.912 46.8052 349.18 46.0054V51.2656H346.688V35.9053H348.985L349.088 37.0332C349.819 36.1445 350.814 35.7002 352.072 35.7002C353.425 35.7002 354.485 36.2061 355.25 37.2178C356.023 38.2227 356.409 39.6206 356.409 41.4116V41.5654ZM353.928 41.3501C353.928 40.2427 353.706 39.3643 353.261 38.7148C352.824 38.0654 352.195 37.7407 351.375 37.7407C350.356 37.7407 349.625 38.1611 349.18 39.002V43.9238C349.631 44.7852 350.37 45.2158 351.395 45.2158C352.188 45.2158 352.807 44.8979 353.251 44.2622C353.702 43.6196 353.928 42.6489 353.928 41.3501ZM368.242 41.5654C368.242 43.2812 367.853 44.6519 367.073 45.6772C366.294 46.6958 365.248 47.2051 363.936 47.2051C362.719 47.2051 361.745 46.8052 361.013 46.0054V51.2656H358.521V35.9053H360.818L360.921 37.0332C361.652 36.1445 362.647 35.7002 363.905 35.7002C365.258 35.7002 366.318 36.2061 367.083 37.2178C367.856 38.2227 368.242 39.6206 368.242 41.4116V41.5654ZM365.761 41.3501C365.761 40.2427 365.539 39.3643 365.094 38.7148C364.657 38.0654 364.028 37.7407 363.208 37.7407C362.189 37.7407 361.458 38.1611 361.013 39.002V43.9238C361.464 44.7852 362.203 45.2158 363.228 45.2158C364.021 45.2158 364.64 44.8979 365.084 44.2622C365.535 43.6196 365.761 42.6489 365.761 41.3501ZM373.01 47H370.519V35.9053H373.01V47ZM370.365 33.0239C370.365 32.6411 370.484 32.3232 370.724 32.0703C370.97 31.8174 371.318 31.6909 371.77 31.6909C372.221 31.6909 372.569 31.8174 372.815 32.0703C373.062 32.3232 373.185 32.6411 373.185 33.0239C373.185 33.3999 373.062 33.7144 372.815 33.9673C372.569 34.2134 372.221 34.3364 371.77 34.3364C371.318 34.3364 370.97 34.2134 370.724 33.9673C370.484 33.7144 370.365 33.3999 370.365 33.0239ZM380.619 47.2051C379.04 47.2051 377.758 46.7095 376.773 45.7183C375.796 44.7202 375.307 43.394 375.307 41.7397V41.4321C375.307 40.3247 375.519 39.3369 375.943 38.4688C376.374 37.5938 376.975 36.9136 377.748 36.4282C378.52 35.9429 379.381 35.7002 380.332 35.7002C381.842 35.7002 383.008 36.1821 383.828 37.146C384.655 38.1099 385.069 39.4736 385.069 41.2373V42.2422H377.819C377.895 43.1582 378.199 43.8828 378.732 44.416C379.272 44.9492 379.949 45.2158 380.762 45.2158C381.904 45.2158 382.833 44.7544 383.551 43.8315L384.895 45.1133C384.45 45.7764 383.855 46.2925 383.11 46.6616C382.372 47.0239 381.542 47.2051 380.619 47.2051ZM380.321 37.6997C379.638 37.6997 379.084 37.939 378.66 38.4175C378.243 38.896 377.977 39.5625 377.86 40.417H382.608V40.2324C382.553 39.3984 382.331 38.7695 381.941 38.3457C381.552 37.915 381.012 37.6997 380.321 37.6997ZM393.231 43.9854C393.231 43.541 393.046 43.2026 392.677 42.9702C392.315 42.7378 391.71 42.5327 390.862 42.355C390.015 42.1772 389.307 41.9517 388.74 41.6782C387.496 41.0767 386.874 40.2051 386.874 39.0635C386.874 38.1064 387.277 37.3066 388.083 36.6641C388.89 36.0215 389.916 35.7002 391.16 35.7002C392.486 35.7002 393.556 36.0283 394.369 36.6846C395.189 37.3408 395.6 38.1919 395.6 39.2378H393.108C393.108 38.7593 392.93 38.3628 392.575 38.0483C392.219 37.7271 391.748 37.5664 391.16 37.5664C390.613 37.5664 390.165 37.6929 389.816 37.9458C389.475 38.1987 389.304 38.5371 389.304 38.9609C389.304 39.3438 389.464 39.6411 389.786 39.853C390.107 40.0649 390.756 40.2803 391.734 40.499C392.711 40.7109 393.477 40.9673 394.031 41.2681C394.591 41.562 395.005 41.9175 395.271 42.3345C395.545 42.7515 395.682 43.2573 395.682 43.8521C395.682 44.8501 395.268 45.6602 394.441 46.2822C393.614 46.8975 392.53 47.2051 391.19 47.2051C390.281 47.2051 389.471 47.041 388.76 46.7129C388.049 46.3848 387.496 45.9336 387.099 45.3594C386.703 44.7852 386.504 44.1665 386.504 43.5034H388.924C388.958 44.0913 389.181 44.5459 389.591 44.8672C390.001 45.1816 390.544 45.3389 391.221 45.3389C391.877 45.3389 392.376 45.2158 392.718 44.9697C393.06 44.7168 393.231 44.3887 393.231 43.9854ZM400.983 33.2085V35.9053H402.941V37.751H400.983V43.9443C400.983 44.3682 401.065 44.6758 401.229 44.8672C401.4 45.0518 401.701 45.144 402.131 45.144C402.418 45.144 402.709 45.1099 403.003 45.0415V46.9692C402.436 47.1265 401.889 47.2051 401.362 47.2051C399.448 47.2051 398.491 46.1489 398.491 44.0366V37.751H396.666V35.9053H398.491V33.2085H400.983ZM407.166 42.6113C407.166 41.7021 407.279 40.9775 407.504 40.4375C407.73 39.8975 408.174 39.3062 408.837 38.6636C409.507 38.0142 409.931 37.5527 410.109 37.2793C410.382 36.8623 410.519 36.4111 410.519 35.9258C410.519 35.2832 410.358 34.7944 410.037 34.4595C409.723 34.1177 409.258 33.9468 408.643 33.9468C408.055 33.9468 407.58 34.1143 407.217 34.4492C406.862 34.7773 406.684 35.2251 406.684 35.7925H404.192C404.206 34.5825 404.616 33.6255 405.423 32.9214C406.236 32.2173 407.31 31.8652 408.643 31.8652C410.017 31.8652 411.086 32.2139 411.852 32.9111C412.625 33.6084 413.011 34.5825 413.011 35.8335C413.011 36.9478 412.491 38.0449 411.452 39.125L410.191 40.3657C409.74 40.8784 409.507 41.627 409.494 42.6113H407.166ZM406.992 45.8003C406.992 45.397 407.118 45.0723 407.371 44.8262C407.624 44.5732 407.966 44.4468 408.396 44.4468C408.834 44.4468 409.179 44.5767 409.432 44.8364C409.685 45.0894 409.812 45.4106 409.812 45.8003C409.812 46.1763 409.688 46.4907 409.442 46.7437C409.196 46.9966 408.848 47.123 408.396 47.123C407.945 47.123 407.597 46.9966 407.351 46.7437C407.111 46.4907 406.992 46.1763 406.992 45.8003Z" fill="white"/>
</svg>
