<svg width="100" height="100" viewBox="0 0 100 100" fill="none" xmlns="http://www.w3.org/2000/svg">
<g clip-path="url(#clip0)">
<path d="M46.928 8.25815C46.9308 8.25885 46.9334 8.25932 46.9362 8.25979C47.9502 8.4525 48.6157 9.43078 48.423 10.4446L46.0497 22.9464C45.9477 23.4823 45.6164 23.9469 45.1432 24.2181C44.2476 24.7313 43.1058 24.4213 42.5926 23.5257C41.9385 22.3629 40.8028 21.5495 39.4912 21.3054C37.0459 20.8502 34.6946 22.4633 34.2393 24.9086C33.9812 26.2246 34.323 27.5872 35.1716 28.6255C36.7455 30.5515 39.5827 30.8367 41.5087 29.2627C41.9591 28.8911 42.5573 28.7512 43.1256 28.8848C44.1303 29.1209 44.7535 30.1268 44.5174 31.1315L42.1441 43.6333C42.1434 43.6361 42.1429 43.6387 42.1424 43.6415C41.9497 44.6555 40.9717 45.321 39.9577 45.1283L27.4999 42.4999C27.6875 43.4941 27.686 45.1161 26.4999 46.4999C23.4999 49.9999 17.4999 47.9999 17.2598 43.6415C17.2598 42.6488 17.4603 41.857 17.9999 40.9999L7.64722 38.9615C7.64442 38.9608 7.64185 38.9603 7.63905 38.9598C6.62502 38.7671 5.95952 37.7891 6.15223 36.7751L12.0761 5.64192L12.0768 5.63795C12.4751 3.53889 14.4994 2.16023 16.5985 2.55851L46.928 8.25815Z" fill="#F7F9FE"/>
<path d="M8.17283 54.8668C8.1737 54.864 8.17432 54.8615 8.17495 54.8587C8.42732 53.8579 9.44327 53.2514 10.4439 53.5038L22.7834 56.6126C23.3123 56.7462 23.7565 57.1044 23.9992 57.5929C24.4585 58.5173 24.0815 59.6387 23.1571 60.098C21.9576 60.6821 21.0785 61.7677 20.7572 63.0626C20.1581 65.4766 21.6293 67.9193 24.0433 68.5185C25.3418 68.854 26.7222 68.5935 27.8089 67.8078C29.8246 66.3505 30.2772 63.5352 28.82 61.5194C28.4756 61.0479 28.3713 60.4424 28.5383 59.883C28.8335 58.894 29.8745 58.3314 30.8634 58.6266L43.2029 61.7355C43.2057 61.7364 43.2082 61.737 43.211 61.7376C44.2119 61.99 44.8183 63.0057 44.5659 64.0065L41.2051 76.287C42.2086 76.1586 43.8277 76.256 45.1389 77.5219C48.4553 80.7237 46.1037 86.5949 41.7387 86.5767C40.7478 86.518 39.9692 86.2709 39.1456 85.6816L36.4981 95.8955C36.4973 95.8982 36.4966 95.9008 36.496 95.9035C36.2436 96.9044 35.2279 97.5109 34.2271 97.2585L3.49901 89.5028L3.49509 89.5019C1.42327 88.9801 0.166807 86.8778 0.688584 84.806L8.17283 54.8668Z" fill="#F7F9FE"/>
<path d="M87.5673 55.7957C87.5661 55.7983 87.5651 55.8007 87.5641 55.8034C87.1785 56.7608 86.0897 57.224 85.1325 56.8384L73.328 52.0863C72.8221 51.8823 72.4306 51.4672 72.2563 50.9504C71.9264 49.9723 72.4519 48.9122 73.43 48.5824C74.6976 48.1662 75.7157 47.2097 76.2095 45.9703C77.1302 43.6598 76.0035 41.0403 73.6929 40.1196C72.4519 39.6112 71.0489 39.6823 69.8658 40.3135C67.6712 41.4842 66.8413 44.2122 68.012 46.4068C68.2892 46.9207 68.3105 47.5347 68.0693 48.0663C67.6428 49.0062 66.5352 49.4226 65.5954 48.9961L53.7909 44.244C53.7883 44.2427 53.7858 44.2418 53.7832 44.2408C52.8258 43.8551 52.3625 42.7666 52.7482 41.8092L57.742 30.0974C56.7303 30.0886 55.1393 29.7727 54.0117 28.3408C51.1598 24.7192 54.2851 19.2208 58.6074 19.8302C59.5813 20.0227 60.3192 20.3729 61.0554 21.0685L65.0623 11.3075C65.0636 11.3048 65.0645 11.3024 65.0655 11.2998C65.4512 10.3423 66.5397 9.87908 67.4971 10.2647L96.891 22.1123L96.8947 22.1138C98.8767 22.9115 99.8368 25.1646 99.0391 27.1467L87.5673 55.7957Z" fill="#F7F9FE"/>
</g>
<defs>
<clipPath id="clip0">
<rect width="100" height="100" fill="white" transform="translate(0.00012207)"/>
</clipPath>
</defs>
</svg>
