<svg width="124" height="76" viewBox="0 0 124 76" fill="none" xmlns="http://www.w3.org/2000/svg">
<rect x="0.719727" width="122.992" height="75.0758" rx="14" fill="white"/>
<path d="M28.3263 56.4735V45.0985H32.2247C33.5112 45.0985 34.4904 45.3563 35.1622 45.8719C35.8341 46.3876 36.17 47.1558 36.17 48.1766C36.17 48.6975 36.0294 49.1662 35.7482 49.5829C35.4669 49.9996 35.0555 50.3225 34.5138 50.5516C35.1284 50.7183 35.6023 51.0334 35.9357 51.4969C36.2742 51.9553 36.4435 52.5074 36.4435 53.1532C36.4435 54.2209 36.0997 55.0412 35.4122 55.6141C34.7299 56.1871 33.7508 56.4735 32.4747 56.4735H28.3263ZM30.3029 51.3407V54.8954H32.4982C33.118 54.8954 33.6023 54.7417 33.9513 54.4344C34.3002 54.1272 34.4747 53.7001 34.4747 53.1532C34.4747 51.9709 33.8706 51.3667 32.6622 51.3407H30.3029ZM30.3029 49.8876H32.2404C32.8549 49.8876 33.3341 49.7496 33.6779 49.4735C34.0268 49.1923 34.2013 48.7964 34.2013 48.286C34.2013 47.7235 34.0398 47.3173 33.7169 47.0673C33.3992 46.8173 32.9018 46.6923 32.2247 46.6923H30.3029V49.8876ZM42.9822 49.7548C42.7322 49.7131 42.4744 49.6923 42.2088 49.6923C41.339 49.6923 40.7531 50.0256 40.451 50.6923V56.4735H38.5525V48.0204H40.365L40.4119 48.9657C40.8702 48.2313 41.5057 47.8641 42.3182 47.8641C42.589 47.8641 42.813 47.9006 42.99 47.9735L42.9822 49.7548ZM48.0679 56.6298C46.8647 56.6298 45.8882 56.2522 45.1382 55.4969C44.3934 54.7365 44.021 53.7261 44.021 52.4657V52.2313C44.021 51.3876 44.1824 50.635 44.5054 49.9735C44.8335 49.3068 45.2918 48.7886 45.8804 48.4188C46.4689 48.049 47.1251 47.8641 47.8491 47.8641C49.0001 47.8641 49.8882 48.2313 50.5132 48.9657C51.1434 49.7001 51.4585 50.7391 51.4585 52.0829V52.8485H45.935C45.9923 53.5464 46.2241 54.0985 46.6304 54.5048C47.0418 54.911 47.5574 55.1141 48.1772 55.1141C49.047 55.1141 49.7554 54.7626 50.3022 54.0594L51.3257 55.036C50.9871 55.5412 50.534 55.9344 49.9663 56.2157C49.4038 56.4917 48.771 56.6298 48.0679 56.6298ZM47.8413 49.3876C47.3205 49.3876 46.8986 49.5699 46.5757 49.9344C46.258 50.299 46.0548 50.8068 45.9663 51.4579H49.5835V51.3173C49.5418 50.6818 49.3725 50.2027 49.0757 49.8798C48.7788 49.5516 48.3673 49.3876 47.8413 49.3876ZM58.3097 56.4735C58.2264 56.3121 58.1535 56.049 58.091 55.6844C57.4868 56.3147 56.7472 56.6298 55.8722 56.6298C55.0233 56.6298 54.3306 56.3876 53.7941 55.9032C53.2576 55.4188 52.9894 54.8199 52.9894 54.1063C52.9894 53.2053 53.3227 52.5152 53.9894 52.036C54.6613 51.5516 55.6196 51.3094 56.8644 51.3094H58.0285V50.7548C58.0285 50.3173 57.9061 49.9683 57.6613 49.7079C57.4165 49.4423 57.0441 49.3094 56.5441 49.3094C56.1118 49.3094 55.7576 49.4188 55.4816 49.6376C55.2056 49.8511 55.0675 50.1246 55.0675 50.4579H53.1691C53.1691 49.9943 53.3227 49.5621 53.63 49.161C53.9373 48.7548 54.354 48.4371 54.88 48.2079C55.4113 47.9787 56.0024 47.8641 56.6535 47.8641C57.6431 47.8641 58.4321 48.1141 59.0207 48.6141C59.6092 49.1089 59.9113 49.8068 59.9269 50.7079V54.5204C59.9269 55.2808 60.0337 55.8876 60.2472 56.3407V56.4735H58.3097ZM56.2238 55.1063C56.5988 55.1063 56.9504 55.0152 57.2785 54.8329C57.6118 54.6506 57.8618 54.4058 58.0285 54.0985V52.5048H57.005C56.3019 52.5048 55.7733 52.6272 55.4191 52.8719C55.0649 53.1167 54.8879 53.4631 54.8879 53.911C54.8879 54.2756 55.0076 54.5673 55.2472 54.786C55.492 54.9996 55.8175 55.1063 56.2238 55.1063ZM64.9813 52.8485L64.1375 53.7157V56.4735H62.2391V44.4735H64.1375V51.3954L64.7313 50.6532L67.0672 48.0204H69.3485L66.2079 51.5438L69.6844 56.4735H67.4891L64.9813 52.8485ZM76.0357 55.6454C75.4784 56.3016 74.6867 56.6298 73.6607 56.6298C72.744 56.6298 72.0487 56.3615 71.5747 55.8251C71.106 55.2886 70.8716 54.5126 70.8716 53.4969V48.0204H72.77V53.4735C72.77 54.5464 73.2154 55.0829 74.106 55.0829C75.0279 55.0829 75.6502 54.7522 75.9732 54.0907V48.0204H77.8716V56.4735H76.0825L76.0357 55.6454ZM87.5275 52.3329C87.5275 53.6402 87.2307 54.6844 86.6369 55.4657C86.0432 56.2417 85.2463 56.6298 84.2463 56.6298C83.3192 56.6298 82.577 56.3251 82.0197 55.7157V59.7235H80.1213V48.0204H81.8713L81.9494 48.8798C82.5067 48.2027 83.2645 47.8641 84.2229 47.8641C85.2541 47.8641 86.0614 48.2496 86.6447 49.0204C87.2333 49.786 87.5275 50.8511 87.5275 52.2157V52.3329ZM85.6369 52.1688C85.6369 51.3251 85.4676 50.6558 85.1291 50.161C84.7958 49.6662 84.3166 49.4188 83.6916 49.4188C82.9156 49.4188 82.3583 49.7391 82.0197 50.3798V54.1298C82.3635 54.786 82.926 55.1141 83.7072 55.1141C84.3114 55.1141 84.7827 54.8719 85.1213 54.3876C85.465 53.898 85.6369 53.1584 85.6369 52.1688ZM91.2225 53.1298C91.2225 52.4371 91.3085 51.885 91.4804 51.4735C91.6522 51.0621 91.9908 50.6115 92.496 50.1219C93.0064 49.6272 93.3293 49.2756 93.4647 49.0673C93.6731 48.7496 93.7772 48.4058 93.7772 48.036C93.7772 47.5464 93.6548 47.174 93.41 46.9188C93.1705 46.6584 92.8163 46.5282 92.3475 46.5282C91.8996 46.5282 91.5376 46.6558 91.2616 46.911C90.9908 47.161 90.8554 47.5022 90.8554 47.9344H88.9569C88.9673 47.0126 89.2798 46.2834 89.8944 45.7469C90.5142 45.2105 91.3319 44.9423 92.3475 44.9423C93.3944 44.9423 94.2095 45.2079 94.7929 45.7391C95.3814 46.2704 95.6757 47.0126 95.6757 47.9657C95.6757 48.8147 95.2798 49.6506 94.4882 50.4735L93.5272 51.4188C93.1835 51.8094 93.0064 52.3798 92.996 53.1298H91.2225ZM91.0897 55.5594C91.0897 55.2522 91.1861 55.0048 91.3788 54.8173C91.5715 54.6246 91.8319 54.5282 92.16 54.5282C92.4934 54.5282 92.7564 54.6272 92.9491 54.8251C93.1418 55.0178 93.2382 55.2626 93.2382 55.5594C93.2382 55.8459 93.1444 56.0855 92.9569 56.2782C92.7694 56.4709 92.5038 56.5673 92.16 56.5673C91.8163 56.5673 91.5507 56.4709 91.3632 56.2782C91.1809 56.0855 91.0897 55.8459 91.0897 55.5594Z" fill="#31394E"/>
<path d="M75.2474 25.2615C74.7355 28.1334 72.9408 30.893 69.9131 33.4647C67.586 35.441 65.1189 36.7968 63.8555 37.4291C63.6463 37.5337 63.4247 37.6136 63.1973 37.6677C62.9693 37.7212 62.736 37.7488 62.5021 37.7488C62.0349 37.7488 61.5671 37.6383 61.1493 37.4291C59.8859 36.7968 57.4182 35.441 55.0911 33.4647C54.5439 32.9998 54.0368 32.5291 53.5708 32.0525C53.5261 32.0067 52.7863 31.2009 52.7827 31.1969L52.7821 31.1963C51.1355 29.2929 50.1212 27.306 49.7568 25.2615C49.3595 23.0307 49.9272 20.7529 51.3141 19.0128C52.5982 17.4014 54.4182 16.4594 56.4386 16.3612C56.5573 16.3554 56.6777 16.3524 56.7959 16.3524C58.2055 16.3524 59.5565 16.7569 60.7125 17.5106C61.1364 17.7871 61.2975 18.3305 61.0961 18.7948L60.9101 19.2238L59.6678 22.0886C59.4967 22.4835 59.5349 22.9389 59.7706 23.2998L60.8378 24.9347C61.0647 25.2826 61.0723 25.7292 60.8578 26.0841L60.2666 27.0602C59.9293 27.6173 59.9887 28.3284 60.4141 28.8214L61.412 29.978C61.5501 30.1384 61.8087 29.9962 61.7482 29.794L61.4878 28.9255C61.3732 28.5446 61.4356 28.1327 61.6565 27.8024L62.2606 26.8997C62.5409 26.4808 62.5609 25.9401 62.3129 25.5017L61.6335 24.3005C61.4244 23.9309 61.3673 23.4936 61.4755 23.0823L62.1519 20.5024L62.3272 19.8336C62.4556 19.3437 62.7019 18.8904 63.0554 18.5278C63.0953 18.4868 63.1358 18.4463 63.1768 18.4062C64.5284 17.0816 66.3149 16.3523 68.2084 16.3523C68.3265 16.3523 68.4469 16.3552 68.5657 16.3611C69.8291 16.4222 71.0139 16.8136 72.0382 17.4918V17.4924C72.9174 18.0374 73.6519 18.9639 73.6907 19.0127C75.077 20.7529 75.6446 23.0307 75.2474 25.2615Z" fill="url(#paint0_linear)"/>
<path d="M73.6915 19.0129C73.2101 18.4088 72.6533 17.8989 72.039 17.4922C73.1605 19.1575 73.5953 21.2217 73.2343 23.2476C72.7227 26.1195 70.9282 28.8794 67.9005 31.4507C65.5732 33.4272 63.106 34.7831 61.8424 35.4154C61.4243 35.6246 60.9564 35.7352 60.4893 35.7352C60.0222 35.7352 59.5543 35.6246 59.1362 35.4154C57.8728 34.7831 55.4056 33.4272 53.0781 31.4507C52.9784 31.366 52.8803 31.2811 52.7832 31.196C53.4498 31.9666 54.2193 32.7234 55.0919 33.4645C57.4193 35.441 59.8865 36.7969 61.15 37.4291C61.5681 37.6384 62.036 37.749 62.5031 37.749C62.9702 37.749 63.4381 37.6384 63.8562 37.4291C65.1197 36.7968 67.5869 35.4409 69.9143 33.4645C72.9419 30.8932 74.7365 28.1332 75.2481 25.2614C75.6456 23.0305 75.0782 20.753 73.6915 19.0129Z" fill="url(#paint1_linear)"/>
<path d="M62.697 16.1401C62.3725 16.1401 62.1094 15.877 62.1094 15.5524V14.3186C62.1094 13.994 62.3725 13.731 62.697 13.731C63.0216 13.731 63.2847 13.994 63.2847 14.3186V15.5524C63.2847 15.877 63.0216 16.1401 62.697 16.1401Z" fill="url(#paint2_linear)"/>
<path d="M61.505 16.881C61.2148 17.0265 60.8617 16.9092 60.7162 16.6191L60.1631 15.5162C60.0176 15.226 60.1348 14.8729 60.425 14.7274C60.7151 14.5819 61.0682 14.6991 61.2137 14.9893L61.7668 16.0922C61.9123 16.3823 61.7951 16.7355 61.505 16.881Z" fill="url(#paint3_linear)"/>
<path d="M63.8898 16.881C64.1799 17.0265 64.5331 16.9092 64.6786 16.6191L65.2317 15.5162C65.3772 15.226 65.2599 14.8729 64.9698 14.7274C64.6797 14.5819 64.3265 14.6991 64.181 14.9893L63.6279 16.0922C63.4824 16.3823 63.5997 16.7355 63.8898 16.881Z" fill="url(#paint4_linear)"/>
<defs>
<linearGradient id="paint0_linear" x1="60.3793" y1="21.5471" x2="69.3761" y2="32.7805" gradientUnits="userSpaceOnUse">
<stop stop-color="#FF7044"/>
<stop offset="1" stop-color="#F82814"/>
</linearGradient>
<linearGradient id="paint1_linear" x1="65.547" y1="29.7928" x2="69.2725" y2="37.755" gradientUnits="userSpaceOnUse">
<stop stop-color="#F82814" stop-opacity="0"/>
<stop offset="1" stop-color="#C0272D"/>
</linearGradient>
<linearGradient id="paint2_linear" x1="62.5527" y1="14.7248" x2="63.828" y2="16.5865" gradientUnits="userSpaceOnUse">
<stop stop-color="#FFD945"/>
<stop offset="0.3043" stop-color="#FFCD3E"/>
<stop offset="0.8558" stop-color="#FFAD2B"/>
<stop offset="1" stop-color="#FFA325"/>
</linearGradient>
<linearGradient id="paint3_linear" x1="60.7422" y1="15.6844" x2="62.7164" y2="16.7774" gradientUnits="userSpaceOnUse">
<stop stop-color="#FFD945"/>
<stop offset="0.3043" stop-color="#FFCD3E"/>
<stop offset="0.8558" stop-color="#FFAD2B"/>
<stop offset="1" stop-color="#FFA325"/>
</linearGradient>
<linearGradient id="paint4_linear" x1="64.6524" y1="15.6831" x2="62.6783" y2="16.7761" gradientUnits="userSpaceOnUse">
<stop stop-color="#FFD945"/>
<stop offset="0.3043" stop-color="#FFCD3E"/>
<stop offset="0.8558" stop-color="#FFAD2B"/>
<stop offset="1" stop-color="#FFA325"/>
</linearGradient>
</defs>
</svg>
