<svg width="81" height="87" viewBox="0 0 81 87" fill="none" xmlns="http://www.w3.org/2000/svg">
<path d="M2.56662 68.1641C11.7916 63.6721 33.7547 55.6182 39.2548 53.8296C40.0801 53.5612 40.915 53.6327 41.7239 53.9473L78.3384 68.1862C78.5856 68.2824 78.5956 68.6284 78.3544 68.7387L42.3784 85.1848C41.8634 85.4203 41.2728 85.4264 40.753 85.2016L2.59117 68.6992C2.35717 68.598 2.3374 68.2757 2.56662 68.1641Z" fill="white" stroke="white" stroke-width="3"/>
<mask id="path-2-inside-1" fill="white">
<path d="M16.2573 25.3424C16.2573 11.3686 27.438 -6.10352e-05 41.1793 -6.10352e-05C54.9212 -6.10352e-05 66.1019 11.3686 66.1033 25.3424C66.1033 28.9874 65.3703 32.4674 63.9237 35.6868C57.8198 49.2651 46.2369 63.5831 42.4604 68.0731C42.3058 68.2569 42.1182 68.3977 41.9005 68.4992L41.7145 68.5858C41.3766 68.7432 41.0002 68.7449 40.6639 68.5839C40.3377 68.4277 39.9948 68.187 39.7623 67.9098C35.8488 63.2442 24.4667 49.1034 18.4369 35.6868C16.991 32.4674 16.2573 28.9874 16.2573 25.3424Z"/>
</mask>
<path d="M16.2573 25.3424C16.2573 11.3686 27.438 -6.10352e-05 41.1793 -6.10352e-05C54.9212 -6.10352e-05 66.1019 11.3686 66.1033 25.3424C66.1033 28.9874 65.3703 32.4674 63.9237 35.6868C57.8198 49.2651 46.2369 63.5831 42.4604 68.0731C42.3058 68.2569 42.1182 68.3977 41.9005 68.4992L41.7145 68.5858C41.3766 68.7432 41.0002 68.7449 40.6639 68.5839C40.3377 68.4277 39.9948 68.187 39.7623 67.9098C35.8488 63.2442 24.4667 49.1034 18.4369 35.6868C16.991 32.4674 16.2573 28.9874 16.2573 25.3424Z" fill="white"/>
<path d="M18.4369 35.6868L15.1529 37.1617L15.1533 37.1626L18.4369 35.6868ZM39.7623 67.9098L42.5205 65.5963L42.5205 65.5963L39.7623 67.9098ZM41.7145 68.5858L40.1944 65.3225L40.1943 65.3225L41.7145 68.5858ZM41.9005 68.4992L43.4206 71.7625L43.4207 71.7624L41.9005 68.4992ZM42.4604 68.0731L39.7053 65.7559L39.7053 65.7559L42.4604 68.0731ZM63.9237 35.6868L67.2072 37.1629L67.2074 37.1623L63.9237 35.6868ZM66.1033 25.3424L69.7033 25.3424L69.7033 25.3421L66.1033 25.3424ZM40.6639 68.5839L39.109 71.8308L39.1091 71.8308L40.6639 68.5839ZM41.1793 -3.60006C25.3932 -3.60006 12.6573 9.43738 12.6573 25.3424H19.8573C19.8573 13.2999 29.4827 3.59994 41.1793 3.59994V-3.60006ZM12.6573 25.3424C12.6573 29.4791 13.492 33.4636 15.1529 37.1617L21.7209 34.2119C20.49 31.4713 19.8573 28.4956 19.8573 25.3424H12.6573ZM15.1533 37.1626C21.4055 51.0739 33.0794 65.5445 37.0041 70.2234L42.5205 65.5963C38.6181 60.944 27.528 47.1328 21.7205 34.2111L15.1533 37.1626ZM43.2346 71.8491L43.4206 71.7625L40.3804 65.2358L40.1944 65.3225L43.2346 71.8491ZM45.2155 70.3904C49.0012 65.8893 60.8793 51.2394 67.2072 37.1629L60.6402 34.2108C54.7602 47.2909 43.4726 61.2769 39.7053 65.7559L45.2155 70.3904ZM67.2074 37.1623C68.8695 33.4634 69.7033 29.4787 69.7033 25.3424H62.5033C62.5033 28.496 61.8711 31.4714 60.6399 34.2113L67.2074 37.1623ZM69.7033 25.3421C69.7017 9.4373 56.966 -3.60006 41.1793 -3.60006V3.59994C52.8765 3.59994 62.5021 13.3 62.5033 25.3428L69.7033 25.3421ZM43.4207 71.7624C44.092 71.4497 44.7078 70.9939 45.2155 70.3904L39.7053 65.7559C39.9038 65.5199 40.1444 65.3458 40.3803 65.2359L43.4207 71.7624ZM39.1091 71.8308C40.4411 72.4687 41.946 72.4494 43.2346 71.8491L40.1943 65.3225C40.8071 65.0371 41.5592 65.0212 42.2188 65.337L39.1091 71.8308ZM37.0041 70.2234C37.6434 70.9855 38.4412 71.511 39.109 71.8308L42.2188 65.337C42.2542 65.354 42.2806 65.3699 42.3101 65.3915C42.3351 65.4099 42.4157 65.4714 42.5205 65.5963L37.0041 70.2234Z" fill="url(#paint0_linear)" mask="url(#path-2-inside-1)"/>
<circle cx="41.1887" cy="24.9259" r="13.0549" fill="#204AC6"/>
<defs>
<linearGradient id="paint0_linear" x1="41.1803" y1="-6.10352e-05" x2="41.1803" y2="68.8348" gradientUnits="userSpaceOnUse">
<stop stop-color="#214CC8"/>
<stop offset="1" stop-color="#2F5ED1"/>
</linearGradient>
</defs>
</svg>
