<svg width="379" height="71" viewBox="0 0 379 71" fill="none" xmlns="http://www.w3.org/2000/svg">
<path d="M0.5 55L0.5 16C0.5 7.4396 7.43958 0.500007 16 0.500015L363 0.500335C371.56 0.500342 378.5 7.43991 378.5 16.0003V55C378.5 63.5604 371.56 70.5 363 70.5L16 70.5C7.43959 70.5 0.5 63.5604 0.5 55Z" fill="white" stroke="#EEF4FC"/>
<path d="M44.9678 37.6602L47.0459 27.4922H49.3745L46.2573 41H44.0122L41.4424 31.1382L38.8169 41H36.5625L33.4453 27.4922H35.7739L37.8706 37.6416L40.4497 27.4922H42.4165L44.9678 37.6602ZM53.0947 32.0566C53.8307 31.2031 54.7616 30.7764 55.8872 30.7764C58.0272 30.7764 59.1126 31.9979 59.1436 34.4409V41H56.8892V34.5244C56.8892 33.8317 56.7376 33.3431 56.4346 33.0586C56.1377 32.7679 55.6986 32.6226 55.1172 32.6226C54.2142 32.6226 53.54 33.0246 53.0947 33.8286V41H50.8403V26.75H53.0947V32.0566ZM67.4282 41C67.3293 40.8083 67.2427 40.4959 67.1685 40.063C66.451 40.8114 65.5728 41.1855 64.5337 41.1855C63.5256 41.1855 62.703 40.8979 62.0659 40.3228C61.4289 39.7476 61.1104 39.0363 61.1104 38.189C61.1104 37.119 61.5062 36.2995 62.2979 35.7305C63.0957 35.1553 64.2337 34.8677 65.7119 34.8677H67.0942V34.209C67.0942 33.6895 66.9489 33.2751 66.6582 32.9658C66.3675 32.6504 65.9253 32.4927 65.3315 32.4927C64.8182 32.4927 64.3976 32.6226 64.0698 32.8823C63.742 33.1359 63.5781 33.4606 63.5781 33.8564H61.3237C61.3237 33.306 61.5062 32.7926 61.8711 32.3164C62.236 31.834 62.7308 31.4567 63.3555 31.1846C63.9863 30.9124 64.6883 30.7764 65.4614 30.7764C66.6366 30.7764 67.5736 31.0732 68.2725 31.667C68.9714 32.2546 69.3301 33.0833 69.3486 34.1533V38.6807C69.3486 39.5837 69.4754 40.3042 69.729 40.8423V41H67.4282ZM64.9512 39.3765C65.3965 39.3765 65.814 39.2682 66.2036 39.0518C66.5994 38.8353 66.8963 38.5446 67.0942 38.1797V36.2871H65.8789C65.0439 36.2871 64.4162 36.4325 63.9956 36.7231C63.575 37.0138 63.3647 37.4251 63.3647 37.957C63.3647 38.39 63.507 38.7363 63.7915 38.9961C64.0822 39.2497 64.4688 39.3765 64.9512 39.3765ZM74.5347 28.522V30.9619H76.3066V32.6318H74.5347V38.2354C74.5347 38.6188 74.6089 38.8971 74.7573 39.0703C74.9119 39.2373 75.1841 39.3208 75.5737 39.3208C75.8335 39.3208 76.0964 39.2899 76.3623 39.228V40.9722C75.849 41.1144 75.3542 41.1855 74.8779 41.1855C73.1462 41.1855 72.2803 40.23 72.2803 38.3188V32.6318H70.6289V30.9619H72.2803V28.522H74.5347ZM82.3462 35.9067C82.3462 34.3605 82.7049 33.1204 83.4224 32.1865C84.1398 31.2464 85.1016 30.7764 86.3076 30.7764C87.3714 30.7764 88.2311 31.1475 88.8867 31.8896V26.75H91.1411V41H89.1001L88.9888 39.9609C88.3146 40.7773 87.4147 41.1855 86.2891 41.1855C85.1139 41.1855 84.1615 40.7124 83.4316 39.7661C82.708 38.8198 82.3462 37.5334 82.3462 35.9067ZM84.6006 36.1016C84.6006 37.1221 84.7954 37.9199 85.1851 38.4951C85.5809 39.0641 86.1406 39.3486 86.8643 39.3486C87.7858 39.3486 88.46 38.9373 88.8867 38.1147V33.8286C88.4723 33.0246 87.8044 32.6226 86.8828 32.6226C86.153 32.6226 85.5902 32.9132 85.1943 33.4946C84.7985 34.0698 84.6006 34.9388 84.6006 36.1016ZM93.0708 35.8882C93.0708 34.9048 93.2656 34.0203 93.6553 33.2349C94.0449 32.4432 94.5923 31.8371 95.2974 31.4165C96.0024 30.9897 96.8127 30.7764 97.728 30.7764C99.0825 30.7764 100.18 31.2124 101.021 32.0845C101.869 32.9565 102.326 34.1131 102.395 35.5542L102.404 36.083C102.404 37.0726 102.212 37.957 101.829 38.7363C101.451 39.5156 100.907 40.1187 100.196 40.5454C99.4907 40.9722 98.6743 41.1855 97.7466 41.1855C96.3302 41.1855 95.1953 40.7155 94.3418 39.7754C93.4945 38.8291 93.0708 37.5705 93.0708 35.9995V35.8882ZM95.3252 36.083C95.3252 37.1159 95.5386 37.9261 95.9653 38.5137C96.3921 39.0951 96.9858 39.3857 97.7466 39.3857C98.5073 39.3857 99.098 39.0889 99.5186 38.4951C99.9453 37.9014 100.159 37.0324 100.159 35.8882C100.159 34.8739 99.9391 34.0698 99.5 33.4761C99.0671 32.8823 98.4764 32.5854 97.728 32.5854C96.992 32.5854 96.4076 32.8792 95.9746 33.4668C95.5417 34.0482 95.3252 34.9202 95.3252 36.083ZM108.731 41.1855C107.302 41.1855 106.143 40.7371 105.252 39.8403C104.368 38.9373 103.925 37.7375 103.925 36.2407V35.9624C103.925 34.9604 104.117 34.0667 104.5 33.2812C104.89 32.4896 105.434 31.8742 106.133 31.4351C106.832 30.9959 107.611 30.7764 108.471 30.7764C109.838 30.7764 110.893 31.2124 111.635 32.0845C112.383 32.9565 112.757 34.1904 112.757 35.7861V36.6953H106.198C106.266 37.5241 106.542 38.1797 107.024 38.6621C107.513 39.1445 108.125 39.3857 108.861 39.3857C109.894 39.3857 110.735 38.9683 111.384 38.1333L112.6 39.293C112.198 39.8929 111.66 40.3599 110.985 40.6938C110.317 41.0216 109.566 41.1855 108.731 41.1855ZM108.462 32.5854C107.843 32.5854 107.342 32.8019 106.959 33.2349C106.582 33.6678 106.34 34.2708 106.235 35.0439H110.531V34.877C110.481 34.1224 110.28 33.5534 109.928 33.1699C109.575 32.7803 109.087 32.5854 108.462 32.5854ZM120.142 38.2725C120.142 37.8704 119.975 37.5643 119.641 37.354C119.313 37.1437 118.766 36.9582 117.999 36.7974C117.232 36.6366 116.592 36.4325 116.079 36.1851C114.953 35.6408 114.39 34.8522 114.39 33.8193C114.39 32.9535 114.755 32.2298 115.485 31.6484C116.215 31.0671 117.142 30.7764 118.268 30.7764C119.468 30.7764 120.436 31.0732 121.172 31.667C121.914 32.2607 122.285 33.0308 122.285 33.9771H120.031C120.031 33.5441 119.87 33.1854 119.548 32.9009C119.227 32.6102 118.8 32.4648 118.268 32.4648C117.773 32.4648 117.368 32.5793 117.053 32.8081C116.743 33.0369 116.589 33.3431 116.589 33.7266C116.589 34.0729 116.734 34.342 117.025 34.5337C117.316 34.7254 117.903 34.9202 118.788 35.1182C119.672 35.3099 120.365 35.5418 120.866 35.814C121.373 36.0799 121.747 36.4015 121.988 36.7788C122.236 37.1561 122.359 37.6138 122.359 38.1519C122.359 39.0549 121.985 39.7878 121.237 40.3506C120.488 40.9072 119.508 41.1855 118.296 41.1855C117.473 41.1855 116.74 41.0371 116.097 40.7402C115.454 40.4434 114.953 40.0352 114.594 39.5156C114.236 38.9961 114.056 38.4364 114.056 37.8364H116.246C116.277 38.3683 116.478 38.7796 116.849 39.0703C117.22 39.3548 117.711 39.4971 118.324 39.4971C118.917 39.4971 119.369 39.3857 119.678 39.1631C119.987 38.9342 120.142 38.6374 120.142 38.2725ZM130.523 26.5088L131.674 27.2231C131.111 28.0457 130.82 28.9023 130.802 29.793V31.2031H128.826V29.9229C128.832 29.3291 128.993 28.7106 129.308 28.0674C129.63 27.418 130.035 26.8984 130.523 26.5088ZM135.914 41H133.576V27.4922H135.914V41ZM145.71 41H143.456V26.75H145.71V41ZM147.751 35.8882C147.751 34.9048 147.946 34.0203 148.336 33.2349C148.726 32.4432 149.273 31.8371 149.978 31.4165C150.683 30.9897 151.493 30.7764 152.409 30.7764C153.763 30.7764 154.861 31.2124 155.702 32.0845C156.549 32.9565 157.007 34.1131 157.075 35.5542L157.084 36.083C157.084 37.0726 156.893 37.957 156.509 38.7363C156.132 39.5156 155.588 40.1187 154.876 40.5454C154.171 40.9722 153.355 41.1855 152.427 41.1855C151.011 41.1855 149.876 40.7155 149.022 39.7754C148.175 38.8291 147.751 37.5705 147.751 35.9995V35.8882ZM150.006 36.083C150.006 37.1159 150.219 37.9261 150.646 38.5137C151.073 39.0951 151.667 39.3857 152.427 39.3857C153.188 39.3857 153.779 39.0889 154.199 38.4951C154.626 37.9014 154.839 37.0324 154.839 35.8882C154.839 34.8739 154.62 34.0698 154.181 33.4761C153.748 32.8823 153.157 32.5854 152.409 32.5854C151.673 32.5854 151.088 32.8792 150.655 33.4668C150.222 34.0482 150.006 34.9202 150.006 36.083ZM162.382 38.1426L164.506 30.9619H166.835L163.356 41H161.398L157.892 30.9619H160.229L162.382 38.1426ZM172.541 41.1855C171.112 41.1855 169.952 40.7371 169.062 39.8403C168.177 38.9373 167.735 37.7375 167.735 36.2407V35.9624C167.735 34.9604 167.927 34.0667 168.31 33.2812C168.7 32.4896 169.244 31.8742 169.943 31.4351C170.642 30.9959 171.421 30.7764 172.281 30.7764C173.648 30.7764 174.702 31.2124 175.444 32.0845C176.193 32.9565 176.567 34.1904 176.567 35.7861V36.6953H170.008C170.076 37.5241 170.351 38.1797 170.833 38.6621C171.322 39.1445 171.934 39.3857 172.67 39.3857C173.703 39.3857 174.544 38.9683 175.194 38.1333L176.409 39.293C176.007 39.8929 175.469 40.3599 174.795 40.6938C174.127 41.0216 173.375 41.1855 172.541 41.1855ZM172.271 32.5854C171.653 32.5854 171.152 32.8019 170.769 33.2349C170.391 33.6678 170.15 34.2708 170.045 35.0439H174.34V34.877C174.291 34.1224 174.09 33.5534 173.737 33.1699C173.385 32.7803 172.896 32.5854 172.271 32.5854ZM186.568 37.7715L188.609 30.9619H191.012L187.022 42.5215C186.41 44.21 185.371 45.0542 183.905 45.0542C183.577 45.0542 183.216 44.9985 182.82 44.8872V43.1431L183.247 43.1709C183.816 43.1709 184.242 43.0658 184.527 42.8555C184.818 42.6514 185.046 42.305 185.213 41.8164L185.538 40.9536L182.013 30.9619H184.443L186.568 37.7715ZM191.745 35.8882C191.745 34.9048 191.939 34.0203 192.329 33.2349C192.719 32.4432 193.266 31.8371 193.971 31.4165C194.676 30.9897 195.486 30.7764 196.402 30.7764C197.756 30.7764 198.854 31.2124 199.695 32.0845C200.543 32.9565 201 34.1131 201.068 35.5542L201.078 36.083C201.078 37.0726 200.886 37.957 200.502 38.7363C200.125 39.5156 199.581 40.1187 198.87 40.5454C198.165 40.9722 197.348 41.1855 196.42 41.1855C195.004 41.1855 193.869 40.7155 193.016 39.7754C192.168 38.8291 191.745 37.5705 191.745 35.9995V35.8882ZM193.999 36.083C193.999 37.1159 194.212 37.9261 194.639 38.5137C195.066 39.0951 195.66 39.3857 196.42 39.3857C197.181 39.3857 197.772 39.0889 198.192 38.4951C198.619 37.9014 198.833 37.0324 198.833 35.8882C198.833 34.8739 198.613 34.0698 198.174 33.4761C197.741 32.8823 197.15 32.5854 196.402 32.5854C195.666 32.5854 195.081 32.8792 194.648 33.4668C194.215 34.0482 193.999 34.9202 193.999 36.083ZM209.065 40.0166C208.404 40.7959 207.464 41.1855 206.245 41.1855C205.157 41.1855 204.331 40.867 203.768 40.23C203.211 39.5929 202.933 38.6714 202.933 37.4653V30.9619H205.188V37.4375C205.188 38.7116 205.716 39.3486 206.774 39.3486C207.869 39.3486 208.608 38.9559 208.991 38.1704V30.9619H211.246V41H209.121L209.065 40.0166ZM214.01 31.5L212.86 30.7856C213.417 29.9754 213.704 29.1188 213.723 28.2158V26.75H215.699V28.0303C215.699 28.6673 215.535 29.3105 215.207 29.96C214.885 30.6032 214.486 31.1165 214.01 31.5ZM224.512 30.9619L224.577 32.0103C225.282 31.1877 226.247 30.7764 227.472 30.7764C228.814 30.7764 229.732 31.2897 230.227 32.3164C230.957 31.2897 231.984 30.7764 233.307 30.7764C234.414 30.7764 235.237 31.0825 235.775 31.6948C236.319 32.3071 236.597 33.2101 236.61 34.4038V41H234.355V34.4688C234.355 33.8317 234.216 33.3647 233.938 33.0679C233.66 32.771 233.199 32.6226 232.556 32.6226C232.042 32.6226 231.622 32.7617 231.294 33.04C230.972 33.3122 230.747 33.6709 230.617 34.1162L230.626 41H228.372V34.3945C228.341 33.2132 227.738 32.6226 226.562 32.6226C225.66 32.6226 225.019 32.9906 224.642 33.7266V41H222.388V30.9619H224.512ZM243.345 41.1855C241.917 41.1855 240.757 40.7371 239.866 39.8403C238.982 38.9373 238.54 37.7375 238.54 36.2407V35.9624C238.54 34.9604 238.731 34.0667 239.115 33.2812C239.504 32.4896 240.049 31.8742 240.748 31.4351C241.446 30.9959 242.226 30.7764 243.085 30.7764C244.452 30.7764 245.507 31.2124 246.249 32.0845C246.997 32.9565 247.372 34.1904 247.372 35.7861V36.6953H240.812C240.881 37.5241 241.156 38.1797 241.638 38.6621C242.127 39.1445 242.739 39.3857 243.475 39.3857C244.508 39.3857 245.349 38.9683 245.999 38.1333L247.214 39.293C246.812 39.8929 246.274 40.3599 245.6 40.6938C244.932 41.0216 244.18 41.1855 243.345 41.1855ZM243.076 32.5854C242.458 32.5854 241.957 32.8019 241.573 33.2349C241.196 33.6678 240.955 34.2708 240.85 35.0439H245.145V34.877C245.096 34.1224 244.895 33.5534 244.542 33.1699C244.189 32.7803 243.701 32.5854 243.076 32.5854ZM255.127 41C255.028 40.8083 254.942 40.4959 254.868 40.063C254.15 40.8114 253.272 41.1855 252.233 41.1855C251.225 41.1855 250.402 40.8979 249.765 40.3228C249.128 39.7476 248.81 39.0363 248.81 38.189C248.81 37.119 249.205 36.2995 249.997 35.7305C250.795 35.1553 251.933 34.8677 253.411 34.8677H254.793V34.209C254.793 33.6895 254.648 33.2751 254.357 32.9658C254.067 32.6504 253.625 32.4927 253.031 32.4927C252.517 32.4927 252.097 32.6226 251.769 32.8823C251.441 33.1359 251.277 33.4606 251.277 33.8564H249.023C249.023 33.306 249.205 32.7926 249.57 32.3164C249.935 31.834 250.43 31.4567 251.055 31.1846C251.686 30.9124 252.388 30.7764 253.161 30.7764C254.336 30.7764 255.273 31.0732 255.972 31.667C256.671 32.2546 257.029 33.0833 257.048 34.1533V38.6807C257.048 39.5837 257.175 40.3042 257.428 40.8423V41H255.127ZM252.65 39.3765C253.096 39.3765 253.513 39.2682 253.903 39.0518C254.299 38.8353 254.596 38.5446 254.793 38.1797V36.2871H253.578C252.743 36.2871 252.115 36.4325 251.695 36.7231C251.274 37.0138 251.064 37.4251 251.064 37.957C251.064 38.39 251.206 38.7363 251.491 38.9961C251.781 39.2497 252.168 39.3765 252.65 39.3765ZM261.501 30.9619L261.566 32.1216C262.308 31.2248 263.282 30.7764 264.488 30.7764C266.579 30.7764 267.643 31.9731 267.68 34.3667V41H265.425V34.4966C265.425 33.8595 265.286 33.3895 265.008 33.0864C264.736 32.7772 264.287 32.6226 263.663 32.6226C262.753 32.6226 262.076 33.0339 261.631 33.8564V41H259.376V30.9619H261.501ZM277.542 28.522V30.9619H279.313V32.6318H277.542V38.2354C277.542 38.6188 277.616 38.8971 277.764 39.0703C277.919 39.2373 278.191 39.3208 278.581 39.3208C278.84 39.3208 279.103 39.2899 279.369 39.228V40.9722C278.856 41.1144 278.361 41.1855 277.885 41.1855C276.153 41.1855 275.287 40.23 275.287 38.3188V32.6318H273.636V30.9619H275.287V28.522H277.542ZM280.343 35.8882C280.343 34.9048 280.538 34.0203 280.928 33.2349C281.317 32.4432 281.865 31.8371 282.57 31.4165C283.275 30.9897 284.085 30.7764 285 30.7764C286.355 30.7764 287.453 31.2124 288.294 32.0845C289.141 32.9565 289.599 34.1131 289.667 35.5542L289.676 36.083C289.676 37.0726 289.485 37.957 289.101 38.7363C288.724 39.5156 288.18 40.1187 287.468 40.5454C286.763 40.9722 285.947 41.1855 285.019 41.1855C283.603 41.1855 282.468 40.7155 281.614 39.7754C280.767 38.8291 280.343 37.5705 280.343 35.9995V35.8882ZM282.598 36.083C282.598 37.1159 282.811 37.9261 283.238 38.5137C283.665 39.0951 284.258 39.3857 285.019 39.3857C285.78 39.3857 286.37 39.0889 286.791 38.4951C287.218 37.9014 287.431 37.0324 287.431 35.8882C287.431 34.8739 287.212 34.0698 286.772 33.4761C286.34 32.8823 285.749 32.5854 285 32.5854C284.264 32.5854 283.68 32.8792 283.247 33.4668C282.814 34.0482 282.598 34.9202 282.598 36.083ZM299.826 37.7715L301.867 30.9619H304.27L300.28 42.5215C299.668 44.21 298.629 45.0542 297.163 45.0542C296.835 45.0542 296.473 44.9985 296.078 44.8872V43.1431L296.504 43.1709C297.073 43.1709 297.5 43.0658 297.785 42.8555C298.075 42.6514 298.304 42.305 298.471 41.8164L298.796 40.9536L295.271 30.9619H297.701L299.826 37.7715ZM305.002 35.8882C305.002 34.9048 305.197 34.0203 305.587 33.2349C305.977 32.4432 306.524 31.8371 307.229 31.4165C307.934 30.9897 308.744 30.7764 309.66 30.7764C311.014 30.7764 312.112 31.2124 312.953 32.0845C313.8 32.9565 314.258 34.1131 314.326 35.5542L314.335 36.083C314.335 37.0726 314.144 37.957 313.76 38.7363C313.383 39.5156 312.839 40.1187 312.127 40.5454C311.422 40.9722 310.606 41.1855 309.678 41.1855C308.262 41.1855 307.127 40.7155 306.273 39.7754C305.426 38.8291 305.002 37.5705 305.002 35.9995V35.8882ZM307.257 36.083C307.257 37.1159 307.47 37.9261 307.897 38.5137C308.324 39.0951 308.917 39.3857 309.678 39.3857C310.439 39.3857 311.03 39.0889 311.45 38.4951C311.877 37.9014 312.09 37.0324 312.09 35.8882C312.09 34.8739 311.871 34.0698 311.432 33.4761C310.999 32.8823 310.408 32.5854 309.66 32.5854C308.924 32.5854 308.339 32.8792 307.906 33.4668C307.473 34.0482 307.257 34.9202 307.257 36.083ZM322.323 40.0166C321.661 40.7959 320.721 41.1855 319.503 41.1855C318.414 41.1855 317.589 40.867 317.026 40.23C316.469 39.5929 316.191 38.6714 316.191 37.4653V30.9619H318.445V37.4375C318.445 38.7116 318.974 39.3486 320.032 39.3486C321.126 39.3486 321.866 38.9559 322.249 38.1704V30.9619H324.503V41H322.379L322.323 40.0166ZM328.892 37.0293C328.892 36.2067 328.994 35.5511 329.198 35.0625C329.402 34.5739 329.804 34.0389 330.404 33.4575C331.01 32.87 331.393 32.4525 331.554 32.2051C331.802 31.8278 331.925 31.4196 331.925 30.9805C331.925 30.3991 331.78 29.9569 331.489 29.6538C331.205 29.3446 330.784 29.1899 330.228 29.1899C329.696 29.1899 329.266 29.3415 328.938 29.6445C328.616 29.9414 328.456 30.3465 328.456 30.8599H326.201C326.214 29.7651 326.585 28.8993 327.314 28.2622C328.05 27.6252 329.021 27.3066 330.228 27.3066C331.471 27.3066 332.439 27.6221 333.131 28.2529C333.83 28.8838 334.18 29.7651 334.18 30.897C334.18 31.9051 333.71 32.8978 332.77 33.875L331.628 34.9976C331.22 35.4614 331.01 36.1387 330.998 37.0293H328.892ZM328.734 39.9146C328.734 39.5496 328.848 39.2559 329.077 39.0332C329.306 38.8044 329.615 38.6899 330.005 38.6899C330.401 38.6899 330.713 38.8075 330.942 39.0425C331.171 39.2713 331.285 39.562 331.285 39.9146C331.285 40.2547 331.174 40.5392 330.951 40.7681C330.729 40.9969 330.413 41.1113 330.005 41.1113C329.597 41.1113 329.281 40.9969 329.059 40.7681C328.842 40.5392 328.734 40.2547 328.734 39.9146Z" fill="#31394E"/>
</svg>
