<svg width="332" height="129" viewBox="0 0 332 129" fill="none" xmlns="http://www.w3.org/2000/svg">
<rect width="332" height="129" rx="16" fill="#E4EEF5"/>
<path d="M27.415 28.1638H21.561V32.9509H28.3613V34.4074H19.7798V20.8996H28.2686V22.3654H21.561V26.7072H27.415V28.1638ZM31.9331 24.3693L31.9888 25.631C32.7557 24.6662 33.7576 24.1838 34.9946 24.1838C37.116 24.1838 38.186 25.3806 38.2046 27.7741V34.4074H36.4883V27.7648C36.4821 27.0412 36.3151 26.5062 35.9873 26.1599C35.6657 25.8135 35.1616 25.6403 34.4751 25.6403C33.9185 25.6403 33.4299 25.7888 33.0093 26.0856C32.5887 26.3825 32.2609 26.7722 32.0259 27.2546V34.4074H30.3096V24.3693H31.9331ZM43.1216 21.9387V24.3693H44.9956V25.696H43.1216V31.9211C43.1216 32.3231 43.2051 32.6262 43.3721 32.8303C43.5391 33.0282 43.8236 33.1271 44.2256 33.1271C44.4235 33.1271 44.6956 33.09 45.042 33.0158V34.4074C44.5905 34.5311 44.1514 34.593 43.7246 34.593C42.9577 34.593 42.3794 34.361 41.9897 33.8972C41.6001 33.4333 41.4053 32.7746 41.4053 31.9211V25.696H39.5776V24.3693H41.4053V21.9387H43.1216ZM51.1743 34.593C49.8136 34.593 48.7065 34.1476 47.853 33.257C46.9995 32.3602 46.5728 31.1634 46.5728 29.6667V29.3513C46.5728 28.3555 46.7614 27.468 47.1387 26.6887C47.5221 25.9032 48.054 25.2909 48.7344 24.8517C49.4209 24.4064 50.1631 24.1838 50.9609 24.1838C52.266 24.1838 53.2803 24.6136 54.0039 25.4733C54.7275 26.333 55.0894 27.5638 55.0894 29.1657V29.8801H48.2891C48.3138 30.8696 48.6014 31.6706 49.1519 32.2829C49.7085 32.889 50.4136 33.1921 51.2671 33.1921C51.8732 33.1921 52.3866 33.0684 52.8071 32.821C53.2277 32.5736 53.5957 32.2458 53.9111 31.8376L54.9595 32.654C54.1183 33.9466 52.8566 34.593 51.1743 34.593ZM50.9609 25.5939C50.2682 25.5939 49.6868 25.8475 49.2168 26.3547C48.7467 26.8557 48.4561 27.5607 48.3447 28.4699H53.373V28.34C53.3236 27.468 53.0885 26.7938 52.668 26.3176C52.2474 25.8351 51.6784 25.5939 50.9609 25.5939ZM61.936 25.9094C61.6763 25.8661 61.3949 25.8444 61.0918 25.8444C59.9661 25.8444 59.2023 26.3238 58.8003 27.2824V34.4074H57.084V24.3693H58.7539L58.7817 25.529C59.3446 24.6322 60.1424 24.1838 61.1753 24.1838C61.5093 24.1838 61.7629 24.2271 61.936 24.3137V25.9094ZM71.5195 31.8932L73.8574 24.3693H75.6943L71.6587 35.9567C71.034 37.6266 70.0413 38.4616 68.6807 38.4616L68.356 38.4338L67.7158 38.3132V36.9216L68.1797 36.9587C68.7611 36.9587 69.2126 36.8412 69.5342 36.6061C69.862 36.3711 70.131 35.9413 70.3413 35.3166L70.7217 34.2961L67.1406 24.3693H69.0146L71.5195 31.8932ZM76.6313 29.2956C76.6313 28.3122 76.8231 27.4278 77.2065 26.6423C77.5962 25.8568 78.1343 25.2507 78.8208 24.8239C79.5135 24.3972 80.3021 24.1838 81.1865 24.1838C82.5534 24.1838 83.6574 24.6569 84.4985 25.6032C85.3459 26.5495 85.7695 27.8081 85.7695 29.3791V29.4997C85.7695 30.4769 85.5809 31.3552 85.2036 32.1345C84.8325 32.9076 84.2975 33.5106 83.5986 33.9435C82.9059 34.3765 82.1081 34.593 81.2051 34.593C79.8444 34.593 78.7404 34.1198 77.8931 33.1735C77.0519 32.2272 76.6313 30.9748 76.6313 29.4162V29.2956ZM78.3569 29.4997C78.3569 30.613 78.6136 31.5067 79.127 32.1808C79.6465 32.855 80.3392 33.1921 81.2051 33.1921C82.0771 33.1921 82.7699 32.8519 83.2832 32.1716C83.7965 31.485 84.0532 30.5264 84.0532 29.2956C84.0532 28.1947 83.7904 27.3041 83.2646 26.6237C82.7451 25.9372 82.0524 25.5939 81.1865 25.5939C80.3392 25.5939 79.6558 25.931 79.1362 26.6052C78.6167 27.2793 78.3569 28.2442 78.3569 29.4997ZM94.1191 33.4147C93.4512 34.2002 92.4709 34.593 91.1782 34.593C90.1082 34.593 89.2918 34.2837 88.729 33.6652C88.1724 33.0405 87.891 32.119 87.8848 30.9006V24.3693H89.6011V30.8542C89.6011 32.3757 90.2196 33.1364 91.4565 33.1364C92.7677 33.1364 93.6398 32.6478 94.0728 31.6706V24.3693H95.7891V34.4074H94.1562L94.1191 33.4147ZM103.257 25.9094C102.998 25.8661 102.716 25.8444 102.413 25.8444C101.287 25.8444 100.524 26.3238 100.122 27.2824V34.4074H98.4053V24.3693H100.075L100.103 25.529C100.666 24.6322 101.464 24.1838 102.497 24.1838C102.831 24.1838 103.084 24.2271 103.257 24.3137V25.9094ZM115.754 34.4074C115.655 34.2095 115.575 33.857 115.513 33.3498C114.715 34.1786 113.762 34.593 112.655 34.593C111.666 34.593 110.852 34.3146 110.215 33.758C109.584 33.1952 109.269 32.4839 109.269 31.6242C109.269 30.579 109.665 29.7687 110.457 29.1935C111.254 28.6122 112.374 28.3215 113.815 28.3215H115.485V27.5329C115.485 26.933 115.306 26.4567 114.947 26.1042C114.588 25.7455 114.059 25.5661 113.36 25.5661C112.748 25.5661 112.235 25.7207 111.82 26.03C111.406 26.3392 111.199 26.7134 111.199 27.1525H109.473C109.473 26.6516 109.649 26.1691 110.002 25.7053C110.361 25.2352 110.843 24.8641 111.449 24.592C112.062 24.3198 112.733 24.1838 113.462 24.1838C114.619 24.1838 115.525 24.4745 116.181 25.0558C116.836 25.631 117.176 26.4258 117.201 27.4401V32.0602C117.201 32.9818 117.319 33.7147 117.554 34.259V34.4074H115.754ZM112.906 33.0993C113.444 33.0993 113.954 32.9601 114.437 32.6818C114.919 32.4035 115.268 32.0417 115.485 31.5964V29.5368H114.14C112.037 29.5368 110.985 30.1522 110.985 31.383C110.985 31.9211 111.165 32.3417 111.523 32.6447C111.882 32.9478 112.343 33.0993 112.906 33.0993ZM121.515 24.3693L121.571 25.631C122.338 24.6662 123.34 24.1838 124.577 24.1838C126.698 24.1838 127.768 25.3806 127.787 27.7741V34.4074H126.07V27.7648C126.064 27.0412 125.897 26.5062 125.569 26.1599C125.248 25.8135 124.744 25.6403 124.057 25.6403C123.5 25.6403 123.012 25.7888 122.591 26.0856C122.171 26.3825 121.843 26.7722 121.608 27.2546V34.4074H119.892V24.3693H121.515ZM136.22 31.7448C136.22 31.2809 136.043 30.9222 135.691 30.6686C135.345 30.4089 134.735 30.1862 133.863 30.0007C132.997 29.8151 132.308 29.5925 131.794 29.3327C131.287 29.0729 130.91 28.7637 130.663 28.405C130.421 28.0462 130.301 27.6195 130.301 27.1247C130.301 26.3021 130.647 25.6063 131.34 25.0373C132.039 24.4683 132.929 24.1838 134.012 24.1838C135.15 24.1838 136.071 24.4776 136.776 25.0651C137.488 25.6527 137.843 26.4042 137.843 27.3195H136.118C136.118 26.8495 135.917 26.4444 135.515 26.1042C135.119 25.764 134.618 25.5939 134.012 25.5939C133.387 25.5939 132.898 25.73 132.546 26.0021C132.193 26.2743 132.017 26.6299 132.017 27.069C132.017 27.4834 132.181 27.7958 132.509 28.006C132.837 28.2163 133.427 28.4173 134.281 28.6091C135.14 28.8008 135.836 29.0296 136.368 29.2956C136.9 29.5615 137.293 29.8832 137.546 30.2604C137.806 30.6315 137.936 31.0861 137.936 31.6242C137.936 32.521 137.577 33.2416 136.86 33.7858C136.142 34.3239 135.212 34.593 134.067 34.593C133.263 34.593 132.552 34.4507 131.934 34.1662C131.315 33.8817 130.83 33.4859 130.477 32.9787C130.131 32.4654 129.958 31.9118 129.958 31.3181H131.674C131.705 31.8932 131.934 32.3509 132.36 32.6911C132.793 33.0251 133.362 33.1921 134.067 33.1921C134.717 33.1921 135.236 33.0622 135.626 32.8024C136.022 32.5365 136.22 32.1839 136.22 31.7448ZM149.06 32.0417L150.989 24.3693H152.706L149.783 34.4074H148.392L145.952 26.8L143.577 34.4074H142.185L139.272 24.3693H140.979L142.955 31.884L145.293 24.3693H146.675L149.06 32.0417ZM158.625 34.593C157.264 34.593 156.157 34.1476 155.303 33.257C154.45 32.3602 154.023 31.1634 154.023 29.6667V29.3513C154.023 28.3555 154.212 27.468 154.589 26.6887C154.972 25.9032 155.504 25.2909 156.185 24.8517C156.871 24.4064 157.613 24.1838 158.411 24.1838C159.716 24.1838 160.73 24.6136 161.454 25.4733C162.178 26.333 162.54 27.5638 162.54 29.1657V29.8801H155.739C155.764 30.8696 156.052 31.6706 156.602 32.2829C157.159 32.889 157.864 33.1921 158.717 33.1921C159.323 33.1921 159.837 33.0684 160.257 32.821C160.678 32.5736 161.046 32.2458 161.361 31.8376L162.41 32.654C161.569 33.9466 160.307 34.593 158.625 34.593ZM158.411 25.5939C157.718 25.5939 157.137 25.8475 156.667 26.3547C156.197 26.8557 155.906 27.5607 155.795 28.4699H160.823V28.34C160.774 27.468 160.539 26.7938 160.118 26.3176C159.698 25.8351 159.129 25.5939 158.411 25.5939ZM169.386 25.9094C169.126 25.8661 168.845 25.8444 168.542 25.8444C167.416 25.8444 166.653 26.3238 166.25 27.2824V34.4074H164.534V24.3693H166.204L166.232 25.529C166.795 24.6322 167.593 24.1838 168.625 24.1838C168.959 24.1838 169.213 24.2271 169.386 24.3137V25.9094Z" fill="#868C9B"/>
<path d="M281.899 107.179C281.899 108.977 281.592 110.314 280.977 111.188C280.363 112.062 279.403 112.499 278.097 112.499C276.808 112.499 275.853 112.073 275.233 111.221C274.614 110.363 274.293 109.085 274.27 107.386V105.336C274.27 103.559 274.578 102.24 275.192 101.376C275.806 100.513 276.769 100.081 278.081 100.081C279.381 100.081 280.338 100.499 280.953 101.335C281.567 102.165 281.882 103.449 281.899 105.186V107.179ZM280.363 105.078C280.363 103.778 280.181 102.832 279.815 102.24C279.45 101.642 278.872 101.343 278.081 101.343C277.295 101.343 276.722 101.639 276.362 102.231C276.003 102.823 275.817 103.734 275.806 104.962V107.419C275.806 108.725 275.994 109.691 276.371 110.316C276.752 110.936 277.328 111.246 278.097 111.246C278.855 111.246 279.417 110.953 279.782 110.366C280.153 109.78 280.347 108.855 280.363 107.594V105.078ZM284.501 113.371H283.181L288.228 100.247H289.54L284.501 113.371ZM299.131 112.333H291.212V111.229L295.396 106.581C296.015 105.878 296.442 105.308 296.674 104.871C296.912 104.428 297.031 103.972 297.031 103.501C297.031 102.87 296.84 102.353 296.458 101.949C296.076 101.545 295.567 101.343 294.931 101.343C294.167 101.343 293.572 101.562 293.146 101.999C292.726 102.431 292.515 103.034 292.515 103.808H290.98C290.98 102.696 291.337 101.797 292.05 101.111C292.77 100.425 293.73 100.081 294.931 100.081C296.054 100.081 296.942 100.377 297.595 100.97C298.248 101.556 298.575 102.339 298.575 103.319C298.575 104.509 297.817 105.925 296.3 107.569L293.063 111.08H299.131V112.333ZM308.507 107.179C308.507 108.977 308.199 110.314 307.585 111.188C306.971 112.062 306.011 112.499 304.705 112.499C303.415 112.499 302.461 112.073 301.841 111.221C301.221 110.363 300.9 109.085 300.878 107.386V105.336C300.878 103.559 301.185 102.24 301.8 101.376C302.414 100.513 303.377 100.081 304.688 100.081C305.989 100.081 306.946 100.499 307.56 101.335C308.175 102.165 308.49 103.449 308.507 105.186V107.179ZM306.971 105.078C306.971 103.778 306.788 102.832 306.423 102.24C306.058 101.642 305.48 101.343 304.688 101.343C303.902 101.343 303.33 101.639 302.97 102.231C302.61 102.823 302.425 103.734 302.414 104.962V107.419C302.414 108.725 302.602 109.691 302.978 110.316C303.36 110.936 303.936 111.246 304.705 111.246C305.463 111.246 306.025 110.953 306.39 110.366C306.761 109.78 306.954 108.855 306.971 107.594V105.078ZM318.222 107.179C318.222 108.977 317.915 110.314 317.301 111.188C316.687 112.062 315.727 112.499 314.421 112.499C313.131 112.499 312.177 112.073 311.557 111.221C310.937 110.363 310.616 109.085 310.594 107.386V105.336C310.594 103.559 310.901 102.24 311.515 101.376C312.13 100.513 313.093 100.081 314.404 100.081C315.705 100.081 316.662 100.499 317.276 101.335C317.89 102.165 318.206 103.449 318.222 105.186V107.179ZM316.687 105.078C316.687 103.778 316.504 102.832 316.139 102.24C315.774 101.642 315.195 101.343 314.404 101.343C313.618 101.343 313.046 101.639 312.686 102.231C312.326 102.823 312.141 103.734 312.13 104.962V107.419C312.13 108.725 312.318 109.691 312.694 110.316C313.076 110.936 313.651 111.246 314.421 111.246C315.179 111.246 315.741 110.953 316.106 110.366C316.477 109.78 316.67 108.855 316.687 107.594V105.078Z" fill="#868C9B"/>
</svg>
