<svg width="206" height="51" viewBox="0 0 206 51" fill="none" xmlns="http://www.w3.org/2000/svg">
<rect x="0.5" y="0.5" width="204.911" height="49.3206" rx="24.6603" fill="url(#paint0_linear)" stroke="#3F60C7"/>
<path d="M35.7886 31.8625H33.4507V18.3547H35.7886V31.8625ZM40.9279 21.8245L40.9928 22.9841C41.735 22.0873 42.7091 21.6389 43.9152 21.6389C46.0057 21.6389 47.0695 22.8357 47.1066 25.2292V31.8625H44.8522V25.3591C44.8522 24.7221 44.713 24.252 44.4347 23.949C44.1626 23.6397 43.7142 23.4851 43.0895 23.4851C42.1803 23.4851 41.5031 23.8964 41.0578 24.719V31.8625H38.8034V21.8245H40.9279ZM60.9013 31.8625C60.8023 31.6708 60.7157 31.3585 60.6415 30.9255C59.9241 31.6739 59.0458 32.0481 58.0067 32.0481C56.9986 32.0481 56.176 31.7605 55.539 31.1853C54.9019 30.6101 54.5834 29.8988 54.5834 29.0515C54.5834 27.9815 54.9792 27.162 55.7709 26.593C56.5687 26.0178 57.7068 25.7302 59.185 25.7302H60.5673V25.0715C60.5673 24.552 60.4219 24.1376 60.1312 23.8284C59.8406 23.5129 59.3983 23.3552 58.8046 23.3552C58.2912 23.3552 57.8707 23.4851 57.5429 23.7449C57.2151 23.9985 57.0512 24.3232 57.0512 24.719H54.7968C54.7968 24.1685 54.9792 23.6552 55.3441 23.179C55.709 22.6965 56.2038 22.3193 56.8285 22.0471C57.4594 21.775 58.1614 21.6389 58.9345 21.6389C60.1096 21.6389 61.0466 21.9358 61.7455 22.5295C62.4444 23.1171 62.8031 23.9459 62.8217 25.0159V29.5432C62.8217 30.4462 62.9485 31.1667 63.202 31.7048V31.8625H60.9013ZM58.4242 30.239C58.8695 30.239 59.287 30.1308 59.6767 29.9143C60.0725 29.6978 60.3694 29.4071 60.5673 29.0422V27.1497H59.352C58.517 27.1497 57.8892 27.295 57.4687 27.5857C57.0481 27.8764 56.8378 28.2877 56.8378 28.8196C56.8378 29.2525 56.98 29.5989 57.2645 29.8586C57.5552 30.1122 57.9418 30.239 58.4242 30.239ZM75.9298 23.884C75.6329 23.8346 75.3268 23.8098 75.0114 23.8098C73.9785 23.8098 73.2827 24.2056 72.924 24.9973V31.8625H70.6696V21.8245H72.8219L72.8776 22.947C73.4218 22.075 74.1764 21.6389 75.1413 21.6389C75.4629 21.6389 75.7288 21.6822 75.9391 21.7688L75.9298 23.884ZM81.969 32.0481C80.5403 32.0481 79.3806 31.5997 78.49 30.7029C77.6056 29.7999 77.1633 28.6 77.1633 27.1033V26.825C77.1633 25.823 77.3551 24.9293 77.7385 24.1438C78.1282 23.3521 78.6725 22.7367 79.3713 22.2976C80.0702 21.8585 80.8495 21.6389 81.7092 21.6389C83.0761 21.6389 84.1306 22.075 84.8728 22.947C85.6212 23.8191 85.9954 25.053 85.9954 26.6487V27.5579H79.4363C79.5043 28.3866 79.7795 29.0422 80.262 29.5247C80.7506 30.0071 81.3629 30.2483 82.0989 30.2483C83.1318 30.2483 83.9729 29.8308 84.6223 28.9958L85.8377 30.1555C85.4356 30.7555 84.8975 31.2224 84.2234 31.5564C83.5554 31.8842 82.804 32.0481 81.969 32.0481ZM81.7 23.448C81.0815 23.448 80.5805 23.6645 80.197 24.0974C79.8198 24.5304 79.5785 25.1334 79.4734 25.9065H83.7688V25.7395C83.7193 24.9849 83.5183 24.4159 83.1658 24.0325C82.8132 23.6428 82.3246 23.448 81.7 23.448ZM90.5316 31.8625H88.2772V17.6125H90.5316V31.8625ZM99.3726 31.8625C99.2736 31.6708 99.187 31.3585 99.1128 30.9255C98.3953 31.6739 97.5171 32.0481 96.478 32.0481C95.4699 32.0481 94.6473 31.7605 94.0103 31.1853C93.3732 30.6101 93.0547 29.8988 93.0547 29.0515C93.0547 27.9815 93.4505 27.162 94.2422 26.593C95.04 26.0178 96.1781 25.7302 97.6562 25.7302H99.0386V25.0715C99.0386 24.552 98.8932 24.1376 98.6025 23.8284C98.3118 23.5129 97.8696 23.3552 97.2759 23.3552C96.7625 23.3552 96.342 23.4851 96.0142 23.7449C95.6864 23.9985 95.5225 24.3232 95.5225 24.719H93.2681C93.2681 24.1685 93.4505 23.6552 93.8154 23.179C94.1803 22.6965 94.6751 22.3193 95.2998 22.0471C95.9307 21.775 96.6326 21.6389 97.4058 21.6389C98.5809 21.6389 99.5179 21.9358 100.217 22.5295C100.916 23.1171 101.274 23.9459 101.293 25.0159V29.5432C101.293 30.4462 101.42 31.1667 101.673 31.7048V31.8625H99.3726ZM96.8955 30.239C97.3408 30.239 97.7583 30.1308 98.1479 29.9143C98.5438 29.6978 98.8407 29.4071 99.0386 29.0422V27.1497H97.8232C96.9883 27.1497 96.3605 27.295 95.9399 27.5857C95.5194 27.8764 95.3091 28.2877 95.3091 28.8196C95.3091 29.2525 95.4513 29.5989 95.7358 29.8586C96.0265 30.1122 96.4131 30.239 96.8955 30.239ZM106.859 19.3845V21.8245H108.631V23.4944H106.859V29.0979C106.859 29.4814 106.933 29.7597 107.082 29.9329C107.236 30.0999 107.508 30.1833 107.898 30.1833C108.158 30.1833 108.421 30.1524 108.687 30.0906V31.8347C108.173 31.977 107.678 32.0481 107.202 32.0481C105.47 32.0481 104.605 31.0925 104.605 29.1814V23.4944H102.953V21.8245H104.605V19.3845H106.859ZM113.139 31.8625H110.885V21.8245H113.139V31.8625ZM110.746 19.2175C110.746 18.8712 110.854 18.5836 111.071 18.3547C111.293 18.1259 111.609 18.0115 112.017 18.0115C112.425 18.0115 112.74 18.1259 112.963 18.3547C113.186 18.5836 113.297 18.8712 113.297 19.2175C113.297 19.5577 113.186 19.8422 112.963 20.071C112.74 20.2937 112.425 20.405 112.017 20.405C111.609 20.405 111.293 20.2937 111.071 20.071C110.854 19.8422 110.746 19.5577 110.746 19.2175ZM115.56 26.7507C115.56 25.7673 115.755 24.8829 116.145 24.0974C116.535 23.3057 117.082 22.6996 117.787 22.2791C118.492 21.8523 119.302 21.6389 120.218 21.6389C121.572 21.6389 122.67 22.075 123.511 22.947C124.358 23.8191 124.816 24.9757 124.884 26.4167L124.893 26.9456C124.893 27.9351 124.702 28.8196 124.318 29.5989C123.941 30.3782 123.397 30.9812 122.685 31.408C121.98 31.8347 121.164 32.0481 120.236 32.0481C118.82 32.0481 117.685 31.578 116.831 30.6379C115.984 29.6917 115.56 28.433 115.56 26.8621V26.7507ZM117.815 26.9456C117.815 27.9784 118.028 28.7887 118.455 29.3762C118.882 29.9576 119.475 30.2483 120.236 30.2483C120.997 30.2483 121.588 29.9514 122.008 29.3577C122.435 28.7639 122.648 27.8949 122.648 26.7507C122.648 25.7364 122.429 24.9324 121.99 24.3386C121.557 23.7449 120.966 23.448 120.218 23.448C119.482 23.448 118.897 23.7418 118.464 24.3293C118.031 24.9107 117.815 25.7828 117.815 26.9456ZM129.272 21.8245L129.337 22.9841C130.079 22.0873 131.053 21.6389 132.259 21.6389C134.35 21.6389 135.414 22.8357 135.451 25.2292V31.8625H133.196V25.3591C133.196 24.7221 133.057 24.252 132.779 23.949C132.507 23.6397 132.058 23.4851 131.434 23.4851C130.524 23.4851 129.847 23.8964 129.402 24.719V31.8625H127.147V21.8245H129.272ZM143.763 29.135C143.763 28.733 143.596 28.4268 143.262 28.2166C142.934 28.0063 142.387 27.8207 141.62 27.6599C140.853 27.4991 140.213 27.295 139.699 27.0476C138.574 26.5033 138.011 25.7148 138.011 24.6819C138.011 23.816 138.376 23.0924 139.106 22.511C139.835 21.9296 140.763 21.6389 141.889 21.6389C143.089 21.6389 144.057 21.9358 144.793 22.5295C145.535 23.1233 145.906 23.8933 145.906 24.8396H143.651C143.651 24.4067 143.491 24.0479 143.169 23.7634C142.847 23.4727 142.421 23.3274 141.889 23.3274C141.394 23.3274 140.989 23.4418 140.673 23.6707C140.364 23.8995 140.21 24.2056 140.21 24.5891C140.21 24.9355 140.355 25.2045 140.646 25.3962C140.936 25.588 141.524 25.7828 142.408 25.9807C143.293 26.1724 143.985 26.4044 144.486 26.6765C144.994 26.9425 145.368 27.2641 145.609 27.6414C145.856 28.0186 145.98 28.4763 145.98 29.0144C145.98 29.9174 145.606 30.6503 144.858 31.2131C144.109 31.7698 143.129 32.0481 141.917 32.0481C141.094 32.0481 140.361 31.8997 139.718 31.6028C139.075 31.3059 138.574 30.8977 138.215 30.3782C137.856 29.8586 137.677 29.2989 137.677 28.699H139.866C139.897 29.2309 140.098 29.6422 140.469 29.9329C140.84 30.2174 141.332 30.3596 141.944 30.3596C142.538 30.3596 142.99 30.2483 143.299 30.0256C143.608 29.7968 143.763 29.4999 143.763 29.135ZM150.553 22.9192C151.289 22.0657 152.22 21.6389 153.346 21.6389C155.486 21.6389 156.571 22.8604 156.602 25.3035V31.8625H154.348V25.387C154.348 24.6943 154.196 24.2056 153.893 23.9211C153.596 23.6305 153.157 23.4851 152.576 23.4851C151.673 23.4851 150.999 23.8871 150.553 24.6912V31.8625H148.299V17.6125H150.553V22.9192ZM161.667 31.8625H159.413V21.8245H161.667V31.8625ZM159.274 19.2175C159.274 18.8712 159.382 18.5836 159.598 18.3547C159.821 18.1259 160.137 18.0115 160.545 18.0115C160.953 18.0115 161.268 18.1259 161.491 18.3547C161.714 18.5836 161.825 18.8712 161.825 19.2175C161.825 19.5577 161.714 19.8422 161.491 20.071C161.268 20.2937 160.953 20.405 160.545 20.405C160.137 20.405 159.821 20.2937 159.598 20.071C159.382 19.8422 159.274 19.5577 159.274 19.2175ZM173.301 26.9456C173.301 28.498 172.948 29.738 172.243 30.6658C171.538 31.5873 170.592 32.0481 169.404 32.0481C168.303 32.0481 167.422 31.6863 166.76 30.9626V35.7219H164.506V21.8245H166.584L166.677 22.845C167.339 22.0409 168.238 21.6389 169.376 21.6389C170.601 21.6389 171.56 22.0966 172.252 23.012C172.951 23.9211 173.301 25.186 173.301 26.8064V26.9456ZM171.056 26.7507C171.056 25.7488 170.855 24.954 170.453 24.3665C170.057 23.7789 169.488 23.4851 168.746 23.4851C167.824 23.4851 167.162 23.8655 166.76 24.6262V29.0793C167.168 29.8586 167.836 30.2483 168.764 30.2483C169.482 30.2483 170.041 29.9607 170.443 29.3855C170.852 28.8041 171.056 27.9259 171.056 26.7507Z" fill="white"/>
<defs>
<linearGradient id="paint0_linear" x1="102.955" y1="0" x2="102.955" y2="50.3206" gradientUnits="userSpaceOnUse">
<stop stop-color="#659FF8"/>
<stop offset="1" stop-color="#1841C1"/>
</linearGradient>
</defs>
</svg>
