<svg width="177" height="41" viewBox="0 0 177 41" fill="none" xmlns="http://www.w3.org/2000/svg">
<rect x="0.702148" width="176.298" height="40.7198" rx="20.3599" fill="url(#paint0_linear)"/>
<path d="M154.681 28H150.023V27.3506L152.484 24.6162C152.849 24.2028 153.099 23.8675 153.236 23.6104C153.376 23.3499 153.446 23.0814 153.446 22.8047C153.446 22.4336 153.334 22.1292 153.109 21.8916C152.885 21.654 152.585 21.5352 152.211 21.5352C151.762 21.5352 151.412 21.6637 151.161 21.9209C150.914 22.1748 150.79 22.5296 150.79 22.9854H149.887C149.887 22.3311 150.096 21.8021 150.516 21.3984C150.94 20.9948 151.504 20.793 152.211 20.793C152.872 20.793 153.394 20.9671 153.778 21.3154C154.162 21.6605 154.354 22.1211 154.354 22.6973C154.354 23.3971 153.908 24.2305 153.016 25.1973L151.112 27.2627H154.681V28ZM155.802 27.5264C155.802 27.3701 155.848 27.2399 155.939 27.1357C156.033 27.0316 156.173 26.9795 156.359 26.9795C156.544 26.9795 156.684 27.0316 156.779 27.1357C156.876 27.2399 156.925 27.3701 156.925 27.5264C156.925 27.6761 156.876 27.8014 156.779 27.9023C156.684 28.0033 156.544 28.0537 156.359 28.0537C156.173 28.0537 156.033 28.0033 155.939 27.9023C155.848 27.8014 155.802 27.6761 155.802 27.5264ZM155.807 23.2148C155.807 23.0586 155.852 22.9284 155.944 22.8242C156.038 22.7201 156.178 22.668 156.363 22.668C156.549 22.668 156.689 22.7201 156.783 22.8242C156.881 22.9284 156.93 23.0586 156.93 23.2148C156.93 23.3646 156.881 23.4899 156.783 23.5908C156.689 23.6917 156.549 23.7422 156.363 23.7422C156.178 23.7422 156.038 23.6917 155.944 23.5908C155.852 23.4899 155.807 23.3646 155.807 23.2148ZM162.718 24.9678C162.718 26.0257 162.538 26.8118 162.176 27.3262C161.815 27.8405 161.25 28.0977 160.482 28.0977C159.724 28.0977 159.162 27.847 158.797 27.3457C158.433 26.8411 158.244 26.0892 158.231 25.0898V23.8838C158.231 22.8389 158.412 22.0625 158.773 21.5547C159.134 21.0469 159.701 20.793 160.472 20.793C161.237 20.793 161.8 21.0387 162.162 21.5303C162.523 22.0186 162.709 22.7738 162.718 23.7959V24.9678ZM161.815 23.7324C161.815 22.9674 161.708 22.4108 161.493 22.0625C161.278 21.7109 160.938 21.5352 160.472 21.5352C160.01 21.5352 159.673 21.7093 159.462 22.0576C159.25 22.4059 159.141 22.9414 159.134 23.6641V25.1094C159.134 25.8776 159.245 26.4456 159.466 26.8135C159.691 27.1781 160.03 27.3604 160.482 27.3604C160.928 27.3604 161.258 27.1878 161.473 26.8428C161.691 26.4977 161.805 25.9541 161.815 25.2119V23.7324ZM168.434 24.9678C168.434 26.0257 168.253 26.8118 167.892 27.3262C167.53 27.8405 166.965 28.0977 166.197 28.0977C165.439 28.0977 164.877 27.847 164.513 27.3457C164.148 26.8411 163.959 26.0892 163.946 25.0898V23.8838C163.946 22.8389 164.127 22.0625 164.488 21.5547C164.85 21.0469 165.416 20.793 166.188 20.793C166.952 20.793 167.516 21.0387 167.877 21.5303C168.238 22.0186 168.424 22.7738 168.434 23.7959V24.9678ZM167.53 23.7324C167.53 22.9674 167.423 22.4108 167.208 22.0625C166.993 21.7109 166.653 21.5352 166.188 21.5352C165.725 21.5352 165.388 21.7093 165.177 22.0576C164.965 22.4059 164.856 22.9414 164.85 23.6641V25.1094C164.85 25.8776 164.96 26.4456 165.182 26.8135C165.406 27.1781 165.745 27.3604 166.197 27.3604C166.643 27.3604 166.974 27.1878 167.188 26.8428C167.407 26.4977 167.521 25.9541 167.53 25.2119V23.7324Z" fill="white"/>
<path fill-rule="evenodd" clip-rule="evenodd" d="M20.6465 30.0771C26.0535 30.0771 30.4366 25.694 30.4366 20.287C30.4366 14.8801 26.0535 10.4969 20.6465 10.4969C15.2396 10.4969 10.8564 14.8801 10.8564 20.287C10.8564 25.694 15.2396 30.0771 20.6465 30.0771ZM19.3857 16.3697L24.2153 19.4431C24.8328 19.8361 24.8328 20.7375 24.2153 21.1304L19.3857 24.2038C18.72 24.6274 17.8488 24.1492 17.8488 23.3601V17.2134C17.8488 16.4243 18.72 15.9461 19.3857 16.3697Z" fill="white"/>
<rect opacity="0.5" x="38.6455" y="12.0306" width="1.72325" height="16.6581" rx="0.861626" fill="white"/>
<rect opacity="0.5" x="42.0918" y="22.9445" width="2.29767" height="5.74417" rx="1" fill="white"/>
<rect opacity="0.5" x="46.1123" y="22.9445" width="1.72325" height="5.74417" rx="0.861626" fill="white"/>
<rect opacity="0.5" x="49.5586" y="22.9445" width="2.29767" height="5.74417" rx="1" fill="white"/>
<rect opacity="0.5" x="53.5801" y="12.0306" width="1.72325" height="16.6581" rx="0.861626" fill="white"/>
<rect opacity="0.5" x="57.0264" y="12.0306" width="1.72325" height="16.6581" rx="0.861626" fill="white"/>
<rect opacity="0.5" x="61.0479" y="22.9445" width="1.72325" height="5.74417" rx="0.861626" fill="white"/>
<rect opacity="0.5" x="64.4941" y="19.4985" width="1.72325" height="9.19067" rx="0.861626" fill="white"/>
<rect opacity="0.5" x="68.5146" y="12.0306" width="1.72325" height="16.6581" rx="0.861626" fill="white"/>
<rect opacity="0.5" x="71.9609" y="12.0306" width="1.72325" height="16.6581" rx="0.861626" fill="white"/>
<rect opacity="0.5" x="75.4082" y="12.0306" width="2.29767" height="16.6581" rx="1" fill="white"/>
<rect opacity="0.5" x="79.4287" y="12.0306" width="1.72325" height="16.6581" rx="0.861626" fill="white"/>
<rect opacity="0.5" x="82.875" y="12.0306" width="2.29767" height="16.6581" rx="1" fill="white"/>
<rect opacity="0.5" x="86.8965" y="12.0306" width="1.72325" height="16.6581" rx="0.861626" fill="white"/>
<rect opacity="0.5" x="90.3428" y="12.0306" width="1.72325" height="16.6581" rx="0.861626" fill="white"/>
<rect opacity="0.5" x="94.3643" y="12.0306" width="1.72325" height="16.6581" rx="0.861626" fill="white"/>
<rect opacity="0.5" x="97.8105" y="12.0306" width="1.72325" height="16.6581" rx="0.861626" fill="white"/>
<rect opacity="0.5" x="101.831" y="12.0306" width="1.72325" height="16.6581" rx="0.861626" fill="white"/>
<rect opacity="0.5" x="105.277" y="12.0306" width="1.72325" height="16.6581" rx="0.861626" fill="white"/>
<rect opacity="0.5" x="108.725" y="22.9445" width="2.29767" height="5.74417" rx="1" fill="white"/>
<rect opacity="0.5" x="112.745" y="22.9445" width="1.72325" height="5.74417" rx="0.861626" fill="white"/>
<rect opacity="0.5" x="116.191" y="12.0306" width="2.29767" height="16.6581" rx="1" fill="white"/>
<rect opacity="0.5" x="120.212" y="12.0306" width="1.72325" height="16.6581" rx="0.861626" fill="white"/>
<rect opacity="0.5" x="123.659" y="17.775" width="1.72325" height="10.9139" rx="0.861626" fill="white"/>
<rect opacity="0.5" x="127.68" y="17.775" width="1.72325" height="10.9139" rx="0.861626" fill="white"/>
<rect opacity="0.5" x="131.127" y="12.0306" width="1.72325" height="16.6581" rx="0.861626" fill="white"/>
<rect opacity="0.5" x="135.147" y="12.0306" width="1.72325" height="16.6581" rx="0.861626" fill="white"/>
<rect opacity="0.5" x="138.594" y="22.9445" width="1.72325" height="5.74417" rx="0.861626" fill="white"/>
<defs>
<linearGradient id="paint0_linear" x1="88.8512" y1="0" x2="88.8512" y2="40.7198" gradientUnits="userSpaceOnUse">
<stop stop-color="#3F60C7"/>
<stop offset="1" stop-color="#1841C1"/>
</linearGradient>
</defs>
</svg>
