<svg width="39" height="38" viewBox="0 0 39 38" fill="none" xmlns="http://www.w3.org/2000/svg">
<path d="M27.7317 18.6149L23.4472 17.0348C19.9784 15.7557 17.244 13.0215 15.965 9.55288L14.3847 5.26806C14.3253 5.10698 14.1717 5 14 5C13.8283 5 13.6747 5.10698 13.6153 5.26806L12.035 9.55264C10.7558 13.0215 8.02139 15.7557 4.55284 17.0348L0.268056 18.6149C0.106981 18.6743 0 18.8279 0 18.9996C0 19.1713 0.106981 19.3249 0.268056 19.3843L4.55309 20.9649C8.02163 22.2441 10.7558 24.9783 12.035 28.4469L13.6153 32.7319C13.6747 32.893 13.8283 33 14 33C14.1717 33 14.3253 32.893 14.3847 32.7319L15.965 28.4469C17.2442 24.9783 19.9784 22.2439 23.4469 20.9649L27.7319 19.3843C27.893 19.3249 28 19.1713 28 18.9996C28 18.8279 27.8928 18.6743 27.7317 18.6149Z" fill="#1943C2"/>
<path d="M38.8467 29.78L36.3984 28.8771C34.4162 28.1461 32.8537 26.5837 32.1229 24.6016L31.2198 22.1532C31.1859 22.0611 31.0981 22 31 22C30.9019 22 30.8141 22.0611 30.7802 22.1532L29.8771 24.6015C29.1462 26.5837 27.5837 28.1461 25.6016 28.8771L23.1532 29.78C23.0611 29.8139 23 29.9017 23 29.9998C23 30.0979 23.0611 30.1857 23.1532 30.2196L25.6018 31.1228C27.5838 31.8538 29.1462 33.4162 29.8771 35.3982L30.7802 37.8468C30.8141 37.9389 30.9019 38 31 38C31.0981 38 31.1859 37.9389 31.2198 37.8468L32.1229 35.3982C32.8538 33.4162 34.4162 31.8536 36.3982 31.1228L38.8468 30.2196C38.9389 30.1857 39 30.0979 39 29.9998C39 29.9017 38.9387 29.8139 38.8467 29.78Z" fill="#1943C2"/>
<path d="M33.885 5.83497L32.0488 5.15779C30.5622 4.60957 29.3903 3.43777 28.8422 1.95124L28.1649 0.114882C28.1394 0.0458494 28.0736 0 28 0C27.9264 0 27.8606 0.0458494 27.8351 0.114882L27.1578 1.95113C26.6096 3.43777 25.4377 4.60957 23.9512 5.15779L22.1149 5.83497C22.0458 5.86043 22 5.92626 22 5.99985C22 6.07343 22.0458 6.13926 22.1149 6.16472L23.9513 6.84211C25.4378 7.39033 26.6096 8.56213 27.1578 10.0487L27.8351 11.8851C27.8606 11.9542 27.9264 12 28 12C28.0736 12 28.1394 11.9542 28.1649 11.8851L28.8422 10.0487C29.3904 8.56213 30.5622 7.39023 32.0487 6.84211L33.8851 6.16472C33.9542 6.13926 34 6.07343 34 5.99985C34 5.92626 33.954 5.86043 33.885 5.83497Z" fill="#1943C2"/>
</svg>
