<svg width="41" height="43" viewBox="0 0 41 43" fill="none" xmlns="http://www.w3.org/2000/svg">
<path d="M27.2769 25.0778C27.2769 26.4738 26.1841 27.9605 23.8269 29.1559C21.5155 30.3281 18.2288 31.0751 14.4789 31.0751C10.7289 31.0751 7.39753 30.3281 5.04125 29.1529C2.6314 27.951 1.51367 26.4616 1.51367 25.0778C1.51367 23.6858 2.64219 22.1585 5.05218 20.9195C7.40816 19.7082 10.7364 18.925 14.4789 18.925C18.2213 18.925 21.5048 19.7081 23.8159 20.9163C26.1736 22.1489 27.2769 23.6737 27.2769 25.0778Z" fill="#234EC9" stroke="#F6F7FB" stroke-width="2"/>
<path d="M27.2769 19.8657C27.2769 21.2616 26.1841 22.7484 23.8269 23.9438C21.5155 25.1159 18.2288 25.863 14.4789 25.863C10.7289 25.863 7.39753 25.1159 5.04125 23.9407C2.6314 22.7389 1.51367 21.2494 1.51367 19.8657C1.51367 18.4737 2.64219 16.9464 5.05218 15.7073C7.40816 14.4961 10.7364 13.7129 14.4789 13.7129C18.2213 13.7129 21.5048 14.496 23.8159 15.7042C26.1736 16.9368 27.2769 18.4616 27.2769 19.8657Z" fill="#234EC9" stroke="#F6F7FB" stroke-width="2"/>
<path d="M27.2769 14.6536C27.2769 16.0495 26.1841 17.5362 23.8269 18.7317C21.5155 19.9038 18.2288 20.6509 14.4789 20.6509C10.7289 20.6509 7.39753 19.9038 5.04125 18.7286C2.63141 17.5268 1.51367 16.0373 1.51367 14.6536C1.51367 13.2615 2.64219 11.7342 5.05218 10.4952C7.40816 9.2839 10.7364 8.50073 14.4789 8.50073C18.2213 8.50073 21.5048 9.28382 23.8159 10.492C26.1736 11.7246 27.2769 13.2494 27.2769 14.6536Z" fill="#234EC9" stroke="#F6F7FB" stroke-width="2"/>
<path d="M27.7881 8.93176C27.7881 10.6693 26.5713 12.4052 24.1535 13.7619C21.759 15.1055 18.3587 15.96 14.4808 15.96C10.6026 15.96 7.15602 15.1054 4.71509 13.7584C2.24494 12.3953 1 10.6573 1 8.93176C1 7.19852 2.25441 5.41582 4.7264 4.00955C7.16761 2.6208 10.611 1.7251 14.4808 1.7251C18.3502 1.7251 21.7473 2.62064 24.1421 4.00596C26.5621 5.40583 27.7881 7.18664 27.7881 8.93176Z" fill="#234EC9" stroke="#F6F7FB" stroke-width="2"/>
<path d="M16.3613 29.1311C16.3613 22.607 21.5761 17.3402 27.9301 17.3402C34.284 17.3402 39.4988 22.607 39.4988 29.1311C39.4988 35.6553 34.284 40.9221 27.9301 40.9221C21.5761 40.9221 16.3613 35.6553 16.3613 29.1311Z" fill="#234EC9" stroke="#F6F7FB" stroke-width="3"/>
<path d="M29.1793 15.2954C29.1793 14.8983 29.0815 14.5866 28.886 14.3604C28.6904 14.1341 28.3469 13.9205 27.8554 13.7194C27.364 13.5183 26.9102 13.3147 26.494 13.1086C26.0777 12.9025 25.7192 12.6637 25.4183 12.3922C25.1174 12.1208 24.8868 11.8066 24.7263 11.4496C24.5658 11.0927 24.4856 10.6604 24.4856 10.1526C24.4856 9.30304 24.7714 8.60426 25.3431 8.05631C25.9148 7.50332 26.677 7.18158 27.6298 7.09109V5.5H28.8258V7.12126C29.7435 7.25699 30.4631 7.63654 30.9846 8.25991C31.5111 8.87824 31.7744 9.66499 31.7744 10.6202H29.232C29.232 10.0973 29.1317 9.69516 28.9311 9.41364C28.7305 9.13212 28.4447 8.99136 28.0736 8.99136C27.7426 8.99136 27.4844 9.09693 27.2988 9.30807C27.1183 9.51418 27.028 9.80073 27.028 10.1677C27.028 10.5397 27.1333 10.8363 27.3439 11.0575C27.5546 11.2737 27.8931 11.4823 28.3594 11.6834C28.8258 11.8795 29.2646 12.0856 29.6758 12.3017C30.092 12.5129 30.4505 12.7542 30.7514 13.0256C31.0523 13.2971 31.288 13.6138 31.4585 13.9758C31.629 14.3377 31.7142 14.7726 31.7142 15.2803C31.7142 16.14 31.4409 16.8413 30.8943 17.3842C30.3528 17.9271 29.6131 18.2438 28.6753 18.3343V19.85H27.4793V18.3268C26.3861 18.2111 25.5462 17.8366 24.9595 17.2032C24.3778 16.5648 24.0869 15.7252 24.0869 14.6846H26.6218C26.6218 15.2577 26.7472 15.6951 26.9979 15.9967C27.2537 16.2933 27.6147 16.4416 28.0811 16.4416C28.4221 16.4416 28.6904 16.341 28.886 16.14C29.0815 15.9338 29.1793 15.6523 29.1793 15.2954Z" fill="url(#paint0_linear)"/>
<path d="M29.1793 15.2954C29.1793 14.8983 29.0815 14.5866 28.886 14.3604C28.6904 14.1341 28.3469 13.9205 27.8554 13.7194C27.364 13.5183 26.9102 13.3147 26.494 13.1086C26.0777 12.9025 25.7192 12.6637 25.4183 12.3922C25.1174 12.1208 24.8868 11.8066 24.7263 11.4496C24.5658 11.0927 24.4856 10.6604 24.4856 10.1526C24.4856 9.30304 24.7714 8.60426 25.3431 8.05631C25.9148 7.50332 26.677 7.18158 27.6298 7.09109V5.5H28.8258V7.12126C29.7435 7.25699 30.4631 7.63654 30.9846 8.25991C31.5111 8.87824 31.7744 9.66499 31.7744 10.6202H29.232C29.232 10.0973 29.1317 9.69516 28.9311 9.41364C28.7305 9.13212 28.4447 8.99136 28.0736 8.99136C27.7426 8.99136 27.4844 9.09693 27.2988 9.30807C27.1183 9.51418 27.028 9.80073 27.028 10.1677C27.028 10.5397 27.1333 10.8363 27.3439 11.0575C27.5546 11.2737 27.8931 11.4823 28.3594 11.6834C28.8258 11.8795 29.2646 12.0856 29.6758 12.3017C30.092 12.5129 30.4505 12.7542 30.7514 13.0256C31.0523 13.2971 31.288 13.6138 31.4585 13.9758C31.629 14.3377 31.7142 14.7726 31.7142 15.2803C31.7142 16.14 31.4409 16.8413 30.8943 17.3842C30.3528 17.9271 29.6131 18.2438 28.6753 18.3343V19.85H27.4793V18.3268C26.3861 18.2111 25.5462 17.8366 24.9595 17.2032C24.3778 16.5648 24.0869 15.7252 24.0869 14.6846H26.6218C26.6218 15.2577 26.7472 15.6951 26.9979 15.9967C27.2537 16.2933 27.6147 16.4416 28.0811 16.4416C28.4221 16.4416 28.6904 16.341 28.886 16.14C29.0815 15.9338 29.1793 15.6523 29.1793 15.2954Z" fill="#F7F8FB"/>
<defs>
<linearGradient id="paint0_linear" x1="28.2845" y1="37.6825" x2="33.9508" y2="5.38664" gradientUnits="userSpaceOnUse">
<stop stop-color="#659FF8"/>
<stop offset="1" stop-color="#1841C1"/>
</linearGradient>
</defs>
</svg>
