<svg width="143" height="101" viewBox="0 0 143 101" fill="none" xmlns="http://www.w3.org/2000/svg">
<rect x="0.500488" width="141.923" height="100.116" rx="40" fill="white"/>
<rect x="1.05078" width="141.923" height="100.116" rx="23" fill="white"/>
<path d="M34.5072 80.5134C34.5072 79.8572 34.2748 79.3513 33.81 78.9958C33.352 78.6404 32.5214 78.2815 31.3183 77.9192C30.1151 77.5569 29.1581 77.1536 28.4472 76.7092C27.0868 75.8547 26.4066 74.7405 26.4066 73.3665C26.4066 72.1633 26.8954 71.1721 27.8729 70.3928C28.8573 69.6135 30.1322 69.2239 31.6977 69.2239C32.7367 69.2239 33.663 69.4153 34.4765 69.7981C35.2899 70.1809 35.9291 70.7278 36.3939 71.4387C36.8588 72.1428 37.0912 72.9255 37.0912 73.7869H34.5072C34.5072 73.0076 34.2611 72.3992 33.7689 71.9617C33.2836 71.5173 32.5863 71.2952 31.6771 71.2952C30.8295 71.2952 30.1698 71.4763 29.6981 71.8386C29.2333 72.2009 29.0009 72.7068 29.0009 73.3562C29.0009 73.9031 29.2538 74.3611 29.7597 74.7302C30.2655 75.0925 31.0995 75.448 32.2616 75.7966C33.4237 76.1384 34.3568 76.5315 35.0609 76.9758C35.765 77.4133 36.2812 77.9192 36.6093 78.4934C36.9374 79.0608 37.1015 79.7273 37.1015 80.4929C37.1015 81.7371 36.6229 82.7283 35.6659 83.4666C34.7157 84.198 33.4237 84.5637 31.7899 84.5637C30.7099 84.5637 29.7152 84.3655 28.8061 83.969C27.9037 83.5657 27.1996 83.012 26.6937 82.3079C26.1947 81.6038 25.9452 80.7834 25.9452 79.8469H28.5395C28.5395 80.6946 28.8197 81.3508 29.3803 81.8157C29.9408 82.2805 30.744 82.5129 31.7899 82.5129C32.6923 82.5129 33.369 82.3318 33.8202 81.9695C34.2782 81.6003 34.5072 81.115 34.5072 80.5134ZM44.4428 84.5637C42.8637 84.5637 41.582 84.0681 40.5976 83.0769C39.6201 82.0789 39.1313 80.7527 39.1313 79.0984V78.7908C39.1313 77.6833 39.3432 76.6956 39.7671 75.8274C40.1977 74.9524 40.7993 74.2722 41.5718 73.7869C42.3442 73.3015 43.2055 73.0588 44.1557 73.0588C45.6665 73.0588 46.832 73.5408 47.6523 74.5046C48.4795 75.4685 48.893 76.8323 48.893 78.5959V79.6008H41.6435C41.7187 80.5168 42.0229 81.2415 42.5561 81.7747C43.0962 82.3079 43.7729 82.5745 44.5864 82.5745C45.728 82.5745 46.6577 82.113 47.3755 81.1902L48.7187 82.4719C48.2744 83.135 47.6797 83.6511 46.9345 84.0203C46.1963 84.3826 45.3657 84.5637 44.4428 84.5637ZM44.1455 75.0583C43.4619 75.0583 42.9082 75.2976 42.4844 75.7761C42.0674 76.2546 41.8008 76.9211 41.6845 77.7756H46.4321V77.5911C46.3774 76.7571 46.1553 76.1282 45.7656 75.7043C45.376 75.2737 44.8359 75.0583 44.1455 75.0583ZM55.2398 76.9143L57.3521 73.2639H60.1207L56.7266 78.7292L60.2335 84.3586H57.4854L55.2706 80.5647L53.066 84.3586H50.2974L53.8043 78.7292L50.4205 73.2639H53.1685L55.2398 76.9143ZM67.4206 78.7292C67.4206 77.0203 67.8171 75.6497 68.6101 74.6174C69.403 73.5784 70.466 73.0588 71.799 73.0588C72.9748 73.0588 73.925 73.469 74.6496 74.2893V68.6086H77.1413V84.3586H74.8855L74.7624 83.2102C74.0173 84.1125 73.0227 84.5637 71.7785 84.5637C70.4797 84.5637 69.427 84.0408 68.6203 82.9949C67.8205 81.949 67.4206 80.5271 67.4206 78.7292ZM69.9123 78.9446C69.9123 80.0725 70.1277 80.9543 70.5583 81.5901C70.9958 82.219 71.6145 82.5334 72.4143 82.5334C73.4328 82.5334 74.1779 82.0789 74.6496 81.1697V76.4324C74.1916 75.5437 73.4533 75.0994 72.4348 75.0994C71.6281 75.0994 71.0061 75.4207 70.5686 76.0632C70.1311 76.699 69.9123 77.6594 69.9123 78.9446ZM85.9695 75.5403C85.6414 75.4856 85.303 75.4583 84.9544 75.4583C83.8128 75.4583 83.0437 75.8958 82.6473 76.7708V84.3586H80.1556V73.2639H82.5345L82.596 74.5046C83.1976 73.5408 84.0315 73.0588 85.0979 73.0588C85.4534 73.0588 85.7474 73.1067 85.9798 73.2024L85.9695 75.5403ZM90.6141 84.3586H88.1224V73.2639H90.6141V84.3586ZM87.9686 70.3826C87.9686 69.9998 88.0883 69.6819 88.3275 69.429C88.5736 69.176 88.9222 69.0496 89.3734 69.0496C89.8246 69.0496 90.1732 69.176 90.4193 69.429C90.6654 69.6819 90.7885 69.9998 90.7885 70.3826C90.7885 70.7585 90.6654 71.073 90.4193 71.3259C90.1732 71.572 89.8246 71.6951 89.3734 71.6951C88.9222 71.6951 88.5736 71.572 88.3275 71.3259C88.0883 71.073 87.9686 70.7585 87.9686 70.3826ZM97.6684 81.2004L100.017 73.2639H102.59L98.7451 84.3586H96.5815L92.7055 73.2639H95.2895L97.6684 81.2004ZM109.316 84.5637C107.737 84.5637 106.456 84.0681 105.471 83.0769C104.494 82.0789 104.005 80.7527 104.005 79.0984V78.7908C104.005 77.6833 104.217 76.6956 104.641 75.8274C105.071 74.9524 105.673 74.2722 106.445 73.7869C107.218 73.3015 108.079 73.0588 109.029 73.0588C110.54 73.0588 111.706 73.5408 112.526 74.5046C113.353 75.4685 113.767 76.8323 113.767 78.5959V79.6008H106.517C106.592 80.5168 106.897 81.2415 107.43 81.7747C107.97 82.3079 108.647 82.5745 109.46 82.5745C110.602 82.5745 111.531 82.113 112.249 81.1902L113.592 82.4719C113.148 83.135 112.553 83.6511 111.808 84.0203C111.07 84.3826 110.239 84.5637 109.316 84.5637ZM109.019 75.0583C108.335 75.0583 107.782 75.2976 107.358 75.7761C106.941 76.2546 106.674 76.9211 106.558 77.7756H111.306V77.5911C111.251 76.7571 111.029 76.1282 110.639 75.7043C110.25 75.2737 109.71 75.0583 109.019 75.0583Z" fill="#31394E"/>
<path d="M94.0529 53.3599C93.8715 46.7678 91.126 40.768 86.7426 36.3835H86.7421C82.0728 31.7153 75.7568 29.0619 69.067 29.0619C62.5818 29.0619 56.1969 31.578 51.3914 36.3835C46.7118 41.0636 44.2533 47.1791 44.081 53.3615C44.0718 53.6936 43.7967 53.9568 43.4646 53.9568H94.6689C94.3362 53.9563 94.0622 53.6926 94.0529 53.3599Z" fill="#E4EAF8"/>
<path d="M56.002 36.6653C60.2425 32.2613 65.7134 29.7102 71.397 29.1714C70.6268 29.0994 69.8495 29.0619 69.067 29.0619C62.5818 29.0619 56.1969 31.578 51.3914 36.383C46.7118 41.0636 44.2533 47.1786 44.081 53.361C44.0718 53.6931 43.7967 53.9563 43.4646 53.9563H48.704C48.9529 47.6521 51.4053 41.44 56.002 36.6653Z" fill="#D8DCE5"/>
<path d="M92.9001 30.2256C86.564 23.8921 78.0341 20.3539 69.0693 20.3539V29.5192C75.6363 29.5192 81.8361 32.1237 86.4195 36.7061L92.9001 30.2256Z" fill="#FFCF3F"/>
<path d="M45.238 30.2257L51.7191 36.7067C56.3277 32.0981 62.5419 29.5198 69.0693 29.5198V20.3545C60.58 20.3545 52.3252 23.3919 45.238 30.2257Z" fill="#15BA8B"/>
<path d="M45.238 30.2257L51.7191 36.7067C56.3277 32.0981 62.5419 29.5198 69.0693 29.5198V20.3545C60.58 20.3545 52.3252 23.3919 45.238 30.2257Z" fill="#15BA8B"/>
<path d="M35.3737 53.3338C35.3665 53.6747 35.639 53.9564 35.9798 53.9564H43.9359C44.2619 53.9564 44.5318 53.6983 44.541 53.3724C44.7097 47.3031 47.1235 41.3007 51.7172 36.7065L45.2361 30.2255C39.1438 36.3178 35.5603 44.5351 35.3737 53.3338Z" fill="#22A6FE"/>
<path d="M49.4118 29.9659C55.153 24.4298 61.6531 21.3605 68.4251 20.359C60.1626 20.5091 52.1454 23.562 45.2371 30.223L47.2982 32.2841C47.965 31.4826 48.6699 30.7083 49.4118 29.9659Z" fill="#11AA7B"/>
<path d="M40.0548 53.9564C39.7098 53.9564 39.4342 53.6716 39.4419 53.3271C39.6075 45.5047 42.4306 38.1384 47.2973 32.2866L45.2361 30.2255C39.1438 36.3178 35.5603 44.5351 35.3737 53.3338C35.3665 53.6747 35.639 53.9564 35.9798 53.9564H43.9359H40.0548Z" fill="#0182FC"/>
<path d="M92.8993 30.2267L86.4182 36.7077C90.722 41.012 93.4165 46.9013 93.5944 53.3726C93.6036 53.6991 93.873 53.9577 94.1995 53.9577H102.156C102.496 53.9577 102.769 53.6764 102.762 53.3351C102.578 44.7528 99.1356 36.461 92.8993 30.2267Z" fill="#EA506C"/>
<path d="M75.6638 53.1499L76.2192 36.4894C76.242 35.7994 75.4831 35.3659 74.9008 35.7359L60.8316 44.6777C54.6943 48.5787 54.9076 57.6069 61.2222 61.2134C67.5369 64.8204 75.4213 60.4181 75.6638 53.1499Z" fill="#EA506C"/>
<path d="M67.9824 49.3821C65.9954 48.2467 63.4644 48.9374 62.3291 50.9249C61.1942 52.9117 61.8849 55.4428 63.8719 56.5782C65.8593 57.7129 68.3903 57.0222 69.5252 55.0353C70.6604 53.0479 69.9697 50.5168 67.9824 49.3821Z" fill="#FF627E"/>
<path d="M66.9809 48.9717C65.2111 48.505 63.2804 49.2595 62.329 50.9245C61.1941 52.9113 61.885 55.4428 63.8718 56.5777C65.5367 57.5287 67.5832 57.1972 68.8708 55.8966C65.7761 55.0806 64.7482 51.2283 66.9809 48.9717Z" fill="#C12743"/>
</svg>
