<svg width="135" height="128" viewBox="0 0 135 128" fill="none" xmlns="http://www.w3.org/2000/svg">
<path d="M6.44824 115.013L6.44824 12.2181C6.44824 5.86679 11.597 0.718049 17.9483 0.718084L106 0.718575C112.351 0.71861 117.5 5.86733 117.5 12.2186V115.013C117.5 121.364 112.351 126.513 106 126.513L17.9482 126.513C11.597 126.513 6.44824 121.364 6.44824 115.013Z" fill="url(#paint0_linear)" stroke="#EEF4FC"/>
<path d="M57.1074 25.9877H55.1797V29.8226H53.4502V19.8695H56.9502C58.0986 19.8695 58.985 20.127 59.6094 20.642C60.2337 21.1569 60.5459 21.9021 60.5459 22.8773C60.5459 23.5427 60.3841 24.101 60.0605 24.5521C59.7415 24.9987 59.2949 25.3428 58.7207 25.5844L60.9561 29.7338V29.8226H59.1035L57.1074 25.9877ZM55.1797 24.6H56.957C57.5404 24.6 57.9961 24.4541 58.3242 24.1625C58.6523 23.8663 58.8164 23.4629 58.8164 22.9525C58.8164 22.4193 58.6637 22.0069 58.3584 21.7152C58.0576 21.4235 57.6064 21.2732 57.0049 21.264H55.1797V24.6ZM65.5632 29.9594C64.5105 29.9594 63.656 29.6289 62.9997 28.9681C62.348 28.3028 62.0222 27.4187 62.0222 26.3158V26.1107C62.0222 25.3724 62.1635 24.7139 62.446 24.1351C62.7331 23.5518 63.1342 23.0983 63.6491 22.7748C64.1641 22.4512 64.7383 22.2894 65.3718 22.2894C66.379 22.2894 67.156 22.6107 67.7029 23.2533C68.2543 23.8959 68.53 24.8051 68.53 25.9808V26.6508H63.697C63.7471 27.2614 63.9499 27.7445 64.3054 28.1C64.6654 28.4554 65.1166 28.6332 65.6589 28.6332C66.42 28.6332 67.0398 28.3256 67.5183 27.7103L68.4138 28.5648C68.1176 29.0069 67.7211 29.351 67.2243 29.597C66.7321 29.8386 66.1784 29.9594 65.5632 29.9594ZM65.365 23.6224C64.9092 23.6224 64.5401 23.7819 64.2575 24.101C63.9795 24.42 63.8018 24.8643 63.7243 25.434H66.8894V25.3109C66.8529 24.7549 66.7048 24.3357 66.445 24.0531C66.1853 23.766 65.8252 23.6224 65.365 23.6224ZM76.5825 26.1996C76.5825 27.3435 76.3227 28.2572 75.8032 28.9408C75.2836 29.6198 74.5864 29.9594 73.7114 29.9594C72.9002 29.9594 72.2508 29.6927 71.7631 29.1595V32.6664H70.102V22.4261H71.6332L71.7016 23.1781C72.1892 22.5857 72.8523 22.2894 73.6909 22.2894C74.5932 22.2894 75.2996 22.6267 75.81 23.3011C76.325 23.9711 76.5825 24.903 76.5825 26.097V26.1996ZM74.9282 26.056C74.9282 25.3177 74.7801 24.7321 74.4838 24.2992C74.1922 23.8663 73.7729 23.6498 73.226 23.6498C72.547 23.6498 72.0593 23.9301 71.7631 24.4906V27.7719C72.0639 28.3461 72.5561 28.6332 73.2397 28.6332C73.7683 28.6332 74.1808 28.4213 74.477 27.9974C74.7778 27.5691 74.9282 26.9219 74.9282 26.056ZM80.0412 29.8226H78.38V19.3226H80.0412V29.8226ZM84.7235 27.4437L86.2274 22.4261H87.9979L85.0585 30.9437C84.6073 32.1879 83.8417 32.8099 82.7616 32.8099C82.5201 32.8099 82.2535 32.7689 81.9618 32.6869V31.4017L82.2763 31.4222C82.6955 31.4222 83.01 31.3448 83.2196 31.1898C83.4338 31.0394 83.6024 30.7842 83.7255 30.4242L83.9647 29.7885L81.3671 22.4261H83.1581L84.7235 27.4437Z" fill="#31394E"/>
<path d="M34.6943 25.5543L35.3869 26.2757C35.5833 26.0871 35.6943 25.8266 35.6943 25.5543C35.6943 25.282 35.5833 25.0215 35.3869 24.8329L34.6943 25.5543ZM21.1461 19.0367C21.1461 18.4844 20.6984 18.0367 20.1461 18.0367C19.5939 18.0367 19.1461 18.4844 19.1461 19.0367H21.1461ZM30.0525 19.712C29.6541 19.3295 29.0211 19.3424 28.6386 19.7408C28.2561 20.1392 28.2691 20.7723 28.6675 21.1547L30.0525 19.712ZM28.6675 29.9539C28.2691 30.3364 28.2561 30.9694 28.6386 31.3678C29.0211 31.7662 29.6541 31.7792 30.0525 31.3967L28.6675 29.9539ZM34.6943 24.5543H25.1461V26.5543H34.6943V24.5543ZM21.1461 20.5543V19.0367H19.1461V20.5543H21.1461ZM35.3869 24.8329L30.0525 19.712L28.6675 21.1547L34.0018 26.2757L35.3869 24.8329ZM34.0018 24.8329L28.6675 29.9539L30.0525 31.3967L35.3869 26.2757L34.0018 24.8329ZM25.1461 24.5543C22.937 24.5543 21.1461 22.7635 21.1461 20.5543H19.1461C19.1461 23.868 21.8324 26.5543 25.1461 26.5543V24.5543Z" fill="#31394E"/>
<path d="M61.0449 64.2174C60.9447 65.2793 60.5527 66.1087 59.8691 66.7057C59.1855 67.2981 58.2764 67.5944 57.1416 67.5944C56.3486 67.5944 55.6491 67.4075 55.043 67.0338C54.4414 66.6556 53.9766 66.1201 53.6484 65.4274C53.3203 64.7347 53.1494 63.9303 53.1357 63.0143V62.0846C53.1357 61.1458 53.3021 60.3186 53.6348 59.6031C53.9674 58.8877 54.4437 58.3362 55.0635 57.9489C55.6878 57.5615 56.4079 57.3678 57.2236 57.3678C58.3219 57.3678 59.2061 57.6663 59.876 58.2633C60.5459 58.8603 60.9355 59.7034 61.0449 60.7926H59.3223C59.2402 60.0771 59.0306 59.5621 58.6934 59.2477C58.3607 58.9287 57.8708 58.7692 57.2236 58.7692C56.4717 58.7692 55.8929 59.0449 55.4873 59.5963C55.0863 60.1432 54.8812 60.9476 54.8721 62.0094V62.8912C54.8721 63.9668 55.0635 64.7871 55.4463 65.3522C55.8337 65.9173 56.3988 66.1998 57.1416 66.1998C57.8206 66.1998 58.3311 66.0472 58.6729 65.7418C59.0146 65.4365 59.2311 64.9283 59.3223 64.2174H61.0449ZM62.405 63.691C62.405 62.9664 62.5486 62.3147 62.8357 61.736C63.1228 61.1526 63.5261 60.706 64.0456 60.3961C64.5652 60.0817 65.1622 59.9244 65.8366 59.9244C66.8347 59.9244 67.6436 60.2457 68.2634 60.8883C68.8877 61.5309 69.225 62.3831 69.2751 63.4449L69.282 63.8346C69.282 64.5638 69.1407 65.2155 68.8581 65.7897C68.5801 66.3639 68.1791 66.8082 67.655 67.1227C67.1355 67.4371 66.5339 67.5944 65.8503 67.5944C64.8067 67.5944 63.9704 67.248 63.3415 66.5553C62.7172 65.858 62.405 64.9306 62.405 63.7731V63.691ZM64.0661 63.8346C64.0661 64.5957 64.2234 65.1927 64.5378 65.6256C64.8523 66.054 65.2898 66.2682 65.8503 66.2682C66.4109 66.2682 66.8461 66.0494 67.156 65.6119C67.4704 65.1744 67.6277 64.5341 67.6277 63.691C67.6277 62.9436 67.4659 62.3512 67.1423 61.9137C66.8233 61.4762 66.3881 61.2574 65.8366 61.2574C65.2943 61.2574 64.8637 61.4739 64.5446 61.9069C64.2256 62.3352 64.0661 62.9778 64.0661 63.8346ZM77.4438 63.8346C77.4438 64.9785 77.184 65.8922 76.6645 66.5758C76.145 67.2548 75.4477 67.5944 74.5727 67.5944C73.7615 67.5944 73.1121 67.3278 72.6245 66.7946V70.3014H70.9633V60.0612H72.4946L72.5629 60.8131C73.0506 60.2207 73.7136 59.9244 74.5522 59.9244C75.4545 59.9244 76.1609 60.2617 76.6713 60.9362C77.1863 61.6061 77.4438 62.538 77.4438 63.7321V63.8346ZM75.7895 63.691C75.7895 62.9528 75.6414 62.3671 75.3452 61.9342C75.0535 61.5013 74.6342 61.2848 74.0873 61.2848C73.4083 61.2848 72.9207 61.5651 72.6245 62.1256V65.4069C72.9252 65.9811 73.4174 66.2682 74.101 66.2682C74.6297 66.2682 75.0421 66.0563 75.3383 65.6324C75.6391 65.2041 75.7895 64.5569 75.7895 63.691ZM81.6408 65.0787L83.1447 60.0612H84.9152L81.9757 68.5787C81.5246 69.8229 80.7589 70.4449 79.6789 70.4449C79.4373 70.4449 79.1707 70.4039 78.8791 70.3219V69.0367L79.1935 69.0573C79.6128 69.0573 79.9272 68.9798 80.1369 68.8248C80.3511 68.6744 80.5197 68.4192 80.6427 68.0592L80.882 67.4235L78.2843 60.0612H80.0754L81.6408 65.0787Z" fill="#31394E"/>
<rect x="20.626" y="57.2111" width="10.9142" height="13.7841" rx="2" stroke="#31394E" stroke-width="2"/>
<path d="M26.8008 54.059H31.6928C33.3497 54.059 34.6928 55.4021 34.6928 57.059V64.8208" stroke="#31394E" stroke-width="2" stroke-linecap="round"/>
<path d="M53.4502 107.872V97.9188H56.3896C57.2692 97.9188 58.0485 98.1148 58.7275 98.5067C59.4111 98.8986 59.9398 99.4546 60.3135 100.175C60.6872 100.895 60.874 101.72 60.874 102.649V103.148C60.874 104.092 60.6849 104.921 60.3066 105.637C59.9329 106.352 59.3975 106.904 58.7002 107.291C58.0075 107.678 57.2122 107.872 56.3145 107.872H53.4502ZM55.1797 99.3134V106.491H56.3076C57.2145 106.491 57.9095 106.209 58.3926 105.643C58.8802 105.074 59.1286 104.258 59.1377 103.196V102.642C59.1377 101.562 58.903 100.738 58.4336 100.168C57.9642 99.5982 57.2829 99.3134 56.3896 99.3134H55.1797ZM65.9734 108.009C64.9206 108.009 64.0661 107.678 63.4099 107.017C62.7582 106.352 62.4323 105.468 62.4323 104.365V104.16C62.4323 103.422 62.5736 102.763 62.8562 102.184C63.1433 101.601 63.5443 101.148 64.0593 100.824C64.5743 100.501 65.1485 100.339 65.782 100.339C66.7891 100.339 67.5661 100.66 68.113 101.303C68.6644 101.945 68.9402 102.854 68.9402 104.03V104.7H64.1071C64.1573 105.311 64.3601 105.794 64.7155 106.149C65.0756 106.505 65.5267 106.682 66.0691 106.682C66.8301 106.682 67.4499 106.375 67.9284 105.76L68.8239 106.614C68.5277 107.056 68.1312 107.4 67.6345 107.646C67.1423 107.888 66.5886 108.009 65.9734 108.009ZM65.7751 101.672C65.3194 101.672 64.9502 101.831 64.6677 102.15C64.3897 102.469 64.212 102.914 64.1345 103.483H67.2995V103.36C67.2631 102.804 67.115 102.385 66.8552 102.102C66.5954 101.815 66.2354 101.672 65.7751 101.672ZM72.2827 107.872H70.6215V97.3719H72.2827V107.872ZM77.6349 108.009C76.5822 108.009 75.7277 107.678 75.0714 107.017C74.4198 106.352 74.0939 105.468 74.0939 104.365V104.16C74.0939 103.422 74.2352 102.763 74.5177 102.184C74.8048 101.601 75.2059 101.148 75.7209 100.824C76.2358 100.501 76.8101 100.339 77.4435 100.339C78.4507 100.339 79.2277 100.66 79.7746 101.303C80.326 101.945 80.6017 102.854 80.6017 104.03V104.7H75.7687C75.8188 105.311 76.0216 105.794 76.3771 106.149C76.7371 106.505 77.1883 106.682 77.7306 106.682C78.4917 106.682 79.1115 106.375 79.59 105.76L80.4855 106.614C80.1893 107.056 79.7928 107.4 79.2961 107.646C78.8039 107.888 78.2502 108.009 77.6349 108.009ZM77.4367 101.672C76.981 101.672 76.6118 101.831 76.3293 102.15C76.0513 102.469 75.8735 102.914 75.7961 103.483H78.9611V103.36C78.9246 102.804 78.7765 102.385 78.5168 102.102C78.257 101.815 77.897 101.672 77.4367 101.672ZM84.2587 98.6776V100.475H85.5643V101.706H84.2587V105.835C84.2587 106.117 84.3134 106.322 84.4227 106.45C84.5367 106.573 84.7372 106.635 85.0243 106.635C85.2157 106.635 85.4094 106.612 85.6054 106.566V107.851C85.2271 107.956 84.8625 108.009 84.5116 108.009C83.2356 108.009 82.5975 107.305 82.5975 105.896V101.706H81.3807V100.475H82.5975V98.6776H84.2587ZM90.3766 108.009C89.3238 108.009 88.4693 107.678 87.8131 107.017C87.1614 106.352 86.8355 105.468 86.8355 104.365V104.16C86.8355 103.422 86.9768 102.763 87.2594 102.184C87.5465 101.601 87.9475 101.148 88.4625 100.824C88.9775 100.501 89.5517 100.339 90.1852 100.339C91.1923 100.339 91.9693 100.66 92.5162 101.303C93.0676 101.945 93.3434 102.854 93.3434 104.03V104.7H88.5104C88.5605 105.311 88.7633 105.794 89.1188 106.149C89.4788 106.505 89.9299 106.682 90.4723 106.682C91.2333 106.682 91.8531 106.375 92.3316 105.76L93.2271 106.614C92.9309 107.056 92.5344 107.4 92.0377 107.646C91.5455 107.888 90.9918 108.009 90.3766 108.009ZM90.1783 101.672C89.7226 101.672 89.3535 101.831 89.0709 102.15C88.7929 102.469 88.6152 102.914 88.5377 103.483H91.7027V103.36C91.6663 102.804 91.5182 102.385 91.2584 102.102C90.9986 101.815 90.6386 101.672 90.1783 101.672Z" fill="#E73656"/>
<path d="M21.6406 97.4512H32.6796V107.791C32.6796 109.448 31.3364 110.791 29.6796 110.791H24.6406C22.9838 110.791 21.6406 109.448 21.6406 107.791V97.4512Z" stroke="#E73656" stroke-width="2"/>
<path d="M25.2422 101.053V106.805" stroke="#E73656" stroke-width="2" stroke-linecap="round"/>
<path d="M29.0781 101.053V106.805" stroke="#E73656" stroke-width="2" stroke-linecap="round"/>
<path d="M19.1074 97.2185H24.4764M35.2144 97.2185H29.8454M24.4764 97.2185V95.1505C24.4764 94.5982 24.9241 94.1505 25.4764 94.1505H28.8454C29.3977 94.1505 29.8454 94.5982 29.8454 95.1505V97.2185M24.4764 97.2185H29.8454" stroke="#E73656" stroke-width="2" stroke-linecap="round"/>
<path d="M0.920898 44.791H134.712" stroke="#DEE1E3" stroke-width="1.5"/>
<path d="M0.920898 80.1221H134.712" stroke="#DEE1E3" stroke-width="1.5"/>
<defs>
<linearGradient id="paint0_linear" x1="56.9368" y1="-20.7511" x2="56.9368" y2="129.355" gradientUnits="userSpaceOnUse">
<stop stop-color="white"/>
<stop offset="1" stop-color="white"/>
</linearGradient>
</defs>
</svg>
