<svg width="76" height="76" viewBox="0 0 76 76" fill="none" xmlns="http://www.w3.org/2000/svg">
<g clip-path="url(#clip0)">
<path d="M5.34473 18.132H70.6561V60.5584H5.34473V18.132Z" fill="#ABEBFF"/>
<path d="M10.4305 50.8166C9.19193 50.0211 8.54715 48.5622 8.7872 47.1022C8.79068 47.0836 8.79706 47.0662 8.8075 47.05C8.81735 47.0344 8.83011 47.021 8.84576 47.01C9.38733 46.6372 10.0025 46.4267 10.6282 46.3774V40.673C10.5615 40.6353 10.4954 40.5965 10.4305 40.5547C9.19193 39.7586 8.54715 38.3003 8.78778 36.8397C8.79068 36.8212 8.79764 36.8038 8.8075 36.7881C8.81735 36.7725 8.83069 36.7591 8.84576 36.7475C9.38733 36.3747 10.0031 36.1648 10.6288 36.1155V18.132H5.34473V55.1132H10.6282V50.9349C10.5615 50.8972 10.4954 50.8584 10.4305 50.8166Z" fill="#76D8FF"/>
<path d="M5.34473 10.7141H70.6561V12.9407H5.34473V10.7141Z" fill="#A7A9AC"/>
<path d="M5.34473 16.1157H70.6561V18.3423H5.34473V16.1157Z" fill="#A7A9AC"/>
<path d="M61.4678 37.4808C61.2556 37.2477 61.0138 37.0384 60.7407 36.8633C59.5022 36.0671 57.9181 36.0927 56.7045 36.9276C56.6894 36.9386 56.6761 36.9526 56.6662 36.9682C56.6563 36.9839 56.6494 37.0013 56.6465 37.0198C56.4059 38.4804 57.0506 39.9387 58.2892 40.7348C59.2523 41.3535 60.4235 41.4735 61.4678 41.1042V37.4808Z" fill="#009E2F"/>
<path d="M60.6176 40.7344C59.3785 39.9388 58.7337 38.4805 58.9743 37.0199C58.9772 37.0014 58.9842 36.984 58.9946 36.9683C59.0045 36.9527 59.0172 36.9388 59.0329 36.9277C59.3164 36.7323 59.6202 36.5839 59.9351 36.4772C58.8636 36.1142 57.6674 36.265 56.7048 36.9277C56.6892 36.9388 56.6764 36.9527 56.6666 36.9683C56.6567 36.984 56.6498 37.0014 56.6463 37.0199C56.4062 38.4805 57.051 39.9388 58.2895 40.7344C59.2381 41.3443 60.3903 41.4702 61.423 41.1205C61.1441 41.0266 60.8733 40.899 60.6176 40.7344Z" fill="#00752C"/>
<path d="M62.5017 45.6674C62.4919 45.6523 62.4849 45.6343 62.4814 45.6152C62.2408 44.1552 62.8856 42.6969 64.1235 41.9008C65.3626 41.1047 66.9468 41.1302 68.1603 41.9657C68.1754 41.9762 68.1888 41.9901 68.1986 42.0057C68.2085 42.0214 68.2148 42.0394 68.2183 42.0579C68.459 43.5185 67.8136 44.9768 66.5757 45.7723C65.3371 46.5685 63.753 46.5429 62.54 45.708C62.5244 45.697 62.5116 45.683 62.5017 45.6674Z" fill="#009E2F"/>
<path d="M63.5011 30.2161C63.4942 29.5412 63.3046 28.8674 62.9283 28.2731C62.1385 27.0253 60.6907 26.3753 59.2411 26.6176C59.2226 26.6205 59.2052 26.6275 59.1895 26.6379C59.1738 26.6478 59.1605 26.6605 59.1495 26.6768C58.3203 27.8991 58.2954 29.4948 59.0851 30.7432C59.8412 31.9365 61.198 32.5801 62.5833 32.4218C62.6256 31.6007 62.952 30.8214 63.5011 30.2161Z" fill="#009E2F"/>
<path d="M62.5017 33.2596C62.4919 33.2439 62.4849 33.2265 62.4814 33.2074C62.2408 31.7468 62.8856 30.2891 64.1235 29.493C65.3626 28.6968 66.9468 28.7224 68.1603 29.5579C68.1754 29.5683 68.1888 29.5822 68.1986 29.5979C68.2085 29.6136 68.2148 29.6315 68.2183 29.6501C68.459 31.1101 67.8136 32.5684 66.5757 33.3645C65.3371 34.1606 63.753 34.1351 62.54 33.3001C62.5244 33.2885 62.5116 33.2752 62.5017 33.2596Z" fill="#009E2F"/>
<path d="M64.1245 41.9011C63.9128 42.0373 63.7203 42.1933 63.5452 42.3644V33.784C64.2659 34.0037 65.0389 33.995 65.7567 33.755C65.4378 33.6483 65.1293 33.4975 64.8429 33.2998C64.8272 33.2888 64.8145 33.2755 64.804 33.2598C64.7948 33.2442 64.7872 33.2268 64.7843 33.2076C64.5437 31.747 65.1885 30.2893 66.4264 29.4932C66.6862 29.3262 66.9622 29.1975 67.2457 29.1024C66.2165 28.758 65.0696 28.8855 64.1245 29.4932C63.7023 29.7646 63.3515 30.1136 63.079 30.512C62.8964 30.3815 62.6737 30.3038 62.4319 30.3038C62.0278 30.3038 61.6752 30.5195 61.4804 30.8419C61.4578 30.8089 61.4335 30.777 61.4126 30.7433C60.6675 29.5669 60.6478 28.0819 61.3424 26.8915C60.6977 26.5998 59.97 26.4961 59.2411 26.6178C59.2226 26.6207 59.2052 26.6277 59.1895 26.6381C59.1738 26.648 59.1605 26.6613 59.1495 26.677C58.3203 27.8993 58.2954 29.495 59.0851 30.7433C59.6064 31.5661 60.4141 32.1262 61.3187 32.3448V49.7567C61.4323 49.7503 61.5465 49.7462 61.6613 49.7462C62.3252 49.7462 62.9602 49.8436 63.5452 50.0199V46.1924C64.2659 46.4122 65.0389 46.4035 65.7567 46.1634C65.4378 46.0568 65.1293 45.906 64.8423 45.7089C64.8272 45.6978 64.8139 45.6839 64.804 45.6683C64.7942 45.6532 64.7872 45.6352 64.7837 45.6161C64.5437 44.1561 65.1885 42.6978 66.4264 41.9017C66.6862 41.7347 66.9616 41.6059 67.2457 41.5109C66.2165 41.1659 65.0696 41.2934 64.1245 41.9011Z" fill="#00752C"/>
<path d="M58.4941 54.8993H66.8762C66.991 54.5566 67.0525 54.1966 67.0525 53.8255C67.0525 51.4905 64.6392 49.5979 61.6623 49.5979C59.372 49.5979 57.4162 50.7193 56.6357 52.2999C57.6296 52.9389 58.3144 53.8579 58.4941 54.8993Z" fill="#A7A9AC"/>
<path d="M58.4941 54.8993H61.1173C61.0025 54.5561 60.9381 54.1971 60.9381 53.8255C60.9381 52.1463 62.1865 50.6955 63.9956 50.0131C63.2894 49.7469 62.4979 49.5979 61.6623 49.5979C59.372 49.5979 57.4162 50.7187 56.6357 52.2993C57.6296 52.9389 58.3144 53.8579 58.4941 54.8993Z" fill="#8A8C8E"/>
<path d="M49.9009 54.8993H58.6443C58.3033 52.8224 56.042 51.2168 53.3005 51.2168C50.4756 51.2168 48.1591 52.9227 47.9307 55.0924C48.5725 54.966 49.2324 54.8993 49.9009 54.8993Z" fill="#A7A9AC"/>
<path d="M49.9009 54.8993H52.6511C52.8882 53.4596 54.0456 52.2466 55.6477 51.6378C54.938 51.3681 54.1418 51.2168 53.3005 51.2168C50.4756 51.2168 48.1591 52.9227 47.9307 55.0924C48.5725 54.966 49.2324 54.8993 49.9009 54.8993Z" fill="#8A8C8E"/>
<path d="M29.458 55.1133C29.2417 52.9331 26.9207 51.2168 24.0864 51.2168C21.2522 51.2168 18.9305 52.9331 18.7148 55.1133H29.458Z" fill="#A7A9AC"/>
<path d="M22.4188 55.1133C22.5852 53.4341 24.0018 52.0297 25.9396 51.4737C25.3615 51.3073 24.7376 51.2168 24.0864 51.2168C21.2522 51.2168 18.9305 52.9331 18.7148 55.1133H22.4188Z" fill="#8A8C8E"/>
<path d="M13.6088 37.3008C13.3966 37.0683 13.1542 36.859 12.8811 36.6839C11.6432 35.8872 10.0585 35.9127 8.84546 36.7482C8.82981 36.7593 8.81705 36.7732 8.80719 36.7888C8.79734 36.8039 8.79038 36.8219 8.7869 36.8404C8.54685 38.301 9.19162 39.7593 10.4301 40.5549C11.3927 41.1741 12.5645 41.2941 13.6088 40.9248V37.3008Z" fill="#99CE19"/>
<path d="M11.1109 36.8397C11.1144 36.8218 11.1207 36.8038 11.1312 36.7881C11.141 36.7731 11.1538 36.7591 11.1694 36.7481C11.4536 36.5521 11.758 36.4031 12.074 36.2964C11.0024 35.9346 9.80741 36.0854 8.84546 36.7481C8.82981 36.7591 8.81705 36.7731 8.80719 36.7881C8.79734 36.8038 8.79038 36.8218 8.7869 36.8397C8.54685 38.3009 9.19162 39.7592 10.4301 40.5547C11.3788 41.1647 12.5291 41.2905 13.5613 40.9415C13.2818 40.847 13.0104 40.7194 12.7541 40.5547C11.515 39.7592 10.8702 38.3009 11.1109 36.8397Z" fill="#81AA00"/>
<path d="M13.6088 47.5627C13.3966 47.3302 13.1542 47.1209 12.8811 46.9458C11.6432 46.1491 10.0585 46.1752 8.84546 47.0101C8.82981 47.0211 8.81705 47.0345 8.80719 47.0501C8.79734 47.0664 8.79038 47.0838 8.7869 47.1023C8.54685 48.5629 9.19162 50.0212 10.4301 50.8167C11.3927 51.436 12.5645 51.556 13.6088 51.1867V47.5627Z" fill="#99CE19"/>
<path d="M12.7541 50.8167C11.515 50.0211 10.8708 48.5623 11.1109 47.1023C11.1144 47.0837 11.1207 47.0663 11.1312 47.0501C11.141 47.0344 11.1538 47.0211 11.1694 47.0101C11.4536 46.8147 11.758 46.6651 12.074 46.5584C11.0024 46.1966 9.80741 46.3479 8.84546 47.0101C8.82981 47.0205 8.81705 47.0344 8.80719 47.0501C8.79734 47.0657 8.79038 47.0837 8.7869 47.1023C8.54685 48.5623 9.19162 50.0211 10.4301 50.8167C11.3788 51.4261 12.5291 51.5525 13.5618 51.2034C13.2818 51.1089 13.0104 50.9813 12.7541 50.8167Z" fill="#81AA00"/>
<path d="M14.6428 45.4879C14.6335 45.4722 14.6259 45.4549 14.623 45.4357C14.3824 43.9757 15.0272 42.5174 16.2657 41.7213C17.5042 40.9252 19.0883 40.9507 20.3014 41.7857C20.317 41.7961 20.3298 41.8106 20.3396 41.8257C20.3495 41.8419 20.3564 41.8593 20.3599 41.8778C20.6 43.3385 19.9552 44.7967 18.7167 45.5923C17.4787 46.3884 15.894 46.3629 14.681 45.5279C14.666 45.5169 14.6532 45.5036 14.6428 45.4879Z" fill="#99CE19"/>
<path d="M15.643 30.0366C15.6354 29.3616 15.4464 28.6879 15.0701 28.0935C14.2798 26.8452 12.8325 26.1957 11.3829 26.4375C11.3644 26.441 11.347 26.448 11.3313 26.4578C11.3157 26.4677 11.3023 26.481 11.2913 26.4967C10.4622 27.719 10.4366 29.3152 11.227 30.5631C11.9831 31.7564 13.3399 32.4006 14.7251 32.2423C14.7674 31.4212 15.0933 30.6419 15.643 30.0366Z" fill="#99CE19"/>
<path d="M14.6428 33.0803C14.6335 33.0646 14.6259 33.0466 14.623 33.0281C14.3824 31.5669 15.0272 30.1092 16.2657 29.3137C17.5042 28.517 19.0883 28.5431 20.3014 29.378C20.317 29.3891 20.3298 29.4024 20.3396 29.418C20.3495 29.4337 20.3564 29.4517 20.3599 29.4702C20.6 30.9308 19.9552 32.3891 18.7167 33.1846C17.4787 33.9808 15.894 33.9552 14.681 33.1203C14.666 33.1093 14.6532 33.0959 14.6428 33.0803Z" fill="#99CE19"/>
<path d="M16.2665 41.7214C16.0549 41.8571 15.8624 42.0136 15.6873 42.1847V33.6043C16.4074 33.8235 17.1792 33.8148 17.8964 33.5759C17.5769 33.4686 17.2679 33.3178 16.9803 33.1201C16.9646 33.1091 16.9519 33.0958 16.942 33.0801C16.9322 33.0645 16.9252 33.0465 16.9217 33.0279C16.6817 31.5667 17.3264 30.109 18.5644 29.3135C18.8253 29.1459 19.1013 29.0172 19.386 28.9221C18.3568 28.5783 17.2111 28.7058 16.2665 29.3135C15.4159 29.8597 14.8453 30.719 14.6493 31.6763C14.2162 31.3951 13.8387 31.0194 13.55 30.5631C12.8049 29.3866 12.7852 27.901 13.4804 26.7101C12.8368 26.4196 12.1103 26.3164 11.3826 26.4375C11.364 26.441 11.3466 26.448 11.331 26.4578C11.3159 26.4677 11.302 26.481 11.2915 26.4967C10.4618 27.719 10.4369 29.3153 11.2272 30.5631C11.7479 31.3858 12.5556 31.946 13.4601 32.1646V55.1132H15.6867V46.0122C16.4068 46.2319 17.1786 46.2232 17.8958 45.9837C17.5763 45.8771 17.2673 45.7263 16.9797 45.5286C16.9646 45.5176 16.9519 45.5036 16.9414 45.488C16.9316 45.4729 16.9246 45.4549 16.9217 45.4364C16.6811 43.9758 17.3259 42.5175 18.5644 41.7214C18.8247 41.5538 19.1007 41.4251 19.3854 41.33C18.3568 40.9862 17.2111 41.1137 16.2665 41.7214Z" fill="#81AA00"/>
<path d="M43.8005 56.9028C41.8835 55.6758 39.61 54.965 37.1695 54.965H5.34473V60.5586H40.696L40.7378 60.4792C41.4916 59.0371 42.5463 57.8253 43.8005 56.9028Z" fill="#EAC092"/>
<path d="M5.49316 54.965H10.6282V60.5592H5.49316V54.965Z" fill="#E0AA68"/>
<path d="M49.9013 54.7509C45.806 54.7509 42.2603 57.1137 40.5283 60.5585H70.6559V54.7509H49.9013Z" fill="#E0AA68"/>
<path d="M45.2563 60.5585C46.9883 57.1137 50.5339 54.7509 54.6293 54.7509H49.9013C45.806 54.7509 42.2603 57.1137 40.5283 60.5585H45.2563Z" fill="#B57A4E"/>
<path d="M35.8391 32.1137C38.2518 32.1137 40.5317 32.8147 42.4005 34.0857L45.1083 28.6288C45.164 28.5175 45.1582 28.3853 45.0927 28.2792C45.0277 28.1731 44.9129 28.1082 44.7889 28.1082H37.8929C35.2732 28.1082 33.0901 30.0268 32.6523 32.5421C33.6694 32.2627 34.7415 32.1137 35.8391 32.1137Z" fill="#F39600"/>
<path d="M35.8395 32.1137C35.9932 32.1137 36.1462 32.12 36.2987 32.1258C36.8931 29.8175 38.9776 28.1082 41.4511 28.1082H37.8933C35.2736 28.1082 33.0911 30.0268 32.6533 32.5422C33.6698 32.2627 34.7419 32.1137 35.8395 32.1137Z" fill="#FF812C"/>
<path d="M35.8392 43.807C34.6494 43.807 33.4903 43.6319 32.3984 43.3055C33.8202 45.2003 36.3819 47.4843 40.4726 47.4843C40.7451 47.4843 40.9661 47.2617 40.9661 46.9868V42.6589C39.4127 43.404 37.6645 43.807 35.8392 43.807Z" fill="#FFCB00"/>
<path d="M51.0036 37.9607C51.3712 36.3731 51.8809 34.9392 52.5192 33.6978C52.5645 33.6102 52.5662 33.5076 52.5245 33.4183C52.4827 33.3301 52.4021 33.2664 52.307 33.2461C51.7707 33.1336 51.2233 33.0762 50.68 33.0762C48.3189 33.0762 46.1243 34.1384 44.6468 35.9C42.6203 33.5087 39.4301 31.9652 35.8397 31.9652C31.2997 31.9652 27.3985 34.4318 25.6816 37.9607C27.3979 41.4901 31.2997 43.9556 35.8397 43.9556C39.4301 43.9556 42.6203 42.4127 44.6468 40.0214C46.1243 41.783 48.3184 42.8452 50.68 42.8452C51.2239 42.8452 51.7713 42.7878 52.307 42.6753C52.4021 42.655 52.4827 42.5912 52.5245 42.5025C52.5662 42.4138 52.5645 42.3106 52.5192 42.2236C51.8809 40.9822 51.3712 39.5483 51.0036 37.9607Z" fill="#FFCB00"/>
<path d="M52.5191 42.2235C52.261 41.7214 52.0256 41.1874 51.8099 40.6249C51.7931 40.6249 51.7757 40.6267 51.7583 40.6267C49.41 40.6267 47.1921 39.5882 45.6741 37.7774C45.5118 37.5843 45.2735 37.473 45.0218 37.4718C45.0212 37.4718 45.0201 37.4718 45.0195 37.4718C44.7684 37.4718 44.5301 37.5826 44.3678 37.7739C42.2154 40.313 38.973 41.7945 35.4389 41.8635C35.2232 42.8127 34.9153 43.5473 34.5146 43.8836C34.9489 43.9306 35.3908 43.9555 35.8396 43.9555C39.4299 43.9555 42.6201 42.412 44.6467 40.0213C46.1241 41.7829 48.3182 42.8451 50.6798 42.8451C51.2237 42.8451 51.7711 42.7877 52.3068 42.6747C52.4019 42.6544 52.4825 42.5906 52.5243 42.5019C52.566 42.4137 52.5643 42.3105 52.5191 42.2235Z" fill="#F39600"/>
<path d="M34.5148 32.0371C30.5505 32.4639 27.2292 34.7803 25.6816 37.9607C27.2292 41.1411 30.5505 43.4575 34.5148 43.8837C36.2508 42.4272 36.2508 33.4942 34.5148 32.0371Z" fill="#FFFA94"/>
<path d="M26.8036 36.1787C26.3658 36.733 25.9884 37.3297 25.6816 37.9605C27.2292 41.1409 30.5505 43.4574 34.5148 43.8835C34.9178 43.5455 35.2269 42.8027 35.4426 41.8454C31.6122 41.4117 28.3912 39.213 26.8036 36.1787Z" fill="#E8DD52"/>
<path d="M31.9346 37.936C31.6423 37.936 31.3542 37.8172 31.146 37.6113C30.9396 37.4032 30.8213 37.1167 30.8213 36.8228C30.8213 36.5305 30.9402 36.2441 31.146 36.0359C31.3542 35.8283 31.6406 35.7095 31.9346 35.7095C32.2268 35.7095 32.515 35.8283 32.7214 36.0359C32.929 36.2441 33.0479 36.5305 33.0479 36.8228C33.0479 37.1167 32.929 37.4032 32.7214 37.6113C32.5132 37.8172 32.2268 37.936 31.9346 37.936Z" fill="#CE7A00"/>
<path d="M27.1436 31.6885C26.8496 31.6885 26.5631 31.5696 26.3567 31.362C26.1491 31.1556 26.0303 30.8674 26.0303 30.5752C26.0303 30.2812 26.1491 29.9948 26.3567 29.7872C26.5631 29.5808 26.8496 29.4619 27.1436 29.4619C27.4358 29.4619 27.7222 29.5808 27.9304 29.7872C28.138 29.9948 28.2568 30.2812 28.2568 30.5752C28.2568 30.8674 28.138 31.1556 27.9304 31.362C27.7228 31.5696 27.4358 31.6885 27.1436 31.6885Z" fill="white"/>
<path d="M24.2529 27.4048C23.959 27.4048 23.6725 27.2859 23.4644 27.0783C23.2579 26.8708 23.1396 26.5837 23.1396 26.2915C23.1396 25.9975 23.2585 25.7111 23.4644 25.5047C23.6725 25.2971 23.959 25.1782 24.2529 25.1782C24.5452 25.1782 24.8333 25.2971 25.0398 25.5047C25.2473 25.7111 25.3662 25.9975 25.3662 26.2915C25.3662 26.5837 25.2473 26.8702 25.0398 27.0783C24.8316 27.2859 24.5452 27.4048 24.2529 27.4048Z" fill="#DEF9FF"/>
<path d="M28.5391 24.8857C28.2462 24.8857 27.9586 24.7669 27.7522 24.5587C27.5441 24.3511 27.4258 24.0647 27.4258 23.7725C27.4258 23.4785 27.5441 23.192 27.7522 22.9839C27.9586 22.7775 28.2462 22.6592 28.5391 22.6592C28.8325 22.6592 29.1195 22.7775 29.3253 22.9839C29.5335 23.1915 29.6523 23.4785 29.6523 23.7725C29.6523 24.0647 29.5335 24.3511 29.3253 24.5587C29.1195 24.7669 28.8325 24.8857 28.5391 24.8857Z" fill="white"/>
<path d="M24.6094 21.55C24.3171 21.55 24.0307 21.4312 23.8225 21.2236C23.6161 21.0172 23.4961 20.7296 23.4961 20.4368C23.4961 20.1445 23.6167 19.8564 23.8225 19.6499C24.0307 19.4424 24.3171 19.3235 24.6094 19.3235C24.9034 19.3235 25.1898 19.4424 25.3979 19.6499C25.6044 19.8564 25.7244 20.1445 25.7244 20.4368C25.7244 20.7296 25.6038 21.0154 25.3979 21.2236C25.1898 21.4318 24.9034 21.55 24.6094 21.55Z" fill="#DEF9FF"/>
<path d="M74.3303 60.5584V7.73267C74.3303 7.47986 74.1233 7.27344 73.871 7.27344H70.9661C70.7138 7.27344 70.5068 7.47986 70.5068 7.73267V60.5584H74.3303Z" fill="#8A8C8E"/>
<path d="M72.4307 60.5584V7.73267C72.4307 7.47986 72.6372 7.27344 72.8894 7.27344H70.9661C70.7133 7.27344 70.5068 7.47986 70.5068 7.73267V60.5584H72.4307Z" fill="#6D6E71"/>
<path d="M5.49277 60.5584V7.73267C5.49277 7.47986 5.28635 7.27344 5.03412 7.27344H2.12857C1.87634 7.27344 1.66992 7.47986 1.66992 7.73267V60.5584H5.49277Z" fill="#8A8C8E"/>
<path d="M3.59381 60.5584V7.73267C3.59381 7.47986 3.80023 7.27344 4.05246 7.27344H2.12857C1.87634 7.27344 1.66992 7.47986 1.66992 7.73267V60.5584H3.59381Z" fill="#6D6E71"/>
<path d="M76 67.9322C76 68.3532 75.6562 68.697 75.2358 68.697H0.764221C0.343842 68.697 0 68.3532 0 67.9322V61.1754C0 60.7545 0.343842 60.41 0.764221 60.41H75.2358C75.6562 60.41 76 60.7545 76 61.1754V67.9322Z" fill="#C7C8CA"/>
<path d="M6.95743 67.9322V61.1754C6.95743 60.7545 7.30185 60.41 7.72223 60.41H0.764221C0.343842 60.41 0 60.7545 0 61.1754V67.9322C0 68.3532 0.343842 68.697 0.764221 68.697H7.72223C7.30185 68.697 6.95743 68.3532 6.95743 67.9322Z" fill="#A7A9AC"/>
</g>
<defs>
<clipPath id="clip0">
<rect width="76" height="76" fill="white"/>
</clipPath>
</defs>
</svg>
