<svg width="71" height="70" viewBox="0 0 71 70" fill="none" xmlns="http://www.w3.org/2000/svg">
<g clip-path="url(#clip0)">
<path d="M25.876 37.971L12.6515 42.1872L10.4329 35.2282C9.73426 33.037 10.9611 30.6891 13.1722 29.9841L18.3879 28.3213C20.5994 27.6162 22.9588 28.8208 23.6574 31.0121L25.876 37.971Z" fill="#4A696F"/>
<path d="M57.6803 27.8313L44.4562 32.0473L42.2376 25.0884C41.539 22.8971 42.7658 20.5492 44.9773 19.8441L50.193 18.1813C52.4041 17.4763 54.7635 18.6809 55.4621 20.8722L57.6807 27.8311L57.6803 27.8313Z" fill="#4A696F"/>
<path d="M34.9855 35.3531C33.9377 35.6872 32.8199 35.1163 32.4889 34.0781L27.841 19.4995C26.0273 13.8106 29.2232 7.69318 34.9647 5.86267C37.7462 4.97591 40.7029 5.2156 43.291 6.53698C44.2659 7.03484 44.6453 8.22505 44.1386 9.19569C43.6318 10.1659 42.4302 10.549 41.4553 10.0512C39.8107 9.21099 37.9313 9.05884 36.1634 9.62247C32.5141 10.7859 30.4828 14.674 31.6356 18.2898L36.2835 32.8683C36.6145 33.9065 36.0333 35.0191 34.9855 35.3531Z" fill="#3E5959"/>
<path d="M28.3298 21.0315L32.4893 34.0782C32.8203 35.1164 33.9382 35.6873 34.9859 35.3532C36.0337 35.0192 36.6149 33.9066 36.2839 32.8684L32.0875 19.7059C30.6017 20.0601 29.3493 20.5398 28.3298 21.0315Z" fill="#4A696F"/>
<path d="M62.0671 29.8985C61.1048 28.3951 53.1734 18.6757 31.9517 25.4415C10.7305 32.2071 10.1854 44.629 10.2709 46.412C10.6218 53.7029 17.2399 67.0993 24.5938 66.8617C33.352 66.5785 35.2845 59.0034 35.2845 59.0034C35.5872 58.2609 37.0632 52.4172 40.3787 51.3601C43.6946 50.303 48.2806 54.2141 48.9572 54.6444C48.9572 54.6444 54.9176 59.7031 62.2235 54.8647C68.3579 50.802 66.0009 36.0471 62.0671 29.8985Z" fill="#4D5A65"/>
<path d="M10.2706 46.4117C10.6215 53.7027 17.2396 67.0991 24.5935 66.8615C27.5998 66.7642 29.8013 65.8081 31.3972 64.5942C30.2747 60.4093 28.2655 57.6913 22.8446 49.704C15.5081 38.8943 19.6717 31.2704 19.6717 31.2704C10.4995 37.7141 10.206 45.071 10.2706 46.4117Z" fill="#3E5959"/>
<path d="M53.7803 34.1058C54.2114 35.4581 53.4543 36.9076 52.089 37.3429C50.7241 37.7781 49.2677 37.0343 48.8366 35.6819C48.4053 34.3292 49.1625 32.8797 50.5273 32.4445C51.8926 32.0093 53.349 32.753 53.7803 34.1058Z" fill="#E94B67"/>
<path d="M56.6571 43.1298C57.0883 44.4822 56.3311 45.9317 54.9658 46.3669C53.601 46.8021 52.1445 46.0583 51.7134 44.7059C51.2821 43.3532 52.0394 41.9041 53.4043 41.469C54.7696 41.0337 56.2258 41.7771 56.6571 43.1298Z" fill="#73DA8C"/>
<path d="M59.7724 37.1658C60.2035 38.5182 59.4463 39.9677 58.0811 40.4029C56.7162 40.8381 55.2598 40.0943 54.8286 38.742C54.3973 37.3892 55.1546 35.9401 56.5195 35.505C57.8848 35.0697 59.3411 35.8131 59.7724 37.1658Z" fill="#588FEF"/>
<path d="M50.6649 40.0694C51.0961 41.4217 50.3389 42.8712 48.9736 43.3065C47.6088 43.7416 46.1524 42.9979 45.7212 41.6455C45.2899 40.2928 46.0472 38.8437 47.4121 38.4085C48.7774 37.9733 50.2337 38.7166 50.6649 40.0694Z" fill="#FFC10E"/>
<path d="M26.0685 45.6069L25.0985 45.9161C24.5286 46.0978 23.9207 45.7873 23.7406 45.2227L23.4342 44.2616C23.0726 43.1274 21.8748 42.4452 20.7177 42.7696C19.5034 43.1101 18.8199 44.3771 19.1963 45.5576L19.5186 46.5687C19.6986 47.1334 19.3826 47.7385 18.8127 47.9202L17.8427 48.2294C16.6984 48.5942 16.0046 49.7867 16.3254 50.9334C16.6619 52.1369 17.9343 52.8082 19.1258 52.4284L20.1467 52.1029C20.7165 51.9212 21.3246 52.2321 21.5047 52.7967L21.8109 53.7575C22.1725 54.8916 23.3703 55.5739 24.5274 55.2494C25.7418 54.9089 26.4253 53.642 26.049 52.4618L25.7265 51.4503C25.5465 50.8856 25.8626 50.2806 26.4325 50.0989L27.453 49.7735C28.6444 49.3937 29.2933 48.1093 28.8712 46.9332C28.4692 45.8128 27.2132 45.2419 26.0685 45.6069Z" fill="#588FEF"/>
<path d="M40.447 47.7239L37.692 48.6022C36.8514 48.8702 35.9552 48.4121 35.6896 47.5793C35.4242 46.7468 35.8904 45.8544 36.7306 45.5865L39.4855 44.7082C40.3261 44.4402 41.2224 44.8983 41.4878 45.7307C41.7537 46.5635 41.2876 47.4559 40.447 47.7239Z" fill="#4A696F"/>
<path d="M38.6511 42.0903L35.8961 42.9687C35.0555 43.2366 34.1593 42.7786 33.8939 41.9461C33.6283 41.1133 34.0945 40.2209 34.9347 39.953L37.6897 39.0747C38.5302 38.8067 39.4265 39.2647 39.692 40.0976C39.9578 40.9299 39.4917 41.8223 38.6511 42.0903Z" fill="#4A696F"/>
<path d="M28.9715 36.2856C28.6637 35.32 27.4221 34.8535 26.198 35.2437C24.9744 35.6338 24.232 36.7329 24.5398 37.6985C24.8477 38.664 26.0893 39.1306 27.3129 38.7405C28.5369 38.3503 29.2793 37.2512 28.9715 36.2856Z" fill="#FC9AAB"/>
<path d="M45.3875 31.052C45.0797 30.0864 43.8381 29.6198 42.6141 30.0101C41.3904 30.4002 40.648 31.4993 40.9559 32.4648C41.2637 33.4304 42.5053 33.897 43.7289 33.5069C44.9529 33.1166 45.6953 32.0175 45.3875 31.052Z" fill="#FC9AAB"/>
</g>
<defs>
<clipPath id="clip0">
<rect width="56" height="55.4862" fill="white" transform="translate(0 17.0101) rotate(-17.6831)"/>
</clipPath>
</defs>
</svg>
