<svg width="82" height="82" viewBox="0 0 82 82" fill="none" xmlns="http://www.w3.org/2000/svg">
<path d="M2.66684 31.1292C3.24118 16.2964 15.7364 4.73689 30.5774 5.31076C45.4182 5.88478 56.9845 18.3752 56.41 33.2079C56.0528 42.4311 51.0847 50.391 43.8066 54.9548C25.6412 66.3648 1.83261 52.672 2.66684 31.1292Z" fill="#5AAAE7"/>
<path d="M36.1509 58.3137C18.9863 62.447 1.95978 49.2412 2.66679 31.1461C3.3387 13.9469 19.7327 2.09341 36.1442 6.05731C24.5347 8.83992 15.9311 18.9831 15.4565 31.1462C14.9482 44.16 23.8579 55.3704 36.1509 58.3137Z" fill="#3D9AE2"/>
<path d="M33.505 6.62715C26.5858 8.88103 20.8656 13.838 17.6743 20.2795L14.3803 19.146C12.7556 18.5851 11.926 16.8004 12.5537 15.2142C13.063 13.9223 11.3018 18.3902 14.8573 9.36971C20.4447 5.91302 26.8259 4.69365 33.0099 5.55767L33.0117 5.56095L33.505 6.62715Z" fill="#7ED63E"/>
<path d="M26.4519 56.5506C26.4469 57.9408 25.7418 58.24 24.8886 59.0753C13.1034 56.8028 3.13941 46.7121 2.64551 33.2075C5.20351 33.3269 7.58343 33.6697 10.1763 29.7734C10.8981 28.6875 11.254 27.2906 12.3401 26.4418C13.4162 25.6014 14.3325 25.4148 15.6714 25.6854C18.3258 26.2233 20.9452 28.0403 22.1827 30.5012C22.9644 32.056 23.7361 34.9573 23.2338 36.6568C22.8829 37.8486 22.1745 38.8942 21.6255 39.9935C20.1203 43.0142 19.1922 47.166 21.5058 49.9126C22.6185 51.2339 24.127 52.1684 25.2262 53.4997C25.9147 54.3302 26.4553 55.4479 26.4519 56.5506Z" fill="#7ED63E"/>
<path d="M21.7175 30.9422C20.5587 28.7354 18.1865 27.0711 15.7096 26.4517C15.3167 28.0662 15.0779 29.7386 15.0099 31.4511C14.7696 37.4552 16.6363 43.0662 19.9734 47.6129C19.1627 45.1911 19.9867 42.2669 21.1621 40.0054C21.7092 38.9558 22.4154 37.9575 22.7653 36.8196C23.2659 35.1969 22.4967 32.4268 21.7175 30.9422Z" fill="#91DC5A"/>
<path d="M51.301 55.6429C51.2996 55.6429 51.298 55.6429 51.2964 55.6429C50.46 55.6407 49.7836 55.0846 49.7861 54.4004C49.8166 46.0271 58.1707 39.215 68.4091 39.215H75.3102C77.3288 39.215 78.9709 37.872 78.9709 36.2213C78.9709 34.5706 77.3286 33.2275 75.3102 33.2275H58.269C57.4324 33.2275 56.7541 32.673 56.7541 31.9888C56.7541 31.3045 57.4322 30.75 58.269 30.75H75.3102C78.9993 30.75 82.0004 33.2044 82.0004 36.2214C82.0004 39.2385 78.9993 41.6929 75.3102 41.6929H68.4091C59.8364 41.6929 52.8412 47.3969 52.8157 54.408C52.8133 55.0908 52.1357 55.6429 51.301 55.6429Z" fill="#D8D8D8"/>
<path d="M55.6426 29.2858H58.3459C59.2789 29.2858 60.0354 30.4778 60.0354 31.9481V32.4806C60.0354 33.9509 59.2789 35.1429 58.3459 35.1429H55.6426V29.2858Z" fill="#A5A5A5"/>
<path d="M59.1634 59.6962H55.425C54.7517 59.6962 54.2061 59.1506 54.2061 58.4771V56.8517C54.2061 55.7314 55.1175 54.8199 56.2378 54.8199H58.3507C59.471 54.8199 60.3825 55.7314 60.3825 56.8517V58.4771C60.3825 59.1506 59.8367 59.6962 59.1634 59.6962ZM58.3507 57.2582H58.3523H58.3507Z" fill="#5C666D"/>
<path d="M48.3991 28.9018L44.5764 43.0887C44.0041 45.209 42.5148 46.9694 40.5081 47.8975L33.9521 50.923C32.2667 51.7014 30.3978 50.2666 30.7363 48.454L32.1393 40.9674C32.6132 38.4388 32.5268 35.8386 31.8868 33.3462C31.6259 32.8247 30.8776 24.9585 22.7166 22.1475L14.3995 19.2811C12.7605 18.7145 11.9224 16.9122 12.5551 15.3104L14.8803 9.40697C20.2991 6.03123 26.7599 4.66182 33.2014 5.55815L34.0372 7.36231C34.699 8.7918 34.0463 10.4793 32.5906 11.1061L30.4075 12.042C28.6039 12.8179 28.0427 15.0823 29.2796 16.5978C29.9156 17.1674 33.6303 23.5055 42.3896 24.8713L46.138 25.4559C47.7729 25.7118 48.8259 27.3146 48.3991 28.9018Z" fill="#91DC5A"/>
<path d="M45.4753 58.4584C45.4753 60.1144 45.0928 61.6825 44.4124 63.0817C46.1472 63.3447 47.4807 64.8386 47.4807 66.6366C47.4807 66.8831 47.4556 67.1238 47.4078 67.3564H55.0922C55.0444 67.1238 55.0193 66.8831 55.0193 66.6366C55.0193 64.8386 56.3528 63.3446 58.0876 63.0817C57.4073 61.6825 57.0247 60.1144 57.0247 58.4584C57.0247 53.7299 60.1361 49.7128 64.4284 48.3207H38.0713C42.3639 49.7128 45.4753 53.7299 45.4753 58.4584Z" fill="#838383"/>
<path d="M47.1611 48.6163L48.2724 52.0983C48.431 52.5954 48.8929 52.9328 49.4146 52.9328H53.179C53.7008 52.9328 54.1627 52.5954 54.3212 52.0983L55.4324 48.6163H47.1611Z" fill="white"/>
<path d="M50.967 52.0983L49.8557 48.6163H47.1611L48.2724 52.0983C48.431 52.5954 48.8929 52.9328 49.4146 52.9328H52.1092C51.5874 52.9328 51.1256 52.5954 50.967 52.0983Z" fill="#EAF6FF"/>
<path d="M52.8537 61.1247H49.9246C49.3666 61.1247 48.9141 60.6723 48.9141 60.1142C48.9141 59.556 49.3664 59.1036 49.9246 59.1036H52.8537C53.4117 59.1036 53.8642 59.556 53.8642 60.1142C53.8642 60.6723 53.4117 61.1247 52.8537 61.1247Z" fill="#00F2A6"/>
<path d="M35.5788 69.0039C29.9131 69.0039 25.3036 64.3944 25.3036 58.7287C25.3036 58.6239 25.3085 58.5204 25.3116 58.4164L25.1729 58.4299V73.2677C25.1729 76.5034 27.7959 79.1265 31.0316 79.1265C33.2914 79.1265 35.3497 77.8268 36.3214 75.7866L40.0359 67.986C38.6869 68.638 37.1749 69.0039 35.5788 69.0039Z" fill="#9C9C9C"/>
<path d="M29.2146 73.2658V66.957C26.7569 65.0537 25.1729 62.0761 25.1729 58.7269V73.2658C25.1729 76.5016 27.7959 79.1246 31.0316 79.1246C31.7327 79.1246 32.4142 78.9991 33.0501 78.7656C30.8114 77.9417 29.2146 75.7903 29.2146 73.2658Z" fill="#838383"/>
<path d="M40.8453 66.6084C40.8453 64.6974 42.4 63.1427 44.311 63.1427C44.5374 63.1427 44.7585 63.1652 44.9729 63.2068C45.6211 61.8498 45.9848 60.3308 45.9848 58.7267C45.9848 52.9796 41.326 48.3207 35.5788 48.3207C29.8317 48.3207 25.1729 52.9796 25.1729 58.7267C25.1729 64.4738 29.8317 69.1327 35.5788 69.1327C37.5628 69.1327 39.4167 68.577 40.9944 67.6135C40.8979 67.2952 40.8453 66.9578 40.8453 66.6084Z" fill="#ACACAC"/>
<path d="M35.58 65.4078C39.269 65.4078 42.2595 62.4173 42.2595 58.7283C42.2595 55.0392 39.269 52.0487 35.58 52.0487C31.8909 52.0487 28.9004 55.0392 28.9004 58.7283C28.9004 62.4173 31.8909 65.4078 35.58 65.4078Z" fill="#9C9C9C"/>
<path d="M31.595 58.7281C31.595 55.5006 33.8841 52.8078 36.9272 52.1846C36.4921 52.0955 36.0415 52.0487 35.58 52.0487C31.8909 52.0487 28.9004 55.0392 28.9004 58.7283C28.9004 62.4173 31.8909 65.4078 35.58 65.4078C36.0415 65.4078 36.492 65.361 36.9272 65.2719C33.8841 64.6485 31.595 61.9558 31.595 58.7281Z" fill="#838383"/>
<path d="M44.3113 70.2046C46.2975 70.2046 47.9077 68.5944 47.9077 66.6081C47.9077 64.6219 46.2975 63.0117 44.3113 63.0117C42.325 63.0117 40.7148 64.6219 40.7148 66.6081C40.7148 68.5944 42.325 70.2046 44.3113 70.2046Z" fill="#0593FC"/>
<path d="M43.6386 66.6081C43.6386 65.1426 44.5157 63.8827 45.7731 63.3223C45.3264 63.1233 44.8319 63.0117 44.3113 63.0117C42.325 63.0117 40.7148 64.6219 40.7148 66.6081C40.7148 68.5944 42.325 70.2046 44.3113 70.2046C44.832 70.2046 45.3264 70.093 45.7731 69.894C44.5157 69.3336 43.6386 68.0737 43.6386 66.6081Z" fill="#0182FC"/>
<path d="M38.4115 57.7177H36.5892V55.8954C36.5892 55.3373 36.1369 54.8849 35.5787 54.8849C35.0205 54.8849 34.5682 55.3373 34.5682 55.8954V57.7177H32.7459C32.1878 57.7177 31.7354 58.1701 31.7354 58.7282C31.7354 59.2864 32.1877 59.7388 32.7459 59.7388H34.5682V61.5611C34.5682 62.1192 35.0205 62.5716 35.5787 62.5716C36.1369 62.5716 36.5892 62.1192 36.5892 61.5611V59.7388H38.4115C38.9695 59.7388 39.422 59.2864 39.422 58.7282C39.422 58.1701 38.9697 57.7177 38.4115 57.7177Z" fill="#5A5A5A"/>
<path d="M77.4702 58.973C77.3389 64.5255 72.7846 69.0028 67.2012 69.0028C65.6052 69.0028 64.0931 68.6368 62.7441 67.9848L66.4587 75.7854C67.4302 77.8257 69.4886 79.1252 71.7483 79.1252C74.9841 79.1252 77.6071 76.5022 77.6071 73.2664V58.99L77.4702 58.973Z" fill="#9C9C9C"/>
<path d="M70.5009 75.7849L67.3319 69.1298C67.2883 69.1304 67.2454 69.1331 67.2017 69.1331C65.6413 69.1331 64.1624 68.7873 62.834 68.1719L66.4592 75.7848C67.4307 77.8251 69.4891 79.1248 71.7489 79.1248C72.4601 79.1248 73.1416 78.9979 73.7724 78.7658C72.3584 78.2467 71.171 77.1923 70.5009 75.7849Z" fill="#838383"/>
<path d="M67.2009 48.3207C61.4538 48.3207 56.7949 52.9796 56.7949 58.7267C56.7949 60.3308 57.1586 61.8498 57.8069 63.2068C58.0212 63.1652 58.2424 63.1427 58.4688 63.1427C60.3797 63.1427 61.9344 64.6974 61.9344 66.6084C61.9344 66.9578 61.882 67.2952 61.7852 67.6135C63.3629 68.577 65.2169 69.1327 67.2008 69.1327C72.9479 69.1327 77.6068 64.4738 77.6068 58.7267C77.6068 52.9796 72.948 48.3207 67.2009 48.3207Z" fill="#ACACAC"/>
<path d="M60.8368 58.7267C60.8368 53.6713 64.4424 49.4594 69.2219 48.5185C68.568 48.3899 67.8926 48.3207 67.2009 48.3207C61.4538 48.3207 56.7949 52.9796 56.7949 58.7267C56.7949 60.3308 57.1586 61.8498 57.8069 63.2068C58.0212 63.1652 58.2424 63.1427 58.4688 63.1427C60.3797 63.1427 61.9344 64.6974 61.9344 66.6084C61.9344 66.9578 61.882 67.2952 61.7852 67.6135C63.3629 68.577 65.2169 69.1327 67.2008 69.1327C67.8925 69.1327 68.5678 69.0636 69.2217 68.9349C64.4423 67.9938 60.8368 63.7821 60.8368 58.7267Z" fill="#9C9C9C"/>
<path d="M62.0364 60.6536C63.1007 60.6536 63.9634 59.7909 63.9634 58.7266C63.9634 57.6623 63.1007 56.7996 62.0364 56.7996C60.9721 56.7996 60.1094 57.6623 60.1094 58.7266C60.1094 59.7909 60.9721 60.6536 62.0364 60.6536Z" fill="#FED402"/>
<path d="M72.3645 60.6536C73.4288 60.6536 74.2916 59.7909 74.2916 58.7266C74.2916 57.6623 73.4288 56.7996 72.3645 56.7996C71.3003 56.7996 70.4375 57.6623 70.4375 58.7266C70.4375 59.7909 71.3003 60.6536 72.3645 60.6536Z" fill="#6CF5C2"/>
<path d="M67.2005 55.4885C68.2648 55.4885 69.1275 54.6257 69.1275 53.5614C69.1275 52.4972 68.2648 51.6344 67.2005 51.6344C66.1362 51.6344 65.2734 52.4972 65.2734 53.5614C65.2734 54.6257 66.1362 55.4885 67.2005 55.4885Z" fill="#FE646F"/>
<path d="M67.2005 65.8171C68.2648 65.8171 69.1275 64.9543 69.1275 63.8901C69.1275 62.8258 68.2648 61.963 67.2005 61.963C66.1362 61.963 65.2734 62.8258 65.2734 63.8901C65.2734 64.9543 66.1362 65.8171 67.2005 65.8171Z" fill="#0593FC"/>
<path d="M58.4695 70.2046C60.4557 70.2046 62.0659 68.5944 62.0659 66.6081C62.0659 64.6219 60.4557 63.0117 58.4695 63.0117C56.4832 63.0117 54.873 64.6219 54.873 66.6081C54.873 68.5944 56.4832 70.2046 58.4695 70.2046Z" fill="#0593FC"/>
<path d="M57.7968 66.6081C57.7968 65.1426 58.6739 63.8827 59.9313 63.3223C59.4846 63.1233 58.9901 63.0117 58.4695 63.0117C56.4832 63.0117 54.873 64.6219 54.873 66.6081C54.873 68.5944 56.4832 70.2046 58.4695 70.2046C58.9902 70.2046 59.4846 70.093 59.9313 69.894C58.6739 69.3336 57.7968 68.0737 57.7968 66.6081Z" fill="#0182FC"/>
</svg>
