<svg width="72" height="72" viewBox="0 0 72 72" fill="none" xmlns="http://www.w3.org/2000/svg">
<g clip-path="url(#clip0)">
<path d="M54.3684 7.63294L59.6831 2.31824C62.5541 -0.552694 67.2086 -0.552694 70.0796 2.31824C72.6398 4.87848 72.6398 9.02953 70.0796 11.5899L64.2025 17.467C61.6422 20.0273 57.4912 20.0273 54.9308 17.467L54.3684 16.9046C51.8082 14.3444 51.8082 10.1933 54.3684 7.63294Z" fill="#5628B4"/>
<path d="M64.2024 17.4669L70.0794 11.5897C72.6396 9.02959 72.6398 4.87869 70.0797 2.31845C70.0795 2.3183 70.0795 2.3183 70.0794 2.31814L69.9919 2.23071C69.5701 2.42524 69.1811 2.68369 68.8381 2.997L65.5601 6.27497C63.7498 8.08521 60.8146 8.08521 59.004 6.27497C58.3936 5.66449 57.6423 5.33705 56.8627 5.13837L54.3684 7.63284C52.9911 9.01791 52.3083 10.9478 52.5077 12.8908L58.9446 19.3277C60.8876 19.527 62.8175 18.844 64.2024 17.4669Z" fill="#3D068C"/>
<path d="M42.6143 6.27466L1.92026 46.9687C-0.639983 49.5289 -0.640136 53.6798 1.9201 56.2402L1.92026 56.2403L15.5947 69.9148C18.1549 72.475 22.3058 72.4752 24.8662 69.9149L24.8664 69.9148L65.5604 29.2208C65.5604 16.5479 55.2871 6.27466 42.6143 6.27466Z" fill="#E8DFF4"/>
<path d="M65.5602 12.8304C67.3706 12.8304 68.8382 11.3628 68.8382 9.55239C68.8382 7.74201 67.3706 6.27441 65.5602 6.27441C63.7498 6.27441 62.2822 7.74201 62.2822 9.55239C62.2822 11.3628 63.7498 12.8304 65.5602 12.8304Z" fill="#C80024"/>
<path d="M36.7363 3.67571L36.7374 3.67464C37.6422 2.76975 39.1094 2.76975 40.0143 3.67464L68.1597 31.8201C69.0646 32.7249 69.0646 34.1921 68.1597 35.097L68.1586 35.098C67.2537 36.0029 65.7866 36.0029 64.8817 35.098L36.7363 6.95261C35.8314 6.04772 35.8314 4.5806 36.7363 3.67571Z" fill="#F6F3FB"/>
<path d="M64.8816 35.0981C65.7868 36.0033 67.2543 36.0033 68.1595 35.0981C69.0647 34.1929 69.0647 32.7254 68.1595 31.8202L55.0475 18.7081C55.9527 19.6133 55.9527 21.0809 55.0475 21.9861C54.1423 22.8913 52.6747 22.8913 51.7695 21.9861L64.8816 35.0981Z" fill="#E9556D"/>
<path d="M60.304 30.5205C61.2092 31.4257 62.6767 31.4257 63.5819 30.5205C64.4871 29.6153 64.4871 28.1478 63.5819 27.2426L55.0475 18.7081C55.9527 19.6133 55.9527 21.0809 55.0475 21.9861C54.1423 22.8913 52.6747 22.8913 51.7695 21.9861L60.304 30.5205Z" fill="#EF8394"/>
<path d="M14.7509 47.2505L37.6972 24.3043C42.2232 19.7783 49.5614 19.7783 54.0874 24.3043C58.6133 28.8302 58.6133 36.1685 54.0874 40.6944L31.1411 63.6407C26.6151 68.1667 19.2769 68.1667 14.7509 63.6407C10.225 59.1147 10.225 51.7765 14.7509 47.2505Z" fill="#DCCDEE"/>
<path d="M9.15536 51.4886C10.0606 52.3938 11.5281 52.3938 12.4333 51.4886V51.4885C13.3385 50.5833 13.3385 49.1159 12.4333 48.2107L8.19515 43.9725C7.28995 43.0673 5.82237 43.0673 4.91718 43.9725C4.01198 44.8777 4.01198 46.3453 4.91718 47.2505L9.15536 51.4886Z" fill="#DCCDEE"/>
<path d="M13.7919 38.3767L35.3813 16.7874C36.2862 15.8825 37.7533 15.8825 38.6582 16.7874L38.6592 16.7885C39.5641 17.6934 39.5641 19.1605 38.6592 20.0654L17.0699 41.6549C16.165 42.5598 14.6979 42.5598 13.793 41.6549L13.7919 41.6538C12.8871 40.7489 12.8871 39.2818 13.7919 38.3767Z" fill="#F6F3FB"/>
<path d="M46.5712 48.2103C45.666 49.1155 44.1984 49.1155 43.2932 48.2103C42.388 47.3051 42.388 45.8375 43.2932 44.9324L47.5314 40.6942C48.4366 39.789 48.4366 38.3214 47.5314 37.4162C46.6262 36.511 45.1586 36.511 44.2534 37.4162L30.8602 50.8094C29.0498 52.6198 26.1145 52.6198 24.3041 50.8094C22.4937 48.999 22.4937 46.0637 24.3041 44.2533L49.1703 19.387L62.2823 32.499L46.5712 48.2103Z" fill="#E7455F"/>
<path d="M20.3473 31.8203L28.8237 23.3439C29.7289 22.4387 29.7289 20.9711 28.8237 20.0659L17.0693 31.8203C17.9745 32.7254 19.442 32.7254 20.3473 31.8203Z" fill="#D32745"/>
<path d="M33.4598 18.7079L35.38 16.7876C36.2852 15.8824 36.2852 14.4148 35.38 13.5096L30.1816 18.708C31.087 19.6131 32.5546 19.6131 33.4598 18.7079Z" fill="#D32745"/>
<path d="M59.6824 13.9228C58.8685 13.6588 57.9753 13.8696 57.3654 14.4698C56.4602 15.375 56.4602 16.8426 57.3654 17.7478L63.9215 24.3039C64.2569 24.6235 64.6827 24.832 65.1408 24.9011C64.3561 20.8125 62.4687 17.0162 59.6824 13.9228Z" fill="#EB6076"/>
<path d="M62.2824 32.499L60.6433 30.86L59.0044 32.499C57.194 34.3093 54.2589 34.3093 52.4483 32.499C50.6381 30.6887 47.7029 30.6885 45.8925 32.4989L45.8924 32.499L32.7803 45.6111C30.9699 47.4213 28.0348 47.4213 26.2242 45.6111C25.6137 45.0006 25.2865 44.2494 25.0876 43.4694L24.304 44.2531C22.4937 46.0635 22.4937 48.9986 24.304 50.8092H24.3041C26.1144 52.6196 29.0494 52.6197 30.8596 50.8095C30.8598 50.8093 30.8598 50.8093 30.8599 50.8092L44.2533 37.4161C45.1585 36.5109 46.6261 36.5109 47.5313 37.4161C48.4365 38.3213 48.4365 39.7889 47.5313 40.6941L43.2931 44.9322C42.3879 45.8374 42.3879 47.3049 43.2931 48.2101V48.2102C44.1983 49.1154 45.6659 49.1154 46.5711 48.2102L62.2824 32.499Z" fill="#D32745"/>
<path d="M27.8634 66.918C28.7686 66.0128 28.7686 64.5452 27.8634 63.64L17.0692 52.8458C16.164 51.9406 14.6964 51.9406 13.7912 52.8458C12.886 53.751 12.886 55.2185 13.7912 56.1237L24.5855 66.918C25.4907 67.8232 26.9583 67.8232 27.8634 66.918Z" fill="#D0BCE9"/>
</g>
<defs>
<clipPath id="clip0">
<rect width="72" height="72" fill="white"/>
</clipPath>
</defs>
</svg>
