<svg width="207" height="92" viewBox="0 0 207 92" fill="none" xmlns="http://www.w3.org/2000/svg">
<g filter="url(#filter0_f)">
<path d="M11 80.3596V11.4032L30.1111 21.0368H195.928V80.3596H11Z" fill="url(#paint0_linear)" fill-opacity="0.37"/>
</g>
<path d="M14.6348 54.2251V8.64723C14.6348 6.00898 17.4428 4.31923 19.7739 5.55476L28.2366 10.0403C31.9152 11.99 36.0152 13.0094 40.1786 13.0094H183C195.427 13.0094 205.5 23.083 205.5 35.5094V54.2252C205.5 66.6516 195.427 76.7252 183 76.7252H37.1348C24.7084 76.7252 14.6348 66.6516 14.6348 54.2251Z" fill="url(#paint1_linear)" stroke="#EEF4FC"/>
<path d="M163.656 12.7562C163.605 14.6618 163.373 16.4169 162.96 18.0215C162.548 19.576 161.955 21.0804 161.181 22.5346C160.407 23.9387 159.453 25.3177 158.319 26.6716C157.581 27.5529 156.777 28.4448 155.907 29.3474C155.045 30.2421 153.707 30.4644 152.579 29.9428L149.879 28.6942C149.026 28.2992 148.814 27.1468 149.346 26.3708C149.707 25.8192 150.068 25.1673 150.429 24.4151C150.536 24.2207 150.641 24.0162 150.744 23.8017C151.264 22.7194 150.541 21.5042 149.435 21.0351C147.989 20.4213 146.721 19.517 145.633 18.3224C144.035 16.5172 143.235 14.411 143.235 12.004C143.235 10.6 143.493 9.29619 144.009 8.09269C144.576 6.8892 145.324 5.83614 146.252 4.93352C147.18 4.0309 148.263 3.32886 149.501 2.8274C150.738 2.2758 152.079 2 153.523 2C154.915 2 156.23 2.2758 157.468 2.8274C158.706 3.32886 159.763 4.05597 160.64 5.00874C161.568 5.9615 162.29 7.11485 162.805 8.46878C163.373 9.77257 163.656 11.2017 163.656 12.7562ZM188.177 12.004C188.125 14.1102 187.893 16.0157 187.481 17.7206C187.068 19.3755 186.475 20.955 185.702 22.4594C184.928 23.9136 183.974 25.3177 182.84 26.6716C182.136 27.5514 181.356 28.4417 180.5 29.3426C179.644 30.2432 178.305 30.4644 177.177 29.9428L174.432 28.6732C173.575 28.2768 173.333 27.1496 173.867 26.3708C174.228 25.8192 174.589 25.1673 174.95 24.4151C175.044 24.2434 175.138 24.0639 175.232 23.8765C175.789 22.7692 175.066 21.4921 173.926 21.0074C172.483 20.3942 171.226 19.4992 170.154 18.3224C168.555 16.5172 167.756 14.411 167.756 12.004C167.756 10.6 168.014 9.29619 168.529 8.09269C169.097 6.8892 169.844 5.83614 170.773 4.93352C171.701 4.0309 172.784 3.32886 174.021 2.8274C175.311 2.2758 176.651 2 178.044 2C179.436 2 180.751 2.2758 181.989 2.8274C183.226 3.32886 184.283 4.0309 185.16 4.93352C186.088 5.83614 186.81 6.8892 187.326 8.09269C187.893 9.29619 188.177 10.6 188.177 12.004Z" fill="url(#paint2_linear)"/>
<path d="M68.8008 47.6954H74.0884V49.6959H66.3105V37.61H68.8008V47.6954ZM74.9932 45.1222C74.9932 44.2312 75.1647 43.4371 75.5078 42.7399C75.8509 42.0426 76.3434 41.5031 76.9854 41.1212C77.6328 40.7394 78.3826 40.5485 79.2349 40.5485C80.4468 40.5485 81.4346 40.9192 82.1982 41.6608C82.9674 42.4023 83.3963 43.4095 83.4849 44.6823L83.5015 45.2965C83.5015 46.6744 83.1169 47.7812 82.3477 48.6168C81.5785 49.4469 80.5464 49.8619 79.2515 49.8619C77.9565 49.8619 76.9217 49.4469 76.147 48.6168C75.3778 47.7867 74.9932 46.6578 74.9932 45.2301V45.1222ZM77.3921 45.2965C77.3921 46.1487 77.5526 46.8017 77.8735 47.2555C78.1945 47.7037 78.6538 47.9279 79.2515 47.9279C79.8325 47.9279 80.2863 47.7065 80.6128 47.2638C80.9393 46.8156 81.1025 46.1017 81.1025 45.1222C81.1025 44.2866 80.9393 43.6391 80.6128 43.1798C80.2863 42.7205 79.827 42.4908 79.2349 42.4908C78.6483 42.4908 78.1945 42.7205 77.8735 43.1798C77.5526 43.6336 77.3921 44.3392 77.3921 45.2965ZM88.208 46.7657L89.8765 40.7145H92.3833L89.3535 49.6959H87.0625L84.0327 40.7145H86.5396L88.208 46.7657ZM97.4634 49.8619C96.1463 49.8619 95.0728 49.458 94.2427 48.65C93.4181 47.8421 93.0059 46.7657 93.0059 45.421V45.1886C93.0059 44.2866 93.1802 43.4814 93.5288 42.7731C93.8774 42.0592 94.37 41.5114 95.0063 41.1295C95.6483 40.7421 96.3787 40.5485 97.1978 40.5485C98.4263 40.5485 99.3919 40.9358 100.095 41.7106C100.803 42.4853 101.157 43.5838 101.157 45.006V45.9855H95.438C95.5155 46.5721 95.7479 47.0424 96.1353 47.3966C96.5282 47.7508 97.0234 47.9279 97.6211 47.9279C98.5452 47.9279 99.2674 47.5931 99.7876 46.9235L100.966 48.2433C100.607 48.7524 100.12 49.1508 99.5054 49.4386C98.8911 49.7208 98.2104 49.8619 97.4634 49.8619ZM97.1895 42.4908C96.7135 42.4908 96.3262 42.6513 96.0273 42.9723C95.734 43.2933 95.5459 43.7526 95.4629 44.3502H98.7998V44.1593C98.7887 43.6281 98.6449 43.2185 98.3682 42.9308C98.0915 42.6375 97.6986 42.4908 97.1895 42.4908ZM109.292 49.6959H106.885V40.7145H109.292V49.6959ZM106.744 38.3903C106.744 38.0306 106.863 37.7345 107.101 37.5021C107.344 37.2697 107.673 37.1534 108.088 37.1534C108.498 37.1534 108.824 37.2697 109.068 37.5021C109.311 37.7345 109.433 38.0306 109.433 38.3903C109.433 38.7555 109.309 39.0543 109.06 39.2867C108.816 39.5192 108.492 39.6354 108.088 39.6354C107.684 39.6354 107.358 39.5192 107.109 39.2867C106.865 39.0543 106.744 38.7555 106.744 38.3903ZM116.14 47.214C116.14 46.9207 115.993 46.691 115.7 46.525C115.412 46.3535 114.948 46.2013 114.306 46.0685C112.17 45.6202 111.102 44.7127 111.102 43.3458C111.102 42.549 111.431 41.8849 112.089 41.3536C112.753 40.8169 113.619 40.5485 114.688 40.5485C115.827 40.5485 116.738 40.8169 117.418 41.3536C118.105 41.8904 118.448 42.5877 118.448 43.4454H116.049C116.049 43.1023 115.938 42.8201 115.717 42.5988C115.495 42.3719 115.15 42.2584 114.679 42.2584C114.275 42.2584 113.963 42.3497 113.741 42.5323C113.52 42.715 113.409 42.9474 113.409 43.2296C113.409 43.4952 113.534 43.7111 113.783 43.8771C114.037 44.0376 114.463 44.1787 115.061 44.3004C115.659 44.4166 116.162 44.5494 116.572 44.6989C117.839 45.1637 118.473 45.9689 118.473 47.1144C118.473 47.9334 118.121 48.5975 117.418 49.1066C116.716 49.6101 115.808 49.8619 114.696 49.8619C113.943 49.8619 113.274 49.7291 112.687 49.4635C112.106 49.1923 111.649 48.8243 111.317 48.3595C110.985 47.8891 110.819 47.3828 110.819 46.8405H113.094C113.116 47.2666 113.274 47.5931 113.567 47.8199C113.86 48.0468 114.253 48.1603 114.746 48.1603C115.205 48.1603 115.551 48.0745 115.783 47.903C116.021 47.7259 116.14 47.4962 116.14 47.214ZM124.383 48.5172C124.383 48.1354 124.51 47.8255 124.765 47.5875C125.025 47.3496 125.348 47.2306 125.736 47.2306C126.129 47.2306 126.452 47.3496 126.707 47.5875C126.967 47.8255 127.097 48.1354 127.097 48.5172C127.097 48.8935 126.97 49.2006 126.715 49.4386C126.461 49.671 126.134 49.7872 125.736 49.7872C125.343 49.7872 125.019 49.671 124.765 49.4386C124.51 49.2006 124.383 48.8935 124.383 48.5172ZM129.33 48.5172C129.33 48.1354 129.457 47.8255 129.712 47.5875C129.972 47.3496 130.296 47.2306 130.683 47.2306C131.076 47.2306 131.4 47.3496 131.654 47.5875C131.914 47.8255 132.044 48.1354 132.044 48.5172C132.044 48.8935 131.917 49.2006 131.663 49.4386C131.408 49.671 131.082 49.7872 130.683 49.7872C130.29 49.7872 129.966 49.671 129.712 49.4386C129.457 49.2006 129.33 48.8935 129.33 48.5172ZM134.277 48.5172C134.277 48.1354 134.405 47.8255 134.659 47.5875C134.919 47.3496 135.243 47.2306 135.63 47.2306C136.023 47.2306 136.347 47.3496 136.602 47.5875C136.862 47.8255 136.992 48.1354 136.992 48.5172C136.992 48.8935 136.864 49.2006 136.61 49.4386C136.355 49.671 136.029 49.7872 135.63 49.7872C135.237 49.7872 134.914 49.671 134.659 49.4386C134.405 49.2006 134.277 48.8935 134.277 48.5172Z" fill="#31394E"/>
<defs>
<filter id="filter0_f" x="0" y="0.403198" width="206.928" height="90.9564" filterUnits="userSpaceOnUse" color-interpolation-filters="sRGB">
<feFlood flood-opacity="0" result="BackgroundImageFix"/>
<feBlend mode="normal" in="SourceGraphic" in2="BackgroundImageFix" result="shape"/>
<feGaussianBlur stdDeviation="5.5" result="effect1_foregroundBlur"/>
</filter>
<linearGradient id="paint0_linear" x1="34.0247" y1="79.1258" x2="33.6257" y2="14.5573" gradientUnits="userSpaceOnUse">
<stop stop-color="#121B37" stop-opacity="0.56"/>
<stop offset="0.121897" stop-color="#121B37" stop-opacity="0.31"/>
<stop offset="0.444636" stop-color="#121B37" stop-opacity="0.22"/>
<stop offset="0.801521" stop-color="#121B37" stop-opacity="0.2"/>
<stop offset="1" stop-color="#121B37" stop-opacity="0.13"/>
</linearGradient>
<linearGradient id="paint1_linear" x1="110.068" y1="2" x2="110.068" y2="77.2252" gradientUnits="userSpaceOnUse">
<stop stop-color="white"/>
<stop offset="1" stop-color="white"/>
</linearGradient>
<linearGradient id="paint2_linear" x1="152.598" y1="2" x2="166.429" y2="36.521" gradientUnits="userSpaceOnUse">
<stop stop-color="#EB5A74"/>
<stop offset="1" stop-color="#E63050"/>
</linearGradient>
</defs>
</svg>
