<svg width="154" height="153" viewBox="0 0 154 153" fill="none" xmlns="http://www.w3.org/2000/svg">
<rect width="152.428" height="152.428" rx="32" transform="matrix(-1 -8.74228e-08 -8.74228e-08 1 153.002 0)" fill="url(#paint0_linear)"/>
<path d="M76.987 29.312L114.729 44.7555C114.969 44.8523 115.183 45.0037 115.353 45.1977C120.716 51.0346 123.731 58.6476 123.82 66.5731C123.82 82.5189 111.285 96.3579 93.4693 101.506C92.9894 101.645 92.5493 101.896 92.185 102.238L70.7917 122.573C69.85 123.471 68.4639 123.72 67.268 123.208C66.0722 122.696 65.2968 121.52 65.2971 120.219V105.458C65.3015 103.976 64.2957 102.682 62.8586 102.321C43.5543 97.673 29.5332 83.4114 29.5332 66.5731C29.5332 46.0154 50.4518 29.3283 76.3384 29.1836C76.5609 29.1831 76.7814 29.2268 76.987 29.312Z" fill="white"/>
<path d="M71.8025 55.1935V81.2036C71.8025 82.1014 71.0747 82.8292 70.1769 82.8292H66.9256C66.0278 82.8292 65.3 82.1014 65.3 81.2036V73.0754C65.3 72.1776 64.5721 71.4498 63.6743 71.4498H60.4231C59.5253 71.4498 58.7974 72.1776 58.7974 73.0754V81.2036C58.7974 82.1014 58.0696 82.8292 57.1718 82.8292H53.9206C53.0227 82.8292 52.2949 82.1014 52.2949 81.2036V55.1935C52.2949 54.2957 53.0227 53.5679 53.9206 53.5679H57.1718C58.0696 53.5679 58.7974 54.2957 58.7974 55.1935V63.3217C58.7974 64.2195 59.5253 64.9473 60.4231 64.9473H63.6743C64.5721 64.9473 65.3 64.2195 65.3 63.3217V55.1935C65.3 54.2957 66.0278 53.5679 66.9256 53.5679H70.1769C71.0747 53.5679 71.8025 54.2957 71.8025 55.1935Z" fill="#2450C9"/>
<path d="M83.1816 66.5731H79.9303C79.0325 66.5731 78.3047 67.3009 78.3047 68.1987V81.2037C78.3047 82.1015 79.0325 82.8294 79.9303 82.8294H83.1816C84.0794 82.8294 84.8072 82.1015 84.8072 81.2037V68.1987C84.8072 67.3009 84.0794 66.5731 83.1816 66.5731Z" fill="#2450C9"/>
<path d="M83.1816 53.5679H79.9303C79.0325 53.5679 78.3047 54.2957 78.3047 55.1935V58.4448C78.3047 59.3426 79.0325 60.0704 79.9303 60.0704H83.1816C84.0794 60.0704 84.8072 59.3426 84.8072 58.4448V55.1935C84.8072 54.2957 84.0794 53.5679 83.1816 53.5679Z" fill="#2450C9"/>
<path d="M97.8138 53.5679C99.6094 53.5679 101.065 55.0235 101.065 56.8191V66.5729C101.065 68.3685 99.6094 69.8242 97.8138 69.8242C96.0181 69.8242 94.5625 68.3685 94.5625 66.5729V56.8191C94.5625 55.0235 96.0181 53.5679 97.8138 53.5679Z" fill="#2450C9"/>
<path d="M97.8138 82.829C99.6094 82.829 101.065 81.3734 101.065 79.5777C101.065 77.7821 99.6094 76.3265 97.8138 76.3265C96.0181 76.3265 94.5625 77.7821 94.5625 79.5777C94.5625 81.3734 96.0181 82.829 97.8138 82.829Z" fill="#2450C9"/>
<path d="M115.057 44.9196C102.653 51.9261 76.7246 42.1885 76.6758 29.216C76.7733 29.2485 76.8887 29.2794 76.9863 29.3119L114.729 44.7554C114.841 44.8036 114.951 44.8584 115.057 44.9196Z" fill="#9DB2E3"/>
<defs>
<linearGradient id="paint0_linear" x1="76.2139" y1="313.881" x2="62.1331" y2="0.792423" gradientUnits="userSpaceOnUse">
<stop stop-color="#659FF8"/>
<stop offset="1" stop-color="#1841C1"/>
</linearGradient>
</defs>
</svg>
