<svg width="105" height="105" viewBox="0 0 105 105" fill="none" xmlns="http://www.w3.org/2000/svg">
<mask id="mask0" mask-type="alpha" maskUnits="userSpaceOnUse" x="0" y="0" width="105" height="105">
<rect x="0.611328" width="104.193" height="104.193" rx="24" fill="white"/>
</mask>
<g mask="url(#mask0)">
<path d="M108.357 54.4662C108.357 55.179 108.345 55.8896 108.315 56.5959C78.6265 85.146 31.1409 83.2397 3.83755 52.4025L-0.177208 47.8686C0.709995 40.5093 -17.7145 6.15524 -14.1913 0.000126839C-4.80435 -16.3972 42.5234 -8.88001 62.7696 -8.88001C83.0157 -8.88001 121.463 -16.3971 130.85 0.000217438C133.612 4.82346 105.998 37.5562 107.181 43.1602C107.917 46.641 108.319 50.2408 108.355 53.9301C108.357 54.1088 108.357 54.2875 108.357 54.4662Z" fill="#92EAFF"/>
<path d="M108.357 54.466C108.357 55.1788 108.344 55.8894 108.314 56.5957C78.6259 85.1458 31.1403 83.2395 3.83702 52.4023L-0.177734 47.8684C0.709469 40.5091 3.06683 33.6008 6.59012 27.4457C15.977 43.843 33.6445 54.8915 53.8906 54.8915C74.1367 54.8915 91.8042 43.843 101.191 27.4457C105.751 35.4092 108.357 44.6323 108.357 54.466Z" fill="#63DBFA"/>
<path d="M72.2586 50.9292H69.9238L70.0487 47.0166L70.2025 42.21H71.9799L72.1337 47.0166L72.2586 50.9292Z" fill="#EC771B"/>
<path d="M72.2585 50.9292H71.1357V42.21H71.9798L72.1336 47.0166L72.2585 50.9292Z" fill="#C55732"/>
<path d="M71.1369 46.2868V42.21H70.2036L70.0732 46.2868H71.1369Z" fill="#C55732"/>
<path d="M72.11 46.2868L71.9796 42.21H71.1357V46.2868H72.11Z" fill="#A44E3E"/>
<path d="M74.7625 43.74C73.7583 44.7285 72.4472 45.223 71.1362 45.223C69.8254 45.223 68.5142 44.7287 67.5098 43.74C65.9077 42.1633 65.5873 39.8025 66.5485 37.9121C67.5538 35.9352 68.6035 33.9812 69.4578 31.9345L71.136 27.9133L72.8115 31.9264C73.6672 33.9763 74.7184 35.9333 75.7246 37.9136C76.6852 39.8038 76.3643 42.1637 74.7625 43.74Z" fill="#43AF3E"/>
<path d="M74.7646 43.74C73.7604 44.7285 72.4494 45.223 71.1384 45.223C70.5165 45.223 69.8944 44.7287 69.4178 43.74C68.6474 42.1418 68.5014 39.738 68.9806 37.8351C69.6469 35.1888 70.2373 32.463 70.7843 29.7014L71.1384 27.9133L72.8138 31.9264C73.6695 33.9763 74.7208 35.9333 75.7269 37.9136C76.6873 39.8038 76.3665 42.1637 74.7646 43.74Z" fill="#00A23E"/>
<path d="M74.7542 43.74C73.75 44.7285 72.439 45.223 71.1279 45.223V27.9133L72.8034 31.9264C73.6591 33.9763 74.7104 35.9333 75.7165 37.9136C76.6769 39.8038 76.3561 42.1637 74.7542 43.74Z" fill="#008839"/>
<path d="M101.985 59.1376H100.025L100.13 55.8537L100.259 51.8196H101.751L101.88 55.8537L101.985 59.1376Z" fill="#EC771B"/>
<path d="M101.994 59.1376H101.052V51.8196H101.76L101.889 55.8537L101.994 59.1376Z" fill="#C55732"/>
<path d="M101.043 55.1446V51.8196H100.26L100.153 55.1446H101.043Z" fill="#C55732"/>
<path d="M101.866 55.1446L101.76 51.8196H101.052V55.1446H101.866Z" fill="#A44E3E"/>
<path d="M104.087 53.1043C103.244 53.934 102.144 54.3489 101.043 54.3489C99.9432 54.3489 98.8428 53.934 97.9999 53.1043C96.6552 51.7809 96.3863 49.7995 97.1931 48.213C98.0367 46.5537 98.9179 44.9137 99.6349 43.1959L101.044 39.8209L102.45 43.1891C103.168 44.9095 104.05 46.5522 104.895 48.2142C105.7 49.8006 105.431 51.7811 104.087 53.1043Z" fill="#43AF3E"/>
<path d="M104.091 53.1043C103.249 53.934 102.148 54.3489 101.048 54.3489C100.526 54.3489 100.004 53.934 99.6039 53.1043C98.9573 51.7628 98.835 49.7455 99.2371 48.1483C99.7962 45.9271 100.292 43.6395 100.751 41.3215L101.048 39.8209L102.454 43.1891C103.172 44.9095 104.055 46.5522 104.899 48.2142C105.705 49.8006 105.436 51.7811 104.091 53.1043Z" fill="#00A23E"/>
<path d="M104.094 53.1041C103.252 53.9338 102.151 54.3487 101.051 54.3487V39.8209L102.457 43.1891C103.175 44.9095 104.057 46.5522 104.902 48.2142C105.708 49.8004 105.439 51.7809 104.094 53.1041Z" fill="#008839"/>
<path d="M88.6411 56.5969V96.4061C79.2499 104.197 67.2014 108.893 54.0572 108.933H53.8891C45.8915 108.933 38.2939 107.21 31.4537 104.11C31.4537 94.136 23.3667 86.0491 13.3926 86.0491H9.51187C8.13319 84.1193 6.88004 82.0939 5.76093 79.9854C5.73966 79.9471 5.72051 79.9067 5.69923 79.8684C3.46314 75.6367 1.76745 71.0751 0.707914 66.2753C0.135593 63.686 -0.253755 61.0244 -0.44311 58.3096C-0.532469 57.0415 -0.577148 55.7586 -0.577148 54.4672C-0.577148 52.2332 -0.44311 50.0333 -0.17929 47.8695C9.29273 41.5825 21.754 34.8763 29.8537 34.1402C34.2706 33.7381 43.7788 36.8656 53.8891 40.9059C70.4587 47.5248 88.6411 56.5969 88.6411 56.5969Z" fill="#B6E337"/>
<path d="M88.6416 56.5966V96.4059C84.4609 99.876 79.7526 102.729 74.6549 104.833C68.304 107.457 61.349 108.91 54.0577 108.933H53.8896V40.9056C70.4593 47.5246 88.6416 56.5966 88.6416 56.5966Z" fill="#6CDC2D"/>
<path d="M88.6453 62.6705V96.4055C79.2541 104.197 67.2057 108.892 54.0614 108.933H53.8933C45.8957 108.933 16.6328 117.566 9.79263 114.466C9.79263 104.492 1.70567 96.4052 -8.26845 96.4052H-12.1492C-13.5278 94.4755 -14.781 92.45 -15.9001 90.3416C-15.9214 90.3033 -15.9405 90.2628 -15.9618 90.2245C-18.1979 85.9928 -19.8936 81.4312 -20.9531 76.6314C-6.76425 67.9551 31.5005 49.1603 39.0598 48.4731C41.9959 48.2071 47.4446 49.1113 53.8933 50.7049C65.0972 53.4708 79.3222 58.3089 88.6453 62.6705Z" fill="#6CDC2D"/>
<path d="M88.6416 62.6714V96.4064C79.2505 104.198 67.202 108.893 54.0577 108.934H53.8896V50.7058C65.0935 53.4717 79.3186 58.3098 88.6416 62.6714Z" fill="#5DBF1D"/>
<path d="M46.8907 69.6229H43.5547L43.7332 64.0327L43.953 57.1653H46.4925L46.7122 64.0327L46.8907 69.6229Z" fill="#EC771B"/>
<path d="M46.8894 69.6229H45.2852V57.1653H46.4911L46.7108 64.0327L46.8894 69.6229Z" fill="#C55732"/>
<path d="M45.2862 63.0715V57.1653H43.9526L43.7637 63.0715H45.2862Z" fill="#C55732"/>
<path d="M46.68 63.0715L46.4911 57.1653H45.2852V63.0715H46.68Z" fill="#A44E3E"/>
<path d="M50.4655 59.3528C49.0307 60.7653 47.1575 61.4714 45.2842 61.4714C43.4113 61.4714 41.5382 60.7653 40.1029 59.3528C37.814 57.1001 37.3562 53.727 38.7295 51.0262C40.1659 48.2016 41.6658 45.4098 42.8864 42.4855L45.2842 36.7401L47.6779 42.4738C48.9007 45.4024 50.4025 48.1987 51.8401 51.0281C53.2122 53.7287 52.7542 57.1005 50.4655 59.3528Z" fill="#43AF3E"/>
<path d="M50.4712 59.351C49.0363 60.7635 47.1632 61.4697 45.2899 61.4697C44.4012 61.4697 43.5127 60.7635 42.8317 59.351C41.7308 57.0675 41.5226 53.6331 42.2072 50.9143C43.1591 47.1334 44.0027 43.2388 44.7844 39.293L45.2901 36.7384L47.6838 42.472C48.9066 45.4007 50.4084 48.197 51.846 51.0264C53.2179 53.727 52.7598 57.0988 50.4712 59.351Z" fill="#00A23E"/>
<path d="M50.4684 59.3512C49.0336 60.7637 47.1604 61.4699 45.2871 61.4699V36.7384L47.6809 42.472C48.9036 45.4007 50.4054 48.1969 51.843 51.0264C53.2151 53.7272 52.7571 57.099 50.4684 59.3512Z" fill="#008839"/>
<path d="M108.313 56.5962C107.802 69.9021 102.517 81.9826 94.124 91.178C84.1967 102.05 69.9249 108.884 54.0574 108.933H53.8893C45.8917 108.933 38.294 107.209 31.4538 104.109C31.4538 94.1353 23.3669 86.0484 13.3928 86.0484L0.0157597 90.5772C-1.36292 88.6475 -2.61606 86.622 -3.73518 84.5136C-3.75645 84.4753 -3.7756 84.4348 -3.79688 84.3966C12.943 80.201 37.6537 68.8128 52.8212 63.6257C53.1766 63.5045 53.534 63.3832 53.8893 63.2619C65.2719 59.428 76.648 56.5962 88.6412 56.5962H108.313Z" fill="#B6E337"/>
<path d="M108.313 56.5962C107.803 69.9021 102.518 81.9826 94.1244 91.178C92.4202 93.0439 90.5884 94.7928 88.6416 96.4055C79.2505 104.197 67.202 108.892 54.0577 108.933H53.8896V63.2619C65.2722 59.428 76.6484 56.5962 88.6416 56.5962H108.313Z" fill="#6CDC2D"/>
<path d="M108.315 56.5962C107.804 69.9021 78.8393 93.8226 70.4459 103.018C60.5186 113.89 46.2468 120.724 30.3792 120.773H30.2112C14.2756 120.773 -0.0622482 113.928 -10.0236 103.018C-10.4364 102.567 -10.8406 102.107 -11.2385 101.642C-12.2682 100.435 -13.2448 99.1842 -14.166 97.8885C1.10367 92.0036 40.1642 72.8467 53.8913 66.9788C67.7675 61.0471 79.9564 56.5962 88.6433 56.5962H108.315Z" fill="#63DBFA"/>
<path d="M108.313 56.5962C107.803 69.9021 102.518 81.9826 94.1244 91.178C92.4202 93.0439 90.5884 94.7928 88.6416 96.4055C79.2505 104.197 67.202 108.892 54.0577 108.933H53.8896V66.9788C67.7658 61.0471 79.9547 56.5962 88.6416 56.5962H108.313Z" fill="#3DCAEA"/>
<path d="M108.311 56.5962C107.8 69.9021 102.515 81.9825 94.1219 91.178C84.1946 102.05 69.9228 108.884 54.0552 108.933H53.8871C42.1599 108.933 16.0082 112.278 7.11914 105.969C12.0785 103.531 32.5943 93.5864 37.6303 90.2248C43.1279 86.5569 48.5299 82.4698 53.8871 78.4444C68.7398 67.2852 83.2436 56.5962 98.4218 56.5962H108.311Z" fill="#65B2FE"/>
<path d="M108.313 56.5962C107.803 69.9021 102.518 81.9826 94.1244 91.178C92.4202 93.0439 90.5884 94.7928 88.6416 96.4055C79.2505 104.197 67.202 108.892 54.0577 108.933H53.8896V78.4444C68.7423 67.2852 83.2461 56.5962 98.4243 56.5962H108.313Z" fill="#159DE4"/>
<path d="M108.316 56.5962C107.805 69.9021 102.521 81.9826 94.1272 91.178C92.423 93.0439 90.5912 94.7928 88.6444 96.4055C84.4637 99.8756 79.7554 102.729 74.6577 104.833C68.3068 107.456 61.3518 108.909 54.0605 108.933H53.8924C49.6436 108.933 45.5076 108.445 41.5375 107.524C38.0355 106.711 34.6633 105.563 31.457 104.109C36.7739 101.112 41.7226 97.1012 46.1097 93.1928C48.3054 91.2376 50.9457 88.7589 53.8924 86.0143C66.8686 73.9318 85.7552 56.7238 98.4271 56.5962H108.316Z" fill="#B6E337"/>
<path d="M108.313 56.5962C107.803 69.9021 102.518 81.9826 94.1244 91.178C92.4202 93.0439 90.5884 94.7928 88.6416 96.4055C84.4609 99.8756 79.7526 102.729 74.6549 104.833C68.304 107.456 61.349 108.909 54.0577 108.933H53.8896V86.0143C66.8658 73.9318 85.7524 56.7238 98.4243 56.5962H108.313Z" fill="#6CDC2D"/>
<path d="M108.315 56.5962C107.804 69.9021 102.519 81.9826 94.1258 91.178C92.4216 93.0439 90.5898 94.7928 88.643 96.4055C84.4623 99.8756 79.754 102.729 74.6563 104.833C68.3054 107.456 61.3503 108.909 54.0591 108.933H53.891C49.6422 108.933 45.5062 108.445 41.5361 107.524C45.0701 105.114 49.2763 100.761 53.891 95.5757C67.7395 80.0167 85.2793 56.9813 99.4788 56.5962H108.315Z" fill="#5DBF1D"/>
<path d="M108.313 56.5962C107.803 69.9021 102.518 81.9826 94.1244 91.178C92.4202 93.0439 90.5884 94.7928 88.6416 96.4055C84.4609 99.8756 79.7526 102.729 74.6549 104.833C68.304 107.456 61.349 108.909 54.0577 108.933H53.8896V95.5757C67.7381 80.0167 85.2779 56.9813 99.4775 56.5962H108.313Z" fill="#53AF17"/>
<path d="M88.2538 56.601C78.3116 58.0647 66.5567 63.2007 53.8912 69.4622C40.715 75.9769 17.6535 87.0542 3.53693 93.1455C2.50718 91.9392 1.53062 90.6881 0.609375 89.3924C15.8791 83.5075 40.164 72.8472 53.8912 66.9793C67.5609 61.137 79.5945 56.7286 88.2538 56.601Z" fill="#92EAFF"/>
<path d="M88.2474 56.6002C78.3052 58.064 66.5503 63.2 53.8848 69.4615V66.9786C67.5545 61.1362 79.5881 56.7279 88.2474 56.6002Z" fill="#92EAFF"/>
<path d="M108.314 56.5962C107.803 69.9021 126.219 83.7501 117.825 92.9455C116.121 94.8114 97.8679 110.869 95.9212 112.482C91.7405 115.952 79.753 102.729 74.6553 104.833C83.0656 92.6226 87.9186 61.1067 106.627 56.5962H108.314Z" fill="#5DBF1D"/>
<path d="M93.2947 86.5622C93.5136 85.6359 92.9402 84.7075 92.014 84.4886C91.0877 84.2696 90.1593 84.843 89.9404 85.7693C89.7214 86.6955 90.2948 87.6239 91.2211 87.8429C92.1473 88.0618 93.0757 87.4884 93.2947 86.5622Z" fill="#53AF17"/>
<path d="M58.947 100.276C59.166 99.3495 58.5926 98.4212 57.6663 98.2022C56.7401 97.9833 55.8117 98.5566 55.5927 99.4829C55.3738 100.409 55.9472 101.338 56.8734 101.556C57.7997 101.775 58.7281 101.202 58.947 100.276Z" fill="#5DBF1D"/>
<path d="M75.962 91.8589C76.6352 91.8589 77.1809 91.3132 77.1809 90.64C77.1809 89.9669 76.6352 89.4211 75.962 89.4211C75.2889 89.4211 74.7432 89.9669 74.7432 90.64C74.7432 91.3132 75.2889 91.8589 75.962 91.8589Z" fill="#5DBF1D"/>
<path d="M80.0568 74.0883C80.0568 74.7452 79.5242 75.2779 78.8673 75.2779C78.2104 75.2779 77.6777 74.7452 77.6777 74.0883C77.6777 73.4315 78.2104 72.8988 78.8673 72.8988C79.5242 72.8988 80.0568 73.4315 80.0568 74.0883Z" fill="#5DBF1D"/>
<path d="M10.7199 71.3262C10.7199 71.9831 10.1872 72.5158 9.53035 72.5158C8.87347 72.5158 8.34082 71.9831 8.34082 71.3262C8.34082 70.6694 8.87347 70.1367 9.53035 70.1367C10.1872 70.1367 10.7199 70.6692 10.7199 71.3262Z" fill="#53AF17"/>
<path d="M35.9703 52.741C35.9703 53.2056 35.5938 53.5821 35.1292 53.5821C34.6646 53.5821 34.2881 53.2056 34.2881 52.741C34.2881 52.2764 34.6646 51.8999 35.1292 51.8999C35.5935 51.8999 35.9703 52.2766 35.9703 52.741Z" fill="#53AF17"/>
<path d="M59.676 55.6561C59.676 56.313 59.1433 56.8456 58.4864 56.8456C57.8295 56.8456 57.2969 56.313 57.2969 55.6561C57.2969 54.9992 57.8295 54.4666 58.4864 54.4666C59.1435 54.4666 59.676 54.9992 59.676 55.6561Z" fill="#53AF17"/>
<path d="M19.9052 62.1429C20.685 62.1429 21.3172 61.5107 21.3172 60.7309C21.3172 59.951 20.685 59.3188 19.9052 59.3188C19.1254 59.3188 18.4932 59.951 18.4932 60.7309C18.4932 61.5107 19.1254 62.1429 19.9052 62.1429Z" fill="#53AF17"/>
<path d="M5.59491 49.9327C5.59491 50.5983 5.05545 51.1378 4.38984 51.1378C3.72424 51.1378 3.18457 50.5983 3.18457 49.9327C3.18457 49.2671 3.72424 48.7277 4.38984 48.7277C5.05523 48.7277 5.59491 49.2671 5.59491 49.9327Z" fill="#6CDC2D"/>
<path d="M37.9541 43.9465C37.9541 44.6121 37.4146 45.1515 36.749 45.1515C36.0834 45.1515 35.5439 44.6121 35.5439 43.9465C35.5439 43.2809 36.0834 42.7412 36.749 42.7412C37.4144 42.7412 37.9541 43.2809 37.9541 43.9465Z" fill="#6CDC2D"/>
<path d="M15.9758 53.9458C16.4177 53.9458 16.7759 53.5876 16.7759 53.1458C16.7759 52.7039 16.4177 52.3457 15.9758 52.3457C15.534 52.3457 15.1758 52.7039 15.1758 53.1458C15.1758 53.5876 15.534 53.9458 15.9758 53.9458Z" fill="#6CDC2D"/>
<path d="M28.2436 39.6426C28.9002 39.6426 29.4325 39.1103 29.4325 38.4537C29.4325 37.7971 28.9002 37.2648 28.2436 37.2648C27.587 37.2648 27.0547 37.7971 27.0547 38.4537C27.0547 39.1103 27.587 39.6426 28.2436 39.6426Z" fill="#6CDC2D"/>
<path d="M58.2059 46.0431C58.2059 46.6998 57.6737 47.232 57.017 47.232C56.3604 47.232 55.8281 46.6998 55.8281 46.0431C55.8281 45.3865 56.3604 44.8542 57.017 44.8542C57.6737 44.8542 58.2059 45.3867 58.2059 46.0431Z" fill="#53AF17"/>
<path d="M30.9536 64.7078C31.0929 63.8486 30.5092 63.0391 29.65 62.8998C28.7908 62.7605 27.9813 63.3442 27.842 64.2034C27.7028 65.0626 28.2864 65.8721 29.1456 66.0114C30.0048 66.1506 30.8143 65.567 30.9536 64.7078Z" fill="#53AF17"/>
<path d="M91.6173 64.0778C91.6173 64.7347 91.0847 65.2674 90.4278 65.2674C89.7709 65.2674 89.2383 64.7347 89.2383 64.0778C89.2383 63.421 89.7709 62.8883 90.4278 62.8883C91.0847 62.8883 91.6173 63.421 91.6173 64.0778Z" fill="#5DBF1D"/>
<path d="M40.9018 26.0476C40.9018 26.0329 40.9028 26.0187 40.9028 26.004C40.9028 23.337 38.7408 21.1748 36.0738 21.1748C35.4402 21.1748 34.8358 21.298 34.2813 21.5199C33.2103 19.6016 31.1615 18.3036 28.8083 18.3036C25.7525 18.3036 23.2092 20.492 22.6564 23.3868C22.4918 23.3632 22.3235 23.3502 22.152 23.3502C20.4905 23.3502 19.0987 24.5004 18.7266 26.0476H40.9018Z" fill="white"/>
<path d="M36.1868 26.0468C36.1868 26.0385 36.1875 26.0302 36.1875 26.0217C36.1875 24.4882 34.9443 23.245 33.4107 23.245C33.0463 23.245 32.6988 23.3159 32.3799 23.4435C31.7642 22.3404 30.5859 21.594 29.2328 21.594C27.4756 21.594 26.0131 22.8525 25.6953 24.5169C25.6006 24.5033 25.5038 24.4958 25.4053 24.4958C24.45 24.4958 23.6496 25.1571 23.4355 26.0468H36.1868Z" fill="#DFF7FD"/>
<path d="M93.0676 29.4035C93.0676 29.3943 93.0682 29.3854 93.0682 29.376C93.0682 27.698 91.7079 26.3374 90.0296 26.3374C89.6309 26.3374 89.2505 26.4151 88.9018 26.5546C88.228 25.3475 86.9387 24.5309 85.4581 24.5309C83.5354 24.5309 81.935 25.9079 81.5871 27.7293C81.4835 27.7144 81.3776 27.7063 81.2697 27.7063C80.2242 27.7063 79.3485 28.4299 79.1143 29.4035H93.0676Z" fill="white"/>
<path d="M90.1013 29.4031C90.1013 29.3978 90.1017 29.3927 90.1017 29.3874C90.1017 28.4223 89.3194 27.6402 88.3545 27.6402C88.1252 27.6402 87.9064 27.6849 87.706 27.7651C87.3186 27.0711 86.5771 26.6013 85.7259 26.6013C84.6202 26.6013 83.7 27.3932 83.5 28.4404C83.4404 28.4319 83.3796 28.4272 83.3174 28.4272C82.7164 28.4272 82.2126 28.8434 82.0781 29.4031H90.1013Z" fill="#DFF7FD"/>
<path d="M54.2751 12.5627C54.2751 12.5536 54.2744 12.5446 54.2744 12.5355C54.2744 10.874 55.6212 9.52728 57.2826 9.52728C57.6773 9.52728 58.0539 9.60408 58.3992 9.74216C59.0662 8.5471 60.3427 7.7384 61.8084 7.7384C63.712 7.7384 65.2964 9.10155 65.6406 10.9049C65.7432 10.8902 65.8481 10.8821 65.9549 10.8821C66.9899 10.8821 67.8569 11.5985 68.0888 12.5625H54.2751V12.5627Z" fill="white"/>
<path d="M57.2094 12.5622C57.2094 12.5569 57.209 12.5518 57.209 12.5467C57.209 11.5914 57.9834 10.8169 58.9387 10.8169C59.1657 10.8169 59.3823 10.8612 59.5808 10.9405C59.9644 10.2533 60.6984 9.78845 61.5412 9.78845C62.6358 9.78845 63.5469 10.5723 63.7449 11.6092C63.8039 11.6007 63.8643 11.5963 63.9256 11.5963C64.5207 11.5963 65.0194 12.0082 65.1526 12.5624H57.2094V12.5622Z" fill="#DFF7FD"/>
</g>
</svg>
