<svg width="79" height="79" viewBox="0 0 79 79" fill="none" xmlns="http://www.w3.org/2000/svg">
<g clip-path="url(#clip0)">
<path d="M75.4467 59.7664L58.9522 64.8081C58.2989 65.0078 57.6486 64.4892 57.6993 63.8072L58.3597 54.8284L64.3627 52.9935L69.7292 51.3531C70.113 51.2358 70.5299 51.3665 70.7777 51.6819L75.9271 58.2367C76.3482 58.7735 76.099 59.567 75.4467 59.7664Z" fill="#FEC430"/>
<path d="M56.2402 65.6375L39.7531 70.677C39.0999 70.8767 38.4505 70.3578 38.4996 69.6773L39.1532 60.6995L45.1562 58.8646L51.1593 57.0297L56.7197 64.1081C57.1418 64.6446 56.8925 65.4381 56.2402 65.6375Z" fill="#FEC430"/>
<path d="M25.9472 64.7357L31.9502 62.9008L37.5187 69.9757C37.9411 70.5131 37.6918 71.3067 37.0386 71.5064L20.546 76.5475C19.8927 76.7472 19.2424 76.2286 19.293 75.5466L19.9051 67.2308C19.9345 66.8316 20.2062 66.4905 20.59 66.3732L25.9472 64.7357Z" fill="#FEC430"/>
<path d="M25.9485 64.7363L21.9583 65.956L20.9088 76.4377L24.9381 75.2061L25.9876 64.7244L25.9485 64.7363Z" fill="#FFAA00"/>
<path d="M28.0032 64.1089L26.9537 74.5905L28.9684 73.9747L30.0178 63.493L28.0032 64.1089Z" fill="#FFAA00"/>
<path d="M41.0891 60.1089L40.0396 70.5905L44.0699 69.3586L45.1194 58.877L41.0891 60.1089Z" fill="#FFAA00"/>
<path d="M47.1321 58.2608L46.0826 68.7425L48.0973 68.1267L49.1467 57.645L47.1321 58.2608Z" fill="#FFAA00"/>
<path d="M60.0989 54.2982L59.0494 64.7798L63.0787 63.5482L64.1282 53.0666L60.0989 54.2982Z" fill="#FFAA00"/>
<path d="M66.1419 52.4506L65.0924 62.9323L67.108 62.3162L68.1574 51.8346L66.1419 52.4506Z" fill="#FFAA00"/>
<path d="M39.1529 60.6997L31.9511 62.901L27.3057 64.321C26.6524 64.5207 26.0021 64.0021 26.0528 63.32L26.6649 55.0042C26.6943 54.6051 26.966 54.264 27.3497 54.1466L32.7162 52.5063L38.7193 50.6714L44.2797 57.7498C44.7018 58.2863 44.4525 59.0798 43.8002 59.2792L39.1529 60.6997Z" fill="#FEC430"/>
<path d="M58.3619 54.8291L51.1601 57.0304L46.5147 58.4504C45.8614 58.65 45.2111 58.1315 45.2618 57.4494L45.9222 48.4706L51.9159 46.6385L57.2825 44.9982C57.6662 44.8809 58.0822 45.0118 58.3297 45.3263L63.4865 51.8788C63.9098 52.416 63.6606 53.2095 63.0073 53.4092L58.3619 54.8291Z" fill="#FEC430"/>
<path d="M32.4369 52.592L31.3837 63.0748L27.3599 64.3047L28.4132 53.8219L32.4369 52.592Z" fill="#FFAA00"/>
<path d="M36.4707 51.3594L35.4175 61.8422L33.401 62.4586L34.4542 51.9758L36.4707 51.3594Z" fill="#FFAA00"/>
<path d="M51.9525 46.6271L50.8993 57.1099L46.8756 58.3398L47.9288 47.857L51.9525 46.6271Z" fill="#FF9E00"/>
<path d="M55.9863 45.3944L54.9331 55.8772L52.9166 56.4936L53.9698 46.0108L55.9863 45.3944Z" fill="#FF9E00"/>
<path d="M45.9206 48.4701L38.7188 50.6714L34.0715 52.0919C33.4182 52.2916 32.7689 51.7727 32.8179 51.0922L33.4226 42.7787C33.4526 42.3783 33.7243 42.0372 34.1081 41.9199L44.8402 38.6395C45.224 38.5222 45.6409 38.6528 45.8887 38.9683L51.038 45.523C51.4601 46.0595 51.2109 46.853 50.5585 47.0524L45.9206 48.4701Z" fill="#FEC430"/>
<path d="M39.606 40.2405L38.0975 50.8625L35.0123 51.8055L36.5208 41.1835L39.606 40.2405Z" fill="#FFAA00"/>
<path d="M42.6908 39.2976L41.1823 49.9196L39.649 50.3882L41.1576 39.7663L42.6908 39.2976Z" fill="#FFAA00"/>
<path d="M75.4468 59.7666L58.9542 64.8078C58.3 65.0077 57.6501 64.487 57.701 63.8059L57.7515 63.1432L65.548 60.7601C68.3711 59.8972 69.9596 56.91 69.0967 54.0869L68.3866 51.7638L69.7294 51.3533C70.1132 51.236 70.5301 51.3667 70.7779 51.6821L75.9273 58.2368C76.3484 58.7736 76.0992 59.5672 75.4468 59.7666Z" fill="#ED8D03"/>
<path d="M56.2397 65.6377L39.7508 70.6777C39.0984 70.8771 38.4496 70.3601 38.4978 69.6799L38.5443 69.0143L46.0342 66.725C48.8573 65.862 50.4458 62.8749 49.5829 60.0518L48.8728 57.7286L51.1588 57.0299L56.7192 64.1082C57.1412 64.6448 56.892 65.4383 56.2397 65.6377Z" fill="#ED8D03"/>
<path d="M37.0407 71.5064L20.5499 76.547C19.8957 76.747 19.2458 76.2263 19.2967 75.5452L19.3472 74.8825L27.4504 72.4056C30.2735 71.5427 31.862 68.5556 30.9991 65.7324L30.289 63.4093L31.9524 62.9009L37.5208 69.9757C37.9432 70.5132 37.694 71.3067 37.0407 71.5064Z" fill="#ED8D03"/>
<path d="M37.4382 35.0523C37.0738 35.1637 36.6877 34.9584 36.5763 34.594L34.7604 28.6529C34.649 28.2885 34.8543 27.9024 35.2187 27.791C35.5831 27.6796 35.9692 27.885 36.0806 28.2494L37.8966 34.1904C38.008 34.5548 37.8026 34.941 37.4382 35.0523Z" fill="#FEC430"/>
<path d="M19.5138 52.5633C19.3448 52.615 19.1561 52.6019 18.988 52.5126L13.5029 49.5957C13.1659 49.4164 13.0384 48.9992 13.2176 48.6622C13.3968 48.3252 13.814 48.1977 14.151 48.3769L19.6361 51.2938C19.9731 51.4731 20.1006 51.8903 19.9214 52.2273C19.8322 52.396 19.6828 52.5117 19.5138 52.5633Z" fill="#FEC430"/>
<path d="M63.1038 39.24C62.9348 39.2916 62.7461 39.2786 62.578 39.1892C62.241 39.01 62.1135 38.5928 62.2927 38.2558L65.2096 32.7707C65.3888 32.4337 65.806 32.3062 66.143 32.4854C66.48 32.6646 66.6075 33.0818 66.4283 33.4188L63.5114 38.9039C63.4222 39.0727 63.2728 39.1883 63.1038 39.24Z" fill="#FEC430"/>
<path d="M43.8004 59.2793L27.3077 64.3205C26.6535 64.5204 26.0036 63.9997 26.0545 63.3186L26.105 62.6559L33.9015 60.2728C36.7246 59.4099 38.3132 56.4227 37.4502 53.5996L36.7401 51.2765L38.7195 50.6714L44.2798 57.7498C44.7019 58.2863 44.4527 59.0799 43.8004 59.2793Z" fill="#ED8D03"/>
<path d="M63.0055 53.4094L46.5148 58.45C45.8606 58.6499 45.2106 58.1292 45.2616 57.4481L45.312 56.7854L53.4152 54.3086C56.2383 53.4457 57.8269 50.4585 56.9639 47.6354L56.2538 45.3122L57.2807 44.9984C57.6645 44.8811 58.0804 45.012 58.328 45.3265L63.4848 51.879C63.9081 52.4161 63.6588 53.2097 63.0055 53.4094Z" fill="#ED8D03"/>
<path d="M50.558 47.0522L34.0691 52.0923C33.4168 52.2917 32.768 51.7747 32.8161 51.0944L32.8626 50.4289L40.3525 48.1395C43.1756 47.2766 44.7642 44.2894 43.9013 41.4663L43.1912 39.1432L44.8406 38.639C45.2244 38.5217 45.6413 38.6523 45.8891 38.9678L51.0385 45.5225C51.4596 46.0593 51.2104 46.8528 50.558 47.0522Z" fill="#ED8D03"/>
<path d="M17.958 26.0993C19.4302 30.9157 24.5163 33.6205 29.3327 32.1483C26.9183 32.8863 25.0495 34.519 23.952 36.5827C22.8546 38.6464 22.5457 41.1086 23.2837 43.523C22.5457 41.1086 20.9131 39.2398 18.8494 38.1424C16.7857 37.0449 14.3234 36.7361 11.909 37.4741C14.3234 36.7361 16.1922 35.1034 17.2897 33.0397C18.3871 30.976 18.696 28.5137 17.958 26.0993Z" fill="#F7E784"/>
<path d="M31.2241 20.8833C30.7575 21.7607 29.9534 22.4692 28.9204 22.7849C27.8875 23.1007 26.8247 22.9628 25.9472 22.4962C25.0697 22.0296 24.3613 21.2255 24.0455 20.1925C23.7298 19.1595 23.8676 18.0968 24.3343 17.2193C24.8009 16.3418 25.605 15.6334 26.638 15.3176C27.6709 15.0019 28.7337 15.1397 29.6112 15.6064C30.4886 16.073 31.1971 16.8771 31.5129 17.91C31.8286 18.943 31.6908 20.0058 31.2241 20.8833Z" fill="#FFC50B"/>
<path d="M54.3233 34.3628C55.6979 33.9426 56.4717 32.4875 56.0515 31.1128C55.6313 29.7381 54.1763 28.9644 52.8016 29.3846C51.4269 29.8048 50.6531 31.2598 51.0733 32.6345C51.4935 34.0092 52.9486 34.783 54.3233 34.3628Z" fill="#F7E784"/>
</g>
<defs>
<clipPath id="clip0">
<rect width="62.1892" height="62.1892" fill="white" transform="translate(0.365234 18.7032) rotate(-16.9965)"/>
</clipPath>
</defs>
</svg>
