<svg width="73" height="74" viewBox="0 0 73 74" fill="none" xmlns="http://www.w3.org/2000/svg">
<g clip-path="url(#clip0)">
<path d="M49.6513 28.356C56.3214 26.6587 60.3331 19.7983 58.6115 13.033C56.89 6.26758 50.0872 2.15907 43.4171 3.85636C36.747 5.55364 32.7354 12.414 34.457 19.1794C36.1785 25.9448 42.9812 30.0533 49.6513 28.356Z" fill="#FD94A8"/>
<path d="M16.6544 64.5013C13.0029 62.296 11.7883 57.5229 13.9417 53.8406L21.7395 40.5052C23.8929 36.8227 28.5986 35.6253 32.2502 37.8307C35.9017 40.036 37.1163 44.809 34.9629 48.4915L27.1651 61.8268C25.0117 65.5093 20.306 66.7067 16.6544 64.5013Z" fill="#ECEAEC"/>
<path d="M25.5904 59.5313C23.437 63.2137 18.7312 64.4111 15.0797 62.2058C14.515 61.8648 14.0036 61.4404 13.5589 60.9901C14.1885 62.3969 15.2428 63.6492 16.6529 64.5008C20.3044 66.706 25.0102 65.5086 27.1635 61.8262L34.9614 48.4909C36.1005 46.5429 36.2888 44.2923 35.6808 42.2755L25.5904 59.5313Z" fill="#DAD8DB"/>
<path d="M21.7391 40.505L17.8401 47.1727L31.0635 55.159L34.9625 48.4912C37.1158 44.8087 35.9013 40.0357 32.2497 37.8305C28.5982 35.6252 23.8924 36.8225 21.7391 40.505Z" fill="#2956CD"/>
<path d="M28.909 53.8575L31.0633 55.1586L34.9623 48.4909C36.1014 46.5429 36.2956 44.2819 35.6877 42.2651L28.909 53.8575Z" fill="#90ACF5"/>
<path d="M51.0302 25.9991C44.3602 27.6963 37.5573 23.5878 35.8358 16.8225C35.0973 13.9201 35.4181 10.9942 36.547 8.47197C34.364 11.418 33.4744 15.3168 34.4573 19.1798C36.1789 25.9451 42.9817 30.0537 49.6517 28.3564C53.4604 27.3873 56.4071 24.7227 57.9097 21.3658C56.2696 23.5792 53.8917 25.2709 51.0302 25.9991Z" fill="#E73859"/>
<path d="M17.315 29.5614C20.9066 28.6475 23.0667 24.9535 22.1397 21.3106C21.2127 17.6677 17.5497 15.4555 13.9582 16.3694C10.3666 17.2833 8.20654 20.9773 9.13351 24.6202C10.0605 28.263 13.7235 30.4753 17.315 29.5614Z" fill="#79C35F"/>
<path d="M18.3499 27.7936C14.7584 28.7075 11.0953 26.4952 10.1684 22.8523C9.79671 21.3918 9.92236 19.9217 10.4364 18.6271C9.13176 20.2374 8.57906 22.438 9.13439 24.6204C10.0614 28.2632 13.7244 30.4755 17.3159 29.5616C19.4676 29.0141 21.1066 27.4653 21.8748 25.531C21.0019 26.6088 19.7899 27.4271 18.3499 27.7936Z" fill="#629E4D"/>
<path d="M69.4662 57.8683C71.6196 54.1858 68.3951 48.1989 62.2641 44.4962C56.1332 40.7934 49.4175 40.7769 47.2642 44.4594C45.1108 48.1419 48.3353 54.1288 54.4663 57.8315C60.5972 61.5343 67.3129 61.5507 69.4662 57.8683Z" fill="#FFDB57"/>
<path d="M69.5041 55.1C67.3508 58.7825 60.6349 58.7661 54.5041 55.0633C50.2848 52.5151 47.4347 48.8591 46.7739 45.6428C45.811 49.3283 48.9662 54.5098 54.4666 57.8318C60.5976 61.5346 67.3133 61.551 69.4667 57.8686C70.138 56.7204 70.2858 55.3447 69.9863 53.8874C69.876 54.3099 69.7256 54.7213 69.5041 55.1Z" fill="#FFC850"/>
<path d="M52.4657 19.8003C52.0366 19.9095 51.5659 19.8548 51.1548 19.6103L40.7144 13.3999C39.8925 12.9109 39.6222 11.8486 40.1105 11.0265C40.5987 10.2045 41.6606 9.93426 42.4821 10.4234L52.9227 16.6338C53.7444 17.1222 54.0148 18.185 53.5265 19.0068C53.2825 19.418 52.8947 19.6911 52.4657 19.8003Z" fill="#E73859"/>
</g>
<defs>
<clipPath id="clip0">
<rect width="59.4348" height="60.2839" fill="white" transform="translate(0.216797 14.849) rotate(-14.2766)"/>
</clipPath>
</defs>
</svg>
