<svg width="57" height="57" viewBox="0 0 57 57" fill="none" xmlns="http://www.w3.org/2000/svg">
<path fill-rule="evenodd" clip-rule="evenodd" d="M43.4448 14.2015C45.5345 14.2015 47.2471 12.4755 47.2471 10.3625C47.2471 8.25264 45.5345 6.52675 43.4448 6.52675H41.6267C41.3487 6.52675 41.1187 6.29452 41.1187 6.01062V0.564956C41.1187 0.24883 40.8695 0.000366211 40.566 0.000366211H20.5609L16.5029 9.90116L20.5609 20.7278H26.5199C26.8011 20.7278 27.0311 20.4956 27.0311 20.2117V18.3761C27.0311 16.2727 28.7342 14.5467 30.8174 14.5403C32.9006 14.5467 34.6036 16.2727 34.6036 18.3761V20.2117C34.6036 20.4956 34.8337 20.7278 35.1148 20.7278H40.5658C40.8692 20.7278 41.1185 20.4761 41.1185 20.1632V14.7177C41.1185 14.4338 41.3486 14.2015 41.6265 14.2015H43.4448Z" fill="#80D261"/>
<path fill-rule="evenodd" clip-rule="evenodd" d="M49.8674 41.3399L49.8642 35.9717C49.8642 35.6137 49.5862 35.3298 49.2412 35.3298H43.8987C43.6176 35.3298 43.3876 35.0975 43.3876 34.8137V33.0071C43.3876 30.9005 41.6845 29.1777 39.6013 29.1681C37.5181 29.1778 35.815 30.9005 35.815 33.0071V34.8137C35.815 35.0975 35.585 35.3298 35.3038 35.3298H29.9326C29.5876 35.3298 29.3096 35.6137 29.3096 35.9717V41.356C29.3096 41.6367 29.5364 41.869 29.8176 41.869H31.6357C33.7222 41.869 35.4284 43.5885 35.4379 45.695C35.4283 47.7984 33.7221 49.5179 31.6357 49.5179H29.8176C29.5364 49.5179 29.3096 49.7502 29.3096 50.0308V55.4151C29.3096 55.7732 29.5876 56.0571 29.9326 56.0571H49.2412C49.5862 56.0571 49.8642 55.7732 49.8642 55.4151L49.8674 50.047C49.8674 49.7631 50.0942 49.5308 50.3754 49.5308H52.1935C54.2832 49.5308 55.9958 47.8049 55.9958 45.695C55.9958 43.5819 54.2832 41.8561 52.1935 41.8561H50.3754C50.0942 41.8561 49.8674 41.6238 49.8674 41.3399Z" fill="#22A6FE"/>
<path fill-rule="evenodd" clip-rule="evenodd" d="M20.5588 20.7274V14.7173C20.5588 14.4334 20.7889 14.2012 21.0668 14.2012H22.8849C24.9746 14.2012 26.6872 12.4752 26.6872 10.3622C26.6872 8.25228 24.9746 6.52639 22.8849 6.52639H21.0668C20.7888 6.52639 20.5588 6.29415 20.5588 6.01025V0H0.550543C0.247051 0 0.000976562 0.248463 0.000976562 0.564589V6.02306C0.000976562 6.30695 0.231084 6.53919 0.508984 6.53919H2.32709C4.41359 6.53919 6.11981 8.25868 6.12933 10.3621C6.1197 12.4686 4.41348 14.1849 2.32709 14.1849L0.508984 14.1881C0.230974 14.1881 0.000976563 14.4172 0.000976563 14.7011V20.7273L10.3469 23.2275L20.5588 20.7274Z" fill="#FD4755"/>
<path fill-rule="evenodd" clip-rule="evenodd" d="M26.6872 31.091C26.6775 28.9844 24.9713 27.2649 22.8849 27.2649H21.0668C20.7888 27.2649 20.5588 27.0359 20.5588 26.752V20.7257H14.5775C14.2963 20.7257 14.0663 20.4935 14.0663 20.2096V18.374C14.0663 16.2641 12.3569 14.5382 10.264 14.5382C8.17437 14.5382 6.46497 16.2642 6.46497 18.374V20.2096C6.46497 20.4935 6.23487 20.7257 5.95379 20.7257H0.000976562V40.9241C0.000976562 41.2306 0.247051 41.4822 0.560167 41.4822H5.96637C6.24755 41.4822 6.47755 41.25 6.47755 40.9661V39.1305C6.47755 37.0271 8.1806 35.3011 10.2638 35.2947C12.3503 35.3011 14.0501 37.0271 14.0501 39.1305L14.0533 40.9661C14.0533 41.25 14.2801 41.4822 14.5613 41.4822H19.9995C20.3095 41.4822 20.5587 41.2305 20.5587 40.9241V35.4269C20.5587 35.1462 20.7888 34.914 21.0667 34.914H22.8848C24.9713 34.9139 26.6775 33.1944 26.6872 31.091Z" fill="#FDB440"/>
<path fill-rule="evenodd" clip-rule="evenodd" d="M22.8849 14.1996C24.9746 14.1996 26.6872 12.4736 26.6872 10.3606C26.6872 8.25069 24.9746 6.5248 22.8849 6.5248H21.0668C20.7888 6.5248 20.5588 6.29256 20.5588 6.00867V1.58887C20.1434 2.11471 19.7121 2.64056 19.2583 3.16641C17.7438 4.92463 16.0152 6.66024 14.1013 8.31846C9.39479 12.3898 4.39434 15.261 0.000976562 16.6739V20.7258H5.95358C6.23476 20.7258 6.46475 20.4936 6.46475 20.2097V18.3741C6.46475 16.2642 8.17415 14.5383 10.2638 14.5383C12.3567 14.5383 14.0661 16.2643 14.0661 18.3741V20.2097C14.0661 20.4936 14.2962 20.7258 14.5772 20.7258H20.5586V14.7157C20.5586 14.4318 20.7887 14.1996 21.0666 14.1996H22.8849Z" fill="#E41E2B"/>
<path fill-rule="evenodd" clip-rule="evenodd" d="M43.4561 14.2043C45.5458 14.2043 47.2583 12.4783 47.2583 10.3653C47.2583 8.25544 45.5458 6.52955 43.4561 6.52955H41.638C41.36 6.52955 41.13 6.29731 41.13 6.01342V0.632324C39.002 4.22936 35.8356 8.00389 31.8672 11.4397C28.1385 14.6657 24.2243 17.1401 20.5723 18.7305V20.7307H26.5313C26.8125 20.7307 27.0425 20.4985 27.0425 20.2146V18.379C27.0425 16.2756 28.7456 14.5496 30.8288 14.5432C32.912 14.5496 34.615 16.2756 34.615 18.379V20.2146C34.615 20.4985 34.8451 20.7307 35.1262 20.7307H40.5771C40.8806 20.7307 41.1299 20.4791 41.1299 20.1661V14.7206C41.1299 14.4367 41.36 14.2044 41.6379 14.2044H43.4561V14.2043Z" fill="#4FC122"/>
<path fill-rule="evenodd" clip-rule="evenodd" d="M22.8849 34.918C24.9714 34.918 26.6777 33.1986 26.6872 31.0952C26.6775 28.9886 24.9713 27.2691 22.8849 27.2691H21.0668C20.7888 27.2691 20.5588 27.0401 20.5588 26.7562V23.1011C18.6833 25.569 16.3731 28.0369 13.6955 30.3533C9.13603 34.3019 4.29536 37.1182 0.000976562 38.5764V40.9283C0.000976562 41.2348 0.247051 41.4864 0.560167 41.4864H5.96637C6.24755 41.4864 6.47755 41.2541 6.47755 40.9702V39.1346C6.47755 37.0313 8.1806 35.3053 10.2638 35.2989C12.3503 35.3053 14.0501 37.0313 14.0501 39.1346L14.0533 40.9702C14.0533 41.2541 14.2801 41.4864 14.5613 41.4864H19.9995C20.3095 41.4864 20.5587 41.2347 20.5587 40.9283V35.4311C20.5587 35.1504 20.7888 34.9182 21.0667 34.9182H22.8849V34.918Z" fill="#FE9900"/>
<path fill-rule="evenodd" clip-rule="evenodd" d="M49.8696 55.4146L49.8728 50.0464C49.8728 49.7625 50.0996 49.5303 50.3808 49.5303H52.1989C54.2886 49.5303 56.0012 47.8044 56.0012 45.6945C56.0012 43.5814 54.2886 41.8555 52.1989 41.8555H50.3808C50.0996 41.8555 49.8728 41.6233 49.8728 41.3394L49.8696 37.2229C47.7512 41.0651 44.4122 45.1557 40.1403 48.8496C36.6287 51.8917 32.9511 54.2597 29.4844 55.8566C29.5994 55.9792 29.7592 56.0566 29.9381 56.0566H49.2467C49.5916 56.0567 49.8696 55.7728 49.8696 55.4146Z" fill="#0182FC"/>
</svg>
