<svg width="70" height="69" viewBox="0 0 70 69" fill="none" xmlns="http://www.w3.org/2000/svg">
<g clip-path="url(#clip0)">
<path d="M60.4873 35.3173C62.7336 43.7004 57.2465 47.1171 50.9282 48.8629C46.6845 50.0355 43.0319 50.1539 39.1818 51.1856C35.3415 52.2146 32.144 53.9388 27.8571 55.0442C21.523 56.6776 15.0457 56.4508 12.8063 48.0934C8.97123 33.7806 16.953 20.8741 30.1198 17.3461C43.2866 13.8181 56.6522 21.0045 60.4873 35.3173Z" fill="#FFAAB4"/>
<path d="M23.9091 46.4627C20.7628 34.7204 23.7041 23.9664 30.4415 17.2681C30.3342 17.2954 30.227 17.3174 30.1198 17.3461C16.953 20.8741 8.97126 33.7807 12.8063 48.0934C15.0457 56.4508 21.523 56.6776 27.8571 55.0442C28.3936 54.9059 28.913 54.7578 29.4188 54.6026C27.0227 53.2803 25.0626 50.7675 23.9091 46.4627Z" fill="#FF96A0"/>
<path d="M50.0801 30.9815C47.4078 28.3091 43.4608 27.9234 41.2643 30.1199C39.0679 32.3165 39.4537 36.2634 42.1261 38.9358C44.7984 41.6081 48.7454 41.9938 50.9419 39.7973C53.1383 37.6008 52.7525 33.6538 50.0801 30.9815Z" fill="#E6646E"/>
<path d="M46.8086 31.7775C45.0159 29.9847 42.4556 29.5796 40.77 30.7126C39.3025 32.7668 39.6038 35.8497 41.5051 38.2332C43.447 39.7209 45.9768 39.8135 47.4502 38.34C49.0852 36.705 48.798 33.7668 46.8086 31.7775Z" fill="#4B3F4E"/>
<path d="M19.666 39.1305C18.6878 42.781 20.3271 46.3921 23.3276 47.1961C26.328 48.0001 29.5534 45.6925 30.5316 42.042C31.5098 38.3916 29.8704 34.7805 26.8699 33.9765C23.8695 33.1725 20.6442 35.48 19.666 39.1305Z" fill="#E6646E"/>
<path d="M22.8936 38.1855C23.5498 35.7366 25.5645 34.1057 27.5908 34.244C29.8888 35.2893 31.1693 38.1098 30.7145 41.1246C29.7766 43.384 27.6321 44.729 25.6192 44.1897C23.3858 43.5912 22.1654 40.903 22.8936 38.1855Z" fill="#4B3F4E"/>
</g>
<defs>
<clipPath id="clip0">
<rect width="56" height="56" fill="white" transform="translate(0.462891 14.8512) rotate(-15)"/>
</clipPath>
</defs>
</svg>
