<svg width="56" height="44" viewBox="0 0 56 44" fill="none" xmlns="http://www.w3.org/2000/svg">
<path d="M11.4626 7.29182C11.4145 6.99869 11.2211 6.74932 10.9481 6.6312C8.20413 5.44035 5.62642 3.50487 3.06884 0.715418C2.56484 0.165052 1.79923 -0.0169453 1.11674 0.244676C0.441253 0.505422 0.00288447 1.15029 -0.000615478 1.88702C-0.03124 10.6841 1.88585 16.2149 5.86179 18.797C6.00792 18.8906 6.17329 18.9379 6.33954 18.9379C6.48653 18.9379 6.63353 18.9011 6.76565 18.8268C7.04915 18.6684 7.2224 18.3665 7.21452 18.0419L7.20315 17.7593C7.1979 17.649 7.19177 17.5388 7.19177 17.425C7.19615 13.7816 8.65213 10.377 11.187 8.08193C11.4075 7.88243 11.5116 7.58494 11.4626 7.29182Z" fill="url(#paint0_linear)"/>
<path d="M54.8822 0.243918C54.2014 -0.018578 53.4341 0.165169 52.9301 0.71466C50.3716 3.50412 47.7948 5.43959 45.0508 6.63044C44.7778 6.74857 44.5845 6.99794 44.5363 7.29106C44.4873 7.58418 44.5915 7.88167 44.8119 8.08117C47.3459 10.3754 48.8028 13.7808 48.8063 17.4234C48.8063 17.5371 48.8001 17.6474 48.7949 17.7585L48.7835 18.0411C48.7756 18.3658 48.948 18.6676 49.2324 18.826C49.3645 18.9004 49.5115 18.9371 49.6585 18.9371C49.8239 18.9371 49.9901 18.8899 50.1354 18.7963C54.1113 16.215 56.0284 10.6834 55.9978 1.88627C55.996 1.14953 55.5577 0.504664 54.8822 0.243918Z" fill="url(#paint1_linear)"/>
<path d="M38.5248 3.64481C34.4316 3.41644 30.5755 5.11391 27.9987 8.21049C25.4166 5.11129 21.5701 3.42169 17.4743 3.64481C10.6232 4.02368 5.45027 9.94646 5.4424 17.4223C5.4214 36.4209 27.5078 43.7603 27.7309 43.8321C27.8175 43.8601 27.9085 43.8741 27.9987 43.8741C28.0888 43.8741 28.1798 43.8601 28.2673 43.8321C28.4904 43.7603 50.5768 36.4209 50.5567 17.4223C50.5488 9.94646 45.3759 4.02368 38.5248 3.64481Z" fill="url(#paint2_linear)"/>
<path d="M35.7777 24.2092C35.6246 23.9257 35.3288 23.7498 35.0077 23.7498H29.8759V14.9999C29.8759 14.6079 29.6152 14.2641 29.2381 14.1573C28.8601 14.0514 28.4576 14.2098 28.2546 14.5441L20.245 27.6689C20.0805 27.9392 20.0743 28.277 20.2292 28.5526C20.3823 28.8291 20.6746 28.9997 20.9913 28.9997H26.1231V36.8746C26.1231 37.2613 26.3777 37.6026 26.7487 37.7128C26.831 37.7382 26.915 37.7496 26.9981 37.7496C27.2877 37.7496 27.5651 37.6052 27.7305 37.3532L35.7401 25.1034C35.916 24.8348 35.9308 24.4909 35.7777 24.2092Z" fill="url(#paint3_linear)"/>
<path d="M45.2157 13.5006C44.9016 13.5006 44.598 13.3308 44.4405 13.0333C43.0247 10.3463 40.5695 8.71442 37.7075 8.55604C37.2245 8.52979 36.8543 8.1168 36.8823 7.63381C36.9086 7.15169 37.319 6.78507 37.8037 6.8087C41.245 6.99857 44.3048 9.01979 45.9892 12.217C46.2149 12.6449 46.0504 13.1742 45.6226 13.3991C45.4931 13.4682 45.3531 13.5006 45.2157 13.5006Z" fill="#FFA4B4"/>
<path d="M46.4065 17.6319C45.955 17.6319 45.5727 17.2854 45.535 16.8286C45.493 16.3176 45.4117 15.8058 45.2935 15.307C45.1815 14.8363 45.472 14.3647 45.9419 14.2527C46.4057 14.1433 46.8834 14.4312 46.9954 14.901C47.1345 15.4864 47.2299 16.0858 47.2798 16.6851C47.3191 17.1673 46.9604 17.5899 46.4791 17.6292C46.4538 17.631 46.4301 17.6319 46.4065 17.6319Z" fill="#FFA4B4"/>
<defs>
<linearGradient id="paint0_linear" x1="-0.000615478" y1="9.53266" x2="11.4748" y2="9.53266" gradientUnits="userSpaceOnUse">
<stop offset="0.3491" stop-color="#FFA4B4"/>
<stop offset="0.4556" stop-color="#FF9EAF"/>
<stop offset="0.6037" stop-color="#FF8CA1"/>
<stop offset="0.7764" stop-color="#FF6E89"/>
<stop offset="0.9661" stop-color="#FF4568"/>
<stop offset="1" stop-color="#FF3D62"/>
</linearGradient>
<linearGradient id="paint1_linear" x1="44.5241" y1="9.53102" x2="55.9995" y2="9.53102" gradientUnits="userSpaceOnUse">
<stop offset="0.3491" stop-color="#FFA4B4"/>
<stop offset="0.4556" stop-color="#FF9EAF"/>
<stop offset="0.6037" stop-color="#FF8CA1"/>
<stop offset="0.7764" stop-color="#FF6E89"/>
<stop offset="0.9661" stop-color="#FF4568"/>
<stop offset="1" stop-color="#FF3D62"/>
</linearGradient>
<linearGradient id="paint2_linear" x1="5.44152" y1="23.7494" x2="50.5567" y2="23.7494" gradientUnits="userSpaceOnUse">
<stop offset="0.3491" stop-color="#FF3F62"/>
<stop offset="0.4958" stop-color="#F9395C"/>
<stop offset="0.6999" stop-color="#E9274A"/>
<stop offset="0.9366" stop-color="#CF092D"/>
<stop offset="1" stop-color="#C70024"/>
</linearGradient>
<linearGradient id="paint3_linear" x1="20.1163" y1="25.9373" x2="35.8836" y2="25.9373" gradientUnits="userSpaceOnUse">
<stop offset="0.4018" stop-color="#FFB555"/>
<stop offset="0.4221" stop-color="#FFB450"/>
<stop offset="0.5272" stop-color="#FFB03B"/>
<stop offset="0.6449" stop-color="#FFAC2C"/>
<stop offset="0.7842" stop-color="#FFAB24"/>
<stop offset="1" stop-color="#FFAA21"/>
</linearGradient>
</defs>
</svg>
