<svg width="41" height="69" viewBox="0 0 41 69" fill="none" xmlns="http://www.w3.org/2000/svg">
<g clip-path="url(#clip0)">
<path d="M41.3686 38.5201C24.7245 44.0341 10.7274 33.9222 10.8884 16.5059C27.5319 10.9941 41.5298 21.1034 41.3686 38.5201Z" fill="#5F9548"/>
<path d="M41.1231 37.1829L31.2964 30.0855L29.7759 20.6839L27.9043 20.9713L29.1249 28.5174L26.5258 26.6398L25.2693 18.8701L23.3977 19.1575L24.3548 25.0718L21.7564 23.1953L20.8958 17.8709L19.0239 18.1592L19.5842 21.6261L15.7136 18.8305L14.6016 20.3475L18.4724 23.1422L14.9768 23.6804L15.2775 25.5366L20.6443 24.7109L23.2425 26.5878L17.281 27.5046L17.5813 29.3621L25.4147 28.157L28.0131 30.0335L20.4059 31.2029L20.7065 33.0595L30.1841 31.6015L40.0114 38.6986L41.1231 37.1829Z" fill="#68A34F"/>
<path d="M38.1701 42.6659C22.408 34.8799 19.672 17.9592 32.213 5.8197C47.9756 13.6058 50.7109 30.5274 38.1701 42.6659Z" fill="#7EB457"/>
<path d="M37.0297 29.674L42.657 21.996L41.122 20.8859L36.6055 27.048L36.0975 23.9067L40.7486 17.5606L39.2128 16.4517L35.6728 21.2806L35.1653 18.1409L38.3516 13.7931L36.8166 12.683L34.7412 15.5145L33.9846 10.836L32.113 11.1234L32.8699 15.8029L30.0006 13.7314L28.8897 15.2478L33.2939 18.4293L33.8021 21.5701L28.9093 18.0352L27.7972 19.5522L34.2263 24.1961L34.734 27.3354L28.493 22.8283L27.3809 24.3438L35.1582 29.9614L37.0791 41.8398L38.9503 41.5523L37.0297 29.674Z" fill="#88C25E"/>
<path d="M53.9823 12.3326L53.5115 11.5262L52.7014 11.9842C50.8561 13.0002 48.8343 13.6657 46.7392 13.9464C40.2983 14.9155 34.5481 20.0184 32.598 27.296C30.0494 36.8075 34.9539 46.3863 43.5534 48.6905C52.1528 50.9947 61.1896 45.1515 63.7382 35.64C65.6882 28.3623 63.2599 21.068 58.1614 17.007C56.4894 15.7179 55.0721 14.1327 53.9823 12.3326Z" fill="#95573A"/>
<path d="M62.9017 23.2824C54.2861 35.301 41.5801 38.4466 33.1828 39.1036C34.8887 43.7599 38.7488 47.3283 43.5532 48.6906C52.1526 50.9948 61.1894 45.1516 63.738 35.6401C64.8647 31.5516 64.5703 27.1996 62.9017 23.2824Z" fill="#8F4D2E"/>
<path d="M34.6156 30.7518C33.7736 30.5276 32.9185 30.3578 32.0551 30.2436C31.1225 38.7132 35.8438 46.6253 43.5519 48.6907C45.0765 49.0973 46.6571 49.2556 48.2306 49.1592C49.3791 41.172 43.6041 33.1603 34.6156 30.7518Z" fill="#8F4D2E"/>
<path d="M47.3287 16.4124C42.4309 24.8134 39.8723 34.362 39.9135 44.0864L41.8096 44.0793C41.7687 34.6923 44.2384 25.4751 48.9673 17.3666L47.3287 16.4124Z" fill="#7A3B1D"/>
<path d="M36.2287 28.2487L38.0502 28.7776C39.2864 24.5311 41.5199 21.3241 43.1823 20.0286L42.0083 18.548C39.6847 20.3542 37.4169 24.1611 36.2287 28.2487Z" fill="#7A3B1D"/>
<path d="M5.89548 37.9251L5.08586 38.3832L5.55218 39.1884C6.58699 41.0221 7.26891 43.0298 7.56307 45.1071C8.57416 51.4961 13.7525 57.2213 21.1064 59.1918C30.7165 61.7668 40.3568 56.9558 42.6372 48.4451C44.9177 39.9343 38.9745 30.9477 29.3644 28.3727C22.0104 26.4022 14.6633 28.7712 10.592 33.8031C9.29987 35.4555 7.7074 36.8532 5.89548 37.9251Z" fill="#A36548"/>
<path d="M41.7928 38.6514C32.7105 47.9648 17.6162 48.1617 8.0748 47.255C10.0802 53.1727 14.9971 57.677 21.1051 59.1918C30.7152 61.7668 40.3555 56.9558 42.636 48.445C43.4903 45.1868 43.1931 41.731 41.7928 38.6514Z" fill="#95573A"/>
<path d="M35.3085 46.4819C36.3298 46.7542 37.4185 46.4979 38.2027 45.8001C38.9865 45.1022 39.3599 44.0571 39.1952 43.0225C38.4065 38.0631 34.2429 33.5666 28.3912 31.9986C22.7528 30.4878 16.7898 32.1613 13.5534 36.1612L13.5212 36.2043L13.4931 36.2395C12.8631 37.056 12.6895 38.1332 13.0302 39.1083C13.3709 40.0838 14.1805 40.8278 15.1872 41.0904L35.3085 46.4819Z" fill="#FFB531"/>
<path d="M35.5732 46.5526C36.5931 46.8283 37.4062 47.595 37.7357 48.5908C38.0646 49.5868 37.8653 50.6776 37.2054 51.4909C34.0458 55.3923 28.1922 57.2047 22.34 55.6366C16.7016 54.1258 12.3743 49.695 11.5715 44.6128L11.5625 44.5587L11.5557 44.5142C11.418 43.4915 11.807 42.471 12.5906 41.7967C13.3738 41.1223 14.4482 40.8836 15.4518 41.1611L35.5732 46.5526Z" fill="#FFA912"/>
<path d="M35.8016 42.8667L33.8762 40.8935C33.0991 40.1018 32.1014 39.5589 31.0119 39.3353C30.9945 39.3306 30.9838 39.3149 30.967 39.3095L29.884 38.9543C29.1189 38.7403 28.5375 38.1196 28.3785 37.3479C28.217 36.6789 28.4553 35.979 28.9922 35.546C29.8037 34.8949 30.6611 34.7537 32.6373 35.9506C33.0837 36.2078 33.6533 36.0658 33.9207 35.6313C34.1878 35.1962 34.0549 34.6279 33.6206 34.3507C31.9761 33.3522 30.0497 32.54 28.1124 33.853C27.9745 33.3943 27.7337 32.9712 27.4085 32.616C26.4679 31.7544 25.2067 31.3235 23.9342 31.4289C23.413 31.4705 23.0262 31.9233 23.0707 32.4404C23.1157 32.9577 23.5747 33.343 24.0963 33.3015C24.7941 33.2428 25.4891 33.4575 26.0318 33.8989C26.4124 34.4122 26.5371 35.0684 26.37 35.6812C26.3391 36.1008 26.1658 36.4969 25.8785 36.8056C25.1967 37.4127 24.0015 37.2168 22.85 37.0297C22.5208 36.9756 22.202 36.9239 21.9054 36.8914C21.0102 36.6923 20.0802 36.7159 19.1988 36.9607L16.5448 37.7069C16.0419 37.8482 15.7522 38.3678 15.8979 38.867C16.0431 39.3661 16.5689 39.6559 17.0719 39.5141L19.7259 38.768C21.0231 38.4026 22.4215 38.7773 23.3617 39.7422C24.7903 41.2084 26.9145 41.7776 28.8848 41.2221C30.1819 40.8567 31.5804 41.2314 32.5206 42.1963L34.446 44.1695C34.8107 44.5438 35.4109 44.5557 35.7862 44.1961C36.162 43.8366 36.1709 43.2418 35.8061 42.8679L35.8016 42.8667ZM25.4464 39.0157C25.9202 38.9287 26.3704 38.7457 26.7681 38.478C26.9336 38.8658 27.1591 39.2261 27.4366 39.5447C26.7376 39.5614 26.0477 39.3779 25.449 39.0164L25.4464 39.0157Z" fill="#F79900"/>
<path d="M34.8395 48.7698C34.7695 48.53 34.6068 48.327 34.3867 48.2055C34.1663 48.0838 33.9068 48.0541 33.6652 48.1222L31.0111 48.8683C29.714 49.2337 28.3155 48.859 27.3749 47.894C25.9468 46.4279 23.8225 45.8587 21.8523 46.4142C20.5551 46.7796 19.1567 46.4049 18.216 45.4399L16.2906 43.4667C15.9259 43.0924 15.3261 43.0806 14.9503 43.4401C14.575 43.7997 14.5661 44.3945 14.9309 44.7684L16.8563 46.7416C17.498 47.395 18.292 47.8805 19.1683 48.1556C19.445 48.2768 19.7461 48.3911 20.0555 48.5082C21.1485 48.9225 22.2838 49.351 22.5662 50.2165C22.6607 50.6275 22.6127 51.0572 22.4297 51.436C22.268 52.0502 21.8319 52.5562 21.2456 52.8104C20.5568 52.9214 19.8497 52.7608 19.2756 52.3632C18.8455 52.0653 18.2552 52.168 17.9564 52.5927C17.6581 53.0171 17.7648 53.603 18.1949 53.9009C18.6685 54.2176 19.1904 54.4556 19.7406 54.6063C20.4119 54.8004 21.1238 54.8034 21.795 54.6151C22.2558 54.4696 22.6767 54.2223 23.026 53.8918C23.514 54.9452 24.4632 55.7195 25.5993 55.9907C26.3992 56.1808 27.2219 56.2571 28.0424 56.2179C28.3861 56.218 28.7019 56.0341 28.8679 55.7365C29.0337 55.4394 29.0239 55.0753 28.8418 54.7856C28.6597 54.4958 28.3338 54.3254 27.9908 54.3407C25.6823 54.3877 25.011 53.8341 24.6315 52.8676C24.3834 52.2247 24.5269 51.4999 25.0012 51.0013C25.5397 50.4032 26.3751 50.1602 27.1579 50.3743L28.2224 50.5964C28.2399 50.6011 28.2567 50.5937 28.2746 50.5966C29.3298 50.9482 30.4653 50.9768 31.5339 50.6792L34.188 49.933C34.4311 49.8663 34.6367 49.7055 34.7589 49.4873C34.8812 49.2687 34.9101 49.0108 34.8395 48.7698ZM23.3015 48.0876C24.0035 48.0722 24.6967 48.258 25.2969 48.6223C24.8962 48.7583 24.52 48.9568 24.1828 49.2099C23.9691 48.7803 23.6692 48.3987 23.3015 48.0876Z" fill="#F59416"/>
<path d="M35.3306 47.4592L14.0004 41.7438C13.4946 41.6083 13.1933 41.0926 13.3274 40.592C13.4616 40.0914 13.9804 39.7954 14.4862 39.931L35.8164 45.6464C36.3222 45.7819 36.6235 46.2976 36.4894 46.7982C36.3552 47.2988 35.8364 47.5948 35.3306 47.4592Z" fill="#F79900"/>
</g>
<defs>
<clipPath id="clip0">
<rect width="56" height="55.4227" fill="white" transform="translate(15.125 0.697266) rotate(15)"/>
</clipPath>
</defs>
</svg>
