<svg width="54" height="54" viewBox="0 0 54 54" fill="none" xmlns="http://www.w3.org/2000/svg">
<path d="M19.6757 16.2351C20.5807 16.2351 21.3143 15.1346 21.3143 13.7772C21.3143 12.4198 20.5807 11.3193 19.6757 11.3193C18.7707 11.3193 18.0371 12.4198 18.0371 13.7772C18.0371 15.1346 18.7707 16.2351 19.6757 16.2351Z" fill="#EEF2FA"/>
<path d="M34.4228 16.2351C35.3277 16.2351 36.0614 15.1346 36.0614 13.7772C36.0614 12.4198 35.3277 11.3193 34.4228 11.3193C33.5178 11.3193 32.7842 12.4198 32.7842 13.7772C32.7842 15.1346 33.5178 16.2351 34.4228 16.2351Z" fill="#EEF2FA"/>
<path d="M30.3268 23.6087L27.0496 26.8859L23.7725 23.6087C24.154 23.0999 24.6488 22.687 25.2176 22.4026C25.7864 22.1181 26.4137 21.9701 27.0496 21.9701C27.6856 21.9701 28.3129 22.1181 28.8817 22.4026C29.4505 22.687 29.9453 23.0999 30.3268 23.6087Z" fill="#2F261F"/>
<path d="M27.0498 29.3438C27.0498 29.3438 29.8109 32.1047 32.7932 32.5554L32.7849 32.6209H21.3148L21.3066 32.5554C24.2889 32.1047 27.0498 29.3438 27.0498 29.3438Z" fill="#6B5545"/>
<path d="M27.0494 26.8859L30.3265 23.6087C29.945 23.0999 29.4502 22.687 28.8814 22.4027C28.3126 22.1182 27.6853 21.9702 27.0494 21.9702C26.4134 21.9702 25.7862 22.1182 25.2174 22.4027C24.6486 22.687 24.1537 23.0999 23.7722 23.6087L27.0494 26.8859ZM27.0494 29.3438C27.0494 29.3438 24.2884 32.1048 21.3062 32.5554C21.0378 32.5976 20.7666 32.6195 20.495 32.621C18.2338 32.621 16.3985 31.3265 16.3985 27.7052V26.6074C16.3972 26.4293 16.4082 26.2514 16.4313 26.0749C16.5065 25.3674 16.7358 24.685 17.1031 24.0757L22.576 16.2924C23.3542 15.1898 23.772 13.8733 23.7722 12.5237V4.76497C23.7722 3.89581 24.1175 3.06224 24.732 2.44766C25.3466 1.83307 26.1803 1.48779 27.0494 1.48779C27.9186 1.48779 28.7521 1.83307 29.3667 2.44766C29.9813 3.06224 30.3265 3.89581 30.3265 4.76497V12.5237C30.3267 13.8733 30.7446 15.1898 31.5227 16.2924L36.9956 24.0757C37.363 24.685 37.5923 25.3674 37.6674 26.0749C37.6906 26.2514 37.7015 26.4293 37.7002 26.6074V27.7052C37.7002 31.3265 35.865 32.621 33.6037 32.621C33.3321 32.6195 33.0609 32.5976 32.7927 32.5554C29.8104 32.1048 27.0494 29.3438 27.0494 29.3438Z" fill="#FFE0D1"/>
<path d="M19.6754 16.2351C20.5766 16.2351 21.314 15.1372 21.314 13.7772C21.314 12.4172 20.5766 11.3193 19.6754 11.3193C18.7742 11.3193 18.0368 12.4172 18.0368 13.7772C18.0368 15.1372 18.7742 16.2351 19.6754 16.2351ZM23.7719 12.5237C23.7717 13.8733 23.3538 15.1898 22.5757 16.2925L17.1028 24.0758C16.7354 24.685 16.5061 25.3674 16.431 26.0749L16.3982 26.0666L12.8916 16.9479C12.1051 14.9073 12.1051 12.6471 12.8916 10.6066L14.3745 6.73947C14.9766 5.19786 16.0281 3.8728 17.3927 2.93631C18.7572 1.99983 20.3718 1.49515 22.0267 1.4878H27.0491C26.6185 1.48726 26.1921 1.57165 25.7943 1.73616C25.3964 1.90066 25.0349 2.14204 24.7305 2.44645C24.4261 2.75087 24.1847 3.11236 24.0202 3.51021C23.8557 3.90806 23.7713 4.33445 23.7719 4.76497V12.5237Z" fill="#DB996E"/>
<path d="M32.7849 13.7772C32.7849 15.1372 33.5222 16.2351 34.4235 16.2351C35.3247 16.2351 36.062 15.1372 36.062 13.7772C36.062 12.4172 35.3247 11.3193 34.4235 11.3193C33.5222 11.3193 32.7849 12.4172 32.7849 13.7772ZM31.5232 16.2924C30.745 15.1898 30.3272 13.8733 30.327 12.5237V4.76497C30.327 3.89581 29.9818 3.06224 29.3671 2.44766C28.7525 1.83307 27.919 1.48779 27.0498 1.48779H32.0721C33.7271 1.49515 35.3416 1.99983 36.7062 2.93632C38.0708 3.8728 39.1223 5.19785 39.7243 6.73947L41.2072 10.6066C41.9937 12.6471 41.9937 14.9073 41.2072 16.9479L37.7006 26.0666L37.6679 26.0749C37.5928 25.3674 37.3634 24.685 36.996 24.0757L31.5232 16.2924Z" fill="#DB996E"/>
<path d="M33.5382 37.5613C34.2592 39.462 35.2423 40.4698 35.2423 44.0911C35.2423 49.0069 27.0494 49.0069 27.0494 49.0069C27.0494 49.0069 18.8564 49.0069 18.8564 44.0911C18.8564 40.4698 19.8396 39.462 20.5606 37.5613C21.1221 35.9771 21.3778 34.3006 21.3143 32.621H32.7845C32.721 34.3006 32.9767 35.9771 33.5382 37.5613Z" fill="#DB996E"/>
<path d="M20.5602 37.5613C19.8392 39.462 18.856 40.4698 18.856 44.0911C18.856 49.0069 27.049 49.0069 27.049 49.0069C27.049 49.0069 35.2419 49.0069 35.2419 44.0911C35.2419 40.4698 34.2588 39.462 33.5378 37.5613L33.6033 37.5367L38.5191 44.0911L40.1577 42.4525C40.1577 42.4525 42.8532 43.1243 43.3529 45.6888C43.3549 45.7025 43.3576 45.7162 43.3611 45.7297L43.4349 46.549V52.284H10.6631V46.549L10.7369 45.7788C11.1957 43.2718 13.9403 43.2718 13.9403 43.2718L15.5789 44.0911L20.4946 37.5367L20.5602 37.5613Z" fill="#FFC09E"/>
<path d="M41.1807 34.3168C42.1295 36.4479 42.7218 38.7202 42.934 41.0432L43.3518 45.6886C42.8521 43.1242 40.1566 42.4524 40.1566 42.4524L38.518 44.091L33.6022 37.5366L33.5367 37.5612C32.9752 35.9769 32.7194 34.3005 32.7829 32.6209L32.7912 32.5553C33.0594 32.5975 33.3306 32.6194 33.6022 32.6209C35.8635 32.6209 37.6987 31.3264 37.6987 27.7051V26.6073C37.7 26.4292 37.689 26.2513 37.6659 26.0748L37.6987 26.0665L40.9759 34.2595L41.1316 34.1939L41.1807 34.3168Z" fill="#4D3D32"/>
<path d="M21.3135 32.6209C21.377 34.3005 21.1211 35.977 20.5597 37.5613L20.4942 37.5367L15.5784 44.091L13.9398 43.2717C13.9398 43.2717 11.1951 43.2717 10.7363 45.7788L11.1624 41.0432C11.3745 38.7202 11.9669 36.4479 12.9157 34.3169L12.9648 34.1939L13.1205 34.2595L16.3977 26.0665L16.4305 26.0748C16.4073 26.2513 16.3964 26.4292 16.3977 26.6073V27.7051C16.3977 31.3264 18.2329 32.6209 20.4942 32.6209C20.7658 32.6194 21.0369 32.5975 21.3052 32.5553L21.3135 32.6209Z" fill="#4D3D32"/>
<path d="M14.3342 3.95387L17.0625 3.17554C15.8541 4.09191 14.9238 5.32567 14.3752 6.73947L12.8922 10.6065C12.1057 12.6472 12.1057 14.9073 12.8922 16.9478L16.3988 26.0666L13.1216 34.2596L12.966 34.194L10.4426 33.1863C9.51933 32.8193 8.73035 32.179 8.18128 31.351L5.20724 26.9023C4.49307 25.8234 4.11133 24.5586 4.10939 23.2646V21.8063C4.10764 20.8343 4.32319 19.8742 4.74024 18.9961L10.2132 7.44406C10.6127 6.60294 11.1869 5.85662 11.8974 5.2548C12.608 4.65299 13.4388 4.2095 14.3342 3.95387Z" fill="#DB996E"/>
<path d="M49.9911 21.8063V23.2646C49.9891 24.5586 49.6075 25.8234 48.8932 26.9023L45.9192 31.351C45.3702 32.179 44.5811 32.8193 43.658 33.1863L41.1346 34.194L40.9788 34.2596L37.7017 26.0666L41.2083 16.9478C41.9948 14.9073 41.9948 12.6472 41.2083 10.6065L39.7254 6.73947C39.1767 5.32567 38.2464 4.09191 37.0381 3.17554L39.7663 3.95387C40.6617 4.2095 41.4924 4.65299 42.203 5.2548C42.9136 5.85662 43.4878 6.60294 43.8874 7.44406L49.3603 18.9961C49.7773 19.8742 49.9929 20.8343 49.9911 21.8063Z" fill="#DB996E"/>
<path d="M29.5075 24.428L30.3268 23.6087C29.9453 23.0999 29.4505 22.687 28.8817 22.4026C28.3129 22.1181 27.6856 21.9701 27.0496 21.9701C26.4137 21.9701 25.7864 22.1181 25.2176 22.4026C24.6488 22.687 24.154 23.0999 23.7725 23.6087L24.5918 24.428C25.3008 23.8961 26.1633 23.6087 27.0496 23.6087C27.936 23.6087 28.7984 23.8961 29.5075 24.428Z" fill="#4D3D32"/>
<path d="M29.0981 32.6209H32.7849L32.7932 32.5554C29.8109 32.1047 27.0498 29.3438 27.0498 29.3438C27.0498 29.3438 24.2889 32.1047 21.3066 32.5554L21.3148 32.6209H25.0016C25.3883 32.3629 25.735 32.1056 26.0282 31.8729C26.3193 31.6413 26.6804 31.5153 27.0524 31.5153C27.4243 31.5153 27.7853 31.6413 28.0764 31.8729C28.3681 32.1056 28.7147 32.3629 29.0981 32.6209Z" fill="#4D3D32"/>
<path d="M41.962 28.3181L41.2738 27.4586C40.9321 27.0314 40.7029 26.5255 40.6068 25.987C40.5109 25.4486 40.5511 24.8945 40.7241 24.3756L43.6416 15.6239C44.0354 14.4371 43.9622 13.1447 43.4367 12.01L39.7155 3.93912L37.0381 3.17554C38.2464 4.09191 39.1767 5.32567 39.7254 6.73947L41.2083 10.6065C41.9948 12.6472 41.9948 14.9073 41.2083 16.9478L37.7017 26.0666L40.9788 34.2596L41.1346 34.194L43.658 33.1863C44.5811 32.8193 45.3702 32.179 45.9192 31.351L46.7139 30.1631H45.7996C45.0625 30.1629 44.335 29.997 43.6706 29.6776C43.0064 29.3582 42.4224 28.8936 41.962 28.3181Z" fill="#AF7A58"/>
<path d="M12.3025 13.7772C12.3015 12.6929 12.5015 11.6179 12.8924 10.6065L14.3753 6.73947C14.9239 5.32567 15.8543 4.09191 17.0625 3.17554L14.3851 3.93912L10.6639 12.01C10.1398 13.1453 10.068 14.4376 10.4631 15.6239L13.3807 24.3756C13.5536 24.8945 13.5939 25.4486 13.4979 25.987C13.4018 26.5255 13.1726 27.0314 12.831 27.4586L12.1427 28.3181C11.6819 28.8942 11.0972 29.3592 10.4322 29.6786C9.76719 29.9979 9.03881 30.1636 8.30105 30.1631H7.38672L8.18061 31.351C8.72968 32.179 9.51867 32.8193 10.4419 33.1863L12.9653 34.194L13.1218 34.2596L16.399 26.0666L12.8924 16.9478C12.5015 15.9365 12.3015 14.8615 12.3025 13.7772Z" fill="#AF7A58"/>
<path d="M43.7041 15.3492C44.2441 17.7785 45.8015 22.2158 49.9915 22.7336V21.8061C49.9931 20.8341 49.7777 19.874 49.3606 18.996L43.8877 7.44391C43.4881 6.60279 42.914 5.85646 42.2034 5.25465C41.4928 4.65283 40.6621 4.20934 39.7667 3.95371L39.7158 3.93896L43.4371 12.0098C43.9158 13.057 44.0103 14.2393 43.7041 15.3492Z" fill="#FFB280"/>
<path d="M10.3967 15.3492C9.85674 17.7785 8.29926 22.2158 4.10939 22.7336V21.8061C4.10764 20.8341 4.32319 19.874 4.74024 18.996L10.2132 7.44391C10.6127 6.60279 11.1869 5.85646 11.8974 5.25465C12.6081 4.65283 13.4388 4.20934 14.3342 3.95371L14.385 3.93896L10.6637 12.0098C10.1851 13.057 10.0905 14.2393 10.3967 15.3492Z" fill="#FFB280"/>
<path d="M21.8894 37.5367H32.2126C32.6395 37.5354 33.0655 37.4924 33.4841 37.4081C32.9647 35.8675 32.7283 34.2457 32.7861 32.621H21.3159C21.3731 34.2458 21.1361 35.8676 20.6162 37.4081C21.0354 37.4924 21.4618 37.5355 21.8894 37.5367Z" fill="#9A6948"/>
<path d="M10.7369 45.779L10.6631 46.5492V52.2842H13.121V43.3875C12.5272 43.4956 11.9806 43.7826 11.5546 44.21C11.1284 44.6375 10.8431 45.1849 10.7369 45.779Z" fill="#FFE0D1"/>
<path d="M43.3616 45.7295C43.3582 45.716 43.3555 45.7023 43.3535 45.6885C43.214 45.0501 42.9262 44.4534 42.5135 43.9467C42.1008 43.44 41.5745 43.0376 40.9775 42.7719V52.2838H43.4354V46.5488L43.3616 45.7295Z" fill="#FFE0D1"/>
<path d="M40.9772 34.2595L37.7 26.0665L37.6672 26.0748C37.6904 26.2513 37.7013 26.4292 37.7 26.6073V27.7051C37.7261 28.6296 37.563 29.5496 37.2207 30.4088L39.2075 35.046L40.9772 34.2595Z" fill="#2F261F"/>
<path d="M39.6519 36.0838C40.526 38.1234 40.9767 40.3192 40.9767 42.5383V42.7717C41.5737 43.0375 42.0998 43.44 42.5126 43.9466C42.9253 44.4534 43.2131 45.05 43.3527 45.6884L42.9348 41.043C42.7226 38.72 42.1303 36.4476 41.1815 34.3166L41.1323 34.1937L40.9767 34.2593L39.207 35.0458L39.6519 36.0838Z" fill="#6B5545"/>
<path d="M34.8757 36.9716L39.209 35.0463L37.2222 30.4091C36.9252 31.109 36.4169 31.6985 35.7683 32.0951C35.1197 32.4918 34.3633 32.6757 33.605 32.6212C33.3334 32.6197 33.0622 32.5977 32.7939 32.5556L32.7857 32.6212C32.7285 34.246 32.9656 35.8678 33.4854 37.4083C33.9637 37.3152 34.4301 37.1688 34.8757 36.9716Z" fill="#2F261F"/>
<path d="M16.8776 30.4088C16.5353 29.5496 16.3721 28.6296 16.3983 27.7051V26.6073C16.397 26.4292 16.4079 26.2513 16.431 26.0748L16.3983 26.0665L13.1211 34.2595L14.8908 35.046L16.8776 30.4088Z" fill="#2F261F"/>
<path d="M13.1205 43.3871V42.5383C13.1205 40.3192 13.5712 38.1234 14.4453 36.0838L14.8902 35.0458L13.1205 34.2593L12.9648 34.1937L12.9157 34.3166C11.9669 36.4476 11.3745 38.72 11.1624 41.043L10.7363 45.7786C10.8427 45.1844 11.128 44.637 11.554 44.2096C11.9802 43.7822 12.5267 43.4952 13.1205 43.3871Z" fill="#6B5545"/>
<path d="M19.2249 36.9716C19.6713 37.1689 20.1385 37.3154 20.6177 37.4083C21.1367 35.8676 21.3729 34.2459 21.3149 32.6212L21.3067 32.5556C21.0384 32.5977 20.7672 32.6197 20.4956 32.6212C19.7373 32.6757 18.9809 32.4918 18.3323 32.0951C17.6837 31.6985 17.1753 31.109 16.8784 30.4091L14.8916 35.0463L19.2249 36.9716Z" fill="#2F261F"/>
<path d="M29.5075 24.428L27.0496 26.8859L24.5918 24.428C24.2781 24.6572 24.0017 24.9336 23.7725 25.2473L25.8912 27.3659C26.1984 27.6731 26.6152 27.8457 27.0496 27.8457C27.4841 27.8457 27.9009 27.6731 28.2082 27.3659L30.3268 25.2473C30.0976 24.9336 29.8212 24.6572 29.5075 24.428Z" fill="#FFCEB3"/>
<path d="M37.3217 24.7384C36.0985 26.6695 31.9725 28.5244 27.0494 28.5244C22.1262 28.5244 18.0002 26.6695 16.7771 24.7384C16.5985 25.165 16.4821 25.615 16.4313 26.0747C16.4082 26.2512 16.3972 26.4292 16.3985 26.6072V27.7051C16.3985 31.3264 18.2338 32.6209 20.495 32.6209C20.7666 32.6194 21.0378 32.5975 21.3062 32.5553C24.2884 32.1048 27.0494 29.3437 27.0494 29.3437C27.0494 29.3437 29.8104 32.1048 32.7927 32.5553C33.0609 32.5975 33.3321 32.6194 33.6037 32.6209C35.865 32.6209 37.7002 31.3264 37.7002 27.7051V26.6072C37.7015 26.4292 37.6906 26.2512 37.6674 26.0747C37.6167 25.615 37.5003 25.165 37.3217 24.7384Z" fill="#FFCEB3"/>
<path d="M34.4227 10.5C33.0446 10.5 31.9648 11.9395 31.9648 13.7772C31.9648 15.6148 33.0446 17.0544 34.4227 17.0544C35.8008 17.0544 36.8806 15.6148 36.8806 13.7772C36.8806 11.9395 35.8008 10.5 34.4227 10.5ZM34.4227 16.2351C33.5215 16.2351 32.7841 15.1348 32.7841 13.7772C32.7841 12.4196 33.5215 11.3193 34.4227 11.3193C35.324 11.3193 36.0613 12.4196 36.0613 13.7772C36.0613 15.1348 35.3281 16.2351 34.4227 16.2351Z" fill="#4D3D32"/>
<path d="M19.6757 10.5C18.2976 10.5 17.2178 11.9395 17.2178 13.7772C17.2178 15.6148 18.2976 17.0544 19.6757 17.0544C21.0538 17.0544 22.1335 15.6148 22.1335 13.7772C22.1335 11.9395 21.0538 10.5 19.6757 10.5ZM19.6757 16.2351C18.7703 16.2351 18.0371 15.1348 18.0371 13.7772C18.0371 12.4196 18.7703 11.3193 19.6757 11.3193C20.581 11.3193 21.3142 12.4196 21.3142 13.7772C21.3142 15.1348 20.581 16.2351 19.6757 16.2351Z" fill="#4D3D32"/>
<path d="M24.2295 3.12638H29.8744C29.5892 2.62936 29.178 2.21623 28.6824 1.92858C28.1868 1.64093 27.6242 1.4889 27.0511 1.48779C26.1821 1.48934 25.3489 1.83383 24.7325 2.44637C24.537 2.65105 24.368 2.87952 24.2295 3.12638Z" fill="#FFF6F0"/>
<path d="M14.5302 12.2452L16.0132 8.37806C16.6152 6.83644 17.6667 5.51139 19.0313 4.5749C20.3958 3.63842 22.0104 3.13374 23.6654 3.12638H24.2274C24.3659 2.87952 24.5349 2.65105 24.7305 2.44637C25.3468 1.83383 26.18 1.48934 27.0491 1.48779H22.0268C20.3718 1.49515 18.7572 1.99983 17.3927 2.93631C16.0281 3.8728 14.9766 5.19785 14.3746 6.73947L12.8917 10.6066C12.5007 11.6179 12.3007 12.6929 12.3018 13.7772C12.3446 14.4956 12.5671 15.1917 12.9487 15.8019C13.3302 16.4122 13.8589 16.9168 14.486 17.2698C14.1358 16.7144 13.9468 16.0725 13.9404 15.4158C13.9393 14.3315 14.1393 13.2565 14.5302 12.2452Z" fill="#F0A778"/>
<path d="M41.7971 13.7772C41.7981 12.6929 41.5981 11.6179 41.2072 10.6066L39.7243 6.73947C39.1223 5.19785 38.0708 3.8728 36.7062 2.93631C35.3416 1.99983 33.7271 1.49515 32.0721 1.48779H27.0498C27.6228 1.4889 28.1855 1.64093 28.6811 1.92858C29.1768 2.21623 29.5878 2.62936 29.873 3.12638H30.4335C32.0885 3.13374 33.703 3.63842 35.0676 4.5749C36.4322 5.51139 37.4837 6.83644 38.0857 8.37806L39.5686 12.2452C39.9595 13.2565 40.1595 14.3315 40.1585 15.4158C40.1521 16.0725 39.9632 16.7144 39.6128 17.2698C40.24 16.9168 40.7685 16.4121 41.1501 15.8019C41.5317 15.1917 41.7541 14.4956 41.7971 13.7772Z" fill="#F0A778"/>
<path d="M34.0131 16.1473C34.6919 16.1473 35.2421 15.0861 35.2421 13.7771C35.2421 12.468 34.6919 11.4069 34.0131 11.4069C33.3344 11.4069 32.7842 12.468 32.7842 13.7771C32.7842 15.0861 33.3344 16.1473 34.0131 16.1473Z" fill="#2F261F"/>
<path d="M20.0854 16.1473C20.7641 16.1473 21.3143 15.0861 21.3143 13.7771C21.3143 12.468 20.7641 11.4069 20.0854 11.4069C19.4066 11.4069 18.8564 12.468 18.8564 13.7771C18.8564 15.0861 19.4066 16.1473 20.0854 16.1473Z" fill="#2F261F"/>
<path d="M46.2966 16.6787C46.5606 16.4147 46.4769 15.903 46.1096 15.5357C45.7422 15.1683 45.2305 15.0846 44.9665 15.3486C44.7025 15.6125 44.7863 16.1242 45.1536 16.4916C45.521 16.8589 46.0327 16.9427 46.2966 16.6787Z" fill="#F6FAFD"/>
<path d="M35.1045 13.4751C35.2367 13.343 35.195 13.087 35.0113 12.9033C34.8276 12.7197 34.5717 12.6779 34.4394 12.8101C34.3073 12.9423 34.3491 13.1983 34.5328 13.3819C34.7164 13.5655 34.9724 13.6073 35.1045 13.4751Z" fill="#F6FAFD"/>
<path d="M28.5469 23.3055C28.6791 23.1733 28.6374 22.9173 28.4536 22.7336C28.27 22.55 28.014 22.5083 27.8818 22.6404C27.7497 22.7725 27.7915 23.0285 27.9752 23.2122C28.1588 23.3958 28.4148 23.4376 28.5469 23.3055Z" fill="#F6FAFD"/>
<path d="M19.441 13.361C19.6247 13.1773 19.6664 12.9213 19.5342 12.7892C19.4021 12.6571 19.1461 12.6988 18.9625 12.8824C18.7788 13.0662 18.737 13.3221 18.8691 13.4543C19.0013 13.5864 19.2573 13.5446 19.441 13.361Z" fill="#F6FAFD"/>
<path d="M48.5976 20.6055C49.123 20.0801 48.956 19.0613 48.2245 18.3299C47.4931 17.5984 46.4743 17.4314 45.9489 17.9568C45.4236 18.4821 45.5906 19.501 46.3221 20.2323C47.0534 20.9638 48.0723 21.1308 48.5976 20.6055Z" fill="#F6FAFD"/>
</svg>
