<svg width="37" height="37" viewBox="0 0 37 37" fill="none" xmlns="http://www.w3.org/2000/svg">
<g clip-path="url(#clip0)">
<path d="M18.5 37.0001C28.7173 37.0001 37.0001 28.7173 37.0001 18.5C37.0001 8.28275 28.7173 0 18.5 0C8.28275 0 0 8.28275 0 18.5C0 28.7173 8.28275 37.0001 18.5 37.0001Z" fill="#FFC10E"/>
<path d="M12.8762 18.2256C14.4808 18.2256 15.7816 15.7723 15.7816 12.746C15.7816 9.71966 14.4808 7.26636 12.8762 7.26636C11.2715 7.26636 9.9707 9.71966 9.9707 12.746C9.9707 15.7723 11.2715 18.2256 12.8762 18.2256Z" fill="#333333"/>
<path d="M23.8625 18.2256C25.4672 18.2256 26.768 15.7723 26.768 12.746C26.768 9.71966 25.4672 7.26636 23.8625 7.26636C22.2579 7.26636 20.957 9.71966 20.957 12.746C20.957 15.7723 22.2579 18.2256 23.8625 18.2256Z" fill="#333333"/>
<path d="M18.4995 28.7115C19.6103 28.7115 20.5108 27.811 20.5108 26.7002C20.5108 25.5894 19.6103 24.689 18.4995 24.689C17.3887 24.689 16.4883 25.5894 16.4883 26.7002C16.4883 27.811 17.3887 28.7115 18.4995 28.7115Z" fill="#333333"/>
</g>
<defs>
<clipPath id="clip0">
<rect width="37" height="37" fill="white"/>
</clipPath>
</defs>
</svg>
