<svg width="56" height="56" viewBox="0 0 56 56" fill="none" xmlns="http://www.w3.org/2000/svg">
<g clip-path="url(#clip0)">
<path d="M50.806 32.9409L46.9758 36.8752L26.5232 28.254L15.8827 26.1997C15.6071 20.1842 14.7358 6.55369 26.8076 3.79798C36.0977 1.67688 44.0825 7.4778 44.0825 7.4778C44.0825 7.4778 64.1022 7.45997 50.806 32.9409Z" fill="#B16E3D"/>
<path d="M25.9179 24.4528L18.6739 34.5649L15.8827 26.1998C15.6071 20.1843 14.7358 6.55373 26.8076 3.79803C36.0975 1.67681 44.0823 7.47773 44.0823 7.47773C27.9434 4.35672 24.2625 18.1252 25.9179 24.4528Z" fill="#985E33"/>
<path d="M16.494 34.2056C13.8749 33.6991 12.1623 31.1653 12.6688 28.5462C12.7385 28.1857 12.8467 27.8425 12.9881 27.5197C14.1302 24.9141 18.0545 26.1365 17.5144 28.9298L47.8652 34.7992C48.4054 32.0059 52.5024 32.3347 52.5907 35.1782C52.6016 35.5304 52.574 35.8893 52.5043 36.2497C51.9978 38.8688 49.464 40.5814 46.8449 40.0749" fill="#EAAC9D"/>
<path d="M44.4167 55.9999H17.6729L18.3253 52.8225C18.8619 50.2063 20.9004 48.2179 23.4298 47.6824C23.874 47.5878 24.3338 47.5388 24.8037 47.5388H37.2861C37.7548 47.5388 38.2146 47.5878 38.6587 47.6824C41.1881 48.2179 43.2278 50.2063 43.7644 52.8225L44.4167 55.9999Z" fill="#90DFC3"/>
<path d="M27.3365 47.5387C27.0581 47.5387 26.7854 47.5877 26.5215 47.6823C25.0186 48.2178 23.8084 50.2061 23.4889 52.8224L23.1015 55.9998H17.6719L18.3243 52.8225C18.8609 50.2062 20.8994 48.2179 23.4288 47.6824C23.873 47.5878 24.3328 47.5388 24.8027 47.5388H27.3365V47.5387Z" fill="#66B49D"/>
<path d="M34.7438 41.3599V47.5387C34.7438 49.5816 33.0872 51.2382 31.0443 51.2382C29.0003 51.2382 27.3438 49.5816 27.3438 47.5387V41.3599H34.7438Z" fill="#FFCBBE"/>
<path d="M17.225 31.2641C16.9075 31.2641 16.6043 31.0813 16.4656 30.7734C16.4531 30.7464 15.9071 29.5925 15.0661 29.7563C14.6145 29.8442 14.1777 29.5497 14.0897 29.0985C14.0018 28.6472 14.2964 28.21 14.7476 28.1221C16.4634 27.7879 17.59 29.2037 17.9852 30.0931C18.1721 30.5132 17.9828 31.0052 17.5627 31.192C17.4528 31.241 17.338 31.2641 17.225 31.2641Z" fill="#DF9380"/>
<path d="M47.5759 37.1307C47.3571 37.1307 47.1388 37.0454 46.9757 36.8754C46.6588 36.545 46.6664 36.0224 46.9949 35.7034C47.0414 35.6584 47.467 35.2546 48.0932 34.9678C49.0239 34.5413 49.9618 34.5818 50.734 35.0816C51.12 35.3314 51.2304 35.8469 50.9804 36.2329C50.7306 36.6189 50.2153 36.7293 49.8292 36.4793C49.105 36.0106 48.1604 36.8927 48.151 36.9016C47.9898 37.0545 47.7826 37.1307 47.5759 37.1307Z" fill="#DF9380"/>
<path d="M32.2533 51.0365C31.8747 51.1667 31.4684 51.2379 31.0453 51.2379C29.0013 51.2379 27.3447 49.5813 27.3447 47.5384V41.3596H29.7606V47.5384C29.7606 49.1595 30.8026 50.5366 32.2533 51.0365Z" fill="#EAAC9D"/>
<path d="M34.7439 41.3599V47.5387L27.3438 47.0522V41.3599H34.7439Z" fill="#EAAC9D"/>
<path d="M48.7939 29.9961L47.298 37.7317C46.1168 43.8396 40.2076 47.8348 34.0984 46.6533L25.8688 45.0618C19.7609 43.8805 15.766 37.9702 16.9472 31.8622L18.4011 24.3442C20.7931 24.4767 23.3539 24.5332 25.9185 24.4531C32.1356 24.2607 38.3825 23.2632 42.3389 20.5891C42.3388 20.5892 43.0896 27.9881 48.7939 29.9961Z" fill="#FFCBBE"/>
<path d="M33.1355 46.4671L25.8688 45.0618C19.7609 43.8806 15.766 37.9703 16.9472 31.8622L18.4011 24.3442C20.7931 24.4768 23.3539 24.5332 25.9185 24.4532L24.2139 33.2676C23.0327 39.3754 27.0264 45.2856 33.1355 46.4671Z" fill="#EAAC9D"/>
<path d="M43.4071 37.7897C43.5685 36.9553 42.587 36.0637 41.2147 35.7982C39.8425 35.5327 38.5993 35.9938 38.4378 36.8282C38.2764 37.6626 39.2579 38.5542 40.6301 38.8197C42.0024 39.0852 43.2456 38.6241 43.4071 37.7897Z" fill="#E490B7"/>
<path d="M25.5262 34.3353C25.6877 33.501 24.7061 32.6093 23.3339 32.3438C21.9617 32.0783 20.7184 32.5395 20.557 33.3739C20.3955 34.2082 21.3771 35.0999 22.7493 35.3654C24.1215 35.6309 25.3648 35.1697 25.5262 34.3353Z" fill="#E490B7"/>
<path d="M25.613 34.6759C24.9403 38.154 27.2147 41.5189 30.6929 42.1916C34.1712 42.8643 37.536 40.5899 38.2086 37.1117L25.613 34.6759Z" fill="#454045"/>
<path d="M35.1612 41.4227C33.8623 42.1876 32.2892 42.5002 30.6922 42.1914C29.0952 41.8827 27.7521 41.006 26.832 39.8121C28.132 39.0474 29.7051 38.7348 31.3021 39.0436C32.8991 39.3524 34.2411 40.2288 35.1612 41.4227Z" fill="#DD636E"/>
<path d="M27.7642 31.5326C27.7118 31.5326 27.6586 31.5275 27.6052 31.5173C27.1539 31.43 26.8586 30.9933 26.9459 30.5419C27.1669 29.3991 26.4171 28.2897 25.2745 28.0688C24.7208 27.9618 24.1587 28.0767 23.6917 28.3924C23.2246 28.7082 22.9083 29.1868 22.8014 29.7404C22.7141 30.1919 22.2771 30.487 21.826 30.3997C21.3746 30.3124 21.0794 29.8757 21.1667 29.4243C21.3582 28.4341 21.9238 27.5777 22.7594 27.0129C23.595 26.4482 24.6004 26.2426 25.5907 26.4341C27.6348 26.8293 28.9762 28.814 28.5809 30.858C28.5037 31.256 28.155 31.5326 27.7642 31.5326Z" fill="#DF9380"/>
<path d="M43.4752 34.5709C43.4227 34.5709 43.3696 34.5659 43.3162 34.5556C42.8648 34.4683 42.5696 34.0316 42.6569 33.5802C42.764 33.0266 42.649 32.4645 42.3333 31.9974C42.0176 31.5303 41.5388 31.2141 40.9854 31.107C39.8424 30.8861 38.7333 31.6359 38.5123 32.7786C38.425 33.2301 37.9879 33.5251 37.5369 33.4379C37.0855 33.3506 36.7903 32.9138 36.8776 32.4625C37.2729 30.4183 39.2578 29.0771 41.3016 29.4723C42.2918 29.6638 43.1482 30.2293 43.713 31.065C44.2778 31.9006 44.4833 32.9061 44.2918 33.8963C44.2147 34.2944 43.8661 34.5709 43.4752 34.5709Z" fill="#DF9380"/>
<path d="M18.1798 5.43926L11.6904 0.220646C11.684 0.215505 11.6776 0.210474 11.671 0.205552C11.3424 -0.0431664 10.9006 -0.068432 10.5459 0.141349C10.191 0.351021 10.0001 0.750131 10.0596 1.15799C10.0606 1.16455 10.0615 1.17122 10.0628 1.17779L11.4631 9.39611C11.5322 9.80211 11.8844 10.0889 12.2828 10.0889C12.3292 10.0889 12.3764 10.085 12.4236 10.077C12.8769 9.99976 13.1817 9.56969 13.1045 9.11644L12.8521 7.63529L15.969 5.79779L17.1366 6.73666C17.495 7.02486 18.0189 6.96788 18.3071 6.60957C18.595 6.25136 18.5381 5.72735 18.1798 5.43926ZM12.5527 5.87894L11.9942 2.60163L14.5819 4.6826L12.5527 5.87894Z" fill="#DD636E"/>
<path d="M10.6149 11.1288C11.0109 10.8953 11.1428 10.3849 10.9093 9.98886L6.89633 3.18158C6.66281 2.78553 6.15258 2.65374 5.75642 2.88714C5.36038 3.12066 5.22847 3.631 5.46199 4.02705L6.97683 6.59681L3.7005 8.52838L2.18555 5.95861C1.95203 5.56256 1.44169 5.43066 1.04564 5.66417C0.649595 5.89769 0.517689 6.40803 0.751205 6.80408L4.76417 13.6114C4.91949 13.8747 5.19708 14.0212 5.48211 14.0212C5.62583 14.0212 5.77141 13.984 5.90408 13.9057C6.30013 13.6722 6.43203 13.1618 6.19852 12.7658L4.54597 9.96261L7.8223 8.03116L9.47485 10.8344C9.63016 11.0978 9.90775 11.2443 10.1928 11.2443C10.3365 11.2443 10.4822 11.2071 10.6149 11.1288Z" fill="#DD636E"/>
<path d="M13.2301 15.3144C13.2257 15.3075 13.2213 15.3006 13.2168 15.2938C12.9868 14.9518 12.5776 14.7845 12.1736 14.8674C11.7699 14.9504 11.4596 15.2656 11.3832 15.6706C11.382 15.6772 11.3808 15.6839 11.3797 15.6905L10.0325 23.9177C9.95828 24.3714 10.2658 24.7995 10.7195 24.8738C10.765 24.8812 10.8104 24.8848 10.855 24.8848C11.2556 24.8848 11.6087 24.5949 11.6756 24.1867L11.9184 22.7039L15.4633 21.9794L16.2623 23.2468C16.5074 23.6357 17.0214 23.7524 17.4105 23.5071C17.7995 23.2619 17.9161 22.7479 17.6709 22.3589L13.2301 15.3144ZM12.2064 20.9457L12.7436 17.6649L14.5144 20.474L12.2064 20.9457Z" fill="#DD636E"/>
<path d="M7.7345 16.5562C7.64241 16.1058 7.20283 15.8153 6.75209 15.9073C6.30169 15.9994 6.01108 16.4391 6.10317 16.8896L6.70047 19.8122L2.97417 20.5737L2.37688 17.6511C2.28478 17.2006 1.84542 16.91 1.39447 17.0022C0.944063 17.0943 0.653453 17.5341 0.745547 17.9845L2.32788 25.7265C2.40848 26.1208 2.75531 26.3925 3.14261 26.3925C3.19784 26.3925 3.25395 26.3869 3.31017 26.3754C3.76058 26.2833 4.05119 25.8435 3.95909 25.3931L3.30755 22.205L7.03384 21.4434L7.68539 24.6316C7.766 25.0259 8.11283 25.2975 8.50012 25.2975C8.55536 25.2975 8.61147 25.292 8.66769 25.2805C9.11809 25.1884 9.4087 24.7486 9.31661 24.2982L7.7345 16.5562Z" fill="#DD636E"/>
<path d="M12.1439 46.5133C11.8675 46.5133 11.5972 46.3758 11.439 46.1248C11.1938 45.736 11.3101 45.2218 11.6991 44.9766L14.5173 43.199C14.9064 42.9537 15.4204 43.0702 15.6656 43.4591C15.9108 43.848 15.7944 44.3621 15.4055 44.6074L12.5872 46.3849C12.4494 46.4719 12.2957 46.5133 12.1439 46.5133Z" fill="#F4DD45"/>
<path d="M11.4243 42.4079C11.0173 42.4079 10.6614 42.1092 10.6015 41.6946C10.5355 41.2396 10.851 40.8173 11.3061 40.7513L13.8037 40.3897C14.2589 40.3237 14.681 40.6393 14.7468 41.0943C14.8128 41.5493 14.4973 41.9716 14.0422 42.0376L11.5446 42.3991C11.5042 42.4051 11.4639 42.4079 11.4243 42.4079Z" fill="#F4DD45"/>
<path d="M15.5379 48.9295C15.3788 48.9295 15.2182 48.8841 15.0761 48.7891C14.6938 48.5336 14.591 48.0165 14.8465 47.6343L16.2489 45.5361C16.5043 45.1539 17.0213 45.0511 17.4036 45.3067C17.7858 45.5622 17.8887 46.0792 17.6332 46.4614L16.2307 48.5596C16.0702 48.7997 15.8065 48.9295 15.5379 48.9295Z" fill="#F4DD45"/>
</g>
<defs>
<clipPath id="clip0">
<rect width="56" height="56" fill="white"/>
</clipPath>
</defs>
</svg>
