<svg width="70" height="75" viewBox="0 0 70 75" fill="none" xmlns="http://www.w3.org/2000/svg">
<path d="M41.0682 7.92224L19.4953 1.67443C19.1267 1.56768 18.7325 1.71365 18.5261 2.03319C15.8311 6.20308 13.7591 11.4503 12.7545 16.9317L38.6125 24.4205C40.7013 19.2279 41.7451 13.6888 41.6959 8.74351C41.6919 8.36302 41.4369 8.02902 41.0682 7.92224Z" fill="#D9F2FC"/>
<path d="M41.0639 7.92059L31.3676 5.11241C27.1518 9.295 24.6128 14.6053 23.805 20.1317L38.6083 24.4189C40.697 19.2263 41.7409 13.6872 41.6916 8.74186C41.6877 8.36137 41.4326 8.02737 41.0639 7.92059Z" fill="#EBF8FC"/>
<path d="M15.834 17.2391L15.8364 17.2398C16.9159 11.7555 18.9914 6.77475 21.4994 2.89432C21.7058 2.57474 22.0999 2.42874 22.4686 2.53553L19.4935 1.67391C19.1249 1.56716 18.7307 1.71313 18.5243 2.03267C15.9629 5.99588 13.9234 10.9865 12.8612 16.3782C12.8249 16.5624 12.7863 16.7472 12.7527 16.9311C13.1252 17.039 15.3553 17.6849 15.7277 17.7928C15.7277 17.7928 15.8283 17.2678 15.834 17.2391Z" fill="#94D6EA"/>
<path d="M45.5292 29.3422C43.8684 26.6579 40.6117 26.6665 40.4039 26.9935C38.0765 30.6468 41.0391 35.3122 45.3128 34.9284C45.6702 34.8964 47.2232 32.0813 45.5292 29.3422Z" fill="#9AD14B"/>
<path d="M44.0017 28.0366C44.061 27.9433 44.1356 27.9291 44.2317 27.921C43.2007 27.1431 41.8994 26.7638 40.5891 26.8818C40.5128 26.8885 40.444 26.9302 40.4032 26.9945C38.0911 30.6235 41.001 35.2789 45.2679 34.9324C43.1484 33.3341 42.5197 30.3629 44.0017 28.0366Z" fill="#81B22B"/>
<path d="M55.25 32.828C51.7083 32.594 48.4148 34.3453 46.6549 37.3984C46.617 37.4643 46.612 37.5441 46.6416 37.6146C47.2173 38.9875 48.1332 40.2183 49.2909 41.174C49.3886 41.2545 49.5314 41.2493 49.6219 41.1618C51.6376 39.2136 55.0662 40.2897 55.5686 43.0758C55.591 43.2005 55.7047 43.2874 55.8297 43.2788C58.9081 43.078 61.6615 41.3698 63.1949 38.7089C63.2319 38.6445 63.2376 38.5665 63.2099 38.4971C61.8955 35.1808 58.3792 33.0385 55.25 32.828Z" fill="#9AD14B"/>
<path d="M48.4607 40.0966C51.4981 34.8265 58.7764 33.8608 63.1741 38.4149C61.8153 35.1542 58.3967 33.0421 55.2493 32.8304C51.7076 32.5964 48.4141 34.3477 46.6542 37.4008C46.6163 37.4668 46.6113 37.5465 46.6409 37.617C47.0796 38.6633 47.7165 39.6265 48.5068 40.4491C48.4489 40.317 48.3885 40.2221 48.4607 40.0966Z" fill="#81B22B"/>
<path d="M45.6085 38.856C45.1171 38.7076 44.8382 38.1929 44.9851 37.7061C45.092 37.352 47.6909 28.9836 55.2267 24.3759C55.6622 24.1094 56.2348 24.2448 56.5053 24.6785C56.7759 25.1121 56.6421 25.6795 56.2065 25.9459C49.2619 30.1921 46.7883 38.1631 46.7642 38.2431C46.6233 38.7098 46.1278 39.0064 45.6085 38.856Z" fill="#A0814A"/>
<path d="M18.3906 38.805L12.3921 59.5171L16.1614 60.6087C16.438 59.6534 21.9755 40.5332 22.1599 39.8966C20.8492 39.8688 19.5561 39.5085 18.3906 38.805Z" fill="#BEE2ED"/>
<path d="M20.203 39.597C19.5716 39.4141 18.9444 39.1358 18.3906 38.8016L12.3921 59.5137L14.2768 60.0595L20.203 39.597Z" fill="#82C8D8"/>
<path d="M22.0871 40.1437L22.1593 39.8942C21.819 39.8869 21.4934 39.8572 21.1627 39.8079C21.4933 39.9514 21.8002 40.0606 22.0871 40.1437Z" fill="#82C8D8"/>
<path d="M31.4303 21.7548L12.8613 16.377C10.6015 27.8739 13.5528 38.023 20.1098 39.9221C26.667 41.8211 34.5853 34.8199 38.8192 23.8947L34.5244 22.6509" fill="#E5415C"/>
<path d="M21.6397 40.2036C16.2021 37.369 13.8333 28.1812 15.7314 17.7926L15.7302 17.7922C15.7302 17.7922 15.8308 17.2672 15.8364 17.2386C15.4641 17.1307 13.2338 16.4848 12.8613 16.377C11.4412 23.5979 11.6878 34.3254 17.5806 38.664C18.8119 39.5674 20.1838 40.0821 21.6397 40.2036Z" fill="#C62A48"/>
<path d="M23.8965 19.5721C22.7623 26.3207 24.313 33.0402 27.8744 38.5146C32.1373 35.9483 36.1875 30.6779 38.8167 23.8933C38.1691 23.7057 24.5548 19.7628 23.8965 19.5721Z" fill="#F25A78"/>
<path d="M43.797 45.1714C45.8022 45.7521 47.8943 44.6123 48.4697 42.6255C49.0451 40.6386 47.886 38.5572 45.8808 37.9765C43.8756 37.3957 41.7835 38.5356 41.2081 40.5224C40.6327 42.5092 41.7918 44.5907 43.797 45.1714Z" fill="#8F9ED8"/>
<path d="M52.8585 54.6401C54.8636 55.2209 56.9556 54.081 57.531 52.0943C58.1064 50.1075 56.9473 48.0261 54.9422 47.4454C52.937 46.8647 50.8451 48.0045 50.2697 49.9913C49.6943 51.978 50.8533 54.0594 52.8585 54.6401Z" fill="#8F9ED8"/>
<path d="M31.0714 48.3297C33.0767 48.9105 35.1687 47.7706 35.7441 45.7838C36.3195 43.7969 35.1604 41.7155 33.1552 41.1348C31.15 40.554 29.0579 41.6939 28.4825 43.6807C27.9071 45.6676 29.0662 47.749 31.0714 48.3297Z" fill="#8F9ED8"/>
<path d="M45.5978 52.5358C47.603 53.1165 49.695 51.9767 50.2705 49.9898C50.8459 48.003 49.6868 45.9216 47.6816 45.3408C45.6763 44.7601 43.5843 45.9 43.0089 47.8868C42.4335 49.8736 43.5926 51.955 45.5978 52.5358Z" fill="#8F9ED8"/>
<path d="M38.336 50.4342C40.3412 51.0149 42.4332 49.8751 43.0085 47.8883C43.5839 45.9016 42.4249 43.8202 40.4197 43.2395C38.4146 42.6588 36.3226 43.7986 35.7472 45.7853C35.1718 47.7721 36.3309 49.8535 38.336 50.4342Z" fill="#8F9ED8"/>
<path d="M41.9025 65.2842C43.9077 65.8649 45.9997 64.7251 46.5752 62.7382C47.1506 60.7514 45.9915 58.67 43.9863 58.0892C41.981 57.5085 39.889 58.6484 39.3136 60.6352C38.7382 62.622 39.8973 64.7034 41.9025 65.2842Z" fill="#8F9ED8"/>
<path d="M34.6456 63.1794C36.6508 63.7602 38.7427 62.6203 39.3181 60.6336C39.8935 58.6468 38.7345 56.5654 36.7293 55.9847C34.7241 55.404 32.6322 56.5438 32.0568 58.5306C31.4814 60.5173 32.6404 62.5987 34.6456 63.1794Z" fill="#8F9ED8"/>
<path d="M36.5362 43.0664C38.5414 43.6471 40.6333 42.5073 41.2087 40.5205C41.7841 38.5338 40.6251 36.4524 38.6199 35.8717C36.6148 35.291 34.5228 36.4308 33.9474 38.4175C33.372 40.4043 34.5311 42.4857 36.5362 43.0664Z" fill="#8F9ED8"/>
<path d="M40.1134 57.8805C42.1186 58.4612 44.2107 57.3214 44.7861 55.3346C45.3615 53.3477 44.2024 51.2663 42.1972 50.6856C40.192 50.1048 38.0999 51.2447 37.5245 53.2315C36.9491 55.2183 38.1082 57.2998 40.1134 57.8805Z" fill="#8F9ED8"/>
<path d="M47.379 59.9851C49.3842 60.5658 51.4761 59.426 52.0515 57.4392C52.6269 55.4525 51.4679 53.3711 49.4627 52.7904C47.4575 52.2097 45.3656 53.3495 44.7902 55.3363C44.2148 57.323 45.3738 59.4044 47.379 59.9851Z" fill="#8F9ED8"/>
<path d="M32.8526 55.7757C34.8578 56.3565 36.9498 55.2167 37.5251 53.2299C38.1005 51.2431 36.9415 49.1618 34.9363 48.581C32.9312 48.0003 30.8392 49.1401 30.2638 51.1269C29.6884 53.1137 30.8475 55.195 32.8526 55.7757Z" fill="#8F9ED8"/>
<path d="M51.0587 47.2725C53.0639 47.8532 55.1558 46.7134 55.7312 44.7266C56.3066 42.7398 55.1475 40.6585 53.1424 40.0777C51.1372 39.497 49.0453 40.6368 48.4699 42.6236C47.8945 44.6104 49.0535 46.6917 51.0587 47.2725Z" fill="#8F9ED8"/>
<path d="M47.3422 38.7765C45.2713 36.9449 41.9737 37.8718 41.207 40.5193C40.6316 42.506 41.7908 44.5874 43.7958 45.1681C44.3559 45.3303 44.9227 45.358 45.4613 45.2709C43.0892 43.1725 44.2108 39.2834 47.3422 38.7765Z" fill="#5B72BC"/>
<path d="M56.4035 48.2455C54.3329 46.4138 51.0352 47.3409 50.2685 49.9884C49.502 52.6348 51.7924 55.1816 54.5226 54.7398C52.1508 52.6414 53.2724 48.7525 56.4035 48.2455Z" fill="#5B72BC"/>
<path d="M34.6165 41.9348C32.5456 40.1032 29.2481 41.0302 28.4814 43.6776C27.7149 46.3241 30.0054 48.8706 32.7356 48.4291C30.3636 46.3308 31.4851 42.4417 34.6165 41.9348Z" fill="#5B72BC"/>
<path d="M49.1429 46.141C47.0724 44.3092 43.7745 45.2363 43.0077 47.8837C42.2413 50.5301 44.5319 53.0771 47.2621 52.6352C44.8898 50.5368 46.0116 46.6478 49.1429 46.141Z" fill="#5B72BC"/>
<path d="M41.8812 44.0395C39.8099 42.2079 36.5128 43.1348 35.7461 45.7823C34.9796 48.4289 37.27 50.9751 40.0003 50.5338C37.6283 48.4355 38.7498 44.5464 41.8812 44.0395Z" fill="#5B72BC"/>
<path d="M45.4476 58.8895C43.3775 57.0577 40.0792 57.9846 39.3124 60.6321C38.546 63.2785 40.8366 65.8255 43.5668 65.3837C41.1945 63.2853 42.3163 59.3963 45.4476 58.8895Z" fill="#5B72BC"/>
<path d="M38.1907 56.7849C36.1201 54.9532 32.8224 55.8799 32.0556 58.5276C31.2891 61.1742 33.5796 63.7204 36.3099 63.2791C33.938 61.1808 35.0593 57.2917 38.1907 56.7849Z" fill="#5B72BC"/>
<path d="M40.0815 36.6717C38.0106 34.8402 34.713 35.7671 33.9462 38.4145C33.1796 41.0616 35.4713 43.608 38.2006 43.166C35.8282 41.0676 36.9499 37.1791 40.0815 36.6717Z" fill="#5B72BC"/>
<path d="M43.6586 51.4856C41.5877 49.654 38.2901 50.5808 37.5234 53.2283C36.7567 55.8755 39.0483 58.4215 41.7777 57.98C39.4055 55.8816 40.5273 51.9924 43.6586 51.4856Z" fill="#5B72BC"/>
<path d="M50.9241 53.5905C48.8534 51.7588 45.5557 52.6858 44.789 55.3332C44.0223 57.9804 46.3137 60.5267 49.0432 60.0849C46.6668 57.9825 47.7987 54.0964 50.9241 53.5905Z" fill="#5B72BC"/>
<path d="M36.3979 49.3811C34.3271 47.5496 31.0294 48.4763 30.2627 51.1238C29.4962 53.7703 31.7866 56.3172 34.517 55.8755C32.1449 53.7767 33.2663 49.8881 36.3979 49.3811Z" fill="#5B72BC"/>
<path d="M54.6038 40.8779C52.5329 39.0461 49.2354 39.9732 48.4687 42.6207C47.702 45.2678 49.9936 47.8144 52.7229 47.3721C50.347 45.2707 51.4777 41.3842 54.6038 40.8779Z" fill="#5B72BC"/>
<path d="M21.0913 61.5989C19.4548 61.125 8.93279 58.0776 7.85544 57.7656C4.5139 56.7978 3.31137 59.8127 3.101 60.4366L23.6823 66.3972C23.8381 65.7574 24.4324 62.5665 21.0913 61.5989Z" fill="#D9F2FC"/>
<path d="M11.8107 58.9111C9.99558 58.3854 9.72506 58.3071 7.85544 57.7656C4.5139 56.7978 3.31137 59.8127 3.101 60.4366L7.05624 61.5821C7.26665 60.958 8.46914 57.9433 11.8107 58.9111Z" fill="#AEDEED"/>
</svg>
