<svg width="58" height="58" viewBox="0 0 58 58" fill="none" xmlns="http://www.w3.org/2000/svg">
<g clip-path="url(#clip0)">
<path d="M44.7325 12.731L27.7169 11.3506C26.5952 11.2596 26.0176 12.6134 26.8358 13.3848L29.3804 15.784C34.8453 20.9366 37.1982 27.0369 37.1917 27.0252C39.8426 33.2994 48.59 34.2817 52.5376 27.7777C56.3575 21.5769 52.2241 13.3388 44.7325 12.731Z" fill="#B2EDFF"/>
<path d="M42.2026 21.6394C42.2129 21.6478 37.7695 16.8514 30.7856 14.0873L27.5339 12.8002C27.0278 12.5999 26.7758 12.1518 26.7717 11.7053C26.3628 12.1428 26.3073 12.8855 26.8367 13.3847L29.3813 15.7838C34.8462 20.9364 37.1991 27.0367 37.1926 27.0251C39.8436 33.2993 48.5909 34.2816 52.5386 27.7775C53.6764 25.9305 54.1083 23.9029 53.9562 21.9498C50.7271 24.9107 45.5555 25.0362 42.2026 21.6394Z" fill="#59D8FF"/>
<path d="M41.0505 39.9726L33.0051 31.7174C32.3077 31.0019 31.1281 31.5267 31.1625 32.5295L31.2246 34.3315C31.4122 39.7748 30.125 44.0178 30.1758 43.8226C28.9472 48.5442 33.2734 53.017 38.1001 51.6224C43.1712 50.122 44.7429 43.7613 41.0505 39.9726Z" fill="#B2EDFF"/>
<path d="M34.0853 43.9149C34.0847 44.1166 34.2749 39.687 32.738 34.4616L32.2291 32.7318C32.0745 32.2062 32.3063 31.7291 32.6873 31.4883C32.0001 31.159 31.1321 31.6671 31.1618 32.5293L31.2239 34.3314C31.4114 39.7747 30.1243 44.0177 30.1751 43.8224C28.9465 48.5441 33.2727 53.0169 38.0994 51.6222C39.0094 51.3529 39.806 50.9265 40.4805 50.3873C37.1206 50.3784 34.0744 47.6138 34.0853 43.9149Z" fill="#59D8FF"/>
<path d="M21.898 29.6731C19.17 25.3905 16.0209 20.9362 14.4361 13.1185C14.0446 11.8528 12.3258 11.7263 11.7903 12.9386L4.51465 29.405C1.29558 36.6907 7.01707 44.7012 14.7479 44.2387C21.9268 43.8101 25.8758 35.6645 21.898 29.6731Z" fill="#B2EDFF"/>
<path d="M10.2189 30.7055L13.1533 12.9439C13.2058 12.6263 13.3459 12.3684 13.5375 12.1751C12.8969 11.9541 12.1199 12.1925 11.7904 12.9381L4.51488 29.4046C1.29581 36.6903 7.0173 44.7008 14.7481 44.2383C16.3582 44.1422 17.8052 43.6569 19.0375 42.8957C13.5706 42.033 9.20645 36.8348 10.2189 30.7055Z" fill="#59D8FF"/>
</g>
<defs>
<clipPath id="clip0">
<rect width="45.7727" height="45.7727" fill="white" transform="translate(13.5527) rotate(17.2223)"/>
</clipPath>
</defs>
</svg>
