<svg width="100" height="101" viewBox="0 0 100 101" fill="none" xmlns="http://www.w3.org/2000/svg">
<g clip-path="url(#clip0)">
<path d="M23.7783 92.1343L95.4082 70.6225L96.8423 75.3979L25.2124 96.9096L23.7783 92.1343Z" fill="#C18E59"/>
<path d="M33.3296 89.2659L31.8955 84.4906L84.4241 68.7153L85.8582 73.4907" fill="#976947"/>
<path d="M73.6786 71.9401L70.8104 62.3895L79.1672 59.8798L76.6575 51.523C75.0735 46.2486 69.513 43.2566 64.2386 44.8406C60.7049 45.9018 56.8963 44.492 54.9053 41.3859L53.3721 38.9934L53.086 38.0408C52.3603 35.6245 52.7728 33.0108 54.2055 30.9341C55.6386 28.8587 56.0507 26.2438 55.325 23.8275L54.6804 21.681C52.8981 15.7465 46.6437 12.381 40.7091 14.1633L39.5153 14.5218C33.5808 16.3041 30.2153 22.5585 31.9976 28.493L31.7611 36.3731L34.1487 35.656L35.9414 41.6252L40.7167 40.1911L41.4338 42.5787L41.4723 45.42C41.5221 49.1092 39.1204 52.384 35.5867 53.4453C30.3123 55.0292 27.3203 60.5898 28.9042 65.8641L31.4139 74.221L39.7708 71.7112L42.639 81.2619" fill="#8892A0"/>
<path d="M40.0453 72.626C49.8076 65.0153 53.8895 49.3844 49.1916 33.7416C46.929 26.2074 42.9635 19.8027 38.0861 15.0723C33.0599 17.3614 30.3647 23.0566 31.9974 28.4933L31.761 36.3734L34.1486 35.6563L35.9413 41.6255L40.7166 40.1914L41.4336 42.579L41.4722 45.4203C41.522 49.1095 39.1203 52.3843 35.5865 53.4456C30.3122 55.0295 27.3201 60.5901 28.9041 65.8644L31.4138 74.2213L39.7706 71.7116L40.0453 72.626Z" fill="#C1C8D1"/>
<path d="M49.4076 72.7225L40.8466 75.2935L40.1296 72.9058L48.6905 70.3348C50.5493 69.7766 52.0798 68.5282 52.9995 66.8191L55.1945 68.0002C53.9591 70.2961 51.9039 71.9728 49.4076 72.7225Z" fill="#758190"/>
<path d="M71.8858 65.9715L63.3248 68.5425C60.8285 69.2922 58.1896 69.0253 55.8937 67.7899L57.0748 65.5948C58.7839 66.5145 60.749 66.7131 62.6078 66.1549L71.1688 63.5838L71.8858 65.9715Z" fill="#758190"/>
<path d="M64.2373 44.8417C63.2559 45.1364 62.256 45.2219 61.2773 45.1527L59.2003 46.3882C56.0699 48.2511 53.9168 51.3784 53.2924 54.968L53.2214 55.3772L55.678 55.8043L55.7491 55.3951C56.2466 52.5229 57.9697 50.0219 60.4752 48.5315L64.8743 45.9141C65.3401 45.6363 65.5591 45.0915 65.4411 44.5686C65.0396 44.6358 64.6372 44.7216 64.2373 44.8417Z" fill="#758190"/>
<path d="M35.645 54.6901L40.7583 54.4508C43.6704 54.3142 46.4851 55.4524 48.4839 57.5749L48.7686 57.8772L50.5835 56.1673L50.2988 55.865C47.8012 53.2129 44.2813 51.7893 40.6414 51.9597L38.2273 52.073C37.4502 52.6708 36.5686 53.1503 35.5873 53.445C35.1874 53.5651 34.8043 53.7153 34.4306 53.8796C34.6206 54.3821 35.1035 54.7161 35.645 54.6901Z" fill="#758190"/>
</g>
<defs>
<clipPath id="clip0">
<rect width="79.7763" height="79.7763" fill="white" transform="translate(0.595703 23.6083) rotate(-16.716)"/>
</clipPath>
</defs>
</svg>
