<svg width="62" height="59" viewBox="0 0 62 59" fill="none" xmlns="http://www.w3.org/2000/svg">
<path d="M11.0996 20.2112L13.2504 12.605L14.902 13.0721L12.7511 20.6782L11.0996 20.2112Z" fill="#A56A43"/>
<path d="M33.8594 6.93054L34.9249 5.58508L41.1215 10.4925L40.0559 11.8379L33.8594 6.93054Z" fill="#A56A43"/>
<path d="M7.26772 21.2015L44.8235 9.05944C47.5289 8.18476 50.4312 9.66886 51.3058 12.3743L60.2804 40.1329C60.8635 41.9365 59.8741 43.8713 58.0705 44.4544L17.249 57.6524C15.4454 58.2355 13.5106 57.2461 12.9275 55.4425L3.95289 27.6839C3.07821 24.9784 4.56231 22.0762 7.26772 21.2015Z" fill="#A56A43"/>
<path d="M47.812 9.01266C47.313 9.85394 47.201 10.8695 47.5046 11.7993L52.2558 26.4951C52.5443 27.3966 52.0507 28.362 51.1509 28.6558L13.5951 40.7979C12.6935 41.0864 11.7282 40.5928 11.4343 39.693L6.68306 24.9973C6.38487 24.0657 5.6995 23.3079 4.80245 22.918C5.43026 22.112 6.28688 21.5145 7.26009 21.2036L44.8159 9.06153C45.7869 8.7438 46.8312 8.72677 47.812 9.01266Z" fill="#CB8252"/>
<path d="M33.7203 5.43359L14.126 11.7686C13.2242 12.0602 12.7295 13.0276 13.0211 13.9294C13.3126 14.8312 14.2801 15.3259 15.1819 15.0343L34.7762 8.69931C35.678 8.40775 36.1727 7.44034 35.8811 6.53853C35.5896 5.63673 34.6222 5.14203 33.7203 5.43359Z" fill="#CB8252"/>
<path d="M30.9818 38.781L30.7179 37.9646C29.926 35.5153 28.0292 35.2268 26.9734 31.9611C26.6079 30.8316 26.7269 29.6011 27.3019 28.5625C27.8769 27.5239 28.8566 26.77 30.0078 26.4802C32.3901 25.989 34.731 27.482 35.2903 29.8493C36.0455 32.7432 34.8695 34.0703 35.6165 36.3808L35.8804 37.1973L30.9818 38.781Z" fill="#F29C1F"/>
<path d="M30.7136 37.9678L29.6578 34.7021C29.3662 33.8003 29.8609 32.8329 30.7627 32.5413L32.3956 32.0134C33.2974 31.7218 34.2648 32.2165 34.5564 33.1183L38.2518 44.5483C38.6891 45.9011 37.9471 47.3522 36.5944 47.7895C35.2417 48.2269 33.7906 47.4848 33.3532 46.1321L30.7136 37.9678Z" fill="#F0C419"/>
<path d="M18.0749 54.6745L16.442 55.2024C15.9911 55.3482 15.5074 55.1008 15.3616 54.6499C15.2158 54.199 15.4632 53.7153 15.9141 53.5695L17.5469 53.0416C17.9978 52.8958 18.4816 53.1432 18.6273 53.5941C18.7731 54.045 18.5258 54.5287 18.0749 54.6745Z" fill="#805333"/>
<path d="M31.1435 50.451L21.3463 53.6185C20.8954 53.7643 20.4117 53.517 20.2659 53.0661C20.1201 52.6152 20.3675 52.1315 20.8184 51.9857L30.6155 48.8182C31.0664 48.6724 31.5502 48.9197 31.6959 49.3706C31.8417 49.8215 31.5944 50.3053 31.1435 50.451Z" fill="#805333"/>
<path d="M57.2643 42.0042L55.6315 42.5321C55.1806 42.6779 54.6968 42.4305 54.5511 41.9796C54.4053 41.5287 54.6526 41.045 55.1035 40.8992L56.7364 40.3713C57.1873 40.2256 57.671 40.4729 57.8168 40.9238C57.9626 41.3747 57.7152 41.8584 57.2643 42.0042Z" fill="#805333"/>
<path d="M52.369 43.5867L42.5719 46.7542C42.121 46.8999 41.6373 46.6526 41.4915 46.2017C41.3457 45.7508 41.5931 45.2671 42.044 45.1213L51.8411 41.9538C52.292 41.808 52.7757 42.0554 52.9215 42.5063C53.0673 42.9572 52.82 43.4409 52.369 43.5867Z" fill="#805333"/>
<path d="M35.88 37.1979L30.9815 38.7817C30.5306 38.9275 30.2832 39.4112 30.429 39.8621L30.9569 41.4949C31.1027 41.9458 31.5864 42.1932 32.0373 42.0474L36.9359 40.4637C37.3868 40.3179 37.6341 39.8342 37.4884 39.3833L36.9604 37.7504C36.8147 37.2995 36.331 37.0522 35.88 37.1979Z" fill="#F3D55B"/>
</svg>
