<svg width="63" height="63" viewBox="0 0 63 63" fill="none" xmlns="http://www.w3.org/2000/svg">
<g clip-path="url(#clip0)">
<path d="M40.5859 1.7335C52.8073 1.53412 62.951 10.1319 63.0008 20.7427C63.0218 25.2251 61.263 29.3499 58.303 32.6159C55.9403 35.2227 57.3473 39.0876 61.0066 40.0423C61.0402 40.0511 61.074 40.0597 61.1077 40.0684C61.7993 40.2443 61.8756 41.0759 61.2257 41.3462C59.6706 41.993 57.9293 42.356 56.0896 42.356C52.9205 42.356 50.0422 41.2808 47.9076 39.5293C47.583 39.263 47.1196 39.1701 46.688 39.27C44.6575 39.7402 42.5118 39.9654 40.2948 39.9043C28.4675 39.5786 19.0005 31.0724 19.0137 20.8003C19.0269 10.3883 28.6418 1.92831 40.5859 1.7335Z" fill="url(#paint0_linear)"/>
<path d="M23.9141 20.7177C22.2525 22.4967 20.9529 24.5406 20.1104 26.7647C22.9272 34.1794 30.8596 39.6447 40.2942 39.9046C42.5112 39.9656 44.6569 39.7406 46.6873 39.2703C47.1189 39.1704 47.5823 39.2631 47.9069 39.5296C50.0415 41.281 52.9198 42.3563 56.0889 42.3563C56.0952 42.3563 56.1015 42.3561 56.1077 42.3561L37.834 26.493C34.2493 23.2631 29.3664 21.1272 23.9141 20.7177Z" fill="url(#paint1_linear)"/>
<path d="M22.415 20.6479C10.1936 20.4486 0.0498448 29.0463 0.000185953 39.6571C-0.020814 44.1395 1.738 48.2643 4.69801 51.5303C7.06063 54.1371 5.65363 58.002 1.99432 58.9568C1.96072 58.9655 1.927 58.9742 1.89327 58.9828C1.20163 59.1587 1.12542 59.9903 1.7753 60.2606C3.33042 60.9074 5.07169 61.2705 6.91141 61.2705C10.0804 61.2705 12.9588 60.1953 15.0934 58.4437C15.418 58.1774 15.8814 58.0845 16.313 58.1844C18.3434 58.6546 20.4891 58.8798 22.7061 58.8188C34.5335 58.493 44.0005 49.9868 43.9873 39.7147C43.9739 29.3026 34.359 20.8427 22.415 20.6479Z" fill="url(#paint2_radial)"/>
<path d="M22.1026 56.7341C33.0701 56.7341 41.9611 49.0162 41.9611 39.4956C41.9611 29.975 33.0701 22.2571 22.1026 22.2571C11.1351 22.2571 2.24414 29.975 2.24414 39.4956C2.24414 49.0162 11.1351 56.7341 22.1026 56.7341Z" fill="url(#paint3_linear)"/>
<path d="M43.8677 41.7128L33.9174 31.7625C32.5488 30.316 30.7401 29.4739 28.7533 29.3771C28.623 29.3708 28.491 29.3676 28.361 29.3676C26.2845 29.3676 24.3242 30.1678 22.8413 31.6207C22.5892 31.8678 22.3564 32.1295 22.1422 32.4032C22.1002 32.3602 22.0587 32.3169 22.0157 32.2748C21.9853 32.245 21.9535 32.2174 21.9229 32.1881C21.8466 32.1067 21.7689 32.0264 21.6888 31.9478C21.6584 31.9181 21.6267 31.8903 21.5959 31.8611C21.5196 31.7798 21.442 31.6994 21.3618 31.6209C19.8789 30.1678 17.9187 29.3676 15.8423 29.3676C15.7123 29.3676 15.5803 29.3708 15.45 29.3771C13.2337 29.4852 11.2372 30.5181 9.82826 32.2859C8.307 34.1948 7.68453 36.6931 8.12047 39.1406C8.60161 41.8412 10.1178 44.4514 12.6328 46.9184L24.4264 58.712C34.6774 57.7273 42.8044 50.5774 43.8677 41.7128Z" fill="url(#paint4_linear)"/>
<path d="M22.1017 52.8393C21.5893 52.8393 21.076 52.718 20.6173 52.4885C19.2313 51.7948 16.5248 50.3074 13.9717 48.1392C10.6504 45.3186 8.68179 42.291 8.12047 39.1405C7.68453 36.6931 8.307 34.1947 9.82826 32.2859C11.2372 30.5181 13.2336 29.4852 15.45 29.3771C15.5803 29.3708 15.7123 29.3674 15.8423 29.3674C17.9187 29.3674 19.879 30.1677 21.3618 31.6207C21.6297 31.8832 21.8766 32.1617 22.1015 32.4541C22.3266 32.1618 22.5735 31.8831 22.8414 31.6207C24.3242 30.1677 26.2845 29.3674 28.361 29.3674C28.491 29.3674 28.623 29.3706 28.7533 29.3771C30.9696 29.485 32.9662 30.5181 34.3751 32.2861C35.8963 34.1948 36.5188 36.6932 36.0827 39.1406C35.5215 42.291 33.5528 45.3187 30.2315 48.1393C27.6785 50.3075 24.972 51.795 23.5859 52.4886C23.1274 52.718 22.6142 52.8393 22.1017 52.8393Z" fill="url(#paint5_linear)"/>
<path d="M34.3755 32.2867C33.8474 31.6241 33.2367 31.0646 32.5629 30.6184C33.7931 32.4453 34.27 34.7097 33.8741 36.9321C33.3129 40.0825 31.3442 43.1102 28.0229 45.9309C25.4699 48.099 22.7634 49.5865 21.3773 50.2801C20.9186 50.5096 20.4053 50.6309 19.8929 50.6309C19.3805 50.6309 18.8673 50.5096 18.4086 50.2801C17.0226 49.5865 14.3161 48.099 11.763 45.9309C11.6537 45.838 11.5459 45.7448 11.4395 45.6514C12.1706 46.4967 13.0148 47.327 13.9721 48.1399C16.5252 50.3082 19.2317 51.7955 20.6177 52.4892C21.0764 52.7187 21.5896 52.84 22.102 52.84C22.6144 52.84 23.1277 52.7187 23.5863 52.4892C24.9725 51.7955 27.679 50.3081 30.232 48.1399C33.5533 45.3193 35.5219 42.2917 36.0831 39.1412C36.5193 36.6938 35.8969 34.1954 34.3755 32.2867Z" fill="url(#paint6_linear)"/>
<path d="M28.7544 29.3771C28.624 29.3708 28.492 29.3674 28.362 29.3674C26.2855 29.3674 24.3252 30.1677 22.8424 31.6207C22.5745 31.8832 22.3276 32.1618 22.1025 32.4541V52.8394C22.6149 52.8394 23.1282 52.7181 23.5869 52.4885C24.973 51.7949 27.6795 50.3075 30.2325 48.1393C33.5538 45.3187 35.5224 42.2911 36.0837 39.1406C36.5198 36.6932 35.8974 34.1948 34.3761 32.2861C32.9672 30.5181 30.9706 29.485 28.7544 29.3771Z" fill="url(#paint7_linear)"/>
</g>
<defs>
<linearGradient id="paint0_linear" x1="27.9949" y1="7.81362" x2="57.2007" y2="37.0194" gradientUnits="userSpaceOnUse">
<stop stop-color="#FF819C"/>
<stop offset="0.2594" stop-color="#FF7E9A"/>
<stop offset="0.4757" stop-color="#FE7396"/>
<stop offset="0.6765" stop-color="#FC628E"/>
<stop offset="0.8668" stop-color="#FA4A83"/>
<stop offset="1" stop-color="#F83479"/>
</linearGradient>
<linearGradient id="paint1_linear" x1="51.8792" y1="44.0012" x2="23.0968" y2="24.6071" gradientUnits="userSpaceOnUse">
<stop stop-color="#F82814" stop-opacity="0"/>
<stop offset="1" stop-color="#C0272D"/>
</linearGradient>
<radialGradient id="paint2_radial" cx="0" cy="0" r="1" gradientUnits="userSpaceOnUse" gradientTransform="translate(14.3764 35.2885) scale(27.6324 23.9849)">
<stop stop-color="#F8F6FB"/>
<stop offset="0.3915" stop-color="#F6F0FB"/>
<stop offset="0.8982" stop-color="#F0E0FB"/>
<stop offset="1" stop-color="#EFDCFB"/>
</radialGradient>
<linearGradient id="paint3_linear" x1="21.6658" y1="38.4717" x2="10.2568" y2="11.7256" gradientUnits="userSpaceOnUse">
<stop stop-color="white" stop-opacity="0"/>
<stop offset="1" stop-color="white"/>
</linearGradient>
<linearGradient id="paint4_linear" x1="38.3686" y1="54.4327" x2="21.2451" y2="37.3091" gradientUnits="userSpaceOnUse">
<stop stop-color="#EFDCFB" stop-opacity="0"/>
<stop offset="0.4856" stop-color="#BAAAD6" stop-opacity="0.486"/>
<stop offset="1" stop-color="#8679B2"/>
</linearGradient>
<linearGradient id="paint5_linear" x1="19.7728" y1="35.0661" x2="29.6421" y2="47.389" gradientUnits="userSpaceOnUse">
<stop stop-color="#FF7044"/>
<stop offset="1" stop-color="#F82814"/>
</linearGradient>
<linearGradient id="paint6_linear" x1="25.4413" y1="44.112" x2="29.528" y2="52.8465" gradientUnits="userSpaceOnUse">
<stop stop-color="#F82814" stop-opacity="0"/>
<stop offset="1" stop-color="#C0272D"/>
</linearGradient>
<linearGradient id="paint7_linear" x1="24.4371" y1="38.6549" x2="11.4465" y2="25.4095" gradientUnits="userSpaceOnUse">
<stop stop-color="#F82814" stop-opacity="0"/>
<stop offset="1" stop-color="#C0272D"/>
</linearGradient>
<clipPath id="clip0">
<rect width="63" height="63" fill="white"/>
</clipPath>
</defs>
</svg>
