<svg width="79" height="79" viewBox="0 0 79 79" fill="none" xmlns="http://www.w3.org/2000/svg">
<g clip-path="url(#clip0)">
<path d="M8.18245 48.6342C8.90041 45.9677 11.644 44.3882 14.3105 45.1061L15.4971 45.4256C18.1635 46.1436 19.7431 48.8872 19.0252 51.5536L16.2674 61.7957C15.5495 64.4621 12.8059 66.0417 10.1394 65.3238L8.95282 65.0043C6.28636 64.2863 4.70679 61.5427 5.42474 58.8762L8.18245 48.6342Z" fill="#FF9100"/>
<path d="M37.8602 52.7913C38.5781 50.1248 41.3217 48.5453 43.9882 49.2632L45.1748 49.5827C47.8413 50.3007 49.4208 53.0443 48.7029 55.7107L44.9827 69.5273C44.2648 72.1938 41.5212 73.7733 38.8547 73.0554L37.6681 72.7359C35.0016 72.0179 33.4221 69.2743 34.14 66.6079L37.8602 52.7913Z" fill="#7FE1FF"/>
<path d="M25.4871 41.7929C26.2051 39.1264 28.9487 37.5469 31.6152 38.2648L32.6826 38.5522C35.3491 39.2702 36.9286 42.0138 36.2107 44.6803L30.5656 65.6458C29.8477 68.3123 27.1041 69.8919 24.4376 69.1739L23.3701 68.8865C20.7037 68.1685 19.1241 65.4249 19.8421 62.7585L25.4871 41.7929Z" fill="#FFD400"/>
<path d="M56.1258 42.3752C56.8438 39.7087 59.5874 38.1291 62.2538 38.8471L63.3213 39.1345C65.9877 39.8525 67.5673 42.5961 66.8494 45.2625L59.2794 73.3772C58.5614 76.0436 55.8178 77.6232 53.1514 76.9052L52.0839 76.6178C49.4175 75.8999 47.8379 73.1563 48.5558 70.4898L56.1258 42.3752Z" fill="#54E360"/>
<path d="M14.9629 45.2821L20.3247 46.7258L14.967 66.6239L9.60524 65.1802L14.9629 45.2821Z" fill="#FF7816"/>
<path d="M32.1484 38.4078L37.5102 39.8515L29.2652 70.4732L23.9034 69.0295L32.1484 38.4078Z" fill="#FDBF00"/>
<path d="M44.5215 49.4075L50.0024 50.8832L43.6823 74.3559L38.2014 72.8801L44.5215 49.4075Z" fill="#00C3FF"/>
<path d="M62.7891 38.9911L68.1508 40.4348L57.9809 78.2055L52.6191 76.7618L62.7891 38.9911Z" fill="#00CC71"/>
<path d="M32.2584 66.4762L1.75586 58.2633L0.793405 61.8378L31.2959 70.0508L61.7985 78.2637L62.7609 74.6892L32.2584 66.4762Z" fill="#4A696F"/>
<path d="M32.2578 66.4761L62.7603 74.689L61.7979 78.2635L31.2954 70.0506L32.2578 66.4761Z" fill="#3E5959"/>
<path d="M70.4492 18.6704L60.631 18.366L62.348 21.3483L50.3698 25.641L45.7871 19.7871C45.4992 19.4193 45.0724 19.187 44.6069 19.1443C44.1417 19.102 43.6797 19.2535 43.33 19.5632L35.2593 26.7109L31.0321 21.3113C30.7441 20.9435 30.3173 20.7109 29.8519 20.6685C29.3868 20.6261 28.9248 20.7777 28.5751 21.0873L19.157 29.4285C18.4566 30.0488 18.3917 31.1195 19.012 31.8199C19.2401 32.0774 19.5291 32.249 19.8381 32.3322C20.3697 32.4754 20.9604 32.3571 21.4032 31.9649L29.474 24.8172L33.7011 30.2169C33.9891 30.5847 34.4161 30.8174 34.8813 30.8596C35.3465 30.902 35.8085 30.7504 36.1582 30.4408L44.2289 23.2931L48.4561 28.6927C48.9064 29.2675 49.6741 29.4897 50.3615 29.2431L63.7784 24.4349C63.875 24.4003 63.9655 24.3565 64.0515 24.3071L65.7828 27.3142L70.4492 18.6704Z" fill="#97DE3D"/>
<path d="M60.6312 18.3665L70.4494 18.6708L65.783 27.3146L64.0518 24.3075C63.9658 24.357 63.8752 24.4007 63.7787 24.4353L50.3618 29.2436C49.6743 29.4901 48.9066 29.268 48.4563 28.6931L44.2292 23.2935L45.2888 19.3581C45.4795 19.4662 45.6494 19.6113 45.7873 19.7876L50.3701 25.6414L62.3482 21.3487L60.6312 18.3665Z" fill="#59C36A"/>
</g>
<defs>
<clipPath id="clip0">
<rect width="63.1777" height="63.1777" fill="white" transform="translate(17.2188 0.833008) rotate(15.0697)"/>
</clipPath>
</defs>
</svg>
