<svg width="42" height="41" viewBox="0 0 42 41" fill="none" xmlns="http://www.w3.org/2000/svg">
<g clip-path="url(#clip0)">
<path fill-rule="evenodd" clip-rule="evenodd" d="M25.2613 2.25887C25.2613 1.63604 25.7484 1.13113 26.3492 1.13113C26.9116 1.13221 27.3804 1.57744 27.4307 2.15811C27.4843 2.77845 27.0427 3.32644 26.4444 3.38208L25.7646 7.7886C25.7422 7.93298 25.5812 8.01419 25.448 7.96582C24.6741 7.68476 22.9302 7.50798 20.908 7.50798C18.8858 7.50798 17.1415 7.68447 16.3675 7.96546C16.2342 8.01383 16.0728 7.93247 16.0507 7.78788L15.3754 3.38208C14.8137 3.33094 14.3827 2.84315 14.3828 2.2585C14.3829 1.63567 14.87 1.13084 15.4708 1.13094C16.0716 1.13105 16.5586 1.63604 16.5585 2.25887C16.5583 2.37709 16.5399 2.49453 16.5041 2.60678L17.3869 3.18813C17.9676 3.57146 18.7331 3.44433 19.1693 2.8921L20.0342 1.7954C19.8965 1.60332 19.8221 1.37044 19.822 1.13116C19.822 0.508331 20.3091 0.00341797 20.9099 0.00341797C21.5107 0.00341797 21.9977 0.508331 21.9977 1.13116C21.9977 1.37044 21.9233 1.60332 21.7856 1.7954L22.6504 2.8921C23.0867 3.44465 23.8525 3.57181 24.4334 3.18813L25.3157 2.60678C25.2799 2.49453 25.2615 2.37709 25.2613 2.25887Z" fill="url(#paint0_linear)"/>
<path d="M20.7532 6.0515C20.1566 6.0515 19.6729 5.47466 19.6729 4.76308C19.6729 4.05152 20.1566 3.47467 20.7532 3.47467C21.3499 3.47467 21.8336 4.05152 21.8336 4.76308C21.8336 5.47466 21.3499 6.0515 20.7532 6.0515Z" fill="#F96989"/>
<path d="M20.0272 5.68416C20.6239 5.68416 21.1076 5.10732 21.1076 4.39579C21.1076 4.03514 20.9832 3.70929 20.783 3.4754C21.3647 3.49571 21.8312 4.06412 21.8312 4.76281C21.8312 5.47438 21.3476 6.05119 20.7508 6.05119C20.4566 6.05119 20.19 5.91072 19.9951 5.68316C20.0058 5.68359 20.0164 5.68416 20.0272 5.68416Z" fill="#ED5A81"/>
<path d="M27.8883 15.2311C29.6394 15.2311 31.0607 16.7158 31.0607 17.769C31.0607 18.4422 30.7933 19.0877 30.3174 19.5636C29.8414 20.0396 29.1959 20.307 28.5227 20.307H27.2538C27.6303 20.307 27.9983 20.1953 28.3113 19.9862C28.6243 19.777 28.8683 19.4797 29.0123 19.1319C29.1564 18.7841 29.1941 18.4014 29.1207 18.0322C29.0472 17.6629 28.8659 17.3238 28.5997 17.0575C28.3335 16.7913 27.9943 16.6101 27.6251 16.5366C27.2559 16.4632 26.8731 16.5008 26.5254 16.6449C26.1775 16.789 25.8802 17.0329 25.6711 17.346C25.462 17.659 25.3503 18.027 25.3503 18.4035C25.3503 18.9083 25.5509 19.3925 25.9078 19.7495C26.2648 20.1064 26.7489 20.307 27.2538 20.307H24.7158C24.7158 17.8515 26.1371 15.2311 27.8883 15.2311Z" fill="#675235"/>
<path d="M13.9293 15.2311C15.6804 15.2311 17.1017 17.8515 17.1017 20.307H14.5638C14.9402 20.307 15.3082 20.1953 15.6213 19.9862C15.9343 19.777 16.1782 19.4797 16.3223 19.1319C16.4664 18.7841 16.504 18.4014 16.4307 18.0322C16.3572 17.6629 16.1759 17.3238 15.9097 17.0575C15.6435 16.7913 15.3043 16.6101 14.9351 16.5366C14.5659 16.4632 14.1831 16.5008 13.8354 16.6449C13.4875 16.789 13.1902 17.0329 12.9811 17.346C12.772 17.659 12.6603 18.027 12.6603 18.4035C12.6603 18.9083 12.8609 19.3925 13.2178 19.7495C13.5748 20.1064 14.0589 20.307 14.5638 20.307H13.2948C12.6216 20.307 11.9761 20.0396 11.5002 19.5636C11.0242 19.0877 10.7568 18.4422 10.7568 17.769C10.7568 16.7158 12.1781 15.2311 13.9293 15.2311Z" fill="#675235"/>
<path d="M29.158 24.7485L29.1707 24.6724C29.3737 24.725 29.5828 24.7506 29.7925 24.7485C30.6726 24.736 31.5489 24.6296 32.4065 24.4313C32.549 24.3987 32.6969 24.3985 32.8394 24.4307C32.9819 24.463 33.1154 24.5268 33.2299 24.6176C33.3444 24.7084 33.4371 24.8237 33.5011 24.9551C33.565 25.0865 33.5986 25.2306 33.5994 25.3767V25.383C33.5994 25.383 35.5917 24.9833 36.4228 23.5557C36.187 24.2821 35.8586 24.9752 35.4457 25.6178C34.9445 26.405 34.3213 27.1075 33.5994 27.6989C32.5374 28.6152 31.1943 29.1412 29.7925 29.1899H24.209C24.5325 29.0059 24.7166 28.7902 24.7166 28.5554C27.521 28.5554 29.158 26.855 29.158 24.7485Z" fill="#D5CBC1"/>
<path d="M6.37262 25.6178C5.95726 24.9766 5.62869 24.2832 5.39551 23.5557C6.22669 24.9833 8.21896 25.383 8.21896 25.383V25.3767C8.21947 25.2311 8.25268 25.0874 8.31613 24.9564C8.37957 24.8253 8.47159 24.7101 8.58551 24.6194C8.69935 24.5287 8.8322 24.4647 8.97411 24.4321C9.11601 24.3996 9.26343 24.3993 9.40548 24.4313C10.2653 24.6292 11.1437 24.7355 12.0259 24.7485C12.2356 24.7506 12.4446 24.725 12.6477 24.6724L12.6604 24.7485C12.6604 26.855 14.2973 28.5554 17.1018 28.5554C17.1018 28.7902 17.2858 29.0059 17.6094 29.1899H12.0259C10.6241 29.1412 9.28098 28.6152 8.21896 27.6989C7.49705 27.1075 6.87381 26.405 6.37262 25.6178Z" fill="#D5CBC1"/>
<path d="M20.9092 24.7484C21.0346 24.7475 21.1586 24.7217 21.2739 24.6728C21.3894 24.6238 21.494 24.5524 21.5817 24.4629L22.8126 23.4794L24.7161 20.307L27.254 22.845C27.4102 23.2771 27.6646 23.667 27.9971 23.9841C28.3296 24.3012 28.7312 24.5367 29.1702 24.6723L29.1575 24.7484C29.1575 26.8549 27.5205 28.5553 24.7161 28.5553C22.1782 28.5553 20.9092 26.0174 20.9092 26.0174V24.7484Z" fill="#F2EFE8"/>
<path d="M20.9104 24.7484V26.0174C20.9104 26.0174 19.6415 28.5553 17.1035 28.5553C14.2991 28.5553 12.6621 26.8549 12.6621 24.7484L12.6494 24.6723C13.0884 24.5367 13.49 24.3012 13.8225 23.9841C14.155 23.667 14.4094 23.2771 14.5656 22.845L17.1035 20.307L19.007 23.4794L20.2379 24.4629C20.3256 24.5524 20.4302 24.6238 20.5456 24.6728C20.6611 24.7217 20.7851 24.7475 20.9104 24.7484Z" fill="#F2EFE8"/>
<path d="M22.8128 15.2311V23.4794C22.8128 22.9337 21.9626 22.2104 20.9093 22.2104C19.8561 22.2104 19.0059 22.9337 19.0059 23.4794V15.2311L20.9093 12.6931L22.8128 15.2311Z" fill="#BFB6AD"/>
<path d="M20.9088 6.98279H24.0812L22.8122 15.2311L20.9088 12.6932L19.0053 15.2311L17.7363 6.98279H20.9088Z" fill="#D5CBC1"/>
<path d="M14.5636 20.307C15.6148 20.307 16.4671 19.4547 16.4671 18.4035C16.4671 17.3523 15.6148 16.5001 14.5636 16.5001C13.5124 16.5001 12.6602 17.3523 12.6602 18.4035C12.6602 19.4547 13.5124 20.307 14.5636 20.307Z" fill="#10120D"/>
<path d="M27.254 20.307C28.3053 20.307 29.1575 19.4547 29.1575 18.4035C29.1575 17.3523 28.3053 16.5001 27.254 16.5001C26.2028 16.5001 25.3506 17.3523 25.3506 18.4035C25.3506 19.4547 26.2028 20.307 27.254 20.307Z" fill="#10120D"/>
<path d="M38.04 34.9065V36.8036C36.4728 36.8225 34.9392 37.2607 33.5986 38.0726C33.5986 36.1691 38.04 34.9001 38.04 34.9001V34.9065Z" fill="#514B3F"/>
<path d="M8.21973 38.0726C6.8791 37.2607 5.34553 36.8225 3.77832 36.8036V34.9001C3.77832 34.9001 8.21973 36.1691 8.21973 38.0726Z" fill="#514B3F"/>
<path d="M38.0406 34.9001C38.0402 33.2209 37.7304 31.5562 37.1269 29.9892L36.816 29.1707L36.7716 29.1897C36.7716 34.7986 29.6781 38.0725 20.9095 38.0725C12.1409 38.0725 5.04729 34.7986 5.04729 29.1897L5.00288 29.1707L4.69198 29.9892C4.08844 31.5562 3.77872 33.2209 3.77832 34.9001C3.77832 34.9001 8.21973 36.1691 8.21973 38.0725C6.8791 37.2606 5.34553 36.8224 3.77832 36.8036V39.976H38.0406V36.8036C36.4734 36.8224 34.9398 37.2606 33.5992 38.0725C33.5992 36.1691 38.0406 34.9001 38.0406 34.9001Z" fill="#DBD6D0"/>
<path d="M36.8151 29.1709L36.7707 29.1899C36.7707 34.7988 29.6772 38.0727 20.9086 38.0727C12.14 38.0727 5.04637 34.7988 5.04637 29.1899L5.00195 29.1709L6.37244 25.6178C6.87364 26.405 7.49688 27.1075 8.21884 27.6989V28.4793C8.22558 29.0493 8.37996 29.6079 8.66682 30.1005C8.95375 30.593 9.36338 31.0029 9.85581 31.2901C12.1463 32.6733 16.5115 34.9003 20.9086 34.9003C25.3055 34.9003 29.6708 32.6733 31.9613 31.2901C32.4537 31.0029 32.8633 30.593 33.1502 30.1005C33.4371 29.6079 33.5915 29.0493 33.5983 28.4793V27.6989C34.3202 27.1075 34.9434 26.405 35.4446 25.6178L36.8151 29.1709Z" fill="#D5CBC1"/>
<path d="M33.5992 27.6987V28.4792C33.5924 29.0492 33.4381 29.6077 33.1511 30.1003C32.8643 30.5929 32.4546 31.0028 31.9622 31.2899C29.6717 32.6731 25.3064 34.9002 20.9095 34.9002C16.5125 34.9002 12.1472 32.6731 9.8567 31.2899C9.36427 31.0028 8.95464 30.5929 8.66778 30.1003C8.38085 29.6077 8.22654 29.0492 8.21973 28.4792V27.6987C9.28175 28.6151 10.6248 29.1412 12.0266 29.1898H17.6101C18.6445 29.6583 19.7751 29.8758 20.9095 29.8243C22.0438 29.8758 23.1744 29.6583 24.2088 29.1898H29.7923C31.1941 29.1412 32.5372 28.6151 33.5992 27.6987Z" fill="#DBD6D0"/>
<path d="M27.2539 22.8449L24.716 20.307H28.5229C29.196 20.307 29.8415 20.0396 30.3175 19.5636C30.7934 19.0877 31.0608 18.4421 31.0608 17.769C31.0608 16.7158 29.6396 15.2311 27.8884 15.2311C26.1372 15.2311 24.716 17.8515 24.716 20.307L22.8125 23.4794V15.2311L24.0815 6.98275H25.3504L35.6481 0.967818C35.9664 0.751934 36.3423 0.636953 36.7267 0.637884H36.7712L28.5229 7.61723C29.7918 8.25172 33.5988 11.4241 33.5988 13.499C34.2017 13.8561 34.7107 14.3521 35.0835 14.9456C36.2693 16.8646 36.8569 19.0932 36.7712 21.3475C36.7723 21.3941 36.7701 21.4408 36.7649 21.4871C36.749 22.1893 36.6336 22.8857 36.4222 23.5555C35.5911 24.9831 33.5988 25.3828 33.5988 25.3828V25.3765C33.598 25.2304 33.5644 25.0863 33.5004 24.955C33.4365 24.8236 33.3438 24.7082 33.2293 24.6175C33.1148 24.5267 32.9813 24.4628 32.8388 24.4305C32.6963 24.3983 32.5483 24.3985 32.4059 24.4311C31.5483 24.6295 30.672 24.7359 29.7918 24.7484C29.5821 24.7505 29.3731 24.7248 29.1701 24.6722C28.7311 24.5367 28.3295 24.3011 27.9969 23.984C27.6645 23.6669 27.4101 23.277 27.2539 22.8449Z" fill="#DBD6D0"/>
<path d="M6.73402 14.9456C7.10675 14.3521 7.61576 13.8561 8.21873 13.499C8.21873 11.4241 12.0256 8.25172 13.2946 7.61723L5.04629 0.637884H5.0907C5.47524 0.636953 5.85112 0.751934 6.16933 0.967818L16.4671 6.98275H17.736L19.005 15.2311V23.4794L17.1015 20.307C17.1015 17.8515 15.6803 15.2311 13.9291 15.2311C12.1779 15.2311 10.7567 16.7158 10.7567 17.769C10.7567 18.4421 11.024 19.0877 11.5 19.5636C11.976 20.0396 12.6215 20.307 13.2946 20.307H17.1015L14.5636 22.8449C14.4074 23.277 14.153 23.6669 13.8205 23.984C13.488 24.3011 13.0864 24.5367 12.6474 24.6722C12.4444 24.7248 12.2354 24.7505 12.0256 24.7484C11.1434 24.7354 10.265 24.6291 9.40518 24.4311C9.2632 24.3991 9.11578 24.3994 8.97388 24.432C8.8319 24.4645 8.69913 24.5286 8.58528 24.6193C8.47136 24.71 8.37934 24.8252 8.3159 24.9562C8.25245 25.0873 8.21924 25.2309 8.21873 25.3765V25.3828C8.21873 25.3828 6.22643 24.9831 5.39526 23.5555C5.18387 22.8857 5.06851 22.1893 5.05263 21.4871C5.04735 21.4408 5.04524 21.3941 5.04629 21.3475C4.96058 19.0932 5.54813 16.8646 6.73402 14.9456Z" fill="#DBD6D0"/>
<path d="M5.04702 0.637878L13.2953 7.61723C12.0264 8.25171 8.21945 11.4241 8.21945 13.499C7.61648 13.8561 7.10748 14.3521 6.73475 14.9455L6.03682 14.0129C5.76224 13.6463 5.62905 13.1929 5.66168 12.7361C5.69431 12.2793 5.89058 11.8495 6.21448 11.5257L6.31599 11.4241L4.29833 8.20096C3.54352 6.99034 3.14344 5.59227 3.14356 4.16562V2.58575C3.14228 2.07641 3.34103 1.58692 3.69701 1.22262C4.053 0.858332 4.53778 0.648353 5.04702 0.637878Z" fill="#FFB9AD"/>
<path d="M38.6742 2.58575V4.16562C38.6744 5.59227 38.2743 6.99034 37.5195 8.20096L35.5018 11.4241L35.6033 11.5257C35.9272 11.8495 36.1235 12.2793 36.1561 12.7361C36.1887 13.1929 36.0556 13.6463 35.781 14.0129L35.0831 14.9455C34.7103 14.3521 34.2013 13.8561 33.5984 13.499C33.5984 11.4241 29.7914 8.25171 28.5225 7.61723L36.7708 0.637878C37.2795 0.650127 37.7632 0.860667 38.1188 1.22457C38.4744 1.58848 38.6737 2.07694 38.6742 2.58575Z" fill="#FFB9AD"/>
<path d="M17.6101 29.1898C17.2865 29.0058 17.1025 28.7901 17.1025 28.5553C19.6405 28.5553 20.9095 26.0173 20.9095 26.0173C20.9095 26.0173 22.1784 28.5553 24.7164 28.5553C24.7164 28.7901 24.5324 29.0058 24.2088 29.1898C23.1744 29.6583 22.0438 29.8757 20.9095 29.8243C19.7751 29.8757 18.6445 29.6583 17.6101 29.1898Z" fill="#E6E3DC"/>
<path d="M7.71315 30.0522C8.39259 30.6389 9.1766 31.0921 10.024 31.3884L9.85771 31.2901C9.36527 31.0029 8.95565 30.593 8.66879 30.1005C8.38186 29.6079 8.22755 29.0493 8.22073 28.4793V27.6989C7.49882 27.1075 6.87558 26.405 6.37438 25.6178L5.63965 27.5213C5.69104 27.6107 5.73926 27.7015 5.79319 27.7884C6.30972 28.6395 6.95773 29.4036 7.71315 30.0522Z" fill="#ADA59D"/>
<path d="M33.5982 27.6988V28.4793C33.5914 29.0493 33.437 29.6078 33.1501 30.1004C32.8633 30.593 32.4536 31.0029 31.9612 31.29L31.7949 31.3884C32.6423 31.0921 33.4262 30.6388 34.1058 30.0522C34.8611 29.404 35.509 28.6403 36.0257 27.7896C36.0796 27.7027 36.1278 27.6113 36.1793 27.5225L35.4445 25.619C34.9432 26.4058 34.32 27.1079 33.5982 27.6988Z" fill="#ADA59D"/>
<path d="M9.8567 31.2899L10.023 31.3883C10.5537 31.5723 11.1109 31.6683 11.6726 31.6726H17.4794C18.5489 32.1802 19.7268 32.4171 20.9095 32.3622C22.0925 32.4173 23.2709 32.1805 24.3408 31.6726H30.1476C30.7093 31.6683 31.2665 31.5723 31.7972 31.3883L31.9635 31.2899C32.4557 31.0026 32.8651 30.5927 33.1517 30.1001C33.4383 29.6075 33.5925 29.0491 33.5992 28.4792V27.6987C32.5372 28.6151 31.1941 29.1412 29.7923 29.1898H24.2088C23.1744 29.6583 22.0438 29.8758 20.9095 29.8243C19.7751 29.8758 18.6445 29.6583 17.6101 29.1898H12.0266C10.6248 29.1412 9.28175 28.6151 8.21973 27.6987V28.4792C8.22654 29.0492 8.38085 29.6077 8.66778 30.1003C8.95464 30.5929 9.36427 31.0028 9.8567 31.2899Z" fill="#C2B9B0"/>
<path d="M22.1346 28.8053C22.4844 29.1115 22.8809 29.3597 23.3091 29.5407C23.6226 29.4623 23.925 29.3444 24.2088 29.1898C24.5324 29.0058 24.7164 28.7901 24.7164 28.5553C22.1784 28.5553 20.9095 26.0173 20.9095 26.0173C20.9095 26.0173 19.6405 28.5553 17.1025 28.5553C17.1025 28.7901 17.2865 29.0058 17.6101 29.1898C17.8939 29.3444 18.1963 29.4623 18.5099 29.5407C18.9381 29.3597 19.3346 29.1115 19.6843 28.8053C20.0262 28.5144 20.4605 28.3546 20.9095 28.3546C21.3584 28.3546 21.7927 28.5144 22.1346 28.8053Z" fill="#D48E81"/>
<path d="M22.8128 23.4794L21.5819 24.4628C21.4947 24.5532 21.3902 24.625 21.2746 24.6741C21.1591 24.7232 21.0348 24.7485 20.9093 24.7485C20.7838 24.7485 20.6595 24.7232 20.544 24.6741C20.4284 24.625 20.3239 24.5532 20.2368 24.4628L19.0059 23.4794C19.0059 22.9338 19.8561 22.2104 20.9093 22.2104C21.9626 22.2104 22.8128 22.9338 22.8128 23.4794Z" fill="#FCA99A"/>
<path d="M20.9093 22.8449C21.2356 22.8402 21.5587 22.9085 21.8551 23.0449C22.1515 23.1812 22.4137 23.3822 22.6224 23.6329L22.8128 23.4794C22.8128 22.9338 21.9626 22.2104 20.9093 22.2104C19.8561 22.2104 19.0059 22.9338 19.0059 23.4794L19.1962 23.6329C19.4049 23.3822 19.6671 23.1812 19.9635 23.0449C20.2599 22.9085 20.5831 22.8402 20.9093 22.8449Z" fill="#FFB9AD"/>
<path d="M3.85156 1.09154L9.50483 6.27402C9.69423 6.44764 9.84658 6.65781 9.95252 6.89187C10.0585 7.12593 10.1161 7.37902 10.1217 7.63594C10.1272 7.89278 10.0807 8.14817 9.98501 8.38659C9.88922 8.62501 9.74615 8.84161 9.56451 9.02325L7.90658 10.6805C7.47613 11.1063 6.9072 11.3634 6.30322 11.4051L6.31528 11.4241L6.21376 11.5257C5.88987 11.8495 5.6936 12.2793 5.66097 12.7361C5.62833 13.1929 5.76153 13.6463 6.0361 14.0129L6.73404 14.9455C7.10676 14.3521 7.61576 13.8561 8.21874 13.499C8.21874 11.4241 12.0257 8.25171 13.2946 7.61723L5.0463 0.637878C4.60818 0.649493 4.18697 0.809429 3.85156 1.09154Z" fill="#FCA99A"/>
<path d="M32.4664 9.02325C32.2847 8.84161 32.1417 8.62501 32.0459 8.38659C31.9501 8.14817 31.9037 7.89278 31.9092 7.63594C31.9148 7.37902 31.9723 7.12593 32.0783 6.89187C32.1844 6.65781 32.3366 6.44764 32.5261 6.27402L38.0759 1.18607C37.726 0.844641 37.2596 0.648721 36.7708 0.637878L28.5225 7.61723C29.7914 8.25171 33.5984 11.4241 33.5984 13.499C34.2013 13.8561 34.7103 14.3521 35.0831 14.9455L35.781 14.0129C36.0556 13.6463 36.1887 13.1929 36.1561 12.7361C36.1235 12.2793 35.9272 11.8495 35.6033 11.5257L35.5018 11.4241L35.5259 11.3854C34.9957 11.3049 34.5046 11.0581 34.1237 10.6805L32.4664 9.02325Z" fill="#FCA99A"/>
<path d="M25.3499 26.0174C23.4464 26.0174 22.8119 23.4794 22.8119 23.4794V23.5886C22.8119 23.9251 22.6782 24.2478 22.4402 24.4857L21.9147 25.0111C21.6768 25.249 21.543 25.5717 21.543 25.9082V26.938C21.92 27.4247 22.3998 27.822 22.9483 28.1016C23.4967 28.3812 24.1001 28.5361 24.7154 28.5553C27.5198 28.5553 29.1568 26.8549 29.1568 24.7484L29.1695 24.6723C29.1562 24.6691 29.146 24.6621 29.1327 24.6589C28.0438 25.4943 26.7215 25.9692 25.3499 26.0174Z" fill="#E6E3DC"/>
<path d="M19.3787 24.4857C19.1408 24.2478 19.007 23.9251 19.007 23.5886V23.4794C19.007 23.4794 18.3725 26.0174 16.469 26.0174C15.0974 25.9692 13.7751 25.4943 12.6862 24.6589C12.6729 24.6589 12.6628 24.6691 12.6494 24.6723L12.6621 24.7484C12.6621 26.8549 14.2991 28.5553 17.1035 28.5553C17.7188 28.5361 18.3222 28.3812 18.8706 28.1016C19.4191 27.822 19.8989 27.4247 20.2759 26.938V25.9082C20.2759 25.5717 20.1421 25.249 19.9041 25.0111L19.3787 24.4857Z" fill="#E6E3DC"/>
<path d="M18.8524 15.8465C18.9735 15.8769 19.101 15.8708 19.2186 15.8291C19.3364 15.7873 19.4392 15.7117 19.5141 15.6118L20.91 13.7508L22.3059 15.6118C22.3808 15.7117 22.4836 15.7871 22.6013 15.8289C22.719 15.8706 22.8463 15.8766 22.9675 15.8463C23.0886 15.8159 23.1981 15.7505 23.2822 15.6583C23.3663 15.566 23.4213 15.451 23.4403 15.3276L24.7093 7.07923C24.7103 7.04701 24.7089 7.01477 24.7048 6.98279H23.4403L22.4157 13.6449L21.4176 12.3125C21.3559 12.2375 21.2784 12.1772 21.1906 12.1358C21.1029 12.0943 21.007 12.0728 20.91 12.0728C20.8129 12.0728 20.7171 12.0943 20.6293 12.1358C20.5416 12.1772 20.464 12.2375 20.4024 12.3125L19.4043 13.6449L18.3797 6.98279H17.1151C17.1111 7.01477 17.1096 7.04701 17.1107 7.07923L18.3797 15.3276C18.3986 15.451 18.4536 15.566 18.5377 15.6584C18.6218 15.7507 18.7312 15.8161 18.8524 15.8465Z" fill="#514B3F"/>
<path d="M20.9089 10.7897C21.0772 10.7897 21.2385 10.7228 21.3575 10.6039C21.4765 10.4849 21.5434 10.3235 21.5434 10.1552V6.98279H20.2744V10.1552C20.2744 10.3235 20.3413 10.4849 20.4603 10.6039C20.5793 10.7228 20.7406 10.7897 20.9089 10.7897Z" fill="#514B3F"/>
<path d="M34.2335 20.307C34.6669 20.307 36.0844 20.3939 36.1313 21.5125C36.1319 21.5338 36.1337 21.5549 36.137 21.576C36.1379 21.7327 36.1972 21.8833 36.3034 21.9985C36.4096 22.1136 36.5551 22.1849 36.7112 22.1984C36.7412 21.9624 36.7592 21.725 36.7652 21.4871C36.7704 21.4408 36.7726 21.3942 36.7715 21.3475C36.7715 20.8342 36.7404 20.3545 36.696 19.8882C36.0166 19.2961 35.1336 18.9912 34.2335 19.038C33.8528 19.038 33.5991 17.9105 33.5991 17.1345C33.5991 16.9662 33.5322 16.8049 33.4132 16.6859C33.2942 16.5669 33.1329 16.5001 32.9646 16.5001C32.7963 16.5001 32.6349 16.5669 32.5159 16.6859C32.3969 16.8049 32.3301 16.9662 32.3301 17.1345C32.3301 18.5983 32.8288 20.307 34.2335 20.307Z" fill="#514B3F"/>
<path d="M5.10551 22.1819C5.25687 22.1661 5.39772 22.0971 5.50316 21.9874C5.6086 21.8777 5.67182 21.7342 5.68162 21.5823C5.68555 21.5596 5.68788 21.5367 5.68861 21.5137C5.73429 20.3939 7.15173 20.307 7.58508 20.307C8.98983 20.307 9.48857 18.5983 9.48857 17.1345C9.48857 16.9662 9.42171 16.8049 9.30272 16.6859C9.18373 16.5669 9.02231 16.5001 8.85408 16.5001C8.68578 16.5001 8.52437 16.5669 8.40538 16.6859C8.28638 16.8049 8.2196 16.9662 8.2196 17.1345C8.2196 17.8921 7.9658 19.038 7.58508 19.038C6.68479 18.9917 5.80176 19.2972 5.12264 19.8901C5.07823 20.3545 5.04714 20.8342 5.04714 21.3494C5.04609 21.396 5.0482 21.4427 5.05348 21.489C5.05793 21.7193 5.07823 21.9509 5.10551 22.1819Z" fill="#514B3F"/>
<path d="M7.58496 28.4794C7.59014 29.159 7.77203 29.8256 8.11278 30.4136C8.45352 31.0016 8.94138 31.4908 9.52838 31.8333C11.8176 33.2158 16.3409 35.5349 20.9092 35.5349C25.4775 35.5349 30.0008 33.2158 32.29 31.8327C32.877 31.4904 33.3649 31.0013 33.7057 30.4134C34.0465 29.8254 34.2283 29.1589 34.2334 28.4794V27.2865C34.2296 27.2395 34.2203 27.1931 34.2055 27.1483C34.0101 27.3417 33.8096 27.5289 33.5989 27.699C33.3883 27.869 33.1808 28.0162 32.9644 28.1571V28.4794C32.9581 28.9404 32.8319 29.3918 32.5983 29.7892C32.3647 30.1868 32.0317 30.5166 31.632 30.7464C29.4583 32.0611 25.171 34.2659 20.9092 34.2659C16.6473 34.2659 12.3601 32.0611 10.1864 30.7471C9.78659 30.5171 9.45361 30.1872 9.21998 29.7896C8.98634 29.392 8.86024 28.9405 8.85393 28.4794V28.1571C8.63756 28.0149 8.42437 27.8645 8.21945 27.699C8.01453 27.5334 7.8083 27.3417 7.61288 27.1483C7.59811 27.1931 7.58875 27.2395 7.58496 27.2865V28.4794Z" fill="#514B3F"/>
<path d="M37.1268 29.9893L36.8159 29.1708L36.5926 28.5915C36.462 28.6284 36.347 28.7067 36.2648 28.8146C36.1826 28.9225 36.1378 29.0542 36.137 29.1899C36.137 34.0462 29.8753 37.4382 20.9093 37.4382C11.9434 37.4382 5.68162 34.0462 5.68162 29.1899C5.68081 29.0542 5.63595 28.9225 5.55378 28.8146C5.47161 28.7067 5.35659 28.6284 5.22606 28.5915L5.00272 29.1708L4.69182 29.9893C4.62838 30.146 4.58777 30.3066 4.5332 30.4658C5.45448 35.4459 11.7999 38.7072 20.9093 38.7072C30.0186 38.7072 36.3641 35.4459 37.2854 30.4658C37.2308 30.3072 37.1871 30.146 37.1268 29.9893Z" fill="#514B3F"/>
<path d="M21.5439 26.938V25.9082C21.544 25.5717 21.6777 25.249 21.9158 25.0111L22.4411 24.4857C22.5933 24.3299 22.7027 24.1373 22.7584 23.9267L23.1276 23.6317V23.4794C23.1276 22.7605 22.1366 21.8932 20.9069 21.8932C19.6773 21.8932 18.6862 22.7605 18.6862 23.4794V23.6317L19.0549 23.9254C19.1107 24.1364 19.2199 24.3293 19.3721 24.4857L19.8975 25.0111C20.0163 25.1284 20.1109 25.2681 20.1756 25.422C20.2405 25.576 20.2742 25.7412 20.275 25.9082V26.938C19.898 27.4247 19.4182 27.822 18.8697 28.1016C18.3213 28.3812 17.7178 28.5361 17.1025 28.5553C17.1025 28.778 17.2726 28.9829 17.5663 29.1606C18.5046 29.0208 19.3669 28.5645 20.0104 27.8675C20.1273 27.7474 20.2671 27.652 20.4215 27.5869C20.576 27.5217 20.7419 27.4881 20.9095 27.4881C21.077 27.4881 21.2429 27.5217 21.3974 27.5869C21.5518 27.652 21.6916 27.7474 21.8085 27.8675C22.452 28.5645 23.3143 29.0208 24.2526 29.1606C24.5463 28.9829 24.7164 28.7799 24.7164 28.5553C24.1011 28.5361 23.4977 28.3812 22.9492 28.1016C22.4008 27.822 21.9209 27.4247 21.5439 26.938ZM20.2369 24.4635L19.006 23.4794C19.006 22.9337 19.8562 22.2104 20.9095 22.2104C21.9627 22.2104 22.8129 22.9337 22.8129 23.4794L21.582 24.4628C21.4949 24.5532 21.3904 24.625 21.2748 24.6741C21.1593 24.7232 21.035 24.7485 20.9095 24.7485C20.7839 24.7485 20.6597 24.7232 20.5441 24.6741C20.4286 24.625 20.3241 24.5532 20.2369 24.4628V24.4635Z" fill="#514B3F"/>
<path d="M27.2538 20.307H24.7158C24.7142 18.9642 25.1093 17.6508 25.8516 16.5317C26.0619 16.1675 26.3566 15.8592 26.7112 15.6328C27.0656 15.4065 27.4694 15.2686 27.8883 15.2311C29.6394 15.2311 31.0607 16.7158 31.0607 17.769C31.0607 18.4422 30.7933 19.0877 30.3174 19.5636C29.8414 20.0396 29.1959 20.307 28.5227 20.307H27.2538Z" fill="#FFD869"/>
<path d="M29.7904 18.4036C29.7923 17.978 29.6868 17.5589 29.4835 17.185C29.2802 16.8111 28.9857 16.4947 28.6274 16.265C28.2691 16.0353 27.8587 15.8999 27.4341 15.8712C27.0095 15.8425 26.5845 15.9216 26.1986 16.101C26.0734 16.2371 25.9571 16.381 25.8503 16.5319C25.3288 17.308 24.9795 18.1868 24.8262 19.1091C24.9607 19.5734 25.2259 19.9893 25.5901 20.3071H28.5214C28.672 20.3053 28.8221 20.2902 28.9701 20.262C29.2281 20.026 29.4342 19.7388 29.5754 19.419C29.7166 19.0991 29.7898 18.7533 29.7904 18.4036Z" fill="#392C1C"/>
<path d="M27.254 20.307C28.3053 20.307 29.1575 19.4547 29.1575 18.4035C29.1575 17.3523 28.3053 16.5001 27.254 16.5001C26.2028 16.5001 25.3506 17.3523 25.3506 18.4035C25.3506 19.4547 26.2028 20.307 27.254 20.307Z" fill="#1A1511"/>
<path d="M27.778 18.1698C27.8802 18.0676 27.8479 17.8696 27.7059 17.7276C27.5639 17.5857 27.366 17.5534 27.2637 17.6555C27.1616 17.7577 27.1939 17.9556 27.3359 18.0977C27.4779 18.2397 27.6758 18.2719 27.778 18.1698Z" fill="#F6FAFD"/>
<path d="M29.1569 18.4035C29.5073 18.4035 29.7914 18.1194 29.7914 17.769C29.7914 17.4186 29.5073 17.1345 29.1569 17.1345C28.8066 17.1345 28.5225 17.4186 28.5225 17.769C28.5225 18.1194 28.8066 18.4035 29.1569 18.4035Z" fill="#F6FAFD"/>
<path d="M33.5984 17.1346C32.856 17.1346 31.4646 16.2666 30.4354 15.5483C29.7204 14.9486 28.8211 14.6126 27.888 14.5966C25.6444 14.5966 24.0811 17.606 24.0811 20.307C24.0811 20.4753 24.1479 20.6366 24.2669 20.7556C24.3859 20.8746 24.5472 20.9415 24.7155 20.9415H28.5225C29.3635 20.9405 30.1699 20.6059 30.7646 20.0112C31.3593 19.4165 31.6939 18.6101 31.6949 17.7691C31.6916 17.5531 31.6544 17.339 31.5845 17.1346H33.5984ZM28.5225 20.307H24.7155C24.7155 17.8522 26.1343 15.2311 27.888 15.2311C29.6417 15.2311 31.0604 16.7171 31.0604 17.7691C31.0604 18.4422 30.793 19.0877 30.3171 19.5637C29.8411 20.0396 29.1956 20.307 28.5225 20.307Z" fill="#392C1C"/>
<path d="M14.5638 20.307H13.2948C12.6216 20.307 11.9761 20.0396 11.5002 19.5636C11.0242 19.0877 10.7568 18.4422 10.7568 17.769C10.7568 16.7158 12.1781 15.2311 13.9293 15.2311C14.3482 15.2686 14.7519 15.4065 15.1064 15.6328C15.4609 15.8592 15.7556 16.1675 15.966 16.5317C16.7082 17.6508 17.1034 18.9642 17.1017 20.307H14.5638Z" fill="#FFD869"/>
<path d="M15.6187 16.1011C15.0708 15.8476 14.4505 15.7982 13.8695 15.9621C13.2885 16.1259 12.7853 16.4921 12.4507 16.9945C12.116 17.4969 11.9721 18.1023 12.0448 18.7016C12.1175 19.3008 12.4021 19.8543 12.8472 20.2621C12.9952 20.2903 13.1453 20.3054 13.2958 20.3072H16.2271C16.5905 19.989 16.8548 19.5733 16.9885 19.1092C16.8359 18.187 16.4876 17.3082 15.967 16.5319C15.8602 16.381 15.7438 16.2372 15.6187 16.1011Z" fill="#392C1C"/>
<path d="M14.5636 20.307C15.6148 20.307 16.4671 19.4547 16.4671 18.4035C16.4671 17.3523 15.6148 16.5001 14.5636 16.5001C13.5124 16.5001 12.6602 17.3523 12.6602 18.4035C12.6602 19.4547 13.5124 20.307 14.5636 20.307Z" fill="#1A1511"/>
<path d="M12.6609 18.4035C13.0112 18.4035 13.2953 18.1194 13.2953 17.769C13.2953 17.4186 13.0112 17.1345 12.6609 17.1345C12.3105 17.1345 12.0264 17.4186 12.0264 17.769C12.0264 18.1194 12.3105 18.4035 12.6609 18.4035Z" fill="#F6FAFD"/>
<path d="M10.2336 17.1346C10.1637 17.339 10.1264 17.5531 10.1232 17.7691C10.1242 18.6101 10.4588 19.4165 11.0535 20.0112C11.6482 20.6059 12.4545 20.9405 13.2956 20.9415H17.1025C17.2708 20.9415 17.4322 20.8746 17.5512 20.7556C17.6702 20.6366 17.737 20.4753 17.737 20.307C17.737 17.606 16.1736 14.5966 13.9301 14.5966C12.9968 14.6125 12.0972 14.9485 11.382 15.5483C10.3535 16.2666 8.96204 17.1346 8.21973 17.1346H10.2336ZM10.7577 17.7691C10.7577 16.7171 12.1764 15.2311 13.9301 15.2311C15.6838 15.2311 17.1025 17.8522 17.1025 20.307H13.2956C12.6225 20.307 11.977 20.0396 11.501 19.5637C11.025 19.0877 10.7577 18.4422 10.7577 17.7691Z" fill="#392C1C"/>
<path d="M14.3817 18.0773C14.5237 17.9352 14.556 17.7373 14.4538 17.6352C14.3516 17.533 14.1537 17.5653 14.0117 17.7073C13.8697 17.8493 13.8374 18.0472 13.9395 18.1494C14.0418 18.2516 14.2397 18.2193 14.3817 18.0773Z" fill="#F6FAFD"/>
<path d="M23.764 25.3818C23.9389 25.3818 24.0808 25.24 24.0808 25.0651C24.0808 24.8902 23.9389 24.7484 23.764 24.7484C23.5891 24.7484 23.4473 24.8902 23.4473 25.0651C23.4473 25.24 23.5891 25.3818 23.764 25.3818Z" fill="#B0A8A0"/>
<path d="M23.1292 27.2854C23.3042 27.2854 23.446 27.1435 23.446 26.9686C23.446 26.7937 23.3042 26.6519 23.1292 26.6519C22.9543 26.6519 22.8125 26.7937 22.8125 26.9686C22.8125 27.1435 22.9543 27.2854 23.1292 27.2854Z" fill="#B0A8A0"/>
<path d="M22.4945 26.6508C22.6694 26.6508 22.8112 26.509 22.8112 26.3341C22.8112 26.1592 22.6694 26.0173 22.4945 26.0173C22.3196 26.0173 22.1777 26.1592 22.1777 26.3341C22.1777 26.509 22.3196 26.6508 22.4945 26.6508Z" fill="#B0A8A0"/>
<path d="M18.6878 26.6508C18.8628 26.6508 19.0046 26.509 19.0046 26.3341C19.0046 26.1592 18.8628 26.0173 18.6878 26.0173C18.5129 26.0173 18.3711 26.1592 18.3711 26.3341C18.3711 26.509 18.5129 26.6508 18.6878 26.6508Z" fill="#B0A8A0"/>
<path d="M18.6878 25.3818C18.8628 25.3818 19.0046 25.24 19.0046 25.0651C19.0046 24.8902 18.8628 24.7484 18.6878 24.7484C18.5129 24.7484 18.3711 24.8902 18.3711 25.0651C18.3711 25.24 18.5129 25.3818 18.6878 25.3818Z" fill="#B0A8A0"/>
<path d="M17.4193 27.2854C17.5942 27.2854 17.736 27.1435 17.736 26.9686C17.736 26.7937 17.5942 26.6519 17.4193 26.6519C17.2444 26.6519 17.1025 26.7937 17.1025 26.9686C17.1025 27.1435 17.2444 27.2854 17.4193 27.2854Z" fill="#B0A8A0"/>
<path d="M17.4193 24.7474C17.5942 24.7474 17.736 24.6056 17.736 24.4306C17.736 24.2557 17.5942 24.1139 17.4193 24.1139C17.2444 24.1139 17.1025 24.2557 17.1025 24.4306C17.1025 24.6056 17.2444 24.7474 17.4193 24.7474Z" fill="#B0A8A0"/>
<path d="M10.7571 29.9829C10.7401 29.9829 10.7231 29.9802 10.707 29.9747C10.6671 29.9613 10.6342 29.9328 10.6154 29.8951C10.5966 29.8576 10.5935 29.8141 10.6067 29.7742C11.8992 25.9032 17.4986 25.8587 17.7365 25.8587C17.7785 25.8587 17.8189 25.8755 17.8487 25.9052C17.8784 25.9349 17.8951 25.9753 17.8951 26.0174C17.8951 26.0594 17.8784 26.0998 17.8487 26.1295C17.8189 26.1593 17.7785 26.1759 17.7365 26.1759C17.6806 26.1759 12.1251 26.221 10.9075 29.8744C10.897 29.906 10.8768 29.9334 10.8498 29.9529C10.8228 29.9724 10.7904 29.9829 10.7571 29.9829Z" fill="#392C1C"/>
<path d="M12.6606 32.5208C12.6186 32.5208 12.5782 32.5041 12.5484 32.4743C12.5187 32.4446 12.502 32.4042 12.502 32.3622C12.502 28.4766 17.6458 27.1454 17.6978 27.1327C17.7184 27.1262 17.7401 27.124 17.7617 27.1262C17.7831 27.1284 17.8039 27.135 17.8229 27.1455C17.8417 27.156 17.8583 27.1703 17.8714 27.1875C17.8846 27.2046 17.8941 27.2243 17.8994 27.2452C17.9046 27.2662 17.9055 27.288 17.9021 27.3093C17.8986 27.3307 17.8909 27.351 17.8793 27.3693C17.8676 27.3875 17.8524 27.4032 17.8345 27.4153C17.8166 27.4274 17.7965 27.4357 17.7752 27.4398C17.7251 27.4525 12.8193 28.7247 12.8193 32.3622C12.8193 32.4042 12.8025 32.4446 12.7728 32.4743C12.7431 32.5041 12.7027 32.5208 12.6606 32.5208Z" fill="#392C1C"/>
<path d="M17.7364 24.907H10.1225C10.0805 24.907 10.0401 24.8902 10.0103 24.8605C9.98062 24.8308 9.96387 24.7904 9.96387 24.7483C9.96387 24.7063 9.98062 24.6659 10.0103 24.6361C10.0401 24.6064 10.0805 24.5897 10.1225 24.5897H17.7364C17.7784 24.5897 17.8188 24.6064 17.8485 24.6361C17.8783 24.6659 17.895 24.7063 17.895 24.7483C17.895 24.7904 17.8783 24.8308 17.8485 24.8605C17.8188 24.8902 17.7784 24.907 17.7364 24.907Z" fill="#392C1C"/>
<path d="M31.0609 29.9829C31.0276 29.9829 30.9952 29.9724 30.9682 29.9529C30.9412 29.9334 30.921 29.906 30.9105 29.8744C29.6917 26.2179 24.1373 26.1759 24.0815 26.1759C24.0395 26.1759 23.9991 26.1593 23.9693 26.1295C23.9396 26.0998 23.9229 26.0594 23.9229 26.0174C23.9229 25.9753 23.9396 25.9349 23.9693 25.9052C23.9991 25.8755 24.0395 25.8587 24.0815 25.8587C24.3194 25.8587 29.9188 25.9032 31.2113 29.7742C31.2245 29.8141 31.2214 29.8576 31.2026 29.8951C31.1838 29.9328 31.1509 29.9613 31.111 29.9747C31.0949 29.9802 31.0779 29.9829 31.0609 29.9829Z" fill="#392C1C"/>
<path d="M29.1572 32.5211C29.1152 32.5211 29.0748 32.5043 29.0451 32.4746C29.0153 32.4449 28.9986 32.4045 28.9986 32.3624C28.9986 28.7249 24.0927 27.4528 24.0426 27.4401C24.0022 27.4299 23.9675 27.4042 23.9459 27.3686C23.9243 27.3329 23.9175 27.2903 23.9271 27.2498C23.932 27.2296 23.9407 27.2107 23.9529 27.194C23.9652 27.1773 23.9805 27.1632 23.9983 27.1525C24.016 27.1418 24.0357 27.1347 24.0561 27.1317C24.0765 27.1287 24.0974 27.1298 24.1174 27.1349C24.1695 27.1476 29.3133 28.4787 29.3133 32.3643C29.3128 32.4056 29.2962 32.4451 29.2671 32.4744C29.2379 32.5037 29.1985 32.5204 29.1572 32.5211Z" fill="#392C1C"/>
<path d="M31.6953 24.907H24.0815C24.0395 24.907 23.9991 24.8902 23.9693 24.8605C23.9396 24.8308 23.9229 24.7904 23.9229 24.7483C23.9229 24.7063 23.9396 24.6659 23.9693 24.6361C23.9991 24.6064 24.0395 24.5897 24.0815 24.5897H31.6953C31.7374 24.5897 31.7778 24.6064 31.8075 24.6361C31.8373 24.6659 31.854 24.7063 31.854 24.7483C31.854 24.7904 31.8373 24.8308 31.8075 24.8605C31.7778 24.8902 31.7374 24.907 31.6953 24.907Z" fill="#392C1C"/>
<path d="M20.9092 27.5583C20.9071 28.5967 20.1841 27.9209 19.459 28.646L19.5166 29.3118C19.7727 30.1901 20.6039 30.6649 21.3727 30.3725C21.8114 30.2058 22.1558 29.8126 22.3018 29.3118L22.3595 28.646C21.6344 27.9209 20.9108 28.5962 20.9092 27.5583Z" fill="#FCA99A"/>
</g>
<defs>
<linearGradient id="paint0_linear" x1="16.5582" y1="-0.328932" x2="20.7529" y2="9.65523" gradientUnits="userSpaceOnUse">
<stop stop-color="#FED648"/>
<stop offset="1" stop-color="#FEB803"/>
</linearGradient>
<clipPath id="clip0">
<rect width="40.6071" height="40.6071" fill="white" transform="translate(0.605469 0.00341797)"/>
</clipPath>
</defs>
</svg>
