<svg width="62" height="59" viewBox="0 0 62 59" fill="none" xmlns="http://www.w3.org/2000/svg">
<path d="M5.19859 27.4259C-2.26025 25.4412 -1.07363 44.7319 7.58222 45.75L5.19859 27.4259Z" fill="#E697B2"/>
<path d="M51.5704 57.3073C50.941 56.1189 49.633 55.035 49.0146 54.5648C48.4277 50.4493 46.747 48.0409 46.658 47.9161C46.3659 47.5064 45.7921 47.4072 45.3744 47.6926C44.9564 47.9781 44.8532 48.5429 45.1428 48.9543C45.1489 48.9628 45.7487 49.8236 46.3187 51.3652C46.622 52.1857 46.952 53.3045 47.1594 54.6663C46.479 55.209 45.2608 56.3016 44.871 57.436C44.7079 57.9107 44.9676 58.4254 45.4511 58.5856C45.549 58.6181 45.6485 58.6335 45.7465 58.6335C46.1319 58.6335 46.4918 58.3945 46.6217 58.0161C46.7321 57.695 47.0187 57.3167 47.3614 56.9538C47.37 57.2936 47.3698 57.6428 47.3588 58.0016C47.3435 58.5023 47.7444 58.9204 48.2545 58.9355C48.2639 58.9358 48.2733 58.9359 48.2827 58.9359C48.7801 58.9359 49.1905 58.5475 49.2056 58.0559C49.2146 57.7601 49.2154 57.4717 49.2124 57.1871C49.5015 57.4966 49.7617 57.8256 49.9305 58.1446C50.1661 58.5891 50.7237 58.7621 51.1765 58.5308C51.6295 58.2994 51.8058 57.7517 51.5704 57.3073Z" fill="#FF8F00"/>
<path d="M40.1398 54.5643C39.5528 50.4488 37.8721 48.0404 37.7831 47.9156C37.4909 47.5059 36.9173 47.4067 36.4996 47.6922C36.0815 47.9776 35.9783 48.5424 36.2679 48.9538C36.2739 48.9623 36.8738 49.8231 37.4438 51.3647C37.7472 52.1853 38.0771 53.3042 38.2846 54.6659C37.6041 55.2085 36.3859 56.3011 35.996 57.4355C35.8329 57.9102 36.0926 58.4249 36.5761 58.5851C36.674 58.6176 36.7735 58.633 36.8715 58.633C37.2569 58.633 37.6167 58.394 37.7467 58.0156C37.8571 57.6945 38.1438 57.3162 38.4865 56.9533C38.4951 57.293 38.4949 57.6423 38.4839 58.0011C38.4686 58.5018 38.8697 58.9199 39.3796 58.9351C39.389 58.9353 39.3985 58.9354 39.4078 58.9354C39.9053 58.9354 40.3157 58.547 40.3307 58.0554C40.3397 57.7596 40.3405 57.4712 40.3375 57.1866C40.6266 57.4961 40.8868 57.8251 41.0556 58.1441C41.2912 58.5886 41.8488 58.7616 42.3016 58.5304C42.7543 58.2992 42.9305 57.7516 42.695 57.3071C42.0661 56.1186 40.7581 55.0346 40.1398 54.5643Z" fill="#FF8F00"/>
<path d="M12.1696 54.1951C12.3771 52.8334 12.707 51.7145 13.0104 50.8941C13.5775 49.3603 14.1742 48.5006 14.1862 48.4834C14.477 48.0731 14.375 47.5089 13.9576 47.2219C13.5398 46.9346 12.9634 47.0344 12.6709 47.4449C12.5818 47.5698 10.9011 49.9781 10.3143 54.0936C9.69608 54.5638 8.38809 55.6478 7.75873 56.8361C7.52327 57.2806 7.69941 57.8283 8.15203 58.0594C8.60489 58.2906 9.16262 58.1176 9.39796 57.6732C9.56681 57.3542 9.82714 57.0252 10.1162 56.7157C10.1131 57.0003 10.1138 57.2886 10.123 57.5845C10.1381 58.076 10.5486 58.4645 11.046 58.4645C11.0554 58.4645 11.0648 58.4643 11.0743 58.464C11.5843 58.449 11.9854 58.0309 11.9699 57.5301C11.9589 57.1713 11.9587 56.822 11.9673 56.4825C12.31 56.8454 12.5967 57.2236 12.707 57.5447C12.8372 57.9232 13.1969 58.162 13.5823 58.162C13.6802 58.162 13.7798 58.1466 13.8776 58.1141C14.3611 57.954 14.6208 57.4394 14.4577 56.9646C14.0683 55.8304 12.8499 54.7379 12.1696 54.1951Z" fill="#FF8F00"/>
<path d="M20.198 54.666C20.4054 53.3042 20.7354 52.1854 21.0386 51.3648C21.6057 49.8312 22.2024 48.9716 22.2145 48.9543C22.5053 48.5441 22.4033 47.9797 21.986 47.6929C21.5681 47.4056 20.9919 47.5054 20.6993 47.9158C20.6102 48.0407 18.9294 50.449 18.3426 54.5645C17.7244 55.0348 16.4164 56.1188 15.787 57.3072C15.5516 57.7517 15.7277 58.2994 16.1805 58.5305C16.6333 58.7616 17.1912 58.5887 17.4264 58.1442C17.5952 57.8252 17.8555 57.4962 18.1445 57.1867C18.1414 57.4713 18.1421 57.7597 18.1513 58.0556C18.1664 58.5471 18.5769 58.9355 19.0744 58.9355C19.0837 58.9355 19.0931 58.9354 19.1026 58.9352C19.6126 58.92 20.0137 58.5019 19.9983 58.0012C19.9873 57.6424 19.987 57.2931 19.9956 56.9536C20.3384 57.3165 20.625 57.6946 20.7354 58.0157C20.8655 58.3943 21.2252 58.6331 21.6106 58.6331C21.7085 58.6331 21.8081 58.6177 21.906 58.5852C22.3894 58.425 22.6492 57.9104 22.4861 57.4356C22.0966 56.3012 20.8784 55.2086 20.198 54.666Z" fill="#FF8F00"/>
<path d="M55.4766 21.8258C62.6021 20.693 65.2389 39.5975 53.0215 45.2784L55.4766 21.8258Z" fill="#50B7E6"/>
<path d="M46.6571 47.9157C46.3649 47.5061 45.7912 47.4069 45.3735 47.6923C44.9554 47.9777 44.8522 48.5425 45.1418 48.9539C45.1479 48.9624 45.7478 49.8232 46.3177 51.3648C46.4471 51.7148 46.5814 52.1195 46.7088 52.5738C46.8455 52.5307 46.9821 52.4865 47.1179 52.4401C47.5713 52.2852 48.0136 52.1133 48.4448 51.925C47.7166 49.4331 46.725 48.0109 46.6571 47.9157Z" fill="#E68100"/>
<path d="M37.7821 47.9159C37.4898 47.5063 36.9162 47.4071 36.4985 47.6925C36.0804 47.9779 35.9772 48.5428 36.2668 48.9542C36.2728 48.9626 36.8728 49.8235 37.4427 51.365C37.6175 51.8378 37.801 52.4102 37.9649 53.0704C38.6121 53.1923 39.2658 53.2802 39.9214 53.3321C39.2173 49.9719 37.8618 48.0278 37.7821 47.9159Z" fill="#E68100"/>
<path d="M27.7665 16.0671C30.0531 5.5607 45.9992 2.68009 52.2499 13.5767C57.9798 23.5653 60.3867 45.3412 46.3039 50.1553C43.6945 51.0473 40.8763 51.201 38.1718 50.6451C35.36 50.0671 33.0361 48.8675 31.2896 47.296H21.8496L27.7665 16.0671Z" fill="#59CBFF"/>
<path d="M29.8409 13.0639C29.6124 12.9118 29.3661 12.7843 29.1235 12.6555C29.0462 12.7832 28.9715 12.9126 28.898 13.0458C28.4549 13.8499 28.1121 14.709 27.8802 15.5942C27.8396 15.7488 27.8018 15.9051 27.7674 16.063C27.7671 16.0643 27.7668 16.0656 27.7664 16.0669L23.8219 36.886L21.8496 47.2956H31.2894C32.3429 48.2434 33.6077 49.0546 35.0616 49.677C34.4587 47.4137 33.5824 44.7072 32.5433 43.2313C31.111 41.2047 30.8714 38.7831 31.9669 36.5937C33.104 34.3209 35.0369 29.7678 35.2069 24.8103C35.4331 18.2059 32.4138 14.7771 29.8409 13.0639Z" fill="#50B7E6"/>
<path d="M13.9499 47.2216C13.532 46.9343 12.9557 47.0341 12.6632 47.4445C12.593 47.543 11.5336 49.0618 10.8008 51.7165C11.3522 51.9965 11.9247 52.2422 12.5175 52.4528C12.6718 51.8541 12.8409 51.331 13.0027 50.8935C13.5697 49.3597 14.1664 48.5 14.1784 48.4828C14.4693 48.0728 14.3673 47.5084 13.9499 47.2216Z" fill="#E68100"/>
<path d="M22.2091 48.9537C22.5 48.5435 22.3979 47.9791 21.9806 47.6923C21.5628 47.405 20.9865 47.5048 20.6939 47.9152C20.6137 48.0277 19.2436 49.9919 18.543 53.3859C19.1956 53.3817 19.8303 53.3652 20.4473 53.3365C20.6265 52.5627 20.8355 51.8996 21.0334 51.3643C21.6003 49.8307 22.1971 48.9711 22.2091 48.9537Z" fill="#E68100"/>
<path d="M31.2922 47.2967C27.6837 44.0501 26.5399 39.2158 28.6519 34.9944C31.6971 28.908 33.537 19.9085 27.7687 16.0673C18.3188 10.6962 6.83771 17.0108 4.92427 28.8205C3.01083 40.6302 7.15951 50.97 18.2246 50.97C29.2897 50.97 31.2922 47.2967 31.2922 47.2967Z" fill="#FFA8C6"/>
<path d="M37.6051 19.8259C36.6169 19.826 35.6881 19.2241 35.3358 18.2596C35.1635 17.7879 35.413 17.2686 35.8934 17.0995C36.3741 16.9302 36.9028 17.1754 37.0751 17.6469C37.1798 17.9327 37.5011 18.0818 37.7924 17.9793C38.0833 17.8767 38.2353 17.561 38.1308 17.2751C37.9586 16.8035 38.2082 16.2842 38.6885 16.1149C39.1694 15.9458 39.6979 16.191 39.8702 16.6625C40.3187 17.8897 39.6666 19.2466 38.4165 19.687C38.1484 19.7812 37.8744 19.8259 37.6051 19.8259Z" fill="#212121"/>
<path d="M46.4518 16.7661C46.1012 16.7661 45.752 16.69 45.4255 16.5387C44.8437 16.2691 44.4037 15.7932 44.1863 15.1987C44.0141 14.7271 44.2637 14.2078 44.744 14.0386C45.2249 13.8695 45.7534 14.1146 45.9258 14.5862C45.9762 14.7246 46.0787 14.8353 46.2142 14.8982C46.3497 14.961 46.5018 14.968 46.6429 14.9185C46.9338 14.8159 47.0857 14.5001 46.9813 14.2143C46.8091 13.7426 47.0587 13.2233 47.5391 13.054C48.0198 12.885 48.5484 13.1301 48.7208 13.6016C49.1692 14.8289 48.5171 16.1858 47.267 16.6261C47.0012 16.7195 46.726 16.7661 46.4518 16.7661Z" fill="#212121"/>
<path d="M40.8613 21.6426C42.1802 26.5869 47.935 23.9388 46.7962 20.7305L44.2785 20.0034L40.8613 21.6426Z" fill="#E68100"/>
<path d="M40.8613 21.6426C40.8613 19.4059 43.0795 16.1099 47.6957 19.9357C47.6957 19.9357 45.7772 22.5256 40.8613 21.6426Z" fill="#FF8F00"/>
<path d="M23.2569 26.7067C23.0229 26.7067 22.7849 26.6717 22.5504 26.5982C21.9581 26.4126 21.475 26.0115 21.1899 25.469C20.9049 24.9264 20.852 24.3073 21.0412 23.7259C21.1964 23.2487 21.7166 22.9853 22.2023 23.1377C22.6884 23.2901 22.9567 23.8005 22.8014 24.2777C22.7625 24.3976 22.7733 24.5252 22.8322 24.637C22.8909 24.7489 22.9906 24.8316 23.1127 24.8698C23.3644 24.9489 23.6353 24.8118 23.7158 24.5643C23.871 24.0871 24.391 23.8236 24.8769 23.9761C25.363 24.1285 25.6312 24.6389 25.476 25.1162C25.1604 26.0863 24.2428 26.7066 23.2569 26.7067Z" fill="#212121"/>
<path d="M14.7894 24.1062C14.5513 24.1062 14.3121 24.07 14.0788 23.9968C13.4865 23.8112 13.0033 23.4101 12.7183 22.8676C12.4332 22.325 12.3803 21.706 12.5695 21.1245C12.7247 20.6473 13.2447 20.3839 13.7306 20.5363C14.2167 20.6887 14.485 21.1991 14.3298 21.6764C14.2908 21.7962 14.3017 21.9239 14.3605 22.0356C14.4193 22.1474 14.5188 22.2302 14.6409 22.2685C14.763 22.3068 14.893 22.296 15.0069 22.2383C15.1209 22.1806 15.2051 22.0827 15.2441 21.9628C15.3993 21.4856 15.9194 21.2222 16.4052 21.3746C16.8913 21.527 17.1596 22.0374 17.0043 22.5147C16.8152 23.0962 16.4068 23.5705 15.8542 23.8504C15.5191 24.0204 15.1556 24.1062 14.7894 24.1062Z" fill="#212121"/>
<path d="M20.3145 28.4784C19.2365 33.1936 13.7087 30.8802 14.6754 27.8115L17.0296 27.0417L20.3145 28.4784Z" fill="#E68100"/>
<path d="M20.3128 28.4789C20.2366 26.3654 18.0284 23.3238 13.7969 27.0904C13.7969 27.0905 15.6979 29.4746 20.3128 28.4789Z" fill="#FF8F00"/>
<path d="M25.7861 7.57121C34.2692 4.38992 29.8519 -0.895095 26.5022 1.63634C23.8477 -1.59344 18.295 2.53193 25.7861 7.57121Z" fill="#EF5350"/>
<path d="M18.4145 11.4438C22.8375 5.60919 17.4408 3.86815 16.2626 7.05003C12.9958 5.96658 11.0109 11.1924 18.4145 11.4438Z" fill="#EF5350"/>
</svg>
