<svg width="68" height="72" viewBox="0 0 68 72" fill="none" xmlns="http://www.w3.org/2000/svg">
<path d="M57.7892 44.5788L56.0537 45.0438L59.279 57.0808L61.0145 56.6157L57.7892 44.5788Z" fill="#C0E4FC"/>
<path d="M19.6086 54.8047L17.873 55.2698L21.0983 67.3067L22.8339 66.8417L19.6086 54.8047Z" fill="#C0E4FC"/>
<path d="M26.4881 7.55729L29.959 6.62726L30.8805 10.0663L26.8669 13.5992L26.4881 7.55729Z" fill="#7A4235"/>
<path d="M26.4934 7.56386L28.0292 13.2957L23.944 11.933L23.0225 8.4939L26.4934 7.56386Z" fill="#DE2318"/>
<path d="M27.4117 11.0025L30.8826 10.0725L33.5322 19.9611L28.3616 23.8038L27.4117 11.0025Z" fill="#E3291F"/>
<path d="M27.4123 11.0014L30.6763 23.1826L26.591 21.82L23.9414 11.9314L27.4123 11.0014Z" fill="#FF2E23"/>
<path d="M41.7745 29.8843C40.8315 26.3649 37.8865 23.9128 34.4746 23.4017L43.4035 56.7246L46.9657 63.1422L50.4366 62.2122L46.7506 48.4556L41.1697 41.8417L42.6959 33.3234L41.7744 29.8844L41.7745 29.8843Z" fill="#95822D"/>
<path d="M37.8994 29.3221C37.2203 26.7875 35.9465 24.6899 34.4699 23.3998C34.4635 23.399 34.4582 23.398 34.4519 23.3972L33.5484 19.9606L26.6064 21.8207L27.5099 25.2573C24.8016 27.4046 23.4704 31.0075 24.415 34.5326L25.3365 37.9717L30.8347 44.6078L29.3911 53.1039L33.0772 66.8603L36.5481 65.9303L44.8784 63.6982L46.961 63.1402L37.8994 29.3221Z" fill="#AB9433"/>
<path d="M42.689 33.3207L46.7437 48.4529L43.2727 49.3829L37.7744 42.7469L39.218 34.2508L42.689 33.3207Z" fill="#FFEFB0"/>
<path d="M39.2267 34.2487L25.3428 37.9689L29.3974 53.1011L43.2814 49.3809L39.2267 34.2487Z" fill="#FFF5CE"/>
<path d="M57.3901 25.6982L60.3022 32.29L53.9647 37.6742L54.7869 26.3958L57.3901 25.6982Z" fill="#C0E4FC"/>
<path d="M54.7889 26.3945L57.1664 33.1296L53.9667 37.6729L47.7532 35.6518L46.9792 28.4871L54.7889 26.3945Z" fill="#D4F4FB"/>
<path d="M61.8801 35.8629L60.3019 32.2914L57.1641 33.1322L57.1595 45.6659C60.9937 44.6385 63.2764 40.7266 62.2584 36.9275C62.1592 36.5573 62.0317 36.2019 61.8801 35.8629Z" fill="#DE2318"/>
<path d="M58.4574 36.7787C58.5813 37.1251 58.6936 37.4846 58.7928 37.8548C59.8108 41.6539 59.0821 45.1494 57.1649 45.6631C53.3307 46.6905 49.3979 44.444 48.3799 40.6449C48.2807 40.2747 48.2135 39.9032 48.1753 39.5338L47.7563 35.6516L57.1696 33.1293L58.4574 36.7787Z" fill="#FF2E23"/>
<path d="M59.9215 55.9799C56.4505 56.9099 57.372 60.349 53.901 61.279L67.7849 57.5589C64.3139 58.4889 63.3924 55.0498 59.9215 55.9799Z" fill="#D4F4FB"/>
<path d="M19.2084 35.9244L22.1205 42.5163L15.7831 47.9004L16.6052 36.622L19.2084 35.9244Z" fill="#C0E4FC"/>
<path d="M16.6082 36.6297L18.9859 43.3648L15.7862 47.9081L9.57252 45.8871L8.79857 38.7223L16.6082 36.6297Z" fill="#D4F4FB"/>
<path d="M23.7024 46.0891L22.1241 42.5176L18.9863 43.3584L18.9818 55.8921C22.816 54.8647 25.0986 50.9528 24.0807 47.1537C23.9815 46.7835 23.854 46.4281 23.7024 46.0891Z" fill="#DE2318"/>
<path d="M20.2719 47.0093C20.3958 47.3557 20.5081 47.7152 20.6073 48.0854C21.6252 51.8844 20.8965 55.38 18.9794 55.8937C15.1451 56.9211 11.2124 54.6746 10.1944 50.8755C10.0952 50.5053 10.0279 50.1338 9.98972 49.7644L9.57074 45.8822L18.9841 43.3599L20.2719 47.0093Z" fill="#FF2E23"/>
<path d="M21.7437 66.2151C18.2728 67.1451 19.1943 70.5842 15.7233 71.5143L29.6072 67.7941C26.1363 68.7241 25.2148 65.285 21.7437 66.2151Z" fill="#D4F4FB"/>
</svg>
