<svg width="57" height="84" viewBox="0 0 57 84" fill="none" xmlns="http://www.w3.org/2000/svg">
<g clip-path="url(#clip0)">
<path d="M50.1676 23.1368L34.1151 49.8506L33.6526 13.2149L33.6541 13.2145L50.1676 23.1368Z" fill="#9AD14B"/>
<path d="M60.0866 6.6238L60.087 6.62536L50.1658 23.1369L33.6523 13.2146L60.0866 6.6238Z" fill="#2BA5F7"/>
<path d="M60.0874 6.62569L66.6782 33.0599L50.1663 23.1372L60.0874 6.62569Z" fill="#F95428"/>
<path d="M50.1669 23.1367L66.6789 33.0594L34.1148 49.852L34.1144 49.8504L50.1669 23.1367Z" fill="#F7B239"/>
<path d="M70.7223 36.4505C70.433 36.5226 70.1161 36.4845 69.8405 36.3187L33.0957 14.239C33.0807 14.2308 33.0658 14.2223 33.051 14.2135L29.2904 11.9526C28.739 11.621 28.5608 10.9055 28.8922 10.354C29.2239 9.80259 29.9394 9.62433 30.4909 9.95581L34.2087 12.1909C34.2235 12.1989 34.2383 12.2074 34.2527 12.2162L71.0403 34.3216C71.5918 34.6529 71.7702 35.3687 71.4389 35.9201C71.2734 36.1959 71.0115 36.3784 70.7223 36.4505Z" fill="#995C0D"/>
<path d="M29.0616 80.4371C28.9644 80.4613 28.861 80.4671 28.7557 80.4507C28.3319 80.3854 28.0411 79.9887 28.1064 79.5648C28.3637 77.8944 27.8609 76.2181 26.7267 74.9658C25.5924 73.7136 23.974 73.0475 22.2865 73.1386L22.2053 73.143C19.5174 73.287 17.0955 71.4989 16.4453 68.8912C16.2929 68.28 16.2455 67.647 16.3045 67.0098C16.5639 64.2022 18.8849 62.009 21.7025 61.9083L41.715 61.1961C41.9801 61.1866 42.2438 61.1494 42.4982 61.086C43.9955 60.7127 45.1035 59.482 45.3209 57.9506C45.4795 56.8344 45.1357 55.7154 44.378 54.8805C43.6203 54.0457 42.54 53.5954 41.4139 53.6452L36.0834 53.8792C35.0056 53.9272 33.9931 53.3813 33.4412 52.4546C32.885 51.5205 32.8836 50.4072 33.4361 49.4721C33.5372 49.2919 33.7093 49.1523 33.9253 49.0984C34.3414 48.9947 34.7628 49.2472 34.8666 49.6633L34.867 49.6649C34.9168 49.8647 34.8851 50.0762 34.7791 50.2528C34.5146 50.693 34.5132 51.2191 34.7758 51.6599C35.0384 52.1008 35.5015 52.3502 36.0148 52.3274L41.3454 52.0934C42.9344 52.0231 44.459 52.6585 45.5281 53.8367C46.5975 55.0148 47.0825 56.594 46.8587 58.169C46.5521 60.3296 44.9879 62.0663 42.8737 62.5934C42.5151 62.6828 42.144 62.7351 41.7708 62.7486L21.7579 63.4608C19.7184 63.5336 18.0388 65.1209 17.8512 67.153C17.8083 67.6159 17.8424 68.0744 17.9524 68.5156C18.4229 70.4026 20.176 71.6964 22.1209 71.5922L22.2017 71.5878C24.3597 71.4712 26.4281 72.3225 27.8778 73.9233C29.3275 75.524 29.9702 77.6666 29.6413 79.8016C29.5924 80.1202 29.3559 80.3636 29.0616 80.4371Z" fill="#2BA5F7"/>
<path d="M34.3963 50.9815C34.107 51.0536 33.7901 51.0155 33.5142 50.8497C32.9628 50.5183 32.7845 49.8026 33.1156 49.251L49.1683 22.5372L59.0636 6.06862C59.0718 6.0535 59.0803 6.0387 59.089 6.02387L61.0288 2.79798C61.3601 2.24666 62.076 2.06859 62.6274 2.39981C63.1789 2.73141 63.3571 3.44722 63.0256 3.99857L61.1116 7.18172C61.1035 7.19652 61.0952 7.21112 61.0864 7.22556L35.1128 50.4511C34.9473 50.7269 34.6855 50.9094 34.3963 50.9815Z" fill="#995C0D"/>
<path d="M25.5824 24.4445C24.4315 23.3953 22.9518 22.942 21.3864 23.1267C19.5451 21.1706 16.78 20.3182 14.122 20.981L14.0857 20.99C11.443 21.6617 9.42598 23.7063 8.71558 26.2858C7.24676 26.8576 6.15314 27.9525 5.62945 29.4192C4.93501 31.3909 5.42304 33.7617 6.84321 35.3218C8.20904 36.8185 10.192 37.3776 12.2794 36.8571L23.2026 34.1337C25.2902 33.6132 26.7783 32.1887 27.2816 30.226C27.8003 28.1696 27.1182 25.8472 25.5824 24.4445Z" fill="#E6EEFF"/>
<path d="M27.2828 30.2254C26.7826 32.1873 25.3002 33.6104 23.2196 34.1291L17.74 35.4953L14.1211 20.9808L14.1573 20.9718C16.8064 20.3113 19.5633 21.1656 21.4006 23.1228C22.9609 22.9393 24.4362 23.3937 25.5845 24.4435C27.1164 25.8473 27.7982 28.1698 27.2828 30.2254Z" fill="#DAE2F2"/>
<path d="M72.8623 54.7929C70.6744 52.3713 66.9475 51.4251 63.5819 52.1523C60.3879 52.8366 57.5088 55.01 56.5351 58.8637C48.9117 61.6322 52.3136 73.8138 60.6949 71.7241L75.2138 68.1042C83.5689 66.0211 80.9325 53.6485 72.8623 54.7929Z" fill="#E6EEFF"/>
</g>
<defs>
<clipPath id="clip0">
<rect width="68.3831" height="68.3831" fill="white" transform="translate(0.0976562 17.1819) rotate(-14)"/>
</clipPath>
</defs>
</svg>
