<svg width="73" height="73" viewBox="0 0 73 73" fill="none" xmlns="http://www.w3.org/2000/svg">
<g clip-path="url(#clip0)">
<path d="M17.477 25.8501C17.477 25.8501 14.5189 35.3653 12.1014 43.3183C10.8442 47.4544 13.38 51.8462 16.95 54.2841C21.7933 57.5915 30.3461 61.3837 43.1042 60.0989L40.2441 25.1234L17.477 25.8501Z" fill="#FF5023"/>
<path d="M43.1029 60.099L40.2427 25.1235L26.5914 25.5593L23.1614 47.0366C23.1614 47.0366 22.5074 52.9786 26.97 58.8888C31.3243 60.1058 36.6804 60.7457 43.1029 60.099Z" fill="#FF3501"/>
<path d="M14.9504 33.9735C17.1936 34.6709 19.5774 33.4177 20.2748 31.1745C20.9721 28.9313 19.719 26.5475 17.4758 25.8501C15.2325 25.1527 12.8487 26.4059 12.1514 28.6491C11.454 30.8923 12.7072 33.2761 14.9504 33.9735Z" fill="#FFC477"/>
<path d="M15.6247 31.8058C14.5803 31.4812 13.9947 30.3673 14.3194 29.3229C14.644 28.2785 15.758 27.693 16.8024 28.0177C17.8467 28.3424 18.4323 29.4562 18.1076 30.5006C17.7831 31.545 16.6693 32.1306 15.6247 31.8058Z" fill="#FFB655"/>
<path d="M34.7492 14.6339C27.8349 12.4844 20.4191 16.3828 18.2695 23.2972L15.0293 33.7201C12.8798 40.6344 16.7782 48.0502 23.6926 50.1997C30.6069 52.3492 38.0227 48.4509 40.1722 41.5365L43.4125 31.1136C45.562 24.1993 41.6635 16.7834 34.7492 14.6339Z" fill="#FFDAAA"/>
<path d="M43.4128 31.1135C45.5623 24.1993 41.6639 16.7834 34.7495 14.6339C32.1268 13.8185 29.4322 13.8741 26.98 14.6337C26.7216 15.0709 26.4812 15.5305 26.261 16.0127C24.511 19.8456 25.1286 22.6308 26.3114 26.8079C26.4984 27.9658 26.4106 28.8323 26.3003 29.9193C26.1067 31.8266 25.8872 33.9884 27.1597 37.5105C28.4323 41.0329 29.9896 42.5483 31.3509 43.8981C33.6533 46.181 34.409 48.6785 34.4627 48.8445C37.1005 47.2342 39.1885 44.7017 40.1725 41.5366L43.4128 31.1135Z" fill="#FFC477"/>
<path d="M29.025 33.046C27.9123 32.7001 26.719 33.3274 26.373 34.4402L25.7441 36.4632C25.3982 37.576 26.0256 38.7693 27.1382 39.1152C28.2509 39.4611 29.4443 38.8337 29.7902 37.7211L30.4191 35.698C30.7651 34.5853 30.1377 33.392 29.025 33.046Z" fill="#FFB655"/>
<path d="M27.1591 37.5104C27.385 38.1354 27.6196 38.6964 27.8604 39.2056C28.7263 39.1652 29.519 38.5937 29.7902 37.7211L30.4191 35.698C30.7651 34.5853 30.1377 33.3919 29.025 33.046C27.9123 32.7001 26.719 33.3274 26.373 34.4402L26.3481 34.5202C26.4996 35.4027 26.7533 36.3871 27.1591 37.5104Z" fill="#FFA733"/>
<path d="M22.7168 31.7022C23.6466 31.9913 24.6346 31.4719 24.9236 30.5421C25.2127 29.6124 24.6933 28.6244 23.7635 28.3354C22.8338 28.0463 21.8458 28.5657 21.5567 29.4955C21.2677 30.4252 21.7871 31.4132 22.7168 31.7022Z" fill="#663A00"/>
<path d="M23.1285 41.1265C23.1285 41.1265 20.625 45.5424 24.7424 46.8224C28.8599 48.1025 29.3012 43.0455 29.3012 43.0455L23.1285 41.1265Z" fill="#FF5023"/>
<path d="M26.4647 41.2831C26.4647 41.2831 24.8264 39.9467 23.0389 41.4157C23.0966 41.4802 25.5513 44.2215 25.5513 44.2215C25.5513 44.2215 29.1275 43.3551 29.2116 43.3347C28.572 41.1111 26.4647 41.2831 26.4647 41.2831Z" fill="#FF3501"/>
<path d="M23.1283 41.1267C23.1283 41.1267 20.6605 45.4808 24.6585 46.7948C23.9495 44.6377 25.0321 42.8716 25.8031 41.9582L23.1283 41.1267Z" fill="#CD2A00"/>
<path d="M23.0389 41.4155C23.0765 41.4574 24.1272 42.6307 24.8577 43.4467C25.4554 42.1084 26.4647 41.283 26.4647 41.283C26.4647 41.283 24.8265 39.9465 23.0389 41.4155Z" fill="#CD2A00"/>
<path d="M25.3172 44.9711C25.1841 44.9297 25.062 44.8529 24.9656 44.7453L22.1662 41.6192C21.877 41.2964 21.9045 40.8003 22.2274 40.5112C22.5502 40.222 23.0462 40.2493 23.3354 40.5723L25.8218 43.3489L29.444 42.4713C29.8653 42.3694 30.2893 42.6282 30.3914 43.0492C30.4933 43.4704 30.2346 43.8944 29.8136 43.9966L25.7353 44.9846C25.5945 45.0185 25.4504 45.0125 25.3172 44.9711Z" fill="#554431"/>
<path d="M34.7492 14.6339C27.8349 12.4844 20.4191 16.3828 18.2695 23.2972L17.4759 25.8501C19.9621 26.1852 21.9725 23.0997 23.6529 22.803C27.5406 22.1166 28.4257 25.1171 30.6594 22.9237L35.6974 14.9686C35.3882 14.8461 35.072 14.7343 34.7492 14.6339Z" fill="#FF5023"/>
<path d="M34.7494 14.6338C32.1266 13.8185 29.4321 13.874 26.9799 14.6336C26.7215 15.0709 26.4811 15.5305 26.2609 16.0127C25.141 18.4656 24.9916 20.4897 25.3385 22.7238C27.866 22.9599 28.7912 24.7585 30.6595 22.9238L35.6975 14.9686C35.3884 14.846 35.0722 14.7342 34.7494 14.6338Z" fill="#FF3501"/>
<path d="M57.0143 46.5391C54.8739 40.615 52.0275 41.6435 49.8872 35.7194C47.7546 29.8169 50.03 29.0438 48.4753 22.9061C47.1753 18.2027 45.5628 14.4722 41.2512 12.5036C36.0053 10.1085 31.0342 11.8531 28.6392 17.099C27.2541 20.1326 27.7261 22.2195 28.8654 26.2317C29.5473 30.1181 27.8172 31.6369 29.6183 36.622C31.7586 42.546 34.6051 41.5176 36.7454 47.4417C37.8631 50.5351 37.621 52.2937 37.4391 54.1114C37.1086 57.4165 39.7839 60.2468 43.1021 60.099L52.4097 59.6844C55.224 59.5591 57.4943 57.3093 57.6091 54.4945C57.7055 52.132 58.3901 50.3468 57.0143 46.5391Z" fill="#FF6243"/>
<path d="M45.868 54.5954C46.0684 52.5914 46.3353 50.653 45.1033 47.2427C42.7438 40.7121 39.6059 41.8459 37.2464 35.3152C35.2609 29.8196 37.1681 28.1454 36.4165 23.8611C35.1605 19.4381 34.6401 17.1375 36.167 13.7935C36.5574 12.9383 37.0103 12.1683 37.5168 11.4843C33.7468 11.1626 30.4542 13.1254 28.6401 17.0989C27.2551 20.1324 27.7271 22.2194 28.8663 26.2315C29.5483 30.118 27.8181 31.6367 29.6192 36.6218C31.7596 42.5459 34.606 41.5175 36.7464 47.4415C37.864 50.5349 37.6219 52.2936 37.44 54.1113C37.1095 57.4162 39.7849 60.2466 43.1031 60.0988L48.0838 59.8771C46.5662 58.655 45.6559 56.7145 45.868 54.5954Z" fill="#FF5023"/>
<path d="M47.7468 40.3498C47.4165 39.8862 47.1729 39.3401 46.9174 38.796C46.7333 38.4038 46.9018 37.9364 47.2941 37.7522C47.6864 37.568 48.1537 37.7367 48.338 38.1288C48.57 38.6232 48.823 39.097 49.0894 39.5369C49.3138 39.9076 49.1952 40.3901 48.8246 40.6145C48.6243 40.7356 48.1021 40.8483 47.7468 40.3498Z" fill="#FF5023"/>
<path d="M53.3239 47.8721C52.5575 45.7507 51.8193 45.026 50.702 43.9292C50.2712 43.5064 49.7835 43.0273 49.2865 42.4577C49.0016 42.131 49.0353 41.6354 49.362 41.3505C49.6887 41.0657 50.1843 41.0994 50.469 41.4262C50.926 41.95 51.3708 42.3867 51.801 42.809C52.9805 43.9669 53.9118 44.8813 54.7998 47.3388C54.947 47.7463 54.7327 48.1871 54.3284 48.3435C53.8164 48.5416 53.4108 48.1126 53.3239 47.8721Z" fill="#FF5023"/>
</g>
<defs>
<clipPath id="clip0">
<rect width="57.0617" height="57.0617" fill="white" transform="translate(17.8047 0.702393) rotate(17.2693)"/>
</clipPath>
</defs>
</svg>
