<svg width="50" height="53" viewBox="0 0 50 53" fill="none" xmlns="http://www.w3.org/2000/svg">
<path d="M23.1344 28.6375C23.1343 28.6374 23.1339 28.6373 23.1338 28.6372L21.8532 32.5679L26.3677 31.8219L26.4091 31.695C25.4601 30.4328 24.3409 29.4317 23.1344 28.6375Z" fill="#734A9A"/>
<path d="M3.0374 41.9352L0.846914 41.2216C0.619163 41.1474 0.494704 40.9026 0.568904 40.6749L13.2969 1.60774C13.5682 0.775105 14.463 0.319987 15.2956 0.591257C16.1283 0.862527 16.5834 1.75745 16.3121 2.59008L3.5841 41.6572C3.5099 41.885 3.26516 42.0094 3.0374 41.9352Z" fill="#DD8858"/>
<path d="M15.3681 0.616782C15.0743 0.505036 14.7705 0.487532 14.4865 0.545721C14.8579 0.953519 15.0065 1.54308 14.8235 2.10497L1.96114 41.5845L3.03617 41.9347C3.26392 42.0089 3.50866 41.8845 3.58286 41.6567L16.2988 2.62655C16.5629 1.81628 16.1647 0.919688 15.3681 0.616782Z" fill="#CA6D36"/>
<path d="M9.82406 22.5009L8.70753 25.9279C8.70753 25.9279 20.6655 24.057 26.4081 31.6947L27.5246 28.2677C21.7823 20.629 9.82406 22.5009 9.82406 22.5009Z" fill="#BB93DF"/>
<path d="M11.5195 22.3414C10.4638 22.4008 9.82235 22.501 9.82235 22.501L8.70582 25.9281C8.70582 25.9281 9.34723 25.8279 10.4029 25.7686L11.5195 22.3414Z" fill="#A285CC"/>
<path d="M26.3694 31.8216L21.8549 32.5676C21.8549 32.5676 23.7388 33.1814 25.2529 35.2486C27.1191 38.35 29.3814 39.8243 32.7641 40.6332C35.9284 41.3905 38.6402 41.0023 39.4621 40.8504C39.6185 40.8215 39.746 40.7096 39.7953 40.5583L40.8338 37.3707C40.8338 37.3707 37.6842 38.1153 33.8809 37.205C30.4982 36.3962 28.236 34.9219 26.3694 31.8216Z" fill="#BB93DF"/>
<path d="M27.4907 33.4301C27.099 32.9488 26.7269 32.4152 26.3694 31.8213L21.8549 32.5674C21.8549 32.5674 22.9991 32.9403 24.2208 34.0834L27.4907 33.4301Z" fill="#9E7DCC"/>
<path d="M10.9393 19.073L9.82245 22.501C9.82245 22.501 21.7807 20.6291 27.523 28.2678L28.6398 24.8398C22.8976 17.2011 10.9393 19.073 10.9393 19.073Z" fill="#52DBFF"/>
<path d="M12.6387 18.9134C11.5829 18.9729 10.9415 19.073 10.9415 19.073L9.82465 22.501C9.82465 22.501 10.4661 22.4009 11.5218 22.3414L12.6387 18.9134Z" fill="#2DCEF9"/>
<path d="M27.4814 28.3931L26.3646 31.8211C28.2311 34.9215 30.4934 36.3958 33.8762 37.2047C37.6794 38.1149 40.829 37.3703 40.829 37.3703L41.9459 33.9423C41.9459 33.9423 38.7962 34.6869 34.9927 33.7776C31.6102 32.9677 29.348 31.4935 27.4814 28.3931Z" fill="#52DBFF"/>
<path d="M28.6027 30.0018C28.2111 29.5205 27.839 28.9868 27.4814 28.3931L26.3646 31.8211C26.722 32.4148 27.0942 32.9486 27.4858 33.4298L28.6027 30.0018Z" fill="#2DCEF9"/>
<path d="M12.0584 15.6449L10.9416 19.0729C10.9416 19.0729 22.8999 17.2009 28.6421 24.8397L29.759 21.4117C24.0167 13.773 12.0584 15.6449 12.0584 15.6449Z" fill="#00DCAB"/>
<path d="M13.7539 15.4853C12.6982 15.5447 12.0567 15.6449 12.0567 15.6449L10.9399 19.0729C10.9399 19.0729 11.5813 18.9727 12.6371 18.9133L13.7539 15.4853Z" fill="#10C68E"/>
<path d="M28.6006 24.9657L27.4837 28.3937C29.3503 31.4942 31.6125 32.9685 34.995 33.7783C38.7985 34.6876 41.9482 33.9429 41.9482 33.9429L43.065 30.5149C43.065 30.5149 39.9151 31.2605 36.1118 30.3502C32.7294 29.5404 30.4668 28.0671 28.6006 24.9657Z" fill="#00DCAB"/>
<path d="M29.7217 26.5747C29.3301 26.0934 28.958 25.5596 28.6006 24.9657L27.4837 28.3937C27.8412 28.9875 28.2134 29.5212 28.605 30.0024L29.7217 26.5747Z" fill="#10C68E"/>
<path d="M13.1737 12.2169L12.0568 15.645C12.0568 15.645 24.0151 13.773 29.7573 21.4118L30.8742 17.9837C25.1319 10.345 13.1737 12.2169 13.1737 12.2169Z" fill="#FFDD00"/>
<path d="M14.8721 12.0572C13.8163 12.1166 13.1749 12.2168 13.1749 12.2168L12.058 15.6449C12.058 15.6449 12.6995 15.5447 13.7552 15.4852L14.8721 12.0572Z" fill="#FFC239"/>
<path d="M29.7158 21.5374L28.599 24.9654C30.4652 28.0668 32.7277 29.5401 36.1102 30.3499C39.9135 31.2602 43.0634 30.5146 43.0634 30.5146L44.1799 27.0875C44.1799 27.0875 41.0303 27.8322 37.2271 26.9219C33.8446 26.112 31.582 24.6388 29.7158 21.5374Z" fill="#FFDD00"/>
<path d="M30.837 23.1464C30.4454 22.6651 30.0733 22.1313 29.7158 21.5374L28.599 24.9654C28.9563 25.5594 29.3285 26.0931 29.7201 26.5744L30.837 23.1464Z" fill="#FFC239"/>
<path d="M14.292 8.78893L13.1751 12.217C13.1751 12.217 25.1334 10.345 30.8756 17.9838L31.9925 14.5557C26.25 6.9179 14.292 8.78893 14.292 8.78893Z" fill="#FF8522"/>
<path d="M15.9873 8.62946C14.9316 8.68885 14.2902 8.78892 14.2902 8.78892L13.1733 12.217C13.1733 12.217 13.8147 12.1168 14.8705 12.0573L15.9873 8.62946Z" fill="#FF7224"/>
<path d="M30.835 18.1094L29.7181 21.5374C31.5843 24.6388 33.8469 26.1121 37.2294 26.9219C41.0326 27.8322 44.1822 27.0876 44.1822 27.0876L45.2991 23.6595C45.2991 23.6595 42.1494 24.4042 38.3462 23.4939C34.9634 22.685 32.7012 21.2108 30.835 18.1094Z" fill="#FF8522"/>
<path d="M31.9561 19.7187C31.5645 19.2373 31.1924 18.7035 30.835 18.1096L29.7181 21.5377C30.0755 22.1316 30.4477 22.6654 30.8392 23.1467L31.9561 19.7187Z" fill="#FF7224"/>
<path d="M15.411 5.36186L14.2944 8.78893C14.2944 8.78893 26.2524 6.91789 31.995 14.5557L33.0407 11.3458C33.085 11.2099 33.0605 11.06 32.9726 10.9472C27.1787 3.5197 15.411 5.36186 15.411 5.36186Z" fill="#FA496E"/>
<path d="M17.1064 5.20221C16.0507 5.2616 15.4093 5.36184 15.4093 5.36184L14.2927 8.78891C14.2927 8.78891 14.9341 8.68875 15.9899 8.62944L17.1064 5.20221Z" fill="#E23760"/>
<path d="M39.4618 20.0662C36.079 19.2573 33.8167 17.7831 31.9502 14.6826L30.8337 18.1097C32.6999 21.2111 34.9622 22.6853 38.3449 23.4942C42.1481 24.4045 45.2978 23.6598 45.2978 23.6598L46.1905 20.9196C46.2902 20.6138 46.0348 20.3099 45.7165 20.3561C44.5825 20.5205 42.1903 20.7192 39.4618 20.0662Z" fill="#FA496E"/>
<path d="M33.0714 16.2913C32.6798 15.8101 32.3077 15.2765 31.9502 14.6826L30.8337 18.1097C31.191 18.7037 31.5632 19.2375 31.9548 19.7188L33.0714 16.2913Z" fill="#E23760"/>
</svg>
