<svg width="79" height="78" viewBox="0 0 79 78" fill="none" xmlns="http://www.w3.org/2000/svg">
<g clip-path="url(#clip0)">
<path d="M49.6835 30.8051C49.6835 30.8051 46.5849 37.1898 49.0802 51.5407L53.2493 51.4564C50.23 37.062 51.352 30.2982 51.352 30.2982L49.6835 30.8051Z" fill="#96695A"/>
<path d="M49.6836 30.8051C49.6836 30.8051 46.5849 37.1898 49.0802 51.5407L51.4976 51.4917C49.3196 42.214 49.7519 35.8203 50.0264 33.579C50.0885 33.0727 50.5279 32.7024 51.038 32.715L51.1711 32.7184C51.2232 31.1071 51.3519 30.2981 51.3519 30.2981L49.6836 30.8051Z" fill="#825A50"/>
<path d="M25.9884 22.2641L24.4909 22.1114L24.0438 23.4584C24.0438 23.4584 31.406 35.6536 36.2578 54.9576L42.0491 53.502C34.7817 32.7529 25.9884 22.2641 25.9884 22.2641Z" fill="#96695A"/>
<path d="M27.1479 24.5233L27.3051 23.9915C26.4744 22.8459 25.9884 22.2641 25.9884 22.2641L24.4909 22.1114L24.0438 23.4584C24.0438 23.4584 31.4061 35.6536 36.2578 54.9576L39.0413 54.258C34.8784 39.3208 28.9997 28.8764 27.3458 26.1042C27.0607 25.6261 26.9903 25.057 27.1479 24.5233Z" fill="#825A50"/>
<path d="M42.7708 52.2939C32.1799 54.9558 23.9615 61.5322 20.3435 69.2154L20.5851 70.1768L70.7752 57.5616L70.5368 56.6032C63.7162 51.5415 53.3635 49.6316 42.7708 52.2939Z" fill="#FFDC64"/>
<path d="M33.854 65.8198C36.0639 59.5377 41.0099 54.1979 47.6525 51.3944C46.0384 51.5927 44.4085 51.8823 42.7708 52.2939C32.1799 54.9558 23.9615 61.5322 20.3435 69.2154L20.5851 70.1768L34.0955 66.781L33.854 65.8198Z" fill="#FFC850"/>
<path d="M70.7751 57.562C70.7167 57.5782 70.674 57.5952 70.6101 57.6113C69.7222 57.8344 69.323 57.7854 68.7201 57.7115C67.9465 57.6158 66.9826 57.4968 65.3736 57.9012C63.7656 58.3054 62.9725 58.8659 62.336 59.316C61.8408 59.666 61.5131 59.8977 60.6272 60.1203C59.7413 60.343 59.344 60.294 58.742 60.2193C57.9683 60.1236 57.0054 60.0044 55.3982 60.4084C53.7911 60.8123 52.998 61.3729 52.3616 61.823C51.8663 62.1729 51.5397 62.4044 50.6528 62.6273C49.7667 62.85 49.3696 62.801 48.7676 62.7263C47.9939 62.6306 47.031 62.5114 45.424 62.9153C43.8159 63.3194 43.0237 63.8798 42.3873 64.3299C41.8922 64.6803 41.5654 64.9113 40.6793 65.134C39.7933 65.3567 39.3962 65.3077 38.7941 65.233C38.0205 65.1373 37.0576 65.0181 35.4504 65.422C33.8432 65.826 33.0511 66.3863 32.4139 66.8371C31.9196 67.1868 31.5928 67.4177 30.7077 67.6402C29.8236 67.8624 29.4274 67.8132 28.8265 67.7387C28.0527 67.6425 27.0908 67.5231 25.4836 67.927C23.8764 68.331 23.0843 68.8913 22.4471 69.3421C21.9528 69.6919 21.626 69.9228 20.7409 70.1452C20.6815 70.1602 20.6397 70.1648 20.5846 70.1773L20.831 71.1575C21.2621 72.8725 23.2825 73.6268 24.7264 72.6059C24.733 72.6012 24.7395 72.5965 24.7461 72.5919C25.2412 72.2415 25.568 72.0105 26.4541 71.7878C27.3392 71.5654 27.7353 71.6146 28.3363 71.6891C29.1101 71.7853 30.072 71.9047 31.6782 71.501C33.2853 71.0971 34.0765 70.537 34.713 70.0869C35.2082 69.7364 35.5349 69.5055 36.421 69.2828C37.3071 69.0601 37.7042 69.1091 38.3062 69.1838C39.0799 69.2795 40.0428 69.3987 41.65 68.9947C43.2571 68.5908 44.0492 68.0305 44.6857 67.5804C45.181 67.2304 45.5077 66.999 46.3946 66.7761C47.2806 66.5534 47.6778 66.6023 48.2798 66.677C49.0535 66.7727 50.0163 66.8919 51.6235 66.488C53.2307 66.0841 54.0238 65.5235 54.6601 65.0734C55.1554 64.7234 55.4821 64.492 56.369 64.2691C57.255 64.0464 57.6522 64.0954 58.2542 64.1701C59.0279 64.2658 59.9907 64.385 61.5979 63.9811C63.2051 63.5771 63.9982 63.0166 64.6345 62.5665C65.1298 62.2165 65.4575 61.9848 66.3444 61.7619C67.2322 61.5388 67.6314 61.5878 68.2343 61.6617C68.248 61.6634 68.2618 61.6652 68.2757 61.6668C70.0306 61.8834 71.4545 60.2636 71.0235 58.5488L70.7751 57.562Z" fill="#7FE1FF"/>
<path d="M71.0946 59.5415C69.4856 59.9459 68.5217 59.8269 67.7481 59.7312C67.1452 59.6573 66.7461 59.6082 65.8581 59.8314C64.9711 60.0544 64.6436 60.286 64.1483 60.636C63.5118 61.0861 62.7188 61.6466 61.1117 62.0506C59.5046 62.4545 58.5416 62.3353 57.768 62.2396C57.1659 62.1649 56.7688 62.1159 55.8828 62.3386C54.9957 62.5615 54.6691 62.793 54.1739 63.1429C53.5374 63.593 52.7444 64.1536 51.1373 64.5575C49.5302 64.9614 48.5672 64.8422 47.7936 64.7465C47.1915 64.6718 46.7944 64.6228 45.9084 64.8455C45.0213 65.0685 44.6947 65.2999 44.1995 65.6498C43.563 66.1 42.7709 66.6603 41.1637 67.0642C39.5566 67.4682 38.5937 67.3489 37.82 67.2533C37.218 67.1785 36.8209 67.1296 35.9348 67.3523C35.0487 67.575 34.722 67.8059 34.2268 68.1564C33.5903 68.6065 32.7992 69.1665 31.192 69.5705C29.5858 69.9742 28.6239 69.8547 27.8501 69.7586C27.2491 69.6841 26.853 69.6349 25.9679 69.8573C25.0818 70.08 24.755 70.3109 24.2599 70.6614C23.6234 71.1115 22.8323 71.6716 21.2251 72.0755C19.6189 72.4792 18.656 72.36 17.8831 72.2636C17.4632 72.2118 17.1612 72.174 16.7249 72.2245C15.6322 72.3509 14.6456 71.5672 14.5195 70.4755C14.3932 69.3828 15.184 68.3944 16.268 68.2697C17.1786 68.1646 17.8407 68.2472 18.3734 68.3133C18.9733 68.388 19.3705 68.437 20.2546 68.2148C21.1397 67.9923 21.4665 67.7614 21.9608 67.4116C22.5981 66.9608 23.3902 66.4005 24.9973 65.9966C26.6043 65.5927 27.5664 65.7121 28.3402 65.8083C28.9411 65.8827 29.3373 65.9319 30.2214 65.7097C31.1065 65.4873 31.4333 65.2563 31.9276 64.9066C32.5649 64.4558 33.357 63.8955 34.9641 63.4915C36.5711 63.0876 37.5341 63.2068 38.3078 63.3025C38.9098 63.3772 39.307 63.4262 40.193 63.2035C41.0791 62.9808 41.4059 62.7499 41.901 62.3994C42.5375 61.9493 43.3296 61.389 44.9376 60.9848C46.5447 60.5809 47.5077 60.7001 48.2812 60.7958C48.8833 60.8705 49.2804 60.9195 50.1665 60.6968C51.0535 60.4739 51.3801 60.2424 51.8753 59.8925C52.5118 59.4424 53.3049 58.8818 54.9119 58.4779C56.519 58.074 57.482 58.1932 58.2557 58.2889C58.8577 58.3636 59.2548 58.4126 60.1409 58.1899C61.0269 57.9672 61.3545 57.7355 61.8497 57.3856C62.4862 56.9354 63.2793 56.3749 64.8873 55.9707C66.4963 55.5663 67.4601 55.6853 68.2338 55.781C68.8367 55.855 69.2357 55.904 70.1237 55.6808C71.0117 55.4576 71.3392 55.226 71.8355 54.8758C72.2744 54.565 72.8217 54.1784 73.6768 53.8407C74.6858 53.4378 75.8556 53.9371 76.2599 54.9598C76.6641 55.9821 76.1631 57.1382 75.1403 57.5425C74.7292 57.7049 74.4791 57.8821 74.1327 58.1269C73.4958 58.5773 72.7026 59.1373 71.0946 59.5415Z" fill="#00C3FF"/>
<path d="M34.0918 19.8852C34.0918 19.8852 25.0343 22.618 25.0453 22.5823L19.0019 28.8301C19.828 32.4581 22.0911 33.9938 23.4971 34.6128C24.0207 34.8433 24.5927 34.418 24.5298 33.8492C24.28 31.5927 23.7805 26.3769 24.8841 22.6246C28.7813 23.1064 33.4721 25.6472 35.4482 26.7938C35.9373 27.0776 36.5505 26.7405 36.5672 26.1752C36.6123 24.6545 36.3153 21.9954 34.0918 19.8852Z" fill="#A0D755"/>
<path d="M24.5386 16.6325C23.0514 14.9507 20.7224 13.6043 19.5537 14.3664C18.3937 15.1227 18.7517 17.7242 19.668 19.7478L24.9889 22.7035L24.5386 16.6325Z" fill="#A0D755"/>
<path d="M40.5863 18.075C38.2046 16.11 31.9616 12.4154 25.9827 21.1382C25.9027 21.2549 25.7126 21.2006 25.729 21.06C26.0146 18.5964 27.8775 15.2627 32.0451 12.2048C32.3851 11.9555 32.2106 11.4116 31.7889 11.4115C28.7161 11.4108 21.2626 12.3492 23.7289 20.4335C23.8043 20.6806 23.5115 20.8764 23.315 20.7086C16.9633 15.2855 13.1496 21.5672 11.9153 24.3678C11.7452 24.7537 12.1725 25.1327 12.5379 24.9223C16.567 22.6023 20.8031 22.3623 22.8313 22.7844C22.9763 22.8146 22.959 23.02 22.8139 23.0496C12.7829 25.0954 13.6358 32.1731 14.4636 35.1094C14.6216 35.6697 15.3533 35.8006 15.6982 35.3315C17.3439 33.0939 21.1828 27.8744 23.3753 24.8935C24.4147 23.4802 25.9298 22.4932 27.6423 22.1122L40.2871 19.2984C40.857 19.1714 41.0366 18.4466 40.5863 18.075Z" fill="#B4E66E"/>
<path d="M50.7987 30.1376C43.9383 25.9149 41.5218 31.7196 40.8911 33.8536C40.7998 34.1625 41.1039 34.4397 41.4064 34.3291L49.4803 31.3751C50.2312 31.1004 51.0616 31.1449 51.7788 31.4983L59.6289 35.366C59.9163 35.5076 60.247 35.268 60.1927 34.9522C59.8164 32.7687 58.0956 26.7137 50.7987 30.1376Z" fill="#A0D755"/>
<path d="M58.0906 26.957C56.4745 25.6332 52.6746 23.291 50.9588 28.7683C50.8993 28.9582 50.6262 28.9448 50.5858 28.7499C49.4177 23.1174 45.4555 25.011 43.7358 26.1447C43.4449 26.3364 43.5469 26.7818 43.892 26.8287C47.1108 27.2657 48.6822 28.8651 49.52 29.86C49.7411 30.1224 50.0408 30.2992 50.3778 30.3642C50.8221 30.4498 51.2833 30.3353 51.6234 30.0372C52.6757 29.1147 54.6797 27.7056 57.8675 27.6212C58.2148 27.612 58.3594 27.1772 58.0906 26.957Z" fill="#B4E66E"/>
</g>
<defs>
<clipPath id="clip0">
<rect width="63.6941" height="63.6941" fill="white" transform="translate(0.847656 16.144) rotate(-14.1083)"/>
</clipPath>
</defs>
</svg>
