<svg width="81" height="81" viewBox="0 0 81 81" fill="none" xmlns="http://www.w3.org/2000/svg">
<g clip-path="url(#clip0)">
<path d="M25.7529 32.1529L44.9609 70.4358C45.6603 71.8285 47.356 72.3913 48.7489 71.6925L74.929 58.5566C76.3218 57.8577 76.8845 56.1615 76.1856 54.7686L56.9777 16.4861C56.2783 15.0929 54.5825 14.5301 53.1897 15.2295L27.0096 28.3649C25.6167 29.0638 25.054 30.76 25.7529 32.1529Z" fill="#D7F8FF"/>
<path d="M52.68 60.0891L47.7706 17.9486L27.01 28.3647C25.6172 29.0641 25.0544 30.7598 25.7533 32.1527L41.8304 64.1944L50.2034 63.2187C51.7513 63.0383 52.8605 61.6375 52.68 60.0891Z" fill="#87D1EA"/>
<path d="M32.916 38.6641C32.9059 38.6441 32.8955 38.599 32.8854 38.5533L31.6528 31.2551C31.5917 30.9084 31.8931 30.581 32.2653 30.3943C32.6473 30.2027 33.0897 30.1566 33.3319 30.4127L38.4459 35.7637C38.4759 35.7988 38.5014 35.824 38.5165 35.8539C38.6727 36.1655 38.316 36.634 37.9644 36.8104C37.7429 36.9217 37.5368 36.9372 37.3908 36.7712L36.3374 35.6257L34.0348 36.7811L34.3239 38.3104C34.3695 38.5264 34.2337 38.6823 34.0127 38.7935C33.661 38.9699 33.0773 38.986 32.916 38.6641ZM35.5416 34.7416L33.1182 32.0933L33.7921 35.6194L35.5416 34.7416Z" fill="#242E5B"/>
<path d="M64.0556 50.081C64.2766 49.9698 64.4832 49.9542 64.6292 50.1202L65.6821 51.2657L67.9847 50.1104L67.6958 48.5816C67.6505 48.365 67.7859 48.2092 68.0069 48.098C68.359 47.9214 68.9478 47.9156 69.104 48.2272C69.1192 48.2575 69.124 48.2925 69.1346 48.338L70.3671 55.6358C70.4278 55.9831 70.1264 56.3105 69.7444 56.5021C69.3722 56.6887 68.9298 56.7349 68.6881 56.4786L63.574 51.1276C63.5441 51.0925 63.5136 51.0575 63.5035 51.0375C63.3422 50.7156 63.7039 50.2574 64.0556 50.081ZM66.4683 52.1553L68.892 54.803L68.2183 51.2774L66.4683 52.1553Z" fill="#242E5B"/>
<path d="M55.3819 52.6262C54.9462 52.7564 54.4665 52.5595 54.2557 52.1391L51.2912 46.2301C51.0544 45.7585 51.2448 45.1849 51.7164 44.9486C52.1875 44.7119 52.7616 44.9022 52.9979 45.3738L55.9629 51.2827C56.1991 51.7539 56.0087 52.3275 55.5377 52.5642C55.4864 52.5898 55.4346 52.6104 55.3819 52.6262Z" fill="#7D8EB0"/>
<path d="M52.6797 53.9819C52.244 54.1121 51.7647 53.915 51.554 53.4947C51.3171 53.0232 51.508 52.4494 51.9792 52.2132L57.3849 49.5007C57.856 49.2644 58.4301 49.4547 58.6668 49.9257C58.9032 50.3974 58.7128 50.971 58.2417 51.2077L52.8354 53.9199C52.7846 53.9454 52.7328 53.966 52.6797 53.9819Z" fill="#7D8EB0"/>
<path d="M52.7249 39.0568C52.6709 39.0837 52.6183 39.1118 52.566 39.1407C52.6359 38.4212 52.5104 37.6739 52.1623 36.9794C51.1783 35.0187 48.7913 34.2269 46.831 35.2107C44.8704 36.1947 44.0785 38.5817 45.0619 40.5421C45.4103 41.236 45.9344 41.7836 46.5532 42.1578C46.499 42.1822 46.4446 42.2077 46.3911 42.2345C44.4304 43.2184 43.6386 45.6055 44.6225 47.5662C45.6059 49.5265 47.9929 50.3183 49.9537 49.3348C51.3364 48.6411 52.1378 47.2497 52.1451 45.8015C53.31 46.6614 54.9048 46.8505 56.2874 46.1567C58.2478 45.1734 59.0401 42.7862 58.0561 40.8255C57.0722 38.8648 54.6851 38.073 52.7249 39.0568Z" fill="#7D8EB0"/>
<path d="M46.831 35.2107C44.8703 36.1947 44.0785 38.5817 45.0619 40.5421C45.4103 41.236 45.9344 41.7836 46.5532 42.1579C46.499 42.1823 46.4446 42.2078 46.3911 42.2345C44.4304 43.2185 43.6385 45.6055 44.6225 47.5662C45.6058 49.5266 47.9929 50.3184 49.9537 49.3349C50.4958 49.0631 50.9486 48.6832 51.2996 48.2354L49.7526 34.9565C48.8156 34.6753 47.7737 34.7377 46.831 35.2107Z" fill="#516789"/>
<path d="M9.40804 18.9606L14.3642 61.5044C14.5446 63.0523 15.9459 64.1614 17.4938 63.981L46.5876 60.5912C48.1357 60.4113 49.2448 59.01 49.0643 57.4616L44.1082 14.9183C43.9279 13.3704 42.5265 12.2613 40.9786 12.4417L11.8842 15.8312C10.3363 16.0115 9.22769 17.4127 9.40804 18.9606Z" fill="#D7F8FF"/>
<path d="M30.0416 45.1172C28.5872 44.0327 26.5712 43.2853 25.1052 42.2171C23.833 41.2898 22.6528 40.1797 21.9245 38.7844C21.1962 37.389 20.97 35.6723 21.601 34.2304C22.119 33.0467 23.2028 32.1282 24.4537 31.8065C25.9201 31.429 27.5693 31.8842 28.6269 32.9715C29.4061 31.6703 30.9061 30.8482 32.4201 30.8784C33.7113 30.904 34.9775 31.5491 35.7537 32.5816C36.6988 33.8398 36.8735 35.5627 36.4853 37.0879C36.0977 38.6134 35.2039 39.9652 34.1792 41.1599C32.9977 42.5367 31.208 43.7274 30.0416 45.1172Z" fill="#EA6789"/>
<path d="M13.9109 27.5305C13.9083 27.5082 13.914 27.4619 13.9202 27.416L15.2582 20.1365C15.3195 19.7896 15.7145 19.5849 16.1281 19.5366C16.5526 19.4871 16.9843 19.5954 17.1241 19.919L20.0996 26.6962C20.1156 26.7396 20.1309 26.7719 20.1348 26.8056C20.1753 27.1518 19.6799 27.4701 19.289 27.5152C19.0429 27.5442 18.8441 27.4878 18.7636 27.2822L18.1659 25.8452L15.6067 26.1439L15.3553 27.6794C15.3242 27.8978 15.1436 27.9985 14.8974 28.027C14.5061 28.0727 13.9527 27.8881 13.9109 27.5305ZM17.7198 24.7422L16.3482 21.4248L15.7756 24.9688L17.7198 24.7422Z" fill="#242E5B"/>
<path d="M39.2665 48.9081C39.5123 48.8798 39.7114 48.9356 39.792 49.1416L40.3896 50.5781L42.9485 50.2801L43.2003 48.7444C43.2313 48.5255 43.412 48.4253 43.6582 48.3968C44.049 48.3512 44.6043 48.5471 44.6447 48.8933C44.6487 48.927 44.6411 48.9616 44.6354 49.0079L43.2975 56.2873C43.2361 56.6342 42.8406 56.8391 42.416 56.8881C42.0024 56.9364 41.5712 56.828 41.4316 56.5048L38.4561 49.7276C38.44 49.6842 38.4234 49.6405 38.4208 49.6182C38.379 49.2606 38.8757 48.9537 39.2665 48.9081ZM40.8243 51.6825L42.196 54.9999L42.7686 51.4564L40.8243 51.6825Z" fill="#242E5B"/>
<path d="M48.7868 10.1158C48.4245 10.2242 48.0174 10.1106 47.7669 9.79745L45.4565 6.90778C45.1274 6.49616 45.1942 5.89491 45.6062 5.56565C46.0183 5.23638 46.6191 5.30332 46.9482 5.71495L49.2587 8.60461C49.5878 9.01624 49.521 9.61748 49.1089 9.94675C49.0104 10.0254 48.9007 10.0818 48.7868 10.1158Z" fill="#7D8EB0"/>
<path d="M54.3289 8.5104C54.2099 8.54599 54.0816 8.55923 53.95 8.54424C53.4261 8.48608 53.0481 8.01372 53.1067 7.48976L53.5165 3.81296C53.5746 3.28867 54.0467 2.91172 54.571 2.96974C55.0949 3.02791 55.4729 3.50026 55.4143 4.02423L55.0049 7.70088C54.9614 8.09371 54.6851 8.40391 54.3289 8.5104Z" fill="#7D8EB0"/>
<path d="M59.3849 11.2957C59.0231 11.4039 58.6158 11.2899 58.3654 10.9767C58.0358 10.5652 58.1027 9.96447 58.5147 9.63473L61.4039 7.32443C61.8166 6.9955 62.4173 7.06244 62.7465 7.47407C63.0756 7.88569 63.0088 8.48694 62.5967 8.8162L59.7075 11.1265C59.6085 11.2053 59.4988 11.2617 59.3849 11.2957Z" fill="#7D8EB0"/>
</g>
<defs>
<clipPath id="clip0">
<rect width="64.3704" height="64.3704" fill="white" transform="translate(0.189453 19.0702) rotate(-16.6451)"/>
</clipPath>
</defs>
</svg>
