<svg width="42" height="42" viewBox="0 0 42 42" fill="none" xmlns="http://www.w3.org/2000/svg">
<g clip-path="url(#clip0)">
<path d="M2.46094 32.6553C2.46094 30.5939 4.132 28.9229 6.19336 28.9229C8.25472 28.9229 9.92578 30.5939 9.92578 32.6553V38.8896C9.92578 40.951 8.25472 42.6221 6.19336 42.6221C4.132 42.6221 2.46094 40.951 2.46094 38.8896V32.6553Z" fill="#FF9100"/>
<path d="M22.2305 30.1943C22.2305 28.133 23.9015 26.4619 25.9629 26.4619C28.0243 26.4619 29.6953 28.133 29.6953 30.1943V38.8896C29.6953 40.951 28.0243 42.6221 25.9629 42.6221C23.9015 42.6221 22.2305 40.951 22.2305 38.8896V30.1943Z" fill="#7FE1FF"/>
<path d="M12.3867 25.2314C12.3867 23.1927 14.0394 21.54 16.0781 21.54C18.1168 21.54 19.7695 23.1927 19.7695 25.2314V38.9307C19.7695 40.9694 18.1168 42.6221 16.0781 42.6221C14.0394 42.6221 12.3867 40.9694 12.3867 38.9307V25.2314Z" fill="#FFD400"/>
<path d="M32.1562 20.3096C32.1562 18.2709 33.8089 16.6182 35.8477 16.6182C37.8864 16.6182 39.5391 18.2709 39.5391 20.3096V38.9307C39.5391 40.9694 37.8864 42.6221 35.8477 42.6221C33.8089 42.6221 32.1562 40.9694 32.1562 38.9307V20.3096Z" fill="#54E360"/>
<path d="M6.23438 28.9229H9.92578V42.6221H6.23438V28.9229Z" fill="#FF7816"/>
<path d="M16.0781 21.5396H19.7695V42.6216H16.0781V21.5396Z" fill="#FDBF00"/>
<path d="M25.9219 26.4624H29.6953V42.6226H25.9219V26.4624Z" fill="#00C3FF"/>
<path d="M35.8477 16.6182H39.5391V42.6221H35.8477V16.6182Z" fill="#00CC71"/>
<path d="M21 39.5386H0V41.9995H21H42V39.5386H21Z" fill="#4A696F"/>
<path d="M21 39.5386H42V41.9995H21V39.5386Z" fill="#3E5959"/>
<path d="M37.2526 2.25L30.8974 3.75161L32.5151 5.36926L25.5679 10.1952L21.6143 7.2295C21.3659 7.04317 21.0518 6.96781 20.7456 7.02087C20.4397 7.07408 20.1693 7.25122 19.9984 7.51042L16.053 13.4937L12.4061 10.7582C12.1577 10.5718 11.8435 10.4963 11.5374 10.5495C11.2315 10.6028 10.9611 10.7799 10.7902 11.0391L6.18612 18.0214C5.84373 18.5406 5.98711 19.2391 6.50636 19.5815C6.69732 19.7075 6.9125 19.7676 7.12525 19.7676C7.49122 19.7676 7.84999 19.5896 8.06645 19.2614L12.0119 13.278L15.6587 16.0136C15.9072 16.1999 16.2215 16.2755 16.5274 16.2222C16.8333 16.169 17.1037 15.9919 17.2746 15.7327L21.2201 9.74938L24.8669 12.4849C25.2553 12.7761 25.7865 12.786 26.1852 12.5089L33.9668 7.10336C34.0228 7.06447 34.0734 7.02073 34.12 6.97415L35.7511 8.60525L37.2526 2.25Z" fill="#97DE3D"/>
<path d="M30.8981 3.75161L37.2533 2.25L35.7518 8.60525L34.1207 6.97415C34.074 7.02073 34.0234 7.06447 33.9675 7.10336L26.1858 12.5089C25.7872 12.786 25.2559 12.7761 24.8675 12.4849L21.2207 9.74938V7.04C21.3618 7.0764 21.4959 7.14021 21.6149 7.2295L25.5686 10.1952L32.5157 5.36926L30.8981 3.75161Z" fill="#59C36A"/>
</g>
<defs>
<clipPath id="clip0">
<rect width="42" height="42" fill="white"/>
</clipPath>
</defs>
</svg>
