<svg width="75" height="75" viewBox="0 0 75 75" fill="none" xmlns="http://www.w3.org/2000/svg">
<g clip-path="url(#clip0)">
<path d="M46.4663 9.43321C50.1329 10.1302 52.1049 16.812 50.0844 29.1646C48.99 35.8552 47.6126 41.1857 41.464 40.017C35.3154 38.8483 35.7122 33.3312 36.8064 26.6406C38.8271 14.288 42.7998 8.73625 46.4663 9.43321Z" fill="#FFF4D1"/>
<path d="M44.9309 17.4323C46.7884 17.7964 47.5746 22.6284 46.121 31.7904C45.3338 36.7528 44.4472 40.7271 41.3322 40.1165C38.2173 39.506 38.607 35.4345 39.3943 30.4721C40.8477 21.31 43.0732 17.0683 44.9309 17.4323Z" fill="#F895C6"/>
<path opacity="0.15" d="M48.2147 37.6599C38.3027 34.0599 40.8441 17.6325 43.6814 10.7142C40.93 12.7739 38.3606 18.0667 36.8406 26.7936C35.6884 33.4086 35.2707 38.8632 41.744 40.0188C44.9302 40.5876 46.899 39.5989 48.2147 37.6599Z" fill="#AC6A22"/>
<path d="M20.9007 9.43321C16.9007 10.1302 14.7496 16.812 16.9538 29.1646C18.1476 35.8552 19.6502 41.1857 26.3579 40.017C33.0654 38.8483 32.6325 33.3312 31.4387 26.6406C29.2346 14.288 24.9006 8.73625 20.9007 9.43321Z" fill="#FFF4D1"/>
<path d="M22.3565 17.4323C20.1894 17.7964 19.2722 22.6284 20.968 31.7904C21.8865 36.7528 22.9208 40.7271 26.555 40.1165C30.1891 39.506 29.7343 35.4345 28.8159 30.4721C27.1204 21.31 24.5237 17.0683 22.3565 17.4323Z" fill="#F895C6"/>
<path opacity="0.15" d="M30.8034 38.0371C20.2425 32.7274 18.8036 15.701 20.6281 9.375C16.7854 10.4183 14.7911 17.0934 16.9732 29.1138C18.1934 35.8353 19.7292 41.1904 26.5847 40.0162C28.5282 39.6836 29.8846 38.9994 30.8034 38.0371Z" fill="#AC6A22"/>
<path d="M53.5711 38.8392H13.3926V65.2652C13.3926 67.0284 14.6251 68.5626 16.3759 68.9787C27.6166 71.6499 39.3472 71.6499 50.5879 68.9787C52.3386 68.5626 53.5711 67.0284 53.5711 65.2652V38.8392Z" fill="#7D9EDF"/>
<path d="M23.8495 62.735C25.769 62.735 27.325 61.4959 27.325 59.9673C27.325 58.4387 25.769 57.1996 23.8495 57.1996C21.93 57.1996 20.374 58.4387 20.374 59.9673C20.374 61.4959 21.93 62.735 23.8495 62.735Z" fill="#F895C6"/>
<path d="M42.6884 62.735C44.6078 62.735 46.1638 61.4959 46.1638 59.9673C46.1638 58.4387 44.6078 57.1996 42.6884 57.1996C40.7689 57.1996 39.2129 58.4387 39.2129 59.9673C39.2129 61.4959 40.7689 62.735 42.6884 62.735Z" fill="#F895C6"/>
<path opacity="0.15" d="M23.5 46.2154C26.4415 46.277 29.6376 46.3015 33.4819 46.3015C41.912 46.3015 47.2257 46.1842 53.5711 45.8137V38.8392H13.3926V65.2654C13.3926 67.0286 14.6251 68.5629 16.3758 68.9789C23.0653 70.5686 29.9283 71.212 36.7583 70.9096C25.1794 66.8968 22.3294 55.8127 21.6372 48.1668C21.541 47.1027 22.4085 46.1926 23.5 46.2154Z" fill="#003A63"/>
<path d="M13.3926 49.0662C19.9136 49.4383 25.0297 49.5535 33.4819 49.5535C41.934 49.5535 47.0501 49.4385 53.5711 49.0662V38.8392H13.3926V49.0662Z" fill="#F3BB62"/>
<path opacity="0.2" d="M21.6373 47.4851C21.541 46.4986 22.4084 45.655 23.4998 45.6762C26.4413 45.7333 29.6374 45.756 33.4818 45.756C41.912 45.756 47.2257 45.6473 53.5711 45.3039V38.8392H13.3926V49.187C16.3687 49.3589 19.0526 49.4764 21.8942 49.5535C21.7862 48.8416 21.7023 48.1493 21.6373 47.4851Z" fill="#AC6A22"/>
<path d="M34.1516 41.5178C24.1581 41.5178 18.8151 41.3236 10.3314 40.6519C8.17237 40.481 6.54951 38.44 6.70683 36.0936C6.86401 33.7471 8.74012 31.9834 10.9008 32.1543C19.2637 32.8164 24.2615 32.9976 34.1516 32.9976C44.0416 32.9976 49.0395 32.8163 57.4022 32.1543C59.5647 31.9843 61.4392 33.7472 61.5965 36.0936C61.7537 38.4401 60.1311 40.481 57.9719 40.6519C49.4879 41.3236 44.1451 41.5178 34.1516 41.5178Z" fill="#7D9EDF"/>
<path d="M6.75284 23.6109C6.49494 24.2726 5.55864 24.2726 5.30073 23.6109C4.44224 21.4076 2.6996 19.6651 0.496361 18.8065C-0.165454 18.5486 -0.165454 17.6123 0.496361 17.3544C2.6996 16.4959 4.44211 14.7532 5.30073 12.55C5.55864 11.8881 6.49494 11.8881 6.75284 12.55C7.61133 14.7532 9.35397 16.4957 11.5572 17.3544C12.219 17.6123 12.219 18.5486 11.5572 18.8065C9.35397 19.665 7.61146 21.4076 6.75284 23.6109Z" fill="#D76976"/>
<path d="M71.4657 14.3462C71.2938 14.8608 70.6696 14.8608 70.4977 14.3462C69.9254 12.6324 68.7636 11.2771 67.2947 10.6094C66.8536 10.4088 66.8536 9.68055 67.2947 9.47999C68.7636 8.81228 69.9254 7.45691 70.4977 5.7432C70.6696 5.2285 71.2938 5.2285 71.4657 5.7432C72.0381 7.45691 73.1998 8.81228 74.6687 9.47999C75.1099 9.68055 75.1099 10.4088 74.6687 10.6094C73.1999 11.2771 72.0381 12.6326 71.4657 14.3462Z" fill="#F3BB62"/>
<path d="M57.8613 18.8873C57.6168 17.8285 58.6862 16.6666 60.2492 16.2924C61.8122 15.9181 63.2786 16.473 63.5226 17.5319L75.0331 67.3801C75.2777 68.4389 74.2082 69.6007 72.6453 69.975C71.0823 70.3493 69.6164 69.7944 69.3718 68.7354L57.8613 18.8873Z" fill="#ECF0F1"/>
<path d="M75.0328 67.3343C75.2834 68.41 74.1887 69.59 72.5884 69.9698C70.9881 70.3496 69.4869 69.7855 69.2363 68.7097L60.1601 29.7538L65.9568 28.3783L75.0328 67.3343Z" fill="#CC1305"/>
</g>
<defs>
<clipPath id="clip0">
<rect width="75" height="75" fill="white"/>
</clipPath>
</defs>
</svg>
