<svg width="40" height="43" viewBox="0 0 40 43" fill="none" xmlns="http://www.w3.org/2000/svg">
<path d="M7.1305 23.9369C7.1305 23.9369 9.83379 23.422 10.81 21.1585C11.5319 19.4847 13.0227 16.8584 14.5532 15.3774C15.0951 14.8531 15.9606 14.8665 16.4838 15.409C16.9339 15.8741 16.9861 16.5762 16.6495 17.0975C16.6495 17.0975 15.8396 18.3176 16.9096 20.4771C17.6986 22.0694 19.4377 20.8272 19.4377 20.8272C19.4377 20.8272 21.9139 23.2651 21.8991 23.2808C20.4445 24.8298 22.3347 24.7814 22.3347 24.7814C24.4494 24.8267 26.2835 23.2143 26.2835 23.2143C26.9787 22.4883 28.1307 22.463 28.8569 23.1579C29.5861 23.8551 29.609 25.0054 28.9139 25.7318C28.71 25.945 26.2108 28.5223 22.6442 30.7453C22.6442 30.7453 19.467 32.7335 19.1292 35.5108C19.1288 35.5146 18.7988 37.4841 17.7267 38.9187C14.7838 42.8564 8.91675 43.5587 4.44071 40.3543C-0.0353371 37.1498 -1.34403 31.3119 1.51751 27.3146C2.85724 25.4434 4.90585 24.2874 7.1305 23.9369Z" fill="#D80027"/>
<path d="M3.46068 39.1366C7.93664 42.341 13.8037 41.6388 16.7466 37.701C17.8188 36.2664 18.1487 34.2968 18.1491 34.2931C18.4868 31.5157 21.6521 29.535 21.6636 29.5278C21.6637 29.5277 21.6641 29.5275 21.6641 29.5275C25.2307 27.3045 27.73 24.7272 27.9339 24.514C28.3773 24.0505 28.5271 23.4147 28.3891 22.834C28.5568 22.9149 28.7152 23.0223 28.8569 23.1578C29.5861 23.8551 29.609 25.0053 28.9139 25.7318C28.71 25.9449 26.2108 28.5222 22.6442 30.7452C22.6442 30.7452 19.467 32.7334 19.1292 35.5108C19.1288 35.5146 18.7988 37.4841 17.7267 38.9186C14.7838 42.8564 8.91675 43.5587 4.44071 40.3543C3.37278 39.5898 2.48562 38.675 1.79196 37.6714C2.28632 38.2022 2.84317 38.6946 3.46068 39.1366Z" fill="#A5001E"/>
<path d="M14.8989 18.3202C15.1987 18.4658 15.2328 18.8978 15.212 19.2213C15.1906 19.3424 15.1725 19.4702 15.1598 19.6045C15.1597 19.6054 15.1594 19.6065 15.1594 19.6065L15.1597 19.6062C15.0733 20.5183 15.2303 21.7045 16.2193 22.7752C16.2194 22.7753 16.2195 22.7754 16.2196 22.7754C17.0002 23.5561 17.8602 23.3346 18.6015 23.0312C18.9886 23.4133 19.4351 23.7905 19.8387 24.1936C19.3228 25.0975 19.9984 25.9512 20.2321 26.1851C20.2321 26.1851 20.2322 26.1852 20.2323 26.1853C20.5648 26.5179 21.0346 26.6255 21.3614 26.6585C21.7646 26.7315 22.0616 26.8926 22.0616 26.8926C22.0616 26.8926 24.3884 28.246 20.6167 29.2499C20.6167 29.2499 16.4219 29.9518 14.6023 33.2722C14.5948 33.2647 12.4962 38.4655 5.98758 32.0176C5.98758 32.0176 4.36347 30.6292 2.58087 30.5014C2.58087 30.5014 1.78566 30.5321 1.97982 29.955C2.16721 29.5201 2.40044 29.1015 2.68325 28.7065C3.7741 27.1827 5.39473 26.1833 7.35975 25.8737C7.35975 25.8737 10.4648 25.2577 11.5555 22.7285C12.0564 21.5671 12.8948 20.0419 13.8141 18.8068C14.4793 18.002 14.8863 18.3208 14.8989 18.3202Z" fill="white"/>
<path d="M13.7375 32.3915C15.5572 29.0711 19.7519 28.3692 19.7519 28.3692C21.6385 27.867 21.9993 27.2774 21.8886 26.8134C21.9972 26.8579 22.0616 26.8925 22.0616 26.8925C22.0616 26.8925 24.3884 28.2459 20.6167 29.25C20.6167 29.25 16.4219 29.9518 14.6023 33.2722C14.5948 33.2647 12.4962 38.4655 5.98759 32.0176C5.98759 32.0176 4.36348 30.6292 2.58088 30.5014C2.58088 30.5014 1.78566 30.5322 1.97983 29.955C2.02055 29.8605 2.06392 29.7668 2.10903 29.674C3.71691 29.967 5.12285 31.137 5.12285 31.137C11.6313 37.5848 13.73 32.3839 13.7375 32.3915Z" fill="#D8D7DA"/>
<path d="M5.50924 28.591C5.50924 27.9701 6.0126 27.4668 6.63353 27.4668C7.25445 27.4668 7.75781 27.9701 7.75781 28.591C7.75781 29.212 7.25445 29.7153 6.63353 29.7153C6.0126 29.7153 5.50924 29.212 5.50924 28.591Z" fill="#57565C"/>
<path d="M3.30995 28.592C3.30995 28.2386 3.59647 27.952 3.9499 27.952C4.30333 27.952 4.58984 28.2386 4.58984 28.592C4.58984 28.9454 4.30333 29.2319 3.9499 29.2319C3.59647 29.2319 3.30995 28.9454 3.30995 28.592Z" fill="#57565C"/>
<path d="M5.75073 33.3966L9.33887 36.9847C9.67374 37.3196 10.2217 37.3196 10.5566 36.9847L10.8406 36.7006C11.1755 36.3658 11.1755 35.8178 10.8406 35.4829L7.25251 31.8948C6.91764 31.5599 6.36965 31.5599 6.03478 31.8948L5.75073 32.1788C5.41586 32.5136 5.41586 33.0617 5.75073 33.3966Z" fill="#57565C"/>
<path d="M9.64933 36.1238L9.93338 35.8397C10.2683 35.5048 10.2683 34.9569 9.93338 34.6219L10.8446 35.4867C11.1794 35.8216 11.1794 36.3696 10.8446 36.7045L10.5605 36.9886C10.2256 37.3235 9.67763 37.3235 9.34268 36.9886L8.61856 36.2645C8.94665 36.4482 9.37123 36.4019 9.64933 36.1238Z" fill="#2D2D30"/>
<path d="M8.73672 30.2914C8.73672 30.4574 8.80003 30.6234 8.92675 30.7501L11.9846 33.808C12.2378 34.0614 12.6485 34.0614 12.9018 33.808C13.1551 33.5546 13.1551 33.144 12.9018 32.8908L9.84403 29.8329C9.59077 29.5795 9.18009 29.5795 8.92683 29.8328C8.80003 29.9594 8.73672 30.1255 8.73672 30.2914Z" fill="#ACABB1"/>
<path d="M11.0327 28.1353C11.0327 28.3013 11.096 28.4673 11.2227 28.594L14.1428 31.5141C14.3961 31.7674 14.8069 31.7674 15.0601 31.5141C15.3133 31.2606 15.3133 30.85 15.0601 30.5968L12.1399 27.6767C11.8866 27.4233 11.4759 27.4233 11.2227 27.6767C11.096 27.8033 11.0327 27.9693 11.0327 28.1353Z" fill="#ACABB1"/>
<path d="M13.5655 26.1446C13.5655 26.3105 13.6288 26.4765 13.7555 26.6032L16.3401 29.1879C16.5934 29.4413 17.0041 29.4413 17.2573 29.1879C17.5106 28.9345 17.5106 28.5239 17.2573 28.2706L14.6727 25.686C14.4194 25.4326 14.0087 25.4326 13.7555 25.686C13.6288 25.8127 13.5655 25.9787 13.5655 26.1446Z" fill="#ACABB1"/>
<path d="M30.9604 9.97252L32.7305 11.7425L18.8452 26.5283C18.5959 26.7776 18.3378 26.6421 18.1484 26.4528L16.2704 24.5747C16.0806 24.385 15.9686 24.1033 16.1957 23.8763L30.9604 9.97252Z" fill="#57565C"/>
<path d="M17.9544 25.7205L31.8397 10.9348L32.7305 11.7425L18.8452 26.5283C18.5959 26.7776 18.3378 26.6421 18.1484 26.4528L17.5251 25.8295C17.6609 25.88 17.8091 25.8659 17.9544 25.7205Z" fill="#2D2D30"/>
<path d="M20.0334 25.2457C20.037 25.2493 20.0397 25.2537 20.043 25.2575L19.7538 25.5654C19.7463 25.5596 19.7386 25.5543 19.7317 25.5474L17.1826 22.9983C17.1744 22.9901 17.1675 22.9809 17.1609 22.9717L17.4676 22.683C17.4731 22.6875 17.4791 22.6914 17.4843 22.6966L20.0334 25.2457Z" fill="#FFDAAA"/>
<path d="M21.0417 24.1973L18.5302 21.6857L18.8409 21.393L21.334 23.8861L21.0417 24.1973Z" fill="#FFDAAA"/>
<path d="M22.3328 22.8203L19.9031 20.3906L20.2138 20.0981L22.625 22.5093L22.3328 22.8203Z" fill="#FFDAAA"/>
<path d="M23.6218 21.4478L21.2739 19.0999L21.5846 18.8072L23.9141 21.1366L23.6218 21.4478Z" fill="#FFDAAA"/>
<path d="M24.9128 20.0684L22.6468 17.8023L22.9576 17.5097L25.2051 19.7572L24.9128 20.0684Z" fill="#FFDAAA"/>
<path d="M26.202 18.6963L24.0178 16.5122L24.3285 16.2195L26.4941 18.3851L26.202 18.6963Z" fill="#FFDAAA"/>
<path d="M27.491 17.3188L25.3887 15.2166L25.6995 14.924L27.7832 17.0078L27.491 17.3188Z" fill="#FFDAAA"/>
<path d="M28.7878 15.9502L26.7674 13.9298L27.0781 13.6372L29.0801 15.6392L28.7878 15.9502Z" fill="#FFDAAA"/>
<path d="M28.4471 12.344L30.3672 14.264L30.0749 14.5752L28.1364 12.6366L28.4471 12.344Z" fill="#FFDAAA"/>
<path d="M29.822 11.0513L31.6602 12.8897L31.368 13.2007L29.5113 11.344L29.822 11.0513Z" fill="#FFDAAA"/>
<path d="M20.043 25.2575L19.7538 25.5654C19.7463 25.5596 19.7386 25.5543 19.7317 25.5474L18.9006 24.7163L19.1929 24.4051L20.0335 25.2457C20.037 25.2493 20.0396 25.2536 20.043 25.2575Z" fill="#FFB655"/>
<path d="M21.0417 24.1973L20.1905 23.346L20.4827 23.0349L21.334 23.8861L21.0417 24.1973Z" fill="#FFB655"/>
<path d="M22.3328 22.8203L21.4815 21.9691L21.7737 21.658L22.625 22.5092L22.3328 22.8203Z" fill="#FFB655"/>
<path d="M23.6218 21.4478L22.7706 20.5965L23.0627 20.2853L23.9141 21.1366L23.6218 21.4478Z" fill="#FFB655"/>
<path d="M24.9128 20.0684L24.0616 19.217L24.3538 18.9059L25.2051 19.7572L24.9128 20.0684Z" fill="#FFB655"/>
<path d="M26.202 18.6963L25.3507 17.845L25.6429 17.5338L26.4941 18.3851L26.202 18.6963Z" fill="#FFB655"/>
<path d="M27.491 17.3188L26.6398 16.4677L26.932 16.1565L27.7832 17.0077L27.491 17.3188Z" fill="#FFB655"/>
<path d="M28.7878 15.9502L27.9366 15.099L28.2288 14.7878L29.0801 15.6392L28.7878 15.9502Z" fill="#FFB655"/>
<path d="M30.0749 14.5771L29.2237 13.7259L29.5159 13.4147L30.3672 14.2659L30.0749 14.5771Z" fill="#FFB655"/>
<path d="M31.6602 12.8896L31.368 13.2007L30.5167 12.3494L30.809 12.0383L31.6602 12.8896Z" fill="#FFB655"/>
<path d="M37.882 0.182656L37.8825 0.182823C37.917 0.196148 37.9497 0.213941 37.9797 0.236039C38.0616 0.295961 38.1384 0.361679 38.2083 0.43145C39.1829 1.4061 38.593 2.89439 38.5673 2.95729L35.2945 10.9907C35.2254 11.1599 35.0556 11.2658 34.8733 11.253L33.7793 11.1766L33.1917 11.7643C33.0265 11.9295 32.7587 11.9295 32.5935 11.7643L30.9484 10.1192C30.948 10.1188 30.9476 10.1184 30.9472 10.118C30.782 9.95279 30.782 9.68496 30.9472 9.51976C30.9572 9.50975 30.9676 9.50032 30.9784 9.49146L31.624 8.85772C30.6441 6.2444 32.055 4.74808 32.1218 4.66937C32.4028 4.33806 32.7179 4.19397 32.7609 4.17195C35.1274 2.96209 35.0754 2.4357 35.1046 2.25006C35.115 2.18401 35.1237 2.09727 35.0222 2.0203C34.7059 1.78069 34.6162 1.5314 34.8052 1.30578C36.1971 -0.354575 37.4065 -0.0442872 37.882 0.182656Z" fill="#FFC477"/>
<path d="M32.0864 10.8121L32.674 10.2244L33.7679 10.3008C33.9503 10.3136 34.1201 10.2077 34.1891 10.0385L37.462 2.00506C37.483 1.95342 37.8818 0.946329 37.4906 0.0479083C37.6499 0.0839114 37.7822 0.134977 37.882 0.182567L37.8825 0.182734C37.917 0.196059 37.9497 0.213851 37.9797 0.23595C38.0616 0.295872 38.1384 0.36159 38.2083 0.431361C39.1829 1.40601 38.593 2.8943 38.5673 2.95728L35.2945 10.9907C35.2254 11.1599 35.0556 11.2658 34.8733 11.253L33.7793 11.1767L33.1917 11.7643C33.0265 11.9295 32.7587 11.9295 32.5935 11.7643L31.7628 10.9336C31.8791 10.9403 31.9976 10.9009 32.0864 10.8121Z" fill="#FFA733"/>
<path d="M33.7148 9.31384L37.1004 10.5812C37.4359 10.7068 37.8096 10.5366 37.9352 10.2012C38.0608 9.86572 37.8907 9.49195 37.5551 9.36631L34.1695 8.09892C33.8341 7.97336 33.4603 8.14353 33.3348 8.47898C33.3067 8.5538 33.2071 9.10991 33.7148 9.31384Z" fill="#57565C"/>
<path d="M34.7364 6.78051L38.122 8.04799C38.4574 8.17362 38.8312 8.00346 38.9567 7.66801C39.0822 7.33264 38.9122 6.95879 38.5767 6.83324L35.1911 5.56576C34.8556 5.44012 34.4819 5.61029 34.3563 5.94574C34.3282 6.02056 34.2108 6.55713 34.7364 6.78051Z" fill="#57565C"/>
<path d="M35.7382 4.13659L39.1238 5.40399C39.4593 5.52954 39.8331 5.35938 39.9586 5.02393C40.0843 4.68848 39.914 4.3147 39.5785 4.18907L36.1929 2.92167C35.8575 2.79612 35.4837 2.96628 35.3582 3.30173C35.3302 3.37655 35.1919 3.8782 35.7382 4.13659Z" fill="#57565C"/>
</svg>
