<svg width="75" height="75" viewBox="0 0 75 75" fill="none" xmlns="http://www.w3.org/2000/svg">
<g clip-path="url(#clip0)">
<path d="M50.902 32.4478C51.3336 29.5096 48.8017 25.1792 45.6363 24.732C45.6363 24.732 42.9851 18.4985 37.4758 19.9212C31.9661 21.344 33.2229 27.9376 37.1422 28.7108C37.1422 28.7108 39.3338 32.013 43.6576 30.8965C47.9817 29.7798 48.8098 32.9881 48.8098 32.9881L49.9652 33.6692L50.902 32.4478Z" fill="#A0A4AD"/>
<path d="M21.333 40.0835L50.9026 32.4474L52.7396 39.5608L23.17 47.1969L21.333 40.0835Z" fill="#D8EDF7"/>
<path d="M22.4131 44.2682L51.9827 36.6321L52.739 39.561L23.1695 47.1971L22.4131 44.2682Z" fill="#A8C3CF"/>
<path d="M47.6953 33.2755L50.9031 32.4471L52.7401 39.5605L49.5323 40.3889L47.6953 33.2755Z" fill="#FF5A73"/>
<path d="M48.7754 37.4602L51.9832 36.6318L52.7395 39.5607L49.5318 40.3891L48.7754 37.4602Z" fill="#D4243E"/>
<path d="M21.333 40.0835L29.4231 37.9943L31.2601 45.1077L23.17 47.1969L21.333 40.0835Z" fill="#F2B375"/>
<path d="M22.4131 44.2682L30.5032 42.179L31.2596 45.1079L23.1695 47.1971L22.4131 44.2682Z" fill="#E09544"/>
<path d="M30.4931 11.6034C16.0106 15.3434 7.30227 30.1152 11.0422 44.5977C14.7822 59.0802 29.554 67.7884 44.0365 64.0485C58.519 60.3085 67.2273 45.5367 63.4873 31.0542C59.7474 16.5717 44.9756 7.8634 30.4931 11.6034ZM15.7589 43.3796C13.8767 36.091 15.8402 28.714 20.3819 23.3921L50.5966 55.5963C48.3394 57.2911 45.7209 58.5819 42.8184 59.3314C30.9412 62.399 18.8261 55.2569 15.7589 43.3796ZM54.147 52.2603L23.9326 20.0556C26.1894 18.361 28.8086 17.0696 31.7111 16.32C43.5884 13.2528 55.7023 20.3952 58.7695 32.2725C60.6517 39.5612 58.6887 46.9385 54.147 52.2603Z" fill="#FF5A73"/>
</g>
<defs>
<clipPath id="clip0">
<rect width="60.6655" height="60.6655" fill="white" transform="translate(0.310547 16.0405) rotate(-14.4798)"/>
</clipPath>
</defs>
</svg>
