<svg width="74" height="73" viewBox="0 0 74 73" fill="none" xmlns="http://www.w3.org/2000/svg">
<g clip-path="url(#clip0)">
<path d="M41.3515 31.1091L40.828 30.6632C40.6719 30.5297 40.5812 30.3346 40.5812 30.1307V20.0749L39.7865 18.3763H34.9649L33.4197 20.0749V30.1307C33.4197 30.3346 33.329 30.5297 33.1728 30.6632L32.6494 31.1091L33.5392 32.8681H41.0314L41.4771 31.3294L41.3515 31.1091Z" fill="#FEE97D"/>
<path d="M70.0209 20.0163L68.9211 19.1475L62.1538 19.2229L61.8096 20.1425C64.0386 23.424 65.6148 27.172 66.3569 31.206L68.1145 32.543H72.833L73.6076 31.1737C73.0217 27.2116 71.7904 23.4577 70.0209 20.0163Z" fill="#FEE97D"/>
<path d="M40.1041 41.4232H34.7196L33.4189 42.2869V53.3945L34.304 54.1202H40.0829L40.5804 53.3945V42.2869L40.1041 41.4232Z" fill="#528FD8"/>
<path d="M53.0101 62.9682L46.3573 64.4567C44.7603 64.9789 43.1022 65.3691 41.3981 65.617C40.9669 65.6786 40.5803 65.3485 40.5803 64.9202V64.5007L40.0876 63.108H34.6182L33.4188 64.5007V64.9202C33.4188 65.3485 33.0322 65.6786 32.6009 65.617C30.8968 65.3691 29.2388 64.9789 27.6417 64.4567L24.6522 63.7436L16.1652 62.5004L13.2334 63.0839L13.3515 64.5711C19.7635 69.8359 28.0075 73 36.9995 73C45.9915 73 54.2356 69.8359 60.6476 64.5711L61.2284 62.9682H53.0101Z" fill="#A274BF"/>
<path d="M5.70761 18.8243L3.98326 20.0089C2.21074 23.4547 0.97651 27.2144 0.390625 31.181L1.34351 32.3422H6.47283L7.64133 31.2103C8.3774 27.2085 9.93431 23.4884 12.1336 20.226L12.2291 20.085V18.9542L5.70761 18.8243Z" fill="#FEE97D"/>
<path d="M36.9999 0C27.7045 0 19.2092 3.38126 12.7109 8.96731L12.9724 11.5101L21.8406 10.4485L24.9894 9.13131L26.4259 8.96731C28.3932 8.23091 30.4601 7.69548 32.6014 7.38303C33.0327 7.32142 33.4193 7.65147 33.4193 8.07982V8.96731L35.0611 11.7643H39.3565L40.5806 8.96731V8.07982C40.5806 7.65147 40.9673 7.32142 41.3985 7.38303C43.5785 7.70135 45.6811 8.24998 47.6797 9.00691L54.0306 10.4177L61.2056 10.1549V8.89543C54.7192 3.35339 46.2551 0 36.9999 0V0Z" fill="#F58A97"/>
<path d="M40.5804 53.3945V64.5006H33.4189V53.3945H33.5676H40.4317H40.5804Z" fill="#A274BF"/>
<path d="M73.264 41.2607L68.2833 41.1177L66.2656 42.2591C65.7779 44.6898 64.9853 47.0134 63.9295 49.1903C63.7273 49.6084 63.1756 49.7199 62.8202 49.4162L54.3754 42.2151L50.8425 40.2688L43.2705 41.1177L43.593 42.3589L56.6193 53.4664L58.5628 54.6722H67.9461L69.7646 53.4738C71.5966 50.0382 72.8903 46.28 73.5327 42.3075L73.264 41.2607Z" fill="#528FD8"/>
<path d="M69.7646 53.4739C67.4865 57.7426 64.3771 61.5126 60.6477 64.5712L46.3574 64.4567C51.2378 62.8695 55.5606 60.0721 58.9614 56.4253C59.235 56.1319 59.2082 55.6757 58.9034 55.4146L56.6193 53.4666L69.7646 53.4739Z" fill="#A274BF"/>
<path d="M22.9409 41.0651L19.6241 42.2152L11.1793 49.4163C10.8239 49.7199 10.2722 49.6084 10.07 49.1904C9.01418 47.0135 8.2216 44.6899 7.73386 42.2592L7.01384 41.0651H1.05417L0.466797 42.309C1.10919 46.2727 2.39843 50.0236 4.22449 53.4533L6.15985 55.1081H13.7668L17.3801 53.4665L30.4064 42.3589L31.6233 40.6533L22.9409 41.0651Z" fill="#528FD8"/>
<path d="M10.3615 18.9171L5.70761 18.8243L3.98326 20.0089C2.21074 23.4547 0.97651 27.2144 0.390625 31.181L1.34351 32.3422H5.57943C6.27312 27.4952 7.93293 22.9552 10.3615 18.9171Z" fill="#FEE45A"/>
<path d="M5.39032 41.0649H1.05417L0.466797 42.3089C1.10919 46.2725 2.39843 50.0234 4.22449 53.4531L6.15985 55.1079H9.81717C7.43898 50.8721 5.89085 46.1204 5.39032 41.0649Z" fill="#0573CE"/>
<path d="M7.73398 42.259L0.466924 42.3089C0.159111 40.4165 0 38.4773 0 36.4999C0 34.6926 0.132345 32.9176 0.391086 31.1808L7.64179 31.2101C7.32654 32.9264 7.16148 34.6941 7.16148 36.4999C7.16148 38.4714 7.35777 40.3975 7.73398 42.259Z" fill="#ADE194"/>
<path d="M54.3757 42.215L43.5933 42.3587L41.7598 40.795C41.2973 40.4018 40.5806 40.7246 40.5806 41.3275V42.2868H33.4191V41.3275C33.4191 40.7246 32.7024 40.4018 32.2399 40.795L30.4064 42.3587L19.624 42.215L32.6488 31.1089H41.3509L54.3757 42.215Z" fill="#ADE194"/>
<path d="M73.608 31.1736C73.8668 32.9119 74.0006 34.6913 74.0006 36.5C74.0006 38.4759 73.8415 40.4167 73.5337 42.3075L66.2666 42.2591C66.6428 40.3976 66.8391 38.4715 66.8391 36.5C66.8391 34.6927 66.674 32.9236 66.3573 31.2059L73.608 31.1736Z" fill="#ADE194"/>
<path d="M16.7109 11.0625C23.3348 4.85346 32.291 1.04284 42.1496 1.04284C43.8098 1.04284 45.4438 1.15271 47.046 1.36204C43.8513 0.474843 40.4816 0 36.9999 0C27.7045 0 19.2092 3.38126 12.7109 8.9673L12.9724 11.5101L16.7109 11.0625Z" fill="#F07281"/>
<path d="M12.7107 8.96741H26.4255C20.5503 11.1634 15.6568 14.9978 12.2292 20.0851L3.9834 20.0089C6.15147 15.7901 9.127 12.0435 12.7107 8.96741Z" fill="#FDB97E"/>
<path d="M33.4189 8.96741H40.5804V20.075H33.4189V8.96741Z" fill="#FDB97E"/>
<path d="M70.0207 20.016L61.8093 20.1422C58.4041 15.1253 53.4776 11.1998 47.6797 9.00675L61.2056 8.89526C64.828 11.9875 67.8347 15.7619 70.0207 20.016Z" fill="#FDB97E"/>
<path d="M15.436 62.6455L13.2334 63.0838L13.3515 64.571C18.7937 69.0394 25.5547 71.9947 32.9734 72.7864C26.176 71.0724 20.1342 67.4975 15.436 62.6455Z" fill="#925CB4"/>
<path d="M27.6422 64.4564L13.3519 64.5708C9.61654 61.5079 6.50272 57.7306 4.22461 53.453L17.3803 53.4662L15.0962 55.4143C14.7914 55.6754 14.7646 56.1316 15.0382 56.425C18.439 60.0718 22.7618 62.8692 27.6422 64.4564Z" fill="#A274BF"/>
<path d="M8.94545 53.4577L4.22461 53.453C6.50272 57.7306 9.61654 61.5079 13.3519 64.5708L17.4118 64.5383C13.9195 61.4293 11.0329 57.6716 8.94545 53.4577Z" fill="#925CB4"/>
<path d="M5.21259 37.4806C5.21259 35.3395 5.40145 33.2423 5.76056 31.2025L0.391086 31.1808C0.132345 32.9176 0 34.6926 0 36.4999C0 38.4773 0.159111 40.4165 0.466924 42.3089L5.53097 42.2741C5.32189 40.7054 5.21259 39.1057 5.21259 37.4806Z" fill="#97DA7B"/>
<path d="M19.1526 8.96741H12.7107C9.127 12.0435 6.15147 15.7901 3.9834 20.0089L9.69905 20.0618C12.0735 15.7662 15.2998 11.9954 19.1526 8.96741Z" fill="#FEA95C"/>
</g>
<defs>
<clipPath id="clip0">
<rect width="74" height="73" fill="white"/>
</clipPath>
</defs>
</svg>
