<svg width="75" height="74" viewBox="0 0 75 74" fill="none" xmlns="http://www.w3.org/2000/svg">
<g clip-path="url(#clip0)">
<path d="M70.8493 32.6242C70.6769 32.9814 70.5088 33.3642 70.345 33.7724L64.2803 48.2152L57.2588 38.2762L60.789 29.8555C60.9441 29.4728 61.0993 29.1028 61.2286 28.7583L70.8493 32.6242Z" fill="#E64C3C"/>
<path d="M51.3624 28.184C51.2331 30.7357 50.9616 33.2875 50.5736 35.8392L41.5478 37.2809C41.3561 34.0532 41.4166 30.8157 41.7288 27.5971V27.5844L51.3624 28.184Z" fill="#4482C3"/>
<path d="M29.4698 12.5671C29.4698 12.5671 30.6077 22.4972 26.8318 23.3635C23.056 24.2298 19.3965 14.902 19.3965 14.902L19.6422 8.36956C20.7154 8.75232 20.8344 4.37356 22.037 4.09287C23.2396 3.81218 25.5258 7.64232 26.3146 6.82576L29.4698 12.5671Z" fill="#FDD7AD"/>
<path d="M36.2715 41.2616L33.6206 49.7589L32.8965 49.1465L26.1594 43.3796L19.3965 14.9023C19.3965 14.9023 21.543 18.3344 25.3189 17.4541C29.0948 16.5737 29.4698 12.5675 29.4698 12.5675L36.2715 41.2616Z" fill="#E64C3C"/>
<path d="M32.8965 49.146L26.1594 43.3791L19.3965 14.9019C19.3965 14.9019 21.543 18.3339 25.3189 17.4536L32.8965 49.146Z" fill="#C03A2B"/>
<path d="M20.7936 44.1067L20.6901 59.9656L10.4876 56.2401L0.168597 31.6798C0.0358713 31.3668 0.0349179 31.0146 0.165947 30.701C0.296977 30.3874 0.549201 30.1381 0.866873 30.0084L11.6255 25.6194C12.2861 25.3527 13.0412 25.6599 13.3195 26.3084L14.3022 28.6687L14.7936 29.8425L15.285 31.0163L16.2807 33.3767L16.772 34.5505L17.2764 35.737L18.2591 38.0974L18.7505 39.2712L19.2419 40.445L20.7419 43.9918L20.7936 44.1067Z" fill="#F0C419"/>
<path d="M15.2846 31.0162L9.32335 33.4658C9.16233 33.5263 8.99131 33.5565 8.81904 33.5551C8.20742 33.548 7.6845 33.1191 7.56574 32.5271C7.44699 31.935 7.76489 31.3419 8.32766 31.1055L14.3018 28.6686L14.7932 29.8424L15.2846 31.0162Z" fill="#B19046"/>
<path d="M17.2763 35.7368L13.6815 37.2041C13.5253 37.2655 13.3583 37.2959 13.1901 37.2934C12.5785 37.2863 12.0556 36.8573 11.9368 36.2653C11.8181 35.6733 12.136 35.0801 12.6988 34.8437L16.2807 33.3765L16.772 34.5503L17.2763 35.7368Z" fill="#B19046"/>
<path d="M19.2414 40.4448L13.2802 42.8944C13.1233 42.9537 12.9568 42.984 12.7888 42.9837C12.1748 42.9826 11.6463 42.5555 11.5241 41.9618C11.4018 41.3681 11.7196 40.7715 12.2845 40.5341L18.2586 38.0972L18.75 39.271L19.2414 40.4448Z" fill="#B19046"/>
<path d="M75 65.0688C75 67.4375 74.0463 69.7091 72.3488 71.384C70.6513 73.0589 68.3489 73.9998 65.9483 73.9998H9.05172C4.0526 73.9998 0 70.0013 0 65.0688C0 60.1363 4.0526 56.1378 9.05172 56.1378C9.92752 56.1353 10.7989 56.26 11.6379 56.5078C11.7391 51.4818 14.6834 46.9347 19.2631 44.7319C23.8428 42.529 29.2869 43.0413 33.3621 46.0584C36.1118 38.8441 43.6971 34.6024 51.3828 35.9812C59.0686 37.36 64.6552 43.9646 64.6552 51.6722C64.6585 53.2595 64.4187 54.8381 63.944 56.3546C64.6022 56.2111 65.2742 56.1384 65.9483 56.1378C68.3489 56.1378 70.6513 57.0787 72.3488 58.7536C74.0463 60.4285 75 62.7001 75 65.0688Z" fill="#ABD7FF"/>
<path d="M26.315 6.82599C25.4995 7.74499 24.437 8.41737 23.2503 8.7653C22.034 8.97077 20.7836 8.83369 19.6426 8.36978L19.8883 1.63323C19.9141 0.883286 20.4426 0.241927 21.1814 0.063917C21.3047 0.0385687 21.4304 0.0257432 21.5564 0.0256411C22.1826 0.0239413 22.759 0.362231 23.0564 0.905986L26.315 6.82599Z" fill="#2C2F38"/>
<path d="M51.3621 28.1842C48.1383 28.3447 44.9064 28.1436 41.7285 27.5845C41.9225 25.5049 42.207 23.4507 42.5432 21.3966C45.4527 21.5752 48.388 21.7538 51.3751 21.9325C51.4871 24.015 51.4828 26.1021 51.3621 28.1842Z" fill="#95A5A5"/>
<path d="M42.5432 21.3965C42.5432 21.3965 37.3424 16.7435 42.0583 11.6107C45.979 7.34419 47.5372 4.43139 47.4376 1.67043C47.4271 1.41174 47.578 1.17302 47.8181 1.06853C48.0581 0.964034 48.3386 1.01502 48.5251 1.19708C51.71 4.27319 58.8945 12.8597 51.2988 21.9298" fill="#805333"/>
<path d="M48.7306 18.755C48.2408 18.755 47.7931 18.482 47.574 18.0497C47.355 17.6175 47.4023 17.1002 47.6961 16.7136C48.8292 15.1815 49.2927 13.2651 48.9828 11.3933C48.8515 10.9489 48.9744 10.4692 49.304 10.1398C49.6335 9.8104 50.1181 9.68296 50.5701 9.80679C51.0222 9.93062 51.3708 10.2863 51.4811 10.7362C51.9995 13.3674 51.3756 16.0926 49.7612 18.2485C49.517 18.5672 49.1356 18.7547 48.7306 18.755Z" fill="#603E26"/>
<path d="M32.043 66.3448C31.5247 66.3449 31.0565 66.0396 30.8533 65.5691C30.4349 64.6047 30.2193 63.5664 30.2197 62.5173C30.2176 58.9314 32.7385 55.8246 36.2852 55.0421C39.8319 54.2595 43.4538 56.011 44.9999 59.2561C45.3041 59.8938 45.0268 60.6541 44.3805 60.9543C43.7342 61.2545 42.9636 60.9809 42.6594 60.3432C41.8159 58.5458 39.9858 57.4005 37.9784 57.4138C35.1217 57.4138 32.8059 59.6987 32.8059 62.5173C32.8056 63.2226 32.9508 63.9206 33.2327 64.5688C33.3671 64.8802 33.3707 65.2314 33.2427 65.5453C33.1146 65.8593 32.8654 66.1101 32.5499 66.2428C32.3897 66.3105 32.2173 66.3452 32.043 66.3448Z" fill="#45B5FF"/>
<path d="M51.7238 62.9382C51.2173 62.9383 50.7573 62.6466 50.5471 62.1918C49.9146 60.8368 48.5418 59.9679 47.0299 59.9654C46.1569 59.9635 45.3098 60.2572 44.6299 60.7973C44.0714 61.2367 43.2577 61.1461 42.8124 60.5951C42.3671 60.0441 42.4589 59.2412 43.0174 58.8019C44.1542 57.8994 45.5707 57.4093 47.0299 57.4137C49.5549 57.416 51.8476 58.8684 52.9005 61.1329C53.0831 61.5278 53.0496 61.9873 52.8116 62.3525C52.5737 62.7176 52.1638 62.9383 51.7238 62.9382Z" fill="#45B5FF"/>
<path d="M18.1036 56.1383C17.3895 56.1383 16.8105 55.5671 16.8105 54.8624C16.8105 50.1698 21.3791 48.6107 21.5743 48.5482C22.2528 48.3234 22.9875 48.6838 23.2153 49.3532C23.4431 50.0227 23.0778 50.7475 22.3993 50.9723C20.6908 51.5473 19.5043 53.0845 19.3968 54.8624C19.3968 55.5671 18.8178 56.1383 18.1036 56.1383Z" fill="#45B5FF"/>
<path d="M40.0867 47.2074C39.9803 47.2078 39.8743 47.195 39.7711 47.1692C39.0784 46.9979 38.6575 46.305 38.8311 45.6215C39.6995 42.097 42.8763 39.5998 46.5522 39.5523C47.2663 39.5505 47.8467 40.1203 47.8485 40.8249C47.8503 41.5296 47.2728 42.1022 46.5586 42.104C44.0729 42.165 41.936 43.8596 41.341 46.2416C41.1968 46.8093 40.6798 47.2074 40.0867 47.2074Z" fill="#45B5FF"/>
<path d="M74.9225 25.6577C74.9645 25.8625 74.9071 26.0749 74.7673 26.2318C73.1141 28.1355 71.7903 30.2952 70.8492 32.6239C70.3922 32.96 69.8743 33.2069 69.3233 33.3511C67.9113 33.7194 66.4139 33.5978 65.082 33.0066C65.069 33.0066 65.069 32.9939 65.0561 32.9939C63.6773 32.4862 62.5206 31.5209 61.7846 30.2635C61.5097 29.7984 61.3214 29.2885 61.2285 28.758C62.2327 26.4343 62.8485 23.9654 63.0518 21.4473C63.0622 21.2367 63.1787 21.0452 63.3621 20.937L70.6165 16.4715L72.4915 15.3104L72.9958 17.4411L74.9225 25.6577Z" fill="#F0C419"/>
<path d="M72.4914 15.3104L68.5475 24.739H68.5345L65.082 33.0066C65.069 33.0066 65.069 32.9939 65.0561 32.9939C63.6773 32.4862 62.5206 31.5209 61.7845 30.2635C61.5097 29.7984 61.3214 29.2886 61.2285 28.758C62.2327 26.4344 62.8485 23.9654 63.0518 21.4473C63.0622 21.2367 63.1787 21.0452 63.3621 20.937L70.6164 16.4715L72.4914 15.3104Z" fill="#F3D55B"/>
<path d="M72.9954 17.4411L70.2152 24.0501C70.0168 24.5265 69.5476 24.8385 69.0255 24.8411C68.8607 24.8392 68.698 24.8045 68.5471 24.739H68.5341C68.0494 24.5456 67.7322 24.0812 67.7324 23.5652C67.7356 23.3945 67.7706 23.2258 67.8359 23.0677L70.616 16.4715L72.491 15.3104L72.9954 17.4411Z" fill="#E57E25"/>
</g>
<defs>
<clipPath id="clip0">
<rect width="75" height="74" fill="white"/>
</clipPath>
</defs>
</svg>
