<?xml version="1.0" encoding="utf-8"?>
<!-- Generator: Adobe Illustrator 24.0.2, SVG Export Plug-In . SVG Version: 6.00 Build 0)  -->
<svg version="1.1" id="Слой_1" xmlns="http://www.w3.org/2000/svg" xmlns:xlink="http://www.w3.org/1999/xlink" x="0px" y="0px"
	 viewBox="0 0 46.4 46.4" style="enable-background:new 0 0 46.4 46.4;" xml:space="preserve">
<style type="text/css">
	.st0{fill:url(#SVGID_1_);}
	.st1{fill-rule:evenodd;clip-rule:evenodd;fill:#FFFFFF;}
</style>
<linearGradient id="SVGID_1_" gradientUnits="userSpaceOnUse" x1="23.2021" y1="55.599" x2="23.2021" y2="9.1948" gradientTransform="matrix(1 0 0 -1 0 55.599)">
	<stop  offset="0" style="stop-color:#659FF8"/>
	<stop  offset="1" style="stop-color:#1841C1"/>
</linearGradient>
<circle class="st0" cx="23.2" cy="23.2" r="23.2"/>
<path class="st1" d="M23.3,24c3.2,0,5.8-2.9,5.8-6.5c0-3.6-2.6-6.5-5.8-6.5c-3.2,0-5.8,2.9-5.8,6.5C17.5,21.1,20.1,24,23.3,24z
	 M33.8,32.5v-2.1c0-3.1-2.3-5.6-5.3-6c-0.1,0-0.2,0-0.3,0.1c-1.4,1-3.1,1.6-4.9,1.6c-1.8,0-3.5-0.6-4.9-1.6
	c-0.1-0.1-0.2-0.1-0.3-0.1c-3,0.3-5.3,2.9-5.3,6v2.1c0,0.3,0.2,0.7,0.5,0.8c1.1,0.5,4,1.5,10,1.5c6,0,9-1,10-1.5
	C33.6,33.2,33.8,32.8,33.8,32.5z"/>
</svg>
