<svg width="76" height="76" viewBox="0 0 76 76" fill="none" xmlns="http://www.w3.org/2000/svg">
<path d="M69.6933 30.9624V52.872C69.6965 53.4806 69.4531 54.0645 69.0188 54.4909L68.5466 54.963V59.156C68.5463 59.3738 68.535 59.5914 68.5128 59.808C68.4913 60.0983 68.4537 60.3873 68.4004 60.6736C68.3442 60.9546 68.2767 61.2469 68.198 61.5279C68.0208 62.18 67.7876 62.8156 67.5012 63.4278C67.3886 63.6639 67.2651 63.9 67.1527 64.1359C67.1077 64.2146 67.0626 64.3045 67.0178 64.3832C66.838 64.698 66.6468 65.0127 66.4557 65.3163C66.4445 65.3388 66.4221 65.3612 66.4109 65.3838C66.1298 65.7885 65.8376 66.1932 65.5341 66.5753C65.5188 66.6004 65.4999 66.6232 65.4779 66.6428C65.3655 66.7777 65.2419 66.9239 65.1182 67.0587C64.8821 67.3286 64.6236 67.5871 64.3651 67.8456C64.1066 68.0929 63.8367 68.329 63.5669 68.5538C63.4206 68.6662 63.2858 68.7673 63.1395 68.8798C63.1268 68.8936 63.1115 68.9051 63.0947 68.9135C62.8473 69.0933 62.5888 69.2621 62.3189 69.4307C61.7208 69.7955 61.0786 70.0827 60.4079 70.285C60.2617 70.3188 60.1156 70.3636 59.9694 70.3975C59.812 70.4312 59.6547 70.465 59.4972 70.4874C59.1778 70.5415 58.8545 70.5678 58.5307 70.5661C57.7275 70.567 56.9322 70.4064 56.1924 70.0939C56.1924 70.0939 55.7877 69.9253 55.0682 69.6217H55.057C53.1798 68.8235 49.1102 67.1036 44.1303 65.0015C30.146 59.0997 9.01186 50.1853 9.01186 50.1853C8.04022 49.7749 7.29411 48.9636 6.96645 47.961C6.63879 46.9584 6.76155 45.8631 7.30315 44.958L8.18004 43.5078L9.46138 41.3606C9.94516 40.561 10.0794 39.5978 9.83246 38.6964L9.66386 38.067C7.81635 31.2823 8.53266 24.0549 11.676 17.7649L11.8897 17.3265C12.2892 16.5421 12.3892 15.6388 12.1708 14.786C11.7065 12.9402 12.7247 11.0447 14.52 10.4131L18.1735 9.10908L21.7035 7.83882C25.4635 6.49776 29.3973 5.70644 33.3833 5.48931C34.6425 5.42182 35.9014 5.41061 37.1493 5.45557C45.3067 5.73827 53.2004 8.41633 59.8456 13.156C61.6914 14.4758 63.1945 16.218 64.2298 18.2371C64.2329 18.2371 64.2357 18.2383 64.2379 18.2403C64.24 18.2425 64.2412 18.2453 64.2411 18.2483C64.6924 19.1265 65.0503 20.0496 65.309 21.0026L65.5339 21.8232L66.4781 25.263L67.4112 28.6804C68.6696 28.6852 69.6885 29.7041 69.6933 30.9624Z" fill="#E64C3C"/>
<path d="M65.5345 21.8235L60.3746 21.7898C59.7539 21.7828 59.2406 22.2711 59.2168 22.8914L51.9323 19.6651L50.2911 18.9344C49.4984 18.5812 48.8206 18.0126 48.3351 17.2932L46.7501 14.8988C46.518 14.5528 46.4929 14.1076 46.6848 13.7378C46.8767 13.3678 47.2551 13.1321 47.6717 13.1227C47.8466 13.1222 48.0195 13.1605 48.1777 13.2351L59.363 18.395H63.9382L64.2305 18.2376C64.2335 18.2376 64.2363 18.2388 64.2385 18.2408C64.2406 18.243 64.2418 18.2458 64.2417 18.2488C64.693 19.127 65.0509 20.0501 65.3096 21.003L65.5345 21.8235Z" fill="#C03A2B"/>
<path d="M43.9614 44.5535L56.3157 53.7827L41.1847 47.9708H41.1622L40.0942 47.5437C38.0563 46.7587 36.0829 45.8152 34.1924 44.7221L34.2149 44.6771C34.2149 44.6771 31.0449 34.9083 31.0449 34.616C31.0449 34.2451 34.3049 27.0842 34.3049 27.0842L38.1607 27.8599C41.273 28.518 44.436 28.9092 47.6149 29.029H56.9003L46.4233 31.8169C43.7548 32.5286 41.7275 34.7025 41.2033 37.414C40.6792 40.1256 41.7503 42.8985 43.9614 44.5535Z" fill="#8697CB"/>
<path d="M69.6932 30.9622V52.8719C69.6964 53.4804 69.453 54.0643 69.0186 54.4907L68.5464 54.9629H62.1276C60.3058 54.9621 58.4998 54.6268 56.7992 53.9736L56.3158 53.7825L43.9614 44.5532C41.7505 42.8982 40.6794 40.1254 41.2035 37.4139C41.7277 34.7023 43.7549 32.5284 46.4234 31.8167L56.9004 29.0289H68.569L68.5802 29.0063C69.2701 29.4164 69.6929 30.1596 69.6932 30.9622Z" fill="#B0D3F0"/>
<path d="M66.4782 25.263L61.0936 25.2292C60.7102 25.2225 60.3556 25.0241 60.1493 24.7009L59.4074 23.5542C59.2713 23.3608 59.2039 23.1273 59.2163 22.891C59.2401 22.2707 59.7535 21.7824 60.3741 21.7894L65.534 21.8231L66.4782 25.263Z" fill="#8697CB"/>
<path d="M37.6462 41.2488C38.2777 41.2488 38.7895 40.7369 38.7895 40.1055C38.7895 39.474 38.2777 38.9622 37.6462 38.9622C37.0148 38.9622 36.5029 39.474 36.5029 40.1055C36.5029 40.7369 37.0148 41.2488 37.6462 41.2488Z" fill="#E6E7E8"/>
<path d="M51.9318 19.6648L37.2505 22.8012C36.7673 22.9 36.2653 22.849 35.8117 22.655L32.8777 21.3172C27.0148 18.6515 21.9586 14.4871 18.2188 9.24394L18.1738 9.10908L21.7038 7.83882C25.4638 6.49775 29.3975 5.70644 33.3835 5.48931C34.6427 5.42182 35.9016 5.41061 37.1494 5.45557L47.6713 13.111V13.1222C47.2546 13.1316 46.8763 13.3674 46.6844 13.7373C46.4925 14.1072 46.5174 14.5523 46.7497 14.8983L48.3346 17.2928C48.8202 18.0121 49.4979 18.5808 50.2906 18.934L51.9318 19.6648Z" fill="#802F34"/>
<path d="M48.7165 56.8628L43.9614 59.2235C43.593 59.4245 43.1414 59.3938 42.8036 59.1448L33.2146 52.4674C23.9296 46.0142 15.6619 38.2087 8.68555 29.31C8.85708 25.294 9.87609 21.3595 11.6757 17.7651L11.8894 17.3267C12.2889 16.5422 12.3889 15.639 12.1705 14.7861C11.7062 12.9404 12.7244 11.0449 14.5197 10.4133L18.1732 9.10925L18.2182 9.24411L18.8027 10.9978C20.6489 16.5632 24.108 21.4543 28.7403 25.0496L30.3365 26.2975L28.0545 25.8366C25.7314 25.3773 23.37 26.4258 22.1527 28.4571C20.9355 30.4884 21.1244 33.0652 22.6249 34.8973C24.9227 37.719 27.5794 40.2283 30.5276 42.3616C31.706 43.2135 32.9294 44.0015 34.1923 44.7223C36.0828 45.8155 38.0562 46.7589 40.0941 47.5439L41.1621 47.971H41.1846L48.9751 54.9856C49.2541 55.2411 49.3899 55.6173 49.3382 55.9922C49.2865 56.3671 49.0543 56.6923 48.7165 56.8628Z" fill="#802F34"/>
<path d="M34.3055 27.0836L34.2154 27.5332V29.3768C34.2156 31.0805 33.3633 32.6713 31.9446 33.6148C31.6603 33.8069 31.4766 34.1159 31.444 34.4575C31.4114 34.799 31.5332 35.1374 31.7762 35.3797L32.8778 36.4814C33.7345 37.3411 34.2156 38.5052 34.2154 39.7188V44.6764L34.1929 44.7213C32.93 44.0005 31.7066 43.2125 30.5282 42.3606C27.58 40.2273 24.9234 37.718 22.6254 34.8963C21.1252 33.0642 20.9365 30.4876 22.1536 28.4564C23.3708 26.4252 25.732 25.3767 28.055 25.8356L30.337 26.2965L34.3055 27.0836Z" fill="#556080"/>
<path d="M27.3595 34.3925C28.6217 34.3925 29.6449 33.3694 29.6449 32.1072C29.6449 30.8451 28.6217 29.8219 27.3595 29.8219C26.0974 29.8219 25.0742 30.8451 25.0742 32.1072C25.0742 33.3694 26.0974 34.3925 27.3595 34.3925Z" fill="#E6E7E8"/>
<path d="M30.787 39.5298C30.7142 39.5257 30.6423 39.5105 30.5741 39.4848C30.5058 39.4572 30.4444 39.415 30.394 39.3613C30.2844 39.26 30.223 39.1169 30.2249 38.9677C30.2222 38.8939 30.2376 38.8206 30.2699 38.7541C30.2965 38.682 30.3389 38.6167 30.3939 38.5631C30.5569 38.4103 30.794 38.3663 31.0009 38.4505C31.0684 38.4746 31.1298 38.5129 31.181 38.5631C31.2361 38.6164 31.2782 38.6818 31.304 38.7541C31.3362 38.8206 31.3516 38.8938 31.349 38.9677C31.3509 39.1167 31.2899 39.2595 31.181 39.3613C31.1305 39.4148 31.0691 39.4569 31.0009 39.4848C30.9326 39.5114 30.8602 39.5267 30.787 39.5298Z" fill="#E6E7E8"/>
<path d="M68.4003 60.6742C67.4111 65.9577 61.6218 72.3878 56.192 70.0945C56.192 70.0945 55.7873 69.9259 55.0566 69.6223L56.5967 68.3744C59.1217 66.3588 60.8536 63.5162 61.4868 60.348L61.5994 59.7522L63.7238 60.5953C63.8597 60.6495 64.0049 60.6762 64.1512 60.674H68.4003V60.6742Z" fill="#802F34"/>
<path d="M68.5467 54.9629V59.1223C68.5461 59.6427 68.4971 60.1621 68.4005 60.6736H64.1514C64.0052 60.6759 63.8599 60.6491 63.724 60.5949L61.5995 59.7517L58.9352 58.6838C58.5026 58.5048 58.2193 58.084 58.2158 57.6159V54.4346C59.4904 54.7848 60.8061 54.9624 62.1278 54.9629H68.5467Z" fill="#C03A2B"/>
<path d="M44.1302 65.001C30.146 59.0993 9.01186 50.1849 9.01186 50.1849C8.04022 49.7745 7.29411 48.9631 6.96645 47.9606C6.63879 46.958 6.76155 45.8627 7.30315 44.9575L8.18004 43.5073L8.84325 44.0357C11.259 45.9653 14.0327 47.3981 17.0045 48.2512C19.324 48.9176 21.5269 49.9376 23.5358 51.2751L44.1302 65.001Z" fill="#556080"/>
</svg>
