<svg width="46" height="45" viewBox="0 0 46 45" fill="none" xmlns="http://www.w3.org/2000/svg">
<path d="M1.4375 40.7817H44.5625V43.5942H1.4375V40.7817Z" fill="#C18E59"/>
<path d="M7.1875 40.7818V37.9692H38.8125V40.7818" fill="#976947"/>
<path d="M32.3438 37.9683V32.3433H37.375V27.4214C37.375 24.315 34.8004 21.7964 31.625 21.7964C29.4975 21.7964 27.628 20.4169 27.0437 18.4158L26.5938 16.8745V16.3134C26.5938 14.8903 27.255 13.5452 28.3906 12.6558C29.5263 11.767 30.1875 10.4212 30.1875 8.99811V7.73389C30.1875 4.23865 27.2917 1.40576 23.7188 1.40576H23C19.4271 1.40576 16.5313 4.23865 16.5313 7.73389L15.0938 11.9526H16.5313V15.4683H19.4063V16.8745L18.9563 18.4158C18.372 20.4169 16.5025 21.7964 14.375 21.7964C11.1996 21.7964 8.625 24.315 8.625 27.4214V32.3433H13.6563V37.9683" fill="#8892A0"/>
<path d="M13.6563 32.8819C20.3097 30.3542 25.1563 22.572 25.1563 13.3589C25.1563 8.9215 24.0285 4.81807 22.1195 1.47119C18.9642 1.89236 16.5313 4.53189 16.5313 7.73393L15.0938 11.9527H16.5313V15.4683H19.4063V16.8746L18.9563 18.4158C18.372 20.4169 16.5025 21.7964 14.375 21.7964C11.1996 21.7964 8.625 24.315 8.625 27.4214V32.3433H13.6563V32.8819Z" fill="#C1C8D1"/>
<path d="M18.8104 34.4532H13.6562V33.0469H18.8104C19.9295 33.0469 20.9817 32.6208 21.7731 31.8467L22.7894 32.8409C21.7264 33.8808 20.3133 34.4532 18.8104 34.4532Z" fill="#758190"/>
<path d="M32.3441 34.4527H27.1899C25.687 34.4527 24.274 33.8803 23.2109 32.8404L24.2273 31.8462C25.0186 32.6203 26.0708 33.0464 27.1899 33.0464H32.3441V34.4527Z" fill="#758190"/>
<path d="M31.6238 21.7966C31.0329 21.7966 30.4666 21.6805 29.9376 21.4844L28.5856 21.8148C26.5479 22.3134 24.8402 23.6535 23.9001 25.4915L23.793 25.701L25.0788 26.3303L25.1859 26.1208C25.937 24.6498 27.3033 23.5783 28.9342 23.1796L31.7977 22.4793C32.101 22.4048 32.3123 22.146 32.3339 21.8444C32.101 21.8155 31.8645 21.7966 31.6238 21.7966Z" fill="#758190"/>
<path d="M14.2022 22.4783L17.0657 23.1786C18.6965 23.5773 20.0622 24.6489 20.814 26.1198L20.9211 26.3293L22.2069 25.7L22.0998 25.4905C21.1604 23.6525 19.4527 22.3124 17.4143 21.8139L16.0623 21.4834C15.534 21.6803 14.9677 21.7963 14.3769 21.7963C14.1361 21.7963 13.8996 21.8153 13.666 21.8434C13.6876 22.1457 13.8989 22.4045 14.2022 22.4783Z" fill="#758190"/>
</svg>
