<svg width="158" height="169" viewBox="0 0 158 169" fill="none" xmlns="http://www.w3.org/2000/svg">
<path d="M157.483 58.7656C157.483 53.1097 154.655 47.8283 149.947 44.6928L86.2999 2.30288C81.7286 -0.767626 75.7543 -0.767626 71.183 2.30288L7.49334 44.997C2.81005 48.1364 0 53.4036 0 59.0416V162.402C0 166.046 2.95419 169.001 6.59864 169.001H150.885C154.529 169.001 157.484 166.046 157.484 162.402V58.7656H157.483Z" fill="url(#paint0_linear)"/>
<path d="M157.483 58.7656C157.483 53.1097 154.655 47.8283 149.947 44.6928L86.2999 2.30288C81.7286 -0.767626 75.7543 -0.767626 71.183 2.30288L7.49334 44.997C2.81005 48.1364 0 53.4036 0 59.0416V162.402C0 166.046 2.95419 169.001 6.59864 169.001H150.885C154.529 169.001 157.484 166.046 157.484 162.402V58.7656H157.483Z" fill="url(#paint1_linear)"/>
<rect x="9" y="17" width="141" height="107" rx="11" fill="#EA536F"/>
<path fill-rule="evenodd" clip-rule="evenodd" d="M94.3335 59.635C93.6214 66.746 88.3932 70.3403 84.8428 70.3403C81.2923 70.3403 77.5973 69.1845 75.283 65.0743C70.2127 56.069 76.5302 45 83.6501 45C89.1747 45 95.2237 50.7462 94.3335 59.635ZM56.6258 94.9762C54.3923 93.2662 51.1135 91.8532 47.7809 90.417C40.4121 87.2413 32.7799 83.9522 35.6002 77.0884C39.7084 69.737 68.3177 72.4458 86.6152 78.8635C94.328 81.5688 100.618 87.3408 104.959 94.3077C104.778 92.3998 104.377 90.3598 103.559 88.7238C101.111 83.8267 96.7789 79.7647 94.4646 78.9296C103.269 77.1818 109.868 71.7568 114.562 67.8984C118.773 64.437 121.45 62.2363 122.809 65.0819C126.554 77.158 114.91 93.269 107.406 98.7836C107.409 98.7904 107.412 98.7972 107.415 98.8041C113.502 111.627 120.176 128.122 113.839 131.435C109 133.964 103.182 128.8 97.294 123.574C92.8411 119.622 88.3482 115.635 84.2085 114.912C79.691 114.124 74.5081 119.005 69.4166 123.799C63.673 129.208 58.0459 134.507 53.6217 131.435C48.5922 127.941 51.792 119.403 54.8105 111.349C57.467 104.26 59.983 97.5465 56.6258 94.9762Z" fill="black"/>
<path fill-rule="evenodd" clip-rule="evenodd" d="M94.3335 59.635C93.6214 66.746 88.3932 70.3403 84.8428 70.3403C81.2923 70.3403 77.5973 69.1845 75.283 65.0743C70.2127 56.069 76.5302 45 83.6501 45C89.1747 45 95.2237 50.7462 94.3335 59.635ZM56.6258 94.9762C54.3923 93.2662 51.1135 91.8532 47.7809 90.417C40.4121 87.2413 32.7799 83.9522 35.6002 77.0884C39.7084 69.737 68.3177 72.4458 86.6152 78.8635C94.328 81.5688 100.618 87.3408 104.959 94.3077C104.778 92.3998 104.377 90.3598 103.559 88.7238C101.111 83.8267 96.7789 79.7647 94.4646 78.9296C103.269 77.1818 109.868 71.7568 114.562 67.8984C118.773 64.437 121.45 62.2363 122.809 65.0819C126.554 77.158 114.91 93.269 107.406 98.7836C107.409 98.7904 107.412 98.7972 107.415 98.8041C113.502 111.627 120.176 128.122 113.839 131.435C109 133.964 103.182 128.8 97.294 123.574C92.8411 119.622 88.3482 115.635 84.2085 114.912C79.691 114.124 74.5081 119.005 69.4166 123.799C63.673 129.208 58.0459 134.507 53.6217 131.435C48.5922 127.941 51.792 119.403 54.8105 111.349C57.467 104.26 59.983 97.5465 56.6258 94.9762Z" fill="#F0F5FD"/>
<path d="M6.59864 169.001H112.382L0 56.619V162.402C0 166.046 2.95419 169.001 6.59864 169.001Z" fill="url(#paint2_linear)"/>
<path d="M6.59864 169.001H112.382L0 56.619V162.402C0 166.046 2.95419 169.001 6.59864 169.001Z" fill="url(#paint3_linear)"/>
<path d="M150.885 169.001H45.1016L157.483 56.619V162.402C157.483 166.046 154.529 169.001 150.885 169.001Z" fill="url(#paint4_linear)"/>
<path d="M150.885 169.001H45.1016L157.483 56.619V162.402C157.483 166.046 154.529 169.001 150.885 169.001Z" fill="url(#paint5_linear)"/>
<path d="M150.883 169.001H6.59743C3.21178 169.001 0.421952 166.451 0.0428614 163.167C-0.0104897 162.705 0.217164 162.255 0.603214 161.996L71.1821 114.588C75.7534 111.517 81.7277 111.517 86.299 114.588L156.878 161.996C157.264 162.255 157.492 162.705 157.438 163.167C157.059 166.451 154.269 169.001 150.883 169.001Z" fill="url(#paint6_linear)"/>
<path d="M150.883 169.001H6.59743C3.21178 169.001 0.421952 166.451 0.0428614 163.167C-0.0104897 162.705 0.217164 162.255 0.603214 161.996L71.1821 114.588C75.7534 111.517 81.7277 111.517 86.299 114.588L156.878 161.996C157.264 162.255 157.492 162.705 157.438 163.167C157.059 166.451 154.269 169.001 150.883 169.001Z" fill="url(#paint7_linear)"/>
<path d="M150.885 169.001C154.271 169.001 157.061 166.451 157.44 163.167C157.493 162.705 157.266 162.255 156.88 161.996L86.3005 114.588C84.015 113.052 81.3786 112.285 78.7422 112.285V169.001H150.885Z" fill="url(#paint8_linear)"/>
<path d="M150.885 169.001C154.271 169.001 157.061 166.451 157.44 163.167C157.493 162.705 157.266 162.255 156.88 161.996L86.3005 114.588C84.015 113.052 81.3786 112.285 78.7422 112.285V169.001H150.885Z" fill="url(#paint9_linear)"/>
<defs>
<linearGradient id="paint0_linear" x1="78.7416" y1="47.3256" x2="78.7416" y2="65.2419" gradientUnits="userSpaceOnUse">
<stop stop-color="#9B62CD"/>
<stop offset="0.3003" stop-color="#985DCB"/>
<stop offset="0.6716" stop-color="#8F4EC7"/>
<stop offset="1" stop-color="#833AC1"/>
</linearGradient>
<linearGradient id="paint1_linear" x1="78.7418" y1="0" x2="78.7418" y2="169.001" gradientUnits="userSpaceOnUse">
<stop stop-color="#659FF8"/>
<stop offset="1" stop-color="#1841C1"/>
</linearGradient>
<linearGradient id="paint2_linear" x1="56.191" y1="90.5075" x2="56.191" y2="148.267" gradientUnits="userSpaceOnUse">
<stop stop-color="#9B62CD"/>
<stop offset="0.3003" stop-color="#985DCB"/>
<stop offset="0.6716" stop-color="#8F4EC7"/>
<stop offset="1" stop-color="#833AC1"/>
</linearGradient>
<linearGradient id="paint3_linear" x1="16" y1="32.5" x2="53" y2="151.5" gradientUnits="userSpaceOnUse">
<stop stop-color="#659FF8"/>
<stop offset="1" stop-color="#1841C1"/>
</linearGradient>
<linearGradient id="paint4_linear" x1="101.293" y1="90.5075" x2="101.293" y2="148.267" gradientUnits="userSpaceOnUse">
<stop stop-color="#9B62CD"/>
<stop offset="0.3003" stop-color="#985DCB"/>
<stop offset="0.6716" stop-color="#8F4EC7"/>
<stop offset="1" stop-color="#833AC1"/>
</linearGradient>
<linearGradient id="paint5_linear" x1="101.292" y1="56.619" x2="101.292" y2="169.001" gradientUnits="userSpaceOnUse">
<stop stop-color="#659FF8"/>
<stop offset="1" stop-color="#1841C1"/>
</linearGradient>
<linearGradient id="paint6_linear" x1="78.7404" y1="135.395" x2="78.7404" y2="167.479" gradientUnits="userSpaceOnUse">
<stop stop-color="#9B62CD"/>
<stop offset="0.3003" stop-color="#985DCB"/>
<stop offset="0.6716" stop-color="#8F4EC7"/>
<stop offset="1" stop-color="#833AC1"/>
</linearGradient>
<linearGradient id="paint7_linear" x1="190" y1="-11" x2="45" y2="173.5" gradientUnits="userSpaceOnUse">
<stop stop-color="#659FF8"/>
<stop offset="1" stop-color="#1841C1"/>
</linearGradient>
<linearGradient id="paint8_linear" x1="103.069" y1="142.394" x2="72.9143" y2="95.3389" gradientUnits="userSpaceOnUse">
<stop stop-color="#833AC1" stop-opacity="0"/>
<stop offset="1" stop-color="#6E566E"/>
</linearGradient>
<linearGradient id="paint9_linear" x1="215.502" y1="203" x2="79.002" y2="124.5" gradientUnits="userSpaceOnUse">
<stop stop-color="#659FF8"/>
<stop offset="1" stop-color="#1841C1"/>
</linearGradient>
</defs>
</svg>
