<svg width="39" height="39" viewBox="0 0 39 39" fill="none" xmlns="http://www.w3.org/2000/svg">
<g clip-path="url(#clip0)">
<path d="M4.84616 7.79201L3.98417 21.8573C3.88003 23.5527 5.22731 24.9847 6.9257 24.9847H32.0724C33.7708 24.9847 35.1181 23.5527 35.0139 21.8573L34.1519 7.79201C33.952 4.52675 31.2455 1.98096 27.9743 1.98096H11.0238C7.75258 1.98096 5.04611 4.52675 4.84616 7.79201Z" fill="#588FEF"/>
<path d="M35.0157 21.8572L34.1537 7.79201C33.9537 4.52675 31.2473 1.98096 27.9761 1.98096H25.7168C28.988 1.98096 31.6945 4.52675 31.8947 7.79201L32.7567 21.8572C32.8606 23.5527 31.5136 24.9847 29.8149 24.9847H32.0741C33.7725 24.9847 35.1198 23.5527 35.0157 21.8572Z" fill="#2B59AB"/>
<path d="M5.01154 36.9664C4.05285 36.9664 3.35064 36.0637 3.58719 35.1344L4.77589 30.4585H9.07781L6.33533 36.136C6.08985 36.6439 5.57569 36.9664 5.01154 36.9664Z" fill="#F27755"/>
<path d="M33.9882 36.9664C34.9468 36.9664 35.6488 36.0637 35.4125 35.1344L34.2238 30.4585H29.9219L32.6644 36.136C32.9098 36.6439 33.424 36.9664 33.9882 36.9664Z" fill="#F27755"/>
<path d="M4.7762 30.4585L4.2793 32.4128C5.22311 32.9293 6.30291 33.2182 7.44073 33.2182H7.74482L9.07813 30.4585H4.7762Z" fill="#D14A3F"/>
<path d="M34.2238 30.4585H29.9219L31.2552 33.2182H31.5593C32.6971 33.2182 33.7769 32.9293 34.7207 32.4128L34.2238 30.4585Z" fill="#D14A3F"/>
<path d="M10.6021 17.6822C16.5343 16.8898 22.4667 16.8898 28.3989 17.6822C31.1274 18.0464 33.1667 20.3711 33.1667 23.124V23.3108H5.83398V23.124C5.83398 20.3711 7.87365 18.0467 10.6021 17.6822Z" fill="#95B7F4"/>
<path d="M15.1695 31.3351H7.44104C5.27908 31.3351 3.39711 29.8581 2.88355 27.7581L2.19593 24.9477L0.0839531 16.3062C-0.295119 14.7554 0.644825 13.1885 2.19146 12.793L2.19176 12.7928C3.74881 12.3946 5.34127 13.3027 5.79116 14.8455L7.82815 21.8298C8.08404 22.7075 8.8886 23.311 9.80295 23.311H29.1972C30.1116 23.311 30.9161 22.7075 31.172 21.8298L33.2087 14.8455C33.6589 13.3027 35.2511 12.3946 36.8081 12.7928L36.8087 12.793C38.355 13.1885 39.295 14.7554 38.9162 16.3062L36.8039 24.948L36.1163 27.7581C35.6028 29.8581 33.7208 31.3351 31.5588 31.3351H15.1695Z" fill="#7CA7F2"/>
<path d="M36.8085 12.793L36.8082 12.7927C36.2108 12.64 35.6082 12.6796 35.0667 12.8733C36.4553 13.3702 37.2685 14.8454 36.9115 16.3061L34.7995 24.948L34.1119 27.758C33.5983 29.8581 31.7163 31.3351 29.5547 31.3351H31.5589C33.7206 31.3351 35.6026 29.8581 36.1164 27.758L36.8038 24.948L38.916 16.3061C39.2951 14.7553 38.3552 13.1884 36.8085 12.793Z" fill="#2B59AB"/>
<path d="M14.1442 8.8778H13.573V8.30681C13.573 7.98159 13.3096 7.71826 12.9844 7.71826C12.6595 7.71826 12.3962 7.98159 12.3962 8.30681V8.8778H11.8249C11.5 8.8778 11.2363 9.14143 11.2363 9.46635C11.2363 9.79127 11.5 10.0549 11.8249 10.0549H12.3962V10.6259C12.3962 10.9511 12.6595 11.2144 12.9844 11.2144C13.3096 11.2144 13.573 10.9511 13.573 10.6259V10.0549H14.1442C14.4692 10.0549 14.7328 9.79127 14.7328 9.46635C14.7328 9.14143 14.4692 8.8778 14.1442 8.8778Z" fill="#2B5AAB"/>
<path d="M27.1755 8.87731H26.6042V8.30632C26.6042 7.9811 26.3409 7.71777 26.0157 7.71777C25.6907 7.71777 25.4274 7.9811 25.4274 8.30632V8.87731H24.8561C24.5312 8.87731 24.2676 9.14094 24.2676 9.46586C24.2676 9.79078 24.5312 10.0544 24.8561 10.0544H25.4274V10.6254C25.4274 10.9506 25.6907 11.2139 26.0157 11.2139C26.3409 11.2139 26.6042 10.9506 26.6042 10.6254V10.0544H27.1755C27.5004 10.0544 27.764 9.79078 27.764 9.46586C27.764 9.14094 27.5004 8.87731 27.1755 8.87731Z" fill="#2B5AAB"/>
</g>
<defs>
<clipPath id="clip0">
<rect width="39" height="39" fill="white"/>
</clipPath>
</defs>
</svg>
