<svg width="86" height="92" viewBox="0 0 86 92" fill="none" xmlns="http://www.w3.org/2000/svg">
<path d="M15.6222 50.1399L29.2026 32.4904C29.7671 31.7573 30.6401 31.3271 31.5655 31.3271L68.7377 31.3271C69.6632 31.3271 70.5362 31.7573 71.1007 32.4904L84.6811 50.1399C85.9367 51.7719 85.915 54.0509 84.6293 55.6598L56.7124 90.569C56.1465 91.2769 55.2903 91.6882 54.3844 91.6882L45.9189 91.6882C45.0137 91.6882 44.1568 91.2769 43.5909 90.569L15.674 55.6598C14.3876 54.0509 14.3666 51.7719 15.6222 50.1399Z" fill="#B7E5F7"/>
<path d="M15.6236 50.1356L29.2039 32.4862C29.7684 31.7531 30.6414 31.3229 31.5669 31.3229L38.4438 31.3229C37.5184 31.3229 36.6454 31.7531 36.0809 32.4862L22.5012 50.1356C21.2449 51.7676 21.2666 54.0466 22.5523 55.6555L50.4699 90.5648C51.0351 91.2727 51.892 91.684 52.7978 91.684L45.9209 91.684C45.0151 91.684 44.1581 91.2727 43.5922 90.5647L15.6753 55.6555C14.3889 54.0466 14.3679 51.7676 15.6236 50.1356Z" fill="#84C8D8"/>
<path d="M52.4888 91.6914L54.3851 91.6914C55.291 91.6914 56.1465 91.2794 56.7131 90.5701L84.6287 55.6608C85.2694 54.8619 85.5975 53.8896 85.6094 52.9208L65.8985 52.9208L52.4888 91.6914Z" fill="#94D8ED"/>
<path d="M14.695 52.9165L34.4067 52.9165L41.541 31.3239L31.5659 31.3239C30.6419 31.3239 29.7682 31.7534 29.2051 32.4864L15.6254 50.138C14.9937 50.955 14.6866 51.9385 14.695 52.9165Z" fill="#DEF6FF"/>
<path d="M14.7905 51.9525C14.9249 51.3061 15.2026 50.6829 15.6265 50.1338L26.1584 36.4443L29.2054 32.4836C29.7699 31.7505 30.6429 31.3203 31.5684 31.3203L38.4453 31.3203C37.5199 31.3203 36.6476 31.7505 36.0831 32.4836L22.5027 50.1331C21.8724 50.9522 21.5639 51.9343 21.5751 52.9122L14.6982 52.9122C14.6947 52.6051 14.7227 52.2974 14.7822 51.9952C14.7836 51.9854 14.7857 51.9756 14.7878 51.9658C14.7885 51.9616 14.7899 51.9567 14.7905 51.9525Z" fill="#B7E5F7"/>
<path d="M34.4098 52.9145L65.9033 52.9145L58.769 31.3219L41.5441 31.3219L34.4098 52.9145Z" fill="#94D8ED"/>
<path d="M34.4078 52.9166L47.8175 91.6872L52.4917 91.6872L65.9014 52.9166L34.4078 52.9166Z" fill="#DEF6FF"/>
<path d="M52.4912 91.687L47.8156 91.687L45.1113 83.8665L50.4703 90.5678C50.9726 91.1967 51.7042 91.5912 52.4961 91.6717L52.4912 91.687Z" fill="#B7E5F7"/>
<path d="M22.4057 25.1545L26.6846 9.62601L39.9439 18.7715L52.9717 4.57202L52.2834 28.7661C52.2617 29.5293 51.7762 30.2022 51.0578 30.4639L21.4075 41.256C20.6891 41.5169 19.8846 41.3133 19.3775 40.7425L3.29845 22.6517L22.4057 25.1545Z" fill="#FFCD34"/>
<path d="M10.8383 23.6355L23.6751 39.176C24.155 39.7566 24.8923 39.9846 25.5352 39.7503L21.4087 41.2521C20.6903 41.5137 19.8859 41.3102 19.3787 40.7394L3.29967 22.6478L10.8383 23.6355Z" fill="#E69012"/>
<path d="M25.1055 5.2533C26.4108 4.77763 27.8539 5.45126 28.3289 6.75656C28.8045 8.06185 28.1309 9.50495 26.8256 9.97992C25.5203 10.4556 24.0772 9.78196 23.6022 8.47666C23.1265 7.17137 23.8002 5.72827 25.1055 5.2533Z" fill="#FF8736"/>
<path d="M1.65585 18.2705C2.96115 17.7955 4.40494 18.4684 4.87991 19.7737C5.35488 21.079 4.68195 22.5221 3.37666 22.9978C2.07136 23.4728 0.627564 22.7998 0.152594 21.4938C-0.322376 20.1885 0.350557 18.7454 1.65585 18.2705Z" fill="#FF8736"/>
<path d="M51.4459 0.152313C52.7512 -0.322657 54.1943 0.350276 54.67 1.65557C55.1449 2.96086 54.472 4.40466 53.166 4.87963C51.8607 5.3546 50.4176 4.68167 49.9426 3.37638C49.4677 2.07038 50.1406 0.627284 51.4459 0.152313Z" fill="#FF8736"/>
<path d="M31.9125 23.976C33.4108 23.4304 35.2156 24.6084 35.9431 26.6062C36.6699 28.6047 36.0445 30.6669 34.5461 31.2125C33.0471 31.7581 31.2423 30.5801 30.5155 28.5816C29.788 26.5831 30.4134 24.5209 31.9125 23.976Z" fill="#FA7EC1"/>
<path d="M72.525 25.6654C73.0735 25.6654 73.5883 25.3269 73.787 24.7812L75.2349 20.8031C75.4889 20.1064 75.1293 19.3355 74.4319 19.0816C73.7352 18.8277 72.9643 19.1872 72.7104 19.8846L71.2631 23.8628C71.0092 24.5595 71.3687 25.3304 72.0655 25.5843C72.2172 25.6388 72.3725 25.6654 72.525 25.6654Z" fill="#FF8736"/>
<path d="M64.4856 25.3653C64.6759 25.3653 64.8689 25.324 65.0522 25.2386C65.7244 24.9253 66.0154 24.1264 65.7021 23.4542L64.1002 20.0196C63.7868 19.3473 62.9879 19.0563 62.3157 19.3697C61.6435 19.6831 61.3525 20.4826 61.6659 21.1549L63.2677 24.5888C63.4951 25.0778 63.9799 25.3653 64.4856 25.3653Z" fill="#FF8736"/>
<path d="M78.8811 30.6067C79.0713 30.6067 79.2644 30.5662 79.4484 30.4808L82.8823 28.8796C83.5545 28.5662 83.8455 27.7667 83.5321 27.0945C83.2181 26.4222 82.4192 26.1319 81.747 26.4446L78.3131 28.0458C77.6408 28.3592 77.3498 29.1587 77.6632 29.831C77.8912 30.3199 78.3753 30.6067 78.8811 30.6067Z" fill="#FF8736"/>
</svg>
