<svg width="74" height="76" viewBox="0 0 74 76" fill="none" xmlns="http://www.w3.org/2000/svg">
<path d="M44.6262 71.6196L18.762 59.5348C16.498 58.4769 15.5176 55.8025 16.5724 53.5612L36.8079 10.5595C37.8626 8.31821 40.5529 7.35881 42.8169 8.4167L68.6811 20.5015C70.9451 21.5594 71.9255 24.2338 70.8707 26.4751L50.6353 69.4768C49.5805 71.7181 46.8902 72.6775 44.6262 71.6196Z" fill="#AA4141"/>
<path d="M36.8079 10.5595L16.5724 53.5612C15.5176 55.8025 16.498 58.4769 18.762 59.5348L41.4103 70.117L57.1938 16.8226C57.353 16.2852 57.4049 15.7416 57.3635 15.2136L42.8169 8.41667C40.5529 7.35889 37.8626 8.3183 36.8079 10.5595Z" fill="#963737"/>
<path d="M44.6753 69.1264L20.6463 57.8992C19.2466 57.2453 18.6406 55.5917 19.2926 54.206L38.8871 12.5667C39.5391 11.1809 41.2025 10.5879 42.6022 11.2419L66.631 22.4691C68.0308 23.1231 68.6368 24.7766 67.9848 26.1624L48.3903 67.8017C47.7383 69.1873 46.075 69.7805 44.6753 69.1264Z" fill="#FFEBBE"/>
<path d="M42.1035 67.9132L56.9106 17.9156L42.6451 11.2503C41.2453 10.5963 39.5821 11.1894 38.9299 12.575L19.3356 54.2145C18.6835 55.6002 19.2896 57.2536 20.6893 57.9077L42.1035 67.9132Z" fill="#F7DBB5"/>
<path d="M36.2473 54.255C45.5782 57.0184 55.3621 51.7638 58.1001 42.5185C60.8382 33.2732 55.4936 23.5381 46.1627 20.7747C36.8318 18.0113 27.0479 23.2659 24.3099 32.5112C21.5718 41.7566 26.9164 51.4916 36.2473 54.255Z" fill="#FF7955"/>
<path d="M54.4803 26.1067C52.3466 23.6576 49.5071 21.7629 46.1525 20.7694C42.2961 19.6273 38.3629 19.8558 34.8812 21.1685L24.5488 43.1256C26.3485 48.2961 30.5531 52.5664 36.2371 54.2498C39.5918 55.2433 43.005 55.2003 46.1283 54.3082L54.4803 26.1067Z" fill="#F44D4D"/>
<path d="M37.7795 49.5098C44.3765 51.4636 51.2938 47.7485 53.2297 41.2119C55.1655 34.6754 51.3868 27.7926 44.7898 25.8389C38.1927 23.8851 31.2754 27.6002 29.3396 34.1367C27.4037 40.6733 31.1824 47.556 37.7795 49.5098Z" fill="#FFCF65"/>
<path d="M52.577 32.5324C51.1199 29.4117 48.3703 26.8993 44.7899 25.8389C38.1927 23.8851 31.2754 27.6002 29.3395 34.1368C27.4037 40.6734 31.1824 47.5563 37.7795 49.5101C41.3599 50.5704 45.0343 49.9604 47.9558 48.1365L52.577 32.5324Z" fill="#FFB864"/>
<path d="M37.1467 49.6258L31.8171 29.8172C31.6995 29.3803 32.1084 28.9862 32.5452 29.1156L53.1317 35.2124C53.5685 35.3418 53.6969 35.8948 53.3603 36.1974L38.1034 49.909C37.7801 50.1997 37.2597 50.0455 37.1467 49.6258Z" fill="#FF554D"/>
<path d="M31.8233 29.821L37.058 49.277C37.2959 49.3633 37.5374 49.4437 37.7832 49.5165C37.9798 49.5747 38.1768 49.627 38.3739 49.6753L50.8178 38.4918L51.8967 34.8485L32.5514 29.1193C32.4591 29.092 32.3685 29.0891 32.2834 29.104C32.1194 29.2732 31.9601 29.4475 31.8056 29.6266C31.8009 29.6895 31.8054 29.7545 31.8233 29.821Z" fill="#ED4A4A"/>
<path d="M32.4198 68.2472L5.04127 60.1389C2.64473 59.4291 1.272 56.9287 1.97524 54.5542L15.4679 8.99512C16.1711 6.62057 18.684 5.27094 21.0806 5.98069L48.4591 14.089C50.8557 14.7988 52.2284 17.2992 51.5252 19.6737L38.0325 65.2328C37.3293 67.6073 34.8163 68.957 32.4198 68.2472Z" fill="#AA4141"/>
<path d="M32.5896 65.3508L5.99111 57.4735C4.88721 57.1466 4.25494 55.9949 4.57887 54.9011L17.9418 9.77998C18.2657 8.6862 19.4232 8.06458 20.5271 8.3915L47.1256 16.2688C48.2295 16.5958 48.8617 17.7474 48.5378 18.8412L35.1749 63.9622C34.851 65.056 33.6935 65.6777 32.5896 65.3508Z" fill="#FFEBBE"/>
<path d="M30.382 22.746L11.9351 39.4073C11.5315 39.7718 11.6866 40.4361 12.2116 40.5916L37.0574 47.9499C37.5825 48.1053 38.0742 47.6326 37.9342 47.1071L31.5353 23.0876C31.4002 22.5805 30.7714 22.3943 30.382 22.746Z" fill="#FF7955"/>
<path d="M21.9663 51.1439L15.5903 27.2689C15.45 26.7433 15.9418 26.2702 16.467 26.4257L41.1919 33.7482C41.7171 33.9037 41.8721 34.5683 41.468 34.9327L23.1192 51.4853C22.7298 51.8366 22.1016 51.6505 21.9663 51.1439Z" fill="#FF915A"/>
<path d="M17.4904 34.3846L19.7447 42.8259L29.5101 45.718L35.9977 39.8657L33.783 31.5528L23.8746 28.6184L17.4904 34.3846Z" fill="#FFB864"/>
<path d="M26.0548 39.4545C27.3644 39.8423 28.7375 39.1049 29.1218 37.8073C29.5061 36.5097 28.756 35.1434 27.4464 34.7556C26.1368 34.3678 24.7637 35.1052 24.3794 36.4028C23.9951 37.7004 24.7452 39.0666 26.0548 39.4545Z" fill="#FF554D"/>
</svg>
