<svg width="85" height="85" viewBox="0 0 85 85" fill="none" xmlns="http://www.w3.org/2000/svg">
<g clip-path="url(#clip0)">
<path d="M42.1683 20.4637C41.4795 19.6529 40.4098 19.2616 39.364 19.458C29.5334 21.3005 21.5287 27.2954 21.1795 27.5598C20.8215 27.8116 12.6661 33.5994 7.90529 42.3958C7.39894 43.3319 7.44437 44.4694 8.00611 45.373C11.2643 50.6168 23.2369 68.3043 37.211 69.6174C38.8907 69.8356 40.6139 69.8759 42.304 69.808C43.7203 69.7515 45.1449 69.6061 46.5232 69.2672C52.7046 67.7448 55.2796 61.3587 56.3213 55.6835C59.3438 41.9771 46.1641 25.1698 42.1683 20.4637Z" fill="#F7C22C"/>
<path d="M56.3219 55.6857C55.9356 57.7948 55.3362 60.0037 54.4183 62.0234C54.3842 62.0187 54.3492 62.0164 54.3141 62.0119C52.8492 61.8498 51.4083 61.4827 50.0074 61.0321C48.3353 60.4954 46.6699 59.8413 45.1097 59.0276C31.9545 52.7579 26.5973 31.2378 25.2924 24.9624C25.2882 24.9437 25.284 24.9234 25.2827 24.9039C28.619 22.9724 33.6875 20.5233 39.3649 19.4595C40.4109 19.2636 41.4805 19.6544 42.1694 20.4657C46.1648 25.1724 59.3454 41.979 56.3219 55.6857Z" fill="#EEB900"/>
<path d="M27.9163 45.9823C26.9663 46.2114 26.0567 46.7088 25.1997 47.4392C23.6479 48.7624 22.5141 50.8982 23.6201 53.4527C23.7313 53.7098 23.8749 53.9635 24.0741 54.1638C25.4503 55.5484 26.7331 53.7604 27.4266 52.9543C28.2748 51.9686 29.3644 51.1973 30.5587 50.6866C31.5384 50.2668 32.9623 50.4321 33.3285 49.1923C33.6562 48.0823 32.7206 46.993 31.7973 46.5222C30.4547 45.838 29.1516 45.6838 27.9163 45.9823Z" fill="#D9E7EC"/>
<path d="M33.3261 49.1909C33.056 50.1061 32.21 50.2561 31.3904 50.4398C31.351 49.5278 30.5691 48.6991 29.794 48.3034C28.4515 47.6197 27.1483 47.465 25.9136 47.7633C25.3299 47.9047 24.7615 48.1459 24.2109 48.4831C24.5016 48.0936 24.8382 47.7443 25.1973 47.4379C26.0541 46.7091 26.964 46.2105 27.914 45.9814C29.1488 45.683 30.452 45.8377 31.7945 46.5215C32.7188 46.992 33.6539 48.0814 33.3261 49.1909Z" fill="#C5D3DD"/>
<path d="M18.44 48.0547C18.2663 48.1044 18.077 48.1076 17.8906 48.0531C17.365 47.9001 17.0631 47.3502 17.2158 46.8241C17.2432 46.7303 17.9182 44.5058 20.6232 43.391L22.8135 42.5209C23.6111 42.1743 24.4889 41.6087 24.6314 41.3503C24.8316 40.8456 25.4024 40.5956 25.9097 40.7919C26.4207 40.9893 26.6742 41.5633 26.4773 42.0741C26.3338 42.445 25.765 43.4087 23.5857 44.3471C23.5771 44.3506 23.5679 44.3543 23.5593 44.3579L21.3665 45.2287C19.5747 45.967 19.1236 47.3642 19.1201 47.3781C19.0208 47.7181 18.7567 47.964 18.44 48.0547ZM24.6286 41.3576C24.6282 41.3582 24.6279 41.3588 24.6275 41.3595C24.6279 41.3588 24.6282 41.3582 24.6286 41.3576Z" fill="#D9E7EC"/>
<path d="M36.8477 65.1034C38.1339 65.4928 39.4398 64.485 39.852 63.3025C41.2117 59.4053 45.369 56.3702 49.5009 56.2673C50.753 56.2358 52.112 55.3008 52.1343 53.9571C52.1852 50.8854 47.0563 50.2657 44.8833 50.4385C41.2678 50.726 37.0874 53.7854 35.7147 57.1235C34.8855 59.1398 33.9071 64.2125 36.8477 65.1034Z" fill="#D9E7EC"/>
<path d="M52.1337 53.958C52.112 55.3016 50.7526 56.2372 49.5007 56.2676C47.4711 56.3182 45.436 57.0757 43.7305 58.2973C41.676 57.1042 39.8248 55.5334 38.1613 53.7197C40.0484 51.9299 42.5808 50.6229 44.8837 50.4386C47.0564 50.2669 52.1847 50.8863 52.1337 53.958Z" fill="#C5D3DD"/>
<path d="M68.9483 13.5812C68.5807 12.5828 67.7107 11.848 66.6614 11.6722C56.7961 10.0217 47.2182 12.8983 46.7995 13.0268C46.3763 13.1394 36.7279 15.7697 29.2328 22.3926C28.4356 23.0973 28.0866 24.1812 28.3033 25.2229C29.5599 31.2677 34.7196 51.9937 47.3892 58.0324C48.8916 58.8149 50.4959 59.4451 52.1062 59.963C53.4554 60.3961 54.8431 60.7501 56.254 60.9056C62.5821 61.6018 67.1965 56.491 70.1258 51.5201C77.6778 39.6895 71.0825 19.3747 68.9483 13.5812Z" fill="#0396FD"/>
<path d="M70.1257 51.5217C67.2541 56.396 62.7628 61.4023 56.6264 60.9423C61.0386 59.6597 64.4004 55.6268 66.7268 51.6805C74.4617 39.5622 67.7061 18.7514 65.52 12.8181C65.3017 12.2264 64.9124 11.7262 64.4135 11.3739C65.1575 11.4492 65.9089 11.5487 66.6604 11.6745C67.7109 11.8506 68.58 12.5861 68.9467 13.5832C71.0814 19.3766 77.6766 39.6913 70.1257 51.5217Z" fill="#0077F0"/>
<path d="M56.7488 26.0167C56.1531 26.1873 55.5317 26.2681 55.0262 26.1159C54.5024 25.9576 54.2054 25.4046 54.3635 24.8802C54.5205 24.3594 55.0682 24.0629 55.5898 24.2148C55.8831 24.2619 56.8681 23.9169 57.6302 23.5004L59.6518 22.3134C62.2049 20.8576 64.3744 21.6928 64.4654 21.729C64.974 21.9314 65.2224 22.508 65.02 23.0166C64.8189 23.5221 64.2482 23.7704 63.7416 23.575C63.666 23.5472 62.3148 23.0771 60.6448 24.0291L58.6215 25.2177C58.6132 25.2222 58.6048 25.2268 58.5969 25.2312C58.2105 25.4439 57.4998 25.8016 56.7488 26.0167ZM55.5969 24.2171C55.5974 24.2169 55.5985 24.2172 55.5991 24.2175C55.5985 24.2172 55.5974 24.2169 55.5969 24.2171Z" fill="#D9E7EC"/>
<path d="M45.2386 29.315C44.7423 29.4572 44.1046 29.5711 43.2884 29.6169C43.2793 29.6168 43.2698 29.6174 43.2603 29.618L40.9019 29.6817C38.979 29.7582 38.083 30.8882 38.0457 30.9364C37.7214 31.3774 37.1042 31.4671 36.6633 31.1428C36.2224 30.8185 36.1313 30.1931 36.4557 29.7521C36.5136 29.6732 37.9121 27.8166 40.8354 27.7001L43.1912 27.6366C44.0594 27.585 45.0782 27.356 45.3009 27.1623C45.6629 26.7573 46.2846 26.7188 46.6935 27.0776C47.1052 27.4387 47.1461 28.0651 46.7854 28.4767C46.6138 28.6725 46.1827 29.0446 45.2386 29.315ZM45.2947 27.1689L45.2949 27.1694L45.2947 27.1689Z" fill="#D9E7EC"/>
<path d="M46.7879 32.6417C45.8167 32.5304 44.7915 32.6845 43.736 33.0759C41.8238 33.7842 40.0244 35.4001 40.1845 38.1793C40.2006 38.4588 40.2481 38.7465 40.3661 39.0028C41.1825 40.7766 43.002 39.5384 43.9304 39.0201C45.0657 38.3861 46.3541 38.0369 47.6512 37.9678C48.7154 37.9106 49.9953 38.5553 50.7656 37.5172C51.4554 36.5876 50.9516 35.2431 50.2464 34.4837C49.2206 33.3794 48.0501 32.7861 46.7879 32.6417Z" fill="#D9E7EC"/>
<path d="M57.2308 29.6517C57.9954 29.0433 58.9467 28.6312 60.0494 28.4045C62.0466 27.9931 64.4286 28.4113 65.7642 30.8539C65.8984 31.0995 66.0105 31.3688 66.046 31.6486C66.2926 33.5856 64.094 33.4983 63.0319 33.5501C61.7331 33.6133 60.4547 33.9993 59.3182 34.6272C58.385 35.1421 57.6402 36.3668 56.437 35.894C55.3597 35.4705 55.0758 34.063 55.272 33.0454C55.5571 31.5657 56.236 30.4426 57.2308 29.6517Z" fill="#D9E7EC"/>
<path d="M64.6708 41.0566C63.5966 40.2482 62.0242 40.7458 61.2301 41.7145C58.6135 44.9061 53.6655 46.3265 49.7501 45.0026C48.5642 44.6011 46.9664 45.012 46.4829 46.266C45.3791 49.1328 49.9819 51.4785 52.082 52.064C55.5753 53.0372 60.5533 51.6017 62.9902 48.9396C64.4621 47.3316 67.1255 42.9042 64.6708 41.0566Z" fill="#D9E7EC"/>
<path d="M50.7651 37.5166C50.2193 38.253 49.417 38.1428 48.6168 38.0363C49.1865 37.1148 48.696 35.8487 48.019 35.1204C46.9928 34.0163 45.8226 33.4223 44.5592 33.2776C44.1237 33.2273 43.6786 33.2313 43.2243 33.2862C43.3926 33.2079 43.5631 33.1376 43.7356 33.0742C44.7913 32.6832 45.816 32.5294 46.7879 32.6393C48.0498 32.7843 49.22 33.3783 50.2462 34.4824C50.9521 35.2422 51.4547 36.5865 50.7651 37.5166Z" fill="#C5D3DD"/>
<path d="M66.0399 31.6496C66.2563 33.339 64.6081 33.4894 63.48 33.5338C63.7439 33.2589 63.8866 32.8625 63.8127 32.2875C63.7781 32.0074 63.6659 31.7393 63.5314 31.4931C62.3155 29.2693 60.2328 28.724 58.3619 28.9521C58.8722 28.7125 59.4352 28.5308 60.0438 28.4054C62.041 27.9939 64.4231 28.4127 65.7586 30.8552C65.8931 31.1014 66.0053 31.3695 66.0399 31.6496Z" fill="#C5D3DD"/>
<path d="M62.9852 48.9406C61.9085 50.1169 60.3343 51.0544 58.6116 51.6498C59.3542 51.1729 60.0182 50.6298 60.5662 50.0303C62.21 48.235 65.184 43.2906 62.4433 41.2264C62.3291 41.1409 62.21 41.0681 62.0879 41.0091C62.8943 40.5676 63.9068 40.4855 64.6672 41.0588C67.1207 42.9061 64.4581 47.3323 62.9852 48.9406Z" fill="#C5D3DD"/>
</g>
<defs>
<clipPath id="clip0">
<rect width="67.676" height="67.676" fill="white" transform="translate(0.381836 19.1715) rotate(-15.9829)"/>
</clipPath>
</defs>
</svg>
