<svg width="57" height="69" viewBox="0 0 57 69" fill="none" xmlns="http://www.w3.org/2000/svg">
<path fill-rule="evenodd" clip-rule="evenodd" d="M0.0644531 3.76227V26.513C0.0644531 26.9932 0.622787 27.5047 0.937195 27.8669L3.08388 30.358C3.21756 30.5115 3.24506 30.5548 3.18616 30.787L1.09851 38.8781L6.08376 40.6452L11.065 38.8781L8.97731 30.787C8.91828 30.5548 8.94982 30.5115 9.0796 30.358L11.2302 27.8669C11.5408 27.5047 12.1029 26.9932 12.1029 26.513V3.76227H0.0644531Z" fill="#ACACAC"/>
<path fill-rule="evenodd" clip-rule="evenodd" d="M6.08362 0H0.937195C0.457565 0 0.0644531 0.393516 0.0644531 0.873686V5.15155H12.1028V0.873686C12.1028 0.393516 11.7097 0 11.2301 0L6.08362 0Z" fill="#F3EAE6"/>
<path fill-rule="evenodd" clip-rule="evenodd" d="M2.09333 45.2181L0.540422 63.4509C0.280998 66.493 3.03305 68.9999 6.08387 68.9999C9.13079 68.9999 11.883 66.493 11.6234 63.4509L10.0705 45.2181L6.08387 42.0461L2.09333 45.2181Z" fill="#FEA610"/>
<path fill-rule="evenodd" clip-rule="evenodd" d="M6.08335 38.8778H1.09823C0.799455 38.8778 0.555664 39.1219 0.555664 39.4209V44.6748C0.555664 44.9738 0.799455 45.2179 1.09823 45.2179H2.09294H10.07H11.0647C11.3635 45.2179 11.6073 44.9738 11.6073 44.6748V39.4209C11.6073 39.1219 11.3635 38.8778 11.0647 38.8778H6.08335Z" fill="#F3EAE6"/>
<path fill-rule="evenodd" clip-rule="evenodd" d="M9.78681 0.873686V3.76225V5.15142H12.1025V3.76225V0.873686C12.1025 0.393516 11.7094 0 11.2297 0H8.91406C9.39369 0 9.78681 0.393516 9.78681 0.873686Z" fill="#CDBEB9"/>
<path fill-rule="evenodd" clip-rule="evenodd" d="M9.78739 5.15198V25.5218C9.78739 26.002 9.2331 26.5174 8.91464 26.8796L6.48886 29.6187C6.35518 29.7722 6.32378 29.8193 6.38658 30.0476L8.75333 38.8787H11.0651L8.97745 30.7875C8.91842 30.5553 8.94995 30.512 9.07973 30.3585L11.2303 27.8674C11.541 27.5053 12.1031 26.9937 12.1031 26.5135V5.15198H9.78739Z" fill="#838383"/>
<path fill-rule="evenodd" clip-rule="evenodd" d="M11.0651 38.8778H8.75335H7.77832C8.07319 38.8778 8.32089 39.1219 8.32089 39.4209V39.8538V43.8246V44.6748C8.32089 44.9738 8.07319 45.2179 7.77832 45.2179H10.0704H11.0651C11.3639 45.2179 11.6077 44.9738 11.6077 44.6748V39.4209C11.6077 39.1219 11.3639 38.8778 11.0651 38.8778Z" fill="#CDBEB9"/>
<path fill-rule="evenodd" clip-rule="evenodd" d="M6.47314 45.218L8.02214 63.4508C8.23048 65.8749 6.52422 67.9568 4.2832 68.7046C4.85326 68.8935 5.46267 68.9997 6.0838 68.9997C9.13072 68.9997 11.8829 66.4928 11.6233 63.4508L10.0704 45.218H7.77835H6.47314Z" fill="#FE7600"/>
<path fill-rule="evenodd" clip-rule="evenodd" d="M34.5168 6.59546L22.4785 13.6793V26.5127C22.4785 26.9929 23.0408 27.5045 23.3553 27.8666L25.502 30.3577C25.6357 30.5112 25.6632 30.5545 25.6043 30.7867L23.5166 38.8779L28.4978 42.046L33.4831 38.8779L31.3954 30.7867C31.3364 30.5545 31.364 30.5112 31.4977 30.3577L33.6444 27.8666C33.9589 27.5045 34.5171 26.9929 34.5171 26.5127V6.59546H34.5168Z" fill="#ACACAC"/>
<path fill-rule="evenodd" clip-rule="evenodd" d="M33.6441 2.83348L23.3553 8.50051C22.9346 8.73271 22.4785 8.89403 22.4785 9.3742V15.0687L34.5169 7.9849V3.70703C34.517 3.227 34.0649 2.60128 33.6441 2.83348Z" fill="#F3EAE6"/>
<path fill-rule="evenodd" clip-rule="evenodd" d="M24.5103 45.2181L22.9574 63.4509C22.6979 66.493 25.4499 68.9999 28.497 68.9999C31.5478 68.9999 34.3 66.493 34.0404 63.4509L32.4875 45.2181L28.497 42.0461L24.5103 45.2181Z" fill="#FD4755"/>
<path fill-rule="evenodd" clip-rule="evenodd" d="M33.4827 38.8778H28.4974H23.5162C23.2174 38.8778 22.9736 39.1219 22.9736 39.4209V44.6748C22.9736 44.9738 23.2174 45.2179 23.5162 45.2179H24.5109H32.488H33.4827C33.7814 45.2179 34.0252 44.9738 34.0252 44.6748V39.4209C34.0252 39.1219 33.7816 38.8778 33.4827 38.8778Z" fill="#F3EAE6"/>
<path fill-rule="evenodd" clip-rule="evenodd" d="M29.9952 45.218L31.5481 63.4508C31.7722 66.0678 29.7592 68.2914 27.251 68.8581C27.6559 68.9487 28.0765 68.9997 28.4973 68.9997C31.5481 68.9997 34.3003 66.4928 34.0407 63.4508L32.4878 45.218H30.9899H29.9952Z" fill="#E41E2B"/>
<path fill-rule="evenodd" clip-rule="evenodd" d="M31.5328 40.1175V44.4622V44.6748C31.5328 44.9738 31.289 45.2179 30.9902 45.2179H32.4882H33.4829C33.7816 45.2179 34.0254 44.9738 34.0254 44.6748V39.4209C34.0254 39.1219 33.7816 38.8778 33.4829 38.8778H30.9902C31.289 38.8778 31.5328 39.1219 31.5328 39.4209V40.1175Z" fill="#CDBEB9"/>
<path fill-rule="evenodd" clip-rule="evenodd" d="M28.9025 30.787L30.9902 38.8782H33.4828L31.3951 30.787C31.3361 30.5548 31.3637 30.5115 31.4974 30.358L33.6441 27.8669C33.9587 27.5048 34.5169 26.9932 34.5169 26.513V7.98505L32.0281 9.45291V26.513C32.0281 26.9932 31.4659 27.5048 31.1513 27.8669L29.0047 30.358C28.871 30.5115 28.8435 30.5548 28.9025 30.787Z" fill="#838383"/>
<path fill-rule="evenodd" clip-rule="evenodd" d="M32.0273 3.72275V6.59569V7.98485V8.06355V9.45271L34.5161 7.98485V6.59569V3.70699C34.5161 3.22682 34.0639 2.6011 33.6433 2.8333L32.0273 3.72275Z" fill="#CDBEB9"/>
<path fill-rule="evenodd" clip-rule="evenodd" d="M48.5402 13.6714V29.9602C48.5402 30.4953 48.5167 30.6371 48.383 31.1565L46.3936 38.8777L51.3748 42.0458L56.36 38.8777L54.3706 31.1565C54.2369 30.637 54.2133 30.4953 54.2133 29.9602V13.6714H48.5402Z" fill="#ACACAC"/>
<path fill-rule="evenodd" clip-rule="evenodd" d="M48.54 9.49974V15.0565H54.2133V9.49974C54.2133 9.12591 53.9065 8.81891 53.5331 8.81891H51.3747H49.2202C48.8466 8.81891 48.54 9.12591 48.54 9.49974Z" fill="#F3EAE6"/>
<path fill-rule="evenodd" clip-rule="evenodd" d="M47.3883 45.2181L45.8354 63.4509C45.5758 66.493 48.3279 68.9999 51.3749 68.9999C54.4257 68.9999 57.1779 66.493 56.9184 63.4509L55.3653 45.2181L51.3748 42.0461L47.3883 45.2181Z" fill="#97D729"/>
<path fill-rule="evenodd" clip-rule="evenodd" d="M51.3753 38.8778H46.3941C46.0954 38.8778 45.8516 39.1219 45.8516 39.4209V44.6748C45.8516 44.9738 46.0954 45.2179 46.3941 45.2179H47.3888H55.3659H56.3606C56.6594 45.2179 56.9032 44.9738 56.9032 44.6748V39.4209C56.9032 39.1219 56.6594 38.8778 56.3606 38.8778H51.3753Z" fill="#F3EAE6"/>
<path fill-rule="evenodd" clip-rule="evenodd" d="M51.7212 13.6713V15.0565H54.2138V13.6713V9.49974C54.2138 9.12591 53.9071 8.81891 53.5336 8.81891H51.3752H51.041C51.4145 8.81891 51.7212 9.12591 51.7212 9.49974V13.6713Z" fill="#CDBEB9"/>
<path fill-rule="evenodd" clip-rule="evenodd" d="M54.4107 40.1175V44.4622V44.6748C54.4107 44.9738 54.1669 45.2179 53.8682 45.2179H55.3661H56.3608C56.6596 45.2179 56.9034 44.9738 56.9034 44.6748V39.4209C56.9034 39.1219 56.6596 38.8778 56.3608 38.8778H53.8682C54.1669 38.8778 54.4107 39.1219 54.4107 39.4209V40.1175Z" fill="#CDBEB9"/>
<path fill-rule="evenodd" clip-rule="evenodd" d="M51.878 31.1573L53.8674 38.8786H56.36L54.3706 31.1573C54.2369 30.6378 54.2133 30.4962 54.2133 29.961V15.0574H51.7207V29.9609C51.7207 30.4962 51.7443 30.6378 51.878 31.1573Z" fill="#838383"/>
<path fill-rule="evenodd" clip-rule="evenodd" d="M52.8731 45.218L54.426 63.4508C54.6501 66.0678 52.6411 68.2914 50.1328 68.8581C50.5339 68.9487 50.9545 68.9997 51.3752 68.9997C54.426 68.9997 57.1782 66.4928 56.9187 63.4508L55.3656 45.218H53.8677H52.8731Z" fill="#81B821"/>
<path d="M28.5013 64.445H28.4974C27.9229 64.445 27.457 63.9789 27.457 63.4038C27.457 62.8288 27.9228 62.3626 28.4974 62.3626C29.0719 62.3626 29.5397 62.8288 29.5397 63.4038C29.5397 63.9789 29.0758 64.445 28.5013 64.445Z" fill="#F3EAE6"/>
<path d="M6.08727 64.445H6.07945C5.50495 64.445 5.03906 63.9789 5.03906 63.4038C5.03906 62.8288 5.50481 62.3626 6.07945 62.3626C6.65409 62.3626 7.12375 62.8288 7.12375 63.4038C7.12375 63.9789 6.66191 64.445 6.08727 64.445Z" fill="#F3EAE6"/>
<path d="M51.3793 64.445H51.3754C50.8008 64.445 50.335 63.9789 50.335 63.4038C50.335 62.8288 50.8007 62.3626 51.3754 62.3626C51.9499 62.3626 52.4176 62.8288 52.4176 63.4038C52.4176 63.9789 51.9538 64.445 51.3793 64.445Z" fill="#F3EAE6"/>
</svg>
