<?xml version="1.0" encoding="utf-8"?>
<!-- Generator: Adobe Illustrator 24.0.2, SVG Export Plug-In . SVG Version: 6.00 Build 0)  -->
<svg version="1.1" id="Слой_1" xmlns="http://www.w3.org/2000/svg" xmlns:xlink="http://www.w3.org/1999/xlink" x="0px" y="0px"
	 viewBox="0 0 36 36" style="enable-background:new 0 0 36 36;" xml:space="preserve">
<style type="text/css">
	.st0{fill:url(#SVGID_1_);}
	.st1{fill:#FFFFFF;}
</style>
<linearGradient id="SVGID_1_" gradientUnits="userSpaceOnUse" x1="9.1729" y1="41.3718" x2="27.1664" y2="7.7525" gradientTransform="matrix(1 0 0 -1 0 42.8848)">
	<stop  offset="0" style="stop-color:#A0A4AD"/>
	<stop  offset="1" style="stop-color:#6C7489"/>
</linearGradient>
<circle class="st0" cx="18" cy="18" r="18"/>
<path class="st1" d="M27.3,20.3L26.1,19c-0.1-0.1-0.3-0.2-0.5-0.2l-3,0.3c-0.9-1.3-1.9-2.6-2.9-3.7L16,11.9c-1.3-1.3-2.7-2.3-4-2.9
	c-1.4-0.6-2.4-0.6-3,0c-0.6,0.6-0.6,1.7,0,3c0.6,1.3,1.6,2.7,2.9,4l3.7,3.7c1,1,2.3,2.1,3.7,2.9l-0.3,3c0,0.2,0,0.4,0.2,0.5l1.2,1.2
	c0.1,0.1,0.3,0.2,0.4,0.2c0,0,0.1,0,0.1,0c0.2,0,0.3-0.1,0.4-0.3l1.5-2.8c0.2,0.1,0.5,0.1,0.7,0.1c0.3,0,0.6-0.1,0.8-0.3
	c0.4-0.4,0.3-1,0.2-1.5l2.8-1.5c0.2-0.1,0.3-0.2,0.3-0.4C27.5,20.6,27.4,20.4,27.3,20.3z"/>
<path class="st1" d="M26.1,10.8l-1.6-1.6C24.3,9,24,9,23.8,9l-6.4,2c-0.1,0-0.2,0.2-0.1,0.3l3.7,3.7c0.1,0.1,0.2,0.1,0.2,0l4.8-3.3
	c0.1-0.1,0.2-0.2,0.2-0.3C26.3,11.2,26.2,11,26.1,10.8z"/>
<path class="st1" d="M10.8,26.1l-1.6-1.6C9,24.3,9,24,9,23.8l2-6.4c0-0.1,0.2-0.2,0.3-0.1l3.7,3.7c0.1,0.1,0.1,0.2,0,0.2L11.7,26
	c-0.1,0.1-0.2,0.2-0.3,0.2C11.2,26.3,11,26.2,10.8,26.1z"/>
</svg>
