<svg width="63" height="33" viewBox="0 0 63 33" fill="none" xmlns="http://www.w3.org/2000/svg">
<circle cx="33.1717" cy="13.8126" r="4.51737" stroke="url(#paint0_linear)" stroke-width="2"/>
<path d="M23.2108 30.6993C24.0217 25.4681 28.1955 21.5889 33.1046 21.5889C38.0136 21.5889 42.1874 25.4681 42.9983 30.6993C43.0574 31.0799 42.7415 31.5391 42.1393 31.5391H24.0698C23.4676 31.5391 23.1518 31.0799 23.2108 30.6993Z" stroke="url(#paint1_linear)" stroke-width="2"/>
<path d="M42.9751 3.11847C43.5053 4.54041 44.627 5.66198 46.0489 6.19222L39.9012 6.19222C41.3232 5.66197 42.4448 4.54037 42.9751 3.11847Z" stroke="black" stroke-width="1.5"/>
<path d="M42.9751 3.11847C43.5053 4.54041 44.627 5.66198 46.0489 6.19222L39.9012 6.19222C41.3232 5.66197 42.4448 4.54037 42.9751 3.11847Z" stroke="url(#paint2_linear)" stroke-width="1.5"/>
<mask id="path-4-inside-1" fill="white">
<path d="M54.6 15.9648L53.0801 15.4043C51.8496 14.9506 50.8796 13.9807 50.426 12.7503L49.8654 11.2303C49.8443 11.1732 49.7898 11.1353 49.7289 11.1353C49.668 11.1353 49.6135 11.1732 49.5925 11.2303L49.0319 12.7502C48.5781 13.9807 47.6081 14.9506 46.3777 15.4043L44.8578 15.9648C44.8006 15.9859 44.7627 16.0404 44.7627 16.1013C44.7627 16.1622 44.8006 16.2167 44.8578 16.2378L46.3778 16.7984C47.6082 17.2522 48.5781 18.2221 49.0319 19.4525L49.5925 20.9725C49.6135 21.0296 49.668 21.0676 49.7289 21.0676C49.7898 21.0676 49.8443 21.0296 49.8654 20.9725L50.426 19.4525C50.8797 18.2221 51.8496 17.2521 53.08 16.7984L54.6 16.2378C54.6572 16.2167 54.6951 16.1622 54.6951 16.1013C54.6951 16.0404 54.6571 15.9859 54.6 15.9648Z"/>
</mask>
<path d="M54.6 15.9648L55.119 14.5575L55.119 14.5575L54.6 15.9648ZM53.0801 15.4043L53.5991 13.997L53.5991 13.997L53.0801 15.4043ZM50.426 12.7503L51.8333 12.2313L51.8333 12.2312L50.426 12.7503ZM49.8654 11.2303L48.458 11.7494L48.458 11.7494L49.8654 11.2303ZM49.5925 11.2303L50.9998 11.7494L50.9998 11.7494L49.5925 11.2303ZM49.0319 12.7502L47.6245 12.2311L47.6245 12.2312L49.0319 12.7502ZM46.3777 15.4043L46.8967 16.8117L46.8967 16.8117L46.3777 15.4043ZM44.8578 15.9648L44.3388 14.5575L44.3387 14.5575L44.8578 15.9648ZM44.8578 16.2378L45.3769 14.8304L45.3768 14.8304L44.8578 16.2378ZM46.3778 16.7984L45.8587 18.2057L45.8588 18.2058L46.3778 16.7984ZM49.0319 19.4525L47.6245 19.9715L47.6245 19.9715L49.0319 19.4525ZM49.5925 20.9725L48.1851 21.4915L48.1851 21.4916L49.5925 20.9725ZM49.8654 20.9725L51.2727 21.4916L51.2727 21.4915L49.8654 20.9725ZM50.426 19.4525L51.8333 19.9715L51.8333 19.9715L50.426 19.4525ZM53.08 16.7984L53.599 18.2058L53.5991 18.2057L53.08 16.7984ZM54.6 16.2378L54.081 14.8304L54.081 14.8304L54.6 16.2378ZM54.6951 16.1013H56.1951H54.6951ZM55.119 14.5575L53.5991 13.997L52.5611 16.8117L54.081 17.3722L55.119 14.5575ZM53.5991 13.997C52.7804 13.6951 52.1351 13.0498 51.8333 12.2313L49.0186 13.2692C49.6242 14.9116 50.9189 16.2061 52.5611 16.8117L53.5991 13.997ZM51.8333 12.2312L51.2727 10.7113L48.458 11.7494L49.0186 13.2693L51.8333 12.2312ZM51.2727 10.7113C51.0341 10.0642 50.4176 9.63525 49.7289 9.63525V12.6353C49.1621 12.6353 48.6545 12.2822 48.458 11.7494L51.2727 10.7113ZM49.7289 9.63525C49.0403 9.63525 48.4238 10.0642 48.1851 10.7113L50.9998 11.7494C50.8033 12.2822 50.2958 12.6353 49.7289 12.6353V9.63525ZM48.1851 10.7113L47.6245 12.2311L50.4392 13.2693L50.9998 11.7494L48.1851 10.7113ZM47.6245 12.2312C47.3226 13.0498 46.6773 13.6951 45.8587 13.997L46.8967 16.8117C48.5389 16.2061 49.8336 14.9115 50.4392 13.2692L47.6245 12.2312ZM45.8587 13.997L44.3388 14.5575L45.3768 17.3722L46.8967 16.8117L45.8587 13.997ZM44.3387 14.5575C43.6917 14.7961 43.2627 15.4126 43.2627 16.1013H46.2627C46.2627 16.6681 45.9096 17.1757 45.3768 17.3722L44.3387 14.5575ZM43.2627 16.1013C43.2627 16.79 43.6917 17.4065 44.3387 17.6451L45.3768 14.8304C45.9096 15.0269 46.2627 15.5345 46.2627 16.1013H43.2627ZM44.3387 17.6451L45.8587 18.2057L46.8969 15.3911L45.3769 14.8304L44.3387 17.6451ZM45.8588 18.2058C46.6774 18.5077 47.3226 19.1529 47.6245 19.9715L50.4392 18.9335C49.8336 17.2912 48.539 15.9967 46.8968 15.3911L45.8588 18.2058ZM47.6245 19.9715L48.1851 21.4915L50.9998 20.4535L50.4392 18.9335L47.6245 19.9715ZM48.1851 21.4916C48.4238 22.1386 49.0403 22.5676 49.7289 22.5676V19.5676C50.2958 19.5676 50.8033 19.9207 50.9998 20.4535L48.1851 21.4916ZM49.7289 22.5676C50.4176 22.5676 51.0341 22.1386 51.2727 21.4916L48.458 20.4535C48.6545 19.9207 49.1621 19.5676 49.7289 19.5676V22.5676ZM51.2727 21.4915L51.8333 19.9715L49.0186 18.9335L48.458 20.4535L51.2727 21.4915ZM51.8333 19.9715C52.1352 19.1529 52.7805 18.5076 53.599 18.2058L52.5611 15.3911C50.9187 15.9966 49.6242 17.2913 49.0186 18.9335L51.8333 19.9715ZM53.5991 18.2057L55.1191 17.6451L54.081 14.8304L52.5609 15.3911L53.5991 18.2057ZM55.1191 17.6451C55.7661 17.4065 56.1951 16.79 56.1951 16.1013H53.1951C53.1951 15.5345 53.5482 15.0269 54.081 14.8304L55.1191 17.6451ZM56.1951 16.1013C56.1951 15.4112 55.7647 14.7956 55.119 14.5575L54.0809 17.3722C53.5495 17.1762 53.1951 16.6696 53.1951 16.1013H56.1951Z" fill="black" mask="url(#path-4-inside-1)"/>
<path d="M54.6 15.9648L55.119 14.5575L55.119 14.5575L54.6 15.9648ZM53.0801 15.4043L53.5991 13.997L53.5991 13.997L53.0801 15.4043ZM50.426 12.7503L51.8333 12.2313L51.8333 12.2312L50.426 12.7503ZM49.8654 11.2303L48.458 11.7494L48.458 11.7494L49.8654 11.2303ZM49.5925 11.2303L50.9998 11.7494L50.9998 11.7494L49.5925 11.2303ZM49.0319 12.7502L47.6245 12.2311L47.6245 12.2312L49.0319 12.7502ZM46.3777 15.4043L46.8967 16.8117L46.8967 16.8117L46.3777 15.4043ZM44.8578 15.9648L44.3388 14.5575L44.3387 14.5575L44.8578 15.9648ZM44.8578 16.2378L45.3769 14.8304L45.3768 14.8304L44.8578 16.2378ZM46.3778 16.7984L45.8587 18.2057L45.8588 18.2058L46.3778 16.7984ZM49.0319 19.4525L47.6245 19.9715L47.6245 19.9715L49.0319 19.4525ZM49.5925 20.9725L48.1851 21.4915L48.1851 21.4916L49.5925 20.9725ZM49.8654 20.9725L51.2727 21.4916L51.2727 21.4915L49.8654 20.9725ZM50.426 19.4525L51.8333 19.9715L51.8333 19.9715L50.426 19.4525ZM53.08 16.7984L53.599 18.2058L53.5991 18.2057L53.08 16.7984ZM54.6 16.2378L54.081 14.8304L54.081 14.8304L54.6 16.2378ZM54.6951 16.1013H56.1951H54.6951ZM55.119 14.5575L53.5991 13.997L52.5611 16.8117L54.081 17.3722L55.119 14.5575ZM53.5991 13.997C52.7804 13.6951 52.1351 13.0498 51.8333 12.2313L49.0186 13.2692C49.6242 14.9116 50.9189 16.2061 52.5611 16.8117L53.5991 13.997ZM51.8333 12.2312L51.2727 10.7113L48.458 11.7494L49.0186 13.2693L51.8333 12.2312ZM51.2727 10.7113C51.0341 10.0642 50.4176 9.63525 49.7289 9.63525V12.6353C49.1621 12.6353 48.6545 12.2822 48.458 11.7494L51.2727 10.7113ZM49.7289 9.63525C49.0403 9.63525 48.4238 10.0642 48.1851 10.7113L50.9998 11.7494C50.8033 12.2822 50.2958 12.6353 49.7289 12.6353V9.63525ZM48.1851 10.7113L47.6245 12.2311L50.4392 13.2693L50.9998 11.7494L48.1851 10.7113ZM47.6245 12.2312C47.3226 13.0498 46.6773 13.6951 45.8587 13.997L46.8967 16.8117C48.5389 16.2061 49.8336 14.9115 50.4392 13.2692L47.6245 12.2312ZM45.8587 13.997L44.3388 14.5575L45.3768 17.3722L46.8967 16.8117L45.8587 13.997ZM44.3387 14.5575C43.6917 14.7961 43.2627 15.4126 43.2627 16.1013H46.2627C46.2627 16.6681 45.9096 17.1757 45.3768 17.3722L44.3387 14.5575ZM43.2627 16.1013C43.2627 16.79 43.6917 17.4065 44.3387 17.6451L45.3768 14.8304C45.9096 15.0269 46.2627 15.5345 46.2627 16.1013H43.2627ZM44.3387 17.6451L45.8587 18.2057L46.8969 15.3911L45.3769 14.8304L44.3387 17.6451ZM45.8588 18.2058C46.6774 18.5077 47.3226 19.1529 47.6245 19.9715L50.4392 18.9335C49.8336 17.2912 48.539 15.9967 46.8968 15.3911L45.8588 18.2058ZM47.6245 19.9715L48.1851 21.4915L50.9998 20.4535L50.4392 18.9335L47.6245 19.9715ZM48.1851 21.4916C48.4238 22.1386 49.0403 22.5676 49.7289 22.5676V19.5676C50.2958 19.5676 50.8033 19.9207 50.9998 20.4535L48.1851 21.4916ZM49.7289 22.5676C50.4176 22.5676 51.0341 22.1386 51.2727 21.4916L48.458 20.4535C48.6545 19.9207 49.1621 19.5676 49.7289 19.5676V22.5676ZM51.2727 21.4915L51.8333 19.9715L49.0186 18.9335L48.458 20.4535L51.2727 21.4915ZM51.8333 19.9715C52.1352 19.1529 52.7805 18.5076 53.599 18.2058L52.5611 15.3911C50.9187 15.9966 49.6242 17.2913 49.0186 18.9335L51.8333 19.9715ZM53.5991 18.2057L55.1191 17.6451L54.081 14.8304L52.5609 15.3911L53.5991 18.2057ZM55.1191 17.6451C55.7661 17.4065 56.1951 16.79 56.1951 16.1013H53.1951C53.1951 15.5345 53.5482 15.0269 54.081 14.8304L55.1191 17.6451ZM56.1951 16.1013C56.1951 15.4112 55.7647 14.7956 55.119 14.5575L54.0809 17.3722C53.5495 17.1762 53.1951 16.6696 53.1951 16.1013H56.1951Z" fill="url(#paint3_linear)" mask="url(#path-4-inside-1)"/>
<path d="M61.2603 9.55303L61.2603 9.55304L61.2727 9.5576L61.2603 9.56216L61.4333 10.0313L61.2603 9.56216C60.2868 9.92118 59.5195 10.6885 59.1605 11.662L59.1605 11.662L59.1559 11.6744L59.1514 11.6621L59.1513 11.662C58.7923 10.6886 58.0249 9.9212 57.0515 9.5621L57.0514 9.56206L57.0392 9.55754L57.0514 9.55304C57.0514 9.55303 57.0514 9.55303 57.0514 9.55303C58.0249 9.19401 58.7923 8.42662 59.1513 7.45309L59.1513 7.45307L59.1559 7.44075L59.1605 7.45318L59.1605 7.45319C59.5195 8.42662 60.2869 9.19401 61.2603 9.55303Z" stroke="black"/>
<path d="M61.2603 9.55303L61.2603 9.55304L61.2727 9.5576L61.2603 9.56216L61.4333 10.0313L61.2603 9.56216C60.2868 9.92118 59.5195 10.6885 59.1605 11.662L59.1605 11.662L59.1559 11.6744L59.1514 11.6621L59.1513 11.662C58.7923 10.6886 58.0249 9.9212 57.0515 9.5621L57.0514 9.56206L57.0392 9.55754L57.0514 9.55304C57.0514 9.55303 57.0514 9.55303 57.0514 9.55303C58.0249 9.19401 58.7923 8.42662 59.1513 7.45309L59.1513 7.45307L59.1559 7.44075L59.1605 7.45318L59.1605 7.45319C59.5195 8.42662 60.2869 9.19401 61.2603 9.55303Z" stroke="url(#paint4_linear)"/>
<path d="M4.9663 1.89239C5.4965 3.31433 6.61822 4.43591 8.04008 4.96614L1.89244 4.96615C3.31443 4.43589 4.43604 3.31429 4.9663 1.89239Z" stroke="black" stroke-width="1.5"/>
<path d="M4.9663 1.89239C5.4965 3.31433 6.61822 4.43591 8.04008 4.96614L1.89244 4.96615C3.31443 4.43589 4.43604 3.31429 4.9663 1.89239Z" stroke="url(#paint5_linear)" stroke-width="1.5"/>
<mask id="path-8-inside-2" fill="white">
<path d="M16.5917 14.7388L15.0718 14.1783C13.8413 13.7246 12.8713 12.7547 12.4177 11.5243L11.8571 10.0043C11.836 9.94719 11.7815 9.90924 11.7206 9.90924C11.6597 9.90924 11.6052 9.94719 11.5842 10.0043L11.0236 11.5242C10.5698 12.7547 9.59982 13.7246 8.36943 14.1783L6.84948 14.7388C6.79234 14.7599 6.75439 14.8144 6.75439 14.8753C6.75439 14.9362 6.79234 14.9907 6.84948 15.0117L8.36951 15.5724C9.59991 16.0262 10.5698 16.9961 11.0236 18.2265L11.5842 19.7465C11.6052 19.8036 11.6597 19.8416 11.7206 19.8416C11.7815 19.8416 11.836 19.8036 11.8571 19.7465L12.4177 18.2265C12.8714 16.9961 13.8413 16.0261 15.0717 15.5724L16.5917 15.0117C16.6489 14.9907 16.6868 14.9362 16.6868 14.8753C16.6868 14.8144 16.6488 14.7599 16.5917 14.7388Z"/>
</mask>
<path d="M16.5917 14.7388L17.1107 13.3315L17.1107 13.3315L16.5917 14.7388ZM15.0718 14.1783L15.5908 12.771L15.5908 12.771L15.0718 14.1783ZM12.4177 11.5243L13.825 11.0053L13.825 11.0052L12.4177 11.5243ZM11.8571 10.0043L10.4497 10.5234L10.4497 10.5234L11.8571 10.0043ZM11.5842 10.0043L12.9915 10.5234L12.9915 10.5234L11.5842 10.0043ZM11.0236 11.5242L9.61624 11.0051L9.61621 11.0052L11.0236 11.5242ZM8.36943 14.1783L8.88841 15.5857L8.88845 15.5857L8.36943 14.1783ZM6.84948 14.7388L6.3305 13.3315L6.33044 13.3315L6.84948 14.7388ZM6.84948 15.0117L7.36858 13.6044L7.36853 13.6044L6.84948 15.0117ZM8.36951 15.5724L7.85041 16.9797L7.85049 16.9798L8.36951 15.5724ZM11.0236 18.2265L9.61622 18.7455L9.61622 18.7455L11.0236 18.2265ZM11.5842 19.7465L10.1768 20.2655L10.1768 20.2655L11.5842 19.7465ZM11.8571 19.7465L13.2644 20.2655L13.2644 20.2655L11.8571 19.7465ZM12.4177 18.2265L13.825 18.7455L13.825 18.7455L12.4177 18.2265ZM15.0717 15.5724L15.5907 16.9798L15.5908 16.9797L15.0717 15.5724ZM16.5917 15.0117L16.0727 13.6044L16.0726 13.6044L16.5917 15.0117ZM16.6868 14.8753H18.1868H16.6868ZM17.1107 13.3315L15.5908 12.771L14.5528 15.5857L16.0727 16.1462L17.1107 13.3315ZM15.5908 12.771C14.7721 12.469 14.1268 11.8238 13.825 11.0053L11.0103 12.0432C11.6159 13.6856 12.9106 14.9801 14.5528 15.5857L15.5908 12.771ZM13.825 11.0052L13.2644 9.48527L10.4497 10.5234L11.0103 12.0433L13.825 11.0052ZM13.2644 9.48528C13.0258 8.83823 12.4093 8.40924 11.7206 8.40924V11.4092C11.1538 11.4092 10.6462 11.0561 10.4497 10.5234L13.2644 9.48528ZM11.7206 8.40924C11.032 8.40924 10.4155 8.83823 10.1768 9.48528L12.9915 10.5234C12.795 11.0561 12.2875 11.4092 11.7206 11.4092V8.40924ZM10.1768 9.48525L9.61624 11.0051L12.4309 12.0433L12.9915 10.5234L10.1768 9.48525ZM9.61621 11.0052C9.31433 11.8238 8.66902 12.4691 7.8504 12.771L8.88845 15.5857C10.5306 14.98 11.8253 13.6855 12.4309 12.0432L9.61621 11.0052ZM7.85044 12.771L6.3305 13.3315L7.36847 16.1462L8.88841 15.5857L7.85044 12.771ZM6.33044 13.3315C5.68339 13.5701 5.25439 14.1866 5.25439 14.8753H8.25439C8.25439 15.4421 7.9013 15.9497 7.36853 16.1462L6.33044 13.3315ZM5.25439 14.8753C5.25439 15.5639 5.68339 16.1804 6.33044 16.4191L7.36853 13.6044C7.9013 13.8009 8.25439 14.3084 8.25439 14.8753H5.25439ZM6.33038 16.4191L7.85041 16.9797L8.88861 14.1651L7.36858 13.6044L6.33038 16.4191ZM7.85049 16.9798C8.66907 17.2817 9.31433 17.9269 9.61622 18.7455L12.4309 17.7074C11.8253 16.0652 10.5307 14.7707 8.88853 14.1651L7.85049 16.9798ZM9.61622 18.7455L10.1768 20.2655L12.9915 19.2275L12.4309 17.7074L9.61622 18.7455ZM10.1768 20.2655C10.4155 20.9126 11.032 21.3416 11.7206 21.3416V18.3416C12.2875 18.3416 12.795 18.6947 12.9915 19.2274L10.1768 20.2655ZM11.7206 21.3416C12.4093 21.3416 13.0258 20.9126 13.2644 20.2655L10.4497 19.2274C10.6462 18.6947 11.1538 18.3416 11.7206 18.3416V21.3416ZM13.2644 20.2655L13.825 18.7455L11.0103 17.7074L10.4497 19.2275L13.2644 20.2655ZM13.825 18.7455C14.1269 17.9269 14.7722 17.2816 15.5907 16.9798L14.5528 14.165C12.9104 14.7706 11.6159 16.0653 11.0103 17.7074L13.825 18.7455ZM15.5908 16.9797L17.1108 16.4191L16.0726 13.6044L14.5526 14.1651L15.5908 16.9797ZM17.1108 16.4191C17.7578 16.1804 18.1868 15.5639 18.1868 14.8753H15.1868C15.1868 14.3084 15.5399 13.8009 16.0727 13.6044L17.1108 16.4191ZM18.1868 14.8753C18.1868 14.1851 17.7564 13.5696 17.1107 13.3315L16.0726 16.1462C15.5412 15.9502 15.1868 15.4436 15.1868 14.8753H18.1868Z" fill="black" mask="url(#path-8-inside-2)"/>
<path d="M16.5917 14.7388L17.1107 13.3315L17.1107 13.3315L16.5917 14.7388ZM15.0718 14.1783L15.5908 12.771L15.5908 12.771L15.0718 14.1783ZM12.4177 11.5243L13.825 11.0053L13.825 11.0052L12.4177 11.5243ZM11.8571 10.0043L10.4497 10.5234L10.4497 10.5234L11.8571 10.0043ZM11.5842 10.0043L12.9915 10.5234L12.9915 10.5234L11.5842 10.0043ZM11.0236 11.5242L9.61624 11.0051L9.61621 11.0052L11.0236 11.5242ZM8.36943 14.1783L8.88841 15.5857L8.88845 15.5857L8.36943 14.1783ZM6.84948 14.7388L6.3305 13.3315L6.33044 13.3315L6.84948 14.7388ZM6.84948 15.0117L7.36858 13.6044L7.36853 13.6044L6.84948 15.0117ZM8.36951 15.5724L7.85041 16.9797L7.85049 16.9798L8.36951 15.5724ZM11.0236 18.2265L9.61622 18.7455L9.61622 18.7455L11.0236 18.2265ZM11.5842 19.7465L10.1768 20.2655L10.1768 20.2655L11.5842 19.7465ZM11.8571 19.7465L13.2644 20.2655L13.2644 20.2655L11.8571 19.7465ZM12.4177 18.2265L13.825 18.7455L13.825 18.7455L12.4177 18.2265ZM15.0717 15.5724L15.5907 16.9798L15.5908 16.9797L15.0717 15.5724ZM16.5917 15.0117L16.0727 13.6044L16.0726 13.6044L16.5917 15.0117ZM16.6868 14.8753H18.1868H16.6868ZM17.1107 13.3315L15.5908 12.771L14.5528 15.5857L16.0727 16.1462L17.1107 13.3315ZM15.5908 12.771C14.7721 12.469 14.1268 11.8238 13.825 11.0053L11.0103 12.0432C11.6159 13.6856 12.9106 14.9801 14.5528 15.5857L15.5908 12.771ZM13.825 11.0052L13.2644 9.48527L10.4497 10.5234L11.0103 12.0433L13.825 11.0052ZM13.2644 9.48528C13.0258 8.83823 12.4093 8.40924 11.7206 8.40924V11.4092C11.1538 11.4092 10.6462 11.0561 10.4497 10.5234L13.2644 9.48528ZM11.7206 8.40924C11.032 8.40924 10.4155 8.83823 10.1768 9.48528L12.9915 10.5234C12.795 11.0561 12.2875 11.4092 11.7206 11.4092V8.40924ZM10.1768 9.48525L9.61624 11.0051L12.4309 12.0433L12.9915 10.5234L10.1768 9.48525ZM9.61621 11.0052C9.31433 11.8238 8.66902 12.4691 7.8504 12.771L8.88845 15.5857C10.5306 14.98 11.8253 13.6855 12.4309 12.0432L9.61621 11.0052ZM7.85044 12.771L6.3305 13.3315L7.36847 16.1462L8.88841 15.5857L7.85044 12.771ZM6.33044 13.3315C5.68339 13.5701 5.25439 14.1866 5.25439 14.8753H8.25439C8.25439 15.4421 7.9013 15.9497 7.36853 16.1462L6.33044 13.3315ZM5.25439 14.8753C5.25439 15.5639 5.68339 16.1804 6.33044 16.4191L7.36853 13.6044C7.9013 13.8009 8.25439 14.3084 8.25439 14.8753H5.25439ZM6.33038 16.4191L7.85041 16.9797L8.88861 14.1651L7.36858 13.6044L6.33038 16.4191ZM7.85049 16.9798C8.66907 17.2817 9.31433 17.9269 9.61622 18.7455L12.4309 17.7074C11.8253 16.0652 10.5307 14.7707 8.88853 14.1651L7.85049 16.9798ZM9.61622 18.7455L10.1768 20.2655L12.9915 19.2275L12.4309 17.7074L9.61622 18.7455ZM10.1768 20.2655C10.4155 20.9126 11.032 21.3416 11.7206 21.3416V18.3416C12.2875 18.3416 12.795 18.6947 12.9915 19.2274L10.1768 20.2655ZM11.7206 21.3416C12.4093 21.3416 13.0258 20.9126 13.2644 20.2655L10.4497 19.2274C10.6462 18.6947 11.1538 18.3416 11.7206 18.3416V21.3416ZM13.2644 20.2655L13.825 18.7455L11.0103 17.7074L10.4497 19.2275L13.2644 20.2655ZM13.825 18.7455C14.1269 17.9269 14.7722 17.2816 15.5907 16.9798L14.5528 14.165C12.9104 14.7706 11.6159 16.0653 11.0103 17.7074L13.825 18.7455ZM15.5908 16.9797L17.1108 16.4191L16.0726 13.6044L14.5526 14.1651L15.5908 16.9797ZM17.1108 16.4191C17.7578 16.1804 18.1868 15.5639 18.1868 14.8753H15.1868C15.1868 14.3084 15.5399 13.8009 16.0727 13.6044L17.1108 16.4191ZM18.1868 14.8753C18.1868 14.1851 17.7564 13.5696 17.1107 13.3315L16.0726 16.1462C15.5412 15.9502 15.1868 15.4436 15.1868 14.8753H18.1868Z" fill="url(#paint6_linear)" mask="url(#path-8-inside-2)"/>
<path d="M23.2515 8.32696L23.2515 8.32696L23.2639 8.33152L23.2515 8.33609L23.4245 8.8052L23.2515 8.33609C22.278 8.6951 21.5107 9.46242 21.1517 10.436L21.1517 10.436L21.1471 10.4483L21.1426 10.436L21.1425 10.4359C20.7835 9.4625 20.0161 8.69512 19.0427 8.33602L19.0426 8.33599L19.0304 8.33147L19.0426 8.32696C19.0426 8.32696 19.0426 8.32696 19.0426 8.32696C20.0161 7.96794 20.7835 7.20054 21.1425 6.22701L21.1426 6.227L21.1471 6.21468L21.1517 6.22711L21.1517 6.22711C21.5107 7.20055 22.2781 7.96794 23.2515 8.32696Z" stroke="black"/>
<path d="M23.2515 8.32696L23.2515 8.32696L23.2639 8.33152L23.2515 8.33609L23.4245 8.8052L23.2515 8.33609C22.278 8.6951 21.5107 9.46242 21.1517 10.436L21.1517 10.436L21.1471 10.4483L21.1426 10.436L21.1425 10.4359C20.7835 9.4625 20.0161 8.69512 19.0427 8.33602L19.0426 8.33599L19.0304 8.33147L19.0426 8.32696C19.0426 8.32696 19.0426 8.32696 19.0426 8.32696C20.0161 7.96794 20.7835 7.20054 21.1425 6.22701L21.1426 6.227L21.1471 6.21468L21.1517 6.22711L21.1517 6.22711C21.5107 7.20055 22.2781 7.96794 23.2515 8.32696Z" stroke="url(#paint7_linear)"/>
<defs>
<linearGradient id="paint0_linear" x1="33.1717" y1="8.29523" x2="33.1717" y2="19.33" gradientUnits="userSpaceOnUse">
<stop stop-color="#3F60C7"/>
<stop offset="1" stop-color="#1841C1"/>
</linearGradient>
<linearGradient id="paint1_linear" x1="33.1046" y1="20.5889" x2="33.1046" y2="32.5391" gradientUnits="userSpaceOnUse">
<stop stop-color="#3F60C7"/>
<stop offset="1" stop-color="#1841C1"/>
</linearGradient>
<linearGradient id="paint2_linear" x1="42.975" y1="1.22607" x2="42.975" y2="11.1585" gradientUnits="userSpaceOnUse">
<stop stop-color="#3F60C7"/>
<stop offset="1" stop-color="#1841C1"/>
</linearGradient>
<linearGradient id="paint3_linear" x1="49.7289" y1="11.1353" x2="49.7289" y2="21.0676" gradientUnits="userSpaceOnUse">
<stop stop-color="#3F60C7"/>
<stop offset="1" stop-color="#1841C1"/>
</linearGradient>
<linearGradient id="paint4_linear" x1="59.1559" y1="6.18256" x2="59.1559" y2="12.9328" gradientUnits="userSpaceOnUse">
<stop stop-color="#3F60C7"/>
<stop offset="1" stop-color="#1841C1"/>
</linearGradient>
<linearGradient id="paint5_linear" x1="4.96626" y1="0" x2="4.96626" y2="9.93243" gradientUnits="userSpaceOnUse">
<stop stop-color="#3F60C7"/>
<stop offset="1" stop-color="#1841C1"/>
</linearGradient>
<linearGradient id="paint6_linear" x1="11.7206" y1="9.90924" x2="11.7206" y2="19.8416" gradientUnits="userSpaceOnUse">
<stop stop-color="#3F60C7"/>
<stop offset="1" stop-color="#1841C1"/>
</linearGradient>
<linearGradient id="paint7_linear" x1="21.1471" y1="4.95648" x2="21.1471" y2="11.7067" gradientUnits="userSpaceOnUse">
<stop stop-color="#3F60C7"/>
<stop offset="1" stop-color="#1841C1"/>
</linearGradient>
</defs>
</svg>
