<svg width="49" height="28" viewBox="0 0 49 28" fill="none" xmlns="http://www.w3.org/2000/svg">
<path fill-rule="evenodd" clip-rule="evenodd" d="M28.7332 18.1008C30.6279 15.042 32 11.9174 32 9.5C32 5.35786 28.6421 2 24.5 2C20.3579 2 17 5.35786 17 9.5C17 11.9174 18.3721 15.042 20.2668 18.1008C21.6587 20.3478 23.2097 22.3677 24.3466 23.7549C24.4262 23.8521 24.5738 23.8521 24.6534 23.7549C25.7903 22.3677 27.3413 20.3478 28.7332 18.1008ZM25.2116 26.1978C27.4186 23.6463 34 15.5317 34 9.5C34 4.25329 29.7467 0 24.5 0C19.2533 0 15 4.25329 15 9.5C15 15.5317 21.5814 23.6463 23.7884 26.1978C24.1693 26.6382 24.8307 26.6382 25.2116 26.1978Z" fill="#3A5CC6"/>
<path fill-rule="evenodd" clip-rule="evenodd" d="M24.5062 12.7978C26.2108 12.7978 27.5926 11.416 27.5926 9.71141C27.5926 8.00683 26.2108 6.625 24.5062 6.625C22.8016 6.625 21.4198 8.00683 21.4198 9.71141C21.4198 11.416 22.8016 12.7978 24.5062 12.7978ZM24.5062 14.7978C27.3153 14.7978 29.5926 12.5205 29.5926 9.71141C29.5926 6.90226 27.3153 4.625 24.5062 4.625C21.6971 4.625 19.4198 6.90226 19.4198 9.71141C19.4198 12.5205 21.6971 14.7978 24.5062 14.7978Z" fill="#3A5CC6"/>
<path fill-rule="evenodd" clip-rule="evenodd" d="M45.2952 21.5192C46.5115 19.5484 47.3 17.6861 47.3 16.3529C47.3 13.8197 45.1879 11.7 42.5 11.7C39.8121 11.7 37.7 13.8197 37.7 16.3529C37.7 17.6287 38.4855 19.4787 39.7108 21.469C40.6395 22.9774 41.7018 24.3805 42.51 25.382C43.3164 24.3956 44.3724 23.0144 45.2952 21.5192ZM43.2163 27.1877C44.9061 25.2108 49 20.0409 49 16.3529C49 12.8443 46.0899 10 42.5 10C38.9101 10 36 12.8443 36 16.3529C36 19.9359 40.105 25.1798 41.7906 27.1819C42.1675 27.6296 42.836 27.6326 43.2163 27.1877Z" fill="#3A5CC6"/>
<path fill-rule="evenodd" clip-rule="evenodd" d="M42.5 18.3C43.4941 18.3 44.3 17.4941 44.3 16.5C44.3 15.5059 43.4941 14.7 42.5 14.7C41.5059 14.7 40.7 15.5059 40.7 16.5C40.7 17.4941 41.5059 18.3 42.5 18.3ZM42.5 20C44.433 20 46 18.433 46 16.5C46 14.567 44.433 13 42.5 13C40.567 13 39 14.567 39 16.5C39 18.433 40.567 20 42.5 20Z" fill="#3A5CC6"/>
<path fill-rule="evenodd" clip-rule="evenodd" d="M9.29517 21.5192C10.5115 19.5484 11.3 17.6861 11.3 16.3529C11.3 13.8197 9.18785 11.7 6.5 11.7C3.81215 11.7 1.7 13.8197 1.7 16.3529C1.7 17.6287 2.48546 19.4787 3.71084 21.469C4.63954 22.9774 5.70181 24.3805 6.51005 25.382C7.31641 24.3956 8.37236 23.0144 9.29517 21.5192ZM7.21632 27.1877C8.90614 25.2108 13 20.0409 13 16.3529C13 12.8443 10.0899 10 6.5 10C2.91015 10 0 12.8443 0 16.3529C0 19.9359 4.10503 25.1798 5.79058 27.1819C6.16754 27.6296 6.83601 27.6326 7.21632 27.1877Z" fill="#3A5CC6"/>
<path fill-rule="evenodd" clip-rule="evenodd" d="M6.5 18.3C7.49411 18.3 8.3 17.4941 8.3 16.5C8.3 15.5059 7.49411 14.7 6.5 14.7C5.50589 14.7 4.7 15.5059 4.7 16.5C4.7 17.4941 5.50589 18.3 6.5 18.3ZM6.5 20C8.433 20 10 18.433 10 16.5C10 14.567 8.433 13 6.5 13C4.567 13 3 14.567 3 16.5C3 18.433 4.567 20 6.5 20Z" fill="#3A5CC6"/>
</svg>
