<svg width="48" height="33" viewBox="0 0 48 33" fill="none" xmlns="http://www.w3.org/2000/svg">
<path d="M46.8988 3.7296C45.4981 2.89323 29.583 2.30976 28.038 1.99573C27.6235 1.91153 27.204 2.11579 27.0148 2.49406L25.4842 5.55541L23.8734 2.33377C23.6979 1.98307 23.3225 1.77868 22.9328 1.82247C20.3367 2.11205 17.7411 2.88693 15.2309 3.63636C13.7635 4.07438 12.2553 4.5245 10.7686 4.86891C10.2763 2.65816 8.30067 1 5.94385 1C3.2178 1 1 3.2178 1 5.94385V27.9894C1 30.7154 3.2178 32.9332 5.94385 32.9332C5.94709 32.9332 5.95034 32.933 5.95345 32.933H5.9736C8.90665 32.933 11.8105 32.1582 14.3031 31.4315C14.5532 31.3585 14.7615 31.1847 14.878 30.9517L16.4657 27.7764L17.4353 29.7159C17.6348 30.1148 18.0883 30.3176 18.5187 30.2C23.3856 28.8703 41.8802 28.4813 45.9397 30.9052C46.2287 31.0778 46.5882 31.0818 46.8811 30.9156C47.1739 30.7493 47.3549 30.4387 47.3549 30.1019V4.53299C47.3548 4.20349 47.1817 3.89844 46.8988 3.7296ZM5.94391 2.87096C7.63824 2.87096 9.01667 4.24945 9.01667 5.94378V5.98588C9.01661 5.99218 9.01667 5.9983 9.01667 6.00459V24.1208C8.17225 23.4486 7.10455 23.0456 5.94391 23.0456C4.78328 23.0456 3.71557 23.4486 2.87115 24.1208V5.94385C2.87115 4.24945 4.24958 2.87096 5.94391 2.87096ZM2.87115 27.9892C2.87115 26.2948 4.24958 24.9165 5.94391 24.9165C7.63824 24.9165 9.01667 26.2948 9.01667 27.9892C9.01667 29.6803 7.64342 31.0565 5.95352 31.0617C5.95034 31.0617 5.94691 31.0619 5.94391 31.0617L5.94073 31.062C4.24783 31.0602 2.87115 29.6826 2.87115 27.9892ZM45.4837 28.5521C43.6425 27.7062 27.2703 27.2855 25.1413 27.2707C22.8623 27.2561 20.6051 27.7222 18.768 28.1972L17.3023 25.2659C17.1439 24.949 16.82 24.7488 16.4655 24.7488C16.1112 24.7488 15.7873 24.949 15.6287 25.2659L13.3875 29.7486C12.3635 30.0433 11.275 30.3382 10.1561 30.5738C10.6196 29.8213 10.8876 28.9361 10.8876 27.9893V6.76045C12.5298 6.39522 14.1714 5.90524 15.7661 5.42917C17.983 4.76737 20.2689 4.0848 22.4966 3.76434L24.6473 8.06566C24.8058 8.38262 25.1297 8.58289 25.4841 8.58289C25.8385 8.58289 26.1623 8.38262 26.3209 8.06566L28.358 3.99143C29.2925 4.23923 44.607 4.59735 45.4835 5.0756L45.4837 28.5521Z" fill="url(#paint0_linear)" stroke="#3F60C7" stroke-width="0.1"/>
<path d="M22.5517 14.9185C22.1864 14.5532 21.594 14.5532 21.2286 14.9185L19.886 16.261L18.5434 14.9185C18.1781 14.5532 17.5857 14.5532 17.2204 14.9185C16.855 15.2838 16.855 15.8762 17.2204 16.2416L18.563 17.5841L17.2204 18.9267C16.855 19.292 16.855 19.8844 17.2204 20.2497C17.403 20.4325 17.6425 20.5238 17.8818 20.5238C18.1211 20.5238 18.3607 20.4325 18.5433 20.2497L19.8859 18.9071L21.2285 20.2497C21.4112 20.4325 21.6506 20.5238 21.8899 20.5238C22.1294 20.5238 22.3689 20.4325 22.5514 20.2497C22.9168 19.8844 22.9168 19.292 22.5514 18.9267L21.2088 17.5841L22.5514 16.2416C22.917 15.8762 22.917 15.2838 22.5517 14.9185V14.9185Z" fill="url(#paint1_linear)" stroke="#3F60C7" stroke-width="0.1"/>
<path d="M41.9647 7.4197C41.6447 7.09968 41.1257 7.09968 40.8056 7.4197L39.6294 8.59579L38.4532 7.4197C38.1332 7.09968 37.6143 7.09968 37.2942 7.4197C36.9741 7.73972 36.9741 8.25867 37.2942 8.57875L38.4704 9.75484L37.2942 10.931C36.9741 11.2511 36.9741 11.77 37.2942 12.0901C37.4542 12.2502 37.664 12.3302 37.8736 12.3302C38.0833 12.3302 38.2931 12.2502 38.4531 12.0901L39.6293 10.9139L40.8055 12.0901C40.9656 12.2502 41.1753 12.3302 41.3849 12.3302C41.5947 12.3302 41.8045 12.2502 41.9644 12.0901C42.2845 11.7701 42.2845 11.2511 41.9644 10.931L40.7883 9.75484L41.9644 8.57875C42.2847 8.25867 42.2847 7.73972 41.9647 7.4197V7.4197Z" fill="url(#paint2_linear)" stroke="#3F60C7" stroke-width="0.1"/>
<path d="M41.9647 20.8142C41.6447 20.4942 41.1257 20.4942 40.8056 20.8142L39.6294 21.9903L38.4532 20.8142C38.1332 20.4942 37.6143 20.4942 37.2942 20.8142C36.9741 21.1342 36.9741 21.6532 37.2942 21.9733L38.4704 23.1494L37.2942 24.3256C36.9741 24.6456 36.9741 25.1646 37.2942 25.4846C37.4542 25.6447 37.664 25.7248 37.8736 25.7248C38.0833 25.7248 38.2931 25.6447 38.4531 25.4846L39.6293 24.3084L40.8055 25.4846C40.9656 25.6447 41.1753 25.7248 41.3849 25.7248C41.5947 25.7248 41.8045 25.6447 41.9644 25.4846C42.2845 25.1646 42.2845 24.6456 41.9644 24.3256L40.7883 23.1494L41.9644 21.9733C42.2847 21.6532 42.2847 21.1342 41.9647 20.8142V20.8142Z" fill="url(#paint3_linear)" stroke="#3F60C7" stroke-width="0.1"/>
<path d="M24.6926 14.3895L26.7528 13.3594" stroke="#3D5EC7" stroke-width="1.5" stroke-linecap="round"/>
<path d="M29.8435 12.3309L31.9037 11.3008" stroke="#3D5EC7" stroke-width="1.5" stroke-linecap="round"/>
<path d="M39.4336 16.6396L39.4353 13.3596" stroke="#3D5EC7" stroke-width="1.5" stroke-linecap="round"/>
<path d="M34.4788 22.1188L25.2078 20.0586" stroke="#3D5EC7" stroke-width="1.5" stroke-linecap="round"/>
<defs>
<linearGradient id="paint0_linear" x1="16.9667" y1="1" x2="16.9667" y2="32.9332" gradientUnits="userSpaceOnUse">
<stop stop-color="#3F60C7"/>
<stop offset="1" stop-color="#1841C1"/>
</linearGradient>
<linearGradient id="paint1_linear" x1="19.886" y1="14.6445" x2="19.886" y2="20.5238" gradientUnits="userSpaceOnUse">
<stop stop-color="#3F60C7"/>
<stop offset="1" stop-color="#1841C1"/>
</linearGradient>
<linearGradient id="paint2_linear" x1="39.6294" y1="7.17969" x2="39.6294" y2="12.3302" gradientUnits="userSpaceOnUse">
<stop stop-color="#3F60C7"/>
<stop offset="1" stop-color="#1841C1"/>
</linearGradient>
<linearGradient id="paint3_linear" x1="39.6294" y1="20.5742" x2="39.6294" y2="25.7248" gradientUnits="userSpaceOnUse">
<stop stop-color="#3F60C7"/>
<stop offset="1" stop-color="#1841C1"/>
</linearGradient>
</defs>
</svg>
