<svg width="48" height="33" viewBox="0 0 48 33" fill="none" xmlns="http://www.w3.org/2000/svg">
<path d="M46.8988 3.7296C45.4981 2.89323 29.583 2.30976 28.038 1.99573C27.6235 1.91153 27.204 2.11579 27.0148 2.49406L25.4842 5.55541L23.8734 2.33377C23.6979 1.98307 23.3225 1.77868 22.9328 1.82247C20.3367 2.11205 17.7411 2.88693 15.2309 3.63636C13.7635 4.07438 12.2553 4.5245 10.7686 4.86891C10.2763 2.65816 8.30067 1 5.94385 1C3.2178 1 1 3.2178 1 5.94385V27.9894C1 30.7154 3.2178 32.9332 5.94385 32.9332C5.94709 32.9332 5.95034 32.933 5.95345 32.933H5.9736C8.90665 32.933 11.8105 32.1582 14.3031 31.4315C14.5532 31.3585 14.7615 31.1847 14.878 30.9517L16.4657 27.7764L17.4353 29.7159C17.6348 30.1148 18.0883 30.3176 18.5187 30.2C23.3856 28.8703 41.8802 28.4813 45.9397 30.9052C46.2287 31.0778 46.5882 31.0818 46.8811 30.9156C47.1739 30.7493 47.3549 30.4387 47.3549 30.1019V4.53299C47.3548 4.20349 47.1817 3.89844 46.8988 3.7296ZM5.94391 2.87096C7.63824 2.87096 9.01667 4.24945 9.01667 5.94378V5.98588C9.01661 5.99218 9.01667 5.9983 9.01667 6.00459V24.1208C8.17225 23.4486 7.10455 23.0456 5.94391 23.0456C4.78328 23.0456 3.71557 23.4486 2.87115 24.1208V5.94385C2.87115 4.24945 4.24958 2.87096 5.94391 2.87096ZM2.87115 27.9892C2.87115 26.2948 4.24958 24.9165 5.94391 24.9165C7.63824 24.9165 9.01667 26.2948 9.01667 27.9892C9.01667 29.6803 7.64342 31.0565 5.95352 31.0617C5.95034 31.0617 5.94691 31.0619 5.94391 31.0617L5.94073 31.062C4.24783 31.0602 2.87115 29.6826 2.87115 27.9892ZM45.4837 28.5521C43.6425 27.7062 27.2703 27.2855 25.1413 27.2707C22.8623 27.2561 20.6051 27.7222 18.768 28.1972L17.3023 25.2659C17.1439 24.949 16.82 24.7488 16.4655 24.7488C16.1111 24.7488 15.7873 24.949 15.6287 25.2659L13.3875 29.7486C12.3635 30.0433 11.275 30.3382 10.1561 30.5738C10.6196 29.8213 10.8876 28.9361 10.8876 27.9893V6.76045C12.5298 6.39522 14.1714 5.90524 15.7661 5.42917C17.983 4.76737 20.2689 4.0848 22.4966 3.76434L24.6473 8.06566C24.8058 8.38262 25.1297 8.58289 25.4841 8.58289C25.8385 8.58289 26.1623 8.38262 26.3209 8.06566L28.358 3.99143C29.2925 4.23923 44.607 4.59735 45.4835 5.0756L45.4837 28.5521Z" fill="url(#paint0_linear)" stroke="#3F60C7" stroke-width="0.1"/>
<path d="M22.5517 14.9181C22.1864 14.5528 21.594 14.5528 21.2286 14.9181L19.886 16.2606L18.5434 14.9181C18.1781 14.5528 17.5857 14.5528 17.2203 14.9181C16.8549 15.2834 16.8549 15.8758 17.2203 16.2412L18.5629 17.5837L17.2203 18.9263C16.8549 19.2916 16.8549 19.884 17.2203 20.2494C17.403 20.4321 17.6424 20.5235 17.8817 20.5235C18.1211 20.5235 18.3606 20.4321 18.5432 20.2494L19.8858 18.9067L21.2284 20.2494C21.4112 20.4321 21.6506 20.5235 21.8899 20.5235C22.1293 20.5235 22.3688 20.4321 22.5514 20.2494C22.9167 19.8841 22.9167 19.2917 22.5514 18.9263L21.2088 17.5837L22.5514 16.2412C22.917 15.8758 22.917 15.2834 22.5517 14.9181Z" fill="url(#paint1_linear)" stroke="#3F60C7" stroke-width="0.1"/>
<path d="M41.9648 7.42092C41.6447 7.1009 41.1258 7.1009 40.8057 7.42092L39.6295 8.59702L38.4533 7.42092C38.1333 7.1009 37.6143 7.1009 37.2943 7.42092C36.9742 7.74094 36.9742 8.25989 37.2943 8.57997L38.4705 9.75606L37.2943 10.9323C36.9742 11.2523 36.9742 11.7712 37.2943 12.0913C37.4543 12.2514 37.664 12.3314 37.8737 12.3314C38.0833 12.3314 38.2932 12.2514 38.4532 12.0913L39.6293 10.9151L40.8055 12.0913C40.9656 12.2514 41.1753 12.3314 41.385 12.3314C41.5947 12.3314 41.8046 12.2514 41.9645 12.0913C42.2846 11.7713 42.2846 11.2523 41.9645 10.9323L40.7883 9.75606L41.9645 8.57997C42.2848 8.25989 42.2848 7.74094 41.9648 7.42092Z" fill="url(#paint2_linear)" stroke="#3F60C7" stroke-width="0.1"/>
<path d="M41.9648 20.8123C41.6447 20.4923 41.1258 20.4923 40.8057 20.8123L39.6295 21.9884L38.4533 20.8123C38.1333 20.4923 37.6143 20.4923 37.2943 20.8123C36.9742 21.1323 36.9742 21.6513 37.2943 21.9713L38.4705 23.1474L37.2943 24.3236C36.9742 24.6436 36.9742 25.1626 37.2943 25.4827C37.4543 25.6428 37.664 25.7228 37.8737 25.7228C38.0833 25.7228 38.2932 25.6428 38.4532 25.4827L39.6293 24.3065L40.8055 25.4827C40.9656 25.6428 41.1753 25.7228 41.385 25.7228C41.5947 25.7228 41.8046 25.6428 41.9645 25.4827C42.2846 25.1627 42.2846 24.6437 41.9645 24.3236L40.7883 23.1474L41.9645 21.9713C42.2848 21.6513 42.2848 21.1323 41.9648 20.8123Z" fill="url(#paint3_linear)" stroke="#3F60C7" stroke-width="0.1"/>
<path d="M24.6924 14.3914L26.7526 13.3613" stroke="#3D5EC7" stroke-width="1.5" stroke-linecap="round"/>
<path d="M29.8438 12.3311L31.904 11.301" stroke="#3D5EC7" stroke-width="1.5" stroke-linecap="round"/>
<path d="M39.4334 16.6415L39.4351 13.3615" stroke="#3D5EC7" stroke-width="1.5" stroke-linecap="round"/>
<path d="M34.479 22.1172L25.208 20.057" stroke="#3D5EC7" stroke-width="1.5" stroke-linecap="round"/>
<defs>
<linearGradient id="paint0_linear" x1="16.9667" y1="1" x2="16.9667" y2="32.9332" gradientUnits="userSpaceOnUse">
<stop stop-color="#3F60C7"/>
<stop offset="1" stop-color="#1841C1"/>
</linearGradient>
<linearGradient id="paint1_linear" x1="19.8859" y1="14.6442" x2="19.8859" y2="20.5235" gradientUnits="userSpaceOnUse">
<stop stop-color="#3F60C7"/>
<stop offset="1" stop-color="#1841C1"/>
</linearGradient>
<linearGradient id="paint2_linear" x1="39.6295" y1="7.18091" x2="39.6295" y2="12.3314" gradientUnits="userSpaceOnUse">
<stop stop-color="#3F60C7"/>
<stop offset="1" stop-color="#1841C1"/>
</linearGradient>
<linearGradient id="paint3_linear" x1="39.6295" y1="20.5723" x2="39.6295" y2="25.7228" gradientUnits="userSpaceOnUse">
<stop stop-color="#3F60C7"/>
<stop offset="1" stop-color="#1841C1"/>
</linearGradient>
</defs>
</svg>
