<svg width="63" height="33" viewBox="0 0 63 33" fill="none" xmlns="http://www.w3.org/2000/svg">
<circle cx="33.1714" cy="13.8142" r="4.51737" stroke="url(#paint0_linear)" stroke-width="2"/>
<path d="M23.2106 30.7003C24.0215 25.4691 28.1953 21.5898 33.1044 21.5898C38.0134 21.5898 42.1872 25.4691 42.9981 30.7003C43.0572 31.0809 42.7413 31.54 42.1391 31.54H24.0696C23.4674 31.54 23.1516 31.0809 23.2106 30.7003Z" stroke="url(#paint1_linear)" stroke-width="2"/>
<path d="M39.901 6.19271C41.323 5.66246 42.4446 4.54085 42.9749 3.11896C43.5051 4.5409 44.6268 5.66247 46.0486 6.19271C44.6268 6.7229 43.5051 7.84458 42.9749 9.26651C42.4446 7.84447 41.3229 6.72289 39.901 6.19271ZM38.1036 6.05623L38.154 6.1927L38.1036 6.05623Z" stroke="black" stroke-width="1.5"/>
<path d="M39.901 6.19271C41.323 5.66246 42.4446 4.54085 42.9749 3.11896C43.5051 4.5409 44.6268 5.66247 46.0486 6.19271C44.6268 6.7229 43.5051 7.84458 42.9749 9.26651C42.4446 7.84447 41.3229 6.72289 39.901 6.19271ZM38.1036 6.05623L38.154 6.1927L38.1036 6.05623Z" stroke="url(#paint2_linear)" stroke-width="1.5"/>
<path d="M49.7288 19.1766C49.1985 17.7547 48.0769 16.6331 46.655 16.1028C48.0768 15.5726 49.1985 14.451 49.7288 13.0291C50.2589 14.451 51.3806 15.5726 52.8026 16.1028C51.3806 16.633 50.259 17.7547 49.7288 19.1766ZM49.7201 19.2001L49.0317 19.4539L49.7201 19.2001Z" stroke="black" stroke-width="1.5"/>
<path d="M49.7288 19.1766C49.1985 17.7547 48.0769 16.6331 46.655 16.1028C48.0768 15.5726 49.1985 14.451 49.7288 13.0291C50.2589 14.451 51.3806 15.5726 52.8026 16.1028C51.3806 16.633 50.259 17.7547 49.7288 19.1766ZM49.7201 19.2001L49.0317 19.4539L49.7201 19.2001Z" stroke="url(#paint3_linear)" stroke-width="1.5"/>
<path d="M61.2601 9.55407L61.2601 9.55407C60.2867 9.19505 59.5193 8.42766 59.1602 7.45422L59.1602 7.45422L59.1557 7.44179L59.1511 7.45411L59.1511 7.45412C58.7921 8.42765 58.0247 9.19505 57.0512 9.55407L61.2601 9.55407ZM61.2601 9.55407L61.2725 9.55864L61.2601 9.5632L61.4215 10.0007L61.2601 9.5632C60.2866 9.92221 59.5193 10.6895 59.1602 11.6631L59.1602 11.6631L59.1557 11.6754L59.1511 11.6631L59.1511 11.663C58.7921 10.6896 58.0247 9.92224 57.0513 9.56313L57.0512 9.5631L57.0389 9.55858L57.0512 9.55407L61.2601 9.55407Z" stroke="black"/>
<path d="M61.2601 9.55407L61.2601 9.55407C60.2867 9.19505 59.5193 8.42766 59.1602 7.45422L59.1602 7.45422L59.1557 7.44179L59.1511 7.45411L59.1511 7.45412C58.7921 8.42765 58.0247 9.19505 57.0512 9.55407L61.2601 9.55407ZM61.2601 9.55407L61.2725 9.55864L61.2601 9.5632L61.4215 10.0007L61.2601 9.5632C60.2866 9.92221 59.5193 10.6895 59.1602 11.6631L59.1602 11.6631L59.1557 11.6754L59.1511 11.6631L59.1511 11.663C58.7921 10.6896 58.0247 9.92224 57.0513 9.56313L57.0512 9.5631L57.0389 9.55858L57.0512 9.55407L61.2601 9.55407Z" stroke="url(#paint4_linear)"/>
<path d="M1.89244 4.96615C3.31443 4.43589 4.43604 3.31429 4.9663 1.89239C5.4965 3.31433 6.61822 4.43591 8.04008 4.96614C6.6182 5.49633 5.49655 6.61801 4.9663 8.03995C4.43605 6.61791 3.31438 5.49633 1.89244 4.96615ZM0.0950874 4.82967L0.145417 4.96613L0.0950874 4.82967Z" stroke="black" stroke-width="1.5"/>
<path d="M1.89244 4.96615C3.31443 4.43589 4.43604 3.31429 4.9663 1.89239C5.4965 3.31433 6.61822 4.43591 8.04008 4.96614C6.6182 5.49633 5.49655 6.61801 4.9663 8.03995C4.43605 6.61791 3.31438 5.49633 1.89244 4.96615ZM0.0950874 4.82967L0.145417 4.96613L0.0950874 4.82967Z" stroke="url(#paint5_linear)" stroke-width="1.5"/>
<path d="M11.7204 17.95C11.1902 16.5281 10.0686 15.4065 8.64666 14.8763C10.0685 14.346 11.1902 13.2245 11.7204 11.8025C12.2506 13.2244 13.3723 14.346 14.7942 14.8763C13.3723 15.4065 12.2507 16.5282 11.7204 17.95ZM11.7117 17.9735L11.0234 18.2274L11.7117 17.9735Z" stroke="black" stroke-width="1.5"/>
<path d="M11.7204 17.95C11.1902 16.5281 10.0686 15.4065 8.64666 14.8763C10.0685 14.346 11.1902 13.2245 11.7204 11.8025C12.2506 13.2244 13.3723 14.346 14.7942 14.8763C13.3723 15.4065 12.2507 16.5282 11.7204 17.95ZM11.7117 17.9735L11.0234 18.2274L11.7117 17.9735Z" stroke="url(#paint6_linear)" stroke-width="1.5"/>
<path d="M23.2518 8.32751L23.2518 8.3275C22.2783 7.96849 21.5109 7.2011 21.1519 6.22766L21.1519 6.22766L21.1473 6.21523L21.1428 6.22755L21.1428 6.22756C20.7838 7.20109 20.0164 7.96849 19.0428 8.32751L23.2518 8.32751ZM23.2518 8.32751L23.2642 8.33207L23.2518 8.33663L23.4131 8.77415L23.2518 8.33664C22.2783 8.69565 21.5109 9.46297 21.1519 10.4365L21.1519 10.4365L21.1474 10.4489L21.1428 10.4365L21.1428 10.4365C20.7838 9.46305 20.0164 8.69567 19.043 8.33657L19.0429 8.33654L19.0306 8.33201L19.0428 8.32751L23.2518 8.32751Z" stroke="black"/>
<path d="M23.2518 8.32751L23.2518 8.3275C22.2783 7.96849 21.5109 7.2011 21.1519 6.22766L21.1519 6.22766L21.1473 6.21523L21.1428 6.22755L21.1428 6.22756C20.7838 7.20109 20.0164 7.96849 19.0428 8.32751L23.2518 8.32751ZM23.2518 8.32751L23.2642 8.33207L23.2518 8.33663L23.4131 8.77415L23.2518 8.33664C22.2783 8.69565 21.5109 9.46297 21.1519 10.4365L21.1519 10.4365L21.1474 10.4489L21.1428 10.4365L21.1428 10.4365C20.7838 9.46305 20.0164 8.69567 19.043 8.33657L19.0429 8.33654L19.0306 8.33201L19.0428 8.32751L23.2518 8.32751Z" stroke="url(#paint7_linear)"/>
<defs>
<linearGradient id="paint0_linear" x1="33.1714" y1="8.29688" x2="33.1714" y2="19.3316" gradientUnits="userSpaceOnUse">
<stop stop-color="#3F60C7"/>
<stop offset="1" stop-color="#1841C1"/>
</linearGradient>
<linearGradient id="paint1_linear" x1="33.1044" y1="20.5898" x2="33.1044" y2="32.54" gradientUnits="userSpaceOnUse">
<stop stop-color="#3F60C7"/>
<stop offset="1" stop-color="#1841C1"/>
</linearGradient>
<linearGradient id="paint2_linear" x1="42.9748" y1="1.22656" x2="42.9748" y2="11.159" gradientUnits="userSpaceOnUse">
<stop stop-color="#3F60C7"/>
<stop offset="1" stop-color="#1841C1"/>
</linearGradient>
<linearGradient id="paint3_linear" x1="49.7288" y1="11.1367" x2="49.7288" y2="21.0691" gradientUnits="userSpaceOnUse">
<stop stop-color="#3F60C7"/>
<stop offset="1" stop-color="#1841C1"/>
</linearGradient>
<linearGradient id="paint4_linear" x1="59.1557" y1="6.18359" x2="59.1557" y2="12.9338" gradientUnits="userSpaceOnUse">
<stop stop-color="#3F60C7"/>
<stop offset="1" stop-color="#1841C1"/>
</linearGradient>
<linearGradient id="paint5_linear" x1="4.96626" y1="0" x2="4.96626" y2="9.93243" gradientUnits="userSpaceOnUse">
<stop stop-color="#3F60C7"/>
<stop offset="1" stop-color="#1841C1"/>
</linearGradient>
<linearGradient id="paint6_linear" x1="11.7204" y1="9.91016" x2="11.7204" y2="19.8425" gradientUnits="userSpaceOnUse">
<stop stop-color="#3F60C7"/>
<stop offset="1" stop-color="#1841C1"/>
</linearGradient>
<linearGradient id="paint7_linear" x1="21.1474" y1="4.95703" x2="21.1474" y2="11.7073" gradientUnits="userSpaceOnUse">
<stop stop-color="#3F60C7"/>
<stop offset="1" stop-color="#1841C1"/>
</linearGradient>
</defs>
</svg>
