<svg width="49" height="30" viewBox="0 0 49 30" fill="none" xmlns="http://www.w3.org/2000/svg">
<path d="M24.5064 1C19.7205 1 15.7964 4.96589 15.7964 9.87386C15.7964 11.1573 16.0542 12.373 16.5577 13.4943L24.5064 1ZM24.5064 1C29.2925 1 33.2167 4.96586 33.2172 9.87386L24.5064 1ZM33.2172 9.87396C33.2172 11.1575 32.9596 12.3731 32.4559 13.4942C30.2655 18.3668 26.1842 23.5372 24.5066 25.5598C22.8288 23.5372 18.7475 18.3666 16.5578 13.4945L33.2172 9.87396Z" stroke="url(#paint0_linear)" stroke-width="2"/>
<circle cx="24.5063" cy="9.7111" r="4.08641" stroke="#3A5CC6" stroke-width="2"/>
<path d="M42.533 13.0229C39.5357 13.0229 37.0669 15.5091 37.0669 18.5982C37.0669 19.4072 37.2292 20.1699 37.5445 20.8722L42.533 13.0229ZM42.533 13.0229C45.5304 13.0229 47.9993 15.509 47.9997 18.5982L42.533 13.0229ZM47.9997 18.5983C47.9996 19.4074 47.8375 20.17 47.5221 20.8721C46.1836 23.8496 43.7609 27.0103 42.5332 28.5176C41.3053 27.0103 38.8827 23.8496 37.5446 20.8724L47.9997 18.5983Z" stroke="url(#paint1_linear)" stroke-width="2"/>
<circle cx="42.5415" cy="18.3376" r="2.2368" stroke="#3A5CC6" stroke-width="2"/>
<path d="M6.46611 13.0229C3.46885 13.0229 1 15.5091 1 18.5982C1 19.4072 1.16227 20.1699 1.47762 20.8722L6.46611 13.0229ZM6.46611 13.0229C9.46352 13.0229 11.9324 15.509 11.9328 18.5982L6.46611 13.0229ZM11.9328 18.5983C11.9327 19.4074 11.7706 20.17 11.4552 20.8721C10.1167 23.8496 7.69399 27.0103 6.46626 28.5176C5.23843 27.0103 2.81582 23.8496 1.47773 20.8724L11.9328 18.5983Z" stroke="url(#paint2_linear)" stroke-width="2"/>
<circle cx="6.47362" cy="18.3376" r="2.2368" stroke="#3A5CC6" stroke-width="2"/>
<defs>
<linearGradient id="paint0_linear" x1="24.5068" y1="0" x2="24.5068" y2="26.8192" gradientUnits="userSpaceOnUse">
<stop stop-color="#3F60C7"/>
<stop offset="1" stop-color="#1841C1"/>
</linearGradient>
<linearGradient id="paint1_linear" x1="42.5333" y1="12.0229" x2="42.5333" y2="29.8825" gradientUnits="userSpaceOnUse">
<stop stop-color="#3F60C7"/>
<stop offset="1" stop-color="#1841C1"/>
</linearGradient>
<linearGradient id="paint2_linear" x1="6.46638" y1="12.0229" x2="6.46638" y2="29.8825" gradientUnits="userSpaceOnUse">
<stop stop-color="#3F60C7"/>
<stop offset="1" stop-color="#1841C1"/>
</linearGradient>
</defs>
</svg>
