<svg width="47" height="40" viewBox="0 0 47 40" fill="none" xmlns="http://www.w3.org/2000/svg">
<path d="M2.3742 11.5116L3.37568 11.881C3.37571 11.881 3.37575 11.881 3.37578 11.881C5.95864 12.8334 7.9947 14.8693 8.9472 17.4523C8.94721 17.4523 8.94722 17.4523 8.94723 17.4524L9.31663 18.4539L9.68603 17.4523C9.68604 17.4523 9.68604 17.4523 9.68605 17.4523C10.6385 14.8694 12.6746 12.8333 15.2574 11.881L16.2589 11.5116L15.2572 11.1422C12.6745 10.1897 10.6384 8.15387 9.68605 5.57109L2.3742 11.5116ZM2.3742 11.5116L3.3759 11.1422C3.37591 11.1422 3.37591 11.1422 3.37592 11.1422C5.9588 10.1897 7.9947 8.15381 8.9472 5.57109C8.94721 5.57108 8.94721 5.57108 8.94721 5.57107L9.31663 4.56946L9.68602 5.57101L2.3742 11.5116Z" stroke="black" stroke-width="2"/>
<path d="M2.3742 11.5116L3.37568 11.881C3.37571 11.881 3.37575 11.881 3.37578 11.881C5.95864 12.8334 7.9947 14.8693 8.9472 17.4523C8.94721 17.4523 8.94722 17.4523 8.94723 17.4524L9.31663 18.4539L9.68603 17.4523C9.68604 17.4523 9.68604 17.4523 9.68605 17.4523C10.6385 14.8694 12.6746 12.8333 15.2574 11.881L16.2589 11.5116L15.2572 11.1422C12.6745 10.1897 10.6384 8.15387 9.68605 5.57109L2.3742 11.5116ZM2.3742 11.5116L3.3759 11.1422C3.37591 11.1422 3.37591 11.1422 3.37592 11.1422C5.9588 10.1897 7.9947 8.15381 8.9472 5.57109C8.94721 5.57108 8.94721 5.57108 8.94721 5.57107L9.31663 4.56946L9.68602 5.57101L2.3742 11.5116Z" stroke="url(#paint0_linear)" stroke-width="2"/>
<mask id="path-2-inside-1" fill="white">
<path d="M31.1254 29.8453L28.2742 28.7938C25.9658 27.9426 24.1462 26.1231 23.2951 23.8149L22.2434 20.9635C22.2039 20.8563 22.1017 20.7852 21.9874 20.7852C21.8732 20.7852 21.771 20.8563 21.7314 20.9635L20.6798 23.8147C19.8285 26.1231 18.0089 27.9426 15.7007 28.7938L12.8493 29.8453C12.7422 29.8848 12.671 29.987 12.671 30.1013C12.671 30.2156 12.7422 30.3178 12.8493 30.3573L15.7009 31.4091C18.0091 32.2603 19.8285 34.0798 20.6798 36.388L21.7314 39.2395C21.771 39.3467 21.8732 39.4179 21.9874 39.4179C22.1017 39.4179 22.2039 39.3467 22.2434 39.2395L23.2951 36.388C24.1463 34.0798 25.9658 32.2602 28.274 31.4091L31.1255 30.3573C31.2327 30.3178 31.3039 30.2156 31.3039 30.1013C31.3039 29.987 31.2325 29.8848 31.1254 29.8453Z"/>
</mask>
<path d="M31.1254 29.8453L31.8174 27.9689L31.8174 27.9688L31.1254 29.8453ZM28.2742 28.7938L28.9662 26.9173L28.9661 26.9173L28.2742 28.7938ZM23.2951 23.8149L25.1716 23.123L25.1715 23.1228L23.2951 23.8149ZM22.2434 20.9635L20.367 21.6556L20.367 21.6556L22.2434 20.9635ZM21.7314 20.9635L23.6079 21.6556L23.6079 21.6556L21.7314 20.9635ZM20.6798 23.8147L18.8034 23.1226L18.8033 23.1228L20.6798 23.8147ZM15.7007 28.7938L16.3927 30.6703L16.3927 30.6703L15.7007 28.7938ZM12.8493 29.8453L12.1574 27.9688L12.1573 27.9689L12.8493 29.8453ZM12.8493 30.3573L13.5415 28.4809L13.5414 28.4809L12.8493 30.3573ZM15.7009 31.4091L15.0087 33.2855L15.0088 33.2856L15.7009 31.4091ZM20.6798 36.388L18.8033 37.08L18.8033 37.0801L20.6798 36.388ZM21.7314 39.2395L19.855 39.9316L19.855 39.9316L21.7314 39.2395ZM22.2434 39.2395L24.1199 39.9316L24.1199 39.9316L22.2434 39.2395ZM23.2951 36.388L25.1715 37.0801L25.1715 37.08L23.2951 36.388ZM28.274 31.4091L28.9659 33.2856L28.9661 33.2855L28.274 31.4091ZM31.1255 30.3573L30.4335 28.4809L30.4334 28.4809L31.1255 30.3573ZM31.3039 30.1013L33.3039 30.1013L31.3039 30.1013ZM31.8174 27.9688L28.9662 26.9173L27.5821 30.6703L30.4333 31.7218L31.8174 27.9688ZM28.9661 26.9173C27.2068 26.2686 25.8201 24.8819 25.1716 23.123L21.4186 24.5068C22.4722 27.3643 24.7248 29.6166 27.5822 30.6703L28.9661 26.9173ZM25.1715 23.1228L24.1199 20.2715L20.367 21.6556L21.4186 24.507L25.1715 23.1228ZM24.1199 20.2715C23.7903 19.3777 22.9387 18.7852 21.9874 18.7852V22.7852C21.2647 22.7852 20.6175 22.335 20.367 21.6556L24.1199 20.2715ZM21.9874 18.7852C21.0362 18.7852 20.1846 19.3777 19.855 20.2715L23.6079 21.6556C23.3573 22.335 22.7102 22.7852 21.9874 22.7852V18.7852ZM19.855 20.2714L18.8034 23.1226L22.5562 24.5068L23.6079 21.6556L19.855 20.2714ZM18.8033 23.1228C18.1546 24.8819 16.7678 26.2686 15.0087 26.9174L16.3927 30.6703C19.25 29.6165 21.5025 27.3642 22.5563 24.5067L18.8033 23.1228ZM15.0087 26.9173L12.1574 27.9688L13.5413 31.7218L16.3927 30.6703L15.0087 26.9173ZM12.1573 27.9689C11.2635 28.2985 10.671 29.15 10.671 30.1013H14.671C14.671 30.824 14.2208 31.4712 13.5414 31.7217L12.1573 27.9689ZM10.671 30.1013C10.671 31.0526 11.2635 31.9041 12.1573 32.2337L13.5414 28.4809C14.2208 28.7314 14.671 29.3786 14.671 30.1013H10.671ZM12.1572 32.2337L15.0087 33.2855L16.393 29.5327L13.5415 28.4809L12.1572 32.2337ZM15.0088 33.2856C16.7679 33.9343 18.1546 35.3209 18.8033 37.08L22.5562 35.696C21.5025 32.8387 19.2502 30.5864 16.3929 29.5326L15.0088 33.2856ZM18.8033 37.0801L19.855 39.9316L23.6079 38.5475L22.5562 35.696L18.8033 37.0801ZM19.855 39.9316C20.1846 40.8253 21.0362 41.4179 21.9874 41.4179V37.4179C22.7102 37.4179 23.3573 37.8681 23.6079 38.5475L19.855 39.9316ZM21.9874 41.4179C22.9387 41.4179 23.7903 40.8253 24.1199 39.9316L20.367 38.5475C20.6175 37.8681 21.2647 37.4179 21.9874 37.4179V41.4179ZM24.1199 39.9316L25.1715 37.0801L21.4186 35.696L20.367 38.5475L24.1199 39.9316ZM25.1715 37.08C25.8203 35.3209 27.207 33.9342 28.9659 33.2856L27.5821 29.5326C24.7246 30.5862 22.4723 32.8388 21.4186 35.696L25.1715 37.08ZM28.9661 33.2855L31.8177 32.2337L30.4334 28.4809L27.5819 29.5327L28.9661 33.2855ZM31.8176 32.2337C32.7113 31.9041 33.3039 31.0526 33.3039 30.1013H29.3039C29.3039 29.3786 29.7541 28.7314 30.4335 28.4809L31.8176 32.2337ZM33.3039 30.1013C33.3039 29.1481 32.7093 28.2978 31.8174 27.9689L30.4333 31.7217C29.7558 31.4719 29.3039 30.826 29.3039 30.1013L33.3039 30.1013Z" fill="black" mask="url(#path-2-inside-1)"/>
<path d="M31.1254 29.8453L31.8174 27.9689L31.8174 27.9688L31.1254 29.8453ZM28.2742 28.7938L28.9662 26.9173L28.9661 26.9173L28.2742 28.7938ZM23.2951 23.8149L25.1716 23.123L25.1715 23.1228L23.2951 23.8149ZM22.2434 20.9635L20.367 21.6556L20.367 21.6556L22.2434 20.9635ZM21.7314 20.9635L23.6079 21.6556L23.6079 21.6556L21.7314 20.9635ZM20.6798 23.8147L18.8034 23.1226L18.8033 23.1228L20.6798 23.8147ZM15.7007 28.7938L16.3927 30.6703L16.3927 30.6703L15.7007 28.7938ZM12.8493 29.8453L12.1574 27.9688L12.1573 27.9689L12.8493 29.8453ZM12.8493 30.3573L13.5415 28.4809L13.5414 28.4809L12.8493 30.3573ZM15.7009 31.4091L15.0087 33.2855L15.0088 33.2856L15.7009 31.4091ZM20.6798 36.388L18.8033 37.08L18.8033 37.0801L20.6798 36.388ZM21.7314 39.2395L19.855 39.9316L19.855 39.9316L21.7314 39.2395ZM22.2434 39.2395L24.1199 39.9316L24.1199 39.9316L22.2434 39.2395ZM23.2951 36.388L25.1715 37.0801L25.1715 37.08L23.2951 36.388ZM28.274 31.4091L28.9659 33.2856L28.9661 33.2855L28.274 31.4091ZM31.1255 30.3573L30.4335 28.4809L30.4334 28.4809L31.1255 30.3573ZM31.3039 30.1013L33.3039 30.1013L31.3039 30.1013ZM31.8174 27.9688L28.9662 26.9173L27.5821 30.6703L30.4333 31.7218L31.8174 27.9688ZM28.9661 26.9173C27.2068 26.2686 25.8201 24.8819 25.1716 23.123L21.4186 24.5068C22.4722 27.3643 24.7248 29.6166 27.5822 30.6703L28.9661 26.9173ZM25.1715 23.1228L24.1199 20.2715L20.367 21.6556L21.4186 24.507L25.1715 23.1228ZM24.1199 20.2715C23.7903 19.3777 22.9387 18.7852 21.9874 18.7852V22.7852C21.2647 22.7852 20.6175 22.335 20.367 21.6556L24.1199 20.2715ZM21.9874 18.7852C21.0362 18.7852 20.1846 19.3777 19.855 20.2715L23.6079 21.6556C23.3573 22.335 22.7102 22.7852 21.9874 22.7852V18.7852ZM19.855 20.2714L18.8034 23.1226L22.5562 24.5068L23.6079 21.6556L19.855 20.2714ZM18.8033 23.1228C18.1546 24.8819 16.7678 26.2686 15.0087 26.9174L16.3927 30.6703C19.25 29.6165 21.5025 27.3642 22.5563 24.5067L18.8033 23.1228ZM15.0087 26.9173L12.1574 27.9688L13.5413 31.7218L16.3927 30.6703L15.0087 26.9173ZM12.1573 27.9689C11.2635 28.2985 10.671 29.15 10.671 30.1013H14.671C14.671 30.824 14.2208 31.4712 13.5414 31.7217L12.1573 27.9689ZM10.671 30.1013C10.671 31.0526 11.2635 31.9041 12.1573 32.2337L13.5414 28.4809C14.2208 28.7314 14.671 29.3786 14.671 30.1013H10.671ZM12.1572 32.2337L15.0087 33.2855L16.393 29.5327L13.5415 28.4809L12.1572 32.2337ZM15.0088 33.2856C16.7679 33.9343 18.1546 35.3209 18.8033 37.08L22.5562 35.696C21.5025 32.8387 19.2502 30.5864 16.3929 29.5326L15.0088 33.2856ZM18.8033 37.0801L19.855 39.9316L23.6079 38.5475L22.5562 35.696L18.8033 37.0801ZM19.855 39.9316C20.1846 40.8253 21.0362 41.4179 21.9874 41.4179V37.4179C22.7102 37.4179 23.3573 37.8681 23.6079 38.5475L19.855 39.9316ZM21.9874 41.4179C22.9387 41.4179 23.7903 40.8253 24.1199 39.9316L20.367 38.5475C20.6175 37.8681 21.2647 37.4179 21.9874 37.4179V41.4179ZM24.1199 39.9316L25.1715 37.0801L21.4186 35.696L20.367 38.5475L24.1199 39.9316ZM25.1715 37.08C25.8203 35.3209 27.207 33.9342 28.9659 33.2856L27.5821 29.5326C24.7246 30.5862 22.4723 32.8388 21.4186 35.696L25.1715 37.08ZM28.9661 33.2855L31.8177 32.2337L30.4334 28.4809L27.5819 29.5327L28.9661 33.2855ZM31.8176 32.2337C32.7113 31.9041 33.3039 31.0526 33.3039 30.1013H29.3039C29.3039 29.3786 29.7541 28.7314 30.4335 28.4809L31.8176 32.2337ZM33.3039 30.1013C33.3039 29.1481 32.7093 28.2978 31.8174 27.9689L30.4333 31.7217C29.7558 31.4719 29.3039 30.826 29.3039 30.1013L33.3039 30.1013Z" fill="url(#paint1_linear)" mask="url(#path-2-inside-1)"/>
<path d="M43.6829 17.6387L43.683 17.6387L44.1844 17.8237L43.683 18.0086L43.9425 18.7123L43.683 18.0086C41.9082 18.6631 40.5095 20.0618 39.855 21.8365L39.855 21.8366L39.67 22.3381L39.4852 21.8366L39.4851 21.8365C38.8306 20.062 37.4317 18.6631 35.6573 18.0085L35.6571 18.0084L35.1558 17.8236L35.657 17.6387C35.657 17.6387 35.657 17.6387 35.657 17.6387C37.4317 16.9842 38.8307 15.5853 39.4851 13.8106L39.4851 13.8106L39.67 13.3092L39.855 13.8108L39.855 13.8108C40.5095 15.5853 41.9084 16.9842 43.6829 17.6387Z" stroke="black" stroke-width="1.5"/>
<path d="M43.6829 17.6387L43.683 17.6387L44.1844 17.8237L43.683 18.0086L43.9425 18.7123L43.683 18.0086C41.9082 18.6631 40.5095 20.0618 39.855 21.8365L39.855 21.8366L39.67 22.3381L39.4852 21.8366L39.4851 21.8365C38.8306 20.062 37.4317 18.6631 35.6573 18.0085L35.6571 18.0084L35.1558 17.8236L35.657 17.6387C35.657 17.6387 35.657 17.6387 35.657 17.6387C37.4317 16.9842 38.8307 15.5853 39.4851 13.8106L39.4851 13.8106L39.67 13.3092L39.855 13.8108L39.855 13.8108C40.5095 15.5853 41.9084 16.9842 43.6829 17.6387Z" stroke="url(#paint2_linear)" stroke-width="1.5"/>
<path d="M29.695 4.26558L29.6951 4.26558L30.104 4.4164L29.6954 4.56714C29.6954 4.56716 29.6954 4.56718 29.6953 4.56719C28.4637 5.0212 27.493 5.99189 27.0389 7.22348C27.0388 7.22351 27.0388 7.22354 27.0388 7.22357L26.888 7.63241L26.7373 7.22373C26.7372 7.22371 26.7372 7.22369 26.7372 7.22367C26.2831 5.99204 25.3122 5.02119 24.0806 4.56703C24.0806 4.56702 24.0806 4.56701 24.0805 4.567L23.6718 4.41621L24.0807 4.26542L24.0807 4.26542C25.3122 3.81127 26.2831 2.84042 26.7372 1.60893C26.7372 1.60892 26.7372 1.6089 26.7372 1.60889L26.888 1.20031L27.0388 1.60915C27.0388 1.60919 27.0388 1.60924 27.0389 1.60928C27.4929 2.84078 28.4636 3.81145 29.695 4.26558Z" stroke="black"/>
<path d="M29.695 4.26558L29.6951 4.26558L30.104 4.4164L29.6954 4.56714C29.6954 4.56716 29.6954 4.56718 29.6953 4.56719C28.4637 5.0212 27.493 5.99189 27.0389 7.22348C27.0388 7.22351 27.0388 7.22354 27.0388 7.22357L26.888 7.63241L26.7373 7.22373C26.7372 7.22371 26.7372 7.22369 26.7372 7.22367C26.2831 5.99204 25.3122 5.02119 24.0806 4.56703C24.0806 4.56702 24.0806 4.56701 24.0805 4.567L23.6718 4.41621L24.0807 4.26542L24.0807 4.26542C25.3122 3.81127 26.2831 2.84042 26.7372 1.60893C26.7372 1.60892 26.7372 1.6089 26.7372 1.60889L26.888 1.20031L27.0388 1.60915C27.0388 1.60919 27.0388 1.60924 27.0389 1.60928C27.4929 2.84078 28.4636 3.81145 29.695 4.26558Z" stroke="url(#paint3_linear)"/>
<defs>
<linearGradient id="paint0_linear" x1="9.31655" y1="2.19531" x2="9.31655" y2="20.8282" gradientUnits="userSpaceOnUse">
<stop stop-color="#3F60C7"/>
<stop offset="1" stop-color="#1841C1"/>
</linearGradient>
<linearGradient id="paint1_linear" x1="21.9874" y1="20.7852" x2="21.9874" y2="39.4179" gradientUnits="userSpaceOnUse">
<stop stop-color="#3F60C7"/>
<stop offset="1" stop-color="#1841C1"/>
</linearGradient>
<linearGradient id="paint2_linear" x1="39.6701" y1="11.4922" x2="39.6701" y2="24.1555" gradientUnits="userSpaceOnUse">
<stop stop-color="#3F60C7"/>
<stop offset="1" stop-color="#1841C1"/>
</linearGradient>
<linearGradient id="paint3_linear" x1="26.888" y1="0" x2="26.888" y2="8.83275" gradientUnits="userSpaceOnUse">
<stop stop-color="#3F60C7"/>
<stop offset="1" stop-color="#1841C1"/>
</linearGradient>
</defs>
</svg>
