<svg width="47" height="40" viewBox="0 0 47 40" fill="none" xmlns="http://www.w3.org/2000/svg">
<path d="M3.37568 11.8795L2.3742 11.5102L3.3759 11.1407C3.37591 11.1407 3.37591 11.1407 3.37592 11.1407C5.95881 10.1882 7.99471 8.15233 8.94721 5.5696L9.31663 4.56799L9.68602 5.56955C10.6384 8.15236 12.6745 10.1883 15.2572 11.1407L16.2589 11.5102L15.2574 11.8795C12.6746 12.8319 10.6385 14.868 9.68605 17.4508C9.68604 17.4508 9.68604 17.4509 9.68603 17.4509L9.31663 18.4525L8.94723 17.4509C7.99474 14.8678 5.95867 12.8319 3.37578 11.8796C3.37575 11.8796 3.37571 11.8795 3.37568 11.8795Z" stroke="black" stroke-width="2"/>
<path d="M3.37568 11.8795L2.3742 11.5102L3.3759 11.1407C3.37591 11.1407 3.37591 11.1407 3.37592 11.1407C5.95881 10.1882 7.99471 8.15233 8.94721 5.5696L9.31663 4.56799L9.68602 5.56955C10.6384 8.15236 12.6745 10.1883 15.2572 11.1407L16.2589 11.5102L15.2574 11.8795C12.6746 12.8319 10.6385 14.868 9.68605 17.4508C9.68604 17.4508 9.68604 17.4509 9.68603 17.4509L9.31663 18.4525L8.94723 17.4509C7.99474 14.8678 5.95867 12.8319 3.37578 11.8796C3.37575 11.8796 3.37571 11.8795 3.37568 11.8795Z" stroke="url(#paint0_linear)" stroke-width="2"/>
<mask id="path-2-inside-1" fill="white">
<path d="M31.1253 29.8443L28.2741 28.7928C25.9657 27.9416 24.1461 26.1221 23.295 23.8139L22.2434 20.9626C22.2038 20.8554 22.1016 20.7842 21.9874 20.7842C21.8731 20.7842 21.7709 20.8554 21.7314 20.9626L20.6797 23.8138C19.8285 26.1221 18.0088 27.9416 15.7006 28.7928L12.8493 29.8443C12.7421 29.8839 12.6709 29.9861 12.6709 30.1003C12.6709 30.2146 12.7421 30.3168 12.8493 30.3563L15.7008 31.4081C18.009 32.2594 19.8285 34.0789 20.6797 36.387L21.7314 39.2386C21.7709 39.3458 21.8731 39.4169 21.9874 39.4169C22.1016 39.4169 22.2038 39.3458 22.2434 39.2386L23.295 36.387C24.1463 34.0789 25.9657 32.2592 28.2739 31.4081L31.1255 30.3563C31.2327 30.3168 31.3038 30.2146 31.3038 30.1003C31.3038 29.9861 31.2325 29.8839 31.1253 29.8443Z"/>
</mask>
<path d="M31.1253 29.8443L31.8174 27.9679L31.8173 27.9679L31.1253 29.8443ZM28.2741 28.7928L28.9661 26.9164L28.9661 26.9164L28.2741 28.7928ZM23.295 23.8139L25.1715 23.122L25.1715 23.1218L23.295 23.8139ZM22.2434 20.9626L20.3669 21.6546L20.3669 21.6546L22.2434 20.9626ZM21.7314 20.9626L23.6078 21.6547L23.6078 21.6546L21.7314 20.9626ZM20.6797 23.8138L18.8033 23.1217L18.8033 23.1218L20.6797 23.8138ZM15.7006 28.7928L16.3926 30.6693L16.3927 30.6693L15.7006 28.7928ZM12.8493 29.8443L12.1573 27.9678L12.1572 27.9679L12.8493 29.8443ZM12.8493 30.3563L13.5414 28.4799L13.5413 28.4799L12.8493 30.3563ZM15.7008 31.4081L15.0087 33.2845L15.0088 33.2846L15.7008 31.4081ZM20.6797 36.387L18.8033 37.0791L18.8033 37.0791L20.6797 36.387ZM21.7314 39.2386L19.8549 39.9306L19.8549 39.9306L21.7314 39.2386ZM22.2434 39.2386L24.1198 39.9306L24.1198 39.9306L22.2434 39.2386ZM23.295 36.387L25.1715 37.0791L25.1715 37.0791L23.295 36.387ZM28.2739 31.4081L28.9658 33.2846L28.9661 33.2845L28.2739 31.4081ZM31.1255 30.3563L30.4334 28.4799L30.4333 28.4799L31.1255 30.3563ZM31.3038 30.1003H33.3038H31.3038ZM31.8173 27.9679L28.9661 26.9164L27.5821 30.6693L30.4333 31.7208L31.8173 27.9679ZM28.9661 26.9164C27.2068 26.2676 25.8201 24.8809 25.1715 23.122L21.4185 24.5058C22.4721 27.3633 24.7247 29.6156 27.5821 30.6693L28.9661 26.9164ZM25.1715 23.1218L24.1198 20.2705L20.3669 21.6546L21.4186 24.506L25.1715 23.1218ZM24.1198 20.2705C23.7902 19.3768 22.9386 18.7842 21.9874 18.7842V22.7842C21.2646 22.7842 20.6175 22.334 20.3669 21.6546L24.1198 20.2705ZM21.9874 18.7842C21.0361 18.7842 20.1845 19.3768 19.8549 20.2705L23.6078 21.6546C23.3573 22.334 22.7101 22.7842 21.9874 22.7842V18.7842ZM19.8549 20.2705L18.8033 23.1217L22.5562 24.5059L23.6078 21.6547L19.8549 20.2705ZM18.8033 23.1218C18.1545 24.8809 16.7678 26.2676 15.0086 26.9164L16.3927 30.6693C19.2499 29.6156 21.5024 27.3633 22.5562 24.5057L18.8033 23.1218ZM15.0087 26.9164L12.1573 27.9678L13.5413 31.7208L16.3926 30.6693L15.0087 26.9164ZM12.1572 27.9679C11.2635 28.2975 10.6709 29.1491 10.6709 30.1003H14.6709C14.6709 30.8231 14.2207 31.4702 13.5413 31.7208L12.1572 27.9679ZM10.6709 30.1003C10.6709 31.0516 11.2635 31.9031 12.1572 32.2328L13.5413 28.4799C14.2207 28.7304 14.6709 29.3776 14.6709 30.1003H10.6709ZM12.1571 32.2327L15.0087 33.2845L16.3929 29.5317L13.5414 28.4799L12.1571 32.2327ZM15.0088 33.2846C16.7679 33.9333 18.1545 35.32 18.8033 37.0791L22.5562 35.695C21.5024 32.8377 19.2501 30.5854 16.3928 29.5317L15.0088 33.2846ZM18.8033 37.0791L19.8549 39.9306L23.6078 38.5465L22.5562 35.695L18.8033 37.0791ZM19.8549 39.9306C20.1845 40.8244 21.0361 41.4169 21.9874 41.4169V37.4169C22.7101 37.4169 23.3573 37.8671 23.6078 38.5465L19.8549 39.9306ZM21.9874 41.4169C22.9386 41.4169 23.7902 40.8244 24.1198 39.9306L20.3669 38.5465C20.6175 37.8671 21.2646 37.4169 21.9874 37.4169V41.4169ZM24.1198 39.9306L25.1715 37.0791L21.4186 35.695L20.3669 38.5465L24.1198 39.9306ZM25.1715 37.0791C25.8202 35.3199 27.2069 33.9332 28.9658 33.2846L27.582 29.5316C24.7246 30.5852 22.4723 32.8378 21.4186 35.695L25.1715 37.0791ZM28.9661 33.2845L31.8176 32.2327L30.4333 28.4799L27.5818 29.5317L28.9661 33.2845ZM31.8175 32.2328C32.7113 31.9031 33.3038 31.0516 33.3038 30.1003H29.3038C29.3038 29.3776 29.754 28.7304 30.4334 28.4799L31.8175 32.2328ZM33.3038 30.1003C33.3038 29.1471 32.7092 28.2968 31.8174 27.9679L30.4332 31.7208C29.7557 31.4709 29.3038 30.825 29.3038 30.1003H33.3038Z" fill="black" mask="url(#path-2-inside-1)"/>
<path d="M31.1253 29.8443L31.8174 27.9679L31.8173 27.9679L31.1253 29.8443ZM28.2741 28.7928L28.9661 26.9164L28.9661 26.9164L28.2741 28.7928ZM23.295 23.8139L25.1715 23.122L25.1715 23.1218L23.295 23.8139ZM22.2434 20.9626L20.3669 21.6546L20.3669 21.6546L22.2434 20.9626ZM21.7314 20.9626L23.6078 21.6547L23.6078 21.6546L21.7314 20.9626ZM20.6797 23.8138L18.8033 23.1217L18.8033 23.1218L20.6797 23.8138ZM15.7006 28.7928L16.3926 30.6693L16.3927 30.6693L15.7006 28.7928ZM12.8493 29.8443L12.1573 27.9678L12.1572 27.9679L12.8493 29.8443ZM12.8493 30.3563L13.5414 28.4799L13.5413 28.4799L12.8493 30.3563ZM15.7008 31.4081L15.0087 33.2845L15.0088 33.2846L15.7008 31.4081ZM20.6797 36.387L18.8033 37.0791L18.8033 37.0791L20.6797 36.387ZM21.7314 39.2386L19.8549 39.9306L19.8549 39.9306L21.7314 39.2386ZM22.2434 39.2386L24.1198 39.9306L24.1198 39.9306L22.2434 39.2386ZM23.295 36.387L25.1715 37.0791L25.1715 37.0791L23.295 36.387ZM28.2739 31.4081L28.9658 33.2846L28.9661 33.2845L28.2739 31.4081ZM31.1255 30.3563L30.4334 28.4799L30.4333 28.4799L31.1255 30.3563ZM31.3038 30.1003H33.3038H31.3038ZM31.8173 27.9679L28.9661 26.9164L27.5821 30.6693L30.4333 31.7208L31.8173 27.9679ZM28.9661 26.9164C27.2068 26.2676 25.8201 24.8809 25.1715 23.122L21.4185 24.5058C22.4721 27.3633 24.7247 29.6156 27.5821 30.6693L28.9661 26.9164ZM25.1715 23.1218L24.1198 20.2705L20.3669 21.6546L21.4186 24.506L25.1715 23.1218ZM24.1198 20.2705C23.7902 19.3768 22.9386 18.7842 21.9874 18.7842V22.7842C21.2646 22.7842 20.6175 22.334 20.3669 21.6546L24.1198 20.2705ZM21.9874 18.7842C21.0361 18.7842 20.1845 19.3768 19.8549 20.2705L23.6078 21.6546C23.3573 22.334 22.7101 22.7842 21.9874 22.7842V18.7842ZM19.8549 20.2705L18.8033 23.1217L22.5562 24.5059L23.6078 21.6547L19.8549 20.2705ZM18.8033 23.1218C18.1545 24.8809 16.7678 26.2676 15.0086 26.9164L16.3927 30.6693C19.2499 29.6156 21.5024 27.3633 22.5562 24.5057L18.8033 23.1218ZM15.0087 26.9164L12.1573 27.9678L13.5413 31.7208L16.3926 30.6693L15.0087 26.9164ZM12.1572 27.9679C11.2635 28.2975 10.6709 29.1491 10.6709 30.1003H14.6709C14.6709 30.8231 14.2207 31.4702 13.5413 31.7208L12.1572 27.9679ZM10.6709 30.1003C10.6709 31.0516 11.2635 31.9031 12.1572 32.2328L13.5413 28.4799C14.2207 28.7304 14.6709 29.3776 14.6709 30.1003H10.6709ZM12.1571 32.2327L15.0087 33.2845L16.3929 29.5317L13.5414 28.4799L12.1571 32.2327ZM15.0088 33.2846C16.7679 33.9333 18.1545 35.32 18.8033 37.0791L22.5562 35.695C21.5024 32.8377 19.2501 30.5854 16.3928 29.5317L15.0088 33.2846ZM18.8033 37.0791L19.8549 39.9306L23.6078 38.5465L22.5562 35.695L18.8033 37.0791ZM19.8549 39.9306C20.1845 40.8244 21.0361 41.4169 21.9874 41.4169V37.4169C22.7101 37.4169 23.3573 37.8671 23.6078 38.5465L19.8549 39.9306ZM21.9874 41.4169C22.9386 41.4169 23.7902 40.8244 24.1198 39.9306L20.3669 38.5465C20.6175 37.8671 21.2646 37.4169 21.9874 37.4169V41.4169ZM24.1198 39.9306L25.1715 37.0791L21.4186 35.695L20.3669 38.5465L24.1198 39.9306ZM25.1715 37.0791C25.8202 35.3199 27.2069 33.9332 28.9658 33.2846L27.582 29.5316C24.7246 30.5852 22.4723 32.8378 21.4186 35.695L25.1715 37.0791ZM28.9661 33.2845L31.8176 32.2327L30.4333 28.4799L27.5818 29.5317L28.9661 33.2845ZM31.8175 32.2328C32.7113 31.9031 33.3038 31.0516 33.3038 30.1003H29.3038C29.3038 29.3776 29.754 28.7304 30.4334 28.4799L31.8175 32.2328ZM33.3038 30.1003C33.3038 29.1471 32.7092 28.2968 31.8174 27.9679L30.4332 31.7208C29.7557 31.4709 29.3038 30.825 29.3038 30.1003H33.3038Z" fill="url(#paint1_linear)" mask="url(#path-2-inside-1)"/>
<path d="M43.6829 17.6387L43.6829 17.6387L44.1844 17.8237L43.6829 18.0086L43.9424 18.7123L43.6829 18.0086C41.9082 18.6631 40.5094 20.0618 39.855 21.8365L39.855 21.8366L39.67 22.3381L39.4851 21.8366L39.4851 21.8365C38.8306 20.062 37.4317 18.6631 35.6572 18.0085L35.6571 18.0084L35.1558 17.8236L35.657 17.6387C35.657 17.6387 35.657 17.6387 35.657 17.6387C37.4317 16.9842 38.8306 15.5853 39.4851 13.8106L39.4851 13.8106L39.67 13.3092L39.855 13.8108L39.855 13.8108C40.5094 15.5853 41.9084 16.9842 43.6829 17.6387Z" stroke="black" stroke-width="1.5"/>
<path d="M43.6829 17.6387L43.6829 17.6387L44.1844 17.8237L43.6829 18.0086L43.9424 18.7123L43.6829 18.0086C41.9082 18.6631 40.5094 20.0618 39.855 21.8365L39.855 21.8366L39.67 22.3381L39.4851 21.8366L39.4851 21.8365C38.8306 20.062 37.4317 18.6631 35.6572 18.0085L35.6571 18.0084L35.1558 17.8236L35.657 17.6387C35.657 17.6387 35.657 17.6387 35.657 17.6387C37.4317 16.9842 38.8306 15.5853 39.4851 13.8106L39.4851 13.8106L39.67 13.3092L39.855 13.8108L39.855 13.8108C40.5094 15.5853 41.9084 16.9842 43.6829 17.6387Z" stroke="url(#paint2_linear)" stroke-width="1.5"/>
<path d="M29.6949 4.26558L29.6949 4.26558L30.1039 4.4164L29.6953 4.56714C28.4636 5.02113 27.4928 5.99188 27.0387 7.22357L26.8878 7.63241L26.7371 7.22373C26.7371 7.22371 26.7371 7.22369 26.7371 7.22367C26.2829 5.99201 25.312 5.02115 24.0804 4.567L23.6716 4.41621L24.0806 4.26542L24.0806 4.26542C25.3121 3.81127 26.2829 2.84039 26.7371 1.60889L26.8878 1.20031L27.0387 1.60915C27.4926 2.84071 28.4634 3.81143 29.6949 4.26558Z" stroke="black"/>
<path d="M29.6949 4.26558L29.6949 4.26558L30.1039 4.4164L29.6953 4.56714C28.4636 5.02113 27.4928 5.99188 27.0387 7.22357L26.8878 7.63241L26.7371 7.22373C26.7371 7.22371 26.7371 7.22369 26.7371 7.22367C26.2829 5.99201 25.312 5.02115 24.0804 4.567L23.6716 4.41621L24.0806 4.26542L24.0806 4.26542C25.3121 3.81127 26.2829 2.84039 26.7371 1.60889L26.8878 1.20031L27.0387 1.60915C27.4926 2.84071 28.4634 3.81143 29.6949 4.26558Z" stroke="url(#paint3_linear)"/>
<defs>
<linearGradient id="paint0_linear" x1="9.31655" y1="2.19385" x2="9.31655" y2="20.8268" gradientUnits="userSpaceOnUse">
<stop stop-color="#3F60C7"/>
<stop offset="1" stop-color="#1841C1"/>
</linearGradient>
<linearGradient id="paint1_linear" x1="21.9874" y1="20.7842" x2="21.9874" y2="39.4169" gradientUnits="userSpaceOnUse">
<stop stop-color="#3F60C7"/>
<stop offset="1" stop-color="#1841C1"/>
</linearGradient>
<linearGradient id="paint2_linear" x1="39.67" y1="11.4922" x2="39.67" y2="24.1555" gradientUnits="userSpaceOnUse">
<stop stop-color="#3F60C7"/>
<stop offset="1" stop-color="#1841C1"/>
</linearGradient>
<linearGradient id="paint3_linear" x1="26.8878" y1="0" x2="26.8878" y2="8.83275" gradientUnits="userSpaceOnUse">
<stop stop-color="#3F60C7"/>
<stop offset="1" stop-color="#1841C1"/>
</linearGradient>
</defs>
</svg>
