<svg width="80" height="79" viewBox="0 0 80 79" fill="none" xmlns="http://www.w3.org/2000/svg">
<g clip-path="url(#clip0)">
<path d="M7.17606 56.6808C5.22005 56.0993 4.10593 54.0425 4.68742 52.0865C5.2689 50.1305 7.32569 49.0164 9.2817 49.5979C11.2377 50.1794 12.3518 52.2361 11.7703 54.1921C11.1889 56.1481 9.13207 57.2623 7.17606 56.6808ZM8.68009 51.6216C7.84166 51.3723 6.96036 51.8497 6.71111 52.6881C6.46186 53.5265 6.93924 54.4078 7.77767 54.6571C8.6161 54.9063 9.4974 54.429 9.74665 53.5905C9.9959 52.7521 9.51852 51.8708 8.68009 51.6216Z" fill="#8A4325"/>
<path d="M60.9934 68.2762C59.0374 67.6947 57.9233 65.638 58.5048 63.682C59.0863 61.726 61.1431 60.6118 63.0991 61.1933C65.0551 61.7748 66.1692 63.8316 65.5877 65.7876C65.0062 67.7436 62.9494 68.8577 60.9934 68.2762ZM62.4975 63.217C61.659 62.9678 60.7777 63.4451 60.5285 64.2836C60.2792 65.122 60.7566 66.0033 61.5951 66.2525C62.4335 66.5018 63.3148 66.0244 63.564 65.186C63.8133 64.3476 63.3359 63.4663 62.4975 63.217Z" fill="#8A4325"/>
<path d="M10.1675 57.5701L7.68138 56.831L8.28299 54.8073L10.7691 55.5464C16.3954 57.2195 22.2419 58.0343 28.1114 57.9633L42.1277 57.7955C48.212 57.7217 54.2722 58.5666 60.1043 60.3015L62.5944 61.0418L61.9928 63.0655L59.5066 62.3264C53.8804 60.6532 48.0339 59.8384 42.1644 59.9095L28.1431 60.0758C22.0593 60.1498 15.9992 59.3048 10.1675 57.5701Z" fill="#8A4325"/>
<path d="M4.65946 61.4392C2.70346 60.8577 1.58933 58.8009 2.17082 56.8449C2.7523 54.8889 4.80909 53.7748 6.76509 54.3563C8.7211 54.9378 9.83523 56.9946 9.25374 58.9506C8.67225 60.9066 6.61547 62.0207 4.65946 61.4392ZM6.16348 56.38C5.32506 56.1307 4.44376 56.6081 4.19451 57.4465C3.94526 58.285 4.42264 59.1663 5.26107 59.4155C6.0995 59.6648 6.9808 59.1874 7.23005 58.3489C7.4793 57.5105 7.00191 56.6292 6.16348 56.38Z" fill="#8A4325"/>
<path d="M57.8772 75.0581C55.9212 74.4766 54.8071 72.4198 55.3886 70.4638C55.9701 68.5078 58.0269 67.3937 59.9829 67.9752C61.9389 68.5567 63.053 70.6135 62.4715 72.5695C61.89 74.5255 59.8332 75.6396 57.8772 75.0581ZM59.3813 69.9989C58.5428 69.7496 57.6615 70.227 57.4123 71.0654C57.163 71.9039 57.6404 72.7852 58.4788 73.0344C59.3173 73.2837 60.1986 72.8063 60.4478 71.9679C60.6971 71.1294 60.2197 70.2481 59.3813 69.9989Z" fill="#8A4325"/>
<path d="M8.45136 62.5665L5.16385 61.5891L5.76546 59.5655L9.05297 60.5428C14.8589 62.2682 20.844 63.3221 26.89 63.6848L40.9098 64.5236C47.1177 64.8952 53.2621 65.9776 59.2233 67.7487L59.4753 67.8236L58.8737 69.8473L58.6217 69.7724C52.8158 68.0469 46.8306 66.9931 40.7847 66.6303L26.7648 65.7916C20.557 65.42 14.4126 64.3376 8.45136 62.5665Z" fill="#8A4325"/>
<path d="M42.4199 30.6656L35.6691 34.8899C28.5746 39.3277 19.2569 37.524 14.3304 30.7601L14.9793 30.0588C19.1278 25.5243 26.8264 24.4178 32.5833 26.1018L42.4199 30.6656Z" fill="#FFBC49"/>
<path d="M41.0293 30.9905L44.57 38.1233C48.2902 45.6185 45.5808 54.7143 38.3659 58.9528L37.7298 58.2437C33.0387 53.0162 32.3227 45.3332 35.9667 39.3287L41.0293 30.9905Z" fill="#FFBC49"/>
<path d="M42.4099 30.7022L50.3559 31.2308C58.7037 31.7874 65.2011 38.7026 65.2358 47.0693L64.2978 47.2615C57.4217 48.6819 50.4261 45.4359 47.0711 39.2682L42.4099 30.7022Z" fill="#FFBC49"/>
<path d="M46.6697 22.1681C50.808 15.5297 59.1523 12.875 66.365 15.9027L66.1773 16.838C64.8019 23.7255 59.0798 28.901 52.0889 29.5807L42.3795 30.5234L46.6697 22.1681Z" fill="#FFBC49"/>
<path d="M31.5385 20.9743C28.9758 15.7682 29.4448 9.5801 32.7631 4.81933L33.6415 5.19822C38.5202 7.30946 41.7054 12.6846 42.7232 17.6917L31.5385 20.9743Z" fill="#FFBC49"/>
<path d="M47.0878 26.1474L44.733 28.3979L43.0155 31.1669L39.758 31.0927L36.5866 31.8357L34.3361 29.4809L31.567 27.7635L31.6412 24.5059L30.8982 21.3345L33.2531 19.084L34.9705 16.315L38.2281 16.3892L41.3995 15.6462L43.6499 18.001L46.419 19.7184L46.3448 22.976L47.0878 26.1474Z" fill="#FFDB70"/>
<path d="M60.5223 44.9817L58.7425 43.9923C54.2064 41.4683 49.945 38.4797 46.0263 35.0745L41.7389 31.4754L43.1003 29.8587L47.4023 33.4703C51.2138 36.7839 55.3593 39.6919 59.7719 42.1485L61.5508 43.1376L60.5223 44.9817Z" fill="#FFDB70"/>
<path d="M37.2622 53.9453C36.6252 48.5345 37.1009 43.0508 38.6598 37.8304L40.8809 30.3591L42.9046 30.9608L40.6835 38.432C39.2066 43.3783 38.7562 48.5744 39.3589 53.7007L37.2622 53.9453Z" fill="#FFDB70"/>
<path d="M19.2366 31.3906L18.4415 29.4346C22.7179 27.7043 27.4543 27.4744 31.8781 28.7825L41.6571 31.3063L41.1286 33.3517L31.3098 30.8172C27.3365 29.636 23.08 29.8381 19.2366 31.3906Z" fill="#FFDB70"/>
<path d="M43.5516 30.7946L42.1322 29.231L49.057 22.9473C52.7747 19.8496 57.2364 17.776 62.001 16.9302L62.3667 19.0102C57.9787 19.7867 53.8691 21.6924 50.4412 24.5407L43.5516 30.7946Z" fill="#FFDB70"/>
<path d="M36.2588 17.7507L35.7093 17.0071C33.8886 14.5504 32.9674 11.5428 33.0984 8.48816L35.2076 8.58174C35.0978 11.1523 35.8732 13.6827 37.4042 15.7499L37.9544 16.4931L36.2588 17.7507Z" fill="#FFDB70"/>
<path d="M43.3849 30.2384L42.2713 27.7258C41.3918 25.7264 41.4978 23.4306 42.5582 21.5207L40.7157 20.4906C39.8515 22.0464 39.4629 23.8221 39.5984 25.5965C38.0538 24.2334 36.1897 23.283 34.1791 22.8326L33.7208 24.8935C36.4327 25.5007 38.7763 27.195 40.2026 29.5801L41.3441 31.4977L43.1577 30.4166L43.3849 30.2384Z" fill="#FFBC49"/>
</g>
<defs>
<clipPath id="clip0">
<rect width="63.3367" height="63.3367" fill="white" transform="translate(19.0166 0.181152) rotate(16.5564)"/>
</clipPath>
</defs>
</svg>
