<svg width="73" height="81" viewBox="0 0 73 81" fill="none" xmlns="http://www.w3.org/2000/svg">
<path d="M32.9749 0.000979445L3.24262 0.000976846C2.73462 0.000976802 2.28712 0.33175 2.14225 0.814109C0.250988 7.1089 -0.451231 14.5441 0.289831 21.8841L35.9282 21.8841C36.6719 14.5121 35.9594 7.0843 34.0756 0.814112C33.9304 0.331753 33.4831 0.00097949 32.9749 0.000979445Z" fill="#D9F2FC"/>
<path d="M32.9697 1.5544e-06L19.6061 3.86112e-07C15.7856 6.871 14.5127 14.5585 15.5207 21.8831L35.923 21.8831C36.6667 14.5111 35.9542 7.08332 34.0704 0.813134C33.9252 0.330775 33.4779 1.59882e-06 32.9697 1.5544e-06Z" fill="#EBF8FC"/>
<path d="M4.31887 21.141L4.32221 21.141C3.67524 13.7696 4.48014 6.67197 6.24022 0.814109C6.38493 0.331751 6.83228 0.00097716 7.34043 0.000977204L3.24015 0.000976846C2.73215 0.000976801 2.28465 0.33175 2.13978 0.814109C0.342287 6.7969 -0.413104 13.8939 0.221773 21.141C0.243424 21.3886 0.262368 21.6379 0.287362 21.8841C0.800773 21.8841 3.87439 21.8841 4.38764 21.8841C4.38764 21.8841 4.32221 21.1795 4.31887 21.141Z" fill="#94D6EA"/>
<path d="M46.5344 25.5959C43.434 22.7942 39.296 24.0045 39.1522 24.4968C37.5381 29.9993 43.0234 34.8407 48.3164 32.7788C48.759 32.6066 49.6972 28.4551 46.5344 25.5959Z" fill="#9AD14B"/>
<path d="M44.1112 24.4983C44.1523 24.3578 44.2419 24.3122 44.3611 24.2666C42.7636 23.6571 40.9693 23.654 39.3466 24.2866C39.252 24.3232 39.1799 24.4016 39.1517 24.4983C37.5481 29.9644 42.9627 34.8124 48.2608 32.8005C44.9771 31.5487 43.0834 28.0021 44.1112 24.4983Z" fill="#81B22B"/>
<path d="M60.1792 26.4482C55.5896 27.455 52.0465 30.8948 50.9331 35.4251C50.9092 35.5229 50.9321 35.6262 50.9958 35.7049C52.2334 37.2386 53.8513 38.4664 55.6754 39.2553C55.8292 39.3217 56.0089 39.2625 56.0917 39.1179C57.9374 35.8983 62.6934 36.004 64.3583 39.3618C64.4327 39.5121 64.6092 39.5807 64.7651 39.5237C68.6055 38.1347 71.4776 34.9486 72.4474 31.0005C72.4708 30.9049 72.4493 30.8036 72.3885 30.7255C69.4959 26.9927 64.2357 25.5636 60.1792 26.4482Z" fill="#9AD14B"/>
<path d="M54.2229 38.191C56.1444 30.3712 65.0437 26.4628 72.3128 30.6342C69.3842 26.9884 64.2593 25.5617 60.1792 26.4515C55.5896 27.4583 52.0465 30.8981 50.9331 35.4284C50.9092 35.5262 50.9321 35.6296 50.9958 35.7083C51.9389 36.8771 53.1036 37.8674 54.4114 38.6223C54.2891 38.4756 54.1773 38.3772 54.2229 38.191Z" fill="#81B22B"/>
<path d="M50.14 37.6636C49.4606 37.6559 48.9163 37.1041 48.9239 36.4311C48.9293 35.9415 49.1522 24.3433 57.0377 15.7091C57.4933 15.2098 58.2713 15.1712 58.775 15.623C59.2787 16.0747 59.3176 16.8454 58.8618 17.3447C51.5949 25.3015 51.3851 36.3481 51.3838 36.4587C51.3765 37.104 50.8558 37.6636 50.14 37.6636Z" fill="#A0814A"/>
<path d="M15.5127 47.6221L15.5127 76.168L20.7076 76.168C20.7076 74.8514 20.7076 48.4994 20.7076 47.6219C19.0308 48.0693 17.2538 48.0874 15.5127 47.6221Z" fill="#BEE2ED"/>
<path d="M18.1092 47.9615C17.239 47.9615 16.3389 47.8387 15.5117 47.6177L15.5117 76.1636L18.1092 76.1636L18.1092 47.9615Z" fill="#82C8D8"/>
<path d="M20.7063 47.963L20.7063 47.6191C20.2709 47.7352 19.8458 47.8174 19.4072 47.8764C19.8804 47.9371 20.3108 47.963 20.7063 47.963Z" fill="#82C8D8"/>
<path d="M25.8119 21.1399L0.219727 21.1399C1.58006 36.5913 9.07045 48.4098 18.1076 48.4098C27.1449 48.4098 34.6353 36.5913 35.9956 21.1399L30.0763 21.1399" fill="#D60027"/>
<path d="M20.1566 48.2045C12.1984 46.6025 5.80277 35.7919 4.39053 21.883L4.38894 21.883C4.38894 21.883 4.32351 21.1784 4.32001 21.1399C3.80692 21.1399 0.733137 21.1399 0.219727 21.1399C1.07318 30.8448 5.33728 44.3948 14.4282 47.7415C16.3265 48.4368 18.2606 48.5861 20.1566 48.2045Z" fill="#A5001E"/>
<path d="M15.4326 21.1378C16.4757 30.1368 20.922 38.1101 27.4666 43.7596C31.9421 38.9266 35.1514 30.7332 35.9961 21.1378C35.1035 21.1378 16.3399 21.1378 15.4326 21.1378Z" fill="#F02146"/>
<path d="M50.1603 46.3616C52.9239 46.3616 55.1643 44.1418 55.1643 41.4035C55.1643 38.6651 52.9239 36.4453 50.1603 36.4453C47.3966 36.4453 45.1562 38.6651 45.1562 41.4035C45.1562 44.1418 47.3966 46.3616 50.1603 46.3616Z" fill="#8F9ED8"/>
<path d="M65.1689 55.065C67.9325 55.065 70.1728 52.8452 70.1728 50.107C70.1728 47.3688 67.9325 45.149 65.1689 45.149C62.4053 45.149 60.165 47.3688 60.165 50.107C60.165 52.8452 62.4053 55.065 65.1689 55.065Z" fill="#8F9ED8"/>
<path d="M35.1437 55.0635C37.9073 55.0635 40.1477 52.8437 40.1477 50.1054C40.1477 47.3671 37.9073 45.1472 35.1437 45.1472C32.38 45.1472 30.1396 47.3671 30.1396 50.1054C30.1396 52.8437 32.38 55.0635 35.1437 55.0635Z" fill="#8F9ED8"/>
<path d="M55.1613 55.063C57.9249 55.063 60.1653 52.8432 60.1653 50.1049C60.1653 47.3666 57.9249 45.1467 55.1613 45.1467C52.3976 45.1467 50.1572 47.3666 50.1572 50.1049C50.1572 52.8432 52.3976 55.063 55.1613 55.063Z" fill="#8F9ED8"/>
<path d="M45.1543 55.0645C47.9178 55.0645 50.1582 52.8448 50.1582 50.1065C50.1582 47.3683 47.9179 45.1486 45.1543 45.1486C42.3907 45.1486 40.1504 47.3683 40.1504 50.1065C40.1504 52.8448 42.3907 55.0645 45.1543 55.0645Z" fill="#8F9ED8"/>
<path d="M55.1593 72.634C57.923 72.634 60.1634 70.4142 60.1634 67.6759C60.1634 64.9376 57.923 62.7178 55.1593 62.7178C52.3957 62.7178 50.1553 64.9376 50.1553 67.6759C50.1553 70.4142 52.3957 72.634 55.1593 72.634Z" fill="#8F9ED8"/>
<path d="M45.1553 72.6303C47.9188 72.6303 50.1591 70.4105 50.1591 67.6723C50.1591 64.9341 47.9188 62.7144 45.1553 62.7144C42.3917 62.7144 40.1514 64.9341 40.1514 67.6723C40.1514 70.4105 42.3917 72.6303 45.1553 72.6303Z" fill="#8F9ED8"/>
<path d="M40.1494 46.36C42.913 46.36 45.1533 44.1403 45.1533 41.4021C45.1533 38.6639 42.913 36.4441 40.1494 36.4441C37.3858 36.4441 35.1455 38.6639 35.1455 41.4021C35.1455 44.1403 37.3858 46.36 40.1494 46.36Z" fill="#8F9ED8"/>
<path d="M50.1535 63.8797C52.9171 63.8797 55.1575 61.6598 55.1575 58.9215C55.1575 56.1832 52.9171 53.9634 50.1535 53.9634C47.3898 53.9634 45.1494 56.1832 45.1494 58.9215C45.1494 61.6598 47.3898 63.8797 50.1535 63.8797Z" fill="#8F9ED8"/>
<path d="M60.1689 63.8796C62.9325 63.8796 65.1728 61.6598 65.1728 58.9216C65.1728 56.1834 62.9325 53.9636 60.1689 53.9636C57.4054 53.9636 55.165 56.1834 55.165 58.9216C55.165 61.6598 57.4054 63.8796 60.1689 63.8796Z" fill="#8F9ED8"/>
<path d="M40.1504 63.8759C42.9139 63.8759 45.1543 61.6562 45.1543 58.9179C45.1543 56.1797 42.9139 53.96 40.1504 53.96C37.3868 53.96 35.1465 56.1797 35.1465 58.9179C35.1465 61.6562 37.3868 63.8759 40.1504 63.8759Z" fill="#8F9ED8"/>
<path d="M60.166 46.3594C62.9296 46.3594 65.1699 44.1397 65.1699 41.4015C65.1699 38.6632 62.9296 36.4435 60.166 36.4435C57.4024 36.4435 55.1621 38.6632 55.1621 41.4015C55.1621 44.1397 57.4024 46.3594 60.166 46.3594Z" fill="#8F9ED8"/>
<path d="M52.3129 36.9244C49.0051 35.3581 45.1533 37.7511 45.1533 41.3999C45.1533 44.138 47.3939 46.3578 50.1572 46.3578C50.9291 46.3578 51.66 46.1843 52.3129 45.8752C48.5238 44.0804 48.5178 38.7221 52.3129 36.9244Z" fill="#5B72BC"/>
<path d="M67.3214 45.6283C64.0139 44.0616 60.1621 46.455 60.1621 50.1037C60.1621 53.7511 64.0125 56.1461 67.3214 54.5789C63.5326 52.7841 63.5267 47.426 67.3214 45.6283Z" fill="#5B72BC"/>
<path d="M37.2961 45.6263C33.9883 44.06 30.1367 46.453 30.1367 50.1018C30.1367 53.7493 33.9871 56.1439 37.2961 54.5769C33.5072 52.7823 33.501 47.424 37.2961 45.6263Z" fill="#5B72BC"/>
<path d="M57.3139 45.6259C54.0064 44.0593 50.1543 46.4526 50.1543 50.1014C50.1543 53.7487 54.005 56.1438 57.3139 54.5766C53.5245 52.7818 53.5188 47.4237 57.3139 45.6259Z" fill="#5B72BC"/>
<path d="M47.3069 45.6276C43.9986 44.0614 40.1475 46.4543 40.1475 50.103C40.1475 53.7507 43.9976 56.1448 47.3069 54.5782C43.518 52.7836 43.5118 47.4253 47.3069 45.6276Z" fill="#5B72BC"/>
<path d="M57.3119 63.1971C54.0051 61.6302 50.1523 64.0235 50.1523 67.6724C50.1523 71.3198 54.003 73.7149 57.3119 72.1476C53.5225 70.353 53.5168 64.9947 57.3119 63.1971Z" fill="#5B72BC"/>
<path d="M47.3079 63.1936C44.0004 61.627 40.1484 64.0198 40.1484 67.6689C40.1484 71.3166 43.9986 73.7107 47.3079 72.1441C43.5191 70.3495 43.5128 64.9912 47.3079 63.1936Z" fill="#5B72BC"/>
<path d="M42.3021 36.9232C38.9944 35.3568 35.1426 37.7499 35.1426 41.3986C35.1426 45.0469 38.9943 47.4409 42.3021 45.8738C38.5126 44.0792 38.507 38.7215 42.3021 36.9232Z" fill="#5B72BC"/>
<path d="M52.3061 54.4425C48.9983 52.8762 45.1465 55.269 45.1465 58.9178C45.1465 62.5662 48.9979 64.9599 52.3061 63.3932C48.5168 61.5985 48.511 56.24 52.3061 54.4425Z" fill="#5B72BC"/>
<path d="M62.3215 54.4428C59.0139 52.8762 55.1621 55.2694 55.1621 58.9181C55.1621 62.5666 59.0134 64.9606 62.3215 63.3936C58.5255 61.5954 58.5337 56.2371 62.3215 54.4428Z" fill="#5B72BC"/>
<path d="M42.3031 54.4391C38.9955 52.8727 35.1436 55.2656 35.1436 58.9144C35.1436 62.5619 38.9939 64.9569 42.3031 63.3898C38.5139 61.5946 38.5079 56.2369 42.3031 54.4391Z" fill="#5B72BC"/>
<path d="M62.3186 36.9227C59.0108 35.356 55.1592 37.7494 55.1592 41.3981C55.1592 45.0464 59.0109 47.4407 62.3186 45.8733C58.5235 44.0762 58.53 38.7177 62.3186 36.9227Z" fill="#5B72BC"/>
<path d="M27.3392 75.6121C25.0837 75.6121 10.582 75.6121 9.09714 75.6121C4.49173 75.6121 4.07289 79.8885 4.03516 80.7593L32.4009 80.7593C32.3633 79.8883 31.944 75.6121 27.3392 75.6121Z" fill="#D9F2FC"/>
<path d="M14.5484 75.6121C12.0467 75.6121 11.6739 75.6121 9.09714 75.6121C4.49173 75.6121 4.07289 79.8885 4.03516 80.7593L9.48638 80.7593C9.52411 79.8883 9.94296 75.6121 14.5484 75.6121Z" fill="#AEDEED"/>
</svg>
