<svg width="22" height="86" viewBox="0 0 22 86" fill="none" xmlns="http://www.w3.org/2000/svg">
<g clip-path="url(#clip0)">
<path d="M43.3516 60.8165C28.8961 60.6328 16.1498 66.2627 8.9155 74.8685L8.89882 76.1806L77.4029 77.0505L77.4227 75.7432C70.4102 66.9537 57.8093 61.0002 43.3516 60.8165Z" fill="#FFDC64"/>
<path d="M27.3557 75.1029C32.3133 67.813 40.4527 62.6562 49.9036 61.3204C47.7708 61.027 45.5869 60.845 43.3516 60.8166C28.8961 60.6329 16.1498 66.2628 8.9155 74.8686L8.89882 76.1807L27.3391 76.4149L27.3557 75.1029Z" fill="#FFC850"/>
<path d="M77.4021 77.0509C77.3218 77.0518 77.2615 77.0591 77.1742 77.058C75.9623 77.0426 75.4681 76.8446 74.7217 76.5456C73.7641 76.1609 72.571 75.6819 70.3749 75.654C68.1801 75.6261 66.9752 76.0746 66.0081 76.4349C65.2557 76.7148 64.7579 76.9002 63.5487 76.8849C62.3395 76.8695 61.8477 76.6722 61.1026 76.3725C60.145 75.9878 58.9532 75.5088 56.7596 75.481C54.566 75.4531 53.3611 75.9016 52.3941 76.2618C51.6417 76.5418 51.1452 76.7272 49.9347 76.7118C48.7253 76.6965 48.2337 76.4992 47.4887 76.1995C46.531 75.8148 45.3392 75.3358 43.1458 75.308C40.951 75.2801 39.7473 75.7286 38.7803 76.0888C38.0279 76.3695 37.5314 76.5542 36.3221 76.5388C35.1127 76.5235 34.6211 76.3262 33.876 76.0265C32.9184 75.6418 31.7266 75.1628 29.533 75.135C27.3393 75.1071 26.1358 75.5556 25.1675 75.9165C24.4164 76.1965 23.9199 76.3812 22.7119 76.3659C21.5051 76.3505 21.0149 76.1533 20.2711 75.8543C19.3135 75.4689 18.123 74.99 15.9294 74.9621C13.7357 74.9342 12.5322 75.3827 11.5639 75.7436C10.8128 76.0236 10.3163 76.2084 9.10827 76.193C9.02725 76.192 8.97218 76.1837 8.89744 76.1811L8.88044 77.5189C8.85069 79.8598 11.1805 81.5099 13.3743 80.6928C13.3844 80.6892 13.3943 80.6853 13.4043 80.6817C14.1567 80.401 14.6532 80.2163 15.8626 80.2317C17.0706 80.247 17.5609 80.4443 18.3047 80.7433C19.2623 81.1287 20.4528 81.6076 22.6451 81.6355C24.8385 81.6633 26.0409 81.2148 27.008 80.8546C27.7605 80.5739 28.257 80.3892 29.4663 80.4046C30.6757 80.4199 31.1673 80.6172 31.9124 80.9169C32.87 81.3016 34.0618 81.7806 36.2554 81.8084C38.449 81.8363 39.6526 81.3878 40.6197 81.0275C41.3722 80.7476 41.8686 80.5622 43.0791 80.5775C44.2885 80.5929 44.7801 80.7902 45.5252 81.0899C46.4828 81.4746 47.6746 81.9536 49.8682 81.9814C52.0619 82.0093 53.2668 81.5608 54.2337 81.2006C54.9861 80.9206 55.4826 80.7352 56.6931 80.7506C57.9025 80.7659 58.3941 80.9632 59.1392 81.2629C60.0968 81.6476 61.2886 82.1266 63.4822 82.1544C65.6758 82.1823 66.8807 81.7338 67.8477 81.3736C68.6001 81.0936 69.0979 80.9082 70.3084 80.9236C71.5202 80.939 72.0145 81.137 72.7609 81.436C72.7779 81.4428 72.795 81.4498 72.8122 81.4566C74.9845 82.3286 77.3557 80.7384 77.3854 78.3979L77.4021 77.0509Z" fill="#7FE1FF"/>
<path d="M77.1399 79.6923C74.9438 79.6644 73.7507 79.1855 72.7931 78.8007C72.0466 78.5017 71.5526 78.3037 70.3406 78.2883C69.1299 78.2729 68.6323 78.4583 67.8798 78.7383C66.9127 79.0986 65.7079 79.547 63.5144 79.5192C61.3209 79.4913 60.129 79.0124 59.1714 78.6276C58.4263 78.328 57.9347 78.1307 56.7253 78.1153C55.5146 78.0999 55.0182 78.2853 54.2659 78.5653C53.2988 78.9255 52.0939 79.374 49.9004 79.3462C47.707 79.3183 46.515 78.8393 45.5574 78.4546C44.8123 78.1549 44.3207 77.9576 43.1113 77.9423C41.9007 77.9269 41.4042 78.1123 40.6519 78.3923C39.6848 78.7525 38.4812 79.201 36.2876 79.1732C34.094 79.1453 32.9022 78.6663 31.9446 78.2816C31.1995 77.9819 30.7079 77.7846 29.4985 77.7693C28.2892 77.7539 27.7927 77.9387 27.0402 78.2193C26.0732 78.5796 24.8709 79.0281 22.6773 79.0002C20.485 78.9723 19.2945 78.4934 18.3369 78.108C17.5931 77.809 17.1028 77.6117 15.8948 77.5964C14.6854 77.581 14.189 77.7658 13.4365 78.0464C12.4694 78.4067 11.2671 78.8552 9.07352 78.8273C6.88121 78.7995 5.68942 78.3205 4.73313 77.9351C4.21335 77.7265 3.83958 77.5758 3.26418 77.4925C1.82307 77.2838 0.826162 75.9465 1.03485 74.5067C1.24356 73.0656 2.59064 72.0688 4.02007 72.2767C5.221 72.4509 6.04031 72.781 6.69953 73.0461C7.44199 73.3451 7.93359 73.5424 9.14032 73.5577C10.3484 73.5731 10.8448 73.3883 11.596 73.1083C12.5644 72.7474 13.7679 72.2989 15.9614 72.3268C18.1549 72.3547 19.3455 72.8336 20.3031 73.219C21.0469 73.518 21.5372 73.7153 22.7439 73.7306C23.952 73.746 24.4484 73.5612 25.1995 73.2812C26.168 72.9203 27.3715 72.4718 29.565 72.4997C31.7585 72.5276 32.9504 73.0065 33.908 73.3912C34.6531 73.6909 35.1447 73.8882 36.3541 73.9036C37.5635 73.9189 38.0599 73.7342 38.8124 73.4536C39.7795 73.0933 40.983 72.6448 43.1778 72.6727C45.3713 72.7006 46.5632 73.1795 47.5207 73.5642C48.2658 73.8639 48.7574 74.0612 49.9667 74.0766C51.1774 74.092 51.6739 73.9066 52.4262 73.6266C53.3933 73.2663 54.5981 72.8178 56.7916 72.8457C58.9851 72.8736 60.177 73.3525 61.1346 73.7372C61.8797 74.0369 62.3713 74.2342 63.5807 74.2496C64.7901 74.265 65.2878 74.0796 66.0401 73.7996C67.0072 73.4393 68.2121 72.9908 70.4069 73.0187C72.603 73.0466 73.7961 73.5256 74.7537 73.9103C75.5001 74.2093 75.9942 74.4073 77.2062 74.4227C78.4182 74.4381 78.9158 74.2528 79.6696 73.9728C80.3367 73.7238 81.168 73.4147 82.3768 73.2725C83.8046 73.0989 85.1323 74.1343 85.303 75.5801C85.4737 77.0253 84.4407 78.3349 82.9948 78.5056C82.4137 78.5742 82.0335 78.7161 81.5073 78.912C80.5395 79.2724 79.3347 79.7202 77.1399 79.6923Z" fill="#00C3FF"/>
<path d="M43.2298 16.401C43.2298 16.401 30.7127 16.8279 30.7389 16.7859L20.8874 22.7326C20.7146 27.6553 23.0901 30.3877 24.6795 31.6563C25.2715 32.1288 26.1476 31.7784 26.2599 31.0293C26.7051 28.057 27.834 21.213 30.5182 16.7854C35.3421 18.723 40.4836 23.5645 42.6238 25.7017C43.1535 26.2307 44.0525 26.0071 44.2655 25.2894C44.8386 23.3586 45.36 19.8551 43.2298 16.401Z" fill="#A0D755"/>
<path d="M52.1544 16.2862C49.7727 12.9642 43.036 6.12012 32.4281 15.2558C32.286 15.3781 32.0613 15.2441 32.1299 15.0697C33.3305 12.014 36.8445 8.37936 43.2143 5.87895C43.7338 5.67507 43.6949 4.91991 43.1553 4.77685C39.2233 3.73439 29.367 2.40862 29.7827 13.59C29.7955 13.9318 29.3543 14.0831 29.1598 13.8018C22.8699 4.70879 15.8602 11.4546 13.3313 14.6202C12.9829 15.0563 13.4011 15.6862 13.94 15.5408C19.8826 13.9377 25.3847 15.0665 27.8372 16.2942C28.0124 16.3819 27.9207 16.639 27.725 16.6277C14.1949 15.8453 12.8872 25.1918 12.9511 29.2299C12.9634 30.0006 13.8554 30.4161 14.4558 29.9327C17.3203 27.6271 24.0022 22.249 27.8183 19.1776C29.6276 17.7214 31.901 16.9719 34.2216 17.0648L51.3569 17.7503C52.1291 17.7811 52.6048 16.9144 52.1544 16.2862Z" fill="#B4E66E"/>
</g>
<defs>
<clipPath id="clip0">
<rect width="84.32" height="84.32" fill="white" transform="translate(1.95605 0.344666) rotate(0.728098)"/>
</clipPath>
</defs>
</svg>
