<svg width="103" height="38" viewBox="0 0 103 38" fill="none" xmlns="http://www.w3.org/2000/svg">
<path d="M30.6967 34.4694L30.6623 34.3836L30.5765 34.2119L28.5681 28.8046C30.4735 29.6801 32.2416 30.8302 33.8381 32.255C34.0441 32.4095 34.2157 32.6326 34.353 32.8901C34.5075 33.1819 34.5934 33.4909 34.5934 33.8343C34.5934 34.9329 33.7007 35.8255 32.6021 35.8255C31.7266 35.8255 30.9713 35.2762 30.6967 34.4694ZM14.183 3.03839C14.4404 2.33458 15.0241 1.85393 15.6764 1.83677H15.6936C16.3459 1.8711 16.9295 2.33458 17.187 3.03839L25.4782 25.8006C23.6414 25.3371 21.7532 25.0967 19.8306 25.0967C15.7966 25.0967 11.814 26.161 8.3465 28.1866C6.66423 29.1651 5.11929 30.3667 3.72884 31.7228L14.183 3.03839ZM15.4876 0.0171671C14.1486 0.120163 12.9642 1.04713 12.4664 2.42041L0.0553069 36.495C-0.116353 36.9756 0.123971 37.4906 0.60462 37.6623C0.707616 37.6966 0.810612 37.7138 0.913609 37.7138C1.20543 37.7138 1.48009 37.5765 1.65175 37.3361C1.68608 37.3018 1.70325 37.2675 1.73758 37.216C3.57434 34.1261 6.16642 31.534 9.27347 29.7316C12.4664 27.8776 16.1227 26.882 19.8477 26.882C22.0622 26.882 24.2423 27.2253 26.3022 27.8948L28.9286 34.9501L29.0144 35.1045C29.5637 36.6152 30.9885 37.628 32.6021 37.628C34.7135 37.628 36.413 35.9113 36.413 33.8171C36.413 33.1991 36.2585 32.564 35.9667 32.0147C35.8465 31.8087 35.7263 31.6198 35.589 31.431C35.5375 31.3452 35.486 31.2594 35.4173 31.1907C33.1686 29.0964 30.5422 27.5 27.7098 26.4529L27.521 25.9722H27.5038L18.9036 2.42041C18.4058 1.0643 17.2385 0.137329 15.8824 0.0171671C15.8309 0.0171671 15.7794 0 15.7279 0C15.7107 0 15.6936 0 15.6936 0C15.6764 0 15.6592 0 15.6592 0C15.5906 0 15.5391 0.0171671 15.4876 0.0171671Z" fill="#686868"/>
<g opacity="0.3">
<g opacity="0.3">
<g opacity="0.3">
<g opacity="0.3">
<g opacity="0.3">
<path opacity="0.3" d="M28.6023 28.9076C30.5078 29.7831 32.2759 30.9332 33.8723 32.3409C34.0783 32.5125 34.25 32.7185 34.3873 32.976C34.5418 33.2678 34.6276 33.5768 34.6276 33.9201H36.4472C36.4472 33.3022 36.2927 32.667 36.0009 32.1177C35.8979 31.9117 35.7606 31.7229 35.6232 31.5341C35.5717 31.4482 35.5202 31.3624 35.4516 31.2937C33.2028 29.1995 30.5764 27.603 27.744 26.5559L28.6023 28.9076ZM8.38074 28.2897C6.69847 29.2681 5.15353 30.4698 3.76308 31.8259L1.66882 37.4563C1.70316 37.422 1.72032 37.3877 1.75465 37.3362C3.59142 34.2463 6.20066 31.6542 9.29054 29.8518C12.4834 27.9978 16.1398 27.0022 19.8648 27.0022C21.9419 27.0022 24.1735 27.3284 26.3193 28.015L25.5124 25.8864C23.6757 25.4229 21.7874 25.1826 19.8648 25.1826C15.8308 25.1998 11.8654 26.2641 8.38074 28.2897Z" fill="#686868"/>
</g>
<g opacity="0.3">
<path opacity="0.3" d="M36.4465 25.1987H1.6853V37.4553H36.4465V25.1987Z" fill="#686868"/>
</g>
</g>
</g>
</g>
</g>
<path d="M35.2457 8.78882H35.8122L39.4857 16.7367H38.8505L37.8549 14.5223H33.1857L32.173 16.7367H31.5721L35.2457 8.78882ZM37.5974 14.0073L35.5203 9.44113L33.4432 14.0073H37.5974Z" fill="#686868"/>
<path d="M42.9189 16.8743C42.4383 16.8743 42.0091 16.8056 41.6143 16.6511C41.2195 16.4966 40.8762 16.2906 40.5844 15.9988C40.2925 15.707 40.0694 15.3465 39.9149 14.9345C39.7604 14.5054 39.6746 14.0247 39.6746 13.4754V8.85774H40.2582V13.4067C40.2582 14.3509 40.4985 15.0718 40.962 15.5697C41.4255 16.0846 42.095 16.325 42.9361 16.325C43.7429 16.325 44.3781 16.0846 44.8587 15.604C45.3394 15.1233 45.5625 14.4024 45.5625 13.4582V8.84058H46.1462V13.3896C46.1462 13.9561 46.0603 14.4539 45.9058 14.883C45.7513 15.3122 45.5282 15.6727 45.2364 15.9645C44.9445 16.2563 44.6184 16.4795 44.2236 16.634C43.8287 16.7884 43.3996 16.8743 42.9189 16.8743Z" fill="#686868"/>
<path d="M49.5964 9.37272H46.8499V8.84058H52.9438V9.37272H50.1801V16.737H49.5964V9.37272Z" fill="#686868"/>
<path d="M57.0982 16.8745C56.4974 16.8745 55.9652 16.7543 55.4674 16.5483C54.9867 16.3252 54.5576 16.0334 54.2143 15.6557C53.8709 15.2781 53.5963 14.8489 53.4075 14.3683C53.2186 13.8876 53.1328 13.3726 53.1328 12.8233V12.8061C53.1328 12.2568 53.2358 11.7419 53.4246 11.2612C53.6135 10.7634 53.8881 10.3342 54.2314 9.95658C54.5748 9.57893 55.0039 9.28711 55.4846 9.06395C55.9824 8.84079 56.5145 8.73779 57.1153 8.73779C57.7161 8.73779 58.2655 8.85796 58.7461 9.06395C59.2268 9.28711 59.6559 9.57893 59.9992 9.95658C60.3425 10.3342 60.6172 10.7634 60.806 11.244C60.9949 11.7247 61.0807 12.2397 61.0807 12.789V12.8061C61.0807 13.3555 60.9777 13.8704 60.7889 14.3511C60.6 14.8489 60.3254 15.2781 59.9821 15.6557C59.6387 16.0334 59.2268 16.3252 58.7289 16.5483C58.2483 16.7715 57.699 16.8745 57.0982 16.8745ZM57.1153 16.3424C57.596 16.3424 58.0595 16.2565 58.4714 16.0677C58.8834 15.8789 59.2268 15.6385 59.5357 15.3124C59.8276 14.9862 60.0679 14.6257 60.2224 14.1966C60.394 13.7674 60.4627 13.304 60.4627 12.8233V12.8061C60.4627 12.3255 60.3769 11.862 60.2052 11.4329C60.0336 11.0037 59.8104 10.6261 59.5014 10.2999C59.2096 9.97375 58.8491 9.73343 58.4371 9.5446C58.0251 9.35577 57.5788 9.26994 57.081 9.26994C56.5832 9.26994 56.1369 9.35577 55.7249 9.5446C55.3129 9.73343 54.9696 9.97375 54.6606 10.2999C54.3688 10.6261 54.1284 10.9865 53.9739 11.4157C53.8023 11.8448 53.7336 12.3083 53.7336 12.789V12.8061C53.7336 13.2868 53.8195 13.7503 53.9911 14.1794C54.1628 14.6086 54.3859 14.9862 54.6949 15.3124C54.9867 15.6385 55.3472 15.8789 55.7592 16.0677C56.1712 16.2565 56.6347 16.3424 57.1153 16.3424Z" fill="#686868"/>
<path d="M62.1105 8.84058H62.6598L65.8355 13.5097L69.0112 8.84058H69.5605V16.737H68.9769V9.88771L65.8355 14.4367H65.8012L62.6598 9.88771V16.737H62.1105V8.84058Z" fill="#686868"/>
<path d="M74.3842 8.78931H74.9507L78.6242 16.7372H77.9891L76.9935 14.5228H72.3243L71.3115 16.7372H70.7107L74.3842 8.78931ZM76.736 14.0078L74.6589 9.44161L72.5818 14.0078H76.736Z" fill="#686868"/>
<path d="M80.5641 9.37272H77.8175V8.84058H83.8943V9.37272H81.1477V16.737H80.5641V9.37272Z" fill="#686868"/>
<path d="M85.6109 8.84058H85.0272V16.737H85.6109V8.84058Z" fill="#686868"/>
<path d="M91.0868 16.8745C90.486 16.8745 89.9539 16.7543 89.456 16.5483C88.9754 16.3252 88.5462 16.0334 88.2029 15.6557C87.8596 15.2781 87.5849 14.8489 87.3961 14.3683C87.2073 13.8876 87.1215 13.3726 87.1215 12.8233V12.8061C87.1215 12.2568 87.2245 11.7419 87.4133 11.2612C87.6021 10.7634 87.8768 10.3342 88.2201 9.95658C88.5634 9.57893 88.9926 9.28711 89.4732 9.06395C89.971 8.84079 90.5032 8.73779 91.104 8.73779C91.7048 8.73779 92.2541 8.85796 92.7348 9.06395C93.2154 9.28711 93.6274 9.57893 93.9879 9.95658C94.3312 10.3342 94.6059 10.7634 94.7947 11.244C94.9835 11.7247 95.0693 12.2397 95.0693 12.789V12.8061C95.0693 13.3555 94.9663 13.8704 94.7775 14.3511C94.5887 14.8489 94.314 15.2781 93.9707 15.6557C93.6274 16.0334 93.2154 16.3252 92.7176 16.5483C92.2369 16.7715 91.6876 16.8745 91.0868 16.8745ZM91.1211 16.3424C91.6018 16.3424 92.0653 16.2565 92.4773 16.0677C92.8892 15.8789 93.2326 15.6385 93.5416 15.3124C93.8334 14.9862 94.0737 14.6257 94.2282 14.1966C94.3999 13.7674 94.4685 13.304 94.4685 12.8233V12.8061C94.4685 12.3255 94.3827 11.862 94.211 11.4329C94.0394 11.0037 93.8162 10.6261 93.5072 10.2999C93.2154 9.97375 92.8549 9.73343 92.4429 9.5446C92.0309 9.35577 91.5846 9.26994 91.0868 9.26994C90.6062 9.26994 90.1427 9.35577 89.7307 9.5446C89.3187 9.73343 88.9754 9.97375 88.6664 10.2999C88.3746 10.6261 88.1343 10.9865 87.9798 11.4157C87.8081 11.8448 87.7394 12.3083 87.7394 12.789V12.8061C87.7394 13.2868 87.8253 13.7503 87.9969 14.1794C88.1686 14.6086 88.3917 14.9862 88.7007 15.3124C88.9926 15.6385 89.353 15.8789 89.765 16.0677C90.177 16.2565 90.6233 16.3424 91.1211 16.3424Z" fill="#686868"/>
<path d="M96.1851 8.84058H96.7344L102.193 15.707V8.84058H102.742V16.737H102.296L96.7344 9.73321V16.737H96.1851V8.84058Z" fill="#686868"/>
<path d="M38.6102 18.4539H40.2581L43.7256 26.6077H41.8717L41.1336 24.7881H37.7175L36.9794 26.6077H35.1598L38.6102 18.4539ZM40.4813 23.226L39.3998 20.5996L38.3183 23.226H40.4813Z" fill="#686868"/>
<path d="M44.2235 18.5054H45.8543L49.648 23.5007V18.5054H51.4161V26.6077H49.9055L45.9744 21.4579V26.6077H44.2235V18.5054Z" fill="#686868"/>
<path d="M55.1068 23.4149L51.9998 18.5054H54.0768L56.0166 21.7669L57.9735 18.5054H59.9991L56.8921 23.3805V26.6077H55.1068V23.4149Z" fill="#686868"/>
<path d="M59.9648 18.5052H61.8703L63.5525 23.9983L65.3721 18.488H66.8999L68.7195 23.9983L70.3846 18.5052H72.2557L69.492 26.6591H67.9299L66.1103 21.3719L64.2735 26.6591H62.7286L59.9648 18.5052Z" fill="#686868"/>
<path d="M73.2856 18.5054H75.0537V21.7154H78.3496V18.5054H80.1177V26.6077H78.3496V23.3634H75.0537V26.6077H73.2856V18.5054Z" fill="#686868"/>
<path d="M81.5425 18.5054H87.6364V20.1018H83.3106V21.7326H87.1214V23.329H83.3106V25.0285H87.7051V26.6077H81.5425V18.5054Z" fill="#686868"/>
<path d="M89.0098 18.5054H92.7176C93.7476 18.5054 94.5372 18.78 95.0694 19.3293C95.5329 19.7928 95.756 20.4108 95.756 21.1833V21.2004C95.756 21.8527 95.6015 22.3849 95.2754 22.7969C94.9492 23.2089 94.5372 23.5179 94.0222 23.7067L95.9963 26.5906H93.9192L92.1855 23.9985H92.1683H90.795V26.5906H89.0098V18.5054ZM92.5975 22.4536C93.0438 22.4536 93.3699 22.3506 93.6103 22.1446C93.8506 21.9386 93.9536 21.6639 93.9536 21.3034V21.2863C93.9536 20.8914 93.8334 20.5996 93.5759 20.4108C93.3356 20.222 92.9923 20.119 92.546 20.119H90.7779V22.4536H92.5975Z" fill="#686868"/>
<path d="M96.8546 18.5054H102.949V20.1018H98.6055V21.7326H102.416V23.329H98.6055V25.0285H103V26.6077H96.8546V18.5054Z" fill="#686868"/>
<path d="M65.9042 29.7488C66.7282 29.7488 67.1573 30.1779 67.1573 30.1779L66.8483 30.6242C66.8483 30.6242 66.4878 30.2981 65.9557 30.2981C65.2004 30.2981 64.8056 30.8131 64.8056 31.4482C64.8056 32.1864 65.3034 32.6498 65.9385 32.6498C66.4535 32.6498 66.7796 32.3065 66.7796 32.3065V31.9117H66.2647V31.3796H67.329V33.1477H66.814V32.9932C66.814 32.9245 66.814 32.8558 66.814 32.8558H66.7968C66.7968 32.8558 66.4535 33.2163 65.8184 33.2163C64.9257 33.2163 64.1704 32.5297 64.1704 31.4654C64.1704 30.5041 64.9086 29.7488 65.9042 29.7488Z" fill="#686868"/>
<path d="M69.0629 30.6929C69.801 30.6929 70.4018 31.225 70.4018 31.9632C70.4018 32.7013 69.801 33.2334 69.08 33.2334C68.3419 33.2334 67.7411 32.7185 67.7411 31.9632C67.7239 31.225 68.3247 30.6929 69.0629 30.6929ZM69.0629 32.7185C69.4577 32.7185 69.7838 32.4095 69.7838 31.9632C69.7838 31.5168 69.4577 31.2079 69.0629 31.2079C68.668 31.2079 68.3419 31.5168 68.3419 31.9632C68.3419 32.4095 68.668 32.7185 69.0629 32.7185Z" fill="#686868"/>
<path d="M72.0324 29.8003H72.6332V30.8474C72.6332 30.9676 72.6161 31.0534 72.6161 31.0534H72.6332C72.6332 31.0534 72.8392 30.7101 73.3542 30.7101C74.0065 30.7101 74.4185 31.2251 74.4185 31.9804C74.4185 32.7529 73.955 33.2507 73.3027 33.2507C72.8049 33.2507 72.5817 32.8902 72.5817 32.8902H72.5646C72.5646 32.8902 72.5817 32.9588 72.5817 33.0618V33.1992H72.0153L72.0324 29.8003ZM73.2169 32.7185C73.543 32.7185 73.8177 32.4439 73.8177 31.9632C73.8177 31.4997 73.5774 31.2079 73.2169 31.2079C72.9079 31.2079 72.6161 31.4311 72.6161 31.9804C72.6161 32.3409 72.8221 32.7185 73.2169 32.7185Z" fill="#686868"/>
<path d="M75.9807 30.6929C76.6845 30.6929 77.0622 31.2078 77.0622 31.843C77.0622 31.9117 77.045 32.0833 77.045 32.0833H75.3799C75.4142 32.5125 75.7404 32.7185 76.1009 32.7185C76.4957 32.7185 76.8047 32.461 76.8047 32.461L77.0278 32.8901C77.0278 32.8901 76.6502 33.2334 76.0494 33.2334C75.2426 33.2334 74.7448 32.6498 74.7448 31.9632C74.7619 31.2079 75.2597 30.6929 75.9807 30.6929ZM76.4442 31.6542C76.427 31.328 76.2382 31.1564 75.9635 31.1564C75.6546 31.1564 75.4486 31.3452 75.3799 31.6542H76.4442Z" fill="#686868"/>
<path d="M79.62 33.6456C79.9976 33.6456 80.3066 33.4911 80.3066 33.062V32.9246C80.3066 32.8731 80.3238 32.8045 80.3238 32.8045H80.3066C80.1693 33.0105 79.9633 33.1306 79.6371 33.1306C78.9505 33.1306 78.5557 32.5641 78.5557 31.9118C78.5557 31.2424 78.9333 30.7102 79.62 30.7102C80.1521 30.7102 80.3409 31.0192 80.3409 31.0192H80.3581C80.3581 31.0192 80.3581 30.9849 80.3581 30.9505V30.7445H80.9246V33.0105C80.9246 33.8344 80.2723 34.1606 79.6543 34.1606C79.3453 34.1606 79.0192 34.0748 78.796 33.9546L78.9848 33.4911C78.9505 33.4911 79.2595 33.6456 79.62 33.6456ZM80.3238 31.8947C80.3238 31.3454 80.0491 31.1909 79.723 31.1909C79.3625 31.1909 79.1565 31.4483 79.1565 31.8603C79.1565 32.2895 79.3796 32.5985 79.7573 32.5985C80.0491 32.6156 80.3238 32.444 80.3238 31.8947Z" fill="#686868"/>
<path d="M81.5769 30.7445H82.1605V31.1565C82.1605 31.2424 82.1605 31.3282 82.1605 31.3282C82.2635 30.9849 82.5554 30.7102 82.933 30.7102C82.9845 30.7102 83.036 30.7274 83.036 30.7274V31.3282C83.036 31.3282 82.9674 31.311 82.8987 31.311C82.6412 31.311 82.3494 31.4655 82.2464 31.826C82.212 31.9462 82.1949 32.0835 82.1949 32.2208V33.1821H81.5941V30.7445H81.5769Z" fill="#686868"/>
<path d="M84.495 30.6929C85.1988 30.6929 85.5764 31.2078 85.5764 31.843C85.5764 31.9117 85.5593 32.0833 85.5593 32.0833H83.8942C83.9285 32.5125 84.2547 32.7185 84.6151 32.7185C85.01 32.7185 85.319 32.461 85.319 32.461L85.5421 32.8901C85.5421 32.8901 85.1645 33.2334 84.5636 33.2334C83.7568 33.2334 83.259 32.6498 83.259 31.9632C83.2762 31.2079 83.774 30.6929 84.495 30.6929ZM84.9585 31.6542C84.9413 31.328 84.7525 31.1564 84.4778 31.1564C84.1688 31.1564 83.9628 31.3452 83.8942 31.6542H84.9585Z" fill="#686868"/>
<path d="M87.2932 31.6543H87.379V31.62C87.379 31.2939 87.173 31.1909 86.9155 31.1909C86.5722 31.1909 86.2461 31.4312 86.2461 31.4312L86.0229 31.002C86.0229 31.002 86.4005 30.7102 86.967 30.7102C87.6022 30.7102 87.9798 31.0535 87.9798 31.6715V33.1821H87.4305V32.9761C87.4305 32.8731 87.4477 32.8045 87.4477 32.8045H87.4305C87.4305 32.8045 87.2417 33.2336 86.6924 33.2336C86.2632 33.2336 85.8684 32.959 85.8684 32.4783C85.8684 31.7058 86.8984 31.6543 87.2932 31.6543ZM86.8469 32.753C87.173 32.753 87.3962 32.4096 87.3962 32.1178V32.0663H87.2932C86.9842 32.0663 86.4864 32.1007 86.4864 32.444C86.4692 32.5985 86.5894 32.753 86.8469 32.753Z" fill="#686868"/>
<path d="M88.7008 31.2594H88.3918V30.7788H88.718V30.075H89.3017V30.7788H89.851V31.2594H89.3017V32.2035C89.3017 32.5984 89.6106 32.667 89.7823 32.667C89.851 32.667 89.8853 32.6499 89.8853 32.6499V33.182C89.8853 33.182 89.8166 33.1992 89.6965 33.1992C89.3532 33.1992 88.6837 33.0962 88.6837 32.2894L88.7008 31.2594Z" fill="#686868"/>
<path d="M90.9494 32.564H90.3486V33.1648H90.9494V32.564Z" fill="#686868"/>
</svg>
