<svg width="101" height="25" viewBox="0 0 101 25" fill="none" xmlns="http://www.w3.org/2000/svg">
<path d="M2.39391 0H21.6021C22.9131 0 23.996 1.08359 23.996 2.3953V21.6148C23.996 22.9265 22.9131 24.0101 21.6021 24.0101H2.39391C1.08296 24.0101 0 22.9265 0 21.6148V2.3953C0.0569977 1.08359 1.13996 0 2.39391 0Z" fill="#686868"/>
<path d="M21.6603 0C22.9143 0 23.9972 1.02656 23.9972 2.33827V10.2086C23.9972 10.95 23.3702 11.5773 22.6293 11.5773H1.42611C0.685141 11.5773 0.0581665 10.95 0.0581665 10.2086V2.33827C0.0581665 1.08359 1.08413 0 2.39507 0H21.6603Z" fill="#686868"/>
<path d="M2.39404 23.9529C1.14009 23.9529 0.0571289 22.9263 0.0571289 21.6146V13.8014C0.0571289 13.06 0.684104 12.4326 1.42507 12.4326H22.5712C23.3122 12.4326 23.9392 13.06 23.9392 13.8014V21.6716C23.9392 22.9263 22.9132 24.0099 21.6023 24.0099L2.39404 23.9529Z" fill="#686868"/>
<path d="M2.33685 0.741211H21.6591C22.5141 0.741211 23.198 1.42558 23.198 2.28105V21.6146C23.198 22.47 22.5141 23.1544 21.6591 23.1544H2.33685C1.48189 23.1544 0.797913 22.47 0.797913 21.6146V2.28105C0.797913 1.42558 1.48189 0.741211 2.33685 0.741211Z" fill="#686868"/>
<path d="M15.5604 18.136L10.8866 19.4477C10.4876 19.5617 10.0886 19.3336 9.97464 18.9344L6.44078 6.72975C6.32679 6.33054 6.55478 5.93132 6.95376 5.81725L11.7416 4.44851C12.8245 4.10632 14.0785 4.44851 14.8195 5.30398C16.0734 6.61569 16.0734 8.72584 14.7625 9.98052L14.6485 10.0946C16.8714 10.2657 18.5813 12.2047 18.4103 14.4289C18.3533 16.1969 17.1564 17.6227 15.5604 18.136Z" fill="#686868"/>
<path d="M16.2444 9.58107C17.0424 8.09826 16.8144 6.27327 15.7314 4.96156C14.7055 3.7639 13.0525 3.25062 11.5136 3.64984L6.5548 5.07562C5.75684 5.30374 5.30085 6.10218 5.52884 6.90061L9.1767 19.3904C9.40469 20.1888 10.2027 20.6451 11.0006 20.417L15.9594 18.9912C17.7264 18.3639 19.0373 16.881 19.3793 14.999C19.7213 12.6607 18.4103 10.4365 16.2444 9.58107ZM15.5604 18.1357L10.8866 19.5045C10.4876 19.6185 10.0887 19.3904 9.97467 18.9912L6.44081 6.78655C6.32681 6.38733 6.5548 5.98812 6.95379 5.87405L11.7986 4.50531C12.8816 4.16312 14.0785 4.50531 14.8765 5.36077C16.1304 6.67249 16.1304 8.78263 14.8195 10.0373L14.7055 10.1514C16.9284 10.2654 18.6383 12.2045 18.5243 14.4857C18.3533 16.1967 17.2134 17.6795 15.5604 18.1357Z" fill="white"/>
<path d="M16.9853 14.885C16.9853 12.8319 15.3324 11.1209 13.2805 11.1209C14.5914 9.98031 14.7624 7.9272 13.6225 6.61548L13.5655 6.55845C12.8245 5.70299 11.6275 5.3608 10.5446 5.64596L6.49774 6.78658L10.0316 18.9912C10.1456 19.3904 10.5446 19.6186 10.9436 19.5045L14.2494 18.535H14.3064C15.9024 18.0787 16.9853 16.5959 16.9853 14.885Z" fill="#686868"/>
<path d="M76.0361 20.6452C71.9892 20.6452 69.6523 18.1929 69.6523 13.3453V5.18982C69.6523 3.99217 70.3363 3.3078 71.3053 3.3078C72.2742 3.3078 72.9582 3.99217 72.9582 5.18982V13.1171C72.9582 16.3679 74.0411 17.3945 76.0361 17.3945C78.031 17.3945 79.1139 16.3679 79.1139 13.1171V5.18982C79.1139 3.99217 79.7979 3.3078 80.7669 3.3078C81.7358 3.3078 82.4198 3.99217 82.4198 5.18982V13.4023C82.4198 18.2499 80.0829 20.6452 76.0361 20.6452ZM38.9875 11.4632C40.2415 10.7218 41.0395 9.35309 41.0965 7.87028C41.0965 5.01873 39.1015 3.02264 35.0547 3.02264H30.4949C29.6399 2.96561 28.8989 3.59295 28.8419 4.44842C28.8419 4.50545 28.8419 4.56248 28.8419 4.61951V19.1054C28.7849 19.9609 29.4689 20.7023 30.3239 20.7593H30.4949L35.0547 20.8163C40.2985 20.8734 42.0084 18.5921 42.0084 15.8546C42.0084 13.9156 40.8115 12.2046 39.0445 11.5773C38.9875 11.5773 38.9875 11.5203 38.9875 11.4632C38.9875 11.5203 38.9875 11.5203 38.9875 11.4632ZM49.9311 10.4367L46.2263 4.27732C45.9983 3.70701 45.4283 3.3078 44.8013 3.3078C43.9463 3.25077 43.2054 3.87811 43.0914 4.73357V4.7906V4.84763C43.0914 5.36091 43.2624 5.81716 43.5474 6.21638L48.2782 13.8585V18.8202C48.2782 20.0179 49.0191 20.7023 49.9311 20.7023C50.9001 20.7023 51.584 20.0179 51.584 18.8202V13.7445L56.3149 6.10232C56.5998 5.7031 56.7708 5.24685 56.7708 4.73357C56.7138 3.87811 56.0299 3.19374 55.1179 3.25077H55.0609C54.4339 3.25077 53.864 3.64998 53.579 4.22029L49.9311 10.4367ZM85.9537 9.35309C86.4667 9.35309 86.9226 9.0109 87.0936 8.55465C87.5496 7.41403 87.8916 6.21638 87.9486 5.01873C87.9486 3.93514 87.4356 3.25077 86.2387 3.25077C85.0417 3.25077 84.5287 4.0492 84.5287 5.53201V6.84372C84.5857 8.49762 85.0417 9.41012 85.9537 9.35309ZM55.2889 16.1398C55.2889 17.7366 56.6568 20.7023 60.5327 20.7023C64.4085 20.7023 66.2895 18.421 66.2895 14.3718V5.24685C66.2895 4.0492 65.6055 3.36483 64.6365 3.36483C63.6676 3.36483 62.9836 4.0492 62.9836 5.24685V14.4288C62.9836 16.539 62.2996 17.5085 60.6467 17.5085C57.8538 17.5656 59.0507 14.5999 57.1128 14.4288C56.2009 14.3148 55.4599 14.9421 55.3459 15.8546C55.2889 15.9687 55.2889 16.0257 55.2889 16.1398ZM36.0807 9.9234C34.9977 10.1515 34.3137 10.5507 34.3137 11.5773C34.3137 12.6039 34.9977 13.1742 36.0807 13.3453C37.9616 13.5734 38.5886 14.2007 38.5886 15.6265C38.5886 16.9382 37.5056 17.6226 35.4537 17.6226H32.0908V6.04529H35.6817C36.7076 5.93122 37.6196 6.67263 37.7336 7.75622C37.7336 7.87028 37.7336 7.98434 37.7336 8.15544C37.7336 9.23903 37.1066 9.7523 36.0807 9.9234ZM92.1094 16.3109C91.7674 15.7976 91.1975 15.4554 90.5705 15.3413C89.7155 15.2843 89.0316 15.9687 88.9746 16.7671C88.9746 16.8242 88.9746 16.8812 88.9746 16.9382C89.0316 17.5085 89.2025 18.0218 89.6015 18.421C90.9695 20.0749 93.0214 20.9874 95.1873 20.9304C98.2652 20.9304 100.887 19.1624 100.887 16.0827C100.887 9.98043 92.7934 10.6078 92.7934 7.87028C92.7934 6.84372 93.4774 6.21638 94.6743 6.21638C95.4723 6.15935 96.2133 6.38747 96.8402 6.90075C97.4102 7.357 97.9232 8.2695 98.8922 8.2695C99.6901 8.32653 100.374 7.69918 100.431 6.90075C100.431 5.7031 99.2341 4.56248 98.2082 3.99217C97.1252 3.36483 95.8713 3.07967 94.6173 3.07967C91.9954 3.1367 89.4305 4.56248 89.4305 7.92731C89.4305 13.4023 97.5242 12.4328 97.5242 15.9117C97.5242 17.1663 96.5553 17.7937 95.1303 17.7937C94.0474 17.7366 92.9074 17.2234 92.1094 16.3109Z" fill="#686868"/>
<path d="M71.3043 3.59277C72.2733 3.59277 72.9572 4.27714 72.9572 5.47479V5.18964C72.9572 3.99199 72.2733 3.30762 71.3043 3.30762C70.3353 3.30762 69.6514 3.99199 69.6514 5.18964V5.47479C69.6514 4.33417 70.3353 3.59277 71.3043 3.59277Z" fill="#686868"/>
<path d="M72.9572 13.4591C72.9572 16.7099 74.0401 17.7365 76.035 17.7365C78.03 17.7365 79.1129 16.7099 79.1129 13.4591V13.1169C79.1129 16.3677 78.03 17.3943 76.035 17.3943C74.0401 17.3943 72.9572 16.3677 72.9572 13.1169V13.4591Z" fill="#686868"/>
<path d="M92.9064 7.98413C92.9064 8.04116 92.9064 8.09819 92.9064 8.15523C92.9064 10.8357 100.829 10.2654 101 16.1966C101 16.1396 101 16.0825 101 16.0825C100.943 10.0372 93.1344 10.5505 92.9064 7.98413Z" fill="#686868"/>
<path d="M44.8003 3.59271C45.4272 3.59271 45.9972 3.99193 46.2822 4.56224L49.9301 10.7216L53.6349 4.56224C53.8629 3.99193 54.4329 3.59271 55.1169 3.59271C55.9718 3.53568 56.6558 4.16302 56.7698 4.96145C56.7698 4.90442 56.7698 4.84739 56.7698 4.79036C56.7128 3.9349 56.0288 3.25052 55.1169 3.30755H55.0599C54.4329 3.30755 53.8629 3.70677 53.5779 4.27708L49.9301 10.4364L46.2822 4.27708C46.0542 3.70677 45.4842 3.30755 44.8003 3.30755C43.9453 3.25052 43.2043 3.87786 43.0903 4.73333V4.79036V4.84739C43.0903 4.90442 43.0903 4.96145 43.0903 5.01848C43.2043 4.10599 43.9453 3.53568 44.8003 3.59271Z" fill="#686868"/>
<path d="M90.6263 15.6263C91.2533 15.7403 91.8233 16.0825 92.1653 16.5958C92.9633 17.5083 94.0462 18.0216 95.2432 18.0216C96.6681 18.0216 97.6371 17.3942 97.6371 16.1396C97.6371 16.0825 97.6371 16.0255 97.6371 15.9685C97.5801 17.1091 96.6111 17.6794 95.2432 17.6794C94.0462 17.6794 92.9063 17.1091 92.1653 16.2536C91.8233 15.7403 91.2533 15.3982 90.6263 15.2841C89.7714 15.2271 89.0874 15.9114 89.0874 16.7099C89.0874 16.7669 89.0874 16.8239 89.0874 16.881C89.0874 16.938 89.0874 16.995 89.0874 16.995C89.0874 16.2536 89.7144 15.6263 90.6263 15.6263C90.5693 15.6263 90.5693 15.6263 90.6263 15.6263Z" fill="#686868"/>
<path d="M94.7303 3.36465C95.9842 3.36465 97.2382 3.6498 98.3211 4.27714C99.2901 4.84745 100.43 5.93104 100.544 7.01463C100.544 6.9576 100.544 6.90057 100.544 6.84354C100.544 5.64589 99.3471 4.50527 98.3211 3.93496C97.2382 3.30762 95.9842 3.02246 94.7303 3.02246C92.1084 3.07949 89.5435 4.50527 89.5435 7.8701C89.5435 7.92713 89.5435 7.98416 89.5435 8.04119C89.6005 4.79042 92.1654 3.36465 94.7303 3.36465Z" fill="#686868"/>
<path d="M55.2878 16.1395C55.2878 16.1965 55.2878 16.2536 55.2878 16.3106C55.2878 15.3981 56.0288 14.7137 56.9407 14.7708H57.0547C59.0496 14.9418 57.8527 17.8504 60.5886 17.8504C62.2415 17.8504 62.9255 16.8239 62.9255 14.7708V14.4856C62.9255 16.5957 62.2415 17.5653 60.5886 17.5653C57.7957 17.6223 58.9926 14.6567 57.0547 14.5426C56.1997 14.4286 55.4018 15.0559 55.2878 15.9684C55.2878 15.9684 55.2878 16.0254 55.2878 16.1395Z" fill="#686868"/>
<path d="M80.7657 3.30762C79.7968 3.30762 79.1128 3.99199 79.1128 5.18964V5.47479C79.1128 4.27714 79.7968 3.59277 80.7657 3.59277C81.7347 3.59277 82.4187 4.27714 82.4187 5.47479V5.18964C82.4187 3.99199 81.7347 3.30762 80.7657 3.30762Z" fill="#686868"/>
<path d="M86.2945 3.25049C85.0976 3.30752 84.5846 4.04892 84.5846 5.53173V5.81689C84.5846 4.39111 85.0976 3.59267 86.2945 3.53564C87.1495 3.42158 87.8905 3.99189 88.0045 4.84736C88.0045 4.96142 88.0045 5.07548 88.0045 5.13251C88.0045 5.07548 88.0045 5.01845 88.0045 4.96142C88.0045 3.93486 87.4915 3.25049 86.2945 3.25049Z" fill="#686868"/>
<path d="M64.6354 3.30762C63.6095 3.30762 62.9825 3.99199 62.9825 5.18964V5.47479C62.9825 4.27714 63.6095 3.59277 64.6354 3.59277C65.6614 3.59277 66.2883 4.27714 66.2883 5.47479V5.18964C66.2883 3.99199 65.6044 3.30762 64.6354 3.30762Z" fill="#686868"/>
<path d="M30.4368 3.36517H34.9966C38.9294 3.36517 40.9244 5.30422 41.0384 8.04172C41.0384 7.98468 41.0384 7.92765 41.0384 7.92765C41.0384 5.0761 39.0434 3.08001 34.9966 3.08001H30.4368C29.5818 3.02298 28.8408 3.65032 28.7838 4.50579C28.7838 4.56282 28.7838 4.61985 28.7838 4.67688V4.96204C28.7268 4.10657 29.4108 3.36517 30.2658 3.30814H30.4368V3.36517Z" fill="#686868"/>
<path d="M36.0796 9.92309C34.9967 10.1512 34.3127 10.5504 34.3127 11.577C34.3127 11.634 34.3127 11.691 34.3127 11.7481C34.3697 10.8356 35.0537 10.4364 36.0796 10.2082C37.1056 9.98012 37.7325 9.46684 37.7325 8.38325C37.7325 8.32622 37.7325 8.26919 37.7325 8.21216C37.6756 9.23872 37.0486 9.752 36.0796 9.92309Z" fill="#686868"/>
<path d="M35.3957 17.9645C37.4476 17.9645 38.5306 17.2802 38.5306 15.9685C38.5306 15.9114 38.5306 15.8544 38.5306 15.7974C38.4736 17.052 37.3906 17.6794 35.3957 17.6794H32.0328V17.9645H35.3957Z" fill="#686868"/>
<path d="M38.9294 11.5772C38.9294 11.5202 38.9294 11.5202 38.9294 11.5772C38.9294 11.5202 38.9294 11.5202 38.9294 11.5772L38.7584 11.6342C38.7014 11.6913 38.7014 11.7483 38.7584 11.7483C38.7584 11.7483 38.7584 11.7483 38.8154 11.7483L38.9864 11.8053C40.7533 12.4327 41.9503 14.1436 41.9503 16.0256C41.9503 15.9686 41.9503 15.9116 41.9503 15.8545C41.9503 15.3412 41.8933 14.828 41.7223 14.3717C41.2663 13.06 40.2403 12.0334 38.9294 11.5772Z" fill="#686868"/>
</svg>
