<svg width="150" height="25" viewBox="0 0 150 25" fill="none" xmlns="http://www.w3.org/2000/svg">
<path d="M43.32 13.84H44.72C44.18 16.34 42.04 18.02 39.2 18.02C35.86 18.02 33.18 15.54 33.18 12.24C33.18 8.96002 35.86 6.48002 39.2 6.48002C42.04 6.48002 44.16 8.14002 44.72 10.66H43.32C42.84 8.84002 41.32 7.70002 39.2 7.70002C36.58 7.70002 34.54 9.64002 34.54 12.24C34.54 14.84 36.58 16.8 39.2 16.8C41.3 16.82 42.84 15.64 43.32 13.84ZM59.14 12.26C59.14 15.48 56.56 18.02 53.38 18.02C50.18 18.02 47.62 15.46 47.62 12.26C47.62 9.04002 50.2 6.50002 53.38 6.50002C56.56 6.50002 59.14 9.04002 59.14 12.26ZM57.84 12.26C57.84 9.74002 55.88 7.70002 53.38 7.70002C50.88 7.70002 48.92 9.74002 48.92 12.26C48.92 14.78 50.88 16.82 53.38 16.82C55.88 16.82 57.84 14.78 57.84 12.26ZM72.84 6.50002V18.04H71.78L64.74 8.94002V18.04H63.46V6.50002H64.5L71.56 15.72V6.50002H72.84ZM79.22 7.72002V11.96H85.1V13.2H79.22V18.02H77.88V6.48002H85.82V7.72002H79.22ZM98.08 16.8V18.04H90.14V6.50002H91.52V16.8H98.08ZM110.34 12.98C110.34 16 108.32 18.04 105.3 18.04C102.26 18.04 100.26 16 100.26 12.98V6.50002H101.62V12.98C101.62 15.2 103.08 16.8 105.3 16.8C107.5 16.8 108.98 15.2 108.98 12.98V6.50002H110.36V12.98H110.34ZM116.7 7.72002V11.68H122.64V12.92H116.7V16.78H123.32V18.02H115.38V6.48002H123.32V7.72002H116.7ZM136.3 6.50002V18.04H135.24L128.2 8.94002V18.04H126.92V6.50002H127.96L135.02 15.72V6.50002H136.3ZM150 7.72002H145.94V18.02H144.66V7.72002H140.62V6.48002H150V7.72002ZM17.58 12.96C18.22 12.92 18.84 12.9 19.48 12.86V12.38C18.84 12.34 18.22 12.32 17.58 12.28L15.68 12.22C14.56 12.18 13.46 12.18 12.34 12.16C12.34 11.04 12.34 9.94002 12.3 8.82002L12.24 6.92002C12.2 6.28002 12.18 5.66002 12.14 5.02002H11.6C11.56 5.66002 11.54 6.28002 11.5 6.92002L11.44 8.82002C11.42 9.34002 11.42 9.86002 11.42 10.38C11.22 9.90002 11 9.42002 10.8 8.94002L10.02 7.22002C9.74005 6.66002 9.48005 6.08002 9.20005 5.50002L8.70005 5.70002C8.90005 6.30002 9.12005 6.88002 9.34005 7.48002L10.02 9.24002C10.2 9.72002 10.4 10.22 10.6 10.7C10.22 10.34 9.86005 9.98002 9.48005 9.62002L8.10005 8.32002C7.64005 7.90002 7.18005 7.46002 6.70005 7.04002L6.32005 7.42002C6.74005 7.90002 7.16005 8.36002 7.60005 8.82002L8.90005 10.2C9.26005 10.58 9.62005 10.96 9.98005 11.32C9.50005 11.12 9.02005 10.94 8.52005 10.74L6.76005 10.06C6.16005 9.84002 5.58005 9.62002 4.98005 9.42002L4.78005 9.92002C5.34005 10.2 5.92005 10.46 6.50005 10.74L8.22005 11.52C8.70005 11.74 9.18005 11.94 9.66005 12.14C9.14005 12.14 8.62005 12.16 8.10005 12.16L6.20005 12.22C5.56005 12.26 4.94005 12.28 4.30005 12.32V12.86C4.94005 12.9 5.56005 12.92 6.20005 12.96L8.10005 13.02C9.22005 13.06 10.32 13.06 11.44 13.06C11.44 14.18 11.46 15.28 11.48 16.4L11.54 18.3C11.58 18.94 11.6 19.56 11.64 20.2H12.12C12.16 19.56 12.18 18.94 12.22 18.3L12.28 16.4C12.3 15.86 12.3 15.34 12.32 14.8C12.54 15.3 12.74 15.78 12.96 16.26L13.74 17.98C14.02 18.54 14.28 19.12 14.56 19.7L15 19.52C14.8 18.92 14.58 18.32 14.36 17.74L13.68 15.96C13.5 15.46 13.3 14.96 13.1 14.46C13.48 14.84 13.86 15.2 14.26 15.58L15.64 16.88C16.12 17.3 16.58 17.74 17.04 18.14L17.38 17.8C16.96 17.32 16.54 16.86 16.12 16.38L14.82 15C14.46 14.62 14.08 14.22 13.72 13.84C14.22 14.04 14.72 14.24 15.22 14.42L17 15.08C17.6 15.3 18.18 15.52 18.78 15.72L18.96 15.28C18.4 15 17.82 14.74 17.24 14.46L15.52 13.68C15.04 13.46 14.54 13.24 14.06 13.04C14.6 13.04 15.12 13.02 15.66 13L17.58 12.96Z" fill="#686868"/>
<path d="M12.26 24.52C5.5 24.52 0 19.02 0 12.26C0 5.5 5.5 0 12.26 0C19.02 0 24.52 5.5 24.52 12.26C24.52 19.02 19.02 24.52 12.26 24.52ZM12.26 1.14C6.14 1.14 1.14 6.12 1.14 12.26C1.14 18.4 6.12 23.38 12.26 23.38C18.38 23.38 23.38 18.4 23.38 12.26C23.38 6.14 18.38 1.14 12.26 1.14Z" fill="#686868"/>
</svg>
