<svg width="120" height="31" viewBox="0 0 120 31" fill="none" xmlns="http://www.w3.org/2000/svg">
<path d="M40.8562 19.9762V11.0238C40.8562 10.4734 41.3027 10.0243 41.85 10.0243C42.3973 10.0243 42.8438 10.4734 42.8438 11.0238V19.981C42.8438 20.5315 42.3973 20.9805 41.85 20.9805C41.3363 20.9757 40.8562 20.5266 40.8562 19.9762ZM52.2248 20.3576L47.9088 13.4333V19.9762C47.9088 20.5266 47.4623 20.9757 46.915 20.9757C46.3677 20.9757 45.9212 20.5266 45.9212 19.9762V11.2991C45.9212 10.5748 46.5021 9.9567 47.2559 9.9567H47.3231C47.7696 9.9567 48.2112 10.1981 48.4513 10.5748L52.7337 17.3928V10.9514C52.7337 10.4009 53.1802 9.95187 53.7275 9.95187C54.2749 9.95187 54.7213 10.4009 54.7213 10.9514V19.6333C54.7213 20.3576 54.1404 20.9757 53.3867 20.9757C52.9114 20.9757 52.4649 20.7681 52.2248 20.3576ZM61.6443 11.8833V20.0824C61.6443 20.5991 61.2314 21.0143 60.7177 21.0143H60.5785C60.0648 21.0143 59.6519 20.5991 59.6519 20.0824V11.8833H57.3571C56.8434 11.8833 56.4305 11.4681 56.4305 10.9514C56.4305 10.4347 56.8434 10.0195 57.3571 10.0195H63.968C64.4817 10.0195 64.8946 10.4347 64.8946 10.9514C64.8946 11.4681 64.4817 11.8833 63.968 11.8833H61.6443ZM66.4741 20.0824V10.8838C66.4741 10.4009 66.887 9.9905 67.3623 9.9905H73.3539C73.834 9.9905 74.2421 10.4058 74.2421 10.8838C74.2421 11.3618 73.8292 11.7771 73.3539 11.7771H68.4569V14.3266H72.6673C73.1474 14.3266 73.5555 14.7419 73.5555 15.2199C73.5555 15.698 73.1426 16.1132 72.6673 16.1132H68.4569V19.1118H73.3539C73.834 19.1118 74.2421 19.5271 74.2421 20.0051C74.2421 20.4832 73.8292 20.8984 73.3539 20.8984H67.3623C66.8822 20.9757 66.4741 20.5991 66.4741 20.0824ZM82.6389 20.3914L81.0642 16.8424H78.6349V20.01C78.6349 20.5604 78.1884 21.0095 77.6411 21.0095H77.6075C77.0602 21.0095 76.6137 20.5604 76.6137 20.01V11.0238C76.6137 10.4734 77.0602 10.0243 77.6075 10.0243H81.237C83.8392 10.0243 85.0394 11.6757 85.0394 13.4333C85.0394 14.9157 84.2521 16.0505 83.0518 16.4995L84.4201 19.5995C84.6937 20.2562 84.2472 20.9757 83.5319 20.9757C83.1526 20.9757 82.7734 20.7681 82.6389 20.3914ZM81.2659 11.7433H78.6637V15.0171H81.2995C82.4277 15.0171 83.0806 14.4329 83.0806 13.3995C83.047 12.54 82.3989 11.7433 81.2659 11.7433ZM94.4877 19.8748C93.6667 20.7005 92.5337 21.1833 91.3719 21.1833C90.21 21.1833 89.1106 20.8067 88.2897 19.9424C87.0894 18.7352 86.9214 17.2914 86.9214 15.5C86.9214 13.7086 87.0942 12.2262 88.2897 11.0576C89.1106 10.2319 90.2052 9.81667 91.3719 9.81667C92.5385 9.81667 93.6667 10.2657 94.4877 11.0914C94.7613 11.4005 95.0014 11.7095 95.1742 12.091C95.4815 12.7477 95.0014 13.4671 94.2861 13.4671C93.8732 13.4671 93.5323 13.2257 93.3595 12.8491C93.2923 12.6414 93.153 12.4724 93.0186 12.2986C92.6777 11.8495 92.0584 11.6081 91.3767 11.6081C90.7622 11.6081 90.1428 11.8833 89.6963 12.3324C88.9426 13.1243 88.9426 14.4667 88.9426 15.5C88.9426 16.4995 88.9426 17.8757 89.6963 18.6676C90.1428 19.1167 90.7574 19.3919 91.3767 19.3919C92.0632 19.3919 92.6777 19.1505 93.0186 18.7014C93.1578 18.5276 93.2923 18.3248 93.3595 18.1171C93.4987 17.7405 93.8732 17.4991 94.2861 17.4991C95.0062 17.4991 95.4863 18.2234 95.1742 18.8752C95.0014 19.2567 94.7613 19.5995 94.4877 19.8748ZM105.136 19.9424C104.315 20.7681 103.149 21.1833 101.987 21.1833C100.825 21.1833 99.6919 20.7681 98.8374 19.9424C97.6371 18.7352 97.4691 17.2914 97.4691 15.5C97.4691 13.7086 97.6755 12.2262 98.8374 11.0576C99.6583 10.2319 100.825 9.81667 101.987 9.81667C103.153 9.81667 104.282 10.2319 105.136 11.0576C106.336 12.2648 106.504 13.7086 106.504 15.5C106.543 17.2914 106.336 18.7738 105.136 19.9424ZM103.734 12.3662C103.288 11.9171 102.64 11.6419 102.02 11.6419C101.406 11.6419 100.719 11.9171 100.306 12.3662C99.5527 13.1581 99.5191 14.5005 99.5191 15.5338C99.5191 16.5333 99.5527 17.8757 100.306 18.6676C100.753 19.1167 101.401 19.3919 102.02 19.3919C102.635 19.3919 103.321 19.1167 103.734 18.6676C104.488 17.8757 104.522 16.5333 104.522 15.5338C104.522 14.5005 104.488 13.1243 103.734 12.3662ZM118.051 20.01V13.1533L115.482 20.15C115.343 20.5653 114.935 20.8405 114.488 20.8405C114.042 20.8405 113.668 20.5653 113.495 20.15L110.926 13.0567V20.0148C110.926 20.5653 110.48 20.9805 109.966 20.9805C109.419 20.9805 109.006 20.5315 109.006 20.0148V11.5067C109.006 10.681 109.692 9.9905 110.513 9.9905H110.653C111.267 9.9905 111.853 10.3671 112.054 10.99L114.556 17.8081L117.091 10.99C117.297 10.4058 117.878 9.9905 118.492 9.9905C119.313 9.9905 120 10.681 120 11.5067V20.0148C120 20.5653 119.554 20.9805 119.04 20.9805C118.459 20.9757 118.051 20.5653 118.051 20.01ZM26.9862 0H3.86957C1.71394 0 0 1.72383 0 3.8581V27.1081C0 29.2762 1.71394 31 3.86957 31H26.9862C29.1082 31 30.8222 29.2762 30.8222 27.1419V3.8919C30.8222 1.72383 29.1082 0 26.9862 0ZM19.5207 5.68333C19.5207 5.09907 19.9672 4.65 20.5481 4.65C21.129 4.65 21.5755 5.09907 21.5755 5.68333V19.4933C21.5755 20.0776 21.129 20.5266 20.5481 20.5266C19.9672 20.5266 19.5207 20.0776 19.5207 19.4933V5.68333ZM14.3837 5.16667C14.3837 4.5824 14.8302 4.13333 15.4111 4.13333C15.992 4.13333 16.4385 4.5824 16.4385 5.16667V20.15C16.4385 20.7343 15.992 21.1833 15.4111 21.1833C14.8302 21.1833 14.3837 20.7343 14.3837 20.15V5.16667ZM9.24665 5.68333C9.24665 5.09907 9.69314 4.65 10.2741 4.65C10.855 4.65 11.3015 5.09907 11.3015 5.68333V19.4933C11.3015 20.0776 10.855 20.5266 10.2741 20.5266C9.69314 20.5266 9.24665 20.0776 9.24665 19.4933V5.68333ZM4.10962 7.75C4.10962 7.16573 4.55611 6.71667 5.13703 6.71667C5.71794 6.71667 6.16443 7.16573 6.16443 7.75V17.05C6.16443 17.6343 5.71794 18.0833 5.13703 18.0833C4.55611 18.0833 4.10962 17.6343 4.10962 17.05V7.75ZM26.3717 23.5252C26.1988 23.6653 22.4013 26.8667 15.4111 26.8667C8.42088 26.8667 4.62332 23.6653 4.45049 23.5252C4.004 23.1486 3.97039 22.4919 4.34967 22.0766C4.72414 21.6276 5.37708 21.5938 5.78996 21.9752C5.85717 21.9752 9.24665 24.8 15.4111 24.8C21.6427 24.8 24.9986 21.9752 24.9986 21.9414C25.4451 21.5648 26.0932 21.6324 26.4389 22.0428C26.847 22.4919 26.7798 23.1486 26.3717 23.5252ZM26.7125 17.05C26.7125 17.6343 26.2661 18.0833 25.6851 18.0833C25.1042 18.0833 24.6577 17.6343 24.6577 17.05V7.75C24.6577 7.16573 25.1042 6.71667 25.6851 6.71667C26.2661 6.71667 26.7125 7.16573 26.7125 7.75V17.05Z" fill="#686868"/>
</svg>
