<svg width="95" height="22" viewBox="0 0 95 22" fill="none" xmlns="http://www.w3.org/2000/svg">
<path d="M92.2956 15.8513C90.7957 15.856 89.5865 17.0746 89.5912 18.5744V18.5791C89.5818 20.0789 90.7911 21.3022 92.2909 21.3069H92.2956C93.786 21.3069 94.9999 20.0836 94.9999 18.5791C95.0093 17.0793 93.8001 15.856 92.3003 15.8513C92.3003 15.8513 92.3003 15.8513 92.2956 15.8513ZM83.395 13.7422C83.395 11.6752 81.6468 10.0067 79.4908 10.0067C77.3348 10.0067 75.5866 11.6799 75.5866 13.7422C75.5866 15.8044 77.3348 17.4777 79.4955 17.4777C81.6562 17.4777 83.395 15.8044 83.395 13.7422ZM83.4138 6.47738H87.7211V21.0023H83.4138V20.0742C82.1577 20.9413 80.6672 21.4053 79.1393 21.4053C74.9445 21.4053 71.5464 17.9745 71.5464 13.7422C71.5464 9.50984 74.9445 6.07898 79.1393 6.07898C80.7235 6.07898 82.1952 6.56643 83.4138 7.41008V6.47738ZM48.9318 8.3709V6.48206H44.5214V21.0023H48.9412V14.2202C48.9412 11.933 51.3972 10.705 53.1032 10.705H53.1548V6.48206C51.4019 6.48206 49.7942 7.23666 48.9318 8.3709ZM37.9409 13.7422C37.9409 11.6752 36.1927 10.0067 34.0367 10.0067C31.8807 10.0067 30.1325 11.6799 30.1325 13.7422C30.1325 15.8044 31.8807 17.4777 34.0414 17.4777C36.2021 17.4777 37.9409 15.8044 37.9409 13.7422ZM37.955 6.47738H42.267V21.0023H37.955V20.0742C36.7364 20.9132 35.2694 21.4053 33.6805 21.4053C29.4857 21.4053 26.0876 17.9745 26.0876 13.7422C26.0876 9.50984 29.4857 6.07898 33.6805 6.07898C35.2647 6.07898 36.7364 6.56643 37.955 7.41008V6.47738ZM63.8879 6.08836C62.1678 6.08836 60.5414 6.62736 59.4494 8.11312V6.47738H55.1608V20.9976H59.5056V13.3719C59.5056 11.1643 60.9726 10.0816 62.7396 10.0816C64.6331 10.0816 65.7252 11.2253 65.7252 13.3438V21.0069H70.0278V11.7736C70.0231 8.38966 67.361 6.08836 63.8879 6.08836ZM19.8118 21.0023H24.3253V0.00937449H19.8165V21.0023H19.8118ZM0 21.0069H4.77601V0.00468724H0V21.0069ZM16.709 0.00468724C16.709 4.55104 14.9514 8.78336 11.8205 11.9236L18.4197 21.0069H12.5236L5.35251 11.1362L7.20386 9.73481C10.2598 7.43352 12.0502 3.82456 12.0314 0H16.7043H16.709V0.00468724Z" fill="#686868"/>
</svg>
