<svg width="114" height="18" viewBox="0 0 114 18" fill="none" xmlns="http://www.w3.org/2000/svg">
<path d="M10.6453 0.0250249C12.6223 -0.108042 14.6373 0.291153 16.4052 1.1846C19.0285 2.47725 21.1196 4.79641 22.089 7.53378C22.5263 8.75039 22.7544 10.024 22.7544 11.3167V16.0881C22.7544 16.2782 22.7544 16.4873 22.7164 16.6773C22.6023 17.1526 22.2601 17.5898 21.8039 17.7989C21.4807 17.951 21.1196 17.97 20.7964 17.913C20.074 17.7799 19.5038 17.0956 19.5038 16.3542C19.5038 14.8714 19.5038 13.3887 19.5038 11.906C19.5228 11.4878 19.5228 11.0315 19.2947 10.6704C18.9335 9.98601 18.021 9.66284 17.3177 9.94798C16.7094 10.1571 16.2721 10.7844 16.2531 11.4307C16.2531 12.9325 16.2531 14.4342 16.2531 15.936C16.2531 16.2211 16.2721 16.5063 16.1771 16.7724C16.025 17.3047 15.5878 17.7229 15.0555 17.875C14.3522 18.065 13.5538 17.7609 13.2116 17.1146C12.9645 16.7344 12.9835 16.2591 13.0025 15.8219C13.0025 14.3202 13.0025 12.8374 13.0025 11.3357C12.9835 10.5753 12.3562 9.89096 11.6148 9.79591C11.1206 9.71987 10.6073 9.89096 10.2461 10.2331C9.92296 10.5373 9.75188 10.9745 9.75188 11.4117V15.7649C9.75188 16.1261 9.7899 16.5063 9.65683 16.8484C9.44773 17.4758 8.82041 17.932 8.15508 17.913C7.47074 17.951 6.8054 17.4758 6.5963 16.8484C6.48224 16.5253 6.50125 16.2021 6.50125 15.8599C6.50125 14.3582 6.50125 12.8564 6.50125 11.3547C6.50125 10.6133 5.91196 9.92898 5.1896 9.79591C4.52426 9.66284 3.8019 9.986 3.45973 10.5943C3.32666 10.8414 3.25063 11.1266 3.25063 11.4117V16.2972C3.25063 16.7724 3.04152 17.2476 2.68034 17.5518C2.12906 18.027 1.23562 18.065 0.665333 17.6278C0.247124 17.3427 0 16.8484 0 16.3352V11.3927C0 9.52978 0.475238 7.66685 1.36868 6.01302C2.09105 4.66335 3.09855 3.46574 4.29615 2.51527C6.06403 1.03252 8.32616 0.158091 10.6453 0.0250249Z" fill="#686868"/>
<path d="M55.0706 5.74685H52.5994C52.6944 4.01698 53.0556 2.4582 54.6334 1.46971C56.2112 0.500222 57.941 0.272108 59.7469 0.424184C60.7164 0.500222 61.6859 0.709329 62.5794 1.12754C64.1571 1.8499 64.9365 3.08552 64.9365 4.81538C64.9365 7.87591 64.9365 10.9364 64.9365 13.997C64.9365 15.1185 65.1646 15.3276 66.2862 15.2136C66.4003 15.1946 66.5333 15.1756 66.6474 15.1566C66.6664 15.2136 66.6664 15.2706 66.6664 15.3086V17.1716C65.773 17.4757 64.8605 17.5708 63.967 17.3236C63.3017 17.1335 62.8835 16.6583 62.6554 16.031C62.5413 15.7078 62.4653 15.3657 62.3703 15.0045C62.2752 15.1185 62.1992 15.2136 62.1041 15.3086C60.1461 17.2856 57.827 18.122 55.0896 17.4187C53.1506 16.9244 51.82 15.1566 51.7629 13.1416C51.7439 12.4952 51.801 11.8489 51.953 11.2216C52.3142 9.77687 53.3407 8.90242 54.6334 8.31313C55.5458 7.89492 56.5343 7.78086 57.5228 7.6478C58.6824 7.49572 59.823 7.36266 60.9826 7.19157C61.7619 7.07751 62.1611 6.65931 62.2752 5.87992C62.5223 4.30213 61.819 3.25661 60.2982 2.87642C59.3858 2.6483 58.4543 2.61028 57.5228 2.78137C56.1541 3.02849 55.3938 3.80788 55.1276 5.15756C55.1466 5.34765 55.1086 5.53774 55.0706 5.74685ZM62.3512 8.78837C61.2107 9.39667 60.1081 9.54875 58.9866 9.71984C58.0551 9.87191 57.1046 10.005 56.1922 10.2901C54.9946 10.6893 54.4433 11.6778 54.5573 13.0085C54.6524 14.111 55.3938 15.0045 56.5914 15.1946C58.4353 15.4987 60.0701 14.9855 61.3627 13.6168C61.7429 13.2176 62.0471 12.6473 62.1231 12.115C62.2942 11.0505 62.2752 9.96696 62.3512 8.78837ZM97.5759 11.982C97.5188 12.2481 97.4808 12.4762 97.4238 12.6853C96.3593 15.9359 94.1922 17.3236 91.5689 17.6278C87.0256 18.122 84.4213 15.1566 83.756 12.001C83.2237 9.49172 83.2997 7.00148 84.4023 4.6443C85.4478 2.42019 87.1206 0.956451 89.6109 0.519232C92.5954 -0.0130343 96.8155 1.46971 97.5188 6.12704C97.7089 7.32464 97.7469 8.56026 97.861 9.81489H86.3032C86.3983 11.5257 86.6644 13.1225 87.919 14.3582C88.4323 14.8714 89.0976 15.1185 89.82 15.2516C92.1581 15.6698 94.0971 14.5483 94.8575 12.2861C94.9335 12.039 95.0476 11.963 95.2947 11.982C96.0361 11.982 96.7775 11.982 97.5759 11.982ZM86.3983 7.60978H95.0476C94.9525 6.60228 94.7815 5.67081 94.3062 4.79637C93.85 3.95995 93.1847 3.35165 92.2722 3.0475C89.2877 2.02099 86.2082 4.39717 86.3983 7.60978ZM103.792 17.0765H101.169V0.766359H103.659V3.0475C103.849 2.8384 103.963 2.70533 104.077 2.57226C105.864 0.538245 108.107 0.00597635 110.654 0.63329C112.422 1.07051 113.411 2.32514 113.753 4.07401C113.886 4.79637 113.981 5.53774 113.981 6.26011C114 9.75786 114 13.2556 114 16.7534C114 16.8484 113.981 16.9434 113.981 17.0575H111.301V16.6203C111.301 13.3507 111.32 10.081 111.282 6.81138C111.282 6.08902 111.168 5.34765 110.959 4.6443C110.616 3.50373 109.704 2.89542 108.506 2.83839C106.32 2.76236 104.59 3.92194 104.058 5.8609C103.868 6.56426 103.811 7.30563 103.811 8.047C103.792 10.9174 103.792 13.7689 103.792 16.6013V17.0765ZM69.2137 0.766359H71.7419V7.68582C71.894 7.53374 71.9891 7.4577 72.0841 7.36265C74.1561 5.2526 76.2282 3.12354 78.3002 1.01348C78.4713 0.823385 78.6424 0.747348 78.9085 0.747348C79.878 0.766358 80.8665 0.747348 81.931 0.747348C81.779 0.899424 81.7029 0.99447 81.6079 1.08952C79.783 2.91443 77.9771 4.75836 76.1331 6.56426C75.924 6.77336 75.924 6.90643 76.0571 7.13454C78.0531 10.3091 80.0301 13.4837 82.0071 16.6583C82.0831 16.7724 82.1401 16.8864 82.2352 17.0575C82.1021 17.0765 82.0071 17.0765 81.893 17.0765C80.9806 17.0765 80.0871 17.0765 79.1747 17.0765C78.9275 17.0765 78.8135 16.9815 78.6804 16.7914C77.1596 14.2441 75.6389 11.6968 74.1181 9.13054C74.0421 9.01649 73.9851 8.90243 73.89 8.76936C73.1867 9.47271 72.5023 10.138 71.818 10.8414C71.7229 10.9364 71.7039 11.1075 71.7039 11.2406C71.7039 13.0275 71.7039 14.8144 71.7039 16.6013V17.0575C71.2097 17.0575 70.7154 17.0575 70.2402 17.0575C69.898 17.0575 69.4228 17.1526 69.2327 16.9625C69.0616 16.8104 69.1566 16.3161 69.1566 15.974V1.20358C69.2137 1.10853 69.2137 0.956454 69.2137 0.766359ZM40.0341 0.747348C37.9811 2.78137 35.9851 4.77737 33.97 6.77336C36.1371 10.2331 38.2472 13.6168 40.3953 17.0765C40.2242 17.0765 40.1101 17.0955 39.9961 17.0955C39.1216 17.0955 38.2282 17.0955 37.3537 17.0955C37.1066 17.0955 36.9545 17.0005 36.8215 16.7914C35.3007 14.2441 33.78 11.6968 32.2592 9.13054C32.2022 9.01649 32.1261 8.92144 32.0311 8.76936C31.6509 9.16856 31.3087 9.60578 30.8905 9.90993C30.0351 10.5563 29.788 11.3547 29.845 12.4192C29.94 13.8069 29.864 15.2136 29.864 16.6013V17.0575H27.3547V0.766359H29.864V7.57176C29.921 7.60978 29.978 7.6478 30.0161 7.68582C30.0921 7.57176 30.1301 7.4387 30.2062 7.34365C32.2592 5.23359 34.3312 3.14255 36.3843 1.01348C36.5743 0.823385 36.7454 0.728339 37.0306 0.747348C37.886 0.766358 38.7414 0.747348 39.5969 0.747348C39.7299 0.747348 39.844 0.747348 40.0341 0.747348ZM45.0526 3.46571C46.3262 1.60277 47.6759 0.0439988 50.1852 0.500227V3.29462C49.5198 3.33264 48.8545 3.31363 48.2272 3.4467C46.6874 3.76986 45.4898 5.17656 45.2427 6.88742C45.2047 7.22959 45.1666 7.57176 45.1666 7.91394C45.1666 10.8224 45.1666 13.7308 45.1666 16.6393V17.0955H42.5814V0.804375H45.0526C45.0526 1.6598 45.0526 2.51523 45.0526 3.46571Z" fill="#686868"/>
</svg>
