<svg width="146" height="16" viewBox="0 0 146 16" fill="none" xmlns="http://www.w3.org/2000/svg">
<path d="M39.32 8.84002H40.72C40.18 11.34 38.04 13.02 35.2 13.02C31.86 13.02 29.18 10.54 29.18 7.24002C29.18 3.96002 31.86 1.48002 35.2 1.48002C38.04 1.48002 40.16 3.14002 40.72 5.66002H39.32C38.84 3.84002 37.32 2.70002 35.2 2.70002C32.58 2.70002 30.54 4.64002 30.54 7.24002C30.54 9.84002 32.58 11.8 35.2 11.8C37.3 11.82 38.84 10.64 39.32 8.84002ZM55.14 7.26002C55.14 10.48 52.56 13.02 49.38 13.02C46.18 13.02 43.62 10.46 43.62 7.26002C43.62 4.04002 46.2 1.50002 49.38 1.50002C52.56 1.50002 55.14 4.04002 55.14 7.26002ZM53.84 7.26002C53.84 4.74002 51.88 2.70002 49.38 2.70002C46.88 2.70002 44.92 4.74002 44.92 7.26002C44.92 9.78002 46.88 11.82 49.38 11.82C51.88 11.82 53.84 9.78002 53.84 7.26002ZM68.84 1.50002V13.04H67.78L60.74 3.94002V13.04H59.46V1.50002H60.5L67.56 10.72V1.50002H68.84ZM75.22 2.72002V6.96002H81.1V8.20002H75.22V13.02H73.88V1.48002H81.82V2.72002H75.22ZM94.08 11.8V13.04H86.14V1.50002H87.52V11.8H94.08ZM106.34 7.98002C106.34 11 104.32 13.04 101.3 13.04C98.26 13.04 96.26 11 96.26 7.98002V1.50002H97.62V7.98002C97.62 10.2 99.08 11.8 101.3 11.8C103.5 11.8 104.98 10.2 104.98 7.98002V1.50002H106.36V7.98002H106.34ZM112.7 2.72002V6.68002H118.64V7.92002H112.7V11.78H119.32V13.02H111.38V1.48002H119.32V2.72002H112.7ZM132.3 1.50002V13.04H131.24L124.2 3.94002V13.04H122.92V1.50002H123.96L131.02 10.72V1.50002H132.3ZM146 2.72002H141.94V13.02H140.66V2.72002H136.62V1.48002H146V2.72002ZM13.58 7.96002C14.22 7.92002 14.84 7.90002 15.48 7.86002V7.38002C14.84 7.34002 14.22 7.32002 13.58 7.28002L11.68 7.22002C10.56 7.18002 9.46005 7.18002 8.34005 7.16002C8.34005 6.04002 8.34005 4.94002 8.30005 3.82002L8.24005 1.92002C8.20005 1.28002 8.18005 0.660019 8.14005 0.0200195H7.60005C7.56005 0.660019 7.54005 1.28002 7.50005 1.92002L7.44005 3.82002C7.42005 4.34002 7.42005 4.86002 7.42005 5.38002C7.22005 4.90002 7.00005 4.42002 6.80005 3.94002L6.02005 2.22002C5.74005 1.66002 5.48005 1.08002 5.20005 0.500024L4.70005 0.700024C4.90005 1.30002 5.12005 1.88002 5.34005 2.48002L6.02005 4.24002C6.20005 4.72002 6.40005 5.22002 6.60005 5.70002C6.22005 5.34002 5.86005 4.98002 5.48005 4.62002L4.10005 3.32002C3.64005 2.90002 3.18005 2.46002 2.70005 2.04002L2.32005 2.42002C2.74005 2.90002 3.16005 3.36002 3.60005 3.82002L4.90005 5.20002C5.26005 5.58002 5.62005 5.96002 5.98005 6.32002C5.50005 6.12002 5.02005 5.94002 4.52005 5.74002L2.76005 5.06002C2.16005 4.84002 1.58005 4.62002 0.980049 4.42002L0.780049 4.92002C1.34005 5.20002 1.92005 5.46002 2.50005 5.74002L4.22005 6.52002C4.70005 6.74002 5.18005 6.94002 5.66005 7.14002C5.14005 7.14002 4.62005 7.16002 4.10005 7.16002L2.20005 7.22002C1.56005 7.26002 0.940049 7.28002 0.300049 7.32002V7.86002C0.940049 7.90002 1.56005 7.92002 2.20005 7.96002L4.10005 8.02002C5.22005 8.06002 6.32005 8.06002 7.44005 8.06002C7.44005 9.18002 7.46005 10.28 7.48005 11.4L7.54005 13.3C7.58005 13.94 7.60005 14.56 7.64005 15.2H8.12005C8.16005 14.56 8.18005 13.94 8.22005 13.3L8.28005 11.4C8.30005 10.86 8.30005 10.34 8.32005 9.80002C8.54005 10.3 8.74005 10.78 8.96005 11.26L9.74005 12.98C10.02 13.54 10.28 14.12 10.56 14.7L11 14.52C10.8 13.92 10.58 13.32 10.36 12.74L9.68005 10.96C9.50005 10.46 9.30005 9.96002 9.10005 9.46002C9.48005 9.84002 9.86005 10.2 10.26 10.58L11.64 11.88C12.12 12.3 12.58 12.74 13.04 13.14L13.38 12.8C12.96 12.32 12.54 11.86 12.12 11.38L10.82 10C10.46 9.62002 10.08 9.22002 9.72005 8.84002C10.22 9.04002 10.72 9.24002 11.22 9.42002L13 10.08C13.6 10.3 14.18 10.52 14.78 10.72L14.96 10.28C14.4 10 13.82 9.74002 13.24 9.46002L11.52 8.68002C11.04 8.46002 10.54 8.24002 10.06 8.04002C10.6 8.04002 11.12 8.02002 11.66 8.00002L13.58 7.96002Z" fill="#686868"/>
</svg>
