<svg width="104" height="24" viewBox="0 0 104 24" fill="none" xmlns="http://www.w3.org/2000/svg">
<path d="M25.3506 2.51046H31.7922C34.1818 2.51046 35.7403 2.61088 37.0909 4.01674C38.026 5.02092 38.5455 6.22594 38.5455 7.6318C38.5455 9.03766 38.026 10.2427 36.987 11.2469C35.9481 12.251 34.5974 12.8536 31.1688 12.8536H28.0519V21.1883H25.3506C25.3506 21.1883 25.3506 2.51046 25.3506 2.51046ZM28.0519 10.7448H31.1688C32.9351 10.7448 35.6364 10.6444 35.6364 7.53138C35.6364 4.61925 33.1429 4.61925 31.6883 4.61925H28.0519V10.7448ZM47.1688 21.1883C46.961 20.5858 46.961 19.8828 46.961 19.2803C45.7143 21.3891 43.9481 21.59 42.8052 21.59C39.6883 21.59 38.026 19.8828 38.026 17.7741C38.026 16.7699 38.4416 15.0628 40.4156 13.9582C41.8701 13.1548 43.9481 13.1548 45.0909 13.1548C45.7143 13.1548 46.1299 13.1548 46.8571 13.2552C46.8571 11.6485 46.8571 10.9456 46.3377 10.3431C45.8182 9.74059 44.7792 9.53975 44.052 9.53975C41.5584 9.53975 41.3506 11.2469 41.3506 11.749H38.8571C38.961 11.046 39.0649 10.1423 39.7922 9.33891C40.8312 8.23431 42.7013 7.93305 44.1558 7.93305C46.1299 7.93305 48.2078 8.53557 48.9351 9.841C49.3506 10.6444 49.3507 11.2469 49.3507 11.8494L49.2468 18.0753C49.2468 18.2762 49.2468 19.9833 49.4545 21.2887H47.1688V21.1883V21.1883ZM45.4026 14.7615C44.3636 14.7615 40.5195 14.7615 40.5195 17.3724C40.5195 18.1757 41.039 19.5816 43.3247 19.5816C44.5714 19.5816 45.6104 19.0795 46.2338 18.1757C46.7532 17.272 46.8571 16.569 46.8571 14.7615C46.4416 14.8619 46.026 14.7615 45.4026 14.7615ZM51.5325 2.51046H54.026V21.1883H51.5325V2.51046ZM64.8312 21.1883C64.6234 20.5858 64.6234 19.8828 64.6234 19.2803C63.3766 21.3891 61.6104 21.59 60.4675 21.59C57.3507 21.59 55.6883 19.8828 55.6883 17.7741C55.6883 16.7699 56.1039 15.0628 58.0779 13.9582C59.5325 13.1548 61.6104 13.1548 62.7532 13.1548C63.3766 13.1548 63.7922 13.1548 64.5195 13.2552C64.5195 11.6485 64.5195 10.9456 64 10.3431C63.4805 9.74059 62.4416 9.53975 61.7143 9.53975C59.2208 9.53975 59.013 11.2469 59.013 11.749H56.5195C56.6234 11.046 56.7273 10.1423 57.4545 9.33891C58.4935 8.23431 60.3636 7.93305 61.8182 7.93305C63.7922 7.93305 65.8701 8.53557 66.5974 9.841C67.013 10.6444 67.013 11.2469 67.013 11.8494L66.9091 18.0753C66.9091 18.2762 66.9091 19.9833 67.1169 21.2887H64.8312V21.1883V21.1883ZM63.1688 14.7615C62.1299 14.7615 58.2857 14.7615 58.2857 17.3724C58.2857 18.1757 58.8052 19.5816 61.0909 19.5816C62.3377 19.5816 63.3766 19.0795 64 18.1757C64.5195 17.272 64.6234 16.569 64.6234 14.7615C64.1039 14.8619 63.7922 14.7615 63.1688 14.7615ZM69.2987 9.74059V8.23431H71.7922V10.3431C72.1039 9.841 73.039 8.03347 76.0519 8.03347C77.2987 8.03347 80.9351 8.43515 80.9351 12.4519V21.2887H78.3377V13.0544C78.3377 12.251 78.2338 11.4477 77.6104 10.8452C76.987 10.2427 76.052 9.94142 75.2208 9.94142C73.3507 9.94142 71.6883 11.2469 71.6883 13.8577V21.2887H69.1948V9.74059H69.2987ZM81.7662 8.23431H84.1558V5.42259L86.6494 4.61925V8.13389H89.6623V9.94142H86.6494V17.6736C86.6494 18.2762 86.6494 19.3808 88.4156 19.3808C88.9351 19.3808 89.4545 19.2803 89.6623 19.2803V21.1883C89.2468 21.2887 88.5195 21.3891 87.5844 21.3891C85.1948 21.3891 84.1558 20.6862 84.1558 18.5774V9.94142H81.7662V8.23431ZM91.4286 2.51046H94.4416V5.22176H91.4286V2.51046ZM91.6364 8.23431H94.1299V21.1883H91.6364V8.23431ZM96.5195 10.8452C96.5195 9.94142 96.4156 9.03766 96.4156 8.23431H98.9091L99.013 10.7448C99.5325 8.93724 101.091 8.33473 102.234 8.23431C102.961 8.13389 103.584 8.13389 104 8.13389V10.5439C103.896 10.5439 103.688 10.4435 103.481 10.4435C103.273 10.4435 103.065 10.4435 102.753 10.4435C99.7403 10.4435 99.1169 12.1506 99.1169 14.3598V21.2887H96.6234L96.5195 10.8452ZM9.87013 0C4.67532 0 0.415584 4.11716 0.415584 9.13808C0.415584 14.159 4.67532 18.2762 9.87013 18.2762C15.0649 18.2762 19.3247 14.159 19.3247 9.13808C19.3247 4.11716 15.0649 0 9.87013 0ZM9.87013 15.4644C6.23377 15.4644 3.32468 12.6527 3.32468 9.13808C3.32468 5.62343 6.23377 2.81172 9.87013 2.81172C13.5065 2.81172 16.4156 5.62343 16.4156 9.13808C16.3117 12.6527 13.4026 15.4644 9.87013 15.4644ZM18.2857 17.4728L9.87013 20.9874L1.45455 17.4728L0 19.9833L9.87013 24L19.7403 19.9833L18.2857 17.4728Z" fill="#686868"/>
</svg>
