<?xml version="1.0" encoding="utf-8"?>
<!-- Generator: Adobe Illustrator 26.0.1, SVG Export Plug-In . SVG Version: 6.00 Build 0)  -->
<svg version="1.1" id="Layer_1" xmlns="http://www.w3.org/2000/svg" xmlns:xlink="http://www.w3.org/1999/xlink" x="0px" y="0px"
	 viewBox="0 0 32 32" style="enable-background:new 0 0 32 32;" xml:space="preserve">
<style type="text/css">
	.st0{fill:#373737;}
	.st1{fill:url(#SVGID_1_);}
	.st2{fill:#FFFFFF;}
	.st3{fill:url(#SVGID_00000058566967257591124040000016502333862764473788_);}
	.st4{fill:#282737;}
	.st5{fill:#F2C71A;}
</style>
<linearGradient id="SVGID_1_" gradientUnits="userSpaceOnUse" x1="0" y1="16" x2="32" y2="16">
	<stop  offset="0" style="stop-color:#2D2D4F"/>
	<stop  offset="6.674807e-02" style="stop-color:#2C2C4C"/>
	<stop  offset="0.5902" style="stop-color:#29283D"/>
	<stop  offset="1" style="stop-color:#282737"/>
</linearGradient>
<path class="st1" d="M30,32H2c-1.1,0-2-0.9-2-2V2c0-1.1,0.9-2,2-2h28c1.1,0,2,0.9,2,2v28C32,31.1,31.1,32,30,32z"/>
<g>
	<path class="st2" d="M16.2,23.1c-0.2-0.2-0.4-0.2-0.6,0c-0.7,0.6-1.4,0.9-2,1c-0.8,0.1-1.6-0.2-2.5-0.7c-0.3-0.2-1.1-0.4-1.5-0.3
		c-1.3,0.1-1.5,0.2-2.2,0.5c-0.2,0.1-0.3,0.4-0.1,0.6c0,0.1,0.1,0.1,0.1,0.2c0,0,0,0,0,0c0.2,0.1,0.3,0.1,0.5,0c0,0,0,0,0,0
		c0.1-0.1,0.7-0.4,1.5-0.5c0.4,0,0.9,0,1.4,0.3c0.9,0.4,1.9,0.8,2.9,0.7c0,0,0,0,0,0c0.8-0.1,1.7-0.4,2.5-1.1
		C16.3,23.6,16.3,23.3,16.2,23.1L16.2,23.1z"/>
	<path class="st2" d="M5.2,14.7c0,3.8,2.9,6.9,6.6,6.9c3.7,0,6.5-3.1,6.5-6.9c0-3.8-2.9-6.9-6.5-6.9C8.1,7.8,5.3,10.9,5.2,14.7z
		 M6.2,14.7c0-3.4,2.5-6,5.6-6c3,0,5.6,2.6,5.6,6c0,3.3-2.6,6-5.6,6C8.7,20.7,6.2,18.1,6.2,14.7z"/>
	<path class="st2" d="M17.3,20.5c1.2,0.7,2.5,1.2,4,1.2c1.7,0,3.3-0.6,4.5-1.5c0.2-0.2,0.3-0.5,0.1-0.7c-0.1-0.2-0.5-0.3-0.7-0.1
		c-1,0.9-2.4,1.3-3.8,1.3c-1.3,0-2.5-0.4-3.4-1c-0.2,0.2-0.3,0.4-0.5,0.6C17.3,20.4,17.3,20.4,17.3,20.5L17.3,20.5z M17.9,9.7
		c1-0.6,2.1-0.9,3.4-0.9c1.5,0,2.8,0.5,3.9,1.3c0.2,0.2,0.5,0.1,0.7-0.1C26,9.8,26,9.5,25.8,9.3c-1.2-0.9-2.8-1.5-4.5-1.5
		c-1.5,0-2.9,0.4-4,1.2C17.5,9.2,17.7,9.4,17.9,9.7L17.9,9.7z"/>
</g>
</svg>
