<?xml version="1.0" encoding="utf-8"?><svg xmlns="http://www.w3.org/2000/svg" xmlns:xlink="http://www.w3.org/1999/xlink"><symbol viewBox="0 0 10.14 16.879" id="facebook" xmlns="http://www.w3.org/2000/svg"><path data-name="Icon zocial-facebook" d="M0 9.064V5.841h2.9V4.22a4 4 0 011.272-2.988A4.268 4.268 0 017.256 0h2.887v3.224H7.256a.651.651 0 00-.513.276 1.049 1.049 0 00-.226.684V5.84h3.626v3.224H6.521v7.816H2.902V9.064z"/></symbol><symbol viewBox="0 0 16 16" id="instagram" xmlns="http://www.w3.org/2000/svg"><path d="M16 4.7C15.9 1.8 14.3.2 11.3.1 10.4 0 10.2 0 8 0H4.7C1.8.2.2 1.8 0 4.7v6.6c.1 2.9 1.7 4.5 4.7 4.7h6.6c2.9-.1 4.5-1.7 4.7-4.7V4.7zm-8 6c-1.5 0-2.7-1.2-2.7-2.7 0-1.5 1.2-2.7 2.7-2.7s2.7 1.2 2.7 2.7c0 1.5-1.2 2.7-2.7 2.7zm4.3-6c-.5 0-1-.4-1-1s.4-1 1-1c.5 0 1 .4 1 1-.1.6-.5 1-1 1z"/></symbol><symbol viewBox="0 0 62 51" id="logo" xmlns="http://www.w3.org/2000/svg"><path d="M32.614 45.791c-.475-.505-1.21-.504-1.721-.077-2.172 1.915-4.128 2.736-6.03 2.867-2.392.165-4.903-.693-7.495-2.032-.965-.475-3.303-1.068-4.599-.946-3.932.37-4.51.713-6.487 1.592-.598.266-.758 1.1-.425 1.666.06.192.218.33.376.514l.051-.003c.46.262.901.282 1.374.003l.047-.004c.323-.316 2.222-1.23 4.467-1.385a8.06 8.06 0 014.172.79c2.692 1.334 5.562 2.412 8.684 2.196l.048-.003c2.44-.168 4.97-1.176 7.514-3.411.456-.474.451-1.257.024-1.767zM0 20.711c.06 11.435 8.696 20.712 19.724 20.712 10.914 0 19.49-9.277 19.55-20.712C39.214 9.277 30.638 0 19.724 0 8.696 0 .06 9.277 0 20.711zm2.86 0c0-10.092 7.588-17.794 16.864-17.794 8.989 0 16.572 7.702 16.633 17.794-.06 9.977-7.644 17.852-16.633 17.852-9.276 0-16.864-7.875-16.864-17.852zM35.888 37.81c3.434 2.226 7.577 3.526 12.037 3.526 5.075 0 9.736-1.686 13.334-4.419.65-.464.767-1.51.178-2.033-.413-.698-1.358-.815-2.066-.35-3.068 2.558-7.08 3.953-11.446 3.953-3.8 0-7.32-1.08-10.252-2.928a19.55 19.55 0 01-1.447 1.879c-.112.126-.225.251-.338.373zm2.014-32.1c2.886-1.771 6.322-2.795 10.023-2.795 4.366 0 8.379 1.512 11.564 3.953.59.464 1.535.407 2.006-.29.531-.524.413-1.511-.236-2.035A22.109 22.109 0 0047.925.067c-4.444.023-8.572 1.317-11.998 3.537.661.54 1.317 1.234 1.975 2.107z"/></symbol><symbol viewBox="0 0 24 24" id="youtube" xmlns="http://www.w3.org/2000/svg"><style>.dst1{fill:#837272}</style><path class="dst1" d="M12 24C5.4 24 0 18.6 0 12S5.4 0 12 0s12 5.4 12 12-5.4 12-12 12zm0-23C5.9 1 1 5.9 1 12s4.9 11 11 11 11-4.9 11-11S18.1 1 12 1z"/><path class="dst1" d="M17.9 8.4c-.1-.6-.5-1-1.1-1.3-1.6-.2-3.2-.3-4.7-.3-1.6 0-3.2.1-4.7.3-.5.2-.9.7-1.1 1.3-.2 1.2-.3 2.3-.3 3.5 0 1.2.1 2.3.3 3.5.1.6.5 1 1.1 1.3 1.6.2 3.2.3 4.7.3 1.6 0 3.2-.1 4.7-.3.5-.2.9-.7 1.1-1.3.2-1.2.3-2.3.3-3.5-.1-1.2-.1-2.4-.3-3.5zm-7 5.6V9.7l3.2 2.2-3.2 2.1z"/></symbol></svg>