<?xml version="1.0" encoding="utf-8"?><svg xmlns="http://www.w3.org/2000/svg" xmlns:xlink="http://www.w3.org/1999/xlink"><symbol fill="none" viewBox="0 0 29 29" id="arrow" xmlns="http://www.w3.org/2000/svg"><path d="M22.354 15.354a.5.5 0 000-.708l-3.182-3.182a.5.5 0 10-.707.708L21.293 15l-2.828 2.828a.5.5 0 10.707.707l3.182-3.181zM7 15.5h15v-1H7v1z" stroke="currentColor"/></symbol><symbol fill="none" viewBox="0 0 21 20" id="linkedin" xmlns="http://www.w3.org/2000/svg"><path d="M5 20H0V7h5v13zm9-9a2 2 0 00-2 2v7H7V7h5v1.485a6.307 6.307 0 013.99-1.495c2.962 0 5.01 2.2 5.01 6.355V20h-5v-7a2 2 0 00-2-2zM5 2.5a2.5 2.5 0 11-5 0 2.5 2.5 0 015 0z" fill="currentColor"/></symbol><symbol viewBox="0 0 62 51" id="logo" xmlns="http://www.w3.org/2000/svg"><path d="M32.614 45.791c-.475-.505-1.21-.504-1.721-.077-2.172 1.915-4.128 2.736-6.03 2.867-2.392.165-4.903-.693-7.495-2.032-.965-.475-3.303-1.068-4.599-.946-3.932.37-4.51.713-6.487 1.592-.598.266-.758 1.1-.425 1.666.06.192.218.33.376.514l.051-.003c.46.262.901.282 1.374.003l.047-.004c.323-.316 2.222-1.23 4.467-1.385a8.06 8.06 0 014.172.79c2.692 1.334 5.562 2.412 8.684 2.196l.048-.003c2.44-.168 4.97-1.176 7.514-3.411.456-.474.451-1.257.024-1.767zM0 20.711c.06 11.435 8.696 20.712 19.724 20.712 10.914 0 19.49-9.277 19.55-20.712C39.214 9.277 30.638 0 19.724 0 8.696 0 .06 9.277 0 20.711zm2.86 0c0-10.092 7.588-17.794 16.864-17.794 8.989 0 16.572 7.702 16.633 17.794-.06 9.977-7.644 17.852-16.633 17.852-9.276 0-16.864-7.875-16.864-17.852zM35.888 37.81c3.434 2.226 7.577 3.526 12.037 3.526 5.075 0 9.736-1.686 13.334-4.419.65-.464.767-1.51.178-2.033-.413-.698-1.358-.815-2.066-.35-3.068 2.558-7.08 3.953-11.446 3.953-3.8 0-7.32-1.08-10.252-2.928a19.55 19.55 0 01-1.447 1.879c-.112.126-.225.251-.338.373zm2.014-32.1c2.886-1.771 6.322-2.795 10.023-2.795 4.366 0 8.379 1.512 11.564 3.953.59.464 1.535.407 2.006-.29.531-.524.413-1.511-.236-2.035A22.109 22.109 0 0047.925.067c-4.444.023-8.572 1.317-11.998 3.537.661.54 1.317 1.234 1.975 2.107z" fill="currentColor"/></symbol><symbol fill="none" viewBox="0 0 23 18" id="twitter" xmlns="http://www.w3.org/2000/svg"><path d="M23 3.025l-2.09-.503L21.953.508l-2.576.705A4.757 4.757 0 0016.97.064a4.848 4.848 0 00-2.666.315 4.642 4.642 0 00-2.048 1.674 4.39 4.39 0 00-.757 2.482v1.007c-3.7.735-6.936-1.208-9.932-4.53-.523 2.684 0 4.698 1.568 6.04L0 6.55c.423 2.084 1.424 3.726 4.182 4.028l-2.614 1.007c1.046 2.014 2.683 2.326 5.227 2.517A11.54 11.54 0 010 16.115c13.335 5.708 20.91-2.682 20.91-10.07V4.71L23 3.025z" fill="currentColor"/></symbol></svg>