<svg width="110" height="16" viewBox="0 0 110 16" fill="none" xmlns="http://www.w3.org/2000/svg">
<path d="M0 0V3.68943H6.23104V14.8397H10.6584V3.68943H16.8894V0H0Z" fill="#686868"/>
<path d="M24.7602 3.44347L27.6297 9.01861H21.9726L24.7602 3.44347ZM21.8906 0L14.1018 14.9217H19.021L20.3328 12.2981H29.2695L30.6633 14.9217H35.5825L27.6297 0H21.8906Z" fill="#686868"/>
<path d="M51.816 0V10.8223L43.5353 0H36.7303V14.8397H41.1577V4.09937L49.4384 14.9217H56.2433V0H51.816Z" fill="#686868"/>
<path d="M63.2122 0H58.7849V14.9217H63.2122V0Z" fill="#686868"/>
<path d="M65.8088 0.000244141H70.2362V8.60892C70.2362 10.4946 70.8921 11.2325 72.6958 11.2325H77.0411C78.8448 11.2325 79.5007 10.4946 79.5007 8.60892V0.000244141H83.928V9.59277C83.928 13.2822 82.0423 15.0859 78.025 15.0859H71.7119C67.6945 15.0859 65.8088 13.2822 65.8088 9.59277V0.000244141Z" fill="#686868"/>
<path d="M86.4696 0H93.2746L98.2758 9.59252L103.195 0H110V14.9217H105.737V4.26334L99.9975 14.9217H96.718L90.9789 4.26334V14.9217H86.7156V0H86.4696Z" fill="#686868"/>
</svg>
