<svg width="90" height="34" viewBox="0 0 90 34" fill="none" xmlns="http://www.w3.org/2000/svg">
<path d="M13.9805 8.08499L6.99025 4.04069L0 8.08499V4.04069L6.99025 0L13.9805 4.04069V8.08499Z" fill="#686868"/>
<path d="M3.6607 11.4782V20.3843C3.6607 22.6855 5.37767 23.8092 6.99025 23.8092C8.61723 23.8092 10.3198 22.6567 10.3198 20.3555V11.4782H13.9805V20.5968C13.9805 22.718 13.3146 24.353 11.9828 25.473C10.651 26.593 8.98798 27.1404 6.95785 27.1404C4.93133 27.1404 3.26476 26.5966 1.96533 25.473C0.665909 24.353 0 22.7792 0 20.6868V11.4782H3.6607ZM45.6346 22.5451L48.3558 24.1189C46.6965 26.0132 44.4828 27.1116 41.7039 27.1116C39.3139 27.1116 37.3449 26.3841 35.8619 24.9616C34.3789 23.5355 33.623 21.6267 33.623 19.2355V19.1166C33.623 16.6929 34.3789 14.7518 35.8619 13.2681C37.3773 11.7843 39.2851 11.0568 41.6139 11.0568C43.824 11.0568 45.6382 11.7843 47.0312 13.2681C48.453 14.7518 49.1513 16.5705 49.1513 18.7529C49.1513 19.4551 49.0721 20.2042 49.0721 20.2042H37.2405C37.4385 22.5235 39.2023 24.0252 41.8263 24.0252C43.2661 24.018 44.5259 23.5355 45.6346 22.5451ZM38.6767 15.1119C37.8956 15.7206 37.4457 16.466 37.3305 17.352H45.451C45.4186 16.4949 45.0263 15.7494 44.3064 15.1408C43.5469 14.4745 42.6722 14.1396 41.6139 14.1396C40.4945 14.1432 39.4938 14.4745 38.6767 15.1119ZM82.4936 29.1679C81.0106 32.6792 79.4556 33.8749 77.0727 33.8749H75.4205V30.6265H76.756C77.5767 30.6265 78.3362 30.3168 79.0633 28.6385L79.7904 26.9567L73.5272 11.4746H77.2491L81.6981 22.6243L86.2695 11.4746H89.9878L82.4936 29.1679ZM28.2346 5.62964H31.8665V26.7442H28.2346V25.3397C27.4067 26.1032 25.8409 27.0792 23.3608 27.0792C21.2155 27.0792 19.3978 26.3229 17.9148 24.8067C16.4606 23.2618 15.7371 21.3819 15.7371 19.1094C15.7371 16.837 16.4642 14.9607 17.9148 13.4445C19.3978 11.8996 21.2119 11.1433 23.3608 11.1433C25.1678 11.1433 27.0323 11.7843 28.2346 12.8611V5.62964ZM28.5081 19.113C28.5081 17.7769 28.051 16.6569 27.1439 15.7782C26.2656 14.8995 25.1462 14.4457 23.8468 14.4457C22.5437 14.4457 21.4855 14.8995 20.6108 15.7782C19.7649 16.6569 19.3402 17.7769 19.3402 19.113C19.3402 20.4455 19.7649 21.5655 20.6108 22.4443C21.4891 23.323 22.5473 23.7767 23.8468 23.7767C25.1498 23.7767 26.2692 23.323 27.1439 22.4443C28.051 21.5655 28.5081 20.4455 28.5081 19.113ZM67.8796 11.1757C71.0363 11.1757 73.1745 13.3113 73.1745 17.2943V26.7478H69.5425V17.8093C69.5425 15.7206 68.5455 14.4169 66.8177 14.4169C65.0324 14.4169 63.7941 15.8718 63.7941 17.9606V26.7478H60.191V17.8093C60.191 15.717 59.194 14.4169 57.4662 14.4169C55.7744 14.4169 54.5002 15.9006 54.5002 17.9606V26.7478H50.9007V11.4782H54.5002V13.0664C55.1409 12.2777 56.4295 11.1721 58.6144 11.1721C61.1989 11.1721 62.3075 12.6702 62.6999 13.4229C63.6897 12.3209 65.1223 11.1757 67.8796 11.1757Z" fill="#686868"/>
</svg>
