<svg width="99" height="34" viewBox="0 0 99 34" fill="none" xmlns="http://www.w3.org/2000/svg">
<path d="M0 0H33.6874V33.6874H0V0ZM30.19 30.19V3.49742H3.49742V30.1735H30.19V30.19ZM6.53291 8.69405V18.8729C6.53291 23.5251 9.08999 26.2801 13.4123 26.2801C17.8665 26.2801 20.4236 23.5251 20.4236 18.8729V8.69405H16.9262V18.8729C16.9262 21.4959 15.7879 22.9807 13.4948 22.9807C11.0697 22.9807 9.99733 21.4299 9.99733 18.8729V8.69405H6.53291ZM24.9273 10.7727C26.1481 10.7727 27.0885 9.89835 27.0885 8.67756C27.0885 7.39077 26.2141 6.51641 24.9273 6.51641C23.7066 6.51641 22.7662 7.39077 22.7662 8.67756C22.7827 9.89835 23.723 10.7727 24.9273 10.7727ZM23.1786 12.3894V26.0822H26.6761V12.3894H23.1786ZM44.0642 20.4896C47.842 20.4896 50.3331 18.2625 50.3331 14.5671C50.3331 11.0037 47.908 8.71055 44.0642 8.71055H37.4653V26.1646H40.9627V20.5721H44.0642V20.4896ZM43.6682 17.718H40.9132V11.5151H43.6682C45.6974 11.5151 46.7697 12.6534 46.7697 14.5506C46.7697 16.5797 45.6809 17.718 43.6682 17.718ZM51.4879 19.2688C51.4879 23.3766 54.111 26.2801 57.8229 26.2801C60.05 26.2801 61.4688 25.4718 62.2771 24.185V26.1316H65.7745V12.3894H62.2771V14.5506C61.4028 13.1318 59.984 12.2575 57.8229 12.2575C54.045 12.2575 51.4879 15.227 51.4879 19.2688ZM62.2606 19.2688C62.2606 21.6279 60.7759 23.1786 58.6147 23.1786C56.2556 23.1786 55.0513 21.4959 55.0513 19.2688C55.0513 16.8437 56.4041 15.293 58.6147 15.293C60.8254 15.293 62.2606 16.9097 62.2606 19.2688ZM74.5181 23.1126C73.1653 23.1126 72.8354 22.5023 72.8354 21.298V15.3589H75.8709V12.3894H72.8354V8.61157H69.3379V12.3894H67.7212V15.3589H69.3379V21.298C69.3379 24.5314 70.7567 26.0822 74.1221 26.0822H75.9368V23.1126H74.5181ZM81.3315 14.3526V7.88569H77.834V26.1481H81.3315V18.8729C81.3315 16.5137 82.5522 15.095 84.6309 15.095C86.6601 15.095 87.7324 16.4478 87.7324 18.5264V26.0822H91.2298V18.1965C91.2298 14.6331 88.6727 12.274 85.4393 12.274C83.4266 12.2575 82.1398 12.9998 81.3315 14.3526ZM90.9659 7.8197V8.36411H92.1041V11.8615H92.7805V8.36411H93.8529V7.8197H90.9659ZM98.2411 7.8197L96.8224 11.0532L95.4696 7.8197H94.6612V11.8615H95.2716V8.76004L96.6244 11.8615H97.1028L98.3896 8.76004V11.8615H99V7.8197H98.2411Z" fill="#686868"/>
</svg>
