<svg xmlns="http://www.w3.org/2000/svg" width="20" height="20" viewBox="0 0 20 20">
    <g fill="#FFD200" fill-rule="nonzero">
        <path d="M18.318 9c-.331 0-.615-.235-.71-.565-.803-3.53-3.922-6.023-7.608-6.023-3.686 0-6.805 2.494-7.609 6.023a.705.705 0 0 1-.85.518.701.701 0 0 1-.52-.847C1.966 3.918 5.699 1 10 1c4.3 0 8.034 2.918 8.98 7.106a.701.701 0 0 1-.52.847c-.048 0-.095.047-.142.047z"/>
        <path d="M18.22 9c-.097 0-.193 0-.288-.049L15.438 7.88c-.383-.146-.527-.584-.383-.974.144-.39.575-.536.959-.39l1.822.78.767-1.85c.144-.39.575-.536.959-.39.383.146.527.584.383.973L18.89 8.562c-.095.194-.191.34-.383.39C18.41 9 18.315 9 18.219 9zM10 19c-4.3 0-8.034-2.927-8.98-7.13a.704.704 0 1 1 1.371-.33c.804 3.541 3.923 6.044 7.609 6.044s6.805-2.503 7.609-6.044a.704.704 0 0 1 1.37.33C18.034 16.074 14.348 19 10 19z"/>
        <path d="M.726 15c-.096 0-.192 0-.288-.049-.383-.146-.527-.584-.383-.974l1.055-2.532c.143-.39.575-.535.958-.39l2.494 1.072c.383.146.527.584.383.974-.144.39-.575.535-.959.39l-1.822-.78-.767 1.802A.722.722 0 0 1 .726 15z"/>
    </g>
</svg>
