<svg xmlns="http://www.w3.org/2000/svg" width="58" height="46" viewBox="0 0 58 46">
    <g fill="none" fill-rule="nonzero">
        <path fill="#231F20" d="M56.558 44.676v.117h.106a.11.11 0 0 0 .059-.015.051.051 0 0 0 .02-.044.05.05 0 0 0-.02-.043.101.101 0 0 0-.059-.015h-.106zm.108-.08c.054 0 .097.012.127.036.03.025.045.06.045.102a.117.117 0 0 1-.036.09.173.173 0 0 1-.102.042l.141.164h-.11l-.13-.163h-.043v.163h-.091v-.435h.199zm-.028.584a.366.366 0 0 0 .14-.703.37.37 0 0 0-.282 0 .354.354 0 0 0-.192.194.355.355 0 0 0-.028.143c0 .051.009.099.028.143a.343.343 0 0 0 .192.194.35.35 0 0 0 .142.03zm0-.835a.46.46 0 0 1 .334.138.46.46 0 0 1 .137.331.452.452 0 0 1-.037.182.486.486 0 0 1-.25.25.467.467 0 0 1-.522-.1.486.486 0 0 1-.1-.15.452.452 0 0 1-.037-.182.46.46 0 0 1 .288-.432.467.467 0 0 1 .187-.037zm-43.53-1.675c0-.83.538-1.51 1.416-1.51.84 0 1.406.651 1.406 1.51s-.567 1.51-1.406 1.51c-.878 0-1.415-.68-1.415-1.51zm3.778 0v-2.359h-1.014v.573c-.322-.425-.81-.692-1.474-.692-1.308 0-2.334 1.037-2.334 2.478 0 1.442 1.026 2.478 2.334 2.478.664 0 1.152-.267 1.474-.692v.573h1.014V42.67zm34.282 0c0-.83.537-1.51 1.415-1.51.84 0 1.406.651 1.406 1.51s-.566 1.51-1.406 1.51c-.878 0-1.415-.68-1.415-1.51zm3.778 0v-4.254h-1.015v2.468c-.322-.425-.81-.692-1.474-.692-1.308 0-2.334 1.037-2.334 2.478 0 1.442 1.026 2.478 2.334 2.478.664 0 1.152-.267 1.474-.692v.573h1.015V42.67zM29.48 41.11c.653 0 1.073.415 1.18 1.145h-2.42c.108-.68.517-1.144 1.24-1.144zm.02-.918c-1.368 0-2.324 1.007-2.324 2.478 0 1.5.995 2.478 2.392 2.478.703 0 1.346-.178 1.912-.661l-.497-.76c-.39.314-.889.493-1.357.493-.654 0-1.25-.306-1.396-1.156h3.465c.01-.127.02-.256.02-.394-.01-1.471-.908-2.478-2.215-2.478zm12.25 2.478c0-.83.536-1.51 1.415-1.51.839 0 1.405.651 1.405 1.51s-.566 1.51-1.405 1.51c-.879 0-1.416-.68-1.416-1.51zm3.777 0v-2.359H44.51v.573c-.323-.425-.81-.692-1.474-.692-1.308 0-2.334 1.037-2.334 2.478 0 1.442 1.026 2.478 2.334 2.478.664 0 1.151-.267 1.474-.692v.573h1.015V42.67zm-9.507 0c0 1.431.985 2.478 2.49 2.478.702 0 1.17-.159 1.677-.563l-.487-.83c-.38.277-.78.425-1.221.425-.81-.01-1.406-.602-1.406-1.51s.596-1.5 1.406-1.51c.44 0 .84.147 1.221.424l.487-.829c-.507-.404-.975-.563-1.678-.563-1.504 0-2.49 1.047-2.49 2.478zm13.08-2.478c-.586 0-.967.277-1.23.692v-.573h-1.006v4.718h1.015v-2.645c0-.78.332-1.214.996-1.214.205 0 .42.029.634.118l.313-.967a2.139 2.139 0 0 0-.723-.129zm-27.195.494c-.489-.325-1.161-.494-1.903-.494-1.182 0-1.943.573-1.943 1.51 0 .77.566 1.245 1.61 1.393l.48.069c.556.079.818.227.818.493 0 .365-.37.573-1.063.573-.703 0-1.21-.227-1.552-.494l-.478.8c.556.414 1.259.612 2.02.612 1.347 0 2.128-.642 2.128-1.54 0-.83-.615-1.263-1.63-1.411l-.478-.07c-.44-.06-.791-.147-.791-.464 0-.345.331-.552.888-.552.595 0 1.172.227 1.454.404l.44-.829zm13.09-.494c-.586 0-.967.277-1.23.692v-.573H32.76v4.718h1.014v-2.645c0-.78.332-1.214.996-1.214.205 0 .42.029.634.118l.313-.967a2.139 2.139 0 0 0-.723-.129zm-8.658.119h-1.66V38.88h-1.025v1.431h-.946v.938h.946V43.4c0 1.095.42 1.747 1.62 1.747.44 0 .947-.138 1.27-.365l-.294-.88a1.863 1.863 0 0 1-.898.267c-.507 0-.672-.316-.672-.79V41.25h1.659v-.938zm-15.17 4.718v-2.961c0-1.115-.702-1.865-1.835-1.876-.595-.01-1.21.178-1.64.84-.322-.523-.829-.84-1.542-.84-.498 0-.985.148-1.366.7v-.581H3.767v4.718h1.025v-2.616c0-.819.449-1.254 1.143-1.254.673 0 1.014.444 1.014 1.244v2.626h1.026v-2.616c0-.819.468-1.254 1.142-1.254.692 0 1.024.444 1.024 1.244v2.626h1.026z"/>
        <path fill="#F79410" d="M57.184 29.339v-.69h-.178l-.205.474-.205-.473h-.178v.689h.126v-.52l.192.449h.13l.193-.45v.52h.125zm-1.127 0v-.572h.228v-.116h-.581v.116h.228v.572h.125z"/>
        <path fill="#FF5F00" d="M36.984 32.303H21.61V4.362h15.375z"/>
        <path fill="#EB001B" d="M22.594 18.33a17.812 17.812 0 0 1 6.711-13.97 17.374 17.374 0 0 0-10.86-3.8C8.742.56.876 8.516.876 18.33c0 9.815 7.866 17.77 17.57 17.77 4.1 0 7.872-1.42 10.86-3.8a17.812 17.812 0 0 1-6.711-13.97"/>
        <path fill="#F79E1B" d="M57.72 18.33c0 9.815-7.866 17.77-17.57 17.77-4.1 0-7.872-1.42-10.861-3.8A17.81 17.81 0 0 0 36 18.33a17.81 17.81 0 0 0-6.712-13.97 17.38 17.38 0 0 1 10.86-3.8c9.705 0 17.571 7.956 17.571 17.77"/>
    </g>
</svg>
