<svg xmlns="http://www.w3.org/2000/svg" width="20" height="17" viewBox="0 0 20 17">
    <path fill="#000" fill-rule="nonzero" d="M.353 8.153l4.609 1.674 1.783 5.583c.115.357.564.49.862.252l2.569-2.038a.783.783 0 0 1 .934-.025l4.633 3.274c.32.225.771.055.851-.32L19.988.663c.088-.41-.326-.752-.727-.6L.348 7.162a.524.524 0 0 0 .005.99zm6.105.782l9.006-5.398c.162-.097.329.116.19.241L8.22 10.503c-.261.237-.43.553-.478.897l-.253 1.827c-.033.243-.385.268-.454.032l-.974-3.33a.872.872 0 0 1 .396-.994z" opacity=".2"/>
</svg>
