<svg xmlns="http://www.w3.org/2000/svg" width="76" height="48" viewBox="0 0 76 48">
    <g fill="none" fill-rule="evenodd">
        <path fill="#FFF" stroke="#0061B2" stroke-width="1.843" d="M1.024 1.014h73.965v45.962H1.024z"/>
        <path fill="#0061B2" d="M3.522 3.89h68.51v9.669H3.522z"/>
        <path fill="#FDB827" d="M3.522 34.444h68.51v9.668H3.522z"/>
        <path fill="#0061B2" d="M14.91 16.018l.002.005h-2.817v.477c2.198.07 2.854 1.103 3.097 2.305l1.296 12.829h4.265l9.11-15.616H25.6l-5.476 9.386-.948-9.386h-4.264zM32.134 16.009h4.14l-5.077 15.63H27.06zM54.937 16.32l-8.004 15.32h4.49l1.168-2.339h5.212l.18 2.339h4.138L60.95 16.32h-6.013zm2.175 3.932l.495 6.477h-3.73l3.235-6.477z"/>
        <path fill="#0061B2" fill-rule="nonzero" d="M43.418 15.814c3.251 0 5.662 2.027 5.662 2.027l-2.46 2.573s-1.818-1.404-2.89-1.404c-1.415 0-2.055.517-2.186 1.365-.26 1.69 5.775 2.725 5.584 6.665-.128 2.631-2.855 5.185-5.974 5.185-4.677 0-6.99-1.871-6.99-1.871l2.11-3.002s2.113 1.69 4.099 1.598c1.34-.062 2.373-.574 2.304-1.481-.157-2.055-6.513-2.998-5.389-7.484.621-2.479 2.66-4.171 6.13-4.171zM62.61 16.32a.885.885 0 0 0-.423.111.794.794 0 0 0-.322.318.867.867 0 0 0 .317 1.177.872.872 0 0 0 .857 0 .799.799 0 0 0 .318-.318.87.87 0 0 0-.002-.859.792.792 0 0 0-.321-.318.882.882 0 0 0-.423-.111zm0 .143c.12 0 .238.03.353.092a.728.728 0 0 1 .27.98.722.722 0 0 1-1.246 0 .718.718 0 0 1 .624-1.072z"/>
        <path fill="#0061B2" fill-rule="nonzero" d="M62.254 16.707v1.013h.15v-.43h.09c.052 0 .092.011.12.035a.82.82 0 0 1 .157.236l.082.16h.183l-.113-.199c-.055-.094-.1-.16-.138-.2a.253.253 0 0 0-.079-.054.282.282 0 0 0 .222-.434.234.234 0 0 0-.116-.1.721.721 0 0 0-.237-.027h-.32zm.15.138h.171c.074 0 .124.005.151.017a.14.14 0 0 1 .086.133.143.143 0 0 1-.047.113c-.031.028-.091.042-.178.042h-.182v-.305zM70.547 41.801a.885.885 0 0 0-.424.111.794.794 0 0 0-.321.319.867.867 0 0 0 .317 1.177.872.872 0 0 0 .856 0 .799.799 0 0 0 .318-.32.87.87 0 0 0-.001-.857.792.792 0 0 0-.322-.319.882.882 0 0 0-.423-.11zm0 .143c.12 0 .237.03.352.093.115.061.204.15.268.265a.728.728 0 0 1 .003.715.722.722 0 0 1-1.246 0 .718.718 0 0 1 .623-1.073z"/>
        <path fill="#0061B2" fill-rule="nonzero" d="M70.19 42.188v1.014h.151v-.431h.088c.053 0 .093.012.12.035a.82.82 0 0 1 .158.236l.082.16h.183l-.113-.199c-.054-.094-.1-.16-.137-.2a.253.253 0 0 0-.08-.054.282.282 0 0 0 .222-.434.234.234 0 0 0-.116-.099.721.721 0 0 0-.237-.028h-.32zm.151.138h.17c.074 0 .125.005.152.017a.14.14 0 0 1 .086.134.143.143 0 0 1-.048.112c-.031.028-.09.042-.178.042h-.182v-.305z"/>
    </g>
</svg>
