<svg xmlns="http://www.w3.org/2000/svg" width="18" height="13" viewBox="0 0 18 13">
    <path fill="#221F1F" fill-rule="evenodd" d="M12.069 6.813L7.826 9.108c-.422.228-.767.022-.767-.458V4.147c0-.48.345-.685.767-.457l4.243 2.294c.422.228.422.601 0 .83m5.62-4.65A2.27 2.27 0 0 0 15.742.401C13.51.154 11.252 0 9.003 0c-2.25-.001-4.509.154-6.74.402A2.268 2.268 0 0 0 .317 2.163C.004 3.52 0 5.001 0 6.4c0 1.398 0 2.879.314 4.236.22.953 1.002 1.656 1.945 1.76 2.232.249 4.49.404 6.74.403 2.249 0 4.508-.154 6.74-.403a2.269 2.269 0 0 0 1.946-1.76C17.998 9.278 18 7.797 18 6.4c0-1.397.002-2.879-.312-4.236" opacity=".2"/>
</svg>
