<svg xmlns="http://www.w3.org/2000/svg" width="63.915" height="42.437" viewBox="0 0 63.915 42.437"><defs><style>.a{fill:#bbb;}</style></defs><path class="a" d="M14.5,6.169C17.553,4.207,20.605,2.462,23.876.5,29.327,9.658,35,18.816,40.447,27.973H28.019c-.218,0-.436,0-.654-.436-1.962-3.271-4.143-6.759-6.105-10.03-2.18-3.707-4.361-7.2-6.541-10.9C14.718,6.823,14.5,6.605,14.5,6.169Z" transform="translate(14.554 -0.5)"/><path class="a" d="M29.36,37.23v-.436c-3.271,1.526-6.105.872-8.068-2.4a5.085,5.085,0,0,1-.436-4.361,5.851,5.851,0,0,1,8.5-3.271V23.057c0-.218,0-.436-.436-.436H19.548v2.4H16.713L16.5,24.8v-.872a3.121,3.121,0,0,0-.654-2.4c-2.18-3.489-4.361-7.2-6.541-10.9v-.218a21.789,21.789,0,0,1,3.053-1.744c1.962-1.09,3.925-2.4,5.887-3.489.436-.218.436-.218.654.218,3.271,5.233,6.541,10.684,9.594,15.917.654,1.09,1.09,1.526,2.4,1.308h1.09V36.576c0,.436,0,.654-.654.654Zm0-5.451a2.86,2.86,0,0,0-3.053-3.053,3.053,3.053,0,1,0,0,6.105A2.86,2.86,0,0,0,29.36,31.779Z" transform="translate(8.416 4.852)"/><path class="a" d="M15.533,17.343V13.2H18.15V27.591H15.533v-.436a5.657,5.657,0,0,1-4.579.436A5.581,5.581,0,0,1,8.12,25.41a5.561,5.561,0,0,1,0-6.759A5.767,5.767,0,0,1,15.533,17.343Zm0,4.8c.218-1.308-1.308-3.053-3.053-3.053a3.053,3.053,0,1,0,0,6.105A2.981,2.981,0,0,0,15.533,22.14Z" transform="translate(5.671 14.491)"/><path class="a" d="M28.87,15.512v-.436h2.617V25.324c0,.436,0,.654-.654.654h-2.18v-.436a6.076,6.076,0,0,1-6.541-.872,5.336,5.336,0,0,1-1.526-6.541A5.979,5.979,0,0,1,28.87,15.512Zm0,4.8a3.053,3.053,0,1,0-3.053,3.053A2.755,2.755,0,0,0,28.87,20.309Z" transform="translate(21.116 16.322)"/><path class="a" d="M12.786,25.858H10.169v-.436a6.161,6.161,0,0,1-7.85-1.744,5.561,5.561,0,0,1,0-6.759c1.744-2.4,4.143-2.835,7.631-1.526v-.436h2.617C12.786,18.663,12.786,22.152,12.786,25.858Zm-2.617-5.451a2.961,2.961,0,0,0-3.053-3.053,2.981,2.981,0,0,0-3.053,3.053A3.283,3.283,0,0,0,7.117,23.46,2.86,2.86,0,0,0,10.169,20.407Z" transform="translate(-1.175 16.224)"/><path class="a" d="M25.9,22.332h2.835a1.382,1.382,0,0,0,1.09,1.308c.872.218,1.744.436,2.4-.218a1.133,1.133,0,0,0,.436-.872.7.7,0,0,0-.654-.654l-2.617-.654c-.654-.218-1.09-.218-1.744-.436-2.4-1.09-1.962-3.707-.654-5.015a4.592,4.592,0,0,1,2.835-1.09,8.475,8.475,0,0,1,3.271.436,3.356,3.356,0,0,1,2.18,3.271H32.659l-.218-.218a1.4,1.4,0,0,0-1.09-1.09H29.607c-.436,0-.654.436-.654.872a.578.578,0,0,0,.654.654c.872.218,1.526.436,2.4.654.654.218,1.526.436,2.18.654a2.809,2.809,0,0,1,.654,4.8,5.479,5.479,0,0,1-3.053,1.308,6.34,6.34,0,0,1-4.8-1.09A3.611,3.611,0,0,1,25.9,22.332Z" transform="translate(28.011 16.262)"/><path class="a" d="M4.2,15.169c3.053-1.962,6.105-3.707,9.376-5.669,1.526,2.617,3.271,5.233,4.8,7.85H6.162c-.218,0-.436,0-.654-.436A12.1,12.1,0,0,1,4.2,15.169Z" transform="translate(2.396 10.124)"/><path class="a" d="M15.664,25.82H13.048c-.436,0-.218-.218-.218-.436V15.354c0-.436,0-.654.436-.654h1.962c.218,0,.436,0,.436.436C15.664,18.625,15.664,22.113,15.664,25.82Z" transform="translate(12.518 16.262)"/><path class="a" d="M28.7,14.344a1.744,1.744,0,1,1,3.489,0,1.744,1.744,0,1,1-3.489,0Zm1.526-1.308a1.407,1.407,0,0,0-1.308,1.308,1.308,1.308,0,0,0,2.617,0C31.753,13.472,31.1,13.036,30.226,13.036Z" transform="translate(31.316 13.783)"/><path class="a" d="M30.19,14.09c.218.218.218.436.436.654-.654.218-.654-.872-1.09-.654v.654h-.218l-.218-.218V13.218L29.318,13h.218a1.653,1.653,0,0,1,.872.436c.218,0,0,.218-.218.654Zm-.436-.218.436-.436c-.218,0-.218-.218-.436-.218l-.218.218C29.536,13.654,29.536,13.654,29.754,13.872Z" transform="translate(31.788 14.255)"/></svg>