<?xml version="1.0" encoding="utf-8"?>
<!-- Generator: Adobe Illustrator 23.0.3, SVG Export Plug-In . SVG Version: 6.00 Build 0)  -->
<svg version="1.1" id="Layer_1" xmlns="http://www.w3.org/2000/svg" xmlns:xlink="http://www.w3.org/1999/xlink" x="0px" y="0px"
	 viewBox="0 0 31.4 20.5" style="enable-background:new 0 0 31.4 20.5;" xml:space="preserve">
<g>
	<path d="M14.5,3.1c1.4-0.9,2.8-1.7,4.3-2.6c2.5,4.2,5.1,8.4,7.6,12.6c-0.1,0-0.2,0-0.3,0c-1.8,0-3.6,0-5.4,0c-0.1,0-0.2,0-0.3-0.2
		c-0.9-1.5-1.9-3.1-2.8-4.6c-1-1.7-2-3.3-3-5C14.6,3.4,14.5,3.3,14.5,3.1z"/>
	<path d="M18.5,19.8c0-0.1,0-0.1,0-0.2c-1.5,0.7-2.8,0.4-3.7-1.1c-0.4-0.6-0.4-1.3-0.2-2c0.4-1.4,2.1-2.4,3.9-1.5c0-0.1,0-0.1,0-0.2
		c0-0.5,0-1,0-1.5c0-0.1,0-0.2-0.2-0.2c-1.4,0-2.8,0-4.2,0c0,0-0.1,0-0.1,0c0,0.4,0,0.7,0,1.1c-0.4,0-0.8,0-1.3,0
		c0,0-0.1-0.1-0.1-0.1c0-0.1,0-0.3,0-0.4c0.1-0.4-0.1-0.8-0.3-1.1c-1-1.6-2-3.3-3-5c0,0,0,0,0-0.1c0.5-0.3,0.9-0.6,1.4-0.8
		c0.9-0.5,1.8-1.1,2.7-1.6c0.2-0.1,0.2-0.1,0.3,0.1c1.5,2.4,3,4.9,4.4,7.3c0.3,0.5,0.5,0.7,1.1,0.6c0.1,0,0.3,0,0.5,0
		c0,0.1,0,0.2,0,0.3c0,1.1,0,2.2,0,3.3c0,0.9,0,1.9,0,2.8c0,0.2,0,0.3-0.3,0.3C19.2,19.8,18.9,19.8,18.5,19.8z M18.5,17.3
		c0.1-0.8-0.6-1.4-1.4-1.4c-0.8,0-1.4,0.6-1.4,1.4c0,0.8,0.6,1.4,1.4,1.4C17.9,18.7,18.6,18.1,18.5,17.3z"/>
	<path d="M10.9,15.1c0-0.7,0-1.3,0-1.9c0.4,0,0.8,0,1.2,0c0,2.2,0,4.4,0,6.6c-0.4,0-0.8,0-1.2,0c0-0.1,0-0.1,0-0.2
		C10.2,20,9.5,20,8.8,19.8c-0.5-0.2-1-0.5-1.3-1c-0.7-0.9-0.7-2.2,0-3.1C8.2,14.9,9.5,14.3,10.9,15.1z M10.9,17.3
		c0.1-0.6-0.6-1.4-1.4-1.4c-0.8,0-1.4,0.6-1.4,1.4c0,0.8,0.6,1.4,1.4,1.4C10.3,18.7,10.9,18.1,10.9,17.3z"/>
	<path d="M24.1,15.1c0-0.1,0-0.1,0-0.2c0.4,0,0.8,0,1.2,0c0,0.1,0,0.2,0,0.3c0,1.5,0,2.9,0,4.4c0,0.2,0,0.3-0.3,0.3
		c-0.3,0-0.6,0-1,0c0-0.1,0-0.1,0-0.2C23,20.1,22,20.1,21,19.3c-0.9-0.7-1.2-1.9-0.7-3C20.8,15.2,22.4,14.2,24.1,15.1z M24.1,17.3
		c0.1-0.7-0.6-1.4-1.4-1.4c-0.8,0-1.4,0.6-1.4,1.4c0,0.8,0.6,1.4,1.4,1.4C23.6,18.8,24.2,18,24.1,17.3z"/>
	<path d="M6.5,19.8c-0.4,0-0.8,0-1.2,0c0-0.1,0-0.1,0-0.2C4.6,20,3.8,20,3.1,19.8c-0.6-0.2-1-0.5-1.4-1c-0.7-0.9-0.7-2.2,0-3.1
		c0.8-1.1,1.9-1.3,3.5-0.7c0-0.1,0-0.1,0-0.2c0.4,0,0.8,0,1.2,0C6.5,16.5,6.5,18.1,6.5,19.8z M5.3,17.3c0.1-0.6-0.5-1.4-1.4-1.4
		c-0.8,0-1.4,0.6-1.4,1.4c0,0.7,0.7,1.4,1.4,1.4C4.7,18.7,5.3,18.2,5.3,17.3z"/>
	<path d="M25.9,18.2c0.4,0,0.9,0,1.3,0c0,0.3,0.2,0.5,0.5,0.6c0.4,0.1,0.8,0.2,1.1-0.1c0.1-0.1,0.2-0.2,0.2-0.4
		c0-0.1-0.1-0.3-0.3-0.3c-0.4-0.1-0.8-0.2-1.2-0.3c-0.3-0.1-0.5-0.1-0.8-0.2c-1.1-0.5-0.9-1.7-0.3-2.3c0.4-0.3,0.8-0.5,1.3-0.5
		c0.5,0,1,0,1.5,0.2c0.6,0.2,1,0.8,1,1.5c-0.4,0-0.8,0-1.2,0c0,0-0.1-0.1-0.1-0.1c-0.1-0.3-0.2-0.4-0.5-0.5c-0.3,0-0.5,0-0.8,0
		c-0.2,0-0.3,0.2-0.3,0.4c0,0.2,0.1,0.3,0.3,0.3c0.4,0.1,0.7,0.2,1.1,0.3c0.3,0.1,0.7,0.2,1,0.3c1.1,0.5,0.9,1.7,0.3,2.2
		c-0.4,0.4-0.9,0.5-1.4,0.6c-0.8,0.1-1.5,0-2.2-0.5C26.1,19.1,25.9,18.7,25.9,18.2z"/>
	<path d="M4.2,12.1c1.4-0.9,2.8-1.7,4.3-2.6c0.7,1.2,1.5,2.4,2.2,3.6c-0.1,0-0.1,0-0.2,0c-1.8,0-3.6,0-5.4,0c-0.1,0-0.2,0-0.3-0.2
		C4.6,12.7,4.4,12.4,4.2,12.1z"/>
	<path d="M14.1,19.8c-0.4,0-0.8,0-1.2,0c-0.2,0-0.1-0.1-0.1-0.2c0-0.6,0-1.3,0-1.9c0-0.9,0-1.8,0-2.7c0-0.2,0-0.3,0.2-0.3
		c0.3,0,0.6,0,0.9,0c0.1,0,0.2,0,0.2,0.2C14.1,16.5,14.1,18.1,14.1,19.8z"/>
	<path d="M28.7,13.4c0-0.4,0.4-0.8,0.8-0.8c0.4,0,0.8,0.4,0.8,0.8c0,0.4-0.3,0.8-0.8,0.8C29,14.2,28.7,13.8,28.7,13.4z M29.4,12.8
		c-0.3,0-0.6,0.3-0.6,0.6c0,0.4,0.3,0.6,0.6,0.6c0.4,0,0.6-0.3,0.6-0.6C30.1,13,29.8,12.8,29.4,12.8z"/>
	<path d="M29.6,13.5c0.1,0.1,0.1,0.2,0.2,0.3c-0.3,0.1-0.3-0.4-0.5-0.3c0,0.1,0,0.2,0,0.3c0,0,0,0-0.1,0c0,0-0.1-0.1-0.1-0.1
		c0-0.2,0-0.4,0-0.6c0,0,0.1-0.1,0.1-0.1c0,0,0.1,0,0.1,0c0.1,0,0.3,0.1,0.4,0.2C29.8,13.2,29.7,13.3,29.6,13.5
		C29.6,13.5,29.6,13.5,29.6,13.5z M29.4,13.4c0.1-0.1,0.1-0.1,0.2-0.2c-0.1,0-0.1-0.1-0.2-0.1c0,0-0.1,0.1-0.1,0.1
		C29.3,13.3,29.3,13.3,29.4,13.4z"/>
</g>
</svg>
