<?xml version="1.0" encoding="utf-8"?>
<!-- Generator: Adobe Illustrator 23.0.3, SVG Export Plug-In . SVG Version: 6.00 Build 0)  -->
<svg version="1.1" id="Layer_1" xmlns="http://www.w3.org/2000/svg" xmlns:xlink="http://www.w3.org/1999/xlink" x="0px" y="0px"
	 viewBox="0 0 91.8 16.1" style="enable-background:new 0 0 91.8 16.1;" xml:space="preserve">
<style type="text/css">
	.st0{fill:#F04E30;}
	.st1{fill:#0072BC;}
	.st2{fill:#8CC63F;}
	.st3{fill:#00AEF0;}
	.st4{fill:#FFF200;}
	.st5{fill:#A3238E;}
	.st6{fill:#FFFFFF;}
</style>
<g>
	<polygon class="st0" points="31.9,5.4 53.7,5.2 42.5,11.3 	"/>
	<polygon class="st1" points="42.5,11.3 31.9,6.9 35.7,15.5 42.5,12.1 42.5,12.1 42.5,11.3 	"/>
	<polygon class="st2" points="53.7,6.9 42.5,11.3 42.5,12.1 49.6,15.5 	"/>
	<polygon class="st3" points="31.9,7.3 31.9,5.4 42.5,11.3 	"/>
	<polygon class="st4" points="53.8,6.9 53.7,5.2 42.5,11.3 	"/>
	<polygon class="st5" points="35.7,15.5 42.5,12.1 49.6,15.5 	"/>
	<g>
		<path class="st0" d="M13.3,14.5h-1.7l-0.8-2.3H7.6l-0.8,2.3H5.1l3.4-8.7h1.4L13.3,14.5z M10.2,10.9L9.2,8l-1,2.8H10.2z"/>
		<path class="st0" d="M18.5,10.7c0.2,0.1,0.3,0.4,0.4,0.5l2.1,3.2h-1.8l-1.8-3c-0.3-0.5-0.4-0.7-1-0.7h-0.6v3.6h-1.6V5.8h3.2
			c1.7,0,3,0.8,3,2.6C20.3,9.5,19.6,10.4,18.5,10.7z M17.3,7.3h-1.6v2.2h1.6c0.8,0,1.4-0.2,1.4-1.1C18.7,7.5,18.1,7.3,17.3,7.3z"/>
		<path class="st0" d="M27.8,7.3h-2.5v7.2h-1.6V7.3h-2.5V5.8h6.6V7.3z"/>
	</g>
	<g>
		<path class="st0" d="M66.2,14.5h-1.6V9.8l-1.9,4.7h-1l-1.9-4.7v4.7h-1.6V5.8h1.5l2.4,6.2l2.5-6.2h1.5V14.5z"/>
		<path class="st0" d="M75.2,14.5h-1.7l-0.8-2.3h-3.1l-0.8,2.3H67l3.4-8.7h1.4L75.2,14.5z M72.1,10.9l-1-2.8l-1,2.8H72.1z"/>
		<path class="st0" d="M81.5,14.5h-5.4V5.8h1.6V13h3.8V14.5z"/>
		<path class="st0" d="M88,14.5h-5.4V5.8h1.6V13H88V14.5z"/>
	</g>
	<g>
		<path class="st6" d="M43.7,0.6h-2.2l-3.7,8.2L40,10l0.3-0.9H45l0.3,0.7l2.1-1.1L43.7,0.6z M41.1,7l1.6-4.3L44.2,7H41.1z"/>
	</g>
	<polygon class="st0" points="44.2,7 42.6,2.7 41.1,7 	"/>
</g>
</svg>
