<?xml version="1.0" encoding="utf-8"?>
<!-- Generator: Adobe Illustrator 23.0.3, SVG Export Plug-In . SVG Version: 6.00 Build 0)  -->
<svg version="1.1" id="Layer_1" xmlns="http://www.w3.org/2000/svg" xmlns:xlink="http://www.w3.org/1999/xlink" x="0px" y="0px"
	 viewBox="0 0 435 436" style="enable-background:new 0 0 435 436;" xml:space="preserve">
<style type="text/css">
	.st0{fill:#fff;}
	.st1{fill:#FF3D00;}
</style>
<circle class="st0" cx="218.1" cy="219.1" r="206.6"/>
<g>
	<path class="st1" d="M192.4,290.5h-1.1v6.4h1.4c0.9,0,1.5-0.3,2-0.8c0.5-0.6,0.7-1.4,0.7-2.4c0-1.1-0.2-1.9-0.7-2.4
		C194.2,290.7,193.4,290.5,192.4,290.5z"/>
	<path class="st1" d="M219.5,290.8c-0.1,0.6-0.2,1.2-0.3,1.8l-1.4,5.7h3.5l-1.4-5.7C219.8,292,219.6,291.4,219.5,290.8z"/>
	<polygon class="st1" points="142.8,240.2 187.4,240.2 164.9,186 	"/>
	<path class="st1" d="M268.3,191.9c0-10.1-4.9-15-14.8-15c-3.1,0-5.7,0.7-7.8,2.2c-2.1,1.4-3.1,3.9-3.1,7.3v26
		c1.5,0.3,3.2,0.4,4.8,0.4c6.7,0,11.9-1.9,15.5-5.8C266.4,203.2,268.3,198.1,268.3,191.9z"/>
	<path class="st1" d="M88,179.1c-2.1-1.4-4.6-2.2-7.8-2.2c-9.9,0-14.8,5-14.8,15c0,6.2,1.8,11.2,5.3,15.1c3.6,3.8,8.7,5.8,15.5,5.8
		c1.6,0,3.3-0.1,4.8-0.4v-26.2C91.1,182.9,90.1,180.4,88,179.1z"/>
	<path class="st1" d="M365.6,71.6c-39.4-39.4-91.8-61.1-147.5-61.1S110,32.2,70.6,71.6C31.2,111,9.5,163.4,9.5,219.1
		c0,55.7,21.7,108.1,61.1,147.5c39.4,39.4,91.8,61.1,147.5,61.1s108.1-21.7,147.5-61.1c39.4-39.4,61.1-91.8,61.1-147.5
		C426.7,163.4,405,111,365.6,71.6z M89.9,288.3v18.8v1.3h-1.3h-1.3H86v-1.3v-18.8V287h1.3h1.3h1.3V288.3z M95.4,257.7l-9,0.1
		c-1.5,0.1-3.6,0.1-6.3,0.1c-0.3,0-1.7-0.1-1.7-2.1c0-2,1.4-2.1,1.7-2.1c3.3,0,5.5-0.2,6.8-0.6c1.2-0.3,1.9-0.9,2.3-1.7
		c0.3-0.6,0.7-2,0.7-5.2v-30c-2.1,0.3-3.9,0.8-5.4,1.6c-2,1-4,2.9-6.1,5.5c-2.4,3-5.2,7.2-8.1,12.3c-4.2,6.9-7.5,12.3-9.8,15.7
		c-1.5,2.2-3.7,5-5.1,5.8c-1.1,0.7-2.5,1-4.2,1H37.7c-0.4,0-1.6-0.2-1.6-2.1s1.2-2.1,1.6-2.1c4.1-0.1,7.6-1.7,10.7-4.9
		c3.3-3.5,7.2-9.3,11.7-17.3c3.3-5.8,6.5-10.1,9.4-12.7c1.6-1.5,3.3-2.7,5.1-3.6c-5.4-1.1-9.5-3-12.7-5.7c-4.3-3.7-6.4-8.4-6.4-14.3
		c0-4.2,1.1-7.9,3.3-11.1c2.1-3.1,5.1-5.6,9-7.5c3.7-1.8,8-2.7,12.7-2.7c2.3,0,4.6,0.1,7,0.4c1,0.1,2.2,0.2,3.6,0.3
		c1.3,0.1,2.8,0.1,4.4,0.1c2.2,0,5.1-0.1,8.7-0.3l6.5-0.1c0,0,0,0,0,0c0.3,0,1.7,0.1,1.7,2.1c0,2-1.4,2.1-1.7,2.1
		c-3.9,0-5.9,0.4-7,0.7c-1.1,0.3-1.8,0.9-2.2,1.8c-0.3,0.7-0.7,2.1-0.7,5.1v60c0,2.4,0.2,4.2,0.7,5.3c0.4,0.9,1.1,1.4,2.3,1.8
		c1.3,0.4,3.6,0.6,7,0.6c0.3,0,1.7,0.1,1.7,2.1c0,1.3-0.9,2-1.7,2c-2.8,0-4.9,0-6.5-0.1L95.4,257.7z M119.8,288.3v18.8v1.3h-1.3
		h-1.6h-0.9l-0.3-0.8l-4.5-10.7v10.2v1.3h-1.3h-1.3h-1.3v-1.3v-18.8V287h1.3h1.6h0.9l0.3,0.8l4.5,10.7v-10.2V287h1.3h1.3h1.3V288.3z
		 M146.7,288.3v1.2v1.3h-1.3h-0.1h-2.4v16.3v1.3h-1.3h-1.3H139v-1.3v-16.3h-2.4h-1.3v-1.3v-1.2V287h1.3h8.8h1.3V288.3z M171.6,288.2
		v1.3v1.3h-1.3H166v4.5h3.9h1.3v1.3v1.2v1.3h-1.3H166v5.4h4.3h1.3v1.3v1.2v1.3h-1.3h-6.9h-1.3V307v-18.8v-1.3h1.3h6.9h1.3V288.2z
		 M198,308.5h-1.4h-0.9l-0.3-0.8l-3.2-7.4H192v6.9v1.3h-1.3h-1.3H188v-1.3v-18.8V287h1.3h2.6c2.1,0,3.8,0.5,5,1.6l0.1,0l0,0.1
		c1.1,1.2,1.6,2.8,1.6,4.8c0,1.4-0.3,2.7-0.9,3.9c-0.4,0.9-1.1,1.5-1.8,1.9l3.2,7.4l0.8,1.9H198z M205.6,242l-0.2,0.2
		c-0.1,0.3-0.1,1-0.2,2.3l0,0l0,0c-0.5,4.8-0.8,10.9-0.8,18c0,1.1-0.8,1.9-1.9,1.9c-1.1,0-1.9-0.8-1.9-1.9c0-6.8-1.2-11.7-3.7-14.4
		c-2.4-2.7-6.6-4.1-12.4-4.1h-37.4c-4.4,0-7.6,1.3-9.9,4c-2.3,2.7-3.5,7.5-3.5,14.5c0,1.1-0.8,1.9-2,1.9s-2-0.8-2-1.9
		c0-6.2-0.3-11.9-0.8-16.9l0-0.3c-0.2-1.4-0.3-2.7-0.3-3.8c0-0.7,0.1-1.3,0.3-1.7l0.1-0.2l0.2-0.2c0.6-0.6,1.3-0.6,1.9-0.6h8
		l26.2-63.9l0.1-0.2l0.2-0.2c0.5-0.5,1-0.7,1.8-0.7c1.2,0,1.7,0.6,1.9,1l0,0l0,0l26.5,63.9h7.1c1.3,0,1.8,0.3,2,0.6
		c0.3,0.3,0.6,0.7,0.6,2V242z M224.8,308.5h-1.2h-1.1l-0.2-1l-1.4-5.9h-2.5l-1.4,5.9l-0.2,1h-1.1h-1.4h-1.7l0.4-1.6l4.5-18.8l0.2-1
		h1h1.3h1l0.2,1l4.6,18.8l0.4,1.6H224.8z M252.2,289.3l-0.5,1.1l-0.7,1.3l-1.2-0.8c-0.6-0.4-1.1-0.5-1.7-0.5c-0.7,0-1.5,0.2-2.2,1.6
		c-0.7,1.4-1.1,3.3-1.1,5.6c0,1.6,0.2,3,0.5,4.3c0.3,1,0.7,1.8,1.3,2.4c0.4,0.4,0.9,0.6,1.6,0.6c0.8,0,1.4-0.1,1.9-0.4l1.9-1v2.2
		v1.2v0.8l-0.7,0.4c-0.8,0.5-1.9,0.7-3.3,0.7c-1.6,0-3-0.5-4.1-1.5c-1.1-1-2-2.3-2.5-3.9c-0.5-1.7-0.8-3.6-0.8-5.6
		c0-3.2,0.6-5.8,1.8-7.8c1.3-2.1,3.2-3.2,5.5-3.2c1.4,0,2.7,0.3,3.7,1l1,0.7L252.2,289.3z M278,288.3v1.2v1.3h-1.3h-0.1h-2.4v16.3
		v1.3h-1.3h-1.3h-1.3v-1.3v-16.3h-2.4h-1.3v-1.3v-1.2V287h1.3h8.8h1.3V288.3z M297.3,288.3v18.8v1.3H296h-1.3h-1.3v-1.3v-18.8V287
		h1.3h1.3h1.3V288.3z M296.1,257.8h-13.3c-1.6,0-3-0.3-4.2-1c-1.5-0.9-3.6-3.7-5.2-5.8c-2.3-3.3-5.6-8.5-9.8-15.7
		c-2.9-5.1-5.7-9.4-8.1-12.3c-2.1-2.6-4.1-4.4-6.1-5.5c-1.6-0.8-3.4-1.4-5.4-1.6v30c0,2.5,0.2,4.2,0.7,5.2c0.4,0.8,1.1,1.4,2.2,1.7
		c1.3,0.4,3.5,0.6,6.8,0.6c0.3,0,1.7,0.1,1.7,2.1c0,2-1.4,2.1-1.7,2.1c-2.6,0-4.7,0-6.3-0.1l-9-0.1l-8.9,0.1
		c-1.5,0.1-3.7,0.1-6.4,0.1c-0.3,0-1.7-0.1-1.7-2.1c0-2,1.4-2.1,1.7-2.1c3.4,0,5.6-0.2,7-0.6c1.2-0.4,2-0.9,2.3-1.8
		c0.5-1.1,0.7-2.9,0.7-5.3v-60c0-3-0.4-4.5-0.7-5.1c-0.4-0.8-1.2-1.5-2.3-1.8c-1-0.3-3.1-0.7-6.9-0.7c-0.3,0-1.7-0.1-1.7-2.1
		c0-2,1.4-2.1,1.7-2.1l6.4,0.1c3.7,0.2,6.5,0.3,8.8,0.3c1.6,0,3.1,0,4.4-0.1c1.3-0.1,2.6-0.2,3.6-0.3c2.4-0.2,4.7-0.4,7-0.4
		c4.8,0,8.9,0.9,12.7,2.7c3.8,1.8,6.8,4.3,9,7.5c2.2,3.3,3.3,7,3.3,11.1c0,5.8-2.2,10.6-6.4,14.3c-3.2,2.8-7.4,4.7-12.8,5.7
		c1.8,0.9,3.6,2.1,5.2,3.6c3,2.9,6.2,7.1,9.4,12.7c4.5,8.1,8.5,13.9,11.7,17.3c3,3.2,6.5,4.8,10.7,4.8c0,0,0,0,0,0
		c0.4,0,1.6,0.2,1.6,2.1C297.7,257.4,296.8,257.8,296.1,257.8z M325.3,288.7l-4.3,18.7l-0.2,1h-1.1h-1.4h-1.1l-0.2-1l-4.4-18.8
		l-0.4-1.6h1.7h1.4h1.1l0.2,1l2.5,10.8c0.6-2.4,1.4-6,2.5-10.7l0.2-1h1.1h1.3h1.7L325.3,288.7z M350.2,288.2v1.3v1.3h-1.3h-4.3v4.5
		h3.9h1.3v1.3v1.2v1.3h-1.3h-3.9v5.4h4.3h1.3v1.3v1.2v1.3h-1.3H342h-1.3V307v-18.8v-1.3h1.3h6.9h1.3V288.2z M377.3,252
		c-6.8,3.8-14.4,5.7-22.5,5.7c-8,0-15.2-1.9-21.4-5.6c-6.3-3.7-11-8.7-14.5-15.3c-3.4-6.4-5.1-13.4-5.1-21c0-8.8,2.3-16.5,6.8-22.9
		c4.6-6.5,10.2-11.1,17.3-14.3c6.9-3.1,14.1-4.7,21.4-4.7c8.2,0,15.2,1.9,21.6,5.8c6.2,3.8,11,8.9,14.3,15.2c3.3,6.3,5,13,5,20
		c0,7.8-2.1,15.1-6.2,21.6C389.7,243.1,384.1,248.3,377.3,252z"/>
	<path class="st1" d="M372.6,183.2c-5.3-3.4-11.5-5.2-18.6-5.2c-9.2,0-16.5,3-21.6,8.9c-5.2,5.9-7.8,14-7.8,24.5
		c0,7.9,1.4,15,4.3,21.5c2.9,6.4,7,11.6,12.2,15.3c5.3,3.7,11.2,5.6,18,5.6c5.6,0,10.7-1.4,15.2-4.2c4.5-2.7,8.2-6.8,10.8-12.1
		c2.6-5.3,4-11.7,4-19c0-7.8-1.4-14.7-4.3-20.8C382,191.4,377.9,186.7,372.6,183.2z"/>
</g>
</svg>
