<?xml version="1.0" encoding="utf-8"?>
<!-- Generator: Adobe Illustrator 23.0.3, SVG Export Plug-In . SVG Version: 6.00 Build 0)  -->
<svg version="1.1" id="Layer_1" xmlns="http://www.w3.org/2000/svg" xmlns:xlink="http://www.w3.org/1999/xlink" x="0px" y="0px"
	 viewBox="0 0 74.3 54.1" style="enable-background:new 0 0 74.3 54.1;" xml:space="preserve">
<style type="text/css">
	.st0{fill:#FF3D00;}
</style>
<g>
	<path class="st0" d="M34.7,36c0,3.9-1.2,7.1-3.7,9.7c-2.5,2.6-5.7,3.9-9.7,3.9c-4.9,0-8.9-1.8-12.1-5.5c-3.1-3.6-4.7-8-4.7-13.1
		c0-7.4,2.7-13.7,8.2-19s12.1-7.9,19.9-7.9l0.3,2.2c-4.8,0-9.2,1.7-13.2,5c-4,3.4-6,7.2-6,11.6c0,1,0.1,1.7,0.4,2.2
		c0.2,0.5,0.6,0.7,1.1,0.7c0.7,0,1.8-0.3,3.2-1c1.4-0.6,2.7-1,3.7-1c3.3,0,6.2,1.1,8.8,3.4C33.4,29.7,34.7,32.5,34.7,36z M68.8,36
		c0,3.9-1.2,7.1-3.7,9.7c-2.5,2.6-5.7,3.9-9.7,3.9c-4.9,0-8.9-1.8-12.1-5.5c-3.1-3.6-4.7-8-4.7-13.1c0-7.4,2.7-13.7,8.2-19
		s12.1-7.9,19.9-7.9L67,6.4c-4.8,0-9.2,1.7-13.2,5c-4,3.4-6,7.2-6,11.6c0,1,0.1,1.7,0.4,2.2c0.2,0.5,0.6,0.7,1.1,0.7
		c0.7,0,1.8-0.3,3.2-1c1.4-0.6,2.7-1,3.7-1c3.3,0,6.2,1.1,8.8,3.4C67.6,29.7,68.8,32.5,68.8,36z"/>
</g>
</svg>
