<svg xmlns="http://www.w3.org/2000/svg" width="88" height="18" viewBox="0 0 88 18"><defs><style>.a{fill:#bbb;}</style></defs><path class="a" d="M12.6,12.6H10.8V10.8H9V9H7.2v9H0V0H7.2V1.8H9V3.6h1.8V5.4h1.8V3.6h1.8V1.8h1.8V0h7.2V17.9H16.2V9H14.4v1.8H12.6Z"/><path class="a" d="M43.1,18H27V16.2H25.2V1.8H27V0H43.2V1.8H45V16.2H43.2L43.1,18Zm-5.4-3.6V3.6H32.3V14.4Z"/><path class="a" d="M64.6,18H48.5V16.2H46.7V1.8h1.8V0H64.7V1.8h1.8V16.2H64.7L64.6,18Zm-5.3-3.6V3.6H53.9V14.4Z"/><path class="a" d="M80.8,0H88V17.9H80.8V12.5H79V10.7H77.2V9H75.4v9H68.2V0h7.2V1.8h1.8V3.6H79V5.4h1.8Z"/></svg>