<svg xmlns="http://www.w3.org/2000/svg" width="105.342" height="26.149" viewBox="0 0 105.342 26.149"><defs><style>.a{fill:#bbb;}</style></defs><path class="a" d="M106.242,5.231a5.372,5.372,0,0,0-.3-1.644A4.848,4.848,0,0,0,101.162.3H5.831A4.914,4.914,0,0,0,.9,5.38v11.8a4.975,4.975,0,0,0,4.931,4.931H16.589a.706.706,0,0,1,.747.747,2.815,2.815,0,0,1-.3,1.2,12.361,12.361,0,0,1-1.345,2.391,19.278,19.278,0,0,0,4.184-1.2,12.137,12.137,0,0,0,4.333-2.839.776.776,0,0,1,.6-.3h76.5a4.975,4.975,0,0,0,4.931-4.931ZM21.072,19.575c0,.149,0,.149-.149.149H18.98a9.522,9.522,0,0,1,.3-1.046v-.448c0-.747-.149-.747-.9-.747H8.072a2.247,2.247,0,0,1-1.644-.6,1.7,1.7,0,0,1-.448-1.2V5.081c0-.3,0-.3.3-.3H8.072c.3,0,.3.149.3.3v9.712c0,.448,0,.448.448.448h8.666c.3,0,.3,0,.3-.3V5.231c0-.3,0-.448.3-.3h1.644c.3,0,.3,0,.3.3v9.862c0,.149,0,.3.3.3s.6-.149.747,0a1.12,1.12,0,0,1,.149.747A5.462,5.462,0,0,1,21.072,19.575Zm16.138-2.092H35.416c-.3,0-.3,0-.3-.3V8.07h-.149c-.448.448-.9,1.046-1.345,1.494L26.75,16.438,25.7,17.483a1.719,1.719,0,0,1-2.54-.448,2.221,2.221,0,0,1-.3-1.345V5.231c0-.3.149-.3.3-.3h1.793c.3,0,.3,0,.3.3V14.5c.149,0,.149-.149.3-.149l4.034-4.034c1.494-1.494,3.138-2.988,4.632-4.632a2.68,2.68,0,0,1,1.046-.747c.6-.6,1.644-.149,2.092.747a3.29,3.29,0,0,1,.149,1.2v10.31C37.508,17.483,37.508,17.483,37.209,17.483Zm18.08-10.46H48.864a.4.4,0,0,0-.448.448v9.712c0,.3,0,.3-.3.3H46.324c-.3,0-.3,0-.3-.3V7.472c0-.3,0-.448-.448-.448H39c-.3,0-.3,0-.3-.3V5.081c0-.3,0-.3.3-.3H55.14c.3,0,.3,0,.3.3V6.725C55.588,7.024,55.439,7.024,55.289,7.024ZM70.979,10.61A3.07,3.07,0,0,1,67.841,13H59.473c-.3,0-.3.149-.3.3v3.885c0,.3,0,.3-.3.3H56.933c-.3,0-.3,0-.3-.3V6.875a1.347,1.347,0,0,1,.149-.747,1.853,1.853,0,0,1,1.942-1.345h9.115c1.942,0,2.988,1.2,3.287,3.138A5.488,5.488,0,0,1,70.979,10.61ZM79.2,17.185c-.149.3-.3.3-.6.3h-2.54c.448-.6.747-1.2,1.2-1.793.448-.747.448-.747,0-1.494-2.092-2.988-4.034-6.126-6.126-9.115a.146.146,0,0,0-.149-.149h2.69c.149,0,.149.149.3.149C75.461,7.323,77.1,9.714,78.749,12.1a2.063,2.063,0,0,1,.448.6,19.466,19.466,0,0,1,1.494-2.241c1.046-1.793,2.241-3.586,3.287-5.379.149-.149.149-.3.448-.3h2.54c0,.149-.149.3-.149.448C84.128,9.116,81.588,13.15,79.2,17.185Zm22.114-1.793v1.793c0,.3,0,.3-.3.3H91.9a4.8,4.8,0,0,1-4.483-2.54,4.911,4.911,0,0,1-.6-2.54,9.263,9.263,0,0,1,.3-4.034,5.086,5.086,0,0,1,4.333-3.586h9.563c.3,0,.3.149.3.3V6.725c0,.3,0,.3-.3.3H92.645a2.543,2.543,0,0,0-1.046.149,2.38,2.38,0,0,0-2.092,2.092,7.888,7.888,0,0,0,0,3.736,2.51,2.51,0,0,0,2.69,2.241h8.816C101.162,15.093,101.311,15.242,101.311,15.392Z" transform="translate(-0.9 -0.3)"/><path class="a" d="M47.969,4.9H40.2c-.3,0-.3,0-.3.3V8.038c0,.3,0,.3.3.3h8.368a.4.4,0,0,0,.448-.448,6.129,6.129,0,0,0,.149-1.644C49.314,5.049,49.164,4.9,47.969,4.9Z" transform="translate(18.374 1.973)"/></svg>