<?xml version="1.0" encoding="utf-8"?>
<!-- Generator: Adobe Illustrator 23.0.3, SVG Export Plug-In . SVG Version: 6.00 Build 0)  -->
<svg version="1.1" id="Layer_1" xmlns="http://www.w3.org/2000/svg" xmlns:xlink="http://www.w3.org/1999/xlink" x="0px" y="0px"
	 viewBox="0 0 72.8 18" style="enable-background:new 0 0 72.8 18;" xml:space="preserve">
<style type="text/css">
	.st0{fill:#ED6700;}
</style>
<g>
	<path class="st0" d="M71.4,3.6c0-0.4-0.1-0.8-0.2-1.1c-0.5-1.4-1.7-2.2-3.2-2.2c-21.2,0-42.5,0-63.7,0c0,0-0.1,0-0.1,0
		c-1.9,0-3.3,1.5-3.3,3.4c0,2.6,0,5.3,0,7.9c0,1.8,1.5,3.3,3.3,3.3c2.4,0,4.8,0,7.2,0c0.3,0,0.5,0.2,0.5,0.5c0,0.3-0.1,0.6-0.2,0.8
		c-0.2,0.6-0.6,1.1-0.9,1.6c1-0.2,1.9-0.4,2.8-0.8c1.1-0.5,2.1-1,2.9-1.9c0.1-0.1,0.2-0.2,0.4-0.2c17.1,0,34.1,0,51.2,0
		c1.8,0,3.3-1.5,3.3-3.3C71.4,8.9,71.4,6.3,71.4,3.6z M14.4,13.2c0,0.1,0,0.1-0.1,0.1c-0.4,0-0.8,0-1.3,0c0.1-0.3,0.1-0.5,0.2-0.7
		c0-0.1,0-0.2,0-0.3c0-0.5-0.1-0.5-0.6-0.5c-2.3,0-4.6,0-6.9,0c-0.4,0-0.8-0.1-1.1-0.4c-0.2-0.2-0.3-0.5-0.3-0.8c0-1.3,0-2.5,0-3.8
		c0-1.1,0-2.2,0-3.3c0-0.2,0-0.2,0.2-0.2c0.4,0,0.8,0,1.2,0c0.2,0,0.2,0.1,0.2,0.2c0,2.2,0,4.3,0,6.5c0,0.3,0,0.3,0.3,0.3
		c1.9,0,3.9,0,5.8,0c0.2,0,0.2,0,0.2-0.2c0-2.2,0-4.4,0-6.5c0-0.2,0-0.3,0.2-0.2c0.4,0,0.8,0,1.1,0c0.2,0,0.2,0,0.2,0.2
		c0,1.9,0,3.8,0,5.7c0,0.3,0,0.6,0,0.9c0,0.1,0,0.2,0.2,0.2c0.2,0,0.4-0.1,0.5,0c0.1,0.1,0.1,0.3,0.1,0.5
		C14.7,11.6,14.7,12.4,14.4,13.2z M25.2,11.8c-0.4,0-0.8,0-1.2,0c-0.2,0-0.2,0-0.2-0.2c0-2,0-4,0-5.9c0-0.1,0-0.2,0-0.2
		c0,0-0.1,0-0.1,0c-0.3,0.3-0.6,0.7-0.9,1c-1.5,1.5-3.1,3.1-4.6,4.6c-0.2,0.2-0.5,0.5-0.7,0.7c-0.6,0.5-1.4,0.2-1.7-0.3
		c-0.2-0.3-0.2-0.6-0.2-0.9c0-2.3,0-4.7,0-7c0-0.2,0.1-0.2,0.2-0.2c0.4,0,0.8,0,1.2,0c0.2,0,0.2,0,0.2,0.2c0,1.4,0,2.7,0,4.1
		c0,0.7,0,1.4,0,2.1c0.1,0,0.1-0.1,0.2-0.1c0.9-0.9,1.8-1.8,2.7-2.7c1-1,2.1-2,3.1-3.1c0.2-0.2,0.4-0.4,0.7-0.5
		C24.3,3,25,3.3,25.3,3.9c0.1,0.3,0.1,0.5,0.1,0.8c0,2.3,0,4.6,0,6.9C25.4,11.8,25.4,11.8,25.2,11.8z M37.3,4.8c-1.4,0-2.9,0-4.3,0
		c-0.2,0-0.3,0.1-0.3,0.3c0,2.2,0,4.3,0,6.5c0,0.2,0,0.2-0.2,0.2c-0.4,0-0.8,0-1.2,0c-0.2,0-0.2,0-0.2-0.2c0-2.2,0-4.4,0-6.5
		c0-0.2,0-0.3-0.3-0.3c-1.5,0-2.9,0-4.4,0c-0.2,0-0.2,0-0.2-0.2c0-0.4,0-0.7,0-1.1c0-0.2,0-0.2,0.2-0.2c1.8,0,3.6,0,5.4,0
		c1.8,0,3.6,0,5.4,0c0.2,0,0.2,0,0.2,0.2c0,0.4,0,0.7,0,1.1C37.5,4.8,37.4,4.8,37.3,4.8z M47.8,7.2c-0.3,1-1,1.6-2.1,1.6
		c-1.9,0-3.7,0-5.6,0c-0.2,0-0.2,0.1-0.2,0.2c0,0.9,0,1.7,0,2.6c0,0.2,0,0.2-0.2,0.2c-0.4,0-0.8,0-1.3,0c-0.2,0-0.2,0-0.2-0.2
		c0-1.2,0-2.3,0-3.5c0-1.1,0-2.3,0-3.4c0-0.2,0-0.3,0.1-0.5c0.1-0.5,0.6-0.9,1.3-0.9c2,0,4.1,0,6.1,0c1.3,0,2,0.8,2.2,2.1
		C48,6,48,6.6,47.8,7.2z M53.3,11.6c-0.1,0.2-0.2,0.2-0.4,0.2c-0.6,0-1.1,0-1.7,0c0.3-0.4,0.5-0.8,0.8-1.2c0.3-0.5,0.3-0.5,0-1
		c-1.4-2-2.7-4.1-4.1-6.1c0,0,0-0.1-0.1-0.1c0.6,0,1.2,0,1.8,0c0.1,0,0.1,0.1,0.2,0.1C50.8,5,51.9,6.6,53,8.2
		c0.1,0.1,0.2,0.2,0.3,0.4c0.3-0.5,0.6-1,1-1.5c0.7-1.2,1.5-2.4,2.2-3.6c0.1-0.1,0.1-0.2,0.3-0.2c0.6,0,1.1,0,1.7,0
		c0,0.1-0.1,0.2-0.1,0.3C56.6,6.2,54.9,8.9,53.3,11.6z M68.1,10.4c0,0.4,0,0.8,0,1.2c0,0.2,0,0.2-0.2,0.2c-1,0-2.1,0-3.1,0
		c-1,0-2,0-3,0c-1.3,0-2.3-0.5-3-1.7c-0.3-0.5-0.4-1.1-0.4-1.7c-0.1-0.9-0.1-1.8,0.2-2.7c0.4-1.5,1.7-2.2,2.9-2.4c0.3,0,0.5,0,0.8,0
		c1.9,0,3.7,0,5.6,0c0.2,0,0.2,0.1,0.2,0.2c0,0.4,0,0.8,0,1.1c0,0.2,0,0.2-0.2,0.2c-1.9,0-3.7,0-5.6,0c-0.2,0-0.5,0-0.7,0.1
		c-0.8,0.1-1.2,0.6-1.4,1.4c-0.2,0.8-0.2,1.6,0,2.5c0.1,0.9,0.8,1.5,1.8,1.5c0.5,0,0.9,0,1.4,0c1.5,0,3,0,4.5,0
		C68,10.2,68.1,10.3,68.1,10.4z"/>
	<path class="st0" d="M45.3,4.9c-0.8,0-1.7,0-2.5,0c-0.9,0-1.8,0-2.7,0c-0.2,0-0.2,0-0.2,0.2c0,0.6,0,1.3,0,1.9c0,0.2,0,0.2,0.2,0.2
		c1.7,0,3.5,0,5.2,0c0.1,0,0.3,0,0.4,0c0.2,0,0.3-0.1,0.3-0.3c0.1-0.4,0.1-0.7,0.1-1.1C46.2,5,46.1,4.9,45.3,4.9z"/>
</g>
</svg>
