<svg xmlns="http://www.w3.org/2000/svg" width="130.472" height="52.34" viewBox="0 0 130.472 52.34"><defs><style>.a{fill:#262626;}.b{fill:#ee3524;}.c{fill:#f78e1e;}.d{fill:#fff200;}.e{fill:#7ac143;}.f{fill:#00aeef;}.g{fill:#492f92;}</style></defs><g transform="translate(35.273 7.206)"><g transform="translate(82.303)"><path class="a" d="M33.3,2.8h0" transform="translate(-33.3 -2.8)"/></g><g transform="translate(0 1.896)"><path class="a" d="M18.427,3.4H11.6V29.191h6.827c6.068,0,8.344-2.276,8.344-9.1V12.5C26.771,6.055,24.5,3.4,18.427,3.4ZM22.22,20.468c0,3.414-.759,4.172-3.413,4.172H16.151V7.951h2.655c2.655,0,3.413.759,3.413,4.172Z" transform="translate(-11.6 -3.021)"/><path class="a" d="M32.888,27.674,26.82,17.813c2.655-.759,4.551-2.655,4.551-6.827,0-4.931-3.034-7.586-8.723-7.586H16.2V29.191h4.551V18.571h1.517l5.689,9.861v.379h5.31ZM23.027,14.4h-1.9V7.951h1.9c3.413,0,4.172.759,4.172,3.414S26.061,14.4,23.027,14.4Z" transform="translate(1.247 -3.021)"/><path class="a" d="M21,11.744v9.1c0,5.689,3.034,8.344,8.344,8.344H33.9V24.64h-5.31c-1.517,0-3.413-.379-3.413-3.793V18.192h8.344V13.641H25.172v-1.9c0-3.034.759-3.793,3.793-3.793h4.551V3.4H28.586C24.034,3.4,21,6.434,21,11.744Z" transform="translate(14.652 -3.021)"/><path class="a" d="M32.586,3.3C28.034,3.3,25,6.714,25,11.644V29.091h4.551V18.471H36v11h4.172V11.644C40.171,6.334,37.516,3.3,32.586,3.3ZM35.62,13.92H29.172v-1.9c0-3.414,1.517-4.172,3.413-4.172S36,8.61,36,12.023l-.379,1.9Z" transform="translate(25.823 -3.3)"/><path class="a" d="M48.005,3.3c-2.655,0-4.172.759-5.31,2.276C41.558,4.059,40.04,3.3,37.386,3.3c-3.413,0-7.586,1.517-7.586,8.723V29.47h4.551V12.023c0-3.414,1.138-4.172,3.034-4.172S40.8,8.61,40.8,12.023V29.47h4.172V12.023c0-3.034.759-4.172,3.034-4.172,1.9,0,3.414.759,3.414,4.172V29.47H55.97V12.023C55.591,6.334,52.936,3.3,48.005,3.3Z" transform="translate(39.229 -3.3)"/></g><g transform="translate(3.034 33.376)"><g transform="translate(0 0.379)"><path class="a" d="M14.4,19.665V13.217H12.5V11.7h4.931v1.517h-1.9v6.448Z" transform="translate(-12.121 -11.7)"/><path class="a" d="M17.331,12.079v.759h-1.9v6.827h-.759V12.838h-1.9v-.759h4.551m.379-.379H12.4v1.517h1.9v6.448h1.517V12.838h1.9V11.7Z" transform="translate(-12.4 -11.7)"/></g><g transform="translate(26.929)"><path class="a" d="M21.876,20.044c-1.138,0-2.276-.379-2.276-2.655V14.355c0-2.276,1.138-2.655,2.276-2.655s2.276.379,2.276,2.655v3.034c-.379,1.9-1.517,2.655-2.276,2.655Zm0-7.206c-.759,0-1.138.379-1.138,1.517v3.034c0,1.138.379,1.517,1.138,1.517s1.138-.379,1.138-1.517V14.355c0-1.138-.379-1.517-1.138-1.517Z" transform="translate(-19.221 -11.321)"/><path class="a" d="M22.155,11.979c1.517,0,2.276.759,2.276,2.655v3.034c0,1.517-.759,2.655-2.276,2.655s-2.276-.759-2.276-2.655V14.634c0-1.517.759-2.655,2.276-2.655m0,7.206c1.138,0,1.138-.379,1.138-1.517V14.634c0-1.138-.379-1.517-1.138-1.517-1.138,0-1.138.379-1.138,1.517v3.034c-.379.759,0,1.517,1.138,1.517m0-7.586c-1.517,0-2.655,1.138-2.655,3.034v3.034c0,1.9.759,3.034,2.655,3.034,1.517,0,2.655-1.138,2.655-3.034V14.634c-.379-1.9-1.138-3.034-2.655-3.034Zm0,7.206c-.379,0-.759,0-.759-1.138V14.634c0-1.138.379-1.138.759-1.138s.759,0,.759,1.138v3.034c0,.759-.379,1.138-.759,1.138Z" transform="translate(-19.5 -11.6)"/></g><g transform="translate(53.478 0.379)"><path class="a" d="M31.81,19.665,30.672,13.6l-1.138,6.068H28.017L26.5,11.7h1.517l.759,6.068L29.913,11.7h1.517l1.517,6.068L34.086,11.7h1.138l-1.517,7.965Z" transform="translate(-26.5 -11.7)"/><path class="a" d="M34.565,12.079l-1.517,7.586H31.91l-1.138-6.448h0l-1.138,6.448H28.117L26.6,12.079h.759L28.5,18.527h0l1.138-6.448h1.138l1.138,6.448h0l1.138-6.448h1.517m.379-.379H33.427v.379l-.759,5.31-1.138-5.31V11.7h-1.9v.379l-.759,4.931-.759-4.931V11.7H26.6v.379l1.517,7.586v.379h1.517v-.379l.759-4.931,1.138,4.931v.379h1.9v-.379L34.944,11.7Z" transform="translate(-26.221 -11.7)"/></g><g transform="translate(83.441)"><path class="a" d="M37.913,19.665v-5.31c0-.759,0-1.517-1.138-1.517s-1.138.379-1.138,1.517v5.31H34.5v-5.31c0-1.9.759-2.655,2.276-2.655s2.276.759,2.276,2.655v5.31Z" transform="translate(-34.121 -11.321)"/><path class="a" d="M37.055,11.979c1.517,0,2.276.759,2.276,2.655v5.31h-.759v-5.31c0-.759,0-1.517-1.138-1.517s-1.138.759-1.138,1.517v5.31h-.759v-5.31c-.379-1.517,0-2.655,1.517-2.655m0-.379c-1.517,0-2.655.759-2.655,3.034v5.689h1.517V14.634c0-.759,0-1.138.759-1.138s.759.379.759,1.138v5.689h1.517V14.634c.759-1.138.379-3.034-1.9-3.034Z" transform="translate(-34.4 -11.6)"/></g></g></g><g transform="translate(0 0)"><path class="b" d="M2.3,20.437A11.982,11.982,0,0,1,14.437,8.3h0A11.982,11.982,0,0,1,26.574,20.437h0A11.982,11.982,0,0,1,14.437,32.574h0A11.982,11.982,0,0,1,2.3,20.437Zm4.931-7.206A10.362,10.362,0,0,0,4.2,20.437h0a9.711,9.711,0,0,0,3.034,7.206h0a10.362,10.362,0,0,0,7.206,3.034h0a9.711,9.711,0,0,0,7.206-3.034h0a10.362,10.362,0,0,0,3.034-7.206h0a9.711,9.711,0,0,0-3.034-7.206h0A10.362,10.362,0,0,0,14.437,10.2h0a10.362,10.362,0,0,0-7.206,3.034Z" transform="translate(-2.3 19.767)"/><path class="c" d="M2.8,19.32A10.527,10.527,0,0,1,13.041,8.7h0A10.6,10.6,0,0,1,23.66,19.32h0a10.6,10.6,0,0,1-10.62,10.62h0A10.782,10.782,0,0,1,2.8,19.32Zm4.172-6.068A8.95,8.95,0,0,0,4.317,19.32h0a8.95,8.95,0,0,0,2.655,6.068h0a8.95,8.95,0,0,0,6.068,2.655h0a8.95,8.95,0,0,0,6.068-2.655h0a8.95,8.95,0,0,0,2.655-6.068h0a8.95,8.95,0,0,0-2.655-6.068h0A8.95,8.95,0,0,0,13.041,10.6h0a8.95,8.95,0,0,0-6.068,2.655Z" transform="translate(-0.904 20.884)"/><path class="d" d="M3.2,17.923A8.583,8.583,0,0,1,11.923,9.2h0a8.583,8.583,0,0,1,8.723,8.723h0a8.583,8.583,0,0,1-8.723,8.723h0A8.822,8.822,0,0,1,3.2,17.923Zm3.793-4.931a7.21,7.21,0,0,0-1.9,4.931h0a7.21,7.21,0,0,0,1.9,4.931h0a7.21,7.21,0,0,0,4.931,1.9h0a7.21,7.21,0,0,0,4.931-1.9h0a7.21,7.21,0,0,0,1.9-4.931h0a7.21,7.21,0,0,0-1.9-4.931h0a7.21,7.21,0,0,0-4.931-1.9h0a7.988,7.988,0,0,0-4.931,1.9Z" transform="translate(0.214 22.28)"/><path class="e" d="M3.7,16.527A6.8,6.8,0,0,1,10.527,9.7h0a6.8,6.8,0,0,1,6.827,6.827h0a6.8,6.8,0,0,1-6.827,6.827h0A6.8,6.8,0,0,1,3.7,16.527Zm3.413-3.793A4.869,4.869,0,0,0,5.6,16.527h0A6.739,6.739,0,0,0,7.113,20.32h0a4.869,4.869,0,0,0,3.793,1.517h0a5.424,5.424,0,0,0,5.31-5.31h0a5.424,5.424,0,0,0-5.31-5.31h0a5.056,5.056,0,0,0-3.793,1.517Z" transform="translate(1.61 23.676)"/><path class="f" d="M4.2,15.41A5.424,5.424,0,0,1,9.51,10.1h0a5.424,5.424,0,0,1,5.31,5.31h0a5.424,5.424,0,0,1-5.31,5.31h0A5.185,5.185,0,0,1,4.2,15.41Zm1.517,0a3.4,3.4,0,0,0,3.414,3.413h0a3.4,3.4,0,0,0,3.413-3.413h0A3.4,3.4,0,0,0,9.131,12h0A3.4,3.4,0,0,0,5.717,15.41Z" transform="translate(3.006 24.794)"/><path class="g" d="M4.6,14.014A3.4,3.4,0,0,1,8.013,10.6h0a3.4,3.4,0,0,1,3.413,3.414h0a3.4,3.4,0,0,1-3.413,3.413h0A3.4,3.4,0,0,1,4.6,14.014Zm1.9,0a1.631,1.631,0,0,0,1.517,1.517h0a1.631,1.631,0,0,0,1.517-1.517h0c.379-.759-.379-1.9-1.517-1.9h0a2.52,2.52,0,0,0-1.517,1.9Z" transform="translate(4.123 26.19)"/><path class="b" d="M8.3,33.563V4.359A.816.816,0,0,1,9.059,3.6h0a.816.816,0,0,1,.759.759h0v29.2a.816.816,0,0,1-.759.759h0a.816.816,0,0,1-.759-.759Z" transform="translate(14.457 6.641)"/><path class="c" d="M7.8,36.076V3.459A.816.816,0,0,1,8.559,2.7h0a.816.816,0,0,1,.759.759h0V36.076a.816.816,0,0,1-.759.759h0a.816.816,0,0,1-.759-.759Z" transform="translate(13.06 4.127)"/><path class="d" d="M7.3,41.1V1.659A.816.816,0,0,1,8.059.9h0a.816.816,0,0,1,.759.759h0V41.1a.816.816,0,0,1-.759.759h0A.816.816,0,0,1,7.3,41.1Z" transform="translate(11.664 -0.9)"/><path class="e" d="M6.9,37.194V3.059A.816.816,0,0,1,7.659,2.3h0a.816.816,0,0,1,.759.759h0V37.194a.816.816,0,0,1-.759.759h0a.816.816,0,0,1-.759-.759Z" transform="translate(10.547 3.01)"/><path class="f" d="M6.4,39.149V2.359A.816.816,0,0,1,7.159,1.6h0a.816.816,0,0,1,.759.759h0v36.79a.816.816,0,0,1-.759.759h0a.816.816,0,0,1-.759-.759Z" transform="translate(9.15 1.055)"/><path class="g" d="M5.9,35.518V4.038A1.006,1.006,0,0,1,7.038,2.9h0a.816.816,0,0,1,.759.759h0V35.518a.816.816,0,0,1-.759.759h0c-.759,0-1.138-.379-1.138-.759Z" transform="translate(7.754 4.686)"/></g></svg>