<?xml version="1.0" encoding="utf-8"?>
<!-- Generator: Adobe Illustrator 23.0.3, SVG Export Plug-In . SVG Version: 6.00 Build 0)  -->
<svg version="1.1" id="Layer_1" xmlns="http://www.w3.org/2000/svg" xmlns:xlink="http://www.w3.org/1999/xlink" x="0px" y="0px"
	 viewBox="0 0 39.7 15.6" style="enable-background:new 0 0 39.7 15.6;" xml:space="preserve">
<style type="text/css">
	.st0{fill:#262626;}
	.st1{fill:#EE3524;}
	.st2{fill:#F78E1E;}
	.st3{fill:#FFF200;}
	.st4{fill:#7AC143;}
	.st5{fill:#00AEEF;}
	.st6{fill:#492F92;}
</style>
<g>
	<g>
		<g>
			<path class="st0" d="M33.3,2.8L33.3,2.8"/>
		</g>
		<g>
			<path class="st0" d="M13.4,3.4h-1.8v6.8h1.8c1.6,0,2.2-0.6,2.2-2.4V5.8C15.6,4.1,15,3.4,13.4,3.4z M14.4,7.9
				c0,0.9-0.2,1.1-0.9,1.1h-0.7V4.6h0.7c0.7,0,0.9,0.2,0.9,1.1V7.9z"/>
			<path class="st0" d="M20.6,9.8L19,7.2c0.7-0.2,1.2-0.7,1.2-1.8c0-1.3-0.8-2-2.3-2h-1.7v6.8h1.2V7.4h0.4l1.5,2.6l0,0.1h1.4
				L20.6,9.8z M18,6.3h-0.5V4.6H18c0.9,0,1.1,0.2,1.1,0.9C19.1,6.2,18.8,6.3,18,6.3z"/>
			<path class="st0" d="M21,5.6V8c0,1.5,0.8,2.2,2.2,2.2h1.2V9h-1.4c-0.4,0-0.9-0.1-0.9-1V7.3h2.2V6.1h-2.2V5.6c0-0.8,0.2-1,1-1h1.2
				V3.4h-1.3C21.8,3.4,21,4.2,21,5.6z"/>
			<path class="st0" d="M27,3.3c-1.2,0-2,0.9-2,2.2v4.6h1.2V7.3h1.7v2.9H29V5.5C29,4.1,28.3,3.3,27,3.3z M27.8,6.1h-1.7V5.6
				c0-0.9,0.4-1.1,0.9-1.1s0.9,0.2,0.9,1.1L27.8,6.1L27.8,6.1z"/>
			<path class="st0" d="M34.6,3.3c-0.7,0-1.1,0.2-1.4,0.6c-0.3-0.4-0.7-0.6-1.4-0.6c-0.9,0-2,0.4-2,2.3v4.6h1.2V5.6
				c0-0.9,0.3-1.1,0.8-1.1c0.5,0,0.9,0.2,0.9,1.1v4.6h1.1V5.6c0-0.8,0.2-1.1,0.8-1.1c0.5,0,0.9,0.2,0.9,1.1v4.6h1.2V5.6
				C36.6,4.1,35.9,3.3,34.6,3.3z"/>
		</g>
		<g>
			<g>
				<polygon class="st0" points="13,13.8 13,12.1 12.5,12.1 12.5,11.7 13.8,11.7 13.8,12.1 13.3,12.1 13.3,13.8 				"/>
				<path class="st0" d="M13.7,11.8V12h-0.5v1.8H13V12h-0.5v-0.2H13.7 M13.8,11.7L13.8,11.7h-1.3h-0.1v0.1V12v0.1h0.1h0.4v1.7v0H13
					h0.2h0.1v-0.1v-1.7h0.4h0.1V12V11.7L13.8,11.7L13.8,11.7z"/>
			</g>
			<g>
				<path class="st0" d="M20.2,13.9c-0.3,0-0.6-0.1-0.6-0.7v-0.8c0-0.6,0.3-0.7,0.6-0.7c0.3,0,0.6,0.1,0.6,0.7v0.8
					C20.7,13.7,20.4,13.9,20.2,13.9L20.2,13.9z M20.2,12c-0.2,0-0.3,0.1-0.3,0.4v0.8c0,0.3,0.1,0.4,0.3,0.4c0.2,0,0.3-0.1,0.3-0.4
					v-0.8C20.5,12.1,20.4,12,20.2,12L20.2,12z"/>
				<path class="st0" d="M20.2,11.7c0.4,0,0.6,0.2,0.6,0.7v0.8c0,0.4-0.2,0.7-0.6,0.7c-0.4,0-0.6-0.2-0.6-0.7v-0.8
					C19.6,12,19.8,11.7,20.2,11.7 M20.2,13.6c0.3,0,0.3-0.1,0.3-0.4v-0.8c0-0.3-0.1-0.4-0.3-0.4c-0.3,0-0.3,0.1-0.3,0.4v0.8
					C19.8,13.4,19.9,13.6,20.2,13.6 M20.2,11.6c-0.4,0-0.7,0.3-0.7,0.8v0.8c0,0.5,0.2,0.8,0.7,0.8c0.4,0,0.7-0.3,0.7-0.8v-0.8
					C20.8,11.9,20.6,11.6,20.2,11.6L20.2,11.6z M20.2,13.5c-0.1,0-0.2,0-0.2-0.3v-0.8c0-0.3,0.1-0.3,0.2-0.3c0.1,0,0.2,0,0.2,0.3
					v0.8C20.4,13.4,20.3,13.5,20.2,13.5L20.2,13.5z"/>
			</g>
			<g>
				<polygon class="st0" points="27.9,13.8 27.6,12.2 27.3,13.8 26.9,13.8 26.5,11.7 26.9,11.7 27.1,13.3 27.4,11.7 27.8,11.7 
					28.2,13.3 28.5,11.7 28.8,11.7 28.4,13.8 				"/>
				<path class="st0" d="M28.7,11.8l-0.4,2H28l-0.3-1.7h0l-0.3,1.7H27l-0.4-2h0.2l0.3,1.7h0l0.3-1.7h0.3l0.3,1.7h0l0.3-1.7H28.7
					 M28.8,11.7L28.8,11.7h-0.3h-0.1v0.1l-0.2,1.4l-0.3-1.4v-0.1h-0.1h-0.3h-0.1v0.1l-0.2,1.3l-0.2-1.3v-0.1h-0.1h-0.2h-0.1v0.1
					l0.4,2v0.1H27h0.3h0.1v-0.1l0.2-1.3l0.3,1.3v0.1H28h0.3h0.1v-0.1L28.8,11.7L28.8,11.7L28.8,11.7z"/>
			</g>
			<g>
				<path class="st0" d="M35.4,13.8v-1.4c0-0.2,0-0.4-0.3-0.4s-0.3,0.1-0.3,0.4v1.4h-0.3v-1.4c0-0.5,0.2-0.7,0.6-0.7
					c0.4,0,0.6,0.2,0.6,0.7v1.4H35.4z"/>
				<path class="st0" d="M35.1,11.7c0.4,0,0.6,0.2,0.6,0.7v1.4h-0.2v-1.4c0-0.2,0-0.4-0.3-0.4s-0.3,0.2-0.3,0.4v1.4h-0.2v-1.4
					C34.6,12,34.7,11.7,35.1,11.7 M35.1,11.6c-0.4,0-0.7,0.2-0.7,0.8v1.4v0.1h0.1h0.2h0.1v-0.1v-1.4c0-0.2,0-0.3,0.2-0.3
					s0.2,0.1,0.2,0.3v1.4v0.1h0.1h0.2h0.1v-0.1v-1.4C35.8,12.1,35.7,11.6,35.1,11.6L35.1,11.6z"/>
			</g>
		</g>
	</g>
	<g>
		<path class="st1" d="M2.3,11.5c0-1.8,1.4-3.2,3.2-3.2l0,0c1.8,0,3.2,1.4,3.2,3.2l0,0c0,1.8-1.4,3.2-3.2,3.2l0,0
			C3.7,14.7,2.3,13.3,2.3,11.5L2.3,11.5z M3.6,9.6c-0.5,0.5-0.8,1.2-0.8,1.9l0,0c0,0.8,0.3,1.4,0.8,1.9l0,0c0.5,0.5,1.2,0.8,1.9,0.8
			l0,0c0.8,0,1.4-0.3,1.9-0.8l0,0c0.5-0.5,0.8-1.2,0.8-1.9l0,0c0-0.8-0.3-1.4-0.8-1.9l0,0C6.9,9.1,6.2,8.8,5.5,8.8l0,0
			C4.8,8.8,4.1,9.1,3.6,9.6L3.6,9.6z"/>
		<path class="st2" d="M2.8,11.5C2.8,10,4,8.7,5.5,8.7l0,0c1.5,0,2.8,1.2,2.8,2.8l0,0c0,1.5-1.2,2.8-2.8,2.8l0,0
			C4,14.2,2.8,13,2.8,11.5L2.8,11.5z M3.9,9.9c-0.4,0.4-0.7,1-0.7,1.6l0,0c0,0.6,0.3,1.2,0.7,1.6l0,0c0.4,0.4,1,0.7,1.6,0.7l0,0
			c0.6,0,1.2-0.3,1.6-0.7l0,0c0.4-0.4,0.7-1,0.7-1.6l0,0c0-0.6-0.3-1.2-0.7-1.6l0,0c-0.4-0.4-1-0.7-1.6-0.7l0,0
			C4.9,9.2,4.3,9.5,3.9,9.9L3.9,9.9z"/>
		<path class="st3" d="M3.2,11.5c0-1.3,1-2.3,2.3-2.3l0,0c1.3,0,2.3,1,2.3,2.3l0,0c0,1.3-1,2.3-2.3,2.3l0,0
			C4.3,13.8,3.2,12.8,3.2,11.5L3.2,11.5z M4.2,10.2c-0.3,0.3-0.5,0.8-0.5,1.3l0,0c0,0.5,0.2,1,0.5,1.3l0,0c0.3,0.3,0.8,0.5,1.3,0.5
			l0,0c0.5,0,1-0.2,1.3-0.5l0,0c0.3-0.3,0.5-0.8,0.5-1.3l0,0c0-0.5-0.2-1-0.5-1.3l0,0C6.5,9.9,6,9.7,5.5,9.7l0,0
			C5,9.7,4.6,9.9,4.2,10.2L4.2,10.2z"/>
		<path class="st4" d="M3.7,11.5c0-1,0.8-1.8,1.8-1.8l0,0c1,0,1.8,0.8,1.8,1.8l0,0c0,1-0.8,1.8-1.8,1.8l0,0
			C4.5,13.3,3.7,12.5,3.7,11.5L3.7,11.5z M4.6,10.5c-0.3,0.3-0.4,0.6-0.4,1l0,0c0,0.4,0.2,0.7,0.4,1l0,0c0.3,0.3,0.6,0.4,1,0.4l0,0
			c0.7,0,1.4-0.6,1.4-1.4l0,0c0-0.7-0.6-1.4-1.4-1.4l0,0C5.1,10.1,4.8,10.3,4.6,10.5L4.6,10.5z"/>
		<path class="st5" d="M4.2,11.5c0-0.7,0.6-1.4,1.4-1.4l0,0c0.7,0,1.4,0.6,1.4,1.4l0,0c0,0.7-0.6,1.4-1.4,1.4l0,0
			C4.8,12.9,4.2,12.3,4.2,11.5L4.2,11.5z M4.6,11.5c0,0.5,0.4,0.9,0.9,0.9l0,0c0.5,0,0.9-0.4,0.9-0.9l0,0c0-0.5-0.4-0.9-0.9-0.9l0,0
			C5,10.6,4.6,11,4.6,11.5L4.6,11.5z"/>
		<path class="st6" d="M4.6,11.5c0-0.5,0.4-0.9,0.9-0.9l0,0c0.5,0,0.9,0.4,0.9,0.9l0,0c0,0.5-0.4,0.9-0.9,0.9l0,0
			C5,12.4,4.6,12,4.6,11.5L4.6,11.5z M5.1,11.5c0,0.2,0.2,0.4,0.4,0.4l0,0c0.2,0,0.4-0.2,0.4-0.4l0,0C6,11.3,5.8,11,5.5,11l0,0
			C5.3,11.1,5.1,11.3,5.1,11.5L5.1,11.5z"/>
		<path class="st1" d="M8.3,11.5V3.8c0-0.1,0.1-0.2,0.2-0.2l0,0c0.1,0,0.2,0.1,0.2,0.2l0,0v7.7c0,0.1-0.1,0.2-0.2,0.2l0,0
			C8.4,11.7,8.3,11.6,8.3,11.5L8.3,11.5z"/>
		<path class="st2" d="M7.8,11.5V2.9c0-0.1,0.1-0.2,0.2-0.2l0,0c0.1,0,0.2,0.1,0.2,0.2l0,0v8.6c0,0.1-0.1,0.2-0.2,0.2l0,0
			C7.9,11.7,7.8,11.6,7.8,11.5L7.8,11.5z"/>
		<path class="st3" d="M7.3,11.5V1.1c0-0.1,0.1-0.2,0.2-0.2l0,0c0.1,0,0.2,0.1,0.2,0.2l0,0v10.4c0,0.1-0.1,0.2-0.2,0.2l0,0
			C7.4,11.7,7.3,11.6,7.3,11.5L7.3,11.5z"/>
		<path class="st4" d="M6.9,11.5v-9c0-0.1,0.1-0.2,0.2-0.2l0,0c0.1,0,0.2,0.1,0.2,0.2l0,0v9c0,0.1-0.1,0.2-0.2,0.2l0,0
			C7,11.7,6.9,11.6,6.9,11.5L6.9,11.5z"/>
		<path class="st5" d="M6.4,11.5V1.8c0-0.1,0.1-0.2,0.2-0.2l0,0c0.1,0,0.2,0.1,0.2,0.2l0,0v9.7c0,0.1-0.1,0.2-0.2,0.2l0,0
			C6.5,11.7,6.4,11.6,6.4,11.5L6.4,11.5z"/>
		<path class="st6" d="M5.9,11.5V3.2C5.9,3,6,2.9,6.2,2.9l0,0c0.1,0,0.2,0.1,0.2,0.2l0,0v8.4c0,0.1-0.1,0.2-0.2,0.2l0,0
			C6,11.7,5.9,11.6,5.9,11.5L5.9,11.5z"/>
	</g>
</g>
</svg>
