<?xml version="1.0" encoding="utf-8"?>
<!-- Generator: Adobe Illustrator 23.0.3, SVG Export Plug-In . SVG Version: 6.00 Build 0)  -->
<svg version="1.1" id="Layer_1" xmlns="http://www.w3.org/2000/svg" xmlns:xlink="http://www.w3.org/1999/xlink" x="0px" y="0px"
	 viewBox="0 0 25.3 23.8" style="enable-background:new 0 0 25.3 23.8;" xml:space="preserve">
<style type="text/css">
	.st0{fill:#A70230;}
</style>
<g>
	<path class="st0" d="M12.8,0.8C7,0.7,1.7,5.5,1.8,11.9c0,6,4.9,10.8,10.7,11C19,23,23.9,17.8,23.9,11.8C23.8,5.4,18.5,0.7,12.8,0.8
		z M22.5,10.3c-0.1-0.3-0.2-0.6-0.2-0.9c0,0,0-0.1,0-0.1c0,0.3,0,0.7,0,1c0,2.8-0.8,5.4-2.1,7.9c-0.4,0.7-1,1.3-1.7,1.7
		c-1.1,0.7-2.2,1.1-3.5,1.3c-1,0.1-1.9,0.2-2.9,0.1c-1.2,0-2.4-0.2-3.5-0.7c-0.8-0.3-1.6-0.8-2.3-1.4C6,19,5.8,18.7,5.6,18.4
		c-0.9-1.7-1.6-3.4-1.9-5.3c-0.2-1-0.3-2-0.3-2.9c0-0.2,0-0.4,0-0.6c0,0.1-0.1,0.3-0.1,0.4c-0.1,0.4-0.3,0.7-0.7,1
		c-0.2,0.1-0.4,0.4-0.5,0.6c0-1.5,0.3-2.8,0.9-4.2c0.6-1.3,1.4-2.5,2.5-3.5c3.2-3,7.9-3.7,11.9-1.8c4.1,1.9,6.2,5.9,6.2,9.7
		C23.1,11.4,22.7,10.9,22.5,10.3z"/>
	<path class="st0" d="M20.1,9.2c0-0.4,0-0.7,0-1c0-0.6-0.1-1.2-0.3-1.8c-0.1-0.4-0.4-0.8-0.8-1c-0.3-0.1-0.5-0.3-0.8-0.4
		c-1.2-0.4-2.4-0.6-3.6-0.7c-0.5,0-1.1,0-1.6,0c-1.5,0-3,0.1-4.4,0.4C8,4.9,7.4,5.1,6.8,5.4C6.4,5.6,6.1,6,5.9,6.5
		C5.8,7,5.7,7.6,5.6,8.2c0,1.2,0,2.3,0.2,3.4c0.2,1.2,0.4,2.3,0.7,3.5c0.3,1,0.5,2.1,0.9,3.1c0.1,0.3,0.3,0.5,0.5,0.6
		C8.3,19,8.6,19.3,9,19.4c0.8,0.3,1.6,0.4,2.5,0.5c1.3,0.1,2.6,0.1,4-0.2c0.8-0.2,1.6-0.4,2.3-0.9c0.3-0.2,0.5-0.4,0.6-0.8
		c0.1-0.4,0.3-0.8,0.4-1.2c0.4-1.3,0.7-2.6,0.9-3.9C19.9,11.7,20.1,10.4,20.1,9.2z M9.9,9.3c-0.4,0-0.8,0-1.3,0c0,0.8,0,1.6,0,2.4
		c0.3,0,0.6,0,1,0c0,0.3,0,0.6,0,1c-0.3,0-0.6,0-1,0c0,1,0,2.1,0,3.1c-0.4,0-0.8,0-1.2,0c-0.1-2.5-0.2-5-0.2-7.5c0.9,0,1.8,0,2.7,0
		C9.9,8.6,9.9,8.9,9.9,9.3z M11.7,15.8c-0.4,0-0.8,0-1.2,0c0-2.5-0.1-5-0.1-7.5c0.5,0,0.9,0,1.4,0C11.7,10.8,11.7,13.3,11.7,15.8z
		 M16.2,15.6c0,0,0,0.1,0,0.1c-0.4,0-0.7,0-1.1,0c0-1,0-2-0.1-3.1c-0.5,0-0.9,0-1.3,0c0,1,0,2,0,3.1c-0.4,0-0.8,0-1.1,0
		c0-2.5-0.1-5-0.1-7.5c0,0,0.1,0,0.1,0c0.8,0,1.7,0,2.5,0c0.1,0,0.1,0,0.2,0.1c0.4,0.7,0.6,1.5,0.8,2.3c0.2,1,0.3,2.1,0.3,3.2
		C16.2,14.4,16.2,15,16.2,15.6z M19.3,9.2C19.3,9.2,19.3,9.2,19.3,9.2c-0.3,0.1-0.6,0.1-0.8,0.1c0,0-0.1,0-0.1,0
		c-0.1,2.2-0.2,4.3-0.2,6.5c-0.4,0-0.8,0-1.2,0c0-2.2,0-4.3,0-6.5c-0.3,0-0.6,0-0.9,0c0-0.3,0-0.6,0-0.9c1.1,0,2.2,0,3.3,0
		C19.3,8.6,19.3,8.9,19.3,9.2z"/>
	<path class="st0" d="M21.4,6.9c-0.3-1-0.9-1.8-1.8-2.3c-1.8-1.1-3.8-1.8-6-1.9c-1.1-0.1-2.3,0-3.4,0.2C8.9,3.2,7.6,3.7,6.3,4.4
		C5.3,5,4.6,5.8,4.3,6.9c-0.4,1-0.5,2.1-0.5,3.2c0,1.1,0.1,2.2,0.3,3.2c0.3,1.5,0.8,2.9,1.5,4.3c0.1,0.3,0.3,0.5,0.6,0.6
		c0.1,0.1,0.2,0.1,0.3,0.1c0.2,0,0.2,0,0.2-0.2c0-0.3,0-0.6,0-0.9c-0.5-1.6-0.9-3.3-1.1-4.9c-0.2-1.3-0.3-2.6-0.3-3.9
		c0-0.7,0.1-1.4,0.3-2.1c0.2-0.6,0.5-1,1-1.3C6.7,4.9,6.8,4.8,7,4.7c1.1-0.5,2.2-0.7,3.4-0.8c0.8-0.1,1.6-0.1,2.3-0.1
		c1,0,1.8,0,2.6,0.1c0.8,0.1,1.7,0.2,2.5,0.5c0.6,0.2,1.2,0.4,1.8,0.8C19.8,5.4,20,5.7,20.2,6c0.2,0.6,0.3,1.3,0.4,2
		c0,0.8,0,1.6,0,2.4c-0.1,1.1-0.2,2.1-0.4,3.2c-0.2,1.2-0.5,2.4-0.9,3.5c-0.1,0.3-0.2,0.7-0.1,1c0,0.3,0.1,0.4,0.4,0.2
		c0.3-0.1,0.5-0.4,0.7-0.7c0.5-1,0.9-2,1.2-3c0.3-1.2,0.5-2.4,0.6-3.6c0-0.5,0-1.1,0-1.6C21.9,8.6,21.7,7.7,21.4,6.9z"/>
	<path class="st0" d="M17.4,19.8c-0.2,0-0.4,0.1-0.6,0.1c-0.5,0.1-1,0.3-1.6,0.3c-1,0.2-2.1,0.2-3.1,0.2c-0.9,0-1.9-0.2-2.8-0.4
		c-0.3-0.1-0.7-0.1-1-0.2c0,0-0.1,0-0.1,0c0,0,0,0.1,0.1,0.1c0,0,0.1,0.1,0.1,0.1c0.3,0.3,0.7,0.5,1.2,0.6c1.1,0.3,2.3,0.4,3.4,0.3
		c0.9,0,1.7,0,2.5-0.2c0.5-0.1,1-0.2,1.5-0.4c0.2-0.1,0.5-0.3,0.6-0.5c0,0,0-0.1,0-0.1C17.5,19.8,17.5,19.8,17.4,19.8z"/>
	<path class="st0" d="M14.3,9.3C14.3,9.3,14.2,9.2,14.3,9.3c-0.3-0.1-0.5-0.1-0.7-0.1c0,0.8,0,1.7,0,2.5c0.4,0,0.9,0,1.3,0
		c-0.1-0.5-0.2-0.9-0.2-1.3C14.6,10,14.5,9.7,14.3,9.3z"/>
</g>
</svg>
