<?xml version="1.0" encoding="utf-8"?>
<!-- Generator: Adobe Illustrator 23.0.3, SVG Export Plug-In . SVG Version: 6.00 Build 0)  -->
<svg version="1.1" id="Layer_1" xmlns="http://www.w3.org/2000/svg" xmlns:xlink="http://www.w3.org/1999/xlink" x="0px" y="0px"
	 viewBox="0 0 48 16.1" style="enable-background:new 0 0 48 16.1;" xml:space="preserve">
<g>
	<path d="M43.1,8.4c0,1,0,2,0.1,3c-0.5,0-1,0-1.5,0c0-2.2,0-4.3,0-6.5c0.4,0,0.9,0,1.3,0c0.6,0,1.2,0,1.9,0C45.5,5,46,5.5,46.1,6.1
		c0.1,0.8-0.2,1.5-0.8,1.8C45,8,44.8,8.1,44.6,8.2c0.3,0.5,0.7,1.1,1,1.6c0.3,0.5,0.7,1,1.1,1.6c-0.2,0-0.4,0-0.5,0
		c-0.3,0-0.7,0-1,0c-0.2,0-0.3,0-0.3-0.2c-0.5-0.9-1-1.7-1.5-2.6C43.2,8.5,43.2,8.5,43.1,8.4C43.1,8.4,43.1,8.4,43.1,8.4z M43.1,8
		c0.7,0.1,1.3-0.2,1.4-0.8c0.1-0.4,0.1-0.7,0-1.1c-0.1-0.2-0.2-0.4-0.4-0.5c-0.3-0.2-0.7-0.2-1.1-0.1C43.1,6.3,43.1,7.1,43.1,8z"/>
	<path d="M8.2,5.3C8.1,5.6,8,5.9,8,6.2c0,0.1-0.1,0.1-0.2,0C7.6,6,7.5,5.9,7.3,5.8C6.2,4.9,4.6,5.3,3.9,6.5c-0.6,1-0.6,2-0.2,3.1
		c0.4,0.9,1.2,1.4,2.2,1.4c0.3,0,0.5-0.1,0.8-0.1c0.2,0,0.2-0.1,0.2-0.3c0-0.6,0-1.2,0-1.9c0-0.1,0-0.1,0-0.2c0.5,0,1,0,1.5,0
		c0,0.9,0,1.7,0,2.6c-0.5,0.1-1,0.2-1.5,0.3c-1,0.1-1.9,0.1-2.9-0.2C2.5,10.7,1.7,9.5,1.9,8c0.2-1.8,1.3-3,3.1-3.2
		C6,4.6,7,4.7,8,5.2C8,5.2,8.1,5.2,8.2,5.3C8.2,5.3,8.2,5.3,8.2,5.3z"/>
	<path d="M9.8,4.9c0.5,0,1,0,1.6,0c0,0.2,0,0.5-0.1,0.8c0,1.1,0,2.2,0,3.3c0,0.2,0,0.4,0.1,0.6c0.2,0.9,0.6,1.2,1.5,1.3
		c1,0.1,1.5-0.3,1.8-1.3c0.2-0.8,0.2-1.7,0.2-2.6c0-0.7,0-1.4-0.1-2.2c0.3,0,0.6,0,1,0c0,0.4,0,0.9-0.1,1.3c0,0.8,0,1.7-0.1,2.5
		c0,0.5-0.1,0.9-0.2,1.4c-0.2,0.7-0.8,1.2-1.6,1.3c-0.8,0.2-1.6,0.2-2.4-0.1c-0.9-0.3-1.5-1.1-1.6-2C9.8,7.8,9.8,6.3,9.8,4.9z"/>
	<path d="M40.3,11.4c-1.2,0-2.5,0-3.7,0c0-2.2,0-4.3,0-6.5c1.2,0,2.5,0,3.7,0c0,0.3,0,0.5,0,0.8c-0.7,0-1.4-0.1-2.2-0.1
		c0,0.7,0,1.4,0,2.1c0.7,0,1.4,0,2.1-0.1c0,0.3,0,0.5,0,0.8c-0.7,0-1.4-0.1-2.2-0.1c0,0.8,0,1.6,0,2.4c0.7,0,1.5-0.1,2.2-0.1
		C40.3,10.8,40.3,11.1,40.3,11.4z"/>
	<path d="M33.1,9.6c0.6-1.6,1.2-3.1,1.8-4.7c0.3,0,0.5,0,0.8,0c-0.1,0.1-0.1,0.2-0.1,0.4c-0.8,2-1.6,4-2.4,6c0,0.1-0.1,0.2-0.2,0.2
		c-0.2,0-0.3,0-0.5,0c-0.2,0-0.2,0-0.3-0.2c-0.8-2-1.6-3.9-2.3-5.9c-0.1-0.1-0.1-0.3-0.2-0.5c0.6,0,1.1,0,1.7,0
		C31.9,6.4,32.5,8,33.1,9.6C33.1,9.6,33.1,9.6,33.1,9.6z"/>
	<path d="M22.2,11.4c0-2.2,0-4.3,0-6.5c0.5,0,1,0,1.5,0c0,1.9,0,3.9,0,5.8c0.7,0,1.4-0.1,2.2-0.1c0,0.2,0,0.5,0,0.8
		C24.6,11.4,23.4,11.4,22.2,11.4z"/>
	<path d="M17.3,11.4c0-1.1,0-2.2,0-3.3c0-1.1,0-2.2,0-3.2c0.5,0,1,0,1.5,0c0,1.9,0,3.9,0,5.8c0.7,0,1.4-0.1,2.2-0.1
		c0,0.2,0,0.5,0,0.8C19.8,11.4,18.5,11.4,17.3,11.4z"/>
	<path d="M27.1,11.4c0-2.2,0-4.3,0-6.5c0.5,0,1,0,1.5,0c0,2.1,0,4.3,0,6.5C28.1,11.4,27.6,11.4,27.1,11.4z"/>
</g>
</svg>
