<svg xmlns="http://www.w3.org/2000/svg" width="118.382" height="22.58" viewBox="0 0 118.382 22.58"><defs><style>.a{fill:#bbb;}</style></defs><path class="a" d="M34.267,11.268c0,2.336-.637,3.4-3.4,3.4-2.548,0-3.185-.849-3.185-3.4h0V3.2H24.5v8.281c0,1.7.212,2.973.849,3.61C26.623,16.364,28.322,17,30.87,17s4.247-.637,5.52-1.911c.637-.637.849-1.911.849-3.61V3.2H34.055v8.068Z" transform="translate(24.876 2.533)"/><path class="a" d="M27.292,8.72H20.285V3.2H17.1V16.789h3.185V11.056h7.007v5.733h2.973V3.2H27.292Z" transform="translate(16.564 2.533)"/><rect class="a" width="3.185" height="13.589" transform="translate(115.197 5.733)"/><path class="a" d="M37.057,3.2,30.9,16.789h3.185L35.359,13.6h6.37L43,16.789h3.4L40.03,3.2H37.057Zm-.637,7.856,2.123-5.308,2.336,5.308Z" transform="translate(32.065 2.533)"/><path class="a" d="M48.5,10.207c0,2.548.637,4.247,2.336,5.308a7.089,7.089,0,0,0,4.671,1.274h5.308V14.453h-5.1c-2.336,0-3.4-.849-3.4-3.4h8.493V8.72H52.322c.212-2.123,1.274-3.185,3.4-3.185h5.1V3.2h-5.1C50.623,3.2,48.5,5.536,48.5,10.207Z" transform="translate(51.835 2.533)"/><path class="a" d="M53.961,13.6l-3.4-10.4h-3.61L43.982,13.6l-3.4-10.4H37.4l4.883,13.589h3.822L48.866,6.6l2.973,10.192H55.66L60.331,3.2H57.146Z" transform="translate(39.366 2.533)"/><path class="a" d="M2.307,7.283a3.881,3.881,0,0,0,1.486,2.973c2.336,2.123,7.856,5.1,9.13,5.733h.212v-.212h0A67.417,67.417,0,0,0,4.642,2.4S2.094,4.736,2.307,7.283Z" transform="translate(-0.066 1.634)"/><path class="a" d="M11.842,9.784c0-.212-.212-.212,0,0h0L2.5,10c1.062,1.7,2.76,3.185,4.459,2.76,1.274-.425,3.822-2.336,4.883-2.973Z" transform="translate(0.165 9.75)"/><path class="a" d="M13.252,12.794C9.218,10.034,1.574,6,1.574,6a4.472,4.472,0,0,0,.212,3.822,5.687,5.687,0,0,0,2.973,2.76,4.232,4.232,0,0,0,1.7.425s5.308,0,6.794-.212c0,.212.212.212,0,0Z" transform="translate(-1.245 5.678)"/><path class="a" d="M14.723,3.573A4.015,4.015,0,0,0,11.75.812,5.184,5.184,0,0,0,10.264.6S7.5,4,8.778,17.374H8.99c.849-1.486,4.883-7.431,5.733-10.829A6.53,6.53,0,0,0,14.723,3.573Z" transform="translate(6.839 -0.388)"/><path class="a" d="M9.784,9.6h0c.849.849,3.4,2.76,4.671,2.973,0,0,2.336.849,4.459-2.76L9.784,9.6Z" transform="translate(8.168 9.722)"/><path class="a" d="M19.916,7.283C20.129,4.736,17.581,2.4,17.581,2.4A61.645,61.645,0,0,0,9.3,15.776h0v.212h.212c1.274-.637,6.794-3.4,9.13-5.733A7.806,7.806,0,0,0,19.916,7.283Z" transform="translate(7.803 1.634)"/><path class="a" d="M9.6,12.807h0c1.486.212,6.794.212,7.007.212a4.232,4.232,0,0,0,1.7-.425,5.687,5.687,0,0,0,2.973-2.76A4.851,4.851,0,0,0,21.49,5.8S13.634,10.047,9.6,12.807Z" transform="translate(8.14 5.453)"/><path class="a" d="M8.385.712A4.515,4.515,0,0,0,5.2,3.685a6.317,6.317,0,0,0,0,2.973c.849,3.4,4.883,9.342,5.733,10.616h.212C12.419,4.11,9.659.5,9.659.5A4.548,4.548,0,0,1,8.385.712Z" transform="translate(2.986 -0.5)"/></svg>