<?xml version="1.0" encoding="utf-8"?>
<!-- Generator: Adobe Illustrator 23.0.3, SVG Export Plug-In . SVG Version: 6.00 Build 0)  -->
<svg version="1.1" id="Layer_1" xmlns="http://www.w3.org/2000/svg" xmlns:xlink="http://www.w3.org/1999/xlink" x="0px" y="0px"
	 viewBox="0 0 59.3 11.4" style="enable-background:new 0 0 59.3 11.4;" xml:space="preserve">
<style type="text/css">
	.st0{fill:#1E1E1E;}
	.st1{fill:#EF0606;}
</style>
<g>
	<path class="st0" d="M29.1,7c0,1.1-0.3,1.6-1.6,1.6C26.3,8.6,26,8.2,26,7h0V3.2h-1.5v3.9c0,0.8,0.1,1.4,0.4,1.7
		c0.6,0.6,1.4,0.9,2.6,0.9c1.2,0,2-0.3,2.6-0.9c0.3-0.3,0.4-0.9,0.4-1.7V3.2h-1.5V7z"/>
	<polygon class="st0" points="21.9,5.8 18.6,5.8 18.6,3.2 17.1,3.2 17.1,9.6 18.6,9.6 18.6,6.9 21.9,6.9 21.9,9.6 23.3,9.6 
		23.3,3.2 21.9,3.2 	"/>
	<rect x="55.5" y="3.2" class="st0" width="1.5" height="6.4"/>
	<path class="st0" d="M33.8,3.2l-2.9,6.4h1.5L33,8.1h3l0.6,1.5h1.6l-3-6.4H33.8z M33.5,6.9l1-2.5l1.1,2.5H33.5z"/>
	<path class="st0" d="M48.5,6.5c0,1.2,0.3,2,1.1,2.5c0.7,0.5,1.3,0.6,2.2,0.6h2.5V8.5h-2.4c-1.1,0-1.6-0.4-1.6-1.6h4V5.8h-4h0
		c0.1-1,0.6-1.5,1.6-1.5h2.4V3.2h-2.4C49.5,3.2,48.5,4.3,48.5,6.5z"/>
	<polygon class="st0" points="45.2,8.1 43.6,3.2 41.9,3.2 40.5,8.1 38.9,3.2 37.4,3.2 39.7,9.6 41.5,9.6 42.8,4.8 44.2,9.6 46,9.6 
		48.2,3.2 46.7,3.2 	"/>
	<path class="st1" d="M2.3,4.7C2.3,5.6,3,6.1,3,6.1c1.1,1,3.7,2.4,4.3,2.7c0,0,0,0,0.1,0c0,0,0,0,0-0.1h0C5.7,5.1,3.4,2.4,3.4,2.4
		S2.2,3.5,2.3,4.7z"/>
	<path class="st1" d="M6.9,9.7C6.9,9.6,6.8,9.6,6.9,9.7L6.9,9.7L2.5,9.8c0.5,0.8,1.3,1.5,2.1,1.3C5.2,10.9,6.4,10,6.9,9.7L6.9,9.7
		C6.9,9.7,6.9,9.7,6.9,9.7z"/>
	<path class="st1" d="M6.9,9.2C5,7.9,1.4,6,1.4,6C1,7,1.5,7.8,1.5,7.8c0.5,1,1.4,1.3,1.4,1.3c0.4,0.2,0.8,0.2,0.8,0.2
		C3.7,9.3,6.2,9.3,6.9,9.2C6.9,9.3,7,9.3,6.9,9.2C7,9.2,6.9,9.2,6.9,9.2L6.9,9.2z"/>
	<path class="st1" d="M11.4,2c0,0-0.3-1.1-1.4-1.3c0,0-0.3-0.1-0.7-0.1c0,0-1.3,1.6-0.7,7.9h0c0,0,0,0,0,0c0,0,0.1,0,0.1,0h0
		C9.1,7.8,11,5,11.4,3.4C11.4,3.4,11.6,2.5,11.4,2z"/>
	<path class="st1" d="M9.7,9.6L9.7,9.6C9.7,9.6,9.7,9.6,9.7,9.6C9.6,9.7,9.6,9.7,9.7,9.6L9.7,9.6c0.4,0.4,1.6,1.3,2.2,1.4
		c0,0,1.1,0.4,2.1-1.3L9.7,9.6L9.7,9.6z"/>
	<path class="st1" d="M14.3,4.7c0.1-1.2-1.1-2.3-1.1-2.3s-2.3,2.7-3.9,6.3h0c0,0,0,0,0,0.1h0c0,0,0,0,0.1,0c0.6-0.3,3.2-1.6,4.3-2.7
		C13.6,6.1,14.2,5.6,14.3,4.7z"/>
	<path class="st1" d="M9.6,9.1L9.6,9.1C9.6,9.1,9.6,9.1,9.6,9.1C9.6,9.1,9.6,9.2,9.6,9.1c0.7,0.1,3.2,0.1,3.3,0.1c0,0,0.4,0,0.8-0.2
		c0,0,0.9-0.3,1.4-1.3c0,0,0.5-0.8,0.1-1.9C15.2,5.8,11.5,7.8,9.6,9.1z"/>
	<path class="st1" d="M6.6,0.6C5.4,0.9,5.1,2,5.1,2c-0.2,0.6,0,1.4,0,1.4C5.5,5,7.4,7.8,7.8,8.4h0c0,0,0,0,0.1,0c0,0,0,0,0,0h0
		c0.6-6.2-0.7-7.9-0.7-7.9C6.9,0.6,6.6,0.6,6.6,0.6z"/>
</g>
</svg>
