<svg xmlns="http://www.w3.org/2000/svg" width="71.739" height="18.297" viewBox="0 0 71.739 18.297"><defs><style>.a{fill:#bbb;}</style></defs><path class="a" d="M12.937,1.1h5.555a10.555,10.555,0,0,1,4.074.741A5.083,5.083,0,0,1,25.529,6.1c.185,2.778,0,5.555,0,8.333,0,.37,0,.556.37.741l1.852,1.852a1.042,1.042,0,0,1,0,1.667c-.556.556-1.111.741-1.667.185L23.677,16.47a1.019,1.019,0,0,0-.926-.37h-10a8.827,8.827,0,0,1-3.7-.741A4.413,4.413,0,0,1,5.9,10.729V2.211A.982.982,0,0,1,7.011,1.1Zm10,12.962h0V6.47a3,3,0,0,0-2.222-2.963c-.556-.185-1.3-.185-2.037-.37H8.492v5.37A11.388,11.388,0,0,0,8.678,11.1,2.745,2.745,0,0,0,10.9,13.692c.556.185,1.3.185,1.852.37H22.936Z" transform="translate(0.951 -0.915)"/><path class="a" d="M39.412,9.471H35.153A8.149,8.149,0,0,1,33.3,9.1a2.781,2.781,0,0,1-2.037-2.222,7.013,7.013,0,0,1,0-2.778A2.392,2.392,0,0,1,32.93,1.879a15.682,15.682,0,0,1,3.148-.741c2.407,0,4.815-.185,7.222,0a8.024,8.024,0,0,1,3.518.741A2.545,2.545,0,0,1,48.3,3.73a.957.957,0,0,1-.556,1.3c-.556.185-1.481,0-1.667-.37-.37-1.3-1.111-1.481-2.222-1.481h-5.74a15.929,15.929,0,0,0-2.963.185c-.926.185-1.111.556-1.3,1.481V5.952a1.224,1.224,0,0,0,1.111,1.3A7.6,7.6,0,0,0,37,7.434h7.777A9.3,9.3,0,0,1,47,7.8a3.09,3.09,0,0,1,2.037,2.222,7.059,7.059,0,0,1,.185,2.778A3.159,3.159,0,0,1,46.819,15.4a10.929,10.929,0,0,1-2.592.37H36.078a7.515,7.515,0,0,1-3.518-.741,2.246,2.246,0,0,1-1.3-2.222c0-.37.185-.741.556-.741a1.439,1.439,0,0,1,1.852.556,2.128,2.128,0,0,0,1.667,1.111,2.746,2.746,0,0,0,1.3.185h6.3c.741,0,1.667-.185,2.407-.185.926-.185,1.3-.556,1.3-1.481v-1.3a1.224,1.224,0,0,0-1.111-1.3c-.741-.185-1.481-.185-2.037-.37a28.671,28.671,0,0,1-4.074.185Z" transform="translate(22.437 -0.953)"/><path class="a" d="M28.314,16.184A27.348,27.348,0,0,1,24.426,16a9.734,9.734,0,0,1-3.148-.741A4.887,4.887,0,0,1,18.5,11V6.555a4.958,4.958,0,0,1,3.7-5A13.831,13.831,0,0,1,25.907,1h5a10.864,10.864,0,0,1,4.259.741,4.422,4.422,0,0,1,2.778,4.074,27.846,27.846,0,0,1,0,5.555,4.562,4.562,0,0,1-3.333,4.074A10.781,10.781,0,0,1,31.092,16a12.262,12.262,0,0,1-2.778.185Zm.185-2.222h4.074a3.159,3.159,0,0,0,3.148-3.333V6.74a3.152,3.152,0,0,0-2.037-3.148,5.407,5.407,0,0,0-1.667-.37h-5.37a12.225,12.225,0,0,0-2.592.185,3.086,3.086,0,0,0-2.963,3.148v3.889a4.251,4.251,0,0,0,.741,2.592,4.847,4.847,0,0,0,3.148.926Z" transform="translate(11.683 -1)"/><path class="a" d="M4.792,8.592v6.3a1.17,1.17,0,0,1-1.3,1.3,1.17,1.17,0,0,1-1.3-1.3V2.3C2.385,1.556,2.756,1,3.311,1a1.185,1.185,0,0,1,1.3.926V2.3C4.792,4.333,4.792,6.555,4.792,8.592Z" transform="translate(-2.2 -1)"/></svg>