<?xml version="1.0" encoding="utf-8"?>
<!-- Generator: Adobe Illustrator 23.0.3, SVG Export Plug-In . SVG Version: 6.00 Build 0)  -->
<svg version="1.1" id="Layer_1" xmlns="http://www.w3.org/2000/svg" xmlns:xlink="http://www.w3.org/1999/xlink" x="0px" y="0px"
	 viewBox="0 0 39.3 20.5" style="enable-background:new 0 0 39.3 20.5;" xml:space="preserve">
<style type="text/css">
	.st0{fill:#070707;}
	.st1{fill:#EA1313;}
	.st2{fill:#0A7FAC;}
	.st3{fill:#E88D8A;}
</style>
<g>
	<path class="st0" d="M10.5,7.7C10,7.9,9.4,7.8,8.9,7.9c-0.2,0-0.3-0.2-0.4-0.3C8.2,7.1,8,6.7,7.8,6.3C7.7,6.1,7.7,5.8,7.5,5.9
		C7.3,6,7.1,6.2,7.1,6.4c0,0.3,0,0.7,0,1.1c0,0.3-0.1,0.4-0.4,0.4C5.3,8,5.3,8,5.3,6.6c0-1.8,0-3.5,0-5.3c0-0.4,0.1-0.6,0.5-0.6
		C7,0.8,7,0.8,7,2c0,0.6,0,1.1,0,1.8C7.5,3.3,7.9,3,8.2,2.6C8.5,2.2,8.8,2,9.3,2.1c0.4,0,0.8,0,1.2,0.1c0,0,0,0.1,0,0.1
		C10,2.8,9.5,3.5,8.9,4.1c-0.2,0.2-0.2,0.4,0,0.6c0.5,1,1,1.9,1.5,2.9C10.5,7.7,10.5,7.7,10.5,7.7z"/>
	<g>
		<path class="st1" d="M26.6,5c-0.2-1-0.9-1.4-1.8-1.5c-1.5-0.2-2.4,0.5-2.9,1.9c0-0.9-0.1-1.8,0-2.8c0-0.4-0.1-0.5-0.5-0.5
			c-1,0-1,0-1.1,1c0,0,0,0.1,0,0.1c0,0.4-0.1,0.5-0.5,0.3c-1.2-0.4-2.2,0.1-2.8,1.2c-0.2,0.6-0.1,1.2,0,1.7c0.4,0.9,1.1,1.5,2.1,1.3
			c0.8-0.1,1.5-0.1,2.3,0c0.3,0,0.4-0.1,0.4-0.4c0-0.5,0-0.9,0-1.4C22,6.1,22,6.2,22,6.3c0.2,0.9,0.9,1.3,1.7,1.6
			c1,0.3,2.1-0.1,2.6-0.8c0.1-0.1,0.3-0.3,0.2-0.5c-0.1-0.2-0.3-0.1-0.5-0.1c-0.5,0-0.9-0.1-1.3,0.3C24.4,7,24,6.9,23.8,6.7
			c-0.1-0.1-0.4-0.3-0.1-0.5c0.1,0,0.1,0,0.2,0c0.9,0,1.7,0,2.6,0C26.9,5.9,26.5,5.4,26.6,5z M19.3,6.9c-0.6,0-0.9-0.5-1-1.2
			c0-0.7,0.4-1.2,0.9-1.3c0.6,0,1,0.5,1,1.3C20.2,6.5,19.9,6.9,19.3,6.9z M24.4,5.2c-0.2-0.2-0.7,0.2-0.7-0.2c0-0.4,0.4-0.5,0.8-0.5
			c0.3,0,0.7,0.1,0.7,0.4C25.1,5.4,24.6,5.1,24.4,5.2z"/>
		<path class="st1" d="M16.7,4.8c-0.2-1-0.7-1.4-1.8-1.3c-0.7,0.1-1.4,0.1-2.1,0.1c-0.4,0-0.5,0.1-0.5,0.5c0,0.9,0,1.9,0,2.8
			c0,1.1-0.2,0.9,1,1c0.4,0,0.6-0.1,0.6-0.6c0-0.7,0-1.4,0-2.2c0-0.4,0.2-0.6,0.6-0.6c0.4,0,0.5,0.2,0.5,0.6c0,0.6,0,1.2,0,1.9
			c0,0.9-0.2,0.8,0.8,0.9c0.6,0,0.8-0.2,0.7-0.8c0-0.2,0-0.5,0-0.7C16.7,5.9,16.7,5.4,16.7,4.8z"/>
		<path class="st1" d="M29.5,3.6c-0.2-0.3-0.6-0.1-0.8,0.1c-0.2,0-0.3-0.1-0.5-0.1c-0.4,0-0.9-0.2-1.3,0.1c-0.1,0.5,0,0.9,0,1.4
			c0.1,0.4,0.1,0.7,0,1.1c0,0.2,0,0.4,0,0.6c0,1.1-0.3,1,1.1,1c0.4,0,0.5-0.1,0.5-0.5c0-0.6,0-1.1,0-1.7c0-0.6,0.2-0.9,0.8-0.9
			c0.1,0,0.3,0,0.4-0.1C29.6,4.3,29.7,3.9,29.5,3.6z"/>
		<path class="st1" d="M11.8,3.7c-0.4,0-0.8,0-1.2,0c0,0.9,0,1.9,0,2.8c0.1,0.1,0.1,0.1,0,0.2c-0.1,0.3,0.1,0.6-0.1,0.9
			c0,0,0,0.1,0.1,0.1c0.1,0,0.2,0.1,0.4,0.1c0.1,0,0.1,0,0.2,0c0.3,0,0.6,0,1,0c0-1.3,0-2.6,0-3.9C12.1,3.7,11.9,3.7,11.8,3.7z"/>
		<path class="st1" d="M10.5,2.1C10.5,2.2,10.5,2.2,10.5,2.1c0,0.5,0,0.8,0.1,1.2c0.5,0,1,0,1.5,0c0-0.4,0-0.7,0-1.1c0,0,0,0,0,0
			c0,0,0,0-0.1-0.1C11.6,2,11.1,2.1,10.5,2.1z"/>
	</g>
	<g>
		<path class="st2" d="M4.8,9.4C3.6,9.1,2.4,9.2,1.3,9.6c-0.4,0.1-0.4,0.3-0.4,0.7c0,1.8,0,3.6,0,5.3c0,0.5-0.2,1.3,0.1,1.6
			c0.3,0.3,1.1,0.1,1.6,0.1c0.4,0,0.6-0.1,0.5-0.5c0-0.5,0-1.1,0-1.6c0-0.5,0.1-0.7,0.7-0.7c0.8,0,1.5-0.1,2.1-0.7
			C7,12.8,7.1,11,6,10C5.6,9.7,5.3,9.5,4.8,9.4z M3.5,13.2c-0.3,0-0.4-0.1-0.4-0.4c0-0.5,0-1,0-1.5c0-0.3-0.2-0.7,0.3-0.7
			c0.5-0.1,0.9,0.1,1,0.6c0.1,0.2,0.1,0.5,0.1,0.6C4.6,12.8,4.3,13.2,3.5,13.2z"/>
		<path class="st2" d="M37.4,7.9c-0.3-1.4-0.8-2.8-2-3.7c-1.3-1-3.3-0.4-3.6,1.2c-0.1,0.2-0.3,0.2-0.5,0.2c-0.7,0-1.3,0.2-1.8,0.7
			c0.1,0,0.2,0.1,0.3,0.1c0.9-0.3,1.7,0.1,2.3,0.7c0.3,0.3,0.5,0.7,1.1,0.6c-0.9-0.6-1.2-1.4-1-2.3c0.1-0.3,0.2-0.5,0.4-0.7
			c0.7-0.8,1.8-0.6,2.1,0.4c0.1,0.3,0.2,0.6,0.2,0.9c0,0.2,0.1,0.4,0.2,0.6c0.9,1.1,1.2,2.3,1.1,3.6c-0.1,2-0.7,3.9-1.3,5.8
			c-0.2,0.7-0.4,1.5-0.4,2.2c0,0.8,0.5,1.3,1.1,1.4c0.6,0.1,0.7-0.1,0.5-0.6c-0.5-1.5-0.6-3,0.2-4.5c0.2-0.3,0.3-0.7,0.4-1
			C37.3,11.7,37.9,9.8,37.4,7.9z"/>
		<path class="st2" d="M9.4,12.7c0-1.7,0-1.7-1.7-1.6c-0.4,0-0.5,0.1-0.5,0.5c0,1.7,0,3.5,0,5.2c0,0.1-0.1,0.3,0.1,0.4
			c0.7,0.1,1.3,0.1,2,0c0.3-0.1,0.1-0.4,0.1-0.5C9.4,15.4,9.4,14,9.4,12.7z"/>
		<path class="st2" d="M32.1,11.4c0.1-0.3-0.1-0.3-0.3-0.3c-0.5,0-1.1,0-1.6,0c-0.2-0.1-0.4-0.1-0.6,0c-0.1,0-0.2,0-0.3,0
			c0,0-0.1,0.1-0.1,0.1c0,1.7-0.1,3.5,0,5.2c-0.1,0.2-0.1,0.4,0,0.6c0,0.1,0,0.1,0.1,0.1c1,0.1,1.9,0,2.9,0.1c0.1,0,0.3,0,0.2-0.2
			C31.7,15.2,31.6,13.3,32.1,11.4z"/>
		<path class="st2" d="M22.1,13.9c0-0.7,0-1.3,0.1-2c0-0.4-0.2-0.6-0.5-0.7c-1-0.3-2-0.4-3-0.1c-0.8,0.2-1.5,0.6-1.8,1.5
			c0,0.1-0.1,0.1-0.1,0.2c0,0,0,0,0,0.1c0,0,0,0,0,0c-0.1,0.1-0.2,0.2-0.1,0.3c-0.1,0.1-0.1,0.2-0.1,0.4c-0.2,0.5-0.2,1.1,0,1.6
			c0.1,1,0.8,1.8,1.7,2c0.6,0.3,1.1,0.2,1.7,0.1c0,0,0.1,0.1,0.1,0.1c-0.1,0.9-0.4,1-1.2,1c-0.4,0-0.8-0.1-1.1-0.2
			c-0.3-0.1-0.5-0.1-0.5,0.2c0,0.2-0.1,0.4-0.2,0.5c-0.3,0.5,0,0.6,0.4,0.7c0.9,0.2,1.8,0.3,2.8,0.2c1.4-0.2,2.1-1.2,2-2.6
			C22.2,16.1,22.2,15,22.1,13.9z M19.8,16.1c-0.6,0.1-0.9-0.2-1.1-0.7c0-0.1-0.1-0.1-0.1-0.2c0-0.1,0-0.2,0-0.3
			c0.1-0.6-0.1-1.2,0.1-1.8c0.1-0.3,0.2-0.5,0.5-0.7c0.5-0.3,0.9-0.1,0.9,0.5c0,0.8,0,1.7,0,2.5C20,15.6,20.2,16,19.8,16.1z"/>
		<path class="st2" d="M28.5,11.6c0-0.4-0.1-0.6-0.5-0.5c-0.2,0-0.3,0-0.5,0c-1.3,0-1.3,0-1.2,1.3c-0.1,1-0.1,2,0,3
			c0,0.2-0.1,0.3-0.1,0.5c-1,0.1-1.2,0-1.2-1c0-0.8,0-1.5,0-2.3c0-1.6,0-1.6-1.6-1.5c0,0-0.1,0-0.1,0c-0.1,0-0.2,0-0.4,0
			c-0.1,0-0.2,0.1-0.2,0.2c0,1.4,0,2.7,0,4.1c0,1,0.5,1.5,1.5,1.7c0.1,0,0.2,0,0.3,0c0.2,0.1,0.5,0.2,0.7,0.1c0.3,0.1,0.7,0.1,1,0
			c0.2,0.1,0.3,0.1,0.5-0.1c0.2,0,0.4-0.1,0.6-0.1c0.1,0.1,0.2,0,0.3-0.1c0.5,0,0.7-0.3,0.7-0.8C28.5,14.7,28.5,13.2,28.5,11.6z
			 M25.9,16.1c-0.1,0-0.1,0.1-0.2,0.1C25.8,16.2,25.8,16.2,25.9,16.1z M26.2,15.9C26.1,16,26.1,16,26.2,15.9
			C26.1,16,26.1,16,26.2,15.9z M26,16C26,16,26,16,26,16C26,16,26,16,26,16z"/>
		<path class="st2" d="M14.8,11.3c-1-0.4-2-0.5-3.1-0.2c0,0,0,0,0,0.1c0,0,0,0,0-0.1c-0.2,0-0.4,0-0.6,0.1c-0.1,0-0.2,0-0.3,0.1
			c-0.6,0-0.7,0.3-0.7,0.8c0,1.5,0,2.9,0,4.4c0,0.3-0.1,0.5,0.1,0.8c0.5,0.1,0.9,0.1,1.4,0.1c0.2,0,0.5,0.2,0.7-0.2h0
			c0-1.5,0-3.1,0-4.6c0,0,0,0,0,0c0,0,0-0.1,0-0.1c0.1,0,0.1,0,0.2-0.1c0.9,0.1,0.9,0.1,1.1,1c-0.1,1.2-0.1,2.5,0,3.7c0,0,0,0,0,0
			c0,0,0,0,0.1,0.1c0.5,0.1,0.9,0.1,1.4,0.1c0.2,0,0.5,0.2,0.7-0.2c0-0.3,0-0.6,0-0.9c0-1.1,0-2.3,0-3.4
			C15.8,12.1,15.5,11.6,14.8,11.3z M11.9,17.1c-0.1,0-0.2,0-0.3,0C11.7,17.1,11.8,17.1,11.9,17.1c0.1,0,0.2,0,0.3,0
			C12,17.1,11.9,17.1,11.9,17.1z M13.8,17.1L13.8,17.1C13.8,17.1,13.8,17.1,13.8,17.1z"/>
		<path class="st2" d="M32.8,8.5c-0.7,0-1.4,0-2,0.5c-0.5,0.3-0.8,0.8-1.1,1.2c-0.1,0.2-0.1,0.3,0.2,0.3c0.6,0,1.1,0,1.7,0
			c0.5,0.2,0.9,0,1-0.6c0.1-0.4,0.3-0.7,0.4-1C33.2,8.7,33.2,8.5,32.8,8.5z"/>
		<path class="st2" d="M33.1,5.3c-0.2,0-0.3,0.1-0.3,0.3C32.8,5.8,33,6,33.2,6c0.1,0,0.3-0.1,0.3-0.2C33.4,5.6,33.2,5.5,33.1,5.3z"
			/>
	</g>
	<path class="st3" d="M10.6,6.7c0-0.1,0-0.1,0-0.2C10.6,6.6,10.6,6.6,10.6,6.7z"/>
</g>
</svg>
