<svg xmlns="http://www.w3.org/2000/svg" width="80.642" height="41.996" viewBox="0 0 80.642 41.996"><defs><style>.a{fill:#bbb;}</style></defs><path class="a" d="M16.71,16.06c-1.1.439-2.414.219-3.511.439-.439,0-.658-.439-.878-.658-.658-1.1-1.1-1.975-1.536-2.853-.219-.439-.219-1.1-.658-.878a1.458,1.458,0,0,0-.878,1.1v2.414c0,.658-.219.878-.878.878C5.3,16.718,5.3,16.718,5.3,13.646V2.017C5.3,1.139,5.519.7,6.4.7,9.03.919,9.03.919,9.03,3.553V7.5a29.558,29.558,0,0,0,2.633-2.633,2.206,2.206,0,0,1,2.414-1.1,10.683,10.683,0,0,1,2.633.219v.219c-1.1,1.1-2.194,2.633-3.511,3.95a.823.823,0,0,0,0,1.317c1.1,2.194,2.194,4.169,3.291,6.363Z" transform="translate(4.498 -0.7)"/><g transform="translate(21.208 2.974)"><path class="a" d="M38.2,8.463c-.439-2.194-1.975-3.072-3.95-3.291-3.291-.439-5.266,1.1-6.363,4.169a57.343,57.343,0,0,1,0-6.144c0-.878-.219-1.1-1.1-1.1-2.194,0-2.194,0-2.414,2.194v.219c0,.878-.219,1.1-1.1.658-2.633-.878-4.827.219-6.144,2.633a7.156,7.156,0,0,0,0,3.73c.878,1.975,2.414,3.291,4.608,2.853a19.428,19.428,0,0,1,5.047,0c.658,0,.878-.219.878-.878V10.438c.439.439.439.658.439.878.439,1.975,1.975,2.853,3.73,3.511a5.351,5.351,0,0,0,5.705-1.755c.219-.219.658-.658.439-1.1s-.658-.219-1.1-.219c-1.1,0-1.975-.219-2.853.658a1.634,1.634,0,0,1-1.975-.219c-.219-.219-.878-.658-.219-1.1h6.144C38.861,10.438,37.983,9.341,38.2,8.463ZM22.185,12.632c-1.317,0-1.975-1.1-2.194-2.633a2.721,2.721,0,0,1,1.975-2.853c1.317,0,2.194,1.1,2.194,2.853S23.5,12.632,22.185,12.632ZM33.375,8.9c-.439-.439-1.536.439-1.536-.439s.878-1.1,1.755-1.1c.658,0,1.536.219,1.536.878C34.911,9.341,33.814,8.683,33.375,8.9Z" transform="translate(-2.875 -2.002)"/><path class="a" d="M21.97,6.37c-.439-2.194-1.536-3.072-3.95-2.853a32.406,32.406,0,0,1-4.608.219c-.878,0-1.1.219-1.1,1.1v6.144c0,2.414-.439,1.975,2.194,2.194.878,0,1.317-.219,1.317-1.317V7.029a1.164,1.164,0,0,1,1.317-1.317c.878,0,1.1.439,1.1,1.317V11.2c0,1.975-.439,1.755,1.755,1.975,1.317,0,1.755-.439,1.536-1.755V9.881A9.1,9.1,0,0,0,21.97,6.37Z" transform="translate(-8.365 -0.348)"/><path class="a" d="M32.658,3.783c-.439-.658-1.317-.219-1.755.219-.439,0-.658-.219-1.1-.219-.878,0-1.975-.439-2.853.219a14.377,14.377,0,0,0,0,3.072,4.507,4.507,0,0,1,0,2.414V10.8c0,2.414-.658,2.194,2.414,2.194.878,0,1.1-.219,1.1-1.1V8.171c0-1.317.439-1.975,1.755-1.975a1.319,1.319,0,0,0,.878-.219C32.878,5.319,33.1,4.441,32.658,3.783Z" transform="translate(9.032 -0.394)"/><path class="a" d="M13.353,3.7H10.719V9.844c.219.219.219.219,0,.439-.219.658.219,1.317-.219,1.975a.215.215,0,0,0,.219.219c.219,0,.439.219.878.219H14.23V4.139A.876.876,0,0,0,13.353,3.7Z" transform="translate(-10.5 -0.092)"/><path class="a" d="M10.5,2.153h0a9.836,9.836,0,0,0,.219,2.633h3.291V2.373h0l-.219-.219A16.334,16.334,0,0,0,10.5,2.153Z" transform="translate(-10.5 -2.056)"/></g><g transform="translate(0 6.607)"><path class="a" d="M9.536,9.608a13.046,13.046,0,0,0-7.68.439c-.878.219-.878.658-.878,1.536V23.213c0,1.1-.439,2.853.219,3.511s2.414.219,3.511.219c.878,0,1.317-.219,1.1-1.1V22.335c0-1.1.219-1.536,1.536-1.536a5.927,5.927,0,0,0,4.608-1.536,5.71,5.71,0,0,0,.219-8.338A5.98,5.98,0,0,0,9.536,9.608ZM6.683,17.946c-.658,0-.878-.219-.878-.878V13.777c0-.658-.439-1.536.658-1.536a1.677,1.677,0,0,1,2.194,1.317,3.261,3.261,0,0,1,.219,1.317C9.1,17.069,8.438,17.946,6.683,17.946Z" transform="translate(-0.835 2.874)"/><path class="a" d="M46.835,12.9c-.658-3.072-1.755-6.144-4.388-8.119-2.853-2.194-7.241-.878-7.9,2.633-.219.439-.658.439-1.1.439A5.288,5.288,0,0,0,29.5,9.392c.219,0,.439.219.658.219a4.848,4.848,0,0,1,5.047,1.536c.658.658,1.1,1.536,2.414,1.317a4.534,4.534,0,0,1-2.194-5.047A3.536,3.536,0,0,1,36.3,5.881c1.536-1.755,3.95-1.317,4.608.878a6.407,6.407,0,0,1,.439,1.975,3.119,3.119,0,0,0,.439,1.317,10.627,10.627,0,0,1,2.414,7.9c-.219,4.388-1.536,8.558-2.853,12.727a18.664,18.664,0,0,0-.878,4.827,2.925,2.925,0,0,0,2.414,3.072c1.317.219,1.536-.219,1.1-1.317-1.1-3.291-1.317-6.583.439-9.874A9.171,9.171,0,0,0,45.3,25.19C46.615,21.241,47.932,17.072,46.835,12.9Z" transform="translate(33.399 -3.711)"/><path class="a" d="M12.057,14.653c0-3.73,0-3.73-3.73-3.511-.878,0-1.1.219-1.1,1.1v11.41c0,.219-.219.658.219.878a14.711,14.711,0,0,0,4.388,0c.658-.219.219-.878.219-1.1Z" transform="translate(6.737 5.071)"/><path class="a" d="M35.653,11.848c.219-.658-.219-.658-.658-.658H31.484a1.4,1.4,0,0,0-1.317,0h-.658l-.219.219c0,3.73-.219,7.68,0,11.41a1.4,1.4,0,0,0,0,1.317c0,.219,0,.219.219.219,2.194.219,4.169,0,6.363.219.219,0,.658,0,.439-.439A19.606,19.606,0,0,1,35.653,11.848Z" transform="translate(32.951 5.023)"/><path class="a" d="M28.847,17.46a29.407,29.407,0,0,1,.219-4.388,1.462,1.462,0,0,0-1.1-1.536,11.236,11.236,0,0,0-6.583-.219,5.032,5.032,0,0,0-3.95,3.291c0,.219-.219.219-.219.439v.219h0c-.219.219-.439.439-.219.658-.219.219-.219.439-.219.878a4.846,4.846,0,0,0,0,3.511,4.93,4.93,0,0,0,3.73,4.388,5.476,5.476,0,0,0,3.73.219l.219.219c-.219,1.975-.878,2.194-2.633,2.194a7.888,7.888,0,0,1-2.414-.439c-.658-.219-1.1-.219-1.1.439a1.676,1.676,0,0,1-.439,1.1c-.658,1.1,0,1.317.878,1.536a18.931,18.931,0,0,0,6.144.439c3.072-.439,4.608-2.633,4.388-5.705C29.067,22.288,29.067,19.874,28.847,17.46ZM23.8,22.288a2.021,2.021,0,0,1-2.414-1.536c0-.219-.219-.219-.219-.439v-.658c.219-1.317-.219-2.633.219-3.95a2.539,2.539,0,0,1,1.1-1.536c1.1-.658,1.975-.219,1.975,1.1v5.486C24.24,21.19,24.678,22.068,23.8,22.288Z" transform="translate(17.814 4.897)"/><path class="a" d="M35.427,12.24c0-.878-.219-1.317-1.1-1.1h-1.1c-2.853,0-2.853,0-2.633,2.853a33,33,0,0,0,0,6.583c0,.439-.219.658-.219,1.1-2.194.219-2.633,0-2.633-2.194V14.434c0-3.511,0-3.511-3.511-3.291h-1.1a.472.472,0,0,0-.439.439v9c0,2.194,1.1,3.291,3.291,3.73h.658a1.927,1.927,0,0,0,1.536.219,3.739,3.739,0,0,0,2.194,0c.439.219.658.219,1.1-.219.439,0,.878-.219,1.317-.219.219.219.439,0,.658-.219,1.1,0,1.536-.658,1.536-1.755A71.128,71.128,0,0,0,35.427,12.24Zm-5.705,9.874c-.219,0-.219.219-.439.219C29.5,22.334,29.5,22.334,29.722,22.114Zm.658-.439Zm-.439.219Z" transform="translate(25.278 5.07)"/><path class="a" d="M20.443,11.747a10.3,10.3,0,0,0-6.8-.439v0a2.783,2.783,0,0,0-1.317.219.806.806,0,0,0-.658.219c-1.317,0-1.536.658-1.536,1.755v9.655c0,.658-.219,1.1.219,1.755a14.486,14.486,0,0,0,3.072.219c.439,0,1.1.439,1.536-.439h0V14.6h0V14.38c.219,0,.219,0,.439-.219,1.975.219,1.975.219,2.414,2.194a50.147,50.147,0,0,0,0,8.119h0l.219.219a14.486,14.486,0,0,0,3.072.219c.439,0,1.1.439,1.536-.439V15.039A3.285,3.285,0,0,0,20.443,11.747ZM14.079,24.474h0Zm4.169,0Z" transform="translate(10.2 4.905)"/><path class="a" d="M36.574,8.5c-1.536,0-3.072,0-4.388,1.1a9.1,9.1,0,0,0-2.414,2.633c-.219.439-.219.658.439.658h3.73a1.481,1.481,0,0,0,2.194-1.317,22.765,22.765,0,0,1,.878-2.194C37.451,8.939,37.451,8.5,36.574,8.5Z" transform="translate(33.566 2.008)"/><path class="a" d="M33.458,5.3a.582.582,0,0,0-.658.658.944.944,0,0,0,.878.878c.219,0,.658-.219.658-.439C34.117,5.958,33.678,5.739,33.458,5.3Z" transform="translate(37.34 -1.814)"/></g><path class="a" d="M10.6,6.939v0Z" transform="translate(10.827 6.227)"/></svg>