<?xml version="1.0" encoding="utf-8"?>
<!-- Generator: Adobe Illustrator 23.0.3, SVG Export Plug-In . SVG Version: 6.00 Build 0)  -->
<svg version="1.1" id="Layer_1" xmlns="http://www.w3.org/2000/svg" xmlns:xlink="http://www.w3.org/1999/xlink" x="0px" y="0px"
	 viewBox="0 0 88 18" style="enable-background:new 0 0 88 18;" xml:space="preserve">
<style type="text/css">
	.st0{fill:url(#SVGID_1_);}
	.st1{fill:url(#SVGID_2_);}
</style>
<g>
	<linearGradient id="SVGID_1_" gradientUnits="userSpaceOnUse" x1="8.4743" y1="23.5693" x2="10.4309" y2="-0.3981">
		<stop  offset="0" style="stop-color:#FFFFFF"/>
		<stop  offset="1" style="stop-color:#515151"/>
	</linearGradient>
	<path class="st0" d="M13.9,3l-0.4,0.6c2.8,1.3,3.9,3,3.9,5.4c0,0.6-0.2,1.3-0.6,2H8.7c-0.5,0-0.6-0.6-0.4-0.9
		c0.7-1.2,1.5-2.4,2.3-3.6c0.8-1.1,1.6-2.1,2.5-3.2c0.2-0.3,0.1-0.6-0.4-0.7c-1-0.2-1.9-0.3-3.1-0.3C3,2.3,0.5,6.2,0.5,9
		c0,3.1,2.5,6.7,9.1,6.7c3.7,0,6.1-1.2,7.5-2.7h-1.4c-1.2,1.1-3.3,1.9-6.1,1.9C4,14.9,1.9,11.7,1.9,9C2,6.5,4.2,3.2,9.8,3
		C10,3,10.2,3.2,10,3.4c-1,1.2-3.7,5-4,5.5c-0.6,0.9-0.7,1.4-0.7,1.7c0,0.3,0,0.8,0.5,1.3c0.8,0.7,2,0.6,3,0.6h8.4
		c0.4,0,0.5-0.1,0.7-0.4c0.7-1,1-2.1,1-3.1C18.8,6.9,17.4,4.2,13.9,3z"/>
	<linearGradient id="SVGID_2_" gradientUnits="userSpaceOnUse" x1="52.4317" y1="27.1577" x2="54.3882" y2="3.1903">
		<stop  offset="0" style="stop-color:#FFFFFF"/>
		<stop  offset="1" style="stop-color:#515151"/>
	</linearGradient>
	<path class="st1" d="M84.8,8.8h-7.6C77.3,7.8,78.1,7,78.9,7h7.7l0-1.6h-8.2c-2.6,0-4.7,2.2-4.7,4.7c0,0.2,0.1,0.3,0.3,0.3l9.3,0
		c0.5,0.1,0.8,0.4,0.8,0.9c0,0.5-0.5,0.9-1,0.9H72.9V5.4h-3v6.7h-5.5c-1.5,0-1.8-0.9-1.8-1.8v-5h-5c-0.5,0.3-1,0.7-1.5,1l-3,1.8
		l-3.9-2.8h-6h-5.7c-1.5,0-2.7,0.4-3.6,1.1c-1.6,1.2-2.1,2.5-2.1,3.1h2c-0.9,0.7-1.5,1.5-1.8,2.4h-6.7c-1.2,0-2-0.9-2-1.7v-5h-3v5.2
		c0,1.9,1.8,3.2,4.6,3.2h18.1V12H36c0-0.9,0.9-1.7,1.8-1.7h7.7V8.6h-9.6c-0.1-0.5,0.8-1.5,1.6-1.5h5.7h2.2V6.2l5.1,3.7L47,12h-3.8
		v1.7h4.4c0.5-0.3,0.9-0.7,1.4-0.9l3-1.9l3.9,2.8h4.4l-5.8-4.4l3-2c0.6-0.4,1.3-0.8,2-1.2v4.4c0,1.9,0.5,3.2,4.2,3.2l21.2,0
		c1.6,0,2.7-1.1,2.7-2.5C87.5,9.9,86.3,8.8,84.8,8.8z"/>
</g>
</svg>
