<svg xmlns="http://www.w3.org/2000/svg" width="151.971" height="24.714" viewBox="0 0 151.971 24.714"><defs><style>.a{fill:#bbb;}</style></defs><path class="a" d="M25.214,3.591,24.476,4.7c5.164,2.4,7.193,5.533,7.193,9.959a7.644,7.644,0,0,1-1.107,3.689H15.623c-.922,0-1.107-1.107-.738-1.66,1.291-2.213,2.766-4.426,4.242-6.639,1.475-2.029,2.951-3.873,4.611-5.9.369-.553.184-1.107-.738-1.291A27.337,27.337,0,0,0,17.283,2.3C5.111,2.3.5,9.493.5,14.657c0,5.717,4.611,12.357,16.783,12.357,6.824,0,11.25-2.213,13.832-4.98H28.533c-2.213,2.029-6.086,3.5-11.25,3.5-10.328,0-14.2-5.9-14.2-10.881.184-4.611,4.242-10.7,14.57-11.066.369,0,.738.369.369.738C16.177,6.542,11.2,13.55,10.644,14.472a5.855,5.855,0,0,0-1.291,3.135,3.05,3.05,0,0,0,.922,2.4c1.475,1.291,3.689,1.107,5.533,1.107H31.3a1.235,1.235,0,0,0,1.291-.738,10,10,0,0,0,1.844-5.717C34.251,10.784,31.669,5.8,25.214,3.591Z" transform="translate(-0.5 -2.3)"/><path class="a" d="M127.359,11.517H115.371a2.859,2.859,0,0,1,2.582-2.951h12.172v-2.4h-12.91a7.521,7.521,0,0,0-7.377,7.377.489.489,0,0,0,.553.553h14.754a1.425,1.425,0,0,1,1.291,1.475,1.506,1.506,0,0,1-1.66,1.475h-16.23V6.169h-4.8v10.7H95.083c-2.4,0-2.766-1.475-2.766-2.766V5.984H84.387c-.738.553-1.66,1.107-2.4,1.66l-4.8,2.766L70.923,5.984H52.3a9.154,9.154,0,0,0-5.717,1.66c-2.582,1.844-3.32,3.873-3.32,4.98h3.135A6.964,6.964,0,0,0,43.627,16.5h-10.7A3.056,3.056,0,0,1,29.8,13.731V5.8H25v8.3c0,2.951,2.766,4.98,7.377,4.98H60.964V16.5H49.9a2.974,2.974,0,0,1,2.766-2.766H64.837V11.148H49.714c-.184-.738,1.291-2.4,2.582-2.4H64.837V7.46l8.115,5.717L67.419,16.5H60.779l.369,2.582H68.71c.184,0,.553-.369.738-.553.369-.184.553-.553.922-.553,1.66-1.107,3.32-2.213,4.98-3.135l6.271,4.426h7.008l-9.222-7.008L84.2,9.12c.922-.553,2.029-1.291,3.135-1.844v7.008c0,2.951.738,4.98,6.639,4.98h33.566c2.582,0,4.242-1.66,4.242-3.873A4.4,4.4,0,0,0,127.359,11.517Z" transform="translate(20.185 0.655)"/></svg>