<svg xmlns="http://www.w3.org/2000/svg" viewBox="0 0 127 127"><style type="text/css">  
	.st0{fill:#FF3D00;}
	.st1{fill:none;}
</style><title>Yadro</title><polygon class="st0" points="40.6 69.9 54.1 69.9 47.3 53.4 "/><path class="st0" d="M78.8 55.2c0-3.1-1.5-4.6-4.5-4.6 -0.8 0-1.7 0.2-2.4 0.7 -0.7 0.5-1 1.4-0.9 2.2v7.9c0.5 0.1 1 0.1 1.5 0.1 1.7 0.1 3.5-0.5 4.7-1.8C78.2 58.5 78.8 56.9 78.8 55.2"/><path class="st0" d="M23.9 51.3c-0.7-0.5-1.5-0.7-2.4-0.7 -3 0-4.5 1.5-4.5 4.6 -0.1 1.7 0.5 3.3 1.6 4.6 1.2 1.2 3 1.9 4.7 1.8 0.5 0 1 0 1.5-0.1v-8C24.9 52.6 24.6 51.8 23.9 51.3"/><path class="st0" d="M108.4 18.6c-24.8-24.8-65-24.8-89.8 0s-24.8 65 0 89.8 65 24.8 89.8 0C120.3 96.5 127 80.3 127 63.5 127 46.6 120.3 30.5 108.4 18.6M26.1 75.2h-2.8c-0.5 0-1.1 0-1.9 0 -0.1 0-0.5 0-0.5-0.6s0.4-0.6 0.5-0.6c0.7 0 1.4 0 2.1-0.2 0.3-0.1 0.6-0.3 0.7-0.5 0.2-0.5 0.2-1.1 0.2-1.6v-9.1c-0.6 0.1-1.1 0.2-1.6 0.5 -0.7 0.4-1.4 1-1.9 1.7 -0.9 1.2-1.7 2.4-2.5 3.8 -1.3 2.1-2.3 3.8-3 4.8 -0.4 0.7-1 1.3-1.6 1.8 -0.4 0.2-0.8 0.3-1.3 0.3h-4c-0.1 0-0.5 0-0.5-0.6S8.5 74 8.6 74c1.2 0 2.4-0.6 3.3-1.5 1.4-1.6 2.6-3.4 3.5-5.3 0.8-1.4 1.7-2.7 2.9-3.9 0.5-0.4 1-0.8 1.5-1.1 -1.4-0.2-2.8-0.8-3.9-1.7 -1.3-1.1-2-2.7-2-4.4 0-1.2 0.3-2.4 1-3.4 0.7-1 1.6-1.8 2.8-2.3 1.2-0.6 2.5-0.8 3.9-0.8 0.7 0 1.4 0 2.1 0.1l1.1 0.1c0.4 0 0.9 0 1.4 0 0.7 0 1.5 0 2.6-0.1h2c0.1 0 0.5 0 0.5 0.6s-0.4 0.6-0.5 0.6c-0.7 0-1.4 0-2.1 0.2 -0.3 0.1-0.5 0.3-0.7 0.5 -0.2 0.5-0.2 1-0.2 1.6v18.3c0 0.5 0 1.1 0.2 1.6 0.1 0.3 0.4 0.5 0.7 0.5 0.7 0.1 1.4 0.2 2.1 0.2 0.1 0 0.5 0 0.5 0.6 0 0.3-0.2 0.6-0.5 0.6 0 0 0 0-0.1 0 -0.8 0-1.5 0-2 0L26.1 75.2zM59.7 70.5L59.7 70.5c0 0.3-0.1 0.5-0.1 0.8l0 0c-0.2 1.8-0.3 3.6-0.3 5.5 0 0.3-0.3 0.6-0.6 0.6s-0.6-0.3-0.6-0.6c0-2.1-0.4-3.5-1.1-4.4s-2-1.2-3.8-1.2H41.9c-1.1-0.1-2.2 0.4-3 1.2 -0.7 0.8-1.1 2.3-1.1 4.4 0 0.3-0.3 0.6-0.6 0.6s-0.6-0.3-0.6-0.6c0-1.7-0.1-3.4-0.3-5.1v-0.1c-0.1-0.4-0.1-0.8-0.1-1.1 0-0.2 0-0.3 0.1-0.5v-0.1l0 0c0.2-0.1 0.4-0.2 0.6-0.2h2.5l8-19.5V50l0.1-0.1c0.1-0.1 0.3-0.2 0.5-0.2 0.2 0 0.5 0.1 0.6 0.3l0 0 8.1 19.5h2.2c0.4 0 0.5 0.1 0.6 0.2s0.2 0.2 0.2 0.6L59.7 70.5zM87.2 75.3h-4c-0.4 0-0.9-0.1-1.3-0.3 -0.6-0.5-1.1-1.1-1.6-1.8 -0.7-1-1.7-2.6-3-4.8 -0.7-1.3-1.6-2.6-2.5-3.8C74.3 64 73.7 63.4 73 63c-0.5-0.3-1.1-0.4-1.6-0.5v9.1c0 0.5 0 1.1 0.2 1.6 0.1 0.3 0.4 0.5 0.7 0.5 0.7 0.1 1.4 0.2 2.1 0.2 0.1 0 0.5 0 0.5 0.6s-0.4 0.6-0.5 0.6c-0.8 0-1.4 0-1.9 0h-2.7 -2.7c-0.5 0-1.1 0-2 0 -0.1 0-0.5 0-0.5-0.6s0.4-0.6 0.5-0.6c0.7 0 1.4 0 2.1-0.2 0.3-0.1 0.6-0.3 0.7-0.5 0.2-0.5 0.2-1.1 0.2-1.6V53.4c0-0.5 0-1.1-0.2-1.6 -0.1-0.3-0.4-0.5-0.7-0.6 -0.7-0.2-1.4-0.2-2.1-0.2 -0.1 0-0.5 0-0.5-0.6s0.4-0.6 0.5-0.6h2c1.1 0.1 2 0.1 2.7 0.1 0.5 0 1 0 1.4 0l1.1-0.1c0.7-0.1 1.4-0.1 2.1-0.1 1.3 0 2.7 0.3 3.9 0.8 1.1 0.5 2 1.3 2.8 2.3 0.7 1 1 2.2 1 3.4 0 1.7-0.7 3.3-2 4.4 -1.1 0.9-2.5 1.5-3.9 1.8 0.6 0.3 1.1 0.7 1.6 1.1 1.1 1.1 2.1 2.5 2.9 3.9 1 1.9 2.2 3.7 3.5 5.3 0.8 0.9 2 1.5 3.3 1.5l0 0c0.1 0 0.5 0 0.5 0.6S87.4 75.3 87.2 75.3M111.9 73.5c-2.1 1.2-4.4 1.7-6.8 1.7 -2.3 0-4.5-0.6-6.5-1.7 -1.9-1.1-3.4-2.7-4.4-4.6 -1-2-1.6-4.2-1.6-6.4 -0.1-2.5 0.7-4.9 2.1-7 1.3-1.9 3.1-3.4 5.3-4.4 2-0.9 4.3-1.4 6.5-1.4 4.6-0.1 8.8 2.4 10.9 6.4 1 1.9 1.5 4 1.5 6.1 0 2.3-0.6 4.6-1.9 6.6C115.7 70.7 113.9 72.3 111.9 73.5"/><path class="st0" d="M110.5 52.6c-1.7-1.1-3.7-1.6-5.6-1.6 -2.5-0.1-4.9 0.9-6.6 2.7 -1.7 2.1-2.5 4.8-2.4 7.4 0 2.2 0.4 4.5 1.3 6.5 0.8 1.9 2.1 3.5 3.7 4.7 1.6 1.1 3.5 1.7 5.5 1.7 3.4 0 6.5-1.9 7.9-5 0.8-1.8 1.3-3.8 1.2-5.8 0-2.2-0.4-4.4-1.3-6.3C113.5 55.1 112.2 53.6 110.5 52.6"/><rect x="-353.6" y="-284.2" class="st1" width="1920" height="1080"/></svg>