<svg xmlns="http://www.w3.org/2000/svg" width="85.912" height="44.9" viewBox="0 0 85.912 44.9"><defs><style>.a{fill:#bbb;}</style></defs><path class="a" d="M27.118,14.184c.21-.21.21-.21.21-.421a16.981,16.981,0,0,1,5.259-6.942,7.792,7.792,0,0,1,3.787-1.683C38.9,4.717,39.53,6.19,39.32,8.083a32.388,32.388,0,0,1-1.893,7.784A31.734,31.734,0,0,0,35.533,29.12a37.4,37.4,0,0,0,1.473,8.2,2.8,2.8,0,0,1-1.683,3.787,3.719,3.719,0,0,1-4.628-2.524,26.84,26.84,0,0,1-1.262-6.942,24.931,24.931,0,0,1,1.052-6.732c.421-1.473,1.052-3.155,1.473-4.628a4.3,4.3,0,0,0,0-2.314c-.21-.841-.841-1.262-1.473-.631-.421.21-.841.841-1.262,1.262a13.994,13.994,0,0,0-1.473,5.049A71.687,71.687,0,0,0,26.7,33.327a7.391,7.391,0,0,1-1.052,4.207,2.331,2.331,0,0,1-4.418-.21,4.069,4.069,0,0,1,0-2.735c.631-3.576,1.262-7.363,2.1-10.939a1.674,1.674,0,0,0-.421-1.893,1.1,1.1,0,0,0-1.683-.21,4.581,4.581,0,0,0-1.052,1.683,15.983,15.983,0,0,0-1.262,5.47c-.421,3.155-.421,6.311-1.473,9.466a5.609,5.609,0,0,1-1.473,2.945,2.5,2.5,0,0,1-2.314.841,2.3,2.3,0,0,1-2.1-2.314,12.271,12.271,0,0,1,.631-4.838c.841-3.155,1.473-6.521,2.1-9.677a27.279,27.279,0,0,0,.421-7.152,7.474,7.474,0,0,0-.421-2.1,1.557,1.557,0,0,0-2.524-.841A4.974,4.974,0,0,0,9.237,17.97a62.174,62.174,0,0,0-2.945,8.835l-.631,3.787a3.032,3.032,0,0,1-1.893,2.314c-.841.421-1.683,0-2.1-1.052a7.83,7.83,0,0,1-.421-3.787A45.544,45.544,0,0,1,4.609,17.339,32.053,32.053,0,0,1,9.658,8.714a12.19,12.19,0,0,1,3.576-2.945,8.441,8.441,0,0,1,3.155-.631,4.77,4.77,0,0,1,3.366,2.945A10.986,10.986,0,0,1,20.6,12.5v1.262c0,.21.21.21.21.421,0-.21.21-.21.21-.421A3.845,3.845,0,0,1,24.8,11.87a3.271,3.271,0,0,1,1.683,1.262A4.6,4.6,0,0,1,27.118,14.184Z" transform="translate(-1.161 2.893)"/><path class="a" d="M56.532,20.673c-.21.421-.631.631-.841.841a24,24,0,0,1-2.314,2.314,4.452,4.452,0,0,1-4,.841c-.631-.21-1.052-.631-1.683-.841,0,.21-.21.21-.21.421a4.66,4.66,0,0,1-4,2.735H42.438a1.691,1.691,0,0,1-1.893-1.262c-.21-.631-.21-1.262-.421-1.893,0-.421-.21-.631-.21-1.052a.452.452,0,0,0-.421-.421c-.21,0-.421.21-.631.421a.773.773,0,0,0-.21.631c-.421,1.473-.841,2.735-1.262,4.207-.21.421-.21.631-.631.841a1.031,1.031,0,0,1-1.893-.21c-.21-.21-.21-.841-.631-1.473L33.6,28.036a14.933,14.933,0,0,1-2.1,2.945,4.365,4.365,0,0,1-2.1,1.262,1.993,1.993,0,0,1-2.314-1.052l-.631-.631-.631.631A15.76,15.76,0,0,1,22.663,35.4a3.78,3.78,0,0,1-1.893.841,1.972,1.972,0,0,1-1.893-1.052,7.457,7.457,0,0,1-.631-2.314,20.326,20.326,0,0,1,.21-5.049,46.519,46.519,0,0,1,1.052-5.259,4.676,4.676,0,0,1,1.683-2.735c1.473-1.262,2.945-.631,3.155,1.262a4.632,4.632,0,0,1-.21,1.683c-.21,1.262-.631,2.314-.841,3.576a1.394,1.394,0,0,0,.421,1.473,2.1,2.1,0,0,0,1.052-.841,8.386,8.386,0,0,0,1.473-5.049,43.9,43.9,0,0,1,.841-9.046A20.556,20.556,0,0,1,29.4,6.579a2.919,2.919,0,0,1,1.683-1.473,1.96,1.96,0,0,1,2.735,1.262,5.128,5.128,0,0,1,0,2.524l-1.262,3.787a18.946,18.946,0,0,0-1.683,5.89,10.137,10.137,0,0,0,0,2.524,1.154,1.154,0,0,0,.841,1.262,1.087,1.087,0,0,0,1.473-.631,9.826,9.826,0,0,0,1.052-2.1,46.3,46.3,0,0,0,1.473-7.784A21.93,21.93,0,0,1,38.02,4.685,6.7,6.7,0,0,1,40.755,1.53,1.848,1.848,0,0,1,43.49,2.792a1.8,1.8,0,0,1,0,1.473A12.164,12.164,0,0,1,42.438,7.21L40.545,11a14.493,14.493,0,0,0-.631,1.683l.21.21c0-.21,0-.21.21-.421a11.209,11.209,0,0,1,4.207-2.735c2.735-.631,3.787,1.473,3.366,3.366a11.134,11.134,0,0,1-2.735,4.838l-1.893,1.893a5.671,5.671,0,0,0,1.473,1.683c.421.421.631.421,1.052-.21a20.36,20.36,0,0,0,1.683-5.049,8.014,8.014,0,0,1,.631-2.1,20.158,20.158,0,0,1,6.1-7.784,6.52,6.52,0,0,1,2.735-1.262h1.473a2.057,2.057,0,0,1,1.052,3.366,6.55,6.55,0,0,1-1.893,1.473,14.933,14.933,0,0,0-2.945,2.1,6.184,6.184,0,0,0-2.1,2.524,4.951,4.951,0,0,0-.421,1.683,1.648,1.648,0,0,0,2.1,1.473,6.576,6.576,0,0,0,1.893-2.314c.421-.841.631-1.893,1.052-2.735l1.262-2.524A1.993,1.993,0,0,1,60.74,9.1,1.184,1.184,0,0,1,62,10.576a6.142,6.142,0,0,1-.421,1.893l-.631,1.893a.925.925,0,0,0,.21,1.052,1.391,1.391,0,0,0,1.262.21A6.393,6.393,0,0,0,63.9,14.573c.841-.841,1.473-1.683,2.314-2.524a2.9,2.9,0,0,1,.841-.631.64.64,0,0,1,.841,0,2.99,2.99,0,0,1,.421,1.262,2.99,2.99,0,0,1-.421,1.262A17.477,17.477,0,0,1,61.16,21.3a8.791,8.791,0,0,1-2.1.841,1.643,1.643,0,0,1-2.1-1.052Zm-17.46-2.314h.421a4.091,4.091,0,0,0,2.945-1.893c0-.21.21-.421,0-.631-.21-.421-.421-.421-.631-.421C40.545,15.414,39.282,16.887,39.072,18.359Z" transform="translate(17.599 -1.282)"/><path class="a" d="M22.89,6.3a1.873,1.873,0,0,1,1.683,2.314,3.374,3.374,0,0,1-3.155,2.945,1.666,1.666,0,0,1-1.683-1.052C19.313,8.824,21,6.3,22.89,6.3Z" transform="translate(19.266 4.256)"/></svg>