<?xml version="1.0" encoding="utf-8"?>
<!-- Generator: Adobe Illustrator 23.0.3, SVG Export Plug-In . SVG Version: 6.00 Build 0)  -->
<svg version="1.1" id="Layer_1" xmlns="http://www.w3.org/2000/svg" xmlns:xlink="http://www.w3.org/1999/xlink" x="0px" y="0px"
	 viewBox="0 0 43.9 23.8" style="enable-background:new 0 0 43.9 23.8;" xml:space="preserve">
<style type="text/css">
	.st0{fill:#684FA3;}
</style>
<path class="st0" d="M13.5,9.4c0.1-0.1,0.1-0.1,0.1-0.2c0.5-1.3,1.4-2.4,2.5-3.3c0.5-0.4,1.1-0.7,1.8-0.8c1.2-0.2,1.5,0.5,1.4,1.4
	c-0.1,1.3-0.5,2.5-0.9,3.7c-0.8,2-1,4.2-0.9,6.3c0.1,1.3,0.3,2.6,0.7,3.9c0.3,0.8-0.1,1.6-0.8,1.8c-1,0.2-1.9-0.2-2.2-1.2
	c-0.3-1.1-0.6-2.2-0.6-3.3c0-1.1,0.2-2.1,0.5-3.2c0.2-0.7,0.5-1.5,0.7-2.2c0.1-0.4,0.1-0.8,0-1.1c-0.1-0.4-0.4-0.6-0.7-0.3
	c-0.2,0.1-0.4,0.4-0.6,0.6c-0.4,0.7-0.6,1.6-0.7,2.4c-0.3,1.5-0.4,3-0.5,4.6c0,0.7-0.1,1.4-0.5,2c-0.2,0.4-0.5,0.7-0.9,0.7
	c-0.5,0.1-1-0.2-1.2-0.8c-0.2-0.4-0.1-0.9,0-1.3c0.3-1.7,0.6-3.5,1-5.2c0.1-0.3,0.1-0.6-0.2-0.9c-0.2-0.3-0.5-0.3-0.8-0.1
	c-0.2,0.2-0.4,0.5-0.5,0.8c-0.4,0.8-0.5,1.7-0.6,2.6c-0.2,1.5-0.2,3-0.7,4.5c-0.1,0.5-0.3,1-0.7,1.4c-0.3,0.3-0.7,0.5-1.1,0.4
	c-0.6-0.1-0.9-0.4-1-1.1c-0.1-0.8,0.1-1.6,0.3-2.3c0.4-1.5,0.7-3.1,1-4.6c0.2-1.1,0.3-2.3,0.2-3.4c0-0.3-0.1-0.7-0.2-1
	C7.2,9.6,6.7,9.5,6.2,9.8c-0.6,0.3-1,0.8-1.2,1.4c-0.6,1.3-1,2.8-1.4,4.2c-0.1,0.6-0.2,1.2-0.3,1.8c-0.1,0.5-0.4,0.9-0.9,1.1
	c-0.4,0.2-0.8,0-1-0.5c-0.2-0.6-0.3-1.2-0.2-1.8c0.3-1.8,0.9-3.5,1.6-5.1c0.6-1.5,1.4-2.9,2.4-4.1c0.5-0.6,1-1,1.7-1.4
	c0.5-0.2,1-0.3,1.5-0.3C9.2,5.3,9.7,5.8,10,6.5c0.3,0.7,0.4,1.4,0.4,2.1c0,0.2,0,0.4,0,0.6c0,0.1,0.1,0.1,0.1,0.2
	c0-0.1,0.1-0.1,0.1-0.2c0.3-0.6,1.1-1,1.8-0.9c0.3,0.1,0.6,0.3,0.8,0.6C13.3,9,13.4,9.2,13.5,9.4z"/>
<path class="st0" d="M36.4,10.5c-0.1,0.2-0.3,0.3-0.4,0.4c-0.4,0.4-0.7,0.8-1.1,1.1c-0.5,0.4-1.2,0.6-1.9,0.4
	c-0.3-0.1-0.5-0.3-0.8-0.4c0,0.1-0.1,0.1-0.1,0.2c-0.4,0.8-1,1.2-1.9,1.3c-0.1,0-0.3,0-0.5,0c-0.5,0-0.8-0.2-0.9-0.6
	c-0.1-0.3-0.1-0.6-0.2-0.9c0-0.2-0.1-0.3-0.1-0.5c0-0.1-0.1-0.2-0.2-0.2c-0.1,0-0.2,0.1-0.3,0.2c-0.1,0.1-0.1,0.2-0.1,0.3
	c-0.2,0.7-0.4,1.3-0.6,2c-0.1,0.2-0.1,0.3-0.3,0.4c-0.3,0.4-0.7,0.3-0.9-0.1C26,14,26,13.7,25.8,13.4c-0.1,0.2-0.2,0.4-0.3,0.6
	c-0.3,0.5-0.6,1-1,1.4c-0.3,0.3-0.6,0.5-1,0.6c-0.5,0.1-0.9-0.1-1.1-0.5c-0.1-0.1-0.2-0.2-0.3-0.3c-0.1,0.1-0.2,0.2-0.3,0.3
	c-0.4,0.7-0.9,1.5-1.5,2c-0.3,0.2-0.6,0.4-0.9,0.4c-0.4,0-0.8-0.2-0.9-0.5c-0.1-0.3-0.3-0.7-0.3-1.1c-0.1-0.8,0-1.6,0.1-2.4
	c0.1-0.8,0.3-1.7,0.5-2.5c0.1-0.5,0.4-1,0.8-1.3c0.7-0.6,1.4-0.3,1.5,0.6c0,0.3,0,0.5-0.1,0.8c-0.1,0.6-0.3,1.1-0.4,1.7
	c-0.1,0.2,0,0.5,0.2,0.7c0.2-0.1,0.4-0.2,0.5-0.4c0.5-0.7,0.7-1.5,0.7-2.4c0-1.4,0.1-2.9,0.4-4.3c0.2-1.1,0.6-2.1,1.1-3
	c0.2-0.3,0.4-0.6,0.8-0.7c0.6-0.2,1.1,0,1.3,0.6c0.1,0.4,0.1,0.8,0,1.2c-0.2,0.6-0.4,1.2-0.6,1.8c-0.4,0.9-0.7,1.8-0.8,2.8
	c0,0.4-0.1,0.8,0,1.2c0,0.3,0.1,0.5,0.4,0.6c0.3,0.1,0.6,0,0.7-0.3c0.2-0.3,0.4-0.7,0.5-1c0.4-1.2,0.5-2.4,0.7-3.7
	c0.2-1.2,0.5-2.3,1.1-3.4c0.3-0.6,0.7-1.2,1.3-1.5c0.5-0.3,1.2,0,1.3,0.6c0.1,0.2,0.1,0.5,0,0.7c-0.1,0.5-0.3,1-0.5,1.4
	c-0.3,0.6-0.6,1.2-0.9,1.8c-0.1,0.2-0.2,0.5-0.3,0.8c0,0,0.1,0.1,0.1,0.1c0-0.1,0-0.1,0.1-0.2c0.6-0.6,1.2-1,2-1.3
	c1.3-0.3,1.8,0.7,1.6,1.6c-0.2,0.9-0.7,1.6-1.3,2.3c-0.3,0.3-0.6,0.6-0.9,0.9c0.2,0.3,0.4,0.6,0.7,0.8c0.2,0.2,0.3,0.2,0.5-0.1
	c0.4-0.7,0.6-1.6,0.8-2.4c0.1-0.3,0.1-0.7,0.3-1c0.7-1.5,1.6-2.7,2.9-3.7c0.4-0.3,0.8-0.5,1.3-0.6c0.2,0,0.5,0,0.7,0
	c0.7,0.2,1,1,0.5,1.6c-0.2,0.3-0.6,0.5-0.9,0.7c-0.5,0.3-1,0.6-1.4,1c-0.4,0.3-0.8,0.7-1,1.2c-0.1,0.3-0.2,0.5-0.2,0.8
	c0,0.5,0.5,0.8,1,0.7C35.7,8.8,36,8.4,36.2,8c0.2-0.4,0.3-0.9,0.5-1.3c0.2-0.4,0.4-0.8,0.6-1.2c0.2-0.4,0.6-0.6,1.1-0.5
	c0.4,0,0.7,0.3,0.6,0.7c0,0.3-0.1,0.6-0.2,0.9c-0.1,0.3-0.2,0.6-0.3,0.9c-0.1,0.2,0,0.4,0.1,0.5c0.2,0.1,0.4,0.2,0.6,0.1
	c0.2-0.1,0.5-0.3,0.7-0.5c0.4-0.4,0.7-0.8,1.1-1.2c0.1-0.1,0.2-0.2,0.4-0.3c0.1-0.1,0.3-0.1,0.4,0C41.9,6.3,42,6.5,42,6.7
	c0,0.2-0.1,0.4-0.2,0.6c-0.7,1.5-1.8,2.6-3.2,3.5c-0.3,0.2-0.7,0.3-1,0.4c-0.4,0.1-0.8,0-1-0.5C36.5,10.6,36.5,10.6,36.4,10.5z
	 M28.1,9.4c0.1,0,0.1,0,0.2,0c0.6-0.1,1.1-0.4,1.4-0.9c0-0.1,0.1-0.2,0-0.3C29.6,8,29.5,8,29.4,8C28.8,8,28.2,8.7,28.1,9.4z"/>
<path class="st0" d="M21.2,6.3c0.5,0,0.9,0.5,0.8,1.1c-0.1,0.8-0.7,1.3-1.5,1.4c-0.4,0-0.7-0.2-0.8-0.5C19.5,7.5,20.3,6.3,21.2,6.3z
	"/>
</svg>
