<svg xmlns="http://www.w3.org/2000/svg" width="114.713" height="22.943" viewBox="0 0 114.713 22.943"><defs><style>.a{fill:#bbb;fill-rule:evenodd;}</style></defs><path class="a" d="M1.2,1.2V24.143H115.913V1.2ZM29.437,23.134H2.208V2.208H29.437V23.134ZM48.094,19.1H42.547L38.261,8.763V19.1h-3.53V5.99h5.8l4.034,10.337V5.99h3.278V19.1Zm6.3,0h-3.53V5.99H54.4V19.1Zm9.328,0H56.918V16.327h8.068V14.058H60.951c-2.773,0-4.538-1.008-4.538-3.782,0-3.025,1.765-4.286,4.79-4.286h6.3V8.763H59.943v2.269h4.034c2.773,0,4.538,1.008,4.538,3.782,0,3.278-1.513,4.286-4.79,4.286Zm13.362,0H70.28V16.327h8.068V14.058H74.314c-2.773,0-4.538-1.008-4.538-3.782,0-3.025,1.765-4.286,4.79-4.286h6.3V8.763H73.305v2.269h4.034c2.773,0,4.538,1.008,4.538,3.782,0,3.278-1.513,4.286-4.79,4.286Zm15.631,0L91.71,16.579H86.415L85.407,19.1h-3.53l4.79-13.11h5.294L96.5,19.1Zm17.9,0h-5.547L100.786,8.763V19.1H97.508V5.99h5.8l4.034,10.337V5.99h3.277V19.1ZM87.171,13.806H90.7L88.936,8.763Z" transform="translate(-1.2 -1.2)"/><path class="a" d="M24.182,4.5H3.761C3,4.5,2.5,4.752,2.5,5.508V9.542c0,1.261.252,1.261,1.513,1.261H24.434c1.008,0,1.261,0,1.261-1.261V5.508C25.443,4.5,25.19,4.5,24.182,4.5ZM7.29,9.29H5.778L4.769,6.769V9.542H3.761V5.761H5.273L6.282,8.534V5.761H7.29V9.29Zm1.765,0H8.047V5.761H9.055Zm2.521,0H9.811V8.534h2.017v-.5H10.82c-.756,0-1.261-.252-1.261-1.008A1.191,1.191,0,0,1,10.82,5.761h1.513v.756H10.568v.5h1.008c.756,0,1.261.252,1.261,1.008,0,1.261-.5,1.261-1.261,1.261Zm3.53,0H13.341V8.534h2.017v-.5H14.349c-.756,0-1.261-.252-1.261-1.008a1.191,1.191,0,0,1,1.261-1.261h1.765v.756H14.1v.5h1.008c.756,0,1.261.252,1.261,1.261s-.5,1.008-1.261,1.008Zm4.286,0-.252-.756H17.627l-.252.756H16.366l1.261-3.53h1.261l1.261,3.53Zm4.538,0H22.417L21.409,6.769V9.542H20.4V5.761h1.513l1.008,2.773V5.761H23.93V9.29ZM17.879,7.778h1.008l-.5-1.261Z" transform="translate(0.778 3.82)"/><path class="a" d="M18.318,6.886H4.2C4.7,4.365,8.234,2.6,11.259,2.6,14.033,2.6,17.562,4.113,18.318,6.886ZM4.2,14.2H18.318c-.756,2.521-4.034,4.286-7.059,4.286C8.738,18.483,4.7,16.718,4.2,14.2Z" transform="translate(3.363 0.93)"/></svg>