<?xml version="1.0" encoding="utf-8"?>
<!-- Generator: Adobe Illustrator 23.0.3, SVG Export Plug-In . SVG Version: 6.00 Build 0)  -->
<svg version="1.1" id="Layer_1" xmlns="http://www.w3.org/2000/svg" xmlns:xlink="http://www.w3.org/1999/xlink" x="0px" y="0px"
	 viewBox="0 0 48.1 11.4" style="enable-background:new 0 0 48.1 11.4;" xml:space="preserve">
<style type="text/css">
	.st0{fill-rule:evenodd;clip-rule:evenodd;fill:#374E8E;}
	.st1{fill-rule:evenodd;clip-rule:evenodd;fill:#CA3132;}
</style>
<g>
	<path class="st0" d="M1.2,1.2v9.1h45.5V1.2H1.2z M12.4,9.9H1.6V1.6h10.8L12.4,9.9L12.4,9.9L12.4,9.9z M19.8,8.3h-2.2l-1.7-4.1v4.1
		h-1.4V3.1h2.3l1.6,4.1V3.1h1.3V8.3z M22.3,8.3h-1.4V3.1h1.4L22.3,8.3L22.3,8.3z M26,8.3h-2.7V7.2h3.2V6.3h-1.6
		c-1.1,0-1.8-0.4-1.8-1.5c0-1.2,0.7-1.7,1.9-1.7h2.5v1.1h-3v0.9h1.6c1.1,0,1.8,0.4,1.8,1.5C27.9,7.9,27.3,8.3,26,8.3L26,8.3z
		 M31.3,8.3h-2.7V7.2h3.2V6.3h-1.6c-1.1,0-1.8-0.4-1.8-1.5c0-1.2,0.7-1.7,1.9-1.7h2.5v1.1h-3v0.9h1.6c1.1,0,1.8,0.4,1.8,1.5
		C33.2,7.9,32.6,8.3,31.3,8.3L31.3,8.3z M37.5,8.3l-0.4-1H35l-0.4,1h-1.4l1.9-5.2h2.1L39,8.3H37.5z M44.6,8.3h-2.2l-1.7-4.1v4.1
		h-1.3V3.1h2.3l1.6,4.1V3.1h1.3V8.3z M35.3,6.2h1.4l-0.7-2L35.3,6.2z"/>
	<path class="st0" d="M11.1,4.5H3c-0.3,0-0.5,0.1-0.5,0.4v1.6c0,0.5,0.1,0.5,0.6,0.5h8.1c0.4,0,0.5,0,0.5-0.5V4.9
		C11.6,4.5,11.5,4.5,11.1,4.5L11.1,4.5z M4.4,6.4H3.8L3.4,5.4v1.1H3V5h0.6L4,6.1V5h0.4L4.4,6.4L4.4,6.4z M5.1,6.4H4.7V5h0.4V6.4z
		 M6.1,6.4H5.4V6.1h0.8V5.9H5.8c-0.3,0-0.5-0.1-0.5-0.4C5.3,5.2,5.5,5,5.8,5h0.6v0.3H5.7v0.2h0.4c0.3,0,0.5,0.1,0.5,0.4
		C6.6,6.4,6.4,6.4,6.1,6.4L6.1,6.4z M7.5,6.4H6.8V6.1h0.8V5.9H7.2c-0.3,0-0.5-0.1-0.5-0.4C6.7,5.2,6.9,5,7.2,5h0.7v0.3H7.1v0.2h0.4
		C7.8,5.5,8,5.6,8,6C8,6.4,7.8,6.4,7.5,6.4L7.5,6.4z M9.2,6.4L9.1,6.1H8.5L8.4,6.4H8L8.5,5H9l0.5,1.4H9.2L9.2,6.4z M11,6.4h-0.6
		L10,5.4v1.1H9.6V5h0.6l0.4,1.1V5H11L11,6.4L11,6.4L11,6.4z M8.6,5.8h0.4L8.8,5.3L8.6,5.8z"/>
	<path class="st1" d="M9.8,4.3H4.2C4.4,3.3,5.8,2.6,7,2.6C8.1,2.6,9.5,3.2,9.8,4.3z M4.2,7.2h5.6C9.5,8.2,8.2,8.9,7,8.9
		C6,8.9,4.4,8.2,4.2,7.2L4.2,7.2z"/>
</g>
</svg>
