<svg xmlns="http://www.w3.org/2000/svg" width="103.856" height="24.636" viewBox="0 0 103.856 24.636"><defs><style>.a,.b{fill:#bbb;}.a{fill-rule:evenodd;}</style></defs><path class="a" d="M-173.846,2.083v9.5L-185.6,1.6V26.236h6.924v-9.5l11.754,9.339V2.083m4.025,0h6.924V26.075H-162.9Z" transform="translate(185.6 -1.6)"/><path class="b" d="M-146.312,1.9l-6.119,11.432L-158.549,1.9H-166.6l14.009,24.153L-138.583,1.9" transform="translate(197.193 -1.417)"/><path class="a" d="M-141.376,19.773V16.392h7.729V11.239h-7.729V7.858h7.729V1.9H-148.3V25.892h14.653V19.773" transform="translate(208.36 -1.417)"/><path class="b" d="M-118.534,26.075h8.051L-124.491,1.6-138.5,26.075h8.051L-129,23.337h9.178l1.288,2.737Zm-8.373-7.407,2.254-4.186,2.254,4.186h-4.508Z" transform="translate(214.339 -1.6)"/></svg>