<?xml version="1.0" encoding="utf-8"?>
<!-- Generator: Adobe Illustrator 23.0.3, SVG Export Plug-In . SVG Version: 6.00 Build 0)  -->
<svg version="1.1" id="Layer_1" xmlns="http://www.w3.org/2000/svg" xmlns:xlink="http://www.w3.org/1999/xlink" x="0px" y="0px"
	 viewBox="0 0 88 18" style="enable-background:new 0 0 88 18;" xml:space="preserve">
<style type="text/css">
	.st0{fill-rule:evenodd;clip-rule:evenodd;fill:#004DBB;}
	.st1{fill:#004DBB;}
</style>
<g id="nivea_grey" transform="translate(196.7 -0.3)">
	<path id="Path_21" class="st0" d="M-178.3,1.9v5.9l-7.3-6.2v15.3h4.3V11l7.3,5.8V1.9 M-171.5,1.9h4.3v14.9h-4.3V1.9z"/>
	<path id="Path_22" class="st1" d="M-154,1.9l-3.8,7.1l-3.8-7.1h-5l8.7,15l8.7-15"/>
	<path id="Path_23" class="st0" d="M-144,13v-2.1h4.8V7.7h-4.8V5.6h4.8V1.9h-9.1v14.9h9.1V13"/>
	<path id="Path_24" class="st1" d="M-126.1,16.8h5l-8.7-15.2l-8.7,15.2h5l0.9-1.7h5.7L-126.1,16.8L-126.1,16.8z M-131.3,12.2
		l1.4-2.6l1.4,2.6H-131.3z"/>
</g>
</svg>
