<?xml version="1.0" encoding="utf-8"?>
<!-- Generator: Adobe Illustrator 23.0.3, SVG Export Plug-In . SVG Version: 6.00 Build 0)  -->
<svg version="1.1" id="Layer_1" xmlns="http://www.w3.org/2000/svg" xmlns:xlink="http://www.w3.org/1999/xlink" x="0px" y="0px"
	 viewBox="0 0 48 16.1" style="enable-background:new 0 0 48 16.1;" xml:space="preserve">
<style type="text/css">
	.st0{fill:#F14D69;}
	.st1{fill:#F9A74B;}
	.st2{fill:#35B562;}
	.st3{fill:#92278A;}
	.st4{fill:#2EACE1;}
	.st5{fill:#ABE0F9;}
	.st6{fill:#86BAE6;}
	.st7{fill:#00B2B0;}
	.st8{fill:#DDA9CF;}
	.st9{fill:#FEDCE3;}
	.st10{fill:#B6B6B6;}
	.st11{fill:#A979B6;}
	.st12{fill:#FFD234;}
	.st13{fill:#C57824;}
	.st14{fill:#F7956B;}
	.st15{fill:#005596;}
</style>
<g>
	<path class="st0" d="M19.1,14.1c-0.1,0.1-0.2,0.1-0.3,0.2c-1.8,0.8-3.7,0.8-5.5,0.1c-1.5-0.6-2.6-1.5-3.6-2.8
		c-0.2-0.3-0.2-0.3,0.1-0.4c1.1-0.4,2.2-0.7,3.3-1.1c0.2-0.1,0.3,0,0.4,0.2c0.8,2,2.7,3.1,4.8,3c0.3-0.1,0.3-0.1,0.5,0.2
		c0.1,0.1,0.1,0.2,0.2,0.4C19.1,13.9,19.2,14,19.1,14.1z"/>
	<path class="st1" d="M13.3,7.3c-1-0.6-1.9-1.1-2.9-1.7C10,5.3,9.5,5,9.1,4.8C8.9,4.7,8.9,4.6,8.9,4.4c0.4-0.9,1-1.7,1.8-2.3
		c0.4-0.3,0.9-0.6,1.4-0.8c0.1-0.1,0.2,0,0.3,0.1c0.5,1,0.9,2,1.4,3c0.2,0.3,0.3,0.7,0.5,1c0.1,0.2,0.1,0.3-0.1,0.4
		C14,6,13.9,6.2,13.7,6.4C13.7,6.7,13.5,7,13.3,7.3C13.5,7.2,13.4,7.3,13.3,7.3z"/>
	<path class="st2" d="M15.2,6.9c-0.1,0-0.1-0.2-0.2-0.3c-0.1-0.3-0.3-0.6-0.4-0.9c-0.1-0.2-0.1-0.3,0.1-0.4c1.1-0.9,2.4-1.1,3.7-0.7
		c0.5,0.1,0.9,0.3,1.3,0.6v0.1c-0.1,0.3-0.3,0.5-0.5,0.6c-0.3,0.2-0.5,0.5-0.7,0.8c-0.1,0.1-0.3,0.3-0.4,0.4
		c-0.4,0.3-0.5,0.3-0.9,0.1C17.1,7.1,17,7.1,16.9,7c-0.3-0.1-0.5-0.2-0.8-0.2C15.8,6.9,15.5,6.9,15.2,6.9z"/>
	<path class="st3" d="M18.6,13.1c-0.4-0.7-0.8-1.4-1.2-2.1c0,0,0,0,0-0.1c0.1-0.1,0.2-0.2,0.3-0.4c0.2-0.1,0.3-0.3,0.3-0.5
		c0.1-0.1,0.1-0.3,0.2-0.3c0.1-0.1,0.3-0.1,0.4,0c0.9,0.3,1.8,0.6,2.7,0.9c0.1,0,0.2,0.1,0.3,0.2c0.1,0.1,0.1,0.3,0,0.4
		c-0.6,1.1-1.5,1.7-2.7,2C18.8,13.3,18.7,13.3,18.6,13.1z"/>
	<path class="st4" d="M18.1,7.1c0.1-0.1,0.2-0.2,0.3-0.3c0.4-0.5,0.9-0.9,1.3-1.4c0.2-0.2,0.4,0,0.6,0.1c0.1,0.2,0.3,0.3,0.5,0.4
		c0.3,0.3,0.5,0.6,0.7,0.9s0.3,0.6,0.4,1c0,0.1,0,0.1,0,0.2h-0.1c-0.1,0.1-0.1,0.1-0.3,0.2c-0.9,0.2-1.9,0.4-2.8,0.5
		c-0.1,0-0.3,0.1-0.4-0.1c-0.1-0.4-0.3-0.8-0.6-1.1c-0.1-0.1,0-0.2,0.1-0.2C17.9,7.2,18,7.1,18.1,7.1z"/>
	<path class="st5" d="M18.4,8.6c1.1-0.2,2.3-0.4,3.4-0.6c0.1,0,0.1,0.2,0.2,0.3c0.2,0.9,0.1,1.7-0.2,2.5c0,0,0,0-0.1,0
		c-1-0.3-1.9-0.6-2.9-0.9c-0.1,0-0.3-0.1-0.4-0.1c0,0-0.1,0-0.1-0.1c0.1-0.1,0.2-0.2,0.2-0.3C18.4,9.1,18.4,8.9,18.4,8.6z"/>
	<path class="st6" d="M21.9,7.9c0,0-0.2-0.6-0.3-0.7c-0.1-0.2-0.2-0.4-0.3-0.6c-0.2-0.4-0.5-0.7-0.9-1c-0.1-0.1-0.2-0.1-0.3-0.2
		c-0.1-0.1-0.2-0.1-0.4,0V5.3V5.2c0.1,0,0.2,0,0.2-0.1c0.3-0.3,0.6-0.7,0.9-1c0.1-0.1,0.2-0.2,0.3,0c0.7,1,1.1,2.2,1.3,3.4
		c0,0.2,0,0.3-0.2,0.3C22.2,7.9,22.1,7.9,21.9,7.9z"/>
	<path class="st7" d="M17.6,7.5c-0.4,0.4-0.8,0.9-1.2,1.3c-0.1,0.1-0.1,0.2-0.2,0.1c-0.1,0-0.2-0.2-0.2-0.3
		c-0.2-0.5-0.5-0.9-0.7-1.5c0-0.1-0.1-0.1,0-0.2l0,0c0.3-0.2,0.7-0.2,1.1-0.2c0.2,0,0.5,0.1,0.7,0.2s0.4,0.2,0.6,0.3
		C17.6,7.4,17.7,7.4,17.6,7.5z"/>
	<path class="st8" d="M21.7,10.8L21.7,10.8c0.4,0.2,0.4,0.2,0.2,0.6c-0.6,1.1-1.4,2-2.5,2.6c-0.1,0-0.2,0.1-0.3,0.1
		c-0.2-0.2-0.3-0.4-0.4-0.6c-0.1-0.1-0.1-0.2-0.1-0.2c0.1,0,0,0,0.1,0c0.3-0.1,0.5-0.1,0.8-0.2c0.9-0.4,1.6-1,2.1-1.8
		C21.6,11,21.7,10.9,21.7,10.8z"/>
	<path class="st9" d="M17.4,11L17.4,11c-0.4,0.1-0.7,0.2-1.1,0.2c-0.3,0-0.6-0.1-0.9-0.2c0.1-0.6,0.3-1.2,0.6-1.7
		c0-0.1,0.1-0.1,0-0.2c0.1-0.1,0.2-0.1,0.4,0c0.4,0.5,0.6,1,1,1.6C17.4,10.7,17.5,10.9,17.4,11z"/>
	<path class="st10" d="M16,9.1c0.1,0.1,0.1,0.1,0.1,0.2c-0.2,0.5-0.3,1-0.5,1.5c0,0.1-0.1,0.2-0.2,0.2c-0.5-0.2-0.8-0.6-1.1-1
		c-0.1-0.2-0.1-0.3,0.1-0.3C14.9,9.5,15.5,9.3,16,9.1z"/>
	<path class="st11" d="M17.4,11c-0.4-0.6-0.7-1.2-1.1-1.8V9.1c0.6,0.2,1.3,0.4,1.9,0.6c0.2,0.1,0,0.3,0,0.4
		C18.2,10.2,17.5,11.2,17.4,11z"/>
	<path class="st12" d="M14.1,7.9C13.9,8.5,13.9,9,14,9.5c0.1,0.3-0.2,0.2-0.3,0.3s-0.3,0.1-0.3-0.1c-0.2-0.7-0.3-1.4-0.1-2.1
		c0.1-0.3,0.3-0.1,0.5-0.1h0.1C14,7.6,14.2,7.7,14.1,7.9z"/>
	<path class="st13" d="M14,6.4c0.2,0.3,0.4,0.5,0.7,0.8c0.1,0.1,0,0.1,0,0.2c-0.1,0.1-0.2,0.2-0.3,0.3c-0.1,0.2-0.2,0.2-0.4,0.1
		c0,0-0.1,0-0.1-0.1l0,0c-0.5-0.2-0.5-0.2-0.3-0.7c0.1-0.2,0.1-0.3,0.2-0.4C13.8,6.4,13.9,6.3,14,6.4z"/>
	<path class="st14" d="M16.1,8.9c0-0.2-0.1-0.3-0.2-0.4l-0.1-0.1c-0.2-0.4-0.4-0.8-0.6-1.2C15.2,7.1,15.1,7,15,7
		c0,0-0.1,0.1-0.2,0.2c0,0,0,0-0.1,0.1c0,0-0.1,0-0.2,0.1c-0.2,0.2-0.3,0.3-0.4,0.5c0.5,0.3,1.1,0.6,1.6,0.9l0,0
		C15.9,8.8,16,8.9,16.1,8.9z"/>
</g>
<g>
	<path class="st15" d="M4.9,12.4H4.1v-5H1.4v5H0.7V6.8h4.2V12.4z"/>
	<path class="st15" d="M6.9,10.2v2.2H6.2V6.8h2.1c0.6,0,1.1,0.2,1.4,0.5s0.5,0.7,0.5,1.2c0,0.5-0.2,0.9-0.5,1.2s-0.8,0.5-1.4,0.5
		H6.9z M6.9,9.6h1.4c0.4,0,0.7-0.1,0.8-0.3c0.2-0.2,0.3-0.5,0.3-0.8c0-0.3-0.1-0.6-0.3-0.8C9,7.5,8.7,7.4,8.3,7.4H6.9V9.6z"/>
	<path class="st15" d="M27.7,10.6L27.7,10.6c0,0.5-0.2,1-0.5,1.3c-0.4,0.4-0.9,0.5-1.5,0.5c-0.6,0-1.1-0.2-1.5-0.7
		c-0.4-0.4-0.6-1-0.6-1.7v-1c0-0.7,0.2-1.3,0.6-1.7C24.5,7,25,6.8,25.6,6.8c0.6,0,1.1,0.2,1.5,0.5c0.4,0.3,0.6,0.8,0.5,1.3l0,0h-0.7
		c0-0.4-0.1-0.7-0.3-0.9c-0.2-0.2-0.6-0.3-1-0.3c-0.4,0-0.8,0.2-1,0.5c-0.2,0.3-0.4,0.8-0.4,1.3v1c0,0.5,0.1,0.9,0.4,1.3
		s0.6,0.5,1,0.5c0.4,0,0.7-0.1,1-0.3c0.2-0.2,0.3-0.5,0.3-0.9H27.7z"/>
	<path class="st15" d="M32.8,12.4h-0.8v-5h-2.7v5h-0.8V6.8h4.2V12.4z"/>
	<path class="st15" d="M37.2,9.8h-2.3v2h2.7v0.6h-3.4V6.8h3.4v0.6h-2.6v1.8h2.3V9.8z"/>
	<path class="st15" d="M39.7,9.9h-0.5v2.5h-0.8V6.8h0.8v2.5h0.4l2.1-2.5h0.8l0,0l-2.3,2.6l2.4,2.9l0,0h-0.9L39.7,9.9z"/>
	<path class="st15" d="M47.3,7.4h-1.8v5h-0.8v-5h-1.8V6.8h4.4V7.4z"/>
</g>
</svg>
