<?xml version="1.0" encoding="utf-8"?>
<!-- Generator: Adobe Illustrator 23.0.3, SVG Export Plug-In . SVG Version: 6.00 Build 0)  -->
<svg version="1.1" id="Layer_1" xmlns="http://www.w3.org/2000/svg" xmlns:xlink="http://www.w3.org/1999/xlink" x="0px" y="0px"
	 viewBox="0 0 41.6 20.5" style="enable-background:new 0 0 41.6 20.5;" xml:space="preserve">
<style type="text/css">
	.st0{fill:#E02523;}
	.st1{fill:#B6B7B3;}
</style>
<g>
	<path class="st0" d="M19.9,1c2.9,0,5.9,0,8.8,0c0.2,0,0.2,0,0.2,0.2c-0.1,0.8-0.2,1.6-0.3,2.4c-0.1,0.7-0.2,1.4-0.3,2.1
		c0,0.2,0,0.2-0.3,0.2c-1.4-0.3-2.8-0.6-4.2-0.7C22.3,5.1,20.9,5,19.4,5c-2.6,0-5.2,0.3-7.7,0.9c-0.2,0-0.2,0-0.2-0.1
		c-0.1-0.9-0.2-1.8-0.3-2.6C11,2.5,11,1.9,10.9,1.3C10.8,1,10.8,1,11.1,1C14,1,16.9,1,19.9,1C19.9,1,19.9,1,19.9,1z M14.2,4
		c-0.6,0.4-1,0.5-1.4,0.1c-0.3-0.3-0.3-0.8,0-1.1c0.3-0.4,0.7-0.4,1.2,0c-0.1-0.4-0.2-0.5-0.6-0.4c-0.1,0-0.1,0-0.2,0
		c-0.6,0.1-1,0.7-0.9,1.2c0.1,0.6,0.7,1,1.3,0.8C13.9,4.4,14.1,4.3,14.2,4z M26.4,3.6c0.1-0.1,0.3-0.2,0.5-0.1
		c0.1,0,0.2,0.1,0.1,0.2c0,0.1-0.1,0-0.2,0c-0.2,0-0.4,0-0.5,0.2c-0.1,0.1-0.1,0.2,0,0.4c0.1,0.2,0.3,0.3,0.5,0.3c0.1,0,0.2,0,0.3,0
		c0.1,0,0.1,0,0.1-0.1c0-0.2,0-0.4,0.1-0.6c0.1-0.4-0.2-0.6-0.6-0.6C26.5,3.4,26.4,3.4,26.4,3.6z M23.6,3.6c-0.1,0-0.1,0.1-0.2,0.1
		c-0.1,0.1-0.3,0.1-0.5,0.1c-0.2-0.1-0.2-0.2-0.2-0.4c0-0.1,0-0.2,0.1-0.1c0.2,0,0.4,0,0.6,0c0.2,0,0.3-0.1,0.2-0.3
		c0-0.1-0.1-0.2-0.2-0.3c-0.2-0.1-0.4-0.1-0.6,0.1c-0.2,0.2-0.3,0.4-0.2,0.6C22.5,3.8,22.8,4,23,4C23.3,4.1,23.5,3.9,23.6,3.6z
		 M20,3.5c-0.1,0-0.1,0.1-0.2,0.2c-0.1,0.1-0.3,0.2-0.5,0.1c-0.2-0.1-0.2-0.2-0.3-0.4c0-0.1,0-0.2,0.1-0.1c0.2,0,0.4,0,0.6,0
		c0.1,0,0.1,0,0.1-0.1c0-0.2-0.2-0.4-0.4-0.4c-0.3-0.1-0.5,0-0.6,0.3c-0.1,0.2-0.1,0.5,0,0.7c0.1,0.2,0.4,0.3,0.6,0.2
		C19.8,3.9,19.9,3.7,20,3.5z M14.6,3.6c0,0.3,0.3,0.6,0.6,0.6c0.3,0,0.6-0.3,0.6-0.6c0-0.3-0.3-0.6-0.6-0.6
		C14.8,3,14.6,3.2,14.6,3.6z M17.2,4c-0.1-0.3,0-0.5-0.1-0.8c-0.1-0.3-0.2-0.4-0.5-0.3c-0.1,0-0.2,0.1-0.3,0c-0.1,0-0.2,0-0.1,0.2
		c0.1,0.3,0.1,0.6,0.1,0.9c0,0,0,0.1,0,0.1c0.1,0,0.1,0,0.2,0c0.1,0,0-0.1,0-0.1c0-0.2,0-0.5-0.1-0.7c0-0.1,0.1-0.2,0.2-0.2
		c0.1,0,0.2,0.1,0.2,0.2c0,0.2,0,0.4,0,0.6C17,4,17,4,17.2,4z M18.5,2.5c0-0.3,0-0.3-0.2-0.3c-0.2,0-0.3,0.1-0.4,0.3
		c0,0.1,0,0.3-0.1,0.4c0,0,0,0.1,0,0.1c0.1,0,0.1,0.2,0.1,0.2c0,0.2,0,0.5,0,0.7C17.9,4.1,18,4,18,4c0.1,0,0.1,0,0.1-0.1
		c0-0.3,0-0.5-0.1-0.8c0-0.1,0-0.2,0.1-0.2c0,0,0.1,0,0.1-0.1c0-0.1,0-0.1-0.1-0.1c0,0-0.1,0-0.1,0c0-0.1-0.1-0.3,0.1-0.4
		C18.3,2.2,18.4,2.3,18.5,2.5z M22.1,3.8c-0.2,0.1-0.3,0-0.3-0.2c0-0.2,0-0.4,0-0.6c0-0.1,0-0.2,0.2-0.2c0,0,0.1,0,0.1-0.1
		c0-0.1,0-0.1-0.1-0.1c-0.1,0-0.1-0.1-0.1-0.2c0-0.1,0-0.2,0-0.2c0-0.1,0.1-0.1,0-0.2c-0.1,0-0.2,0-0.2,0.2c0,0.1,0.1,0.3-0.1,0.4
		c0,0,0,0,0,0.1c0.1,0.2,0.1,0.4,0,0.5c0,0.1,0,0.3,0,0.4C21.8,4,21.9,4,22.1,3.8z M20.8,2.2c-0.1,0-0.2,0.1-0.2,0.3
		c0,0.1,0,0.2-0.1,0.3c0,0,0,0.1,0,0.1C20.6,2.9,20.6,3,20.6,3c0,0.2,0,0.4,0,0.6c0,0.1,0.1,0.2,0.2,0.3c0.1,0,0.2,0,0.3-0.1
		c-0.2,0-0.3-0.1-0.3-0.3c0-0.2,0-0.3,0-0.5c0-0.1,0-0.2,0.2-0.2c0,0,0.1,0,0.1-0.1c0,0,0-0.1,0-0.1c-0.2,0-0.2-0.1-0.2-0.2
		C20.8,2.4,20.8,2.3,20.8,2.2z M24.4,4.2c0-0.3,0-0.6,0.1-0.9c0-0.1,0.1-0.2,0.3-0.2c0.1,0,0.1,0.2,0.2,0.2C25,3.1,25,3,24.7,3
		c-0.2,0-0.3-0.1-0.5,0c0,0.3,0,0.7-0.1,1c0,0.2,0,0.2,0.1,0.2C24.3,4.2,24.4,4.2,24.4,4.2z M25.7,4.3c0-0.4,0.1-0.8,0.1-1.2
		c-0.2,0.1-0.4,0.1-0.2,0.3c0,0,0,0.1,0,0.1c0,0.2,0,0.3-0.1,0.5C25.4,4.3,25.4,4.3,25.7,4.3z M25.8,2.8c0-0.1-0.1-0.1-0.1-0.2
		c-0.1,0-0.1,0-0.1,0.1c0,0.1,0,0.1,0.1,0.1C25.8,2.9,25.8,2.9,25.8,2.8z"/>
	<path class="st0" d="M2.6,13.6c-0.1,0-0.1-0.1-0.2-0.1c0,0.2,0,0.4,0,0.6c0,0.3,0,0.6,0,0.9c0,0.1-0.1,0.1-0.2,0.1
		c-0.2,0-0.5,0-0.7,0c-0.1,0-0.2,0-0.1-0.2c0-0.3,0-0.6,0-0.9c0-2.4,0-4.7,0-7.1c0-0.1,0-0.2,0.1-0.2c1,0,2,0,2.9,0
		c0.4,0,0.7,0.1,1.1,0.1l0,0C5.6,7,5.7,7,5.7,7c0,0,0.1,0,0.1,0c0,0,0,0.1,0,0.1c1,0.2,1.6,0.9,1.9,1.8c0.7,1.6,0,3.6-1.5,4.4
		c-0.3,0.2-0.5,0.3-0.8,0.4c-0.1,0-0.2,0-0.3,0.1c-0.1,0-0.2,0-0.2,0.1c0,0,0,0.1,0.1,0.1c0,0,0.1,0.1,0.2,0.1C6,14.7,7,15.2,8,15.6
		c0.3,0.1,0.6,0.3,1,0.3l0,0c0,0.1,0.1,0,0.1,0c0.6,0.2,1.3,0.3,1.9,0.3c0.4,0,0.8,0,1.3,0c0,0,0.1,0,0.1,0c0,0.1-0.1,0.1-0.1,0.1
		c-0.3,0.2-0.7,0.2-1.1,0.2c-0.8,0-1.6,0-2.5-0.1c-1.5-0.2-2.9-0.8-4.2-1.6c-0.6-0.4-1.1-0.7-1.7-1C2.8,13.6,2.7,13.6,2.6,13.6z
		 M3.5,7.4c-0.3,0-0.7,0.1-1,0.3C2.5,7.7,2.4,7.8,2.4,7.9c0,1.4,0,2.8,0,4.3c0,0.1,0,0.2,0.1,0.3C3,12.8,3.4,13,3.9,13.1
		c0.3,0.1,0.6,0.1,0.9,0.1c0.6,0,1.1-0.3,1.5-0.8c0.9-1.1,1-2.3,0.4-3.6C6.2,7.8,5.3,7.3,4.2,7.3C4,7.3,3.8,7.3,3.5,7.4z"/>
	<path class="st1" d="M34.9,17.3c-0.4,0.1-0.8,0.2-1.2,0.3c-0.7,0.2-1.5,0.4-2.3,0.5c-0.6,0.1-1.2,0.2-1.8,0.3
		c-0.8,0.1-1.7,0.2-2.5,0.3c-0.7,0.1-1.5,0.1-2.2,0.2c-0.7,0.1-1.4,0.1-2.1,0.1c-1.3,0-2.7,0-4,0c-0.3,0-0.6,0-0.9,0
		c-0.9,0-1.9-0.1-2.8-0.1c-0.8,0-1.6-0.1-2.4-0.2c-0.6-0.1-1.3-0.2-1.9-0.2c-0.4,0-0.7-0.1-1.1-0.2c-0.5-0.1-1-0.1-1.5-0.3
		c-0.5-0.1-1-0.2-1.6-0.4c-0.4-0.1-0.9-0.2-1.3-0.3c-0.2,0-0.4-0.1-0.5-0.2C14.9,19.1,24.9,19.2,34.9,17.3z"/>
	<path class="st0" d="M22.9,11.6c0-0.2,0-0.4,0-0.7c-0.1-0.5-0.5-0.8-1-0.9c-0.2-0.1-0.5-0.1-0.7,0c-0.5,0.2-0.9,0.6-1.2,1
		c0-0.3,0-0.6,0-1c0-0.1,0.1-0.1,0.1-0.1c0.6-0.3,1.3-0.5,2-0.4c0.1,0,0.2,0,0.3,0c0.2,0.1,0.3,0.1,0.5,0.2c0.6,0.2,0.9,0.7,0.9,1.3
		c0,1.3,0,2.6,0,3.9c0,0.1,0,0.1-0.1,0.1c-0.2,0-0.4,0-0.6,0c-0.1,0-0.1-0.1-0.1-0.2c-0.4,0.3-0.8,0.3-1.3,0.4
		c-1,0.1-2.2-0.8-2.1-1.9c0.1-0.9,0.6-1.4,1.4-1.7c0.4-0.2,0.8-0.2,1.3-0.2c0.2,0.1,0.5,0.1,0.7,0.3C23,11.7,22.9,11.6,22.9,11.6z
		 M21.5,14.7c0,0.1,0.1,0,0.1,0c0.2,0.1,0.3,0,0.5,0c0.3,0,0.5-0.1,0.7-0.3c0.1-0.1,0.2-0.2,0.2-0.4c0-0.4,0-0.9,0-1.3
		c0-0.4-0.2-0.6-0.5-0.7C22.3,12,22.2,12,22,12c-0.1-0.1-0.2,0-0.3,0c-0.1,0-0.1,0-0.2,0c-0.9,0.2-1.3,1.4-0.8,2.2
		C20.9,14.4,21.1,14.7,21.5,14.7L21.5,14.7z"/>
	<path class="st0" d="M10.3,10c-0.5,0.1-0.9,0.4-1.2,0.8C9,10.9,9,11,8.9,11.2c0-0.4,0-0.7,0-1c0-0.1,0-0.1,0.1-0.1
		c0.7-0.4,1.4-0.6,2.2-0.4c0.1,0,0.2,0.1,0.3,0.1c0.1,0,0.1,0,0.2,0.1c0.7,0.2,1.1,0.7,1.1,1.5c0,1.3,0,2.5,0,3.8
		c0,0.1,0,0.2-0.1,0.1c-0.2,0-0.4,0-0.5,0c-0.1,0-0.2,0-0.2-0.2c-0.3,0.2-0.6,0.3-0.9,0.4c-0.3,0.1-0.7,0.1-1,0
		c-0.7-0.2-1.2-0.6-1.4-1.4c-0.2-0.7,0.1-1.3,0.7-1.8c0.8-0.6,1.6-0.8,2.5-0.4c0.2,0.1,0.2,0,0.2-0.1c0-0.2,0-0.3,0-0.5
		c0-0.6-0.4-1-1.1-1.1C10.6,10,10.4,10,10.3,10z M10.5,14.8c0.1,0.1,0.3,0,0.4,0c0.3,0,0.6-0.2,0.8-0.4c0.1-0.1,0.1-0.1,0.1-0.2
		c0-0.5,0-1.1,0-1.6c0-0.1,0-0.2-0.1-0.2c-0.2-0.2-0.5-0.3-0.9-0.4c-0.1,0-0.2,0-0.3,0c-0.6,0-0.9,0.4-1.1,0.9
		C9.1,13.7,9.6,14.7,10.5,14.8z"/>
	<path class="st0" d="M27.5,15.4c-0.9,0.1-1.6-0.2-2.2-0.8c-0.3-0.3-0.5-0.7-0.6-1.1c-0.2-0.5-0.2-1.1-0.1-1.6
		c0.3-1,0.8-1.7,1.8-2.1c0.4-0.1,0.8-0.1,1.1-0.1c0.2,0.1,0.5,0.1,0.7,0.2c0,0,0.1,0.1,0.1,0l0,0c0,0.1,0,0.1,0.1,0.1
		c0.7,0.5,1,1.2,1.1,2c0,0.1-0.1,0.2-0.2,0.2c-1.1,0-2.3,0-3.4,0c-0.1,0-0.1,0-0.2,0c-0.1,0-0.2,0-0.2,0c-0.2,0-0.2,0-0.2,0.2
		c0,0.3,0,0.6,0.1,1c0.2,0.8,0.6,1.3,1.4,1.5c0.1,0,0.3,0.1,0.5,0c1,0,1.6-0.5,2.1-1.3c0-0.1,0-0.2,0.2-0.1c0.1,0.1,0,0.1,0,0.2
		c-0.2,0.6-0.6,1-1.1,1.4c0,0,0,0,0,0c-0.1,0.1-0.2,0.1-0.4,0.2C27.9,15.3,27.7,15.3,27.5,15.4z M27,10c-0.1,0-0.2,0-0.2,0.1
		c-0.7,0.3-1.1,0.9-1.3,1.6c0.1,0.1,0.3,0,0.5,0c0.9,0,1.7,0,2.6,0c0,0,0.1,0,0.1,0c0-0.3,0-0.6-0.2-0.8c-0.2-0.5-0.6-0.8-1.2-0.8
		C27.2,10,27.1,10,27,10z"/>
	<path class="st0" d="M37.3,15.3c-0.3,0-0.7,0.1-1,0c-1-0.4-1.7-1-2-2.1c-0.3-1.4,0.3-2.8,1.5-3.3c0.6-0.3,1.1-0.3,1.7-0.2
		c0,0,0.1,0,0.1,0c0,0,0,0,0,0c0,0,0,0,0,0c1.1,0.4,1.8,1.3,1.8,2.5c0.1,1.1-0.4,2.1-1.3,2.7c-0.1,0.1-0.3,0.2-0.5,0.3c0,0,0,0,0,0
		c0,0-0.1,0-0.1,0l0,0c-0.1,0-0.1,0-0.2,0C37.4,15.3,37.4,15.3,37.3,15.3z M36.8,10c-0.4,0-0.6,0.2-0.9,0.4
		c-0.6,0.6-0.8,1.3-0.8,2.1c0,0.7,0.2,1.4,0.8,2c0.2,0.2,0.5,0.4,0.9,0.4c0.1,0,0.2,0,0.3,0c0.4,0,0.8-0.2,1-0.5
		c0.8-0.9,0.9-2.4,0.3-3.5c-0.3-0.5-0.6-0.8-1.2-0.9C37.1,10,36.9,10,36.8,10z"/>
	<path class="st0" d="M15.1,10.1c-0.2,0-0.2,0-0.2,0.2c0,1.6,0,3.1,0,4.7c0,0.2,0,0.2-0.2,0.2c-0.2,0-0.3,0-0.5,0
		c-0.2,0-0.2,0-0.2-0.2c0-1,0-2,0-3.1c0-0.5,0-1,0-1.5c0-0.3,0-0.3-0.3-0.3c-0.2,0-0.2,0-0.2-0.2c0-0.2,0.1-0.2,0.3-0.2
		c0.2,0,0.2,0,0.2-0.2c0-0.4,0-0.8,0.1-1.2c0.3-1.1,1-1.6,2.2-1.5c0.1,0,0.1,0,0.2,0c0,0,0,0,0,0l0,0c0,0,0.1,0,0.1,0l0,0
		c0.3,0.1,0.3,0.3,0.3,0.5c0,0.2,0,0.4,0,0.6c-0.2-0.4-0.4-0.8-0.9-0.8c0,0-0.1,0-0.1,0c-0.2,0-0.4,0.1-0.5,0.2
		C15.1,7.6,15,7.8,15,8.1c-0.1,0.5,0,0.9-0.1,1.4c0,0.2,0.1,0.3,0.2,0.2c0.1,0,0.2,0,0.3,0c0.1,0,0.2,0,0.3,0c0.2,0,0.3,0.1,0.2,0.3
		c0,0.1-0.1,0.1-0.1,0.1c-0.1,0-0.3,0-0.4,0C15.3,10.1,15.2,10.1,15.1,10.1z"/>
	<path class="st0" d="M18.7,9.7c0.1,0,0.2,0,0.4,0c0.2,0,0.2,0,0.2,0.2c0,0.2,0,0.2-0.2,0.2c-0.1,0-0.2,0-0.4,0c-0.1,0-0.2,0-0.2,0
		c-0.2,0-0.2,0-0.2,0.2c0,1.5,0,3.1,0,4.6c0,0.2-0.1,0.2-0.2,0.2c-0.2,0-0.3,0-0.5,0c-0.2,0-0.2-0.1-0.2-0.2c0-1.5,0-3.1,0-4.6
		c0-0.2,0-0.3-0.2-0.2c-0.1,0-0.3,0-0.3-0.2c0-0.2,0.1-0.2,0.2-0.2c0.3,0,0.3,0,0.3-0.3c0-0.5,0-0.9,0.2-1.4
		c0.1-0.3,0.3-0.6,0.6-0.9c0.2-0.2,0.5-0.3,0.8-0.3c0.3,0,0.5,0,0.8,0c0,0,0.1,0,0.1,0c0,0,0.1,0,0.2,0l0,0c0.3,0.1,0.3,0.3,0.3,0.6
		c0,0.2,0,0.4,0,0.6c-0.2-0.3-0.4-0.8-0.9-0.8c0-0.1-0.1-0.1-0.1-0.1c-0.3,0-0.5,0.1-0.6,0.3c-0.2,0.2-0.2,0.4-0.3,0.7
		c-0.1,0.4,0,0.9,0,1.3c0,0.2,0.1,0.2,0.2,0.2C18.5,9.7,18.6,9.7,18.7,9.7z"/>
	<path class="st0" d="M31.3,6.7c0.1,0.1,0,0.1,0,0.2c0,2.7,0,5.3,0,8c0,0.2-0.1,0.2-0.2,0.2c-0.2,0-0.5,0.1-0.6,0
		c-0.1-0.1,0-0.4,0-0.6c0-2.3,0-4.6,0-7c0-0.2,0-0.3,0.2-0.4C30.9,7,31.1,6.9,31.3,6.7z"/>
	<path class="st0" d="M33.3,6.7c0.1,0.1,0,0.2,0,0.2c0,2.5,0,5,0,7.6c0,0.2,0,0.3,0,0.5c0,0.1,0,0.2-0.1,0.1c-0.2,0-0.4,0-0.6,0
		c-0.1,0-0.1,0-0.1-0.1c0-0.1,0-0.1,0-0.2c0-2.4,0-4.9,0-7.3c0-0.2,0.1-0.3,0.2-0.4C32.9,7,33.1,6.9,33.3,6.7z"/>
	<path class="st1" d="M31.8,10.9c0,1.3,0,2.7,0,4c0,0.1,0.1,0.2-0.1,0.2c-0.1,0-0.1,0-0.1-0.1c0,0,0-0.1,0-0.1c0-2.6,0-5.2,0-7.8
		c0-0.1,0-0.2,0.1-0.3c0.1,0,0.1,0,0.1,0.1c0,0,0,0.1,0,0.1C31.8,8.3,31.8,9.6,31.8,10.9C31.8,10.9,31.8,10.9,31.8,10.9z"/>
	<path class="st1" d="M33.8,10.9c0,1.3,0,2.7,0,4c0,0.1,0.1,0.2-0.1,0.2c-0.1,0-0.1,0-0.1-0.1c0,0,0-0.1,0-0.1c0-2.6,0-5.2,0-7.8
		c0,0,0-0.1,0-0.1c0-0.1,0.1-0.2,0.2-0.2c0.1,0,0.1,0.1,0.1,0.2C33.8,8.3,33.8,9.6,33.8,10.9C33.8,10.9,33.8,10.9,33.8,10.9z"/>
	<path class="st1" d="M5.8,7C5.8,7,5.8,7,5.8,7C5.7,7,5.7,7,5.8,7L5.8,7c0.8,0,1.4,0.4,2,1C8.1,8.5,8.3,9,8.5,9.4
		c0.1,0.3,0.1,0.6,0.1,0.8c0,0.2,0,0.4-0.1,0.7C8.3,11.3,8.2,11.7,8,12c-0.3,0.6-0.8,1.1-1.4,1.4c-0.2,0.1-0.4,0.2-0.7,0.2
		c0.1-0.1,0.3-0.2,0.4-0.2c1.2-0.6,1.8-1.5,2-2.8c0.2-1.1-0.2-2.1-0.9-2.9C6.9,7.4,6.4,7.1,5.8,7z"/>
	<path class="st1" d="M37.3,15.3c0,0,0.1,0,0.1,0c0.1,0,0.1,0,0.2,0c0,0,0,0,0,0c0,0,0.1,0,0.1,0c0,0,0,0,0,0c0.1,0,0.2,0,0.3-0.1
		c1.1-0.5,1.6-1.4,1.7-2.6c0-1-0.3-1.8-1.1-2.4c-0.3-0.2-0.6-0.4-1-0.5c0,0,0,0,0,0c0,0,0,0-0.1-0.1c0,0,0,0,0.1,0
		c0.2,0.1,0.5,0.1,0.7,0.2c0.5,0.3,1,0.7,1.3,1.2c0.2,0.3,0.3,0.7,0.3,1.1c0.1,0.4,0,0.8-0.1,1.2c0,0.2-0.2,0.5-0.3,0.7
		c-0.1,0.2-0.3,0.5-0.5,0.7c-0.2,0.2-0.5,0.4-0.8,0.5C38,15.3,37.7,15.4,37.3,15.3z"/>
	<path class="st1" d="M15.1,10.1c0.1,0,0.2,0,0.2,0c0,1.6,0,3.1,0,4.7c0,0.1,0,0.2,0,0.3c0,0.1-0.1,0.1-0.1,0.1
		c-0.1,0-0.1,0-0.1-0.1C15.1,13.4,15.1,11.7,15.1,10.1z"/>
	<path class="st1" d="M18.5,10.1c0.1,0,0.2,0,0.2,0c0,1.6,0,3.2,0,4.8c0,0.1,0,0.1,0,0.2c0,0.1-0.1,0.1-0.1,0.1
		c-0.1,0-0.1,0-0.1-0.1c0-0.1,0-0.1,0-0.2C18.5,13.3,18.5,11.7,18.5,10.1z"/>
	<path class="st1" d="M11.5,9.6c0.3,0,0.5,0.1,0.8,0.2c0.3,0.2,0.5,0.5,0.7,0.8c0.1,0.2,0.1,0.3,0.1,0.5c0,1.3,0,2.5,0,3.8
		c0,0.1,0.1,0.2-0.1,0.2c-0.2,0-0.1-0.1-0.1-0.2c0-1.2,0-2.5,0-3.7c0-0.4-0.1-0.8-0.4-1.1c-0.2-0.2-0.5-0.4-0.8-0.5
		C11.6,9.7,11.6,9.7,11.5,9.6z"/>
	<path class="st1" d="M22.8,9.7c0.6,0,1.2,0.5,1.3,1c0,0.2,0.1,0.3,0.1,0.5c0,1.3,0,2.5,0,3.8c0,0,0,0.1,0,0.1
		c0,0.1-0.1,0.1-0.1,0.1c-0.1,0-0.1,0-0.1-0.1c0-0.1,0-0.1,0-0.2c0-1.2,0-2.4,0-3.6c0-0.7-0.3-1.3-1.1-1.5
		C22.9,9.7,22.9,9.7,22.8,9.7z"/>
	<path class="st1" d="M5.2,13.7c0.1-0.1,0.2-0.1,0.3-0.1c0.1,0.1,0.2,0,0.2,0c0,0.1-0.1,0.1-0.1,0.1c0,0-0.1,0-0.1,0.1
		c0.2,0.2,0.4,0.4,0.7,0.6c0.1,0.1,0.2,0.2,0.3,0.3c0.6,0.4,1.3,0.7,2,0.9c0.6,0.2,1.2,0.4,1.9,0.5c0.2,0,0.4,0,0.6,0.1
		c-0.7,0-1.3-0.1-1.9-0.3c0-0.1-0.1,0-0.1,0c0,0,0,0,0,0c-0.5-0.2-1-0.3-1.4-0.5c-0.8-0.4-1.5-0.8-2.2-1.4
		C5.3,13.9,5.2,13.8,5.2,13.7z"/>
	<path class="st1" d="M27.4,14.8c-0.2,0-0.3,0-0.5,0c0,0,0,0-0.1-0.1c-0.6-0.2-0.9-0.6-1.1-1.2c-0.1-0.4-0.2-0.9-0.2-1.4
		c0.1,0,0.2,0,0.2,0c0,0.4,0,0.9,0.1,1.3C26.2,14.1,26.6,14.6,27.4,14.8C27.3,14.8,27.4,14.8,27.4,14.8z"/>
	<path class="st1" d="M28.3,9.8c-0.2-0.1-0.5-0.1-0.7-0.2c0.3-0.1,0.7,0,0.9,0.1c1,0.4,1.4,1.2,1.5,2.2c0,0.1,0,0.2-0.1,0.2
		c-0.1,0-0.1-0.1-0.1-0.2c0-0.8-0.3-1.5-1.1-2c-0.1-0.1-0.2-0.1-0.3-0.1c0,0,0,0,0,0C28.4,9.8,28.4,9.8,28.3,9.8z"/>
	<path class="st1" d="M18.7,9.7c-0.1,0-0.2,0-0.3,0c0-0.5,0-1,0-1.5c0.1-0.4,0.2-0.8,0.7-1c0.1,0,0.1,0,0.1,0.1
		c-0.3,0.1-0.4,0.4-0.5,0.7C18.6,8.5,18.7,9.1,18.7,9.7z"/>
	<path class="st1" d="M15.4,9.7c-0.1,0-0.2,0-0.3,0c0-0.3,0-0.5,0-0.8c0-0.3,0-0.6,0.1-0.9c0.1-0.3,0.3-0.6,0.7-0.7c0,0,0.1,0,0.1,0
		c-0.6,0.3-0.6,0.9-0.6,1.4C15.4,9,15.4,9.4,15.4,9.7z"/>
	<path class="st1" d="M27.5,15.4c0.2,0,0.4-0.1,0.6-0.1c0.1,0,0.3,0,0.4-0.2c0,0,0,0,0,0c0.1,0.1,0.2,0,0.2,0c0.4-0.3,0.7-0.6,0.9-1
		c0.1-0.2,0.2-0.3,0.3-0.5c0,0,0-0.1,0.1-0.1c0.1,0,0.1,0.1,0,0.2c-0.1,0.3-0.2,0.5-0.4,0.7c-0.4,0.6-1,0.9-1.7,1.1
		C27.8,15.4,27.7,15.4,27.5,15.4z"/>
	<path class="st1" d="M2.6,13.6c0.1,0,0.2,0.1,0.2,0.1c0,0.4,0,0.8,0,1.3c0,0.1,0,0.2-0.1,0.2c-0.1,0-0.1-0.1-0.1-0.2
		C2.6,14.5,2.6,14,2.6,13.6z"/>
	<path class="st1" d="M19.8,6.9C19.8,6.9,19.8,6.9,19.8,6.9c0.2-0.1,0.5,0,0.8,0.2c0,0,0,0,0,0.1c0,0.3,0,0.6,0,1
		c-0.2-0.2-0.2-0.4-0.2-0.7C20.4,7,20.4,7,20,6.9c0,0,0,0,0,0C19.9,6.9,19.9,6.9,19.8,6.9z"/>
	<path class="st1" d="M21.2,10.1c0.2-0.1,0.5-0.1,0.7,0c-0.6,0-1,0.4-1.3,0.9c0,0.1,0,0.1-0.1,0.2c0-0.2,0-0.4,0.1-0.5
		C20.8,10.4,21,10.2,21.2,10.1C21.2,10.1,21.3,10.1,21.2,10.1z"/>
	<path class="st1" d="M16.5,6.9L16.5,6.9C16.5,6.9,16.5,6.9,16.5,6.9c0.2-0.1,0.7,0,0.8,0.2c0,0,0,0.1,0,0.2c0,0.2,0,0.5,0,0.7
		c0,0,0,0.1,0,0.1c-0.1-0.1-0.2-0.2-0.2-0.4c0-0.1,0-0.2,0-0.2c0-0.4-0.1-0.5-0.5-0.5c0,0,0,0,0,0C16.6,6.9,16.5,6.9,16.5,6.9z"/>
	<path class="st1" d="M10.3,10c0.1-0.1,0.3,0,0.4,0c-0.6,0.1-1.1,0.5-1.4,1.1c-0.1-0.4,0.2-0.6,0.4-0.7C9.9,10.2,10.1,10.1,10.3,10z
		"/>
	<path class="st1" d="M22.9,11.6c0,0.1,0,0.1,0,0.2c-0.2-0.1-0.5-0.2-0.7-0.3c0.2-0.1,0.3,0,0.5,0C22.8,11.5,22.9,11.6,22.9,11.6z"
		/>
	<path class="st1" d="M16.3,9.7c-0.1,0.1,0.1,0.3-0.1,0.4c-0.1,0-0.1,0-0.1-0.1C16.1,9.8,16.1,9.6,16.3,9.7z"/>
	<path class="st1" d="M19.7,9.9c0,0.1,0,0.2-0.1,0.2c-0.1,0-0.1-0.1-0.1-0.2c0-0.1,0-0.2,0.1-0.2C19.7,9.7,19.6,9.8,19.7,9.9z"/>
	<path class="st1" d="M22.4,9.6c-0.1,0-0.2,0-0.3,0c0.1,0,0.3,0,0.4,0C22.5,9.6,22.4,9.6,22.4,9.6z"/>
	<path class="st1" d="M11.4,9.7c-0.1,0-0.2,0-0.3-0.1C11.2,9.6,11.3,9.5,11.4,9.7z"/>
	<path class="st1" d="M5.6,7c0.1-0.1,0.1-0.1,0.2,0c0,0,0,0,0,0C5.7,7,5.6,7,5.6,7L5.6,7z"/>
	<path class="st1" d="M22.7,9.6c0,0-0.1,0-0.1,0C22.6,9.6,22.7,9.6,22.7,9.6C22.7,9.6,22.7,9.6,22.7,9.6z"/>
	<path class="st1" d="M4.2,7.3c-0.3,0.1-0.6,0.1-1,0.3C2.9,7.7,2.9,7.7,2.9,8.1c0,1.3,0,2.7,0,4c0,0.2,0.1,0.3,0.2,0.4
		c0.5,0.4,1.1,0.6,1.7,0.7c0,0,0.1,0,0.1,0c-0.3,0-0.6,0-0.9-0.1C3.9,13,3.8,13,3.8,13c-0.4-0.1-0.7-0.3-1-0.6
		c-0.1-0.1-0.1-0.2-0.1-0.3c0-1.4,0-2.8,0-4.3c0-0.1,0-0.2,0.2-0.3C3,7.5,3.3,7.5,3.5,7.4C3.8,7.3,4,7.3,4.2,7.3z"/>
	<path class="st1" d="M22,12c-0.5,0.1-0.8,0.4-1,0.9c-0.3,0.7,0,1.5,0.7,1.8c0.1,0.1,0.2,0.1,0.4,0.1c-0.2,0-0.3,0.1-0.5,0
		c0-0.1-0.1,0-0.1,0c0,0,0,0,0,0c0-0.1-0.1-0.1-0.1-0.1c-0.6-0.3-0.8-1.1-0.6-1.7c0.2-0.5,0.5-0.8,0.9-1C21.8,11.9,21.9,11.9,22,12z
		"/>
	<path class="st1" d="M10.8,12c-0.6,0.2-1,0.7-1,1.4c0,0.6,0.4,1.3,1.1,1.4c-0.1,0-0.3,0.1-0.4,0c0,0-0.1,0-0.1-0.1
		c-0.6-0.2-0.9-0.7-0.9-1.3c0-0.7,0.3-1.2,1-1.5C10.6,11.9,10.7,11.9,10.8,12z"/>
	<path class="st1" d="M27.3,10c-0.6,0.2-1.1,0.7-1.3,1.4c0,0.1-0.1,0.2-0.1,0.3c-0.2,0-0.3,0-0.5,0c0.1,0,0.2,0,0.2-0.2
		c0.1-0.4,0.3-0.7,0.6-1.1c0.2-0.2,0.4-0.3,0.6-0.4C27.1,10,27.2,10,27.3,10z"/>
	<path class="st1" d="M28.6,11.7C28.6,11.7,28.6,11.7,28.6,11.7C28.6,11.7,28.6,11.7,28.6,11.7z"/>
	<path class="st1" d="M37.2,10c-0.6,0-1,0.5-1.3,1c-0.6,1-0.5,2.5,0.3,3.4c0.2,0.3,0.5,0.5,0.9,0.6c-0.1,0-0.2,0-0.3,0
		c-0.3-0.1-0.6-0.3-0.9-0.6c-0.5-0.7-0.7-1.4-0.6-2.2c0.1-1,0.5-1.7,1.5-2.1C36.9,10,37.1,10,37.2,10z"/>
	<path class="st0" d="M27,4c-0.1,0.2,0,0.4-0.2,0.4c-0.2,0-0.3-0.2-0.2-0.3c0-0.1,0.2-0.3,0.3-0.2C26.9,3.9,27,3.9,27,4z"/>
	<path class="st0" d="M22.7,3.2C22.8,3.1,22.9,3,23,2.9c0.1,0,0.2,0,0.3,0.1c0,0.1,0.1,0.1,0,0.2c0,0-0.1,0-0.2,0
		C23,3.2,22.9,3.2,22.7,3.2z"/>
	<path class="st0" d="M19.4,3.1C19.4,3.1,19.4,3.1,19.4,3.1c-0.1,0-0.2,0-0.3,0c0,0,0-0.1,0.1-0.1c0.1-0.1,0.2-0.2,0.3-0.1
		c0,0,0,0,0,0c0.1,0,0.2,0.1,0.2,0.2c0,0.1-0.1,0-0.2,0.1C19.5,3.1,19.4,3.1,19.4,3.1z"/>
	<path class="st0" d="M14.8,3.6c0-0.1,0-0.2,0.1-0.3c0.1-0.2,0.3-0.2,0.5,0c0.2,0.2,0.2,0.4,0.1,0.7c-0.1,0.1-0.1,0.2-0.3,0.2
		c-0.1,0-0.2-0.1-0.3-0.2C14.8,3.8,14.8,3.7,14.8,3.6z"/>
</g>
</svg>
