<svg xmlns="http://www.w3.org/2000/svg" width="99.388" height="46.367" viewBox="0 0 99.388 46.367"><defs><style>.a{fill:#bbb;}</style></defs><path class="a" d="M34.178,1H56.846c.515,0,.515,0,.515.515L56.589,7.7l-.773,5.409c0,.515,0,.515-.773.515a79,79,0,0,0-10.819-1.8c-3.864-.258-7.47-.515-11.334-.515a85.232,85.232,0,0,0-19.835,2.318c-.515,0-.515,0-.515-.258-.258-2.318-.515-4.637-.773-6.7a38.159,38.159,0,0,1-.773-4.894C10.737,1,10.737,1,11.509,1ZM19.495,8.728c-1.546,1.03-2.576,1.288-3.606.258a2.021,2.021,0,0,1,0-2.834q1.159-1.546,3.091,0c-.258-1.03-.515-1.288-1.546-1.03h-.515A2.8,2.8,0,0,0,14.6,8.213a2.576,2.576,0,0,0,3.349,2.061C18.722,9.758,19.237,9.5,19.495,8.728ZM50.922,7.7a1.133,1.133,0,0,1,1.288-.258c.258,0,.515.258.258.515,0,.258-.258,0-.515,0-.515,0-1.03,0-1.288.515-.258.258-.258.515,0,1.03a1.417,1.417,0,0,0,1.288.773h.773c.258,0,.258,0,.258-.258A3.267,3.267,0,0,1,53.24,8.47c.258-1.03-.515-1.546-1.546-1.546C51.179,7.182,50.922,7.182,50.922,7.7Zm-7.213,0c-.258,0-.258.258-.515.258a1.93,1.93,0,0,1-1.288.258c-.515-.258-.515-.515-.515-1.03,0-.258,0-.515.258-.258h1.546c.515,0,.773-.258.515-.773,0-.258-.258-.515-.515-.773a1.214,1.214,0,0,0-1.546.258c-.515.515-.773,1.03-.515,1.546a1.158,1.158,0,0,0,1.03,1.546C42.936,8.985,43.451,8.47,43.709,7.7ZM34.435,7.44c-.258,0-.258.258-.515.515a1.133,1.133,0,0,1-1.288.258c-.515-.258-.515-.515-.773-1.03,0-.258,0-.515.258-.258h1.546c.258,0,.258,0,.258-.258a1.108,1.108,0,0,0-1.03-1.03,1.08,1.08,0,0,0-1.546.773,2.2,2.2,0,0,0,0,1.8,1.239,1.239,0,0,0,1.546.515A2.034,2.034,0,0,0,34.435,7.44ZM20.525,7.7a1.662,1.662,0,0,0,1.546,1.546A1.662,1.662,0,0,0,23.616,7.7a1.662,1.662,0,0,0-1.546-1.546A1.366,1.366,0,0,0,20.525,7.7Zm6.7,1.03c-.258-.773,0-1.288-.258-2.061s-.515-1.03-1.288-.773c-.258,0-.515.258-.773,0-.258,0-.515,0-.258.515A7.131,7.131,0,0,1,24.9,8.728v.258h.515c.258,0,0-.258,0-.258a4.384,4.384,0,0,0-.258-1.8.515.515,0,0,1,1.03,0V8.47A1.549,1.549,0,0,0,27.223,8.728Zm3.349-3.864c0-.773,0-.773-.515-.773s-.773.258-1.03.773a1.549,1.549,0,0,1-.258,1.03v.258c.258,0,.258.515.258.515v1.8c0,.515.258.258.258.258.258,0,.258,0,.258-.258a5.672,5.672,0,0,0-.258-2.061c0-.258,0-.515.258-.515a.252.252,0,0,0,.258-.258c0-.258,0-.258-.258-.258h-.258c0-.258-.258-.773.258-1.03S30.314,4.349,30.571,4.864Zm9.273,3.349c-.515.258-.773,0-.773-.515V6.152c0-.258,0-.515.515-.515a.252.252,0,0,0,.258-.258c0-.258,0-.258-.258-.258s-.258-.258-.258-.515V4.091c0-.258.258-.258,0-.515-.258,0-.515,0-.515.515,0,.258.258.773-.258,1.03v.258a1.15,1.15,0,0,1,0,1.288V7.7C39.072,8.728,39.33,8.728,39.845,8.213ZM36.5,4.091c-.258,0-.515.258-.515.773a.946.946,0,0,1-.258.773v.258a.252.252,0,0,1,.258.258V7.7c0,.258.258.515.515.773a.946.946,0,0,0,.773-.258A.683.683,0,0,1,36.5,7.44V6.152c0-.258,0-.515.515-.515a.252.252,0,0,0,.258-.258V5.122c-.515,0-.515-.258-.515-.515C36.5,4.606,36.5,4.349,36.5,4.091ZM45.77,9.243a7.131,7.131,0,0,1,.258-2.318c0-.258.258-.515.773-.515.258,0,.258.515.515.515,0-.515,0-.773-.773-.773-.515,0-.773-.258-1.288,0A8.763,8.763,0,0,1,45,8.728c0,.515,0,.515.258.515Zm3.349.258c0-1.03.258-2.061.258-3.091-.515.258-1.03.258-.515.773V7.44A2.322,2.322,0,0,1,48.6,8.728C48.346,9.5,48.346,9.5,49.118,9.5Zm.258-3.864c0-.258-.258-.258-.258-.515-.258,0-.258,0-.258.258s0,.258.258.258C49.376,5.894,49.376,5.894,49.376,5.637Z" transform="translate(13.584 -1)"/><path class="a" d="M4.556,24.474c-.258,0-.258-.258-.515-.258V28.08c0,.258-.258.258-.515.258h-1.8c-.258,0-.515,0-.258-.515V7.215c0-.258,0-.515.258-.515h7.47c1.03,0,1.8.258,2.834.258h0c.258.515.515.515.515.515H12.8V7.73a6.421,6.421,0,0,1,4.894,4.637A9.058,9.058,0,0,1,13.83,23.7a7.712,7.712,0,0,1-2.061,1.03.946.946,0,0,0-.773.258c-.258,0-.515,0-.515.258a.252.252,0,0,0,.258.258.9.9,0,0,0,.515.258,32.119,32.119,0,0,0,7.213,3.864,7.559,7.559,0,0,0,2.576.773h0c0,.258.258,0,.258,0a16.175,16.175,0,0,0,4.894.773H29.8a.252.252,0,0,1-.258.258,5.1,5.1,0,0,1-2.834.515,56.027,56.027,0,0,1-6.44-.258A27.754,27.754,0,0,1,9.451,27.565a38.779,38.779,0,0,0-4.379-2.576C5.072,24.474,4.814,24.474,4.556,24.474ZM6.875,8.5A4.97,4.97,0,0,0,4.3,9.276a.9.9,0,0,0-.258.515V20.868a.946.946,0,0,0,.258.773,10.909,10.909,0,0,0,3.606,1.546,7.132,7.132,0,0,0,2.318.258,4.892,4.892,0,0,0,3.864-2.061,8.177,8.177,0,0,0,1.03-9.273,6.822,6.822,0,0,0-6.44-3.864A5.029,5.029,0,0,0,6.875,8.5Z" transform="translate(-1.359 7.983)"/><path class="a" d="M82.336,17.615l-3.091.773a40.021,40.021,0,0,1-5.925,1.288l-4.637.773c-2.061.258-4.379.515-6.44.773-1.8.258-3.864.258-5.667.515a38.044,38.044,0,0,1-5.41.258H38.545c-2.318,0-4.894-.258-7.213-.258a50.022,50.022,0,0,1-6.182-.515,31.561,31.561,0,0,0-4.894-.515,10.955,10.955,0,0,1-2.834-.515,20.536,20.536,0,0,1-3.864-.773,32.038,32.038,0,0,1-4.122-1.03c-1.03-.258-2.318-.515-3.349-.773A1.968,1.968,0,0,1,4.8,17.1,201.4,201.4,0,0,0,82.336,17.615Z" transform="translate(4.065 24.373)"/><path class="a" d="M28.11,14.95v-1.8a3.023,3.023,0,0,0-2.576-2.318,2.2,2.2,0,0,0-1.8,0A7.573,7.573,0,0,0,20.64,13.4V10.829a.252.252,0,0,1,.258-.258,8.872,8.872,0,0,1,5.152-1.03h.773c.515.258.773.258,1.288.515A3.325,3.325,0,0,1,30.428,13.4V23.451c0,.258,0,.258-.258.258H28.625c-.258,0-.258-.258-.258-.515-1.03.773-2.061.773-3.349,1.03-2.576.258-5.667-2.061-5.41-4.894a4.963,4.963,0,0,1,3.606-4.379,7.07,7.07,0,0,1,3.349-.515c.515.258,1.288.258,1.8.773ZM24.5,22.936c0,.258.258,0,.258,0,.515.258.773,0,1.288,0a2.339,2.339,0,0,0,1.8-.773,1.338,1.338,0,0,0,.515-1.03V17.784a1.716,1.716,0,0,0-1.288-1.8H25.792c-.258-.258-.515,0-.773,0H24.5c-2.318.515-3.349,3.606-2.061,5.667.515.515,1.03,1.288,2.061,1.288Z" transform="translate(27.38 12.355)"/><path class="a" d="M12.919,10.6a5.128,5.128,0,0,0-3.091,2.061c-.258.258-.258.515-.515,1.03V11.112c0-.258,0-.258.258-.258a7.353,7.353,0,0,1,5.667-1.03c.258,0,.515.258.773.258s.258,0,.515.258A3.674,3.674,0,0,1,19.359,14.2v9.789c0,.258,0,.515-.258.258H17.813c-.258,0-.515,0-.515-.515a9.15,9.15,0,0,1-2.318,1.03,4.39,4.39,0,0,1-2.576,0A4.7,4.7,0,0,1,8.8,21.158c-.515-1.8.258-3.349,1.8-4.637,2.061-1.546,4.122-2.061,6.44-1.03.515.258.515,0,.515-.258V13.945c0-1.546-1.03-2.576-2.834-2.834A3.691,3.691,0,0,0,12.919,10.6Zm.515,12.365c.258.258.773,0,1.03,0a3.18,3.18,0,0,0,2.061-1.03c.258-.258.258-.258.258-.515V17.294c0-.258,0-.515-.258-.515a4.854,4.854,0,0,0-2.318-1.03h-.773c-1.546,0-2.318,1.03-2.834,2.318A3.65,3.65,0,0,0,13.434,22.961Z" transform="translate(10.114 12.587)"/><path class="a" d="M32.174,24.383a6.554,6.554,0,0,1-5.667-2.061,6.14,6.14,0,0,1-1.546-2.834A7.526,7.526,0,0,1,29.34,9.958,11.552,11.552,0,0,1,32.174,9.7c.515.258,1.288.258,1.8.515,0,0,.258.258.258,0h0c0,.258,0,.258.258.258a7,7,0,0,1,2.834,5.152.554.554,0,0,1-.515.515H27.022c-.515,0-.515,0-.515.515a9.663,9.663,0,0,0,.258,2.576,4.672,4.672,0,0,0,3.606,3.864c.258,0,.773.258,1.288,0,2.576,0,4.122-1.288,5.41-3.349,0-.258,0-.515.515-.258.258.258,0,.258,0,.515A7.745,7.745,0,0,1,34.75,23.61h0c-.258.258-.515.258-1.03.515A3.267,3.267,0,0,0,32.174,24.383Zm-1.288-13.91c-.258,0-.515,0-.515.258a6.009,6.009,0,0,0-3.349,4.122c.258.258.773,0,1.288,0h6.955a2.775,2.775,0,0,0-.515-2.061,3.106,3.106,0,0,0-3.091-2.061A.946.946,0,0,0,30.886,10.473Z" transform="translate(35.165 12.711)"/><path class="a" d="M42.148,24.22a8.635,8.635,0,0,1-2.576,0,7.774,7.774,0,0,1-5.152-5.41c-.773-3.606.773-7.213,3.864-8.5a6.522,6.522,0,0,1,4.379-.515h.258a6.648,6.648,0,0,1,4.637,6.44,7.437,7.437,0,0,1-3.349,6.955,5.631,5.631,0,0,1-1.288.773h-.773C42.406,24.22,42.406,24.22,42.148,24.22ZM40.86,10.567a3.836,3.836,0,0,0-2.318,1.03,7.167,7.167,0,0,0-2.061,5.41,6.979,6.979,0,0,0,2.061,5.152,3.265,3.265,0,0,0,2.318,1.03h.773A3.17,3.17,0,0,0,44.209,21.9a8.184,8.184,0,0,0,.773-9.016,4.105,4.105,0,0,0-3.091-2.318Z" transform="translate(50.435 12.617)"/><path class="a" d="M17.622,15.32c-.515,0-.515,0-.515.515V27.943c0,.515,0,.515-.515.515H15.3c-.515,0-.515,0-.515-.515V16.093c0-.773,0-.773-.773-.773-.515,0-.515,0-.515-.515s.258-.515.773-.515.515,0,.515-.515a12.541,12.541,0,0,1,.258-3.091c.773-2.834,2.576-4.122,5.667-3.864h.773c.773.258.773.773.773,1.288V9.653c-.515-1.03-1.03-2.061-2.318-2.061h-.258a1.968,1.968,0,0,0-1.288.515,2.66,2.66,0,0,0-1.03,2.061c-.258,1.288,0,2.318-.258,3.606,0,.515.258.773.515.515h1.546c.515,0,.773.258.515.773a.252.252,0,0,1-.258.258h-1.8Z" transform="translate(17.776 8.121)"/><path class="a" d="M21.537,14.27h1.03c.515,0,.515,0,.515.515s0,.515-.515.515H21.022c-.515,0-.515,0-.515.515V27.665c0,.515-.258.515-.515.515H18.7c-.515,0-.515-.258-.515-.515V15.816c0-.515,0-.773-.515-.515-.258,0-.773,0-.773-.515s.258-.515.515-.515c.773,0,.773,0,.773-.773A8.767,8.767,0,0,1,18.7,9.891a6.083,6.083,0,0,1,1.546-2.318A2.925,2.925,0,0,1,22.309,6.8h2.834c.773.258.773.773.773,1.546V9.891C25.4,9.118,24.885,7.83,23.6,7.83a.252.252,0,0,0-.258-.258,1.558,1.558,0,0,0-1.546.773c-.515.515-.515,1.03-.773,1.8a14.559,14.559,0,0,0,0,3.349c0,.515.258.515.515.515C21.022,14.27,21.279,14.27,21.537,14.27Z" transform="translate(23.134 8.141)"/><path class="a" d="M32.631,6.7c.258.258,0,.258,0,.515V27.823c0,.515-.258.515-.515.515-.515,0-1.288.258-1.546,0s0-1.03,0-1.546V8.761c0-.515,0-.773.515-1.03A5.389,5.389,0,0,0,32.631,6.7Z" transform="translate(44.497 7.983)"/><path class="a" d="M34.561,6.7a.357.357,0,0,1,0,.515V28.08c0,.258,0,.515-.258.258H32.758c-.258,0-.258,0-.258-.258V8.761a1.338,1.338,0,0,1,.515-1.03A5.389,5.389,0,0,0,34.561,6.7Z" transform="translate(47.719 7.983)"/><path class="a" d="M32.115,17.361v10.3c0,.258.258.515-.258.515-.258,0-.258,0-.258-.258V7.573a.946.946,0,0,1,.258-.773c.258,0,.258,0,.258.258v10.3Z" transform="translate(46.3 8.141)"/><path class="a" d="M34.115,17.361v10.3c0,.258.258.515-.258.515-.258,0-.258,0-.258-.258V7.315a.554.554,0,0,1,.515-.515c.258,0,.258.258.258.515-.258,3.349-.258,6.7-.258,10.046Z" transform="translate(49.452 8.141)"/><path class="a" d="M5.918,7h0C7.979,7,9.525,8.03,11.07,9.576c.773,1.288,1.288,2.576,1.8,3.606a6.4,6.4,0,0,1,.258,2.061,5.029,5.029,0,0,1-.258,1.8,30.219,30.219,0,0,1-1.288,2.834,8.138,8.138,0,0,1-3.606,3.606,3.723,3.723,0,0,1-1.8.515,1.953,1.953,0,0,1,1.03-.515,8.919,8.919,0,0,0,5.152-7.213A8.8,8.8,0,0,0,10.04,8.8,11.835,11.835,0,0,0,5.918,7Z" transform="translate(5.523 8.456)"/><path class="a" d="M37.3,24.283h1.03a.946.946,0,0,0,.773-.258c2.834-1.288,4.122-3.606,4.379-6.7a7.126,7.126,0,0,0-2.834-6.182,8.058,8.058,0,0,0-2.576-1.288h0L37.815,9.6h.258c.515.258,1.288.258,1.8.515a9.646,9.646,0,0,1,3.349,3.091A5.193,5.193,0,0,1,44,16.04a6.342,6.342,0,0,1-.258,3.091,5.455,5.455,0,0,1-.773,1.8,7.828,7.828,0,0,1-1.288,1.8,5.609,5.609,0,0,1-2.061,1.288A3.231,3.231,0,0,1,37.3,24.283Z" transform="translate(55.283 12.553)"/><path class="a" d="M15.1,10.1h.515V22.98a.252.252,0,0,1-.258.258c-.258,0-.258,0-.258-.258C15.1,18.6,15.1,14.222,15.1,10.1Z" transform="translate(20.297 13.341)"/><path class="a" d="M18.5,10.1h.515V22.98a.252.252,0,0,1-.258.258c-.258,0-.258,0-.258-.258V10.1Z" transform="translate(25.655 13.341)"/><path class="a" d="M11.5,9.6a6.063,6.063,0,0,1,2.061.515,6.944,6.944,0,0,1,1.8,2.061,2.322,2.322,0,0,1,.258,1.288v9.789c0,.258.258.515-.258.515s-.258-.258-.258-.515V13.722a3.874,3.874,0,0,0-1.03-2.834A5.609,5.609,0,0,0,12.015,9.6C11.758,9.858,11.758,9.858,11.5,9.6Z" transform="translate(14.624 12.553)"/><path class="a" d="M22.8,9.7a3.628,3.628,0,0,1,3.349,2.576c0,.515.258.773.258,1.288V23.61a.252.252,0,0,1-.258.258c-.258,0-.258,0-.258-.258V13.822a3.61,3.61,0,0,0-2.834-3.864C23.058,9.7,23.058,9.7,22.8,9.7Z" transform="translate(32.432 12.711)"/><path class="a" d="M5.2,13.858a.946.946,0,0,1,.773-.258.357.357,0,0,0,.515,0,.252.252,0,0,1-.258.258.252.252,0,0,0-.258.258,11.2,11.2,0,0,0,1.8,1.546l.773.773A18.594,18.594,0,0,0,13.7,18.752a27.172,27.172,0,0,0,4.894,1.288,3.267,3.267,0,0,1,1.546.258,15,15,0,0,1-4.894-.773c0-.258-.258,0-.258,0h0c-1.288-.515-2.576-.773-3.606-1.288A26.358,26.358,0,0,1,5.715,14.63C5.458,14.373,5.2,14.115,5.2,13.858Z" transform="translate(4.695 18.857)"/><path class="a" d="M30.394,19.055H29.106l-.258-.258a4.3,4.3,0,0,1-2.834-3.091A15.2,15.2,0,0,1,25.5,12.1h.515a14.688,14.688,0,0,0,.258,3.349c1.03,1.8,2.061,3.091,4.122,3.606Z" transform="translate(36.687 16.493)"/><path class="a" d="M29.4,10.18c-.515-.258-1.288-.258-1.8-.515a3.444,3.444,0,0,1,2.318.258c2.576,1.03,3.606,3.091,3.864,5.667,0,.258,0,.515-.258.515s-.258-.258-.258-.515a5.692,5.692,0,0,0-2.834-5.152.946.946,0,0,0-.773-.258H29.4Z" transform="translate(39.997 12.488)"/><path class="a" d="M19.173,13.64H18.4V9.776A3.1,3.1,0,0,1,20.2,7.2c.258,0,.258,0,.258.258-.773.258-1.03,1.03-1.288,1.8A24.814,24.814,0,0,0,19.173,13.64Z" transform="translate(25.498 8.771)"/><path class="a" d="M15.873,13.482H15.1V11.422A7.132,7.132,0,0,1,15.358,9.1a2.545,2.545,0,0,1,1.8-1.8h.258c-1.546.773-1.546,2.318-1.546,3.606Z" transform="translate(20.297 8.929)"/><path class="a" d="M27.5,18.394c.515,0,1.03-.258,1.546-.258a1.028,1.028,0,0,0,1.03-.515h0a.357.357,0,0,0,.515,0,7.306,7.306,0,0,0,2.318-2.576c.258-.515.515-.773.773-1.288a.252.252,0,0,1,.258-.258c.258,0,.258.258,0,.515a4.152,4.152,0,0,1-1.03,1.8,7.3,7.3,0,0,1-4.379,2.834C28.273,18.394,28.015,18.394,27.5,18.394Z" transform="translate(39.839 18.699)"/><path class="a" d="M2.6,13.6a.9.9,0,0,1,.515.258v3.349c0,.258,0,.515-.258.515s-.258-.258-.258-.515C2.6,15.918,2.6,14.63,2.6,13.6Z" transform="translate(0.598 18.857)"/><path class="a" d="M19.8,6.962h0a2.271,2.271,0,0,1,2.061.515v2.834a2.173,2.173,0,0,1-.515-1.8c0-1.288,0-1.288-1.03-1.546H19.8Z" transform="translate(27.704 8.236)"/><path class="a" d="M22.3,10.218a2.2,2.2,0,0,1,1.8,0,3.969,3.969,0,0,0-3.349,2.318c0,.258,0,.258-.258.515a1.93,1.93,0,0,1,.258-1.288A4.374,4.374,0,0,1,22.3,10.218Z" transform="translate(28.807 13.223)"/><path class="a" d="M16.5,6.962h0a2,2,0,0,1,2.061.515v2.576a1.338,1.338,0,0,1-.515-1.03V8.507c0-1.03-.258-1.288-1.288-1.288h0A.252.252,0,0,0,16.5,6.962Z" transform="translate(22.504 8.236)"/><path class="a" d="M11.907,10.07c.258-.258.773,0,1.03,0A4.981,4.981,0,0,0,9.331,12.9a1.55,1.55,0,0,1,1.03-1.8A5.389,5.389,0,0,1,11.907,10.07Z" transform="translate(11.125 13.114)"/><path class="a" d="M24,11.828v.515c-.515-.258-1.288-.515-1.8-.773.515-.258.773,0,1.288,0A.9.9,0,0,1,24,11.828Z" transform="translate(31.487 15.477)"/><path class="a" d="M16.615,9.742c-.258.258.258.773-.258,1.03-.258,0-.258,0-.258-.258C16.1,10,16.1,9.484,16.615,9.742Z" transform="translate(21.873 12.669)"/><path class="a" d="M20.015,10.215c0,.258,0,.515-.258.515s-.258-.258-.258-.515,0-.515.258-.515S19.758,9.958,20.015,10.215Z" transform="translate(27.231 12.711)"/><path class="a" d="M22.873,9.6h0Z" transform="translate(31.329 12.553)"/><path class="a" d="M11.873,9.9a.946.946,0,0,1-.773-.258C11.358,9.639,11.615,9.382,11.873,9.9Z" transform="translate(13.993 12.514)"/><path class="a" d="M5.6,7.118c.258-.258.258-.258.515,0H5.6Z" transform="translate(5.326 8.338)"/><path class="a" d="M22.858,9.6h0Z" transform="translate(32.117 12.553)"/><path class="a" d="M6.564,7.3a13.88,13.88,0,0,0-2.576.773c-.773.258-.773.258-.773,1.288v10.3a1.338,1.338,0,0,0,.515,1.03,9.351,9.351,0,0,0,4.379,1.8h.258a7.132,7.132,0,0,1-2.318-.258.8.8,0,0,0-.515-.258,5.345,5.345,0,0,1-2.576-1.546.946.946,0,0,1-.258-.773V8.588c0-.258,0-.515.515-.773a3.828,3.828,0,0,0,1.546-.258A5.029,5.029,0,0,1,6.564,7.3Z" transform="translate(0.755 8.929)"/><path class="a" d="M24.009,12.118a3.36,3.36,0,0,0-2.576,2.318,3.494,3.494,0,0,0,1.8,4.637c.258.258.515.258,1.03.258-.515,0-.773.258-1.288,0,0-.258-.258,0-.258,0h0a.252.252,0,0,0-.258-.258,3.679,3.679,0,0,1-1.546-4.379,4.607,4.607,0,0,1,2.318-2.576A.483.483,0,0,1,24.009,12.118Z" transform="translate(29.162 16.217)"/><path class="a" d="M12.849,12.158a3.638,3.638,0,0,0-2.576,3.606,3.582,3.582,0,0,0,2.834,3.606c-.258,0-.773.258-1.03,0a.252.252,0,0,1-.258-.258A3.325,3.325,0,0,1,9.5,15.764,3.857,3.857,0,0,1,12.076,11.9.946.946,0,0,1,12.849,12.158Z" transform="translate(11.472 16.178)"/><path class="a" d="M30.294,10a5.248,5.248,0,0,0-3.349,3.606c0,.258-.258.515-.258.773H25.4c.258,0,.515,0,.515-.515a7.738,7.738,0,0,1,1.546-2.834A5.389,5.389,0,0,1,29.006,10Z" transform="translate(36.53 13.184)"/><path class="a" d="M28.6,11.7Z" transform="translate(41.573 15.863)"/><path class="a" d="M40.234,10c-1.546,0-2.576,1.288-3.349,2.576a7.806,7.806,0,0,0,.773,8.758,3.751,3.751,0,0,0,2.318,1.546H39.2a6.083,6.083,0,0,1-2.318-1.546,7.668,7.668,0,0,1-1.546-5.667c.258-2.576,1.288-4.379,3.864-5.409A1.549,1.549,0,0,1,40.234,10Z" transform="translate(52.092 13.184)"/><path class="a" d="M27.692,4.2c-.258.515,0,1.03-.515,1.03s-.773-.515-.515-.773c0-.258.515-.773.773-.515A.252.252,0,0,1,27.692,4.2Z" transform="translate(38.359 3.527)"/><path class="a" d="M22.7,3.673l.773-.773a.946.946,0,0,1,.773.258c0,.258.258.258,0,.515H22.7Z" transform="translate(32.275 1.994)"/><path class="a" d="M19.873,3.48H19.1a.252.252,0,0,1,.258-.258c.258-.258.515-.515.773-.258h0a.554.554,0,0,1,.515.515c0,.258-.258,0-.515.258A.252.252,0,0,0,19.873,3.48Z" transform="translate(26.601 1.929)"/><path class="a" d="M14.8,4.309a.946.946,0,0,1,.258-.773c.258-.515.773-.515,1.288,0a1.526,1.526,0,0,1,.258,1.8c-.258.258-.258.515-.773.515-.258,0-.515-.258-.773-.515A1.947,1.947,0,0,1,14.8,4.309Z" transform="translate(19.824 2.388)"/></svg>