<?xml version="1.0" encoding="utf-8"?>
<!-- Generator: Adobe Illustrator 23.0.3, SVG Export Plug-In . SVG Version: 6.00 Build 0)  -->
<svg version="1.1" id="Layer_1" xmlns="http://www.w3.org/2000/svg" xmlns:xlink="http://www.w3.org/1999/xlink" x="0px" y="0px"
	 viewBox="0 0 54.7 18" style="enable-background:new 0 0 54.7 18;" xml:space="preserve">
<style type="text/css">
	.st0{fill:#034EA2;}
	.st1{clip-path:url(#SVGID_2_);}
</style>
<g>
	<g id="Samsung_wordmark">
		<path class="st0" d="M44.4,6.3l0.1,5.9h0l-1.7-5.9H40v7.4h1.8l-0.1-6.1h0l1.8,6.1h2.7V6.3H44.4z M9.2,6.3l-1.4,7.5h2l1-6.8l0,0
			l1,6.8h2l-1.4-7.5H9.2z M20.5,6.3L19.6,12h0l-0.9-5.7h-3l-0.2,7.5h1.9l0-6.7h0l1.2,6.7h1.9l1.2-6.7l0,0l0,6.7h1.9l-0.2-7.5H20.5z"
			/>
		<g>
			<defs>
				<rect id="SVGID_1_" x="1.2" y="6.1" width="52.3" height="8"/>
			</defs>
			<clipPath id="SVGID_2_">
				<use xlink:href="#SVGID_1_"  style="overflow:visible;"/>
			</clipPath>
			<g class="st1">
				<g id="Group">
					<path class="st0" d="M4.7,11.7c0.1,0.2,0,0.4,0,0.6c-0.1,0.2-0.2,0.5-0.7,0.5c-0.5,0-0.8-0.3-0.8-0.7l0-0.7h-2l0,0.6
						c0,1.7,1.3,2.2,2.7,2.2c1.4,0,2.5-0.5,2.6-1.7c0.1-0.6,0-1.1,0-1.2c-0.3-1.6-3.1-2-3.4-2.9c0-0.2,0-0.3,0-0.4
						c0.1-0.2,0.2-0.5,0.7-0.5c0.4,0,0.7,0.3,0.7,0.7v0.5h1.9V7.9c0-1.6-1.5-1.9-2.5-1.9c-1.3,0-2.4,0.4-2.6,1.7
						c-0.1,0.3-0.1,0.6,0,1C1.7,10.3,4.3,10.7,4.7,11.7 M29,11.7c0.1,0.2,0,0.4,0,0.5c-0.1,0.2-0.2,0.5-0.7,0.5
						c-0.5,0-0.7-0.3-0.7-0.7l0-0.7h-2l0,0.6c0,1.6,1.3,2.1,2.7,2.1c1.3,0,2.4-0.5,2.6-1.7c0.1-0.6,0-1.1,0-1.2
						c-0.3-1.5-3.1-2-3.3-2.9c0-0.1,0-0.3,0-0.4c0.1-0.2,0.2-0.5,0.7-0.5c0.4,0,0.7,0.3,0.7,0.7v0.5h1.8V8c0-1.6-1.4-1.9-2.5-1.9
						c-1.3,0-2.4,0.4-2.6,1.6c-0.1,0.3-0.1,0.6,0,1C26,10.3,28.6,10.7,29,11.7 M35.3,12.7c0.5,0,0.7-0.4,0.7-0.5c0-0.1,0-0.2,0-0.3
						V6.3h1.9v5.4c0,0.1,0,0.4,0,0.5c-0.1,1.4-1.2,1.8-2.6,1.8c-1.4,0-2.5-0.5-2.6-1.8c0-0.1,0-0.4,0-0.5V6.3h1.9v5.5
						c0,0.1,0,0.2,0,0.3C34.6,12.3,34.7,12.7,35.3,12.7z M50.8,12.6c0.5,0,0.7-0.3,0.8-0.5c0-0.1,0-0.2,0-0.3v-1.1h-0.8V9.6h2.6v2
						c0,0.1,0,0.2,0,0.5c-0.1,1.4-1.3,1.8-2.6,1.8c-1.3,0-2.5-0.5-2.6-1.8c0-0.2,0-0.4,0-0.5l0-3.1c0-0.1,0-0.4,0-0.5
						c0.2-1.4,1.3-1.8,2.6-1.8c1.3,0,2.5,0.4,2.6,1.8c0,0.2,0,0.5,0,0.5v0.2h-1.9V8.3c0,0,0-0.2,0-0.3c0-0.2-0.2-0.5-0.7-0.5
						c-0.5,0-0.7,0.4-0.7,0.5c0,0.1,0,0.2,0,0.4v3.4c0,0.1,0,0.2,0,0.3C50.1,12.2,50.3,12.6,50.8,12.6"/>
				</g>
			</g>
		</g>
	</g>
</g>
</svg>
