<svg xmlns="http://www.w3.org/2000/svg" width="114.713" height="18.02" viewBox="0 0 114.713 18.02"><defs><style>.a{fill:#bbb;}</style></defs><path class="a" d="M88.231,6.3l.22,12.966h0L84.715,6.3H78.561V22.562h3.956L82.3,9.157h0l3.956,13.405h5.933V6.3Zm-77.354,0L7.8,22.782h4.4l2.2-14.943h0l2.2,14.943h4.4L17.909,6.3Zm24.832,0L33.731,18.826h0L31.753,6.3H25.161l-.44,16.482H28.9V8.058h0l2.637,14.724h4.175L38.346,8.058h0V22.782h4.175L42.082,6.3Z" transform="translate(6.704 -5.641)"/><path class="a" d="M8.891,18.526c.22.44,0,.879,0,1.319a1.5,1.5,0,0,1-1.538,1.1A1.567,1.567,0,0,1,5.6,19.405V17.867H1.2v1.319c0,3.736,2.857,4.835,5.933,4.835s5.494-1.1,5.714-3.736a9.568,9.568,0,0,0,0-2.637c-.659-3.516-6.812-4.4-7.472-6.373V10.4A1.5,1.5,0,0,1,6.914,9.3a1.5,1.5,0,0,1,1.538,1.538v1.1h4.175V10.175C12.627,6.659,9.331,6,7.133,6,4.277,6,1.859,6.879,1.42,9.736a3.725,3.725,0,0,0,0,2.2c.879,3.516,6.593,4.4,7.472,6.593m53.4,0c.22.44,0,.879,0,1.1a1.5,1.5,0,0,1-1.538,1.1,1.388,1.388,0,0,1-1.538-1.538V17.647h-4.4v1.319c0,3.516,2.857,4.615,5.933,4.615,2.857,0,5.274-1.1,5.714-3.736a9.568,9.568,0,0,0,0-2.637c-.659-3.3-6.812-4.4-7.252-6.373V9.956a1.575,1.575,0,0,1,3.077.44v1.1h3.956V10.4c0-3.516-3.077-4.175-5.494-4.175-2.857,0-5.274.879-5.714,3.516a3.725,3.725,0,0,0,0,2.2c.659,3.516,6.373,4.4,7.252,6.593m13.845,2.2a1.5,1.5,0,0,0,1.538-1.1V6.659H81.85V19.625c-.22,3.077-2.637,3.956-5.714,3.956s-5.494-1.1-5.714-3.956V6.659H74.6V19.405C74.6,19.845,74.818,20.724,76.137,20.724ZM110.2,20.5a1.817,1.817,0,0,0,1.758-1.1V16.329H110.2V13.911h5.714v5.494c-.22,3.077-2.857,3.956-5.714,3.956s-5.494-1.1-5.714-3.956V10.4c.44-3.077,2.857-3.956,5.714-3.956s5.494.879,5.714,3.956v1.538h-4.175V10.4c0-.44-.44-1.1-1.538-1.1a1.5,1.5,0,0,0-1.538,1.1v9.01a1.5,1.5,0,0,0,1.538,1.1" transform="translate(-1.2 -6)"/></svg>