<svg xmlns="http://www.w3.org/2000/svg" width="69.274" height="22.58" viewBox="0 0 69.274 22.58"><defs><style>.a{fill:#bbb;}</style></defs><path class="a" d="M30.633,22.741h-5.7l3.508-21.7h5.7ZM20.111,1.038,14.849,15.945l-.658-3.288h0L12.219,3.011A2.392,2.392,0,0,0,9.588,1.038H.6v.438A28.894,28.894,0,0,1,6.519,3.888l4.823,18.853h5.919l8.988-21.7Zm44.5,21.7h5.261l-4.6-21.7h-4.6a2.5,2.5,0,0,0-2.631,1.535l-8.33,20.168h5.919l1.1-3.288h7.234l.658,3.288Zm-6.138-7.673,3.069-8.111L63.3,15.069ZM50.144,6.3l.877-4.823A16.688,16.688,0,0,0,45.979.6c-2.85,0-9.427,1.315-9.427,7.234,0,5.7,7.892,5.7,7.892,8.55s-7.015,2.411-9.427.658l-.877,4.823A15.5,15.5,0,0,0,40.5,23.18c3.946,0,9.646-1.973,9.646-7.454,0-5.7-7.892-6.138-7.892-8.55,0-2.631,5.481-2.411,7.892-.877Z" transform="translate(-0.6 -0.6)"/><path class="a" d="M14.192,12.419,12.219,2.773A2.392,2.392,0,0,0,9.588.8H.6v.438A20.9,20.9,0,0,1,8.93,5.4,16.517,16.517,0,0,1,14.192,12.419Z" transform="translate(-0.6 -0.362)"/></svg>