<svg xmlns="http://www.w3.org/2000/svg" width="132.825" height="32.788" viewBox="0 0 132.825 32.788"><defs><style>.a{fill:#bbb;}</style></defs><path class="a" d="M24.82,2.473a6.837,6.837,0,0,0-5.353,6.691V9.5c5.019,1,7.361,4.015,7.361,8.03a8.638,8.638,0,0,1-8.7,8.7h0c-4.684,0-9.368-3.68-9.368-10.037A14.684,14.684,0,0,1,13.779,5.819a16.136,16.136,0,0,1,10.037-3.68,1.229,1.229,0,0,1,1,.335A15.552,15.552,0,0,0,17.794.8,16.394,16.394,0,1,0,34.188,17.194,16.252,16.252,0,0,0,24.82,2.473Z" transform="translate(-1.4 -0.8)"/><path class="a" d="M8.4,1.3Z" transform="translate(15.02 0.373)"/><path class="a" d="M17.919,19.683,12.9,7.638h3.346l3.011,8.03,3.011-8.03h3.011L20.261,19.683Zm16.394-6.357a2.012,2.012,0,0,0-.335-1.338c0-.335-.335-.669-.669-1,0-.335-.335-.669-.669-1a1.673,1.673,0,0,0-2.007,0c-.669.335-.669.669-1,1s-.335.669-.669,1c0,.335-.335,1-.335,1.338a2.012,2.012,0,0,0,.335,1.338c0,.335.335.669.335,1a2.526,2.526,0,0,0,2.342,1.338,2.385,2.385,0,0,0,2.007-1c.335-.335.335-.669.669-1,0-.669,0-1,0-1.673m3.011,0a5.694,5.694,0,0,1-.335,2.342l-1,2.007a5.716,5.716,0,0,1-8.7,0c-.335-.669-1-1.338-1-2.007a11.024,11.024,0,0,1,0-4.684,7.313,7.313,0,0,1,1-1.673,3.34,3.34,0,0,1,1.673-1.338A6.3,6.3,0,0,1,31.636,7.3a5.356,5.356,0,0,1,5.353,4.015,4.243,4.243,0,0,1,.335,2.007m9.368-3.011a3.592,3.592,0,0,0-4.015.669c-.335.335-.335.669-.669,1,0,.335-.335,1-.335,1.338v1.338c0,.335.335.669.335,1.338a4.619,4.619,0,0,1,1.338,1c.335.335.669.335,1.338.335a1.229,1.229,0,0,0,1-.335c.335,0,.669-.335,1-.669Zm.335,9.368v-1c-.335.335-.669.669-1,.669a4.667,4.667,0,0,1-3.68,0,5.874,5.874,0,0,1-1.673-1.338l-1-2.007a5.694,5.694,0,0,1-.335-2.342,5.693,5.693,0,0,1,.335-2.342,1.889,1.889,0,0,1,.669-2.007A5.4,5.4,0,0,1,44.684,7.3a4.244,4.244,0,0,1,2.007.335V2.954H49.7V19.683ZM58.4,13.995a4.244,4.244,0,0,0-2.007.335A1.738,1.738,0,0,0,55.056,15a1.229,1.229,0,0,0-.335,1,1.229,1.229,0,0,0,.335,1c.335.335.669.335,1.338.335a1.229,1.229,0,0,0,1-.335c.335,0,.669-.335,1-.669V13.995Zm.335,5.688v-1a4.619,4.619,0,0,1-1.338,1,5.672,5.672,0,0,1-3.346,0c-1.673-.669-2.677-2.007-2.342-3.68a3.043,3.043,0,0,1,1.338-2.677,2.536,2.536,0,0,1,1.338-.669,9.769,9.769,0,0,1,3.011-.669h1.338v-.335a1.738,1.738,0,0,0-.669-1.338,2.012,2.012,0,0,0-1.338-.335,7.874,7.874,0,0,0-2.677.669l-.335.335-1-2.007a7.185,7.185,0,0,1,6.357-1.338A3.305,3.305,0,0,1,61.413,9.98a4.243,4.243,0,0,1,.335,2.007v7.7ZM71.116,5.631A3.016,3.016,0,0,0,69.443,5.3a1.229,1.229,0,0,0-1,.335c-.335.335-.335.669-.335,1.338v.669h2.677V9.98H68.1v9.368H65.093V9.98H63.42V7.638h1.673V6.969a4.243,4.243,0,0,1,.335-2.007,3.016,3.016,0,0,1,2.007-2.007,6.525,6.525,0,0,1,4.349.335Zm8.364,7.7a2.012,2.012,0,0,0-.335-1.338c0-.335-.335-.669-.669-1s-.669-.669-1-.669a1.673,1.673,0,0,0-2.007,0c-.335.335-.669.335-1,.669s-.335.669-.669,1a4.642,4.642,0,0,0,0,3.011c0,.335.335.669.669,1s.669.669,1,.669a2.012,2.012,0,0,0,1.338.335,2.385,2.385,0,0,0,2.007-1c.335-.335.335-.669.669-1V13.326m3.011,0a5.694,5.694,0,0,1-.335,2.342l-1,2.007A4.588,4.588,0,0,1,76.8,19.683a5.4,5.4,0,0,1-4.349-2.007c-.335-.669-1-1.338-1-2.007a11.024,11.024,0,0,1,0-4.684l1-2.007a3.34,3.34,0,0,1,1.673-1.338A6.3,6.3,0,0,1,76.8,6.969a5.4,5.4,0,0,1,4.349,2.007c.335.669,1,1.338,1,2.007s.335,1.673.335,2.342m9.7,6.357V12.991a2.458,2.458,0,0,0-.669-2.007,2.556,2.556,0,0,0-1.673-.669,2.012,2.012,0,0,0-1.338.335c-.335.335-.669.669-1,.669v8.364H84.5V7.638h2.677v1A7.065,7.065,0,0,1,90.521,7.3a2.507,2.507,0,0,1,1.673.335c.669.335,1,.335,1.338,1a7.313,7.313,0,0,1,1,1.673,4.961,4.961,0,0,1,.335,2.342v7.026Zm12.714-7.7a1.229,1.229,0,0,0-.335-1,.72.72,0,0,0-.669-.669,2.536,2.536,0,0,0-1.338-.669c-.669,0-1,.335-1.673.669a2.556,2.556,0,0,0-.669,1.673Zm-4.684,2.342a3.037,3.037,0,0,0,1,2.342,4.836,4.836,0,0,0,2.342.669,4.244,4.244,0,0,0,2.007-.335c.335,0,.335-.335.669-.335l.335-.335.669,2.677a2.556,2.556,0,0,1-1.673.669,9.263,9.263,0,0,1-3.011.335,5.694,5.694,0,0,1-2.342-.335l-2.007-1a7,7,0,0,1-1.338-2.007,8.849,8.849,0,0,0,0-3.011,6.522,6.522,0,0,1,.335-2.677,5.026,5.026,0,0,1,5.019-3.68,4.244,4.244,0,0,1,2.007.335,7.313,7.313,0,0,1,1.673,1c.335.669,1,1.338,1,2.007a7.426,7.426,0,0,1,.335,3.011v.669Z" transform="translate(25.576 3.737)"/></svg>