<?xml version="1.0" encoding="iso-8859-1"?>
<!-- Generator: Adobe Illustrator 21.0.1, SVG Export Plug-In . SVG Version: 6.00 Build 0)  -->
<svg version="1.1" id="&#x421;&#x43B;&#x43E;&#x439;_1"
	 xmlns="http://www.w3.org/2000/svg" xmlns:xlink="http://www.w3.org/1999/xlink" x="0px" y="0px" viewBox="0 0 800 600"
	 style="enable-background:new 0 0 800 600;" xml:space="preserve">
<g>
	<polygon points="189.2,296.599 192.35,309.5 198.125,290.299 	"/>
	<polygon points="175.1,296.599 175.1,309.5 189.2,296.599 	"/>
	<polygon points="175.1,309.5 192.35,309.5 189.2,296.599 	"/>
	<polygon points="192.35,309.5 208.7,298.699 198.125,290.299 	"/>
	<polygon points="198.05,268.024 217.55,279.199 208.7,259.474 	"/>
	<polygon points="160.25,344 175.1,309.5 175.1,296.599 	"/>
	<polygon points="202.7,279.199 217.55,279.199 198.05,268.024 	"/>
	<polygon points="198.125,290.299 208.7,298.699 202.7,279.199 	"/>
	<polygon points="208.7,298.699 217.55,279.199 202.7,279.199 	"/>
	<polygon points="198.05,268.024 208.7,259.474 189.2,261.5 	"/>
	<polygon points="163.7,347.299 175.1,344 160.25,344 	"/>
	<polygon points="175.1,344 175.1,309.5 160.25,344 	"/>
	<polygon points="161.3,346.324 163.7,347.299 160.25,344 	"/>
	<polygon points="208.7,259.474 192.35,248.599 189.2,261.5 	"/>
	<polygon points="171.65,347.299 175.1,344 163.7,347.299 	"/>
	<polygon points="166.4,248.599 162.5,250.699 175.1,261.5 	"/>
	<polygon points="160.25,254.449 160.25,344 175.1,296.599 	"/>
	<polygon points="175.1,261.5 160.25,254.449 175.1,296.599 	"/>
	<polygon points="162.5,250.699 160.25,254.449 175.1,261.5 	"/>
	<polygon points="189.2,261.5 192.35,248.599 175.1,261.5 	"/>
	<polygon points="192.35,248.599 166.4,248.599 175.1,261.5 	"/>
	<polygon points="237.951,278.149 228.351,292.399 242.75,294.5 	"/>
	<polygon points="247.025,287.75 237.951,278.149 242.75,294.5 	"/>
	<polygon points="254.601,284.299 254.601,270.949 247.025,287.75 	"/>
	<polygon points="228.351,292.399 228.351,327.199 242.75,325.1 	"/>
	<polygon points="262.101,287.75 271.25,278.149 254.601,284.299 	"/>
	<polygon points="271.25,278.149 254.601,270.949 254.601,284.299 	"/>
	<polygon points="254.601,270.949 237.951,278.149 247.025,287.75 	"/>
	<polygon points="242.75,325.1 228.351,327.199 247.025,331.85 	"/>
	<polygon points="271.25,341.375 280.851,327.199 266.451,325.1 	"/>
	<polygon points="266.451,325.1 280.851,327.199 266.451,294.5 	"/>
	<polygon points="254.601,348.649 271.25,341.375 262.175,331.85 	"/>
	<polygon points="262.175,331.85 271.25,341.375 266.451,325.1 	"/>
	<polygon points="247.025,331.85 237.951,341.375 254.601,335.299 	"/>
	<polygon points="254.601,335.299 254.601,348.649 262.175,331.85 	"/>
	<polygon points="228.351,327.199 237.951,341.375 247.025,331.85 	"/>
	<polygon points="237.951,341.375 254.601,348.649 254.601,335.299 	"/>
	<polygon points="242.75,294.5 228.351,292.399 242.75,325.1 	"/>
	<polygon points="266.451,294.5 280.851,292.399 262.101,287.75 	"/>
	<polygon points="280.851,327.199 280.851,292.399 266.451,294.5 	"/>
	<polygon points="262.101,287.75 280.851,292.399 271.25,278.149 	"/>
	<polygon points="298.999,344 313.399,344 298.999,292.549 	"/>
	<polygon points="302.299,347.299 313.399,344 298.999,344 	"/>
	<polygon points="313.399,344 313.399,294.799 298.999,292.549 	"/>
	<polygon points="312.424,346.399 313.399,344 310.099,347.299 	"/>
	<polygon points="333.349,282.349 334.249,276.649 331.849,272.299 	"/>
	<polygon points="310.099,347.299 313.399,344 302.299,347.299 	"/>
	<polygon points="298.999,292.549 313.399,294.799 307.924,278.299 	"/>
	<polygon points="313.399,294.799 317.524,287.974 307.924,278.299 	"/>
	<polygon points="323.899,271.099 324.649,284.299 331.849,272.299 	"/>
	<polygon points="324.649,284.299 329.149,284.899 331.849,272.299 	"/>
	<polygon points="329.149,284.899 333.349,282.349 331.849,272.299 	"/>
	<polygon points="317.524,287.974 324.649,284.299 323.899,271.099 	"/>
	<polygon points="307.924,278.299 317.524,287.974 323.899,271.099 	"/>
	<polygon points="350.297,331.1 357.348,342.949 364.698,328.85 	"/>
	<polygon points="364.698,284.75 350.297,331.1 364.698,328.85 	"/>
	<polygon points="378.647,272.299 364.698,272.299 364.698,284.75 	"/>
	<polygon points="364.698,272.299 350.297,284.75 364.698,284.75 	"/>
	<polygon points="377.897,334.399 382.698,342.649 382.098,336.949 	"/>
	<polygon points="364.698,328.85 357.348,342.949 367.473,333.125 	"/>
	<polygon points="367.473,333.125 370.547,348.649 371.897,335.299 	"/>
	<polygon points="379.998,346.699 382.698,342.649 377.897,334.399 	"/>
	<polygon points="370.547,348.649 379.998,346.699 377.897,334.399 	"/>
	<polygon points="357.348,342.949 370.547,348.649 367.473,333.125 	"/>
	<polygon points="378.647,284.75 378.647,272.299 364.698,284.75 	"/>
	<polygon points="380.748,334.774 377.897,334.399 382.098,336.949 	"/>
	<polygon points="371.897,335.299 370.547,348.649 377.897,334.399 	"/>
	<polygon points="350.297,284.75 350.297,331.1 364.698,284.75 	"/>
	<polygon points="381.948,275.599 378.647,272.299 378.647,284.75 	"/>
	<polygon points="341.748,272.299 341.748,284.75 350.297,272.299 	"/>
	<polygon points="351.272,254.599 350.297,257 353.598,253.699 	"/>
	<polygon points="353.598,253.699 350.297,257 361.397,253.699 	"/>
	<polygon points="338.448,275.599 341.748,284.75 341.748,272.299 	"/>
	<polygon points="338.448,281.449 341.748,284.75 338.448,275.599 	"/>
	<polygon points="341.748,284.75 350.297,284.75 350.297,272.299 	"/>
	<polygon points="350.297,272.299 350.297,284.75 364.698,272.299 	"/>
	<polygon points="381.948,281.449 381.948,275.599 378.647,284.75 	"/>
	<polygon points="364.698,257 350.297,272.299 364.698,272.299 	"/>
	<polygon points="361.397,253.699 350.297,257 364.698,257 	"/>
	<polygon points="350.297,257 350.297,272.299 364.698,257 	"/>
	<polygon points="363.797,254.674 361.397,253.699 364.698,257 	"/>
	<polygon points="412.546,347.299 415.846,344 404.746,347.299 	"/>
	<polygon points="415.846,264.199 419.146,257.449 401.446,262.25 	"/>
	<polygon points="391.996,284.75 401.446,284.75 401.446,272.299 	"/>
	<polygon points="401.446,262.25 419.146,257.449 409.696,248 	"/>
	<polygon points="401.446,284.75 415.846,272.299 401.446,272.299 	"/>
	<polygon points="415.846,272.299 415.846,264.199 401.446,272.299 	"/>
	<polygon points="419.146,257.449 425.146,254 409.696,248 	"/>
	<polygon points="401.446,272.299 415.846,264.199 401.446,262.25 	"/>
	<polygon points="432.346,251 432.946,245 430.246,241.549 	"/>
	<polygon points="425.146,254 432.346,251 430.246,241.549 	"/>
	<polygon points="427.771,241.174 425.146,254 430.246,241.549 	"/>
	<polygon points="409.696,248 425.146,254 424.846,240.799 	"/>
	<polygon points="424.846,240.799 425.146,254 427.771,241.174 	"/>
	<polygon points="415.846,344 415.846,284.75 401.446,344 	"/>
	<polygon points="431.446,281.449 428.146,272.299 428.146,284.75 	"/>
	<polygon points="428.146,272.299 415.846,272.299 428.146,284.75 	"/>
	<polygon points="428.146,284.75 415.846,272.299 415.846,284.75 	"/>
	<polygon points="414.871,346.399 415.846,344 412.546,347.299 	"/>
	<polygon points="391.996,272.299 391.996,284.75 401.446,272.299 	"/>
	<polygon points="431.446,275.599 428.146,272.299 431.446,281.449 	"/>
	<polygon points="401.446,344 415.846,284.75 401.446,284.75 	"/>
	<polygon points="415.846,284.75 415.846,272.299 401.446,284.75 	"/>
	<polygon points="404.746,347.299 415.846,344 401.446,344 	"/>
	<polygon points="388.546,275.599 391.996,284.75 391.996,272.299 	"/>
	<polygon points="388.546,281.449 391.996,284.75 388.546,275.599 	"/>
	<polygon points="429.046,254 432.346,251 425.146,254 	"/>
	<polygon points="514.394,344 528.794,245.299 514.394,245.299 	"/>
	<polygon points="517.693,242 514.394,245.299 525.493,242 	"/>
	<polygon points="514.394,245.299 528.794,245.299 525.493,242 	"/>
	<polygon points="517.693,347.299 525.493,347.299 514.394,344 	"/>
	<polygon points="525.493,347.299 528.794,344 514.394,344 	"/>
	<polygon points="528.794,344 528.794,245.299 514.394,344 	"/>
	<polygon points="556.842,258.5 562.767,255.349 551.142,255.349 	"/>
	<polygon points="547.842,249.799 562.767,255.349 551.142,244.25 	"/>
	<polygon points="551.142,255.349 562.767,255.349 547.842,249.799 	"/>
	<polygon points="562.767,255.349 566.142,249.799 562.767,244.25 	"/>
	<polygon points="556.842,241.099 562.767,255.349 562.767,244.25 	"/>
	<polygon points="551.142,244.25 562.767,255.349 556.842,241.099 	"/>
	<polygon points="549.792,344 564.192,275.599 549.792,275.599 	"/>
	<polygon points="553.092,347.299 560.892,347.299 549.792,344 	"/>
	<polygon points="560.892,347.299 564.192,344 549.792,344 	"/>
	<polygon points="549.792,275.599 564.192,275.599 553.092,272.299 	"/>
	<polygon points="553.092,272.299 564.192,275.599 560.892,272.299 	"/>
	<polygon points="564.192,344 564.192,275.599 549.792,344 	"/>
	<polygon points="451.951,278.149 442.351,292.399 456.75,294.5 	"/>
	<polygon points="480.451,325.1 494.851,327.199 480.451,294.5 	"/>
	<polygon points="476.175,331.85 485.25,341.375 480.451,325.1 	"/>
	<polygon points="485.25,341.375 494.851,327.199 480.451,325.1 	"/>
	<polygon points="468.601,348.649 485.25,341.375 476.175,331.85 	"/>
	<polygon points="468.601,335.299 468.601,348.649 476.175,331.85 	"/>
	<polygon points="494.851,327.199 494.851,292.399 480.451,294.5 	"/>
	<polygon points="476.101,287.75 494.851,292.399 485.25,278.149 	"/>
	<polygon points="476.101,287.75 485.25,278.149 468.601,284.299 	"/>
	<polygon points="480.451,294.5 494.851,292.399 476.101,287.75 	"/>
	<polygon points="451.951,341.375 468.601,348.649 468.601,335.299 	"/>
	<polygon points="456.75,294.5 442.351,292.399 456.75,325.1 	"/>
	<polygon points="468.601,270.949 451.951,278.149 461.025,287.75 	"/>
	<polygon points="461.025,287.75 451.951,278.149 456.75,294.5 	"/>
	<polygon points="485.25,278.149 468.601,270.949 468.601,284.299 	"/>
	<polygon points="468.601,284.299 468.601,270.949 461.025,287.75 	"/>
	<polygon points="442.351,292.399 442.351,327.199 456.75,325.1 	"/>
	<polygon points="442.351,327.199 451.951,341.375 461.025,331.85 	"/>
	<polygon points="461.025,331.85 451.951,341.375 468.601,335.299 	"/>
	<polygon points="456.75,325.1 442.351,327.199 461.025,331.85 	"/>
	<polygon points="609.434,335.299 609.434,348.65 617.009,331.85 	"/>
	<polygon points="592.784,341.375 609.434,348.65 609.434,335.299 	"/>
	<polygon points="583.184,327.199 592.784,341.375 601.859,331.85 	"/>
	<polygon points="601.859,331.85 592.784,341.375 609.434,335.299 	"/>
	<polygon points="609.434,348.65 626.084,341.375 617.009,331.85 	"/>
	<polygon points="617.009,331.85 626.084,341.375 621.284,325.1 	"/>
	<polygon points="597.584,325.1 583.184,327.199 601.859,331.85 	"/>
	<polygon points="621.284,294.5 635.684,327.199 635.684,292.4 	"/>
	<polygon points="626.084,341.375 635.684,327.199 621.284,325.1 	"/>
	<polygon points="621.284,325.1 635.684,327.199 621.284,294.5 	"/>
	<polygon points="583.184,292.4 583.184,327.199 597.584,325.1 	"/>
	<polygon points="635.684,292.4 626.084,278.15 616.934,287.75 	"/>
	<polygon points="616.934,287.75 626.084,278.15 609.434,284.3 	"/>
	<polygon points="626.084,278.15 609.434,270.949 609.434,284.3 	"/>
	<polygon points="621.284,294.5 635.684,292.4 616.934,287.75 	"/>
	<polygon points="609.434,270.949 592.784,278.15 601.859,287.75 	"/>
	<polygon points="592.784,278.15 583.184,292.4 597.584,294.5 	"/>
	<polygon points="601.859,287.75 592.784,278.15 597.584,294.5 	"/>
	<polygon points="609.434,284.3 609.434,270.949 601.859,287.75 	"/>
	<polygon points="597.584,294.5 583.184,292.4 597.584,325.1 	"/>
</g>
</svg>
