<?xml version="1.0" encoding="iso-8859-1"?>
<!-- Generator: Adobe Illustrator 21.0.1, SVG Export Plug-In . SVG Version: 6.00 Build 0)  -->
<svg version="1.1" id="&#x421;&#x43B;&#x43E;&#x439;_1"
	 xmlns="http://www.w3.org/2000/svg" xmlns:xlink="http://www.w3.org/1999/xlink" x="0px" y="0px" viewBox="0 0 800 600"
	 style="enable-background:new 0 0 800 600;" xml:space="preserve">
<g>
	<polygon points="249.16,239.399 224.36,230.599 242.92,252.04 	"/>
	<polygon points="208.84,258.324 193.32,266.439 208.84,264.424 	"/>
	<polygon points="193.32,256.04 193.32,266.439 208.84,258.324 	"/>
	<polygon points="204.84,239.56 193.32,256.04 214.76,249.977 	"/>
	<polygon points="242.92,252.04 224.36,230.599 224.36,245.319 	"/>
	<polygon points="224.36,230.599 204.84,239.56 224.36,245.319 	"/>
	<polygon points="224.36,245.319 204.84,239.56 214.76,249.977 	"/>
	<polygon points="218.4,273.897 227.868,293.509 239.68,282.857 	"/>
	<polygon points="227.868,293.509 253.32,302.185 239.68,282.857 	"/>
	<polygon points="208.04,285.159 227.868,293.509 218.4,273.897 	"/>
	<polygon points="208.84,264.424 197.56,277.639 218.4,273.897 	"/>
	<polygon points="197.56,277.639 208.04,285.159 218.4,273.897 	"/>
	<polygon points="193.32,266.439 197.56,277.639 208.84,264.424 	"/>
	<polygon points="214.76,249.977 193.32,256.04 208.84,258.324 	"/>
	<polygon points="196.36,329 222.92,338.76 222.92,324.039 	"/>
	<polygon points="222.92,324.039 222.92,338.76 232.2,319.324 	"/>
	<polygon points="222.92,338.76 242.12,329.656 232.2,319.324 	"/>
	<polygon points="232.2,319.324 242.12,329.656 237.8,311.252 	"/>
	<polygon points="194.28,323.239 196.36,329 202.6,316.199 	"/>
	<polygon points="202.6,316.199 196.36,329 222.92,324.039 	"/>
	<polygon points="246.2,252.359 249.16,239.399 242.92,252.04 	"/>
	<polygon points="242.12,329.656 253.32,313.524 237.8,311.252 	"/>
	<polygon points="197,317.799 194.28,323.239 202.6,316.199 	"/>
	<polygon points="251.08,245 249.16,239.399 248.52,250.439 	"/>
	<polygon points="248.52,250.439 249.16,239.399 246.2,252.359 	"/>
	<polygon points="251.32,241.879 249.16,239.399 251.08,245 	"/>
	<polygon points="253.32,313.524 253.32,302.185 237.8,311.252 	"/>
	<polygon points="237.8,304.219 253.32,302.185 227.868,293.509 	"/>
	<polygon points="237.8,311.252 253.32,302.185 237.8,304.219 	"/>
	<polygon points="325.873,333.689 330.478,337.319 332.523,313.024 	"/>
	<polygon points="337.786,337.319 342.073,333.322 332.523,313.024 	"/>
	<polygon points="309.9,278.827 325.873,333.689 332.523,313.024 	"/>
	<polygon points="317.968,262.462 309.9,278.827 332.523,313.024 	"/>
	<polygon points="332.523,313.024 342.073,333.322 341.033,260.567 	"/>
	<polygon points="341.033,260.567 355.513,261.482 354.963,258.554 	"/>
	<polygon points="342.073,333.322 355.513,261.482 341.033,260.567 	"/>
	<polygon points="352.208,257.319 341.033,260.567 354.963,258.554 	"/>
	<polygon points="313.246,258.439 309.9,278.827 317.968,262.462 	"/>
	<polygon points="344.968,257.319 341.033,260.567 352.208,257.319 	"/>
	<polygon points="330.478,337.319 337.786,337.319 332.523,313.024 	"/>
	<polygon points="264.998,261.959 278.44,333.479 278.69,261.192 	"/>
	<polygon points="278.44,333.479 282.686,337.319 287.295,313.039 	"/>
	<polygon points="265.581,258.679 264.998,261.959 278.69,261.192 	"/>
	<polygon points="278.69,261.192 278.44,333.479 287.295,313.039 	"/>
	<polygon points="268.273,257.319 265.581,258.679 278.69,261.192 	"/>
	<polygon points="274.821,257.319 268.273,257.319 278.69,261.192 	"/>
	<polygon points="287.295,313.039 309.9,278.827 301.848,262.012 	"/>
	<polygon points="306.733,258.439 309.9,278.827 313.246,258.439 	"/>
	<polygon points="282.686,337.319 289.353,337.319 287.295,313.039 	"/>
	<polygon points="301.848,262.012 309.9,278.827 306.733,258.439 	"/>
	<polygon points="293.9,333.066 309.9,278.827 287.295,313.039 	"/>
	<polygon points="289.353,337.319 293.9,333.066 287.295,313.039 	"/>
	<polygon points="413.076,331.079 423.236,316.199 407.877,314.119 	"/>
	<polygon points="403.316,320.92 413.076,331.079 407.877,314.119 	"/>
	<polygon points="395.397,324.52 395.397,338.76 403.316,320.92 	"/>
	<polygon points="395.397,338.76 413.076,331.079 403.316,320.92 	"/>
	<polygon points="407.877,289.159 423.236,278.599 407.877,280.679 	"/>
	<polygon points="377.797,331.159 395.397,338.76 395.397,324.52 	"/>
	<polygon points="407.877,280.679 423.236,278.599 403.316,273.879 	"/>
	<polygon points="407.877,300.52 423.236,316.199 407.877,289.159 	"/>
	<polygon points="407.877,314.119 423.236,316.199 407.877,300.52 	"/>
	<polygon points="423.236,316.199 423.236,278.599 407.877,289.159 	"/>
	<polygon points="375.397,295 367.717,306.92 382.757,309.319 	"/>
	<polygon points="389.797,289.159 375.397,295 386.197,303.399 	"/>
	<polygon points="392.837,300.52 389.797,289.159 386.197,303.399 	"/>
	<polygon points="407.877,289.159 389.797,289.159 392.837,300.52 	"/>
	<polygon points="386.197,303.399 375.397,295 382.757,309.319 	"/>
	<polygon points="387.397,320.92 377.797,331.159 395.397,324.52 	"/>
	<polygon points="374.117,273.639 379.717,275.56 372.037,268.679 	"/>
	<polygon points="382.757,314.119 367.717,316.199 387.397,320.92 	"/>
	<polygon points="367.717,316.199 377.797,331.159 387.397,320.92 	"/>
	<polygon points="382.757,309.319 367.717,306.92 382.757,314.119 	"/>
	<polygon points="367.717,306.92 367.717,316.199 382.757,314.119 	"/>
	<polygon points="407.877,300.52 407.877,289.159 392.837,300.52 	"/>
	<polygon points="395.397,255.879 395.397,270.279 412.996,263.56 	"/>
	<polygon points="395.397,270.279 403.316,273.879 412.996,263.56 	"/>
	<polygon points="403.316,273.879 423.236,278.599 412.996,263.56 	"/>
	<polygon points="372.037,268.679 379.717,275.56 372.117,265.56 	"/>
	<polygon points="379.717,275.56 395.397,270.279 395.397,255.879 	"/>
	<polygon points="374.437,263.079 379.717,275.56 395.397,255.879 	"/>
	<polygon points="372.117,265.56 379.717,275.56 374.437,263.079 	"/>
	<polygon points="468.836,256.04 474.436,270.759 477.316,257.319 	"/>
	<polygon points="469.637,270.119 474.436,270.759 468.836,256.04 	"/>
	<polygon points="462.036,274.04 469.637,270.119 451.796,263.719 	"/>
	<polygon points="442.275,278.919 462.036,274.04 451.796,263.719 	"/>
	<polygon points="478.916,268.04 479.875,261.959 477.316,257.319 	"/>
	<polygon points="474.436,270.759 478.916,268.04 477.316,257.319 	"/>
	<polygon points="451.796,263.719 469.637,270.119 468.836,256.04 	"/>
	<polygon points="454.115,337.319 456.596,336.359 442.275,333.799 	"/>
	<polygon points="457.636,281.319 462.036,274.04 442.275,278.919 	"/>
	<polygon points="456.596,336.359 457.636,333.799 442.275,333.799 	"/>
	<polygon points="445.796,337.319 454.115,337.319 442.275,333.799 	"/>
	<polygon points="457.636,333.799 457.636,281.319 442.275,333.799 	"/>
	<polygon points="442.275,333.799 457.636,281.319 442.275,278.919 	"/>
	<polygon points="496.994,320.039 504.515,332.68 512.354,317.639 	"/>
	<polygon points="496.994,270.599 496.994,320.039 512.354,317.639 	"/>
	<polygon points="527.234,270.599 527.234,257.319 512.354,270.599 	"/>
	<polygon points="512.354,270.599 496.994,270.599 512.354,317.639 	"/>
	<polygon points="527.234,257.319 512.354,257.319 512.354,270.599 	"/>
	<polygon points="512.354,257.319 496.994,270.599 512.354,270.599 	"/>
	<polygon points="512.354,317.639 504.515,332.68 515.314,322.199 	"/>
	<polygon points="526.435,323.56 528.675,336.68 529.475,323.959 	"/>
	<polygon points="529.475,323.959 528.675,336.68 530.915,326.279 	"/>
	<polygon points="528.675,336.68 531.555,332.359 530.915,326.279 	"/>
	<polygon points="515.314,322.199 518.595,338.76 520.034,324.52 	"/>
	<polygon points="504.515,332.68 518.595,338.76 515.314,322.199 	"/>
	<polygon points="518.595,338.76 528.675,336.68 520.034,324.52 	"/>
	<polygon points="520.034,324.52 528.675,336.68 526.435,323.56 	"/>
	<polygon points="487.875,270.599 496.994,270.599 496.994,257.319 	"/>
	<polygon points="498.034,238.439 496.994,241 500.515,237.479 	"/>
	<polygon points="487.875,257.319 487.875,270.599 496.994,257.319 	"/>
	<polygon points="484.354,260.839 487.875,270.599 487.875,257.319 	"/>
	<polygon points="500.515,237.479 496.994,241 508.835,237.479 	"/>
	<polygon points="484.354,267.079 487.875,270.599 484.354,260.839 	"/>
	<polygon points="508.835,237.479 496.994,241 512.354,241 	"/>
	<polygon points="512.354,241 496.994,257.319 512.354,257.319 	"/>
	<polygon points="496.994,257.319 496.994,270.599 512.354,257.319 	"/>
	<polygon points="511.395,238.52 508.835,237.479 512.354,241 	"/>
	<polygon points="530.755,260.839 527.234,257.319 530.755,267.079 	"/>
	<polygon points="496.994,241 496.994,257.319 512.354,241 	"/>
	<polygon points="530.755,267.079 527.234,257.319 527.234,270.599 	"/>
	<polygon points="572.193,338.76 585.474,331.719 580.913,320.84 	"/>
	<polygon points="555.073,331.079 572.193,338.76 565.233,320.84 	"/>
	<polygon points="565.233,320.84 572.193,338.76 573.153,324.52 	"/>
	<polygon points="580.913,320.84 585.474,331.719 585.474,313.799 	"/>
	<polygon points="545.313,315.719 555.073,331.079 560.673,313.799 	"/>
	<polygon points="560.673,313.799 555.073,331.079 565.233,320.84 	"/>
	<polygon points="599.793,258.279 597.313,257.319 600.833,260.839 	"/>
	<polygon points="585.474,260.839 585.474,313.799 600.833,260.839 	"/>
	<polygon points="585.474,313.799 600.833,345.799 600.833,260.839 	"/>
	<polygon points="597.313,257.319 585.474,260.839 600.833,260.839 	"/>
	<polygon points="588.993,257.319 585.474,260.839 597.313,257.319 	"/>
	<polygon points="585.474,331.719 600.833,345.799 585.474,313.799 	"/>
	<polygon points="560.673,260.839 545.313,315.719 560.673,313.799 	"/>
	<polygon points="573.153,324.52 572.193,338.76 580.913,320.84 	"/>
	<polygon points="557.153,349.159 550.913,361.479 572.673,355.239 	"/>
	<polygon points="550.913,361.479 572.833,369.479 572.673,355.239 	"/>
	<polygon points="572.673,355.239 572.833,369.479 580.833,351.479 	"/>
	<polygon points="572.833,369.479 590.993,361.72 580.833,351.479 	"/>
	<polygon points="551.713,350.919 550.913,361.479 557.153,349.159 	"/>
	<polygon points="549.313,356.359 550.913,361.479 551.713,350.919 	"/>
	<polygon points="590.993,361.72 600.833,345.799 585.474,344.359 	"/>
	<polygon points="546.354,258.279 545.313,260.839 548.833,257.319 	"/>
	<polygon points="548.833,257.319 545.313,260.839 557.153,257.319 	"/>
	<polygon points="580.833,351.479 590.993,361.72 585.474,344.359 	"/>
	<polygon points="557.153,257.319 545.313,260.839 560.673,260.839 	"/>
	<polygon points="545.313,260.839 545.313,315.719 560.673,260.839 	"/>
	<polygon points="585.474,344.359 600.833,345.799 585.474,331.719 	"/>
</g>
</svg>
