<?xml version="1.0" encoding="iso-8859-1"?>
<!-- Generator: Adobe Illustrator 21.0.1, SVG Export Plug-In . SVG Version: 6.00 Build 0)  -->
<svg version="1.1" id="&#x421;&#x43B;&#x43E;&#x439;_1"
	 xmlns="http://www.w3.org/2000/svg" xmlns:xlink="http://www.w3.org/1999/xlink" x="0px" y="0px" viewBox="0 0 71 73.25"
	 style="enable-background:new 0 0 71 73.25;" xml:space="preserve">
<g>
	<g>
		<path d="M41,73c-3.333,0-6.667,0-10,0c-1.182-0.474-2.33-1.083-3.553-1.4C9.016,66.817-2.413,48.355,1.541,29.694
			C5.316,11.88,23.569-0.492,41.742,2.446c16.243,2.626,28.478,16.667,29.369,33.705C71.958,52.335,60.636,67.421,44.553,71.6
			C43.33,71.918,42.182,72.526,41,73z M38.291,6.355c-1.615,9.254-1.42,9.662,6.114,13.237c7.336,3.482,12.041,11.665,11.234,19.539
			c-0.835,8.152-6.668,15.266-14.599,17.14c-7.895,1.866-14.787-0.385-20.626-6.65c-3.235,2.203-6.269,4.269-9.303,6.334
			c8.082,11.568,23.567,15.741,36.614,10.482c13.627-5.493,21.968-20.124,19.429-34.082C64.474,17.632,52.996,7.191,38.291,6.355z
			 M52.346,37.243c-0.022-9.321-7.58-16.774-16.809-16.577c-8.722,0.187-15.89,7.647-15.883,16.533
			c0.007,9.754,7.02,16.808,16.543,16.643C45.435,53.681,52.368,46.555,52.346,37.243z M9.485,52.983
			c2.326-1.521,4.687-2.598,6.368-4.332c1.057-1.091,1.858-3.384,1.466-4.766c-2.134-7.52-0.694-14.039,4.3-19.987
			c0.754-0.898,1.266-2.864,0.795-3.763c-1.411-2.697-3.364-5.11-5.103-7.628C4.203,21.975,0.518,41.161,9.485,52.983z
			 M33.394,5.707c-4.34,1.275-8.626,2.534-12.991,3.817c3.501,8.958,5.208,10.376,10.028,8.916
			C34.777,17.123,35.444,14.63,33.394,5.707z"/>
		<path style="fill:#FFFFFF;" d="M41,73c1.182-0.474,2.33-1.082,3.553-1.4c16.084-4.179,27.405-19.264,26.559-35.449
			C70.221,19.113,57.986,5.072,41.742,2.446C23.569-0.492,5.316,11.88,1.541,29.694C-2.413,48.355,9.016,66.817,27.447,71.6
			c1.223,0.317,2.37,0.927,3.553,1.4c-10.315,0-20.63,0-30.972,0c0-23.938,0-47.877,0-71.908c23.867,0,47.763,0,71.815,0
			c0,23.907,0,47.907,0,71.908C61.629,73,51.315,73,41,73z"/>
		<path style="fill:#FFFFFF;" d="M38.291,6.355c14.706,0.836,26.184,11.277,28.862,26.001c2.539,13.958-5.801,28.589-19.429,34.082
			c-13.047,5.259-28.532,1.086-36.614-10.482c3.034-2.066,6.068-4.132,9.303-6.334c5.839,6.265,12.731,8.516,20.626,6.65
			c7.931-1.874,13.764-8.988,14.599-17.14c0.807-7.874-3.898-16.058-11.234-19.539C36.87,16.017,36.675,15.609,38.291,6.355z"/>
		<path style="fill:#FFFFFF;" d="M52.346,37.243c0.022,9.312-6.911,16.438-16.149,16.599c-9.524,0.165-16.536-6.889-16.543-16.643
			c-0.007-8.886,7.161-16.346,15.883-16.533C44.765,20.469,52.324,27.922,52.346,37.243z"/>
		<path style="fill:#FFFFFF;" d="M9.485,52.983c-8.967-11.822-5.282-31.007,7.827-40.477c1.738,2.519,3.691,4.932,5.103,7.628
			c0.471,0.899-0.041,2.865-0.795,3.763c-4.995,5.948-6.434,12.467-4.3,19.987c0.392,1.383-0.409,3.676-1.466,4.766
			C14.171,50.385,11.811,51.462,9.485,52.983z"/>
		<path style="fill:#FFFFFF;" d="M33.394,5.707c2.05,8.923,1.383,11.416-2.964,12.733c-4.819,1.46-6.527,0.042-10.028-8.916
			C24.767,8.241,29.054,6.982,33.394,5.707z"/>
	</g>
</g>
</svg>
