<?xml version="1.0" encoding="iso-8859-1"?>
<!-- Generator: Adobe Illustrator 21.0.1, SVG Export Plug-In . SVG Version: 6.00 Build 0)  -->
<svg version="1.1" id="&#x421;&#x43B;&#x43E;&#x439;_1"
	 xmlns="http://www.w3.org/2000/svg" xmlns:xlink="http://www.w3.org/1999/xlink" x="0px" y="0px" viewBox="0 0 80.224 71.473"
	 style="enable-background:new 0 0 80.224 71.473;" xml:space="preserve">
<g>
	<g>
		<path d="M0.084,1.357C4.706-1.177,5.225,1.8,5.23,5.261c0.027,17.831-0.071,35.664,0.118,53.493
			c0.027,2.536-1.963,7.056,2.707,7.163c4.752,0.109,2.809-4.429,2.95-7.007c0.3-5.483,0.229-10.998,0.057-16.492
			c-0.123-3.929,1.57-5.248,5.38-5.208c12.678,0.133,10.715-0.608,10.865,10.619c0.063,4.665,0.028,9.332,0.016,13.998
			c-0.006,2.327,0.173,4.447,3.329,4.388c3.212-0.059,3.152-2.337,3.154-4.568c0.01-12.999,0.172-26-0.073-38.994
			c-0.089-4.703,1.342-6.51,6.22-6.437c10.047,0.151,10.05-0.068,10.052,10.192c0.002,11.499-0.028,22.998,0.035,34.496
			c0.012,2.215-0.538,5.203,3.032,5.152c3.691-0.053,2.758-3.166,2.766-5.28c0.071-18.165,0.177-36.331-0.045-54.493
			c-0.059-4.812,1.526-6.434,6.314-6.274C72.667,0.363,72.127-1.068,72.13,10.043c0.004,15.332,0.001,30.663,0.001,45.995
			c0,8.876,0,8.876,7.953,11.318c0.381,2.671,0.216,4.149-3.477,4.115c-24.419-0.223-48.841-0.17-73.261-0.039
			C0.628,71.447-0.019,70.954,0,68.139C0.15,45.879,0.084,23.618,0.084,1.357z M66.909,35.546c0-8.809,0.021-17.619-0.016-26.428
			c-0.008-1.955,0.282-4.262-2.725-4.354c-2.896-0.089-3.067,2-3.069,4.089c-0.016,17.618-0.023,35.237,0.003,52.856
			c0.003,1.991-0.091,4.29,2.802,4.37c3.331,0.092,2.978-2.494,2.988-4.604C66.936,52.832,66.911,44.189,66.909,35.546z
			 M38.36,43.353c0,6.159,0.008,12.319-0.004,18.478c-0.004,2.329,0.193,4.42,3.344,4.373c2.819-0.043,3.14-1.882,3.138-4.065
			c-0.008-12.152-0.006-24.304,0-36.456c0.001-2.148-0.215-4.027-3.08-4.1c-3.146-0.08-3.413,1.929-3.405,4.292
			C38.373,31.701,38.36,37.527,38.36,43.353z M22.069,54.584c0-2.992,0.056-5.985-0.02-8.975c-0.05-1.966-1.089-3.083-3.167-2.98
			c-1.931,0.095-2.53,1.36-2.536,3.033c-0.019,5.818-0.019,11.637,0.008,17.455c0.008,1.686,0.664,2.916,2.585,2.987
			c2.099,0.078,3.066-1.102,3.115-3.044C22.126,60.237,22.072,57.41,22.069,54.584z"/>
	</g>
</g>
</svg>
