<svg xmlns="http://www.w3.org/2000/svg" width="43.517" height="43.518" viewBox="0 0 43.517 43.518">
  <g id="donut" transform="translate(-0.003 0)">
    <path id="XMLID_1146_" d="M194.373,431.113a16.385,16.385,0,0,1-11.784.527.85.85,0,1,0-.543,1.611,18.084,18.084,0,0,0,13.011-.582.85.85,0,1,0-.685-1.555Z" transform="translate(-166.044 -394.411)" fill="#919ea2"/>
    <path id="XMLID_1179_" d="M166.331,174.75A8.328,8.328,0,1,0,158,166.422,8.337,8.337,0,0,0,166.331,174.75Zm0-14.956a6.628,6.628,0,1,1-6.628,6.628A6.636,6.636,0,0,1,166.331,159.794Z" transform="translate(-144.573 -144.659)" fill="#919ea2"/>
    <path id="XMLID_1183_" d="M184.975,47.343l-1.19,1.19a.85.85,0,1,0,1.2,1.2l1.19-1.19a.85.85,0,0,0-1.2-1.2Z" transform="translate(-167.937 -43.092)" fill="#919ea2"/>
    <path id="XMLID_1207_" d="M297.052,49.989a.85.85,0,0,0,.6-1.451l-1.189-1.189a.85.85,0,0,0-1.2,1.2l1.189,1.189A.847.847,0,0,0,297.052,49.989Z" transform="translate(-269.94 -43.098)" fill="#919ea2"/>
    <path id="XMLID_1209_" d="M129.5,180.94l-1.19,1.19a.85.85,0,1,0,1.2,1.2l1.19-1.19a.85.85,0,1,0-1.2-1.2Z" transform="translate(-117.172 -165.336)" fill="#919ea2"/>
    <path id="XMLID_1210_" d="M53.654,182.135l-1.189-1.189a.85.85,0,0,0-1.2,1.2l1.189,1.189a.85.85,0,0,0,1.2-1.2Z" transform="translate(-46.677 -165.342)" fill="#919ea2"/>
    <path id="XMLID_1228_" d="M352.589,182.13l-1.19-1.19a.85.85,0,1,0-1.2,1.2l1.19,1.19a.85.85,0,0,0,1.2-1.2Z" transform="translate(-320.207 -165.336)" fill="#919ea2"/>
    <path id="XMLID_1229_" d="M429.641,180.946a.85.85,0,0,0-1.2,0l-1.189,1.189a.85.85,0,1,0,1.2,1.2l1.189-1.189a.85.85,0,0,0,0-1.2Z" transform="translate(-390.712 -165.342)" fill="#919ea2"/>
    <path id="XMLID_1230_" d="M128.907,317.178a.847.847,0,0,0,.6-.249l1.19-1.19a.85.85,0,1,0-1.2-1.2l-1.19,1.19a.85.85,0,0,0,.6,1.451Z" transform="translate(-117.172 -287.58)" fill="#919ea2"/>
    <path id="XMLID_1363_" d="M52.466,314.543a.85.85,0,1,0-1.2,1.2l1.189,1.189a.85.85,0,0,0,1.2-1.2Z" transform="translate(-46.677 -287.586)" fill="#919ea2"/>
    <path id="XMLID_1497_" d="M351.386,316.93a.85.85,0,0,0,1.2-1.2l-1.19-1.19a.85.85,0,0,0-1.2,1.2Z" transform="translate(-320.206 -287.581)" fill="#919ea2"/>
    <path id="XMLID_1510_" d="M428.44,314.543l-1.189,1.189a.85.85,0,1,0,1.2,1.2l1.189-1.189a.85.85,0,0,0-1.2-1.2Z" transform="translate(-390.713 -287.585)" fill="#919ea2"/>
    <path id="XMLID_1563_" d="M86.449,247.739l-1.19,1.19a.85.85,0,1,0,1.2,1.2l1.19-1.19a.85.85,0,0,0-1.2-1.2Z" transform="translate(-77.783 -226.459)" fill="#919ea2"/>
    <path id="XMLID_1565_" d="M393.245,247.739a.85.85,0,0,0,0,1.2l1.19,1.19a.85.85,0,1,0,1.2-1.2l-1.19-1.19A.85.85,0,0,0,393.245,247.739Z" transform="translate(-359.597 -226.459)" fill="#919ea2"/>
    <path id="XMLID_1661_" d="M124.975,110.684l-1.19,1.19a.85.85,0,1,0,1.2,1.2l1.19-1.19a.85.85,0,0,0-1.2-1.2Z" transform="translate(-113.035 -101.051)" fill="#919ea2"/>
    <path id="XMLID_1662_" d="M200.838,110.689a.85.85,0,0,0,0,1.2l1.189,1.189a.85.85,0,1,0,1.2-1.2l-1.189-1.189A.85.85,0,0,0,200.838,110.689Z" transform="translate(-183.54 -101.055)" fill="#919ea2"/>
    <path id="XMLID_1758_" d="M277.881,111.874a.85.85,0,1,0,1.2,1.2l1.19-1.19a.85.85,0,0,0-1.2-1.2Z" transform="translate(-254.036 -101.051)" fill="#919ea2"/>
    <path id="XMLID_1789_" d="M357.324,111.878l-1.189-1.189a.85.85,0,0,0-1.2,1.2l1.189,1.189a.85.85,0,0,0,1.2-1.2Z" transform="translate(-324.54 -101.055)" fill="#919ea2"/>
    <path id="XMLID_1801_" d="M40.339,33.083a21.734,21.734,0,0,0-.651-23.647.85.85,0,1,0-1.4.964,20.033,20.033,0,0,1,.928,21.239,4.6,4.6,0,0,0-4.693,1.136,2.931,2.931,0,0,1-4.145,0,4.636,4.636,0,0,0-6.548,0,2.934,2.934,0,0,1-4.145,0,4.63,4.63,0,0,0-6.548,0,2.934,2.934,0,0,1-4.145,0A4.638,4.638,0,0,0,4.3,31.64,20.058,20.058,0,0,1,33.121,5.232a.85.85,0,0,0,.964-1.4A21.748,21.748,0,1,0,40.25,33.227a.847.847,0,0,0,.076-.116c0-.009.009-.019.013-.028Zm-4.4,2.861A20.062,20.062,0,0,1,5.252,33.156a2.935,2.935,0,0,1,2.539.82,4.636,4.636,0,0,0,6.548,0,2.934,2.934,0,0,1,4.145,0,4.636,4.636,0,0,0,6.548,0,2.934,2.934,0,0,1,4.145,0,4.636,4.636,0,0,0,6.548,0,2.915,2.915,0,0,1,2.542-.824A20.135,20.135,0,0,1,35.939,35.944Z" transform="translate(0 0)" fill="#919ea2"/>
    <path id="XMLID_1802_" d="M420.8,73.844a.85.85,0,1,0-.6-.249A.856.856,0,0,0,420.8,73.844Z" transform="translate(-384.263 -66.014)" fill="#919ea2"/>
  </g>
</svg>
