<svg xmlns="http://www.w3.org/2000/svg" width="48.988" height="57" viewBox="0 0 48.988 57">
  <g id="milk-box" transform="translate(-4.498 0.001)">
    <path id="Path_3385" data-name="Path 3385" d="M35.52,36.018a8.016,8.016,0,1,0,8.016,8.016A8.024,8.024,0,0,0,35.52,36.018Zm0,14.25a6.234,6.234,0,1,1,6.234-6.234A6.242,6.242,0,0,1,35.52,50.268Z" transform="translate(-2.516 -3.94)" fill="#919ea2"/>
    <path id="Path_3386" data-name="Path 3386" d="M35.4,40.314c-.484.54-2.9,3.322-2.9,5.049a3.562,3.562,0,0,0,7.125,0c0-1.726-2.415-4.509-2.9-5.049a.919.919,0,0,0-1.327,0Zm.664,6.83a1.783,1.783,0,0,1-1.781-1.781,8,8,0,0,1,1.781-3.074,8.132,8.132,0,0,1,1.781,3.074A1.784,1.784,0,0,1,36.066,47.144Z" transform="translate(-3.063 -4.379)" fill="#919ea2"/>
    <path id="Path_3387" data-name="Path 3387" d="M52.222.082,40.641,5.426a.845.845,0,0,0-.107.078.88.88,0,0,0-.161.118.83.83,0,0,0-.1.145,1,1,0,0,0-.085.142.9.9,0,0,0-.042.207.885.885,0,0,0-.024.119v.029l0,12.076-2.67-2.67V12.476a2.673,2.673,0,0,0-2.67-2.67H15.193a2.673,2.673,0,0,0-2.67,2.67v3.187L4.76,23.425a.9.9,0,0,0-.262.631V56.107h0a.876.876,0,0,0,.069.342.865.865,0,0,0,.135.2.7.7,0,0,0,.056.085.835.835,0,0,0,.143.1.873.873,0,0,0,.142.094A.869.869,0,0,0,5.389,57L5.4,57H21.414l.009,0,.009,0H44.583a.89.89,0,0,0,.891-.891V24.056a.9.9,0,0,0-.262-.631l-3.3-3.3L41.9,6.8,52.968,1.7A.891.891,0,0,0,52.222.082ZM15.193,11.587H34.786a.889.889,0,0,1,.889.889v2.672H14.3V12.476a.889.889,0,0,1,.889-.889ZM13.406,17.3l5.867,5.867H7.539Zm-.891,30.425L6.279,53.959V24.946h6.236ZM14.3,24.946h6.236V53.959L14.3,47.723Zm-.891,24.4,5.866,5.866H7.54Zm8.908-24.4H43.692v30.27H22.314Zm-.522-1.781-6.236-6.236H36.2l4.19,4.19,2.046,2.046Z" fill="#919ea2"/>
  </g>
</svg>
