<svg xmlns="http://www.w3.org/2000/svg" width="47" height="47" viewBox="0 0 47 47">
  <g id="nuts" transform="translate(0 0.001)">
    <path id="Path_3379" data-name="Path 3379" d="M18.312,289.229c4.413-4.413,5.454-11.422,1.3-15.578-4.2-4.2-11.216-3.065-15.579,1.3-4.653,4.653-5.236,11.642-1.3,15.58,4.1,4.1,11.124,3.156,15.579-1.3ZM5.329,276.247c3.791-3.791,9.65-4.631,12.982-1.3,3.464,3.464,2.33,9.354-1.3,12.982s-9.531,4.75-12.983,1.3c-3.221-3.222-2.638-9.046,1.3-12.983Zm0,0" transform="translate(-0.11 -246.147)" fill="#919ea2"/>
    <path id="Path_3380" data-name="Path 3380" d="M69.149,340.209c2.794-2.794,2.235-7.693,2.209-7.9a.918.918,0,0,0-.8-.8c-.207-.025-5.106-.585-7.9,2.21s-2.234,7.692-2.209,7.9a.918.918,0,0,0,.8.8c2.539.311,5.97-.28,7.9-2.209Zm-6.923.43c-.03-1.311.124-4.016,1.73-5.623s4.309-1.756,5.623-1.728c.028,1.314-.129,4.024-1.728,5.623s-4.311,1.756-5.625,1.728Zm0,0" transform="translate(-54.843 -301.021)" fill="#919ea2"/>
    <path id="Path_3381" data-name="Path 3381" d="M18.141,19.963A5.516,5.516,0,0,0,15.3,9.312a3.646,3.646,0,0,1-3.017-.827,3.712,3.712,0,0,1-1.262-2.94c0-.009,0-.019,0-.028V5.507A5.517,5.517,0,0,0,4.029.193,5.462,5.462,0,0,0,.214,3.967c-.9,3.294,1.131,8.341,4.837,12,3.585,3.54,8.328,5.366,13.09,4ZM1.984,4.452A3.6,3.6,0,0,1,4.5,1.968,3.682,3.682,0,0,1,9.183,5.5a5.539,5.539,0,0,0,1.9,4.369,5.477,5.477,0,0,0,4.548,1.245,3.757,3.757,0,0,1,3.619,1.1,3.675,3.675,0,0,1-1.613,5.98c-3.794,1.093-7.91-.2-11.293-3.537C3.13,11.491,1.257,7.1,1.984,4.452Zm0,0" transform="translate(0)" fill="#919ea2"/>
    <path id="Path_3382" data-name="Path 3382" d="M308.436,4.413,310.4,2.449a.918.918,0,0,0-1.3-1.3l-1.965,1.965a12.136,12.136,0,0,0-4.791-2.77,7.437,7.437,0,0,0-7.524,2.1c-3.976,3.976-4.193,11.342-2.835,16.463a.918.918,0,0,0,.652.652,26.737,26.737,0,0,0,6.141.726c4.423,0,7.991-1.23,10.321-3.561,3.706-3.706,2.825-8.425-.667-12.315Zm-1.93.631c1.307,1.307,3.946,4.463,2.932,7.783a9.285,9.285,0,0,0-3.23-2.789,7.615,7.615,0,0,0-3.337-.387.908.908,0,0,1-.971-.971,7.621,7.621,0,0,0-.388-3.338,9.281,9.281,0,0,0-2.789-3.229c3.321-1.014,6.476,1.625,7.783,2.932ZM293.641,17.91C293.2,15.8,291.9,7.963,296.12,3.747a7.61,7.61,0,0,1,.8-.7,9.177,9.177,0,0,1,2.9,2.993,5.984,5.984,0,0,1,.252,2.519,2.745,2.745,0,0,0,2.921,2.921,5.979,5.979,0,0,1,2.517.251,9.18,9.18,0,0,1,2.993,2.9,7.654,7.654,0,0,1-.7.8c-4.216,4.216-12.058,2.922-14.163,2.479Zm0,0" transform="translate(-264.499 -0.05)" fill="#919ea2"/>
    <path id="Path_3383" data-name="Path 3383" d="M303.546,296.907a.918.918,0,0,0-.97.863,18.581,18.581,0,0,1-.7,4.091,18.183,18.183,0,0,1-4.134.635,11.906,11.906,0,0,1-7.508-2.007c-2.646-1.968-5.3-5.961-4.9-7.365.47-1.648,7.252,1.469,8.813,2.243a.918.918,0,0,0,1.23-1.231c-.834-1.681-3.929-8.483-2.269-8.916.53-.138,1.749.141,3.582,1.338a14.641,14.641,0,0,1,4.617,4.582.918.918,0,0,0,1.606-.889,16.4,16.4,0,0,0-5.22-5.231c-1.445-.943-3.493-1.982-5.049-1.577a2.264,2.264,0,0,0-1.386,1.025c-1.885-.751-4.707-.876-6.1.511s-1.23,4.283-.438,6.232a2.252,2.252,0,0,0-1.158,1.41c-.745,2.616,2.8,7.28,5.574,9.341a13.691,13.691,0,0,0,8.946,2.356,15.009,15.009,0,0,0,5.056-1,.91.91,0,0,0,.19-.19,15.9,15.9,0,0,0,1.083-5.258.918.918,0,0,0-.863-.97ZM286.454,286.28c.767-.766,3.048-.631,4.368,0a17.282,17.282,0,0,0,1.812,6.354,17.743,17.743,0,0,0-6.061-1.766C285.87,289.491,285.668,287.066,286.454,286.28Zm0,0" transform="translate(-257.439 -257.345)" fill="#919ea2"/>
    <path id="Path_3384" data-name="Path 3384" d="M491.871,391.918a.918.918,0,1,1-.918-.918A.918.918,0,0,1,491.871,391.918Zm0,0" transform="translate(-445.051 -355.108)" fill="#919ea2"/>
  </g>
</svg>
