<svg xmlns="http://www.w3.org/2000/svg" width="50.467" height="40.217" viewBox="0 0 50.467 40.217">
  <g id="Group_2084" data-name="Group 2084" transform="translate(0 0)">
    <g id="Group_2083" data-name="Group 2083" transform="translate(0 0)">
      <path id="Path_2376" data-name="Path 2376" d="M50.351,110.811a.985.985,0,0,0-.869-.521H46.9c-.529-10.842-9.91-19.751-21.731-19.71-2.456-2.534-5.08-3.092-7.886-3.53-2.5-.39-4.656-.727-6.9-3.309a2.979,2.979,0,0,1-.564-2.273,3.217,3.217,0,0,0-.7-2.762c-1.143-1.143-3.054-.957-4.445.433A3.649,3.649,0,0,0,3.54,81.5a3.652,3.652,0,0,0-2.359,1.126c-1.39,1.391-1.575,3.3-.432,4.445a3.213,3.213,0,0,0,2.767.7,2.952,2.952,0,0,1,2.269.559c2.578,2.244,2.915,4.4,3.3,6.9.1.616.2,1.249.332,1.893A20.089,20.089,0,0,0,3.58,110.291H.993a.986.986,0,0,0-.82,1.532l2.772,4.158a4.915,4.915,0,0,0,4.1,2.195H43.43a4.915,4.915,0,0,0,4.1-2.194l2.772-4.158A.985.985,0,0,0,50.351,110.811ZM7.078,86.843a4.608,4.608,0,0,0-3.071-1.075c-.711,0-1.552.219-1.865-.094-.294-.294-.212-1.012.433-1.657a1.637,1.637,0,0,1,1.7-.488.986.986,0,0,0,1.3-1.286,1.633,1.633,0,0,1,.484-1.711c.646-.645,1.364-.727,1.658-.433.061.061.247.247.141,1.136a4.835,4.835,0,0,0,1.033,3.8c2.715,3.126,5.444,3.552,8.083,3.965,2.857.446,4.984.95,7.033,3.231a8.746,8.746,0,0,1,1.337,1.978,7.036,7.036,0,0,1-.993,8.1c-2.69,2.689-7.38,2.376-10.455-.7-2.012-2.007-2.46-4.126-2.86-6.686C10.624,92.285,10.2,89.559,7.078,86.843Zm2.992,12.473A10.924,10.924,0,0,0,12.5,103c3.8,3.8,9.743,4.195,13.241.7a8.96,8.96,0,0,0,1.369-10.363c-.123-.25-.256-.495-.4-.735,9.84.7,17.692,8.284,18.207,17.687H5.554A18.064,18.064,0,0,1,10.071,99.316ZM45.89,114.888a2.948,2.948,0,0,1-2.46,1.316H7.045a2.948,2.948,0,0,1-2.46-1.316l-1.751-2.626H47.641Z" transform="translate(-0.001 -77.958)" fill="#919ea2"/>
    </g>
  </g>
</svg>
