<svg xmlns="http://www.w3.org/2000/svg" width="32.208" height="39.63" viewBox="0 0 32.208 39.63">
  <g id="coffee" transform="translate(-0.5)">
    <path id="Path_3377" data-name="Path 3377" d="M31.165,3.58H29.238L28.7.985A1.239,1.239,0,0,0,27.494,0H5.714A1.239,1.239,0,0,0,4.5.985l-.535,2.6H2.043A1.545,1.545,0,0,0,.5,5.123V7.674A1.545,1.545,0,0,0,2.043,9.217H2.8l.429,3.015A1.353,1.353,0,0,0,2.561,13.6L5.426,33.723a1.364,1.364,0,0,0,1.023,1.125l.408,2.865A2.242,2.242,0,0,0,9.064,39.63H24.143a2.242,2.242,0,0,0,2.209-1.917l.408-2.865a1.364,1.364,0,0,0,1.023-1.125L30.646,13.6a1.353,1.353,0,0,0-.668-1.367l.429-3.015h.757a1.545,1.545,0,0,0,1.543-1.543V5.123A1.545,1.545,0,0,0,31.165,3.58ZM29.5,13.435,26.632,33.559a.2.2,0,0,1-.193.167H20.878a.581.581,0,0,0,0,1.162h4.7L25.2,37.549a1.074,1.074,0,0,1-1.058.918H9.064a1.074,1.074,0,0,1-1.058-.918l-.379-2.661H18.174a.581.581,0,1,0,0-1.162H6.769a.2.2,0,0,1-.193-.167L3.712,13.435a.193.193,0,0,1,.046-.155.2.2,0,0,1,.137-.066l.024,0H29.289l.024,0a.2.2,0,0,1,.137.066.193.193,0,0,1,.046.155ZM3.974,9.217h25.26l-.4,2.834H4.377ZM31.546,7.674a.381.381,0,0,1-.381.381H2.043a.381.381,0,0,1-.381-.381V5.123a.381.381,0,0,1,.381-.381h5.2a.581.581,0,0,0,0-1.162H5.156l.487-2.36a.073.073,0,0,1,.071-.058h21.78a.073.073,0,0,1,.071.058l.487,2.36H9.946a.581.581,0,1,0,0,1.162H31.165a.381.381,0,0,1,.381.381Zm0,0" transform="translate(0 0)" fill="#919ea2"/>
    <path id="Path_3378" data-name="Path 3378" d="M146.123,226.87l-.012-.012c-1.931-1.911-5.45-1.515-7.855.891a7.035,7.035,0,0,0-2.064,4.045,4.486,4.486,0,0,0,1.187,3.825h0l0,0a4.334,4.334,0,0,0,3.125,1.226,5.687,5.687,0,0,0,.695-.044,7.038,7.038,0,0,0,4.045-2.064c2.411-2.412,2.8-5.942.877-7.87l0,0Zm-8.778,5.067a5.873,5.873,0,0,1,1.732-3.367,5.7,5.7,0,0,1,3.907-1.77,3.441,3.441,0,0,1,1.647.394,6.244,6.244,0,0,0-2.952,3.41c-.4,1.469-2.576,3.1-3.77,3.851A3.483,3.483,0,0,1,137.345,231.937Zm7.083,1.984a5.871,5.871,0,0,1-3.367,1.732,3.6,3.6,0,0,1-2.255-.394c1.2-.791,3.493-2.509,4-4.349A5.483,5.483,0,0,1,145.57,228c1.15,1.531.687,4.089-1.143,5.919Zm0,0" transform="translate(-125.148 -208.183)" fill="#919ea2"/>
  </g>
</svg>
