<svg xmlns="http://www.w3.org/2000/svg" width="33.515" height="28.278" viewBox="0 0 33.515 28.278">
  <g id="green-tea" transform="translate(0 -40)">
    <path id="XMLID_658_" d="M25.791,59.269a7.724,7.724,0,0,0,.651-15.42V40.655A.655.655,0,0,0,25.787,40H2.222a.655.655,0,0,0-.655.655V50.7a20.863,20.863,0,0,0,.694,5.341,8.613,8.613,0,0,0-1.607-.152A.655.655,0,0,0,0,56.543a8.594,8.594,0,0,0,4.039,7.284H.655A.655.655,0,0,0,0,64.481v.094a3.706,3.706,0,0,0,3.7,3.7h7.243a.655.655,0,0,0,0-1.309H3.7a2.4,2.4,0,0,1-2.327-1.833H26.406a2.4,2.4,0,0,1-2.327,1.833H16.836a.655.655,0,0,0,0,1.309h7.243a3.706,3.706,0,0,0,3.7-3.7v-.094a.655.655,0,0,0-.655-.655H21.8a20.857,20.857,0,0,0,2.806-4.558Zm6.415-7.724a6.422,6.422,0,0,1-6.415,6.415h-.648q.287-.774.512-1.571h.137a4.843,4.843,0,0,0,.651-9.643V45.163A6.424,6.424,0,0,1,32.205,51.545Zm-5.764-3.474a3.534,3.534,0,0,1-.461,7,20.979,20.979,0,0,0,.461-4.381Zm-1.309-4.925h-5.02V41.309h5.02v1.837ZM18.8,41.309v1.837H2.877V41.309ZM1.341,57.23A7.279,7.279,0,0,1,3.977,58a8.668,8.668,0,0,0,.286,1.833A8.55,8.55,0,0,0,6.249,63.44a7.3,7.3,0,0,1-4.907-6.21Zm7,6.314a7.23,7.23,0,0,1-2.815-4.052,7.326,7.326,0,0,1-.251-1.851.645.645,0,0,0,0-.071,7.214,7.214,0,0,1,.662-2.995,7.3,7.3,0,0,1,2.4,8.969Zm1.305.283A8.606,8.606,0,0,0,6.016,53.07a.655.655,0,0,0-.894.24,8.575,8.575,0,0,0-1.094,3.268q-.141-.06-.284-.116A19.555,19.555,0,0,1,2.877,50.7V44.455H18.8V48.01H17.719A1.5,1.5,0,0,0,16.226,49.5v3.559a1.5,1.5,0,0,0,1.493,1.493h3.559a1.5,1.5,0,0,0,1.493-1.493V49.5a1.5,1.5,0,0,0-1.493-1.493H20.113V44.455h5.02v6.239a19.638,19.638,0,0,1-.6,4.824.655.655,0,0,0-.028.113,19.469,19.469,0,0,1-.9,2.668.651.651,0,0,0-.052.123,19.578,19.578,0,0,1-3.469,5.4H9.648ZM21.279,49.32a.184.184,0,0,1,.184.184v3.559a.184.184,0,0,1-.184.184H17.719a.184.184,0,0,1-.184-.184V49.5a.184.184,0,0,1,.184-.184Z" fill="#919ea2"/>
    <path id="XMLID_1939_" d="M202.865,452a.655.655,0,1,0,.463.192A.662.662,0,0,0,202.865,452Z" transform="translate(-188.974 -385.031)" fill="#919ea2"/>
  </g>
</svg>
