<svg xmlns="http://www.w3.org/2000/svg" width="28.376" height="39.055" viewBox="0 0 28.376 39.055">
  <g id="juice" transform="translate(-70)">
    <path id="XMLID_276_" d="M96.263,17.079a2.288,2.288,0,0,0,0-4.562A12.371,12.371,0,0,0,87.6,3.081a.763.763,0,0,0-.212-.03h-.755V.763A.763.763,0,0,0,85.866,0H82.815a.763.763,0,0,0-.763.763V3.051H80.916a.76.76,0,0,0-.212.03,12.371,12.371,0,0,0-8.67,9.443,2.288,2.288,0,0,0,.255,4.562h.2L73,21.7h0l.525,4.8a.763.763,0,0,0,1.517-.166l-.432-3.95h7.445v2.031a2.394,2.394,0,0,0-1.888.693l-2.37,2.37a2.4,2.4,0,0,0,0,3.392l2.37,2.37a2.391,2.391,0,0,0,1.7.7c.064,0,.128,0,.192-.008v3.6H78.317a2.285,2.285,0,0,1-2.275-2.039l-.255-2.333a.763.763,0,0,0-1.517.166l.255,2.333a3.809,3.809,0,0,0,3.791,3.4H90.439a3.809,3.809,0,0,0,3.791-3.4L95.758,21.7v0ZM85.1,14.035v1.526H83.578V14.035ZM83.578,12.51V4.577H85.1V12.51ZM85.1,17.087v3.771H83.578V17.087Zm1.526,0h8.1l-.413,3.771H86.629ZM96.85,14.8a.764.764,0,0,1-.763.763H86.629V14.035h9.459A.764.764,0,0,1,96.85,14.8ZM87.273,4.577A10.845,10.845,0,0,1,94.7,12.51H86.629V4.577Zm-3.7-3.051H85.1V3.051H83.578ZM81.026,4.577h1.026V12.51H73.6A10.845,10.845,0,0,1,81.026,4.577ZM71.526,14.8a.764.764,0,0,1,.763-.763h9.764v1.526H72.288a.764.764,0,0,1-.763-.763Zm2.915,6.059-.413-3.771h8.025v3.771ZM85.1,22.383v4.271l-1.526-1.526V22.383ZM83.578,33.218,85.1,31.693v2.47l-1.526,1.526Zm-2.335-1.057-2.37-2.37a.874.874,0,0,1,0-1.235l2.37-2.37a.874.874,0,0,1,1.235,0l2.37,2.37a.874.874,0,0,1,0,1.235l-2.37,2.37A.874.874,0,0,1,81.243,32.161Zm9.2,5.369H83.894l2.512-2.512a.763.763,0,0,0,.223-.539v-12.1h7.519l-.755,6.9-.361-.361a2.355,2.355,0,0,0-3.326,0l-.936.936a2.352,2.352,0,0,0,0,3.326l.936.936a2.355,2.355,0,0,0,3.139.168l-.131,1.2A2.285,2.285,0,0,1,90.439,37.53Zm1.515-4.487a.827.827,0,0,1-1.169,0l-.936-.936a.826.826,0,0,1,0-1.169L90.785,30a.827.827,0,0,1,1.169,0l.936.936a.827.827,0,0,1,0,1.169Z" fill="#919ea2"/>
    <path id="XMLID_1534_" d="M122.322,382.332a.762.762,0,1,0-.539.223A.769.769,0,0,0,122.322,382.332Z" transform="translate(-47.128 -351.965)" fill="#919ea2"/>
  </g>
</svg>
