<svg xmlns="http://www.w3.org/2000/svg" width="75.937" height="42.316" viewBox="0 0 75.937 42.316">
  <g id="Group_3153" data-name="Group 3153" transform="translate(-181.747 -353.747)">
    <g id="bagel" transform="translate(181.747 353.747)">
      <g id="Group_3136" data-name="Group 3136">
        <g id="Group_3135" data-name="Group 3135">
          <path id="Path_3400" data-name="Path 3400" d="M42.253,31.349V29.3a4.776,4.776,0,0,0-4.771-4.771H26.549A14.99,14.99,0,1,0,0,14.993,14.941,14.941,0,0,0,10.9,29.408v1.941a1.364,1.364,0,0,0,1.363,1.363h.379a2.641,2.641,0,0,0,0,2.726h-.379A1.364,1.364,0,0,0,10.9,36.8v2.045a3.411,3.411,0,0,0,3.408,3.408H38.846a3.411,3.411,0,0,0,3.408-3.408V36.8a1.364,1.364,0,0,0-1.363-1.363,4.068,4.068,0,0,0-1.05-2.726h1.05A1.364,1.364,0,0,0,42.253,31.349ZM11.079,28.041a13.621,13.621,0,1,1,13.65-3.509l0,0H15.675A4.775,4.775,0,0,0,11.079,28.041ZM40.89,36.8v2.045a2.047,2.047,0,0,1-2.045,2.045H14.312a2.047,2.047,0,0,1-2.045-2.045V36.8ZM13.63,34.075a1.364,1.364,0,0,1,1.363-1.363,2.729,2.729,0,0,1,2.726,2.726H14.993A1.364,1.364,0,0,1,13.63,34.075Zm4.4-1.363H18.1c-.009.015-.016.031-.025.046Zm1.05,1.363a1.364,1.364,0,0,1,1.363-1.363,2.729,2.729,0,0,1,2.726,2.726H20.445A1.364,1.364,0,0,1,19.082,34.075Zm4.4-1.363h.066c-.009.015-.016.031-.025.046Zm1.05,1.363A1.364,1.364,0,0,1,25.9,32.712a2.729,2.729,0,0,1,2.726,2.726H25.9A1.364,1.364,0,0,1,24.534,34.075Zm4.4-1.363H29c-.009.015-.016.031-.025.046Zm1.05,1.363a1.364,1.364,0,0,1,1.363-1.363,2.729,2.729,0,0,1,2.726,2.726H31.349A1.364,1.364,0,0,1,29.986,34.075Zm4.4-1.363h.066c-.009.015-.016.031-.025.046Zm1.05,1.363A1.364,1.364,0,0,1,36.8,32.712a2.729,2.729,0,0,1,2.726,2.726H36.8A1.364,1.364,0,0,1,35.438,34.075ZM12.267,31.349V29.3A3.411,3.411,0,0,1,15.675,25.9H37.483A3.411,3.411,0,0,1,40.89,29.3v2.045Z" fill="#919ea2"/>
        </g>
      </g>
      <g id="Group_3138" data-name="Group 3138" transform="translate(10.663 3.067)">
        <g id="Group_3137" data-name="Group 3137">
          <path id="Path_3401" data-name="Path 3401" d="M126.612,36.008a12.332,12.332,0,0,0-1.444.445l.482,1.275a10.864,10.864,0,0,1,1.283-.4Z" transform="translate(-125.168 -36.008)" fill="#919ea2"/>
        </g>
      </g>
      <g id="Group_3140" data-name="Group 3140" transform="translate(2.726 4.043)">
        <g id="Group_3139" data-name="Group 3139">
          <path id="Path_3402" data-name="Path 3402" d="M38.733,47.456A12.218,12.218,0,0,0,32,58.406h1.363a10.86,10.86,0,0,1,5.986-9.735Z" transform="translate(-32 -47.456)" fill="#919ea2"/>
        </g>
      </g>
      <g id="Group_3142" data-name="Group 3142" transform="translate(8.178 8.178)">
        <g id="Group_3141" data-name="Group 3141">
          <path id="Path_3403" data-name="Path 3403" d="M102.815,96a6.815,6.815,0,1,0,6.815,6.815A6.823,6.823,0,0,0,102.815,96Zm0,12.267a5.452,5.452,0,1,1,5.452-5.452A5.458,5.458,0,0,1,102.815,108.267Z" transform="translate(-96 -96)" fill="#919ea2"/>
        </g>
      </g>
      <g id="Group_3144" data-name="Group 3144" transform="translate(16.356 27.26)">
        <g id="Group_3143" data-name="Group 3143">
          <rect id="Rectangle_748" data-name="Rectangle 748" width="1.363" height="1.363" fill="#919ea2"/>
        </g>
      </g>
      <g id="Group_3146" data-name="Group 3146" transform="translate(23.853 28.623)">
        <g id="Group_3145" data-name="Group 3145">
          <rect id="Rectangle_749" data-name="Rectangle 749" width="1.363" height="1.363" fill="#919ea2"/>
        </g>
      </g>
      <g id="Group_3148" data-name="Group 3148" transform="translate(30.668 27.942)">
        <g id="Group_3147" data-name="Group 3147">
          <rect id="Rectangle_750" data-name="Rectangle 750" width="1.363" height="1.363" fill="#919ea2"/>
        </g>
      </g>
      <g id="Group_3150" data-name="Group 3150" transform="translate(36.12 28.623)">
        <g id="Group_3149" data-name="Group 3149">
          <rect id="Rectangle_751" data-name="Rectangle 751" width="1.363" height="1.363" fill="#919ea2"/>
        </g>
      </g>
    </g>
    <g id="coffee" transform="translate(229.5 362)">
      <path id="Path_3377" data-name="Path 3377" d="M26.857,3.077H25.2L24.741.847A1.065,1.065,0,0,0,23.7,0H4.982A1.065,1.065,0,0,0,3.942.847l-.46,2.231H1.826A1.328,1.328,0,0,0,.5,4.4V6.6A1.328,1.328,0,0,0,1.826,7.922h.651l.369,2.591a1.163,1.163,0,0,0-.574,1.175l2.462,17.3a1.173,1.173,0,0,0,.879.967l.35,2.463a1.927,1.927,0,0,0,1.9,1.647H20.822a1.927,1.927,0,0,0,1.9-1.647l.35-2.463a1.173,1.173,0,0,0,.879-.967l2.462-17.3a1.163,1.163,0,0,0-.574-1.175l.369-2.591h.651A1.328,1.328,0,0,0,28.184,6.6V4.4a1.328,1.328,0,0,0-1.326-1.326Zm-1.435,8.471-2.462,17.3a.168.168,0,0,1-.166.144h-4.78a.5.5,0,0,0,0,1h4.042l-.326,2.287a.923.923,0,0,1-.91.789H7.861a.923.923,0,0,1-.91-.789l-.325-2.287h9.065a.5.5,0,1,0,0-1h-9.8a.168.168,0,0,1-.166-.144l-2.462-17.3a.166.166,0,0,1,.039-.133.167.167,0,0,1,.118-.056H25.266a.167.167,0,0,1,.118.056.166.166,0,0,1,.039.133ZM3.486,7.922H25.2l-.347,2.436H3.833ZM27.185,6.6a.328.328,0,0,1-.327.327H1.826A.328.328,0,0,1,1.5,6.6V4.4a.328.328,0,0,1,.327-.327H6.3a.5.5,0,0,0,0-1H4.5l.418-2.029A.063.063,0,0,1,4.982,1H23.7a.063.063,0,0,1,.061.05l.418,2.029H8.62a.5.5,0,1,0,0,1H26.857a.328.328,0,0,1,.327.327Zm0,0" transform="translate(0 0)" fill="#919ea2"/>
      <path id="Path_3378" data-name="Path 3378" d="M144.722,226.7l-.011-.01c-1.66-1.643-4.684-1.3-6.752.766a6.047,6.047,0,0,0-1.774,3.477,3.856,3.856,0,0,0,1.021,3.288h0l0,0a3.725,3.725,0,0,0,2.686,1.054,4.888,4.888,0,0,0,.6-.038,6.049,6.049,0,0,0,3.477-1.774c2.073-2.073,2.411-5.107.753-6.765l0,0Zm-7.545,4.356a5.048,5.048,0,0,1,1.489-2.894,4.9,4.9,0,0,1,3.358-1.521,2.958,2.958,0,0,1,1.416.339,5.367,5.367,0,0,0-2.537,2.931c-.345,1.263-2.214,2.662-3.24,3.31A2.994,2.994,0,0,1,137.176,231.054Zm6.088,1.705a5.047,5.047,0,0,1-2.894,1.489,3.091,3.091,0,0,1-1.938-.339c1.03-.68,3-2.156,3.434-3.738a4.713,4.713,0,0,1,2.38-2.5c.989,1.316.59,3.515-.982,5.088Zm0,0" transform="translate(-126.623 -210.637)" fill="#919ea2"/>
    </g>
  </g>
</svg>
