<svg id="Group_2078" data-name="Group 2078" xmlns="http://www.w3.org/2000/svg" width="48.491" height="32.432" viewBox="0 0 48.491 32.432">
  <g id="Group_2077" data-name="Group 2077" transform="translate(0 0)">
    <path id="Path_2373" data-name="Path 2373" d="M48.383,106.163c-.037-.234-.082-.472-.138-.71a9.354,9.354,0,0,0-4.678-5.882V93.365a.946.946,0,0,0-.185-.627c-4.116-5.518-14.7-7.958-21.6-7.958a32.517,32.517,0,0,0-7.472.851C7.257,87.3,0,91.964,0,98.986v9.079a6.454,6.454,0,0,0,2.807,5.422,22.447,22.447,0,0,0,12.49,3.725,23.609,23.609,0,0,0,7.391-1.187c5.613-1.848,14.186-2.9,22.927-2.826h.026a2.836,2.836,0,0,0,2.85-2.837V106.6A.942.942,0,0,0,48.383,106.163Zm-2.048-.534c-.541-.009-1.087-.013-1.632-.013a103.357,103.357,0,0,0-12.971.817l4.952-6.5h1.187C41.444,99.933,45.366,102.18,46.335,105.629ZM29.06,106.816a57.11,57.11,0,0,0-8.74,2.013c-.37.122-.745.228-1.122.323l7.023-9.218H34.3Zm12.612-8.108a11.423,11.423,0,0,0-3.8-.668H24.624a1.894,1.894,0,1,1,0-3.788H41.672Zm-1.244-6.351H31.994l2.542-3.336A20.326,20.326,0,0,1,40.428,92.357ZM15.055,87.4a30.721,30.721,0,0,1,6.728-.73c.259,0,.522,0,.785.011l-5.1,6.7a.947.947,0,0,0,1.507,1.148l5.877-7.714a36.889,36.889,0,0,1,7.805,1.548l-3.044,3.995H24.624a3.788,3.788,0,0,0-.731,7.505l-7.411,9.728a15.384,15.384,0,0,1-7.858-1.478l5.768-7.569A.947.947,0,1,0,12.885,99.4l-5.916,7.764a13.892,13.892,0,0,1-1.2-.9,11.512,11.512,0,0,1-3.083-3.841Zm-3.225.937L2.005,100.27a7.646,7.646,0,0,1-.111-1.284C1.894,93.816,6.9,90.123,11.83,88.341ZM46.6,110.363a.943.943,0,0,1-.956.942h-.009c-8.94-.079-17.737,1.012-23.536,2.921a21.716,21.716,0,0,1-6.8,1.092,20.558,20.558,0,0,1-11.441-3.407,4.566,4.566,0,0,1-1.962-3.845v-3.247a16.274,16.274,0,0,0,13.426,6.71c4.946,0,5.394-1.516,14.478-2.911a99.957,99.957,0,0,1,14.9-1.107c.634,0,1.268.007,1.894.019Z" transform="translate(0 -84.78)" fill="#919ea2"/>
  </g>
</svg>
