<svg xmlns="http://www.w3.org/2000/svg" width="41.087" height="45.932" viewBox="0 0 41.087 45.932">
  <path id="XMLID_1845_" d="M52.837,10.586H36.24a2.6,2.6,0,1,1,0-5.2H51.478a.9.9,0,1,0,0-1.794H36.24a4.392,4.392,0,0,0-3.562,6.967,4.4,4.4,0,0,1,.512-8.761H55.646a.9.9,0,1,0,0-1.794H33.19a6.19,6.19,0,0,0-1.323,12.236A13.122,13.122,0,0,0,43.581,24.513a4.462,4.462,0,0,0-.955,2.762.9.9,0,0,0,1.794,0,2.694,2.694,0,0,1,2.691-2.691h1.063a4.462,4.462,0,0,0-.9,2.691.9.9,0,1,0,1.794,0,2.7,2.7,0,0,1,2.065-2.617,4.483,4.483,0,0,1-.808,8.893H45.869a3.745,3.745,0,0,0-1.976.561,5.64,5.64,0,0,0-5.629-5.406.9.9,0,0,0-.9.9v2.978a5.634,5.634,0,0,0,2.59,4.737,5.633,5.633,0,0,0-2.59,4.737v2.978a.9.9,0,0,0,.9.9,5.641,5.641,0,0,0,5.629-5.406,3.745,3.745,0,0,0,1.976.561h6.968a15.251,15.251,0,1,0,0-30.5ZM33.674,12.38h17.3a7.742,7.742,0,0,1-.029,10.441c-.2-.02-.409-.031-.617-.031H44.946A11.322,11.322,0,0,1,33.674,12.38ZM52.859,23.325a9.551,9.551,0,0,0,.381-10.939,13.459,13.459,0,0,1,10.886,6.135.907.907,0,0,0-.008.112,8.483,8.483,0,0,1-7.837,8.448,6.309,6.309,0,0,0-3.422-3.756Zm-13.7,7.282A3.847,3.847,0,0,1,42.1,34.342v1.975a3.847,3.847,0,0,1-2.943-3.734ZM42.1,40.3a3.847,3.847,0,0,1-2.943,3.734V42.057A3.847,3.847,0,0,1,42.1,38.322Zm3.764-1a1.976,1.976,0,0,1-1.97-1.857V37.2a1.976,1.976,0,0,1,1.97-1.857h4.458A6.245,6.245,0,0,0,54.08,34.1a6.528,6.528,0,0,0,3.768,4.228,13.385,13.385,0,0,1-5.011.969Zm14.438-2.269a4.71,4.71,0,0,1-4.679-4.6,6.239,6.239,0,0,0,.977-3.357c0-.072,0-.142-.005-.213a10.291,10.291,0,0,0,8.937-7.467,13.448,13.448,0,0,1-5.229,15.636Z" transform="translate(-27)" fill="#919ea2"/>
</svg>
