<svg xmlns="http://www.w3.org/2000/svg" width="16.353" height="43.864" viewBox="0 0 16.353 43.864">
  <path id="soda" d="M16.236,26.971c.047-.281.1-.566.15-.854a24.816,24.816,0,0,0,.454-3.524v0c.008-.218.012-.438.011-.664a12.985,12.985,0,0,0-1.9-6.709c-1.828-3.341-2.323-4.964-2.5-6.373a.649.649,0,1,0-1.287.165c.238,1.864.982,3.779,2.651,6.831.145.265.278.52.4.77H12.8a.649.649,0,1,0,0,1.3h2a10.709,10.709,0,0,1,.751,3.867,13.367,13.367,0,0,1-4.435-2.143,26.77,26.77,0,0,0-2.822-1.724H9.751a.649.649,0,1,0,0-1.3H3.131c.124-.249.258-.5.4-.77,2.793-5.1,2.782-6.684,2.76-9.83,0-.332,0-.693,0-1.08h4.769c0,.338,0,.666,0,1.012A.649.649,0,0,0,11.7,6.6h0a.649.649,0,0,0,.649-.644c0-.434,0-4.438,0-4.438A1.516,1.516,0,0,0,10.838,0H6.512A1.516,1.516,0,0,0,5,1.514s0,3.992,0,4.507c.021,3.013.03,4.388-2.6,9.2A12.983,12.983,0,0,0,.5,21.927a21.907,21.907,0,0,0,.465,4.191c.052.288.1.572.15.853.286,1.7.536,3.221.7,4.533A.649.649,0,1,0,3.1,31.342c-.146-1.16-.355-2.467-.6-3.916H14.844c-.963,5.76-1.422,9.053.515,12.667a1.667,1.667,0,0,1,.194.786,1.689,1.689,0,0,1-1.688,1.688H3.485A1.69,1.69,0,0,1,1.8,40.879a1.668,1.668,0,0,1,.194-.786,11.2,11.2,0,0,0,1.344-5.619.649.649,0,0,0-.649-.646h0a.649.649,0,0,0-.646.652,9.836,9.836,0,0,1-1.19,5,2.985,2.985,0,0,0,2.637,4.384h10.38A2.985,2.985,0,0,0,16.5,39.48c-1.732-3.232-1.358-6-.266-12.509h0ZM6.512,1.3h4.326a.217.217,0,0,1,.216.216v2.12H6.3V1.514A.217.217,0,0,1,6.512,1.3ZM5.032,17.909A21.916,21.916,0,0,1,10.377,20.7a14.293,14.293,0,0,0,5.134,2.4,27.66,27.66,0,0,1-.4,2.792l-.043.24h-2.7a21.445,21.445,0,0,1-5.385-2.792,14.028,14.028,0,0,0-5.139-2.4,10.527,10.527,0,0,1,.709-3.026h2.48ZM2.241,25.888A22.305,22.305,0,0,1,1.8,22.253,13.127,13.127,0,0,1,6.243,24.4,25.034,25.034,0,0,0,9.07,26.128H2.284c-.014-.08-.028-.16-.043-.24Zm0,0" transform="translate(-0.498 0)" fill="#919ea2"/>
</svg>
