<svg xmlns="http://www.w3.org/2000/svg" width="46.317" height="46.32" viewBox="0 0 46.317 46.32">
  <g id="salad" transform="translate(-0.017 -0.001)">
    <g id="Group_2092" data-name="Group 2092" transform="translate(0.017 29.338)">
      <g id="Group_2091" data-name="Group 2091" transform="translate(0)">
        <path id="Path_2380" data-name="Path 2380" d="M45.562,324.28H.789a.772.772,0,0,0-.772.772,16.229,16.229,0,0,0,16.211,16.211h13.9a16.23,16.23,0,0,0,16.211-16.211A.771.771,0,0,0,45.562,324.28ZM30.123,339.719h-13.9a14.686,14.686,0,0,1-14.647-13.9H44.77A14.686,14.686,0,0,1,30.123,339.719Z" transform="translate(-0.017 -324.28)" fill="#919ea2"/>
      </g>
    </g>
    <g id="Group_2094" data-name="Group 2094" transform="translate(16.228 0.001)">
      <g id="Group_2093" data-name="Group 2093" transform="translate(0 0)">
        <path id="Path_2381" data-name="Path 2381" d="M202.364,10.816c0-.056,0-.113-.006-.2A3.206,3.206,0,0,0,200.2,7.892l.874-.874a4.134,4.134,0,0,0,.341-5.536,4.058,4.058,0,0,0-5.706-.552c-.1.081-.193.167-.288.262l-.949.963a3.222,3.222,0,0,0-2.75-2.15,3.085,3.085,0,0,0-3.249,2.919c0,.056,0,.113,0,.168V4.276a3.069,3.069,0,0,0-1.541-.415c-.056,0-.113,0-.2.006a3.2,3.2,0,0,0-2.892,3.216v1.05a3.078,3.078,0,0,0-1.541-.412c-.056,0-.112,0-.2.006a3.2,3.2,0,0,0-2.893,3.216V22.391a.772.772,0,0,0,.772.772H193.1a3.085,3.085,0,0,0,2.672-4.63h1.043a3.2,3.2,0,0,0,3.231-2.923,3.069,3.069,0,0,0-.422-1.728,3.088,3.088,0,0,0,2.742-3.065Zm-2,1.09a1.536,1.536,0,0,1-1.092.45h-2.318a.772.772,0,0,0,0,1.544l.085,0A1.541,1.541,0,0,1,198.5,15.5a1.645,1.645,0,0,1-1.678,1.491H193.1a.772.772,0,0,0,0,1.544,1.544,1.544,0,1,1,0,3.088H180.746V10.93a1.647,1.647,0,0,1,1.462-1.663l.084,0a1.545,1.545,0,0,1,1.542,1.542v.005a.772.772,0,0,0,.771.772h0a.772.772,0,0,0,.772-.771h0V7.07a1.647,1.647,0,0,1,1.462-1.663l.083,0a1.546,1.546,0,0,1,1.542,1.543v0a.772.772,0,0,0,.771.772h0a.772.772,0,0,0,.772-.771h0V3.093l0-.086a1.53,1.53,0,0,1,1.593-1.462,1.653,1.653,0,0,1,1.491,1.68v.641a.772.772,0,0,0,1.322.541l2.094-2.125c.057-.056.116-.11.177-.16a2.51,2.51,0,0,1,3.522.33,2.593,2.593,0,0,1-.226,3.468l-2.03,2.03a.772.772,0,0,0,.546,1.318h.682a1.645,1.645,0,0,1,1.635,1.462l0,.085A1.535,1.535,0,0,1,200.367,11.906Z" transform="translate(-179.202 -0.001)" fill="#919ea2"/>
      </g>
    </g>
    <g id="Group_2096" data-name="Group 2096" transform="translate(11.824 4.86)">
      <g id="Group_2095" data-name="Group 2095" transform="translate(0)">
        <rect id="Rectangle_3" data-name="Rectangle 3" width="30.567" height="1.544" transform="translate(0 21.614) rotate(-45)" fill="#919ea2"/>
      </g>
    </g>
    <g id="Group_2098" data-name="Group 2098" transform="translate(28.578 6.184)">
      <g id="Group_2097" data-name="Group 2097">
        <rect id="Rectangle_4" data-name="Rectangle 4" width="1.544" height="3.86" fill="#919ea2"/>
      </g>
    </g>
    <g id="Group_2100" data-name="Group 2100" transform="translate(23.946 10.044)">
      <g id="Group_2099" data-name="Group 2099">
        <rect id="Rectangle_5" data-name="Rectangle 5" width="1.544" height="4.632" fill="#919ea2"/>
      </g>
    </g>
    <g id="Group_2102" data-name="Group 2102" transform="translate(19.314 13.896)">
      <g id="Group_2101" data-name="Group 2101">
        <rect id="Rectangle_6" data-name="Rectangle 6" width="1.544" height="5.404" fill="#919ea2"/>
      </g>
    </g>
    <g id="Group_2104" data-name="Group 2104" transform="translate(29.35 9.272)">
      <g id="Group_2103" data-name="Group 2103">
        <rect id="Rectangle_7" data-name="Rectangle 7" width="3.86" height="1.544" fill="#919ea2"/>
      </g>
    </g>
    <g id="Group_2106" data-name="Group 2106" transform="translate(24.718 13.896)">
      <g id="Group_2105" data-name="Group 2105">
        <rect id="Rectangle_8" data-name="Rectangle 8" width="4.632" height="1.544" fill="#919ea2"/>
      </g>
    </g>
    <g id="Group_2108" data-name="Group 2108" transform="translate(20.086 18.528)">
      <g id="Group_2107" data-name="Group 2107">
        <rect id="Rectangle_9" data-name="Rectangle 9" width="5.404" height="1.544" fill="#919ea2"/>
      </g>
    </g>
    <g id="Group_2110" data-name="Group 2110" transform="translate(2.812 1.76)">
      <g id="Group_2109" data-name="Group 2109">
        <path id="Path_2382" data-name="Path 2382" d="M42.529,21.254l0,0a3.562,3.562,0,0,0-4.934-.985c-.051.033-.1.069-.158.111l-.278.212-.267-.192a3.551,3.551,0,1,0-4.231,5.652l.65.508v.4a3.859,3.859,0,1,0,7.719,0v-.4l.683-.533A3.553,3.553,0,0,0,42.529,21.254ZM40.768,24.8l-.988.772a.772.772,0,0,0-.3.608v.772a2.316,2.316,0,1,1-4.632,0v-.772a.77.77,0,0,0-.3-.608l-.988-.772a.761.761,0,0,0-.093-.063,2.007,2.007,0,1,1,2.387-3.188.814.814,0,0,0,.084.07l.772.556a.771.771,0,0,0,.918-.012l.814-.612a2,2,0,0,1,2.32,3.248Z" transform="translate(-30.916 -19.441)" fill="#919ea2"/>
      </g>
    </g>
    <g id="Group_2112" data-name="Group 2112" transform="translate(16.998 0.773)">
      <g id="Group_2111" data-name="Group 2111">
        <rect id="Rectangle_10" data-name="Rectangle 10" width="1.544" height="1.544" fill="#919ea2"/>
      </g>
    </g>
    <g id="Group_2114" data-name="Group 2114" transform="translate(21.63 25.476)">
      <g id="Group_2113" data-name="Group 2113">
        <rect id="Rectangle_11" data-name="Rectangle 11" width="1.544" height="1.544" fill="#919ea2"/>
      </g>
    </g>
    <g id="Group_2116" data-name="Group 2116" transform="translate(41.702 4.637)">
      <g id="Group_2115" data-name="Group 2115">
        <path id="Path_2383" data-name="Path 2383" d="M460.787,51.24v1.544a1.544,1.544,0,1,1,0,3.088v1.544a3.088,3.088,0,0,0,0-6.176Z" transform="translate(-460.787 -51.24)" fill="#919ea2"/>
      </g>
    </g>
    <g id="Group_2118" data-name="Group 2118" transform="translate(1.559 11.588)">
      <g id="Group_2117" data-name="Group 2117">
        <rect id="Rectangle_12" data-name="Rectangle 12" width="1.544" height="1.544" fill="#919ea2"/>
      </g>
    </g>
    <g id="Group_2120" data-name="Group 2120" transform="translate(0.017 8.5)">
      <g id="Group_2119" data-name="Group 2119">
        <rect id="Rectangle_13" data-name="Rectangle 13" width="1.544" height="1.544" fill="#919ea2"/>
      </g>
    </g>
    <g id="Group_2122" data-name="Group 2122" transform="translate(27.035 24.707)">
      <g id="Group_2121" data-name="Group 2121">
        <path id="Path_2384" data-name="Path 2384" d="M301.752,273.083a3.091,3.091,0,0,0-3.088,3.088h1.544a1.544,1.544,0,1,1,3.088,0h1.544A3.091,3.091,0,0,0,301.752,273.083Z" transform="translate(-298.664 -273.083)" fill="#919ea2"/>
      </g>
    </g>
    <g id="Group_2124" data-name="Group 2124" transform="translate(0.017 15.443)">
      <g id="Group_2123" data-name="Group 2123" transform="translate(0)">
        <path id="Path_2385" data-name="Path 2385" d="M9.281,173.006h-.1a3.089,3.089,0,0,0-5.981,0h-.1a3.088,3.088,0,1,0,0,6.176H9.281a3.088,3.088,0,1,0,0-6.176Zm0,4.632H3.106a1.544,1.544,0,1,1,0-3.088h.772a.772.772,0,0,0,.772-.772,1.544,1.544,0,0,1,3.088,0,.772.772,0,0,0,.772.772h.772a1.544,1.544,0,1,1,0,3.088Z" transform="translate(-0.018 -170.69)" fill="#919ea2"/>
      </g>
    </g>
    <g id="Group_2126" data-name="Group 2126" transform="translate(3.877 22.391)">
      <g id="Group_2125" data-name="Group 2125">
        <path id="Path_2386" data-name="Path 2386" d="M46.541,247.485H43.453a.772.772,0,0,0-.772.772v3.088a.772.772,0,0,0,.772.772h3.088a.772.772,0,0,0,.772-.772v-3.088A.772.772,0,0,0,46.541,247.485Zm-.772,3.088H44.225v-1.544h1.544v1.544Z" transform="translate(-42.681 -247.485)" fill="#919ea2"/>
      </g>
    </g>
    <g id="Group_2128" data-name="Group 2128" transform="translate(38.615 20.075)">
      <g id="Group_2127" data-name="Group 2127">
        <path id="Path_2387" data-name="Path 2387" d="M428.972,221.887a2.316,2.316,0,1,0,2.316,2.316A2.319,2.319,0,0,0,428.972,221.887Zm0,3.089a.772.772,0,1,1,.772-.772A.773.773,0,0,1,428.972,224.976Z" transform="translate(-426.656 -221.887)" fill="#919ea2"/>
      </g>
    </g>
    <g id="Group_2130" data-name="Group 2130" transform="translate(35.527 16.987)">
      <g id="Group_2129" data-name="Group 2129">
        <path id="Path_2388" data-name="Path 2388" d="M397.929,187.756a5.4,5.4,0,1,0,5.4,5.4A5.41,5.41,0,0,0,397.929,187.756Zm0,9.264a3.86,3.86,0,1,1,3.86-3.86A3.865,3.865,0,0,1,397.929,197.02Z" transform="translate(-392.525 -187.756)" fill="#919ea2"/>
      </g>
    </g>
  </g>
</svg>
