<?xml version="1.0" encoding="utf-8"?>
<!-- Generator: Adobe Illustrator 23.0.3, SVG Export Plug-In . SVG Version: 6.00 Build 0)  -->
<svg version="1.1" id="Layer_1" xmlns="http://www.w3.org/2000/svg" xmlns:xlink="http://www.w3.org/1999/xlink" x="0px" y="0px"
	 viewBox="0 0 88 18" style="enable-background:new 0 0 88 18;" xml:space="preserve">
<style type="text/css">
	.st0{fill:#E31837;}
</style>
<g id="allo_grey" transform="translate(-8.36 -0.885)">
	<path id="Path_16" class="st0" d="M14.9,12.7c0.2-2.1,1.8-3.8,3.9-4.1c2.4-0.4,4.8-0.7,7.4-1.1c0.6-0.1,0.7-0.4,0.6-0.9
		c-0.2-1.2-1.3-2-2.5-1.8c0,0,0,0,0,0c-2.3,0.2-4.5,0.5-6.9,0.7c-0.9,0.1-1.7-0.5-1.8-1.3c0,0,0,0,0,0c-0.1-0.9,0.5-1.7,1.4-1.9
		c2.4-0.3,4.8-0.6,7.3-0.8c2.9-0.3,5.5,1.8,5.8,4.6c0,0.2,0,0.4,0,0.6v7.8c0,2-1.4,3.6-3.4,3.6c-2.5,0.1-5.1,0.1-7.5,0
		C16,18.1,14.5,15.4,14.9,12.7z M26.8,10.7c-0.6,0.1-1.3,0.1-1.8,0.2c-1.8,0.3-3.7,0.5-5.5,0.8c-0.9,0.1-1.5,0.8-1.5,1.7
		c0,0.8,0.6,1.5,1.5,1.5c0,0,0.1,0,0.1,0h6.6c0.2,0,0.4-0.2,0.5-0.4L26.8,10.7z"/>
	<path id="Path_17" class="st0" d="M89.9,10.5c-0.1,2-0.9,3.8-2.2,5.3c-1,1-2.1,1.8-3.5,2.2c-1.1,0.4-2.2,0.5-3.4,0.4
		c-3.9-0.3-7.1-3.2-7.7-7.1c-0.6-3.8,1.3-7.5,4.7-9.2c3.3-1.7,7.8-0.8,10.1,2.1C89.3,6.1,90,8.3,89.9,10.5z M76.3,9.9
		c0,2.9,2.3,5.2,5.1,5.3c0,0,0,0,0,0c2.9,0,5.2-2.3,5.3-5.2c0-2.9-2.3-5.2-5.1-5.3c0,0,0,0,0,0c-2.8-0.1-5.2,2.1-5.3,4.9
		C76.3,9.7,76.3,9.8,76.3,9.9z"/>
	<path id="Path_18" class="st0" d="M62.1,1.5c2.4-0.1,4.6,1.5,5.3,3.9c1.2,3.5,2.2,7,3.4,10.4c0.4,1.2,0,2.1-1.1,2.4
		c-1.1,0.3-1.9-0.2-2.3-1.4c-1.1-3.4-2.1-6.6-3.3-10C63.7,5.6,63,5,62,5s-1.7,0.5-2.1,1.8c-1.1,3.4-2.1,6.7-3.3,10.1
		c-0.2,0.7-0.7,1.2-1.4,1.4c-0.6,0.2-1.3-0.1-1.7-0.6c-0.3-0.5-0.4-1.1-0.3-1.7c1.1-3.7,2.2-7.4,3.5-11C57.6,2.8,59.7,1.4,62.1,1.5z
		"/>
	<path id="Path_19" class="st0" d="M41.7,1.5c2.3,0,4.4,1.4,5.2,3.6c1.3,3.6,2.3,7.3,3.5,11c0.3,0.7,0,1.6-0.6,2
		c-0.6,0.5-1.5,0.5-2.1,0c-0.3-0.3-0.6-0.7-0.7-1.2c-1.1-3.4-2.2-6.7-3.3-10.1C43.2,5.6,42.6,5,41.5,5s-1.7,0.5-2.1,1.8
		c-1.1,3.4-2.1,6.7-3.3,10.1c-0.4,1.2-1.3,1.7-2.3,1.4c-0.9-0.3-1.4-1.3-1.1-2.4c1.2-3.6,2.2-7.2,3.5-10.7
		C37.2,2.9,39.3,1.5,41.7,1.5z"/>
	<path id="Path_20" class="st0" d="M78.9,9.9c0-1.4,1.1-2.5,2.5-2.5c1.4,0,2.5,1,2.5,2.4c0,1.4-1,2.5-2.4,2.5c0,0-0.1,0-0.1,0
		c-1.3,0.1-2.5-1-2.5-2.3C78.9,10,78.9,9.9,78.9,9.9z"/>
</g>
</svg>
