<?xml version="1.0" encoding="utf-8"?>
<!-- Generator: Adobe Illustrator 23.0.3, SVG Export Plug-In . SVG Version: 6.00 Build 0)  -->
<svg version="1.1" id="Layer_1" xmlns="http://www.w3.org/2000/svg" xmlns:xlink="http://www.w3.org/1999/xlink" x="0px" y="0px"
	 viewBox="0 0 70.2 16.1" style="enable-background:new 0 0 70.2 16.1;" xml:space="preserve">
<style type="text/css">
	.st0{fill:#54AE5C;}
	.st1{fill:#7CBA5C;}
	.st2{fill:#444344;}
</style>
<path class="st0" d="M22.4,2c-2,0.3-4,0.6-6,1C14.1,6.9,14,10.9,14.9,15C15.1,10.6,17,6.3,22.4,2z"/>
<path class="st1" d="M15.9,1.1C10.9,2.1,6.1,4,2.6,7.8c0,0-0.1,0.1-0.1,0.1c1.7,2.7,5,5.5,8.5,7.1c1.2,0,2.3,0,3.5,0
	c0.1,0,0.3,0,0.4,0c-0.2-0.6-0.3-1.3-0.5-1.9C13.6,9,13.7,5,15.9,1.1z"/>
<g>
	<path class="st2" d="M20.8,9.3l2.7,5.7h-0.6L22,13.2h-2.5L18.6,15H18l2.7-5.7H20.8z M20.8,10.5l-1,2.1h2L20.8,10.5z"/>
	<path class="st2" d="M26.7,9.3h1.1c0.6,0,1.1,0,1.3,0.1c0.3,0.1,0.6,0.2,0.8,0.5s0.3,0.6,0.3,0.9c0,0.3-0.1,0.6-0.2,0.8
		s-0.4,0.4-0.6,0.5c-0.3,0.1-0.7,0.2-1.1,0.2l2.1,2.7h-0.7l-2.1-2.7h-0.3V15h-0.6V9.3z M27.2,9.9v2l1,0c0.4,0,0.7,0,0.9-0.1
		c0.2-0.1,0.3-0.2,0.4-0.3s0.2-0.3,0.2-0.5c0-0.2-0.1-0.4-0.2-0.5c-0.1-0.2-0.2-0.3-0.4-0.3s-0.5-0.1-0.8-0.1H27.2z"/>
	<path class="st2" d="M33.7,9.3h0.6v2.2l2.3-2.2h0.8l-2.8,2.6l3,3.2h-0.8l-2.5-2.7V15h-0.6V9.3z"/>
	<path class="st2" d="M43,9.3l2.7,5.7H45l-0.9-1.9h-2.5L40.8,15h-0.6l2.7-5.7H43z M42.9,10.5l-1,2.1h2L42.9,10.5z"/>
	<path class="st2" d="M48.8,15V9.3H50c0.9,0,1.5,0.1,1.9,0.2c0.6,0.2,1,0.5,1.3,1s0.5,1.1,0.5,1.7c0,0.6-0.1,1.1-0.4,1.5
		c-0.2,0.4-0.6,0.8-1,1c-0.4,0.2-1,0.3-1.7,0.3H48.8z M49.3,14.5H50c0.8,0,1.3,0,1.7-0.1c0.4-0.1,0.8-0.4,1-0.8
		c0.2-0.4,0.4-0.8,0.4-1.3c0-0.6-0.1-1-0.4-1.4c-0.3-0.4-0.6-0.7-1.1-0.8c-0.4-0.1-1-0.2-1.8-0.2h-0.4V14.5z"/>
	<path class="st2" d="M56.8,9.3h0.6V15h-0.6V9.3z"/>
	<path class="st2" d="M63.3,9.3L66,15h-0.6l-0.9-1.9H62L61.1,15h-0.6l2.7-5.7H63.3z M63.2,10.5l-1,2.1h2L63.2,10.5z"/>
</g>
</svg>
