<?xml version="1.0" encoding="utf-8"?>
<!-- Generator: Adobe Illustrator 23.0.3, SVG Export Plug-In . SVG Version: 6.00 Build 0)  -->
<svg version="1.1" id="Layer_1" xmlns="http://www.w3.org/2000/svg" xmlns:xlink="http://www.w3.org/1999/xlink" x="0px" y="0px"
	 viewBox="0 0 91.8 16.1" style="enable-background:new 0 0 91.8 16.1;" xml:space="preserve">
<style type="text/css">
	.st0{fill:#58378F;}
</style>
<path class="st0" d="M2.5,11.3c0.7-2.4,1.4-4.8,2.1-7.2c0.1-0.3,0.3-0.4,0.6-0.4c2.3,0,4.6,0,6.8,0c0,0.1,0,0.1,0,0.2
	c-0.4,1.9-0.4,1.9-2.4,1.9c-0.9,0-1.9,0-2.8,0c-0.3,0-0.6,0-0.6,0.4c0,0.4,0.4,0.3,0.6,0.3c0.8,0,1.7,0,2.5,0c1.3,0,2,0.8,1.7,2.1
	c-0.3,1.6-1.6,2.7-3.3,2.7C6.1,11.3,4.3,11.3,2.5,11.3z M5.4,9.1c1,0,1.9,0,2.9,0c0.3,0,0.4-0.1,0.5-0.4c0-0.2-0.1-0.2-0.2-0.2
	c-1,0-1.9,0-2.9,0C5.5,8.6,5.5,8.9,5.4,9.1z"/>
<path class="st0" d="M44.6,3.7c1,0,2.1,0,3.1,0c0.5,0,0.6,0.1,0.5,0.6c-0.4,1.5-0.4,1.5-1.9,1.5c-0.9,0-1.9,0-2.8,0
	c-0.4,0-1-0.3-1,0.4c0,0.4,0.6,0.2,0.9,0.2c0.8,0,1.5,0,2.3,0c1.1,0,1.7,0.7,1.6,1.8c-0.1,1.3-1.4,3.2-3.2,3.1c-1.6-0.1-3.1,0-4.7,0
	c-0.5,0-0.8-0.1-0.6-0.7c0.7-2.1,1.3-4.2,1.9-6.3c0.1-0.4,0.3-0.6,0.8-0.6C42.5,3.8,43.6,3.7,44.6,3.7z M43.2,9.1c0.4,0,0.9,0,1.3,0
	c0.2,0,0.4-0.1,0.4-0.3c0-0.3-0.2-0.3-0.4-0.3c-0.8,0-1.6,0-2.4,0c-0.2,0-0.5,0-0.5,0.3c0,0.4,0.4,0.3,0.6,0.3
	C42.5,9.2,42.9,9.1,43.2,9.1z"/>
<path class="st0" d="M53.2,11.3c0.2-0.8,0.4-1.5,0.6-2.2C54,8.7,54,8.5,53.5,8.5c-0.1,0-0.3,0-0.4,0c-2.3,0-2.3,0-3,2.1
	c-0.1,0.4-0.3,0.7-0.8,0.6c-0.5-0.1-1,0-1.7,0c0.7-2.1,1.1-4.2,2-6.1c0.5-1,1.3-1.5,2.4-1.4c1.6,0,3.3,0,4.9,0
	c0.7,0,0.8,0.1,0.6,0.8c-0.6,2-1.2,4-1.8,6c-0.2,0.6-0.5,0.8-1.1,0.8C54.3,11.2,53.8,11.3,53.2,11.3z M53,6.4c0.4,0,0.9,0,1.3,0
	c0.2,0,0.4-0.1,0.4-0.3c0-0.2-0.1-0.2-0.2-0.2c-1,0-1.9,0-2.9,0c-0.2,0-0.2,0.2-0.2,0.4c0,0.2,0.2,0.2,0.3,0.2
	C52.2,6.4,52.6,6.4,53,6.4z"/>
<path class="st0" d="M24.8,11.3c-0.7,0-1.5,0-2.2,0c-0.9,0-1.3-0.5-1.2-1.4c0.3-1.7,0.7-3.4,1.5-4.9C23.3,4.1,24,3.7,25,3.7
	c1.3,0,2.6,0,3.9,0c1.2,0,1.7,0.6,1.4,1.7c-0.4,1.4-0.8,2.8-1.3,4.2c-0.4,1.1-1.3,1.6-2.5,1.6C26,11.2,25.4,11.3,24.8,11.3
	C24.8,11.3,24.8,11.3,24.8,11.3z M26.4,5.8c-1.6,0-1.6,0-2.1,1.5c0,0.1-0.1,0.2-0.1,0.3c-0.5,1.5-0.5,1.5,1.1,1.5
	c1.8,0,1.8,0,2.3-1.7C28,5.8,28,5.8,26.4,5.8z"/>
<path class="st0" d="M79.6,9.1c0,0.1,0,0.2,0,0.3c-0.4,1.9-0.4,1.9-2.3,1.9c-1.4,0-2.9,0-4.3,0c-0.5,0-0.8-0.1-0.6-0.7
	c0.7-2.1,1.3-4.2,1.9-6.3c0.1-0.4,0.3-0.6,0.8-0.6c1.9,0,3.7,0,5.6,0c0.6,0,0.6,0.2,0.5,0.7c-0.4,1.4-0.4,1.4-1.8,1.4
	c-0.9,0-1.8,0-2.7,0c-0.3,0-0.7,0-0.6,0.4c0,0.4,0.4,0.2,0.6,0.2c0.3,0,0.5,0,0.8,0c0.4,0,1.1-0.2,1.2,0.1c0.2,0.6-0.2,1.2-0.4,1.7
	c-0.1,0.3-0.4,0.2-0.7,0.2c-0.6,0-1.3,0-1.9,0c-0.3,0-0.4,0.1-0.4,0.4c0,0.3,0.3,0.2,0.4,0.2C77,9.1,78.3,9.1,79.6,9.1z"/>
<path class="st0" d="M17.1,11.3c0.5-1.6,0.9-3.1,1.4-4.6c0.2-0.6,0.2-0.9-0.6-0.9c-2.5,0-2.5,0-3.2,2.3c-0.1,0.4-0.3,0.9-0.4,1.3
	c-0.6,2-0.6,2-2.8,1.8c0.6-1.9,1.1-3.8,1.7-5.6c0.4-1.2,1.3-1.9,2.7-1.9c1.7,0.1,3.3,0,5,0c0.6,0,0.6,0.1,0.5,0.7
	c-0.6,2.1-1.3,4.2-1.9,6.3c-0.1,0.5-0.4,0.7-0.9,0.6C18.2,11.2,17.7,11.3,17.1,11.3z"/>
<path class="st0" d="M80.4,11.2c0.7-2.4,1.5-4.8,2.2-7.1c0.1-0.4,0.4-0.4,0.7-0.4c1.8,0,3.5,0,5.3,0c1,0,1.5,0.6,1.4,1.6
	c-0.2,2.2-1.4,3.2-3.5,3.2c-0.1,0-0.2,0-0.3,0c-0.8,0-1.7-0.2-2.4,0.1c-0.7,0.3-0.6,1.4-0.9,2.1c-0.1,0.4-0.3,0.5-0.7,0.5
	C81.6,11.2,81,11.2,80.4,11.2z M85.7,6.4C85.7,6.4,85.7,6.4,85.7,6.4c0.4,0,0.9,0,1.3,0c0.2,0,0.3-0.1,0.3-0.3
	c0-0.2-0.1-0.3-0.3-0.3c-0.9,0-1.7,0-2.6,0c-0.2,0-0.4,0.2-0.4,0.4c0,0.3,0.3,0.2,0.4,0.2C85,6.4,85.3,6.4,85.7,6.4z"/>
<path class="st0" d="M34.5,3.7c-0.1,0.2-0.1,0.3-0.1,0.5c-0.1,0.6-0.8,1.4-0.3,1.7c0.5,0.3,1.4,0.1,2.2,0.1c0.3,0,0.4-0.1,0.4-0.4
	c0-0.2,0.1-0.4,0.2-0.6c0.4-1.2,1.2-1.6,2.4-1.3c0.3,0.1,0.3,0.2,0.2,0.4c-0.3,1-0.5,2.1-1.4,2.8c-0.2,0.2-0.4,0.3-0.2,0.7
	c0.6,1.2-0.2,2.4-0.4,3.5c-0.1,0.3-2.2,0.3-2.2,0.1c0-0.4,0.1-0.7,0.2-1.1c0.5-1.7,0.5-1.7-1.3-1.7c-0.7,0-1.2,0.1-1.3,0.9
	c0,0.2-0.1,0.4-0.2,0.6c-0.4,1.4-0.7,1.6-2.2,1.4c-0.4-0.1-0.4-0.2-0.3-0.5c0.7-2.2,1.3-4.4,2-6.6c0.1-0.4,0.3-0.4,0.6-0.4
	C33.3,3.7,33.8,3.7,34.5,3.7z"/>
<path class="st0" d="M63.9,9.1c0,0.1,0,0.2,0,0.2c-0.5,1.9-0.5,1.9-2.4,1.9c-1,0-1.9,0-2.9,0c-1,0-1.5-0.5-1.4-1.5
	c0.3-1.7,0.8-3.4,1.6-5c0.3-0.7,1-1.1,1.8-1.1c1.4,0,2.9,0,4.3,0c0.6,0,0.6,0.2,0.5,0.7c-0.4,1.5-0.4,1.5-1.9,1.5c-0.5,0-1,0-1.4,0
	c-1.6,0-1.6,0-2,1.5c-0.5,1.7-0.5,1.7,1.3,1.7C62.3,9.1,63.1,9.1,63.9,9.1z"/>
<path class="st0" d="M66.7,11.3c0.5-1.8,1-3.6,1.6-5.4c-0.7,0-1.4,0-2.1,0c0-0.7,0.3-1.2,0.4-1.8c0.1-0.4,0.3-0.4,0.7-0.4
	c1.9,0,3.7,0,5.6,0c0.5,0,0.5,0.2,0.5,0.6c-0.3,1.4-0.3,1.5-1.9,1.5c-0.6,0-0.9,0.2-1.1,0.8c-0.3,1.2-0.8,2.4-1.1,3.7
	c-0.2,0.7-0.5,1.1-1.3,1C67.6,11.2,67.2,11.3,66.7,11.3z"/>
</svg>
