<?xml version="1.0" encoding="utf-8"?>
<!-- Generator: Adobe Illustrator 23.0.3, SVG Export Plug-In . SVG Version: 6.00 Build 0)  -->
<svg version="1.1" id="Layer_1" xmlns="http://www.w3.org/2000/svg" xmlns:xlink="http://www.w3.org/1999/xlink" x="0px" y="0px"
	 viewBox="0 0 43.3 11.4" style="enable-background:new 0 0 43.3 11.4;" xml:space="preserve">
<style type="text/css">
	.st0{fill:url(#SVGID_1_);}
	.st1{fill:url(#SVGID_2_);}
	.st2{fill:url(#SVGID_3_);}
	.st3{fill:url(#SVGID_4_);}
</style>
<g>
	<linearGradient id="SVGID_1_" gradientUnits="userSpaceOnUse" x1="9.5437" y1="10.0304" x2="14.5767" y2="1.313">
		<stop  offset="0" style="stop-color:#42FFFF"/>
		<stop  offset="0.3512" style="stop-color:#3AD0FF"/>
		<stop  offset="0.7872" style="stop-color:#319BFF"/>
		<stop  offset="1" style="stop-color:#2E86FF"/>
	</linearGradient>
	<path class="st0" d="M9.7,1.1c1,0,2,0,3,0c0.7,0,1.5,0.1,2.2,0.4c1,0.5,1.5,1.3,1.6,2.3c0.1,1.5,0,3,0,4.5c0,0.2,0,0.3,0.2,0.4
		c0.3,0.3,0.7,0.7,1,1c0.3,0.3,0.3,0.6,0,0.9c-0.3,0.3-0.6,0.4-0.9,0.1c-0.4-0.4-0.9-0.9-1.3-1.3c-0.2-0.2-0.3-0.2-0.5-0.2
		c-1.8,0-3.6,0-5.4,0c-0.7,0-1.3-0.1-2-0.4C6.4,8.4,5.9,7.5,5.9,6.3c0-1.5,0-3.1,0-4.6c0-0.4,0.2-0.6,0.6-0.6
		C7.6,1.1,8.6,1.1,9.7,1.1z M15.1,8.1C15.1,8.1,15.1,8,15.1,8.1c0-1.4,0-2.8,0-4.1c0-0.8-0.5-1.4-1.2-1.6c-0.3-0.1-0.7-0.1-1.1-0.2
		c-1.8,0-3.6,0-5.3,0c-0.1,0-0.1,0-0.2,0c0,0.1,0,0.2,0,0.3c0,0.9,0,1.7,0,2.6c0,0.5,0,1,0.1,1.4c0.1,0.7,0.4,1.2,1.2,1.4
		c0.3,0.1,0.7,0.1,1,0.2c1.8,0,3.6,0,5.4,0C14.9,8.1,15,8.1,15.1,8.1z"/>
	<linearGradient id="SVGID_2_" gradientUnits="userSpaceOnUse" x1="33.4477" y1="9.5735" x2="38.5286" y2="0.7731">
		<stop  offset="0" style="stop-color:#42FFFF"/>
		<stop  offset="0.3512" style="stop-color:#3AD0FF"/>
		<stop  offset="0.7872" style="stop-color:#319BFF"/>
		<stop  offset="1" style="stop-color:#2E86FF"/>
	</linearGradient>
	<path class="st1" d="M35.6,5.6c-0.8,0-1.5,0-2.3,0c-0.3,0-0.6-0.1-1-0.2c-0.6-0.2-1-0.6-1.1-1.2c-0.1-0.5-0.1-1,0-1.5
		c0-0.6,0.4-1,0.9-1.2c0.5-0.2,1.1-0.3,1.7-0.4c1.3,0,2.6-0.1,3.9,0c0.6,0,1.3,0.1,1.9,0.4c0.4,0.2,0.7,0.5,0.8,1
		c0.1,0.3,0,0.6-0.3,0.7c-0.3,0.1-0.8,0-0.9-0.2C39,2.3,38.6,2.2,38,2.2c-1,0-2.1,0-3.1,0c-0.5,0-1.1,0-1.6,0.1
		c-0.5,0.1-0.6,0.3-0.7,0.8c0,0.2,0,0.4,0,0.6c0,0.4,0.2,0.6,0.6,0.7c0.4,0.1,0.7,0.1,1.1,0.1c1.4,0,2.8,0,4.2,0
		c0.4,0,0.8,0.1,1.2,0.2c0.6,0.2,0.9,0.6,1.1,1.2c0.1,0.5,0.2,1,0.1,1.5c-0.1,0.7-0.6,1.2-1.3,1.4c-0.4,0.1-0.9,0.2-1.4,0.2
		c-1.5,0-2.9,0-4.4,0c-0.7,0-1.3-0.1-1.9-0.4c-0.5-0.3-0.7-0.6-0.7-1.2c0-0.2,0.1-0.4,0.3-0.4c0.4-0.2,0.8,0,1,0.3
		c0.2,0.4,0.5,0.5,0.9,0.6C33.6,8,33.8,8,34.1,8c1.1,0,2.3,0,3.4,0c0.4,0,0.9-0.1,1.3-0.1c0.5-0.1,0.7-0.3,0.7-0.8
		c0-0.2,0-0.5,0-0.7c0-0.4-0.2-0.6-0.6-0.7c-0.4-0.1-0.8-0.1-1.1-0.2C37.1,5.6,36.4,5.6,35.6,5.6C35.6,5.6,35.6,5.6,35.6,5.6z"/>
	<linearGradient id="SVGID_3_" gradientUnits="userSpaceOnUse" x1="21.3502" y1="9.4332" x2="26.382" y2="0.7179">
		<stop  offset="0" style="stop-color:#42FFFF"/>
		<stop  offset="0.3512" style="stop-color:#3AD0FF"/>
		<stop  offset="0.7872" style="stop-color:#319BFF"/>
		<stop  offset="1" style="stop-color:#2E86FF"/>
	</linearGradient>
	<path class="st2" d="M23.8,9.2c-0.7,0-1.4,0-2.1-0.1c-0.6,0-1.1-0.2-1.7-0.4c-1-0.5-1.4-1.3-1.5-2.3c0-0.8,0-1.6,0-2.4
		c0-1.3,0.7-2.3,2-2.7C21.2,1.1,21.9,1,22.5,1c0.9,0,1.8,0,2.7,0c0.8,0,1.6,0.1,2.3,0.4c0.9,0.4,1.5,1.2,1.5,2.2c0.1,1,0.1,2,0,3
		c-0.1,1.1-0.8,1.9-1.8,2.2c-0.6,0.2-1.2,0.3-1.9,0.3C24.9,9.2,24.4,9.2,23.8,9.2C23.8,9.1,23.8,9.2,23.8,9.2z M23.9,8
		C23.9,8,23.9,8,23.9,8c0.4,0,0.7,0,1.1,0c0.4,0,0.7,0,1.1,0c1.1-0.1,1.7-0.8,1.7-1.8c0-0.7,0-1.4,0-2.1c0-0.7-0.3-1.4-1.1-1.7
		c-0.3-0.1-0.6-0.2-0.9-0.2c-1,0-1.9,0-2.9,0c-0.5,0-0.9,0-1.4,0.1c-1,0.1-1.5,0.7-1.6,1.7c0,0.7,0,1.4,0,2.1c0,0.5,0.1,1,0.4,1.4
		C20.8,7.9,21.4,8,22,8C22.6,8,23.2,8,23.9,8z"/>
	<linearGradient id="SVGID_4_" gradientUnits="userSpaceOnUse" x1="1.0978" y1="8.2476" x2="4.7489" y2="1.9236">
		<stop  offset="0" style="stop-color:#42FFFF"/>
		<stop  offset="0.3512" style="stop-color:#3AD0FF"/>
		<stop  offset="0.7872" style="stop-color:#319BFF"/>
		<stop  offset="1" style="stop-color:#2E86FF"/>
	</linearGradient>
	<path class="st3" d="M3.6,5.1c0,1.1,0,2.3,0,3.4c0,0.4-0.2,0.7-0.7,0.7c-0.4,0-0.7-0.2-0.7-0.7c0-2.3,0-4.6,0-6.8
		C2.3,1.3,2.5,1,2.8,1c0.3,0,0.6,0.1,0.7,0.5c0,0.1,0,0.1,0,0.2C3.6,2.8,3.6,4,3.6,5.1z"/>
</g>
</svg>
