<?xml version="1.0" encoding="utf-8"?>
<!-- Generator: Adobe Illustrator 23.0.3, SVG Export Plug-In . SVG Version: 6.00 Build 0)  -->
<svg version="1.1" id="Layer_1" xmlns="http://www.w3.org/2000/svg" xmlns:xlink="http://www.w3.org/1999/xlink" x="0px" y="0px"
	 viewBox="0 0 39.7 16.4" style="enable-background:new 0 0 39.7 16.4;" xml:space="preserve">
<style type="text/css">
	.st0{fill:#47274C;}
</style>
<g>
	<path class="st0" d="M3.8,7.8H1.6v7.4h3.9l0.8-2.1H3.8V7.8z M18.2,7.8l-1.5,4.4l-1.8-4.5h-2.4l2.9,7.4H18l2.7-7.4L18.2,7.8z
		 M21.8,7.8L19,15.3h2.3l2.6-7.4L21.8,7.8z M30.5,7.8L28.9,12l-1.7-4.2h-2.1l-2.7,7.4h2.5l1.5-3.7l1.3,3.7H30l2.7-7.4L30.5,7.8z
		 M10.9,3c1.7-0.4,3.5-0.7,5.3-0.9c2-0.1,4.1-0.1,6.2,0.1c2,0.2,4,0.6,5.9,1.2c2.3,0.7,4.5,1.7,6.5,3c0.4,0.2,0.7,0.5,1.1,0.8V7.1
		c-1.1-1.1-2.4-2-3.7-2.7c-3.6-2-7.5-3-11.6-3.3c-2.7-0.2-5.3,0-7.9,0.6c-2.5,0.5-4.9,1.4-7.1,2.6c-1.4,0.9-2.7,1.8-3.9,3
		c0,0,0,0,0.1,0C4.5,5.1,7.6,3.8,10.9,3z M34,14.3h2.5l0.4,1l0,0h2.4l-2.9-7.4H34l-2.8,7.4h2.5L34,14.3z M35.2,10.9l0.6,1.6h-1.2
		L35.2,10.9z M11.6,14.3l0.4,1l0,0l0,0l0,0h2.4l-2.9-7.4H9.1l-2.8,7.4h2.5l0.4-1H11.6L11.6,14.3z M10.4,10.9l0.6,1.6H9.8L10.4,10.9z
		"/>
</g>
</svg>
