<?xml version="1.0" encoding="utf-8"?>
<!-- Generator: Adobe Illustrator 23.0.3, SVG Export Plug-In . SVG Version: 6.00 Build 0)  -->
<svg version="1.1" id="Layer_1" xmlns="http://www.w3.org/2000/svg" xmlns:xlink="http://www.w3.org/1999/xlink" x="0px" y="0px"
	 viewBox="0 0 43 11.4" style="enable-background:new 0 0 43 11.4;" xml:space="preserve">
<style type="text/css">
	.st0{fill:#EE3023;}
	.st1{fill:#FFFFFF;}
</style>
<path class="st0" d="M8.4,1.3c-0.9,0.2-1.6,1-1.6,2c0,0,0,0.1,0,0.1C8.3,3.7,9,4.6,9,5.8c0,1.5-1.2,2.6-2.6,2.6c0,0,0,0,0,0h0
	c-1.4,0-2.8-1.1-2.8-3c0-1.2,0.7-2.4,1.5-3.1c0.8-0.7,2-1.1,3-1.1C8.2,1.2,8.3,1.2,8.4,1.3C7.8,1,7.1,0.8,6.3,0.8
	C3.6,0.8,1.4,3,1.4,5.7s2.2,4.9,4.9,4.9s4.9-2.2,4.9-4.9C11.2,3.8,10.1,2.1,8.4,1.3z"/>
<polygon class="st1" points="8.4,1.3 8.4,1.3 8.4,1.3 "/>
<path class="st0" d="M14.4,7.8l-1.5-3.6h1l0.9,2.4l0.9-2.4h0.9l-1.5,3.6H14.4z M19.3,5.9c0-0.1,0-0.3-0.1-0.4c0-0.1-0.1-0.2-0.2-0.3
	C19,5.1,18.9,5,18.8,4.9c-0.1-0.1-0.2-0.1-0.3-0.1c-0.1,0-0.2,0-0.3,0.1C18,5,18,5.1,17.9,5.2c-0.1,0.1-0.1,0.2-0.2,0.3
	c0,0.1-0.1,0.3-0.1,0.4c0,0.1,0,0.3,0.1,0.4c0,0.1,0.1,0.2,0.1,0.3C18,6.9,18.2,7,18.5,7c0.2,0,0.5-0.1,0.6-0.3
	c0.1-0.1,0.1-0.2,0.2-0.3C19.3,6.2,19.3,6.1,19.3,5.9 M20.2,5.9c0,0.2,0,0.5-0.1,0.7c-0.1,0.2-0.2,0.4-0.3,0.6
	c-0.3,0.4-0.8,0.6-1.3,0.6c-0.5,0-1-0.2-1.3-0.6c-0.1-0.2-0.3-0.4-0.3-0.6c-0.1-0.4-0.1-0.9,0-1.4C17,5,17.1,4.8,17.2,4.7
	c0.1-0.2,0.3-0.3,0.5-0.4c0.2-0.1,0.5-0.2,0.8-0.2c0.5,0,1,0.2,1.3,0.6C19.9,4.8,20,5,20.1,5.3C20.2,5.5,20.2,5.7,20.2,5.9 M23,5
	c-0.2-0.1-0.3-0.1-0.5-0.1c-0.3,0-0.5,0.1-0.7,0.3c-0.1,0.1-0.1,0.2-0.2,0.3c0,0.1-0.1,0.3-0.1,0.4c0,0.1,0,0.3,0,0.4
	c0,0.1,0.1,0.2,0.1,0.4C21.8,6.8,21.9,6.9,22,7c0.1,0.1,0.2,0.1,0.4,0.1c0.1,0,0.2,0,0.3-0.1c0.1,0,0.2-0.1,0.3-0.2L23,5z M23.1,7.8
	l0-0.3c-0.1,0.1-0.2,0.2-0.3,0.2c-0.4,0.2-0.8,0.1-1.1,0c-0.2-0.1-0.3-0.2-0.5-0.4c-0.1-0.2-0.2-0.4-0.3-0.6
	c-0.1-0.2-0.1-0.5-0.1-0.7c0-0.2,0-0.5,0.1-0.7C20.8,5,21,4.8,21.1,4.7c0.3-0.4,0.8-0.6,1.3-0.6c0.2,0,0.4,0,0.6,0.1V2.8h0.9v5
	L23.1,7.8z M26.5,6.1c-0.2,0-0.4,0-0.6,0.1c-0.2,0-0.3,0.1-0.4,0.2c-0.1,0.1-0.1,0.2-0.1,0.3c0,0.1,0,0.2,0.1,0.3
	c0.1,0.1,0.2,0.1,0.4,0.1c0.1,0,0.2,0,0.3-0.1c0.1,0,0.2-0.1,0.3-0.2V6.1z M26.6,7.8l0-0.3c-0.1,0.1-0.2,0.2-0.4,0.3
	c-0.3,0.1-0.6,0.1-1,0c-0.5-0.2-0.8-0.6-0.7-1.1c0-0.3,0.1-0.6,0.4-0.8c0.1-0.1,0.3-0.2,0.4-0.2c0.3-0.1,0.6-0.2,0.9-0.2l0.4,0V5.4
	c0-0.2-0.1-0.3-0.2-0.4c-0.1-0.1-0.3-0.1-0.4-0.1c-0.3,0-0.5,0.1-0.8,0.2c0,0-0.1,0.1-0.1,0.1l-0.3-0.6c0.1-0.1,0.3-0.2,0.5-0.3
	c0.4-0.2,0.9-0.2,1.4-0.1c0.3,0.1,0.6,0.3,0.7,0.7c0.1,0.2,0.1,0.4,0.1,0.6v2.3L26.6,7.8z M30.3,3.6c-0.2-0.1-0.3-0.1-0.5-0.1
	c-0.1,0-0.2,0-0.3,0.1c-0.1,0.1-0.1,0.2-0.1,0.4v0.2h0.8v0.7h-0.8v2.8h-0.9V4.9h-0.5V4.2h0.5V4c0-0.2,0-0.4,0.1-0.6
	c0.1-0.3,0.3-0.5,0.6-0.6c0.4-0.1,0.9-0.1,1.3,0.1L30.3,3.6z M32.8,5.9c0-0.1,0-0.3-0.1-0.4c0-0.1-0.1-0.2-0.2-0.3
	c-0.1-0.1-0.2-0.2-0.3-0.2c-0.1-0.1-0.2-0.1-0.3-0.1c-0.1,0-0.2,0-0.3,0.1c-0.1,0.1-0.2,0.1-0.3,0.2c-0.1,0.1-0.1,0.2-0.2,0.3
	c-0.1,0.3-0.1,0.6,0,0.9c0,0.1,0.1,0.2,0.2,0.3c0.1,0.1,0.2,0.2,0.3,0.2C31.7,7,31.9,7,32,7c0.2,0,0.5-0.1,0.6-0.3
	c0.1-0.1,0.1-0.2,0.2-0.3C32.8,6.2,32.8,6.1,32.8,5.9 M33.7,5.9c0,0.2,0,0.5-0.1,0.7c-0.1,0.2-0.2,0.4-0.3,0.6
	C33,7.6,32.5,7.9,32,7.8c-0.5,0-1-0.2-1.3-0.6c-0.1-0.2-0.3-0.4-0.3-0.6c-0.1-0.4-0.1-0.9,0-1.4c0.1-0.2,0.2-0.4,0.3-0.6
	c0.1-0.2,0.3-0.3,0.5-0.4c0.2-0.1,0.5-0.2,0.8-0.2c0.5,0,1,0.2,1.3,0.6c0.1,0.2,0.3,0.4,0.3,0.6S33.7,5.7,33.7,5.9 M36.6,7.8v-2
	c0-0.2,0-0.4-0.2-0.6c-0.1-0.1-0.3-0.2-0.5-0.2c-0.1,0-0.3,0-0.4,0.1c-0.1,0.1-0.2,0.2-0.3,0.2v2.5h-0.9V4.2h0.8l0,0.3
	c0.3-0.2,0.7-0.4,1-0.4c0.2,0,0.4,0,0.5,0.1c0.2,0.1,0.3,0.1,0.4,0.3c0.1,0.1,0.2,0.3,0.3,0.5c0.1,0.2,0.1,0.4,0.1,0.7v2.1L36.6,7.8
	z M40.4,5.5c0-0.1,0-0.2-0.1-0.3c0-0.1-0.1-0.2-0.2-0.2c-0.1-0.1-0.3-0.2-0.4-0.2c-0.2,0-0.3,0.1-0.5,0.2C39.1,5.1,39,5.3,39,5.5
	H40.4z M39,6.2c0,0.3,0.1,0.5,0.3,0.7c0.2,0.1,0.4,0.2,0.7,0.2c0.2,0,0.4,0,0.6-0.1c0.1,0,0.1-0.1,0.2-0.1c0,0,0.1-0.1,0.1-0.1
	l0.2,0.8c-0.1,0.1-0.3,0.2-0.5,0.2c-0.3,0.1-0.6,0.1-0.9,0.1c-0.2,0-0.5,0-0.7-0.1c-0.2-0.1-0.4-0.2-0.6-0.3
	c-0.2-0.2-0.3-0.4-0.4-0.6C38.1,6.5,38,6.2,38,6c0-0.3,0-0.6,0.1-0.8c0.2-0.7,0.8-1.1,1.5-1.1c0.2,0,0.4,0,0.6,0.1
	c0.2,0.1,0.4,0.2,0.5,0.3c0.1,0.2,0.3,0.4,0.3,0.6c0.1,0.2,0.1,0.5,0.1,0.9v0.2L39,6.2z"/>
</svg>
